<?xml version="1.0" encoding="UTF-8"?>
<svg width="24px" height="24px" viewBox="0 0 24 24" version="1.1" xmlns="http://www.w3.org/2000/svg" xmlns:xlink="http://www.w3.org/1999/xlink">
    <!-- Generator: Sketch 43.2 (39069) - http://www.bohemiancoding.com/sketch -->
    <title>topic_icon_news</title>
    <desc>Created with Sketch.</desc>
    <defs></defs>
    <g id="Page-1" stroke="none" stroke-width="1" fill="none" fill-rule="evenodd" stroke-linecap="round" stroke-linejoin="round">
        <g id="Ideas-long" transform="translate(-301.000000, -1028.000000)" stroke="#BFC9DB">
            <g id="Group-3" transform="translate(30.000000, 992.000000)">
                <g id="newspaper.3.3.1" transform="translate(271.000000, 36.000000)">
                    <g id="topic_icon_news">
                        <path d="M3.5,3.5 L14.5,3.5" id="Shape"></path>
                        <rect id="Rectangle-path" x="3.5" y="6.5" width="5" height="6"></rect>
                        <path d="M11.5,8.5 L14.5,8.5" id="Shape"></path>
                        <path d="M10.5,10.5 L14.5,10.5" id="Shape"></path>
                        <path d="M10.5,12.5 L14.5,12.5" id="Shape"></path>
                        <path d="M3.5,14.5 L14.5,14.5" id="Shape"></path>
                        <path d="M3.5,16.5 L14.5,16.5" id="Shape"></path>
                        <path d="M3.5,18.5 L14.5,18.5" id="Shape"></path>
                        <path d="M19.5,5.5 L21.5,5.5 L21.5,20.5 C21.5,21.052 21.053,21.5 20.5,21.5 C19.948,21.5 19.5,21.052 19.5,20.5 L19.5,2 L17.5,2 L17.5,4" id="Shape"></path>
                        <path d="M20.5,23.5 L3.5,23.5 C1.844,23.5 0.5,22.157 0.5,20.5 L0.5,0.5 L17.5,0.5 L17.5,20.5 C17.5,22.157 18.844,23.5 20.5,23.5 C22.157,23.5 23.5,22.157 23.5,20.5 L23.5,3.5 L19.5,3.5" id="Shape"></path>
                    </g>
                </g>
            </g>
        </g>
    </g>
</svg>