<?xml version="1.0" encoding="UTF-8"?>
<svg width="130px" height="43px" viewBox="0 0 130 43" version="1.1" xmlns="http://www.w3.org/2000/svg" xmlns:xlink="http://www.w3.org/1999/xlink">
    <!-- Generator: Sketch 43.2 (39069) - http://www.bohemiancoding.com/sketch -->
    <title>logo_mydoc</title>
    <desc>Created with Sketch.</desc>
    <defs>
        <polygon id="path-1" points="10.4208839 0.136518448 10.4208839 35.9121413 0.211532359 35.9121413 0.211532359 0.136518448 10.4208839 0.136518448"></polygon>
        <polygon id="path-3" points="20.0881582 0.0466335541 0.00664874434 0.0466335541 0.00664874434 30.915151 20.0881582 30.915151 20.0881582 0.0466335541"></polygon>
        <polygon id="path-5" points="0.239022359 32.0285399 15.688147 32.0285399 15.688147 0.0310292494 0.239022359 0.0310292494 0.239022359 32.0285399"></polygon>
    </defs>
    <g id="Page-1" stroke="none" stroke-width="1" fill="none" fill-rule="evenodd">
        <g id="Home-long" transform="translate(-70.000000, -857.000000)">
            <g id="card" transform="translate(29.000000, 777.000000)">
                <g id="logo_mydoc" transform="translate(41.000000, 80.000000)">
                    <g id="Group-3" transform="translate(118.654514, 3.028106)">
                        <mask id="mask-2" fill="white">
                            <use xlink:href="#path-1"></use>
                        </mask>
                        <g id="Clip-2"></g>
                        <path d="M5.58116058,18.0240736 C5.58116058,23.5488687 3.55431644,28.597079 0.211532359,32.4730448 L3.64433021,35.9121413 C7.85912268,31.1521878 10.420935,24.8881741 10.420935,18.0240736 C10.420935,11.1602294 7.85912268,4.89647193 3.64433021,0.136518448 L0.211532359,3.57587118 C3.55431644,7.45158073 5.58116058,12.4992786 5.58116058,18.0240736" id="Fill-1" fill="#233E6D" mask="url(#mask-2)"></path>
                    </g>
                    <path d="M118.225491,21.0521799 C118.225491,24.9140531 116.86659,28.4566659 114.604739,31.2308499 L118.036514,34.6696902 C121.168584,31.0079313 123.06501,26.253871 123.06501,21.0521799 C123.06501,15.8515137 121.168584,11.0971973 118.036514,7.43492589 L114.604739,10.8745348 C116.86659,13.6476939 118.225491,17.1908191 118.225491,21.0521799" id="Fill-4" fill="#859CC5"></path>
                    <path d="M112.216049,21.0524361 C112.216049,23.2501064 111.510515,25.2814845 110.319367,26.9369757 L113.770577,30.3955456 C115.824016,27.8376183 117.054801,24.5899243 117.054801,21.0521799 C117.054801,17.5146917 115.824016,14.2669978 113.770577,11.7098392 L110.318344,15.1678966 C111.510515,16.823644 112.216049,18.8552783 112.216049,21.0524361" id="Fill-6" fill="#C8D0E1"></path>
                    <path d="M102.163276,26.2568176 C99.2945984,26.2568176 96.9690722,23.9266773 96.9690722,21.0525643 C96.9690722,18.1787074 99.2945984,15.8480546 102.163276,15.8480546 C103.57818,15.8480546 104.859853,16.4168815 105.796303,17.3362287 L109.231914,13.8932888 C107.416551,12.0932848 104.919692,10.9807415 102.163276,10.9807415 C96.61183,10.9807415 92.1113973,15.4901037 92.1113973,21.0525643 C92.1113973,26.6155373 96.61183,31.1246433 102.163276,31.1246433 C104.919692,31.1246433 107.416551,30.0120999 109.231914,28.2126084 L105.796303,24.7688998 C104.859853,25.6887595 103.57818,26.2568176 102.163276,26.2568176" id="Fill-8" fill="#233E6D"></path>
                    <path d="M24.482032,19.5178079 L24.482032,19.7928741 L24.4958068,19.7928741 C24.4945154,19.7011854 24.482032,19.6103575 24.482032,19.5178079" id="Fill-10" fill="#B3B5B1"></path>
                    <path d="M18.9016386,11.0022134 C16.7065301,11.0022134 14.7298072,11.9215606 13.3212963,13.3925674 C11.9125297,11.9215606 9.93529539,11.0022134 7.74044259,11.0022134 C3.46581142,11.0022134 2.55720936e-05,14.4743634 2.55720936e-05,18.757476 C2.55720936e-05,18.9604088 0.0153688283,19.1589857 0.0302006426,19.3578189 L0.0302006426,31.1655885 L4.28846567,31.1655885 L4.28846567,26.3989731 L4.28846567,18.757476 C4.28846567,16.8472938 5.83353157,15.2991623 7.74044259,15.2991623 C9.57830896,15.2991623 11.0658376,16.7422402 11.1719618,18.5573616 C11.1696604,18.6247497 11.1614773,18.6900879 11.1614773,18.757476 C11.1614773,18.8251202 11.1696604,18.8907147 11.1719618,18.9578465 C11.1747748,19.0921101 11.1816792,19.2256051 11.1911409,19.3578189 L11.1911409,26.3989731 L11.1911409,31.1655885 L15.4494059,31.1655885 L15.4494059,26.3989731 L15.4494059,19.3578189 C15.4596348,19.2256051 15.4662835,19.0921101 15.4701193,18.9578465 C15.4724208,18.8907147 15.4803482,18.8251202 15.4803482,18.757476 C15.4803482,18.6900879 15.4724208,18.6247497 15.4701193,18.5573616 C15.5757321,16.7422402 17.0637722,15.2991623 18.9016386,15.2991623 C20.8075267,15.2991623 22.3533598,16.8472938 22.3533598,18.757476 L22.3533598,26.3989731 L22.3533598,31.1655885 L26.6108576,31.1655885 L26.6108576,19.3578189 C26.6264566,19.1589857 26.6412884,18.9604088 26.6412884,18.757476 C26.6412884,14.4743634 23.1762698,11.0022134 18.9016386,11.0022134" id="Fill-12" fill="#B4B4B4"></path>
                    <path d="M79.9422772,26.1987563 C77.1122136,26.1987563 74.8176297,23.9001321 74.8176297,21.0636846 C74.8176297,18.2280058 77.1122136,15.9286128 79.9422772,15.9286128 C82.7733637,15.9286128 85.067692,18.2280058 85.067692,21.0636846 C85.067692,23.9001321 82.7733637,26.1987563 79.9422772,26.1987563 M79.9422772,11.0026234 C74.3972244,11.0026234 69.9016504,15.5071172 69.9016504,21.0636846 C69.9016504,26.6197394 74.3972244,31.1247457 79.9422772,31.1247457 C85.4878415,31.1247457 89.9844384,26.6197394 89.9844384,21.0636846 C89.9844384,15.5071172 85.4878415,11.0026234 79.9422772,11.0026234" id="Fill-14" fill="#233E6D"></path>
                    <g id="Group-18" transform="translate(47.564094, 0.209595)">
                        <mask id="mask-4" fill="white">
                            <use xlink:href="#path-3"></use>
                        </mask>
                        <g id="Clip-17"></g>
                        <path d="M10.047787,25.9891615 C7.21772343,25.9891615 4.9223723,23.6905373 4.9223723,20.8540898 C4.9223723,18.018411 7.21772343,15.7190181 10.047787,15.7190181 C12.8781064,15.7190181 15.1724346,18.018411 15.1724346,20.8540898 C15.1724346,23.6905373 12.8781064,25.9891615 10.047787,25.9891615 L10.047787,25.9891615 Z M15.1724346,0.0465566856 L15.1724346,12.2030531 C13.6723756,11.30856 11.9204314,10.7930286 10.047787,10.7930286 C4.50273425,10.7930286 0.00664874434,15.2975225 0.00664874434,20.8540898 C0.00664874434,26.4101447 4.50273425,30.915151 10.047787,30.915151 C15.5930955,30.915151 20.0881582,26.4101447 20.0881582,20.8540898 L20.0881582,0.0465566856 L15.1724346,0.0465566856 Z" id="Fill-16" fill="#233E6D" mask="url(#mask-4)"></path>
                    </g>
                    <g id="Group-21" transform="translate(29.152187, 10.971184)">
                        <mask id="mask-6" fill="white">
                            <use xlink:href="#path-5"></use>
                        </mask>
                        <g id="Clip-20"></g>
                        <path d="M15.688147,0.0315417061 L11.4301377,0.0315417061 L11.4301377,4.79738844 L11.4301377,12.4350422 L11.4301377,12.4429853 C11.4293705,13.2326809 11.1539591,13.9519138 10.7084932,14.5340646 C10.0778854,15.3573262 9.09591699,15.8977117 7.9784165,15.8977117 C6.50392958,15.8977117 5.2547328,14.9673467 4.7611914,13.6631445 C4.61568618,13.2813643 4.52695102,12.8708865 4.52695102,12.4391418 L4.52695102,4.79738844 L4.52695102,0.0310292494 L0.26919743,0.0310292494 L0.26919743,11.8390551 C0.253854173,12.0376321 0.239022359,12.2359528 0.239022359,12.4391418 C0.239022359,13.4986459 0.452549341,14.5084417 0.836897908,15.4293263 C1.40280834,16.783493 2.3428385,17.9390827 3.52426923,18.7751557 C4.78522917,19.6655491 6.3198105,20.1944044 7.9784165,20.1944044 C8.83891745,20.1944044 9.66310603,20.0478418 10.4364061,19.7880263 C10.7800951,19.6734922 11.1107422,19.5328228 11.4301377,19.3731926 L11.4301377,22.7554064 L11.4301377,22.771805 C11.4255347,25.5116544 9.20689988,27.7321291 6.47145302,27.7321291 L6.47145302,32.0285655 C11.1874585,32.0285655 15.072371,28.4885151 15.6398157,23.9168894 C15.6398157,23.9168894 15.688147,23.2322473 15.688147,22.1553197 L15.688147,0.0315417061 Z" id="Fill-19" fill="#B4B4B4" mask="url(#mask-6)"></path>
                    </g>
                </g>
            </g>
        </g>
    </g>
</svg>