<?xml version="1.0" encoding="UTF-8"?>
<svg width="24px" height="22px" viewBox="0 0 24 22" version="1.1" xmlns="http://www.w3.org/2000/svg" xmlns:xlink="http://www.w3.org/1999/xlink">
    <!-- Generator: Sketch 43.2 (39069) - http://www.bohemiancoding.com/sketch -->
    <title>topic_icon_psychology</title>
    <desc>Created with Sketch.</desc>
    <defs></defs>
    <g id="Page-1" stroke="none" stroke-width="1" fill="none" fill-rule="evenodd" stroke-linecap="round" stroke-linejoin="round">
        <g id="Ideas-long" transform="translate(-301.000000, -479.000000)" stroke="#BFC9DB">
            <g id="Group-3" transform="translate(30.000000, 442.000000)">
                <g id="science-brain.3.3.1" transform="translate(271.000000, 36.000000)">
                    <g id="topic_icon_psychology" transform="translate(0.000000, 1.000000)">
                        <path d="M11.5,15.5 L8.5,15.5 C6.913,15.5 5.628,14.764 5.521,13.204 C4.319,14.307 0.5,11.999 0.5,8.5 C0.5,5.001 3.72,2.665 5.008,3.421 C5.052,1.802 6.37,0.5 8,0.5 C8.901,0.5 9.7,0.905 10.25,1.534 C10.8,0.905 11.599,0.5 12.5,0.5 C13.792,0.5 14.884,1.321 15.306,2.467 C15.854,1.876 16.631,1.5 17.5,1.5 C19.156,1.5 20.5,2.843 20.5,4.5 C22.156,4.5 23.5,5.843 23.5,7.5 C23.5,8.401 23.095,9.2 22.465,9.75 C23.288,10.469 23.729,11.614 23.379,12.857 C23.125,13.763 22.411,14.511 21.523,14.822 C20.561,15.157 19.661,14.991 18.945,14.553 C18.715,15.782 17.737,16.741 16.501,16.949 L16.501,21.5 L13.501,21.5 L13.501,16.965 C13.501,15.052 15.053,13.5 16.966,13.5 L17,13.5" id="Shape"></path>
                        <path d="M13.522,17.585 C13.076,17.849 12.556,18 12,18 C9.5,18 8.417,16.656 8,15.5" id="Shape"></path>
                        <path d="M22.5,10 C22.5,10 18.5,11.5 16,9" id="Shape"></path>
                        <path d="M1,6.541 C1,6.541 5.5,6.041 6.5,8.541" id="Shape"></path>
                        <path d="M10.5,1.5 L10.5,4 C10.5,4.828 11.172,5.5 12,5.5 C12.828,5.5 13.5,4.828 13.5,4" id="Shape"></path>
                        <path d="M10.5,1.5 L10.5,4 C10.5,4.828 9.828,5.5 9,5.5 C8.172,5.5 7.5,4.828 7.5,4" id="Shape"></path>
                        <path d="M9,15.5 C9,15.5 8.5,11 11.5,10" id="Shape"></path>
                        <path d="M19.5,10 C19.5,10 20.5,8 19.5,6.5" id="Shape"></path>
                    </g>
                </g>
            </g>
        </g>
    </g>
</svg>