<?xml version="1.0" encoding="UTF-8"?>
<svg width="25px" height="24px" viewBox="0 0 25 24" version="1.1" xmlns="http://www.w3.org/2000/svg" xmlns:xlink="http://www.w3.org/1999/xlink">
    <!-- Generator: Sketch 43.2 (39069) - http://www.bohemiancoding.com/sketch -->
    <title>topic_icon_design</title>
    <desc>Created with Sketch.</desc>
    <defs></defs>
    <g id="Page-1" stroke="none" stroke-width="1" fill="none" fill-rule="evenodd" stroke-linecap="round" stroke-linejoin="round">
        <g id="Ideas-long" transform="translate(-301.000000, -368.000000)" stroke="#BFC9DB">
            <g id="Group-3" transform="translate(30.000000, 332.000000)">
                <g id="pen-paint-brush.3.3.1" transform="translate(271.000000, 36.000000)">
                    <g id="topic_icon_design">
                        <rect id="Rectangle-path" stroke-width="0.99999042" transform="translate(10.250704, 13.750603) rotate(-135.008103) translate(-10.250704, -13.750603) " x="8.12922392" y="4.91268817" width="4.24295935" height="17.6758307"></rect>
                        <path d="M11.918,15.082 L21,23.5 C22.699,23.5 23.5,23.695 23.5,21 L13.74,13.261" id="Shape"></path>
                        <path d="M22.5,4.5 C23.281,5.281 23.281,6.72 22.5,7.5 L17.5,12.5" id="Shape"></path>
                        <path d="M2.25,21.75 L0.5,23.5" id="Shape"></path>
                        <rect id="Rectangle-path" stroke-width="0.99999041" transform="translate(19.250304, 4.750154) rotate(45.000000) translate(-19.250304, -4.750154) " x="17.1288239" y="0.861190846" width="4.24295931" height="7.77792541"></rect>
                        <polyline id="Shape" points="3.249 19.25 1.5 20.999 3 22.5 4.75 20.75"></polyline>
                        <path d="M3,0.5 C2.816,4.241 6.217,3.781 7.68,4.871 C9.229,6.026 9.556,8.27 8.398,9.818 C4.652,14.842 -2.588,5.902 3,0.5 Z" id="Shape"></path>
                        <path d="M10.393,10.606 L8.727,9.285 L8.7,9.315 C8.611,9.489 8.518,9.659 8.398,9.818 C8.066,10.262 7.707,10.592 7.332,10.831 L8.804,12.194" id="Shape"></path>
                    </g>
                </g>
            </g>
        </g>
    </g>
</svg>