<svg width="140" height="33" viewBox="0 0 140 33" xmlns="http://www.w3.org/2000/svg" xmlns:xlink="http://www.w3.org/1999/xlink"><title>gestalten_logo</title><defs><path id="a" d="M140 32.503H0V0h140z"/></defs><g transform="translate(0 .5)" fill="none" fill-rule="evenodd"><mask id="b" fill="#fff"><use xlink:href="#a"/></mask><path d="M22.048 12.652c0-1.411 1.178-2.516 2.679-2.516h2.472c1.504 0 2.68 1.105 2.68 2.516v2.024h-7.831v-2.024zm-3.378 6.986c0 3.281 2.589 5.852 5.892 5.852h3.132c2.714 0 5.524-1.775 5.524-4.744v-.07h-3.42v.123c-.172 1.069-.932 1.652-2.147 1.652h-2.843c-1.521 0-2.76-1.128-2.76-2.514v-2.344H33.26v-4.6c0-3.284-2.627-5.856-5.978-5.856h-2.637c-3.296 0-5.975 2.665-5.975 5.936v6.564zm91.505-6.987c0-1.41 1.175-2.515 2.675-2.515h2.475c1.503 0 2.677 1.105 2.677 2.516v2.024h-7.827v-2.024zm-3.382 6.986c0 3.282 2.587 5.854 5.892 5.854h3.13c2.72 0 5.528-1.776 5.528-4.745v-.07h-3.42v.123c-.17 1.069-.93 1.652-2.147 1.652h-2.843c-1.521 0-2.758-1.128-2.758-2.514v-2.344h11.21v-4.6c0-3.284-2.627-5.856-5.977-5.856h-2.636c-3.298 0-5.98 2.665-5.98 5.936v6.564zm-55.4-.291c0-2.773-1.891-4.784-4.498-4.784H41.9c-.835 0-1.49-.636-1.49-1.448v-1.489c0-.835.655-1.489 1.49-1.489h3.774c1.15 0 1.736.529 1.736 1.57v.287h3.459v-.11c0-2.617-2.202-4.745-4.911-4.745h-3.936c-2.8 0-4.991 2.05-4.991 4.664v1.103c0 2.664 2.137 4.748 4.869 4.748h4.622c.823 0 1.488.686 1.488 1.529v1.739c0 .83-.697 1.53-1.527 1.53h-4.83c-.995 0-1.612-.619-1.612-1.611v-.166h-3.42v.072c0 2.66 2.1 4.744 4.788 4.744h5.074c2.753 0 4.909-2.05 4.909-4.662v-1.482zm19.099-.218c0-.846.67-1.532 1.49-1.532h6.16v2.224c0 1.625-1.006 2.633-2.618 2.633h-3.542c-.82 0-1.49-.69-1.49-1.534v-1.791zm1.532 6.361h3.027c1.329 0 2.407-.61 2.96-1.674l.085-.155.164 1.502h3.26V11.966c0-2.798-2.064-4.827-4.91-4.827h-3.896a4.936 4.936 0 0 0-4.945 4.772h3.377c.072-.756.68-1.775 1.568-1.775h3.897c.843 0 1.53.667 1.53 1.488v3.051h-6.117c-2.708 0-4.91 2.188-4.91 4.872v1.031c0 2.384 1.723 4.912 4.91 4.912zm14.12-.33h3.382V0h-3.381v25.16zm-24.001.003h2.35v-3.037h-2.147c-1.443 0-2.303-.828-2.303-2.218v-9.444h4.45V7.467h-4.45V.724h-3.378v6.742h-3.037v2.997h3.037v9.347c0 3.3 2.097 5.35 5.478 5.35zm41.622 0v-3.037h-2.148c-1.442 0-2.304-.828-2.304-2.218v-9.444h4.452V7.467h-4.452V.724h-3.381v6.742h-3.035v2.997h3.035v9.347c0 3.3 2.1 5.35 5.482 5.35h2.35zm30.219-15.026c1.479 0 2.637 1.105 2.637 2.514V25.16H140v-12.21c0-3.533-2.298-5.815-5.853-5.815h-2.335c-1.135 0-2.287.675-2.878 1.298l-.08.087-.087-1.054h-3.261v17.694h3.38V12.569c0-1.409 1.092-2.432 2.597-2.432h2.5zM6.016 22.453c-1.501 0-2.635-1.064-2.635-2.476v-7.325c0-1.412 1.157-2.515 2.635-2.515H8.6c1.432 0 2.597 1.056 2.597 2.35v7.49c0 1.412-1.117 2.476-2.597 2.476H6.016zm2.913 10.05c3.38 0 5.648-2.155 5.648-5.361V7.468l-3.261-.002-.086 1.14-.082-.09a4.379 4.379 0 0 0-3.244-1.378h-2.01C2.59 7.138 0 9.69 0 12.951v6.723c0 3.264 2.57 5.816 5.853 5.816h2.42c1.209 0 2.21-.553 2.84-1.017l.085-.063v3.075c0 1.367-1.076 1.98-2.145 1.98h-2.87c-1.258 0-2.12-.663-2.264-1.735H.538c.24 2.814 2.536 4.774 5.602 4.774h2.789z" fill="#111" mask="url(#b)"/></g></svg>