<svg width="1440" height="1065" viewBox="0 0 1440 1065" xmlns="http://www.w3.org/2000/svg"><title>hero</title><g stroke="#BFC9DB" fill="none" fill-rule="evenodd"><path d="M823.59 845.587c-35.4 2.003-112.208 14.027-190.352 24.045-78.145 10.018-96.178 15.36-138.923 34.732-42.747 19.369-88.163 73.468-100.854 95.509-6.902 11.987-15.582 37.212-24.428 63.657M1249.962 1063.531c-10.493-33.353-24.42-78.59-45.668-107.073-4.294-5.754-8.896-11.16-13.685-16.25"/><path d="M1190.244 939.822c-30.166-31.884-67.948-50.797-87.472-58.836-22.709-9.351-73.468-17.366-147.605-14.027-74.137 3.34-176.328 8.015-224.417 12.69-48.087 4.676-61.446 7.348-61.446 7.348M251.377 1063.531c-4.384-5.34-10.18-10.18-17.254-13.952-22.265-11.874-28.2-13.358-48.091-12.765-19.89.594-35.92 5.343-53.436 13.062-17.513 7.718-27.903 11.874-34.138 13.655M356.823 997.714c1.614 6.2.11 7.761-4.252 13.867-4.454 6.233-14.25 16.92-22.563 23.451-8.312 6.531-16.327 5.64-24.342 8.61-8.015 2.968-6.53 7.717-17.811 12.764-4.997 2.235-10.983-4.451-10.687 7.124"/><path d="M255.54 1061.75c-4.114-9.796-12.363-13.36-29.729-25.045-17.366-11.688-38.74-23.937-63.23-26.61-24.492-2.67-50.764-4.006-95.294 11.133-27.969 9.511-44.69 27.802-53.813 42.304M44.758 975.921c-.103-.6-.213-1.212-.33-1.843M44.758 975.921c1.319 7.526 1.616 12.598-5.524 12.802-14.693.42-15.139 11.578-12.021 19.707 3.115 8.129.445 10.128-15.587 22.149-11.939 8.956-12.26 22.291-8.508 32.952M44.758 975.921a7.839 7.839 0 0 1-.33-1.843M471.28 720.634a3105.952 3105.952 0 0 0-17.48 9.82c-13.36 7.57-48.537 26.717-61.451 31.617-12.912 4.897-22.263 6.678-26.272 10.241-2.145 1.908-16.157 8.407-32.063 15.403"/><path d="M131.41 1008.43c-32.952-5.904-60.115-15.323-76.144-22.859-6.164-2.898-9.473-6.325-10.508-9.65M542.35 699.707c-11.986-4.436-19.552-6.202-30.662-.867-7.592 3.643-25.527 13.493-40.408 21.794M44.43 974.079c-.276-4.62 3.812-8.8 10.834-10.738 12.914-3.563 25.185-11.132 28.177-23.6 2.994-12.467 13.681-15.14 23.478-18.257 9.796-3.118 10.241-12.47 15.586-20.484 5.342-8.015 15.584-9.351 25.38-11.133 9.797-1.78 18.257-9.796 24.493-16.92 6.233-7.124 16.92-14.694 25.38-16.475 8.46-1.782 16.03-10.687 27.608-15.586 11.578-4.898 47.646-27.608 69.466-36.514 10.14-4.138 25.372-10.585 39.181-16.657M92.67 972.247c26.271 18.257 41.857 24.935 52.545 29.835 10.687 4.897 19.063 8.218 19.063 8.218M142.987 985.572c17.811 7.603 32.273 17.613 43.522 30.198M150.112 948.647c15.584 26.717 38.209 64.726 58.035 77.115M156.346 909.016c12.469 36.068 25.826 62.988 44.085 82.257 18.254 19.27 41.41 41.533 52.988 42.424 11.578.89 56.552-1.15 62.787-2.803M429.586 954.256s-20.315 12.646-29.221 14.873c-8.906 2.227-15.584 6.681-27.608 18.075-6.193 5.87-10.737 8.802-15.934 10.51M208.148 872.947c8.312 35.178 23.006 75.7 55.513 96.183 32.507 20.483 58.333 33.248 74.808 31.54 7.99-.827 13.461-1.348 18.354-2.956"/><path d="M260.993 932.17c20.48 21.82 39.627 39.632 64.117 44.084 24.492 4.454 47.646-.89 56.552-4.007M126.495 1007.512c-35.195-7.036-64.996-.533-93.466 8.257M499.63 720.628c1.27-4.008 3.16-7.497 5.6-10.212 10.35-11.498 22.932-11.354 32.062-7.57M499.63 720.628c-3.943 12.439-1.836 29.959 8.94 45.449 14.25 20.484 30.725 42.749 49.872 51.654 8.23 3.829 14.975 5.051 20.51 4.632M578.952 822.363c7.342-.557 12.552-4.01 16.227-8.195 6.445-7.332 5.24-13.397 5.235-13.421M1027.3 788.816c-9.352-4.676-45.418-22.042-121.558-30.724-76.142-8.682-172.988 18.033-207.717 28.051-34.732 10.02-76.81 28.72-132.904 68.993"/><path d="M1094.017 877.886c-24.786-25.808-66.049-53.671-113.47-72.128-47.421-18.454-105.528-18.278-156.957-11.6M998.068 777.018c19.213 3.114 21.216-6.453 33.24 0 12.02 6.455 37.402 31.65 46.753 45.435 5.418 7.989 22.496 25.281 39.151 43.733 12.078 13.382 23.933 27.374 30.96 38.872M995.24 730.708c-30.056-12.69-60.35-19.92-79.72-32.375"/><path d="M995.24 730.708c30.056 12.69 56.771 22.042 73.47 52.096 16.697 30.056 37.808 71.496 51.187 86.374M471.28 720.634c-7.69 22.765-3.015 51.485 13.015 73.524 16.03 22.041 40.76 42.08 58.117 47.422 17.356 5.343 27.742 5.666 34.061 2.642M542.35 699.707c1.076-1.928 1.729-1.312 5.628-1.312 9.129 0 12.394 2.077 14.769 8.31 2.375 6.235 10.985 26.421 18.109 35.031 7.124 8.608 24.044 24.638 35.325 29.983 10.333 4.893 16.699 7.51 24.308 7.238"/><path d="M542.35 699.707c-.504.903-1.1 2.357-2.164 4.697-3.339 7.348-3.563 12.469 0 23.38 3.561 10.909 18.257 31.614 26.272 39.852 8.015 8.239 23.829 22.933 33.957 26.941 10.126 4.006 21.482 6.679 27.715 5.12 6.236-1.559 12.469-9.35 16.254-12.246 3.784-2.894 10.241-9.796 11.192-17.85"/><path d="M640.489 778.956c.697-.026 1.39-.038 2.113-.114 8.608-.89 10.09-7.44 10.09-7.441M499.63 720.628c.158-.062 9.003-3.563 15.916-7.094 6.976-3.563 24.472-11.55 25.828-12.988M554.003 698.299s.136-.945-.014-2.754c-.148-1.812-2.67-2.643-5.788-3.088-3.118-.445-6.827 1.484-5.788 5.842"/><path d="M552.268 693.519s1.87-2.844 1.792-5.153c-.08-2.309-2.147-3.627-3.929-3.924-1.781-.298-4.306 0-6.235 1.484-1.93 1.483-1.853 4.985-.072 7.593M556.661 684.338c-.743 1.44-2.6 2.033-2.6 2.033"/><path d="M547.12 684.506c-.848-4.963 6.276-7.783 8.205-5.906 2.864 2.785 2.08 4.299 1.336 5.739M583.231 667.214c2.21-2.105 4.015-3.78 5.343-4.741 2.173-1.568 4.817-4.476 7.25-8.017M583.231 667.214c-6.68 6.37-17.064 16.695-29.17 23.164M676.862 452.115l.474-.709M676.862 452.115c-.17.256-.397.598-.715 1.073-1.186 1.781-6.53 9.796-18.109 22.56-11.575 12.765-15.436 23.452-16.327 24.938-.89 1.484-10.39 19.888-14.841 33.841-4.454 13.953-10.094 22.56-16.923 34.734-6.826 12.17-8.905 20.186-6.976 33.248 1.694 11.452 1.444 17.202.457 29.051M595.824 654.455c3.554-5.17 6.655-11.708 7.147-17.511.165-1.938.317-3.72.457-5.383"/><path d="M676.862 452.115c.358 2.599 4.494 2.892 11.16 4.634 3.973 1.04 7.423-3.265 10.688-8.015 3.263-4.75 4.75-10.687 4.452-13.357-.296-2.673-1.193-5.638-7.124-12.469-4.9-5.64-7.124-.593-11.876 8.312-4.75 8.906-4.75 13.358-6.826 18.405-.422 1.024-.564 1.83-.474 2.49M683.866 543.433c-4.008 3.413-5.047 3.118-5.047 3.118M683.866 543.433c1.13-.963 2.227-5.788 2.522-8.758.298-2.968 4.454-14.546 5.643-18.109 1.186-3.56-.446-3.56.593-4.154 1.038-.595 8.312-11.43 13.16-20.188 1.408-2.54 2.534-4.478 3.519-6.315"/><path d="M709.303 485.91c2.41-4.498 3.946-8.381 6.475-18.918 3.563-14.844 1.04-26.272-3.561-37.109-4.602-10.835-15.806-12.085-19.391-9.299M683.866 543.433c3.094 6.07-3.413 18.256-2.746 19.814.669 1.56 4.008 12.024 5.788 13.805 1.781 1.782 8.907 7.124 13.583 11.133 4.675 4.008 7.791 6.678 9.796 14.026 1.488 5.457 2.44 7.803 2.834 10.84M713.122 613.05c.136 1.05.205 2.185.205 3.56 0 5.342.743 6.306.743 16.103 0 9.796.65 16.327.873 28.574.222 12.245-.203 24.638-2.43 35.103M717.212 701.279c.112-.344.252-.69.35-1.031M659.523 756.383c9.351-9.008 12.024-11.68 24.045-17.913 10.877-5.638 28.72-21.996 33.645-37.19M733.991 719.208c-7.791 7.977-22.383 19.519-29.938 25.942-8.906 7.57-18.702 8.906-25.233 11.232-1.874.668-4.35 1.912-7.336 3.587M671.485 759.97c-4.284 2.405-9.64 5.722-15.91 9.63M652.692 771.4a1569.164 1569.164 0 0 1-12.203 7.556M652.692 771.4c.977-.609 1.947-1.214 2.884-1.8M576.472 844.223c-4.274 4.302-8.306 8.145-11.35 10.913M578.952 822.363l-.012.012M578.952 822.363c8.16-8.003 16.623-16.845 21.462-21.616M565.122 855.136c-9.796 8.905-20.038 14.693-31.616 24.492-11.576 9.794-21.374 9.35-44.984 27.561M600.414 800.748c2.026-1.998 3.432-3.298 3.893-3.5 0 0 1.336 7.57-4.006 18.257-3.685 7.366-14.348 19.174-23.83 28.718M556.661 684.338h3.34c3.34 0 4.675-3.979 5.12-7.096.276-1.922-.389-3.248-1.925-3.985"/><path d="M549.142 679.698c0-4.682 5.961-7.13 10.191-7.13 1.62 0 2.908.231 3.863.69M563.196 673.258c.793-3.274 10.497-5.389 13.277-.691M913.253 535.418s3.053 6.53 11.663 14.25c8.608 7.717 13.655 16.03 13.953 19.59.296 3.564 5.64 17.516 4.452 15.44M913.978 561.354c1.782 8.014.252 14.14-.64 27.5-.373 5.61.516 10.213 1.886 13.966"/><path d="M915.223 602.819c1.892 5.183 4.706 8.732 6.428 10.97 2.967 3.86 9.498 8.311 16.031 9.5 6.53 1.186 11.576-.298 13.95-6.829 2.376-6.53 2.673-8.015-5.935-10.39-8.61-2.374-9.203-8.312-10.391-11.577-1.187-3.266 1.188-10.688 3.265-11.578 2.08-.891 3.563-.296 4.75 1.781M953.675 611.045c-.112.24-.23.475-.397.665M953.675 611.045c2.137-4.586-5.84-17.602-10.353-26.348M910.742 453.624c.076.014.805.484 6.381 4.981 6.903 5.567 6.68 7.125 10.911 9.797 4.23 2.672 10.018 10.242 10.018 10.242M911.471 473.523c-.805 7.569-.755 19.37 0 25.604.755 6.233 2.09 7.124 9.883 11.8 7.793 4.675 13.58 7.124 21.82 6.235 8.236-.89 15.362-2.672 16.253-9.798"/><path d="M938.052 478.643s-2.227 0-2.798 1.113c-.573 1.114 2.129 5.79 5.692 10.91 3.563 5.122 8.238 6.012 12.69 6.903 4.454.889 6.681 2.67 5.79 9.795"/><path d="M938.052 478.643c5.566 4.009 14.472 12.32 18.48 16.55 4.007 4.232 5.343 8.312 2.894 12.17M911.26 374.817c4.454-5.343 7.794-13.73 3.638-19.965-4.157-6.233-6.012-5.212-6.68-4.451-1.088 1.238-1.036 3.784-.892 13.145.18 11.58-.52 16.613 3.935 11.27z"/><path d="M778.564 303.94l96.968-2.911c16.874-.508 31.01 12.794 31.518 29.65l.623 20.734M706.93 406.911l.483 16.066M706.069 378.23l.305 10.15M778.564 303.94l-44.06 1.325c-16.871.505-30.187 14.631-29.681 31.488l1.246 41.476M910.742 453.624l-2.305-76.713M911.34 473.516l-.598-19.89M912.222 502.896l1.756 58.457M916.894 658.423l-1.67-55.603M733.991 719.208c-7.78-3.365-13.933-9.846-16.779-17.929M717.212 701.279a30.437 30.437 0 0 1-1.717-9.206l-.554-18.394M916.894 658.423l.828 27.577c.506 16.857-12.808 30.981-29.68 31.488l-141.03 4.237c-4.626.14-9.03-.791-13.02-2.517M709.303 485.91l3.818 127.14M713.122 613.05l.205 6.86M709.303 485.91l-.044-1.499M706.93 406.911l-.557-18.532"/><path d="M704.054 353.02l.455 15.183a.626.626 0 0 0 .647.605l.63-.018-.494-16.431-.629.018a.63.63 0 0 0-.61.643M910.342 413.248a.782.782 0 0 0 .761-.805l-.882-29.403a.783.783 0 0 0-.81-.76l-.784.025.93 30.967.785-.024M706.374 388.38l-.785.024a.78.78 0 0 0-.761.805l.882 29.403a.78.78 0 0 0 .81.757l.784-.024-.373-12.433M789.192 323.272a1.896 1.896 0 0 0 1.947 1.84l29.082-.875a1.892 1.892 0 0 0 1.833-1.951 1.893 1.893 0 0 0-1.947-1.84l-29.081.873a1.895 1.895 0 0 0-1.834 1.953zM776.563 323.968a3.477 3.477 0 1 0-6.953.21 3.477 3.477 0 0 0 6.953-.21zM903.318 663.527c.331-.352.53-.829.513-1.348M894.344 351.282c.102.221.162.467.17.726l.272 9.046"/><path d="M894.344 351.282c.102.221.162.467.17.726l.272 9.046M892.574 350.182l-115.155 3.46M719.114 355.54c.222-.101.47-.161.729-.17l57.576-1.729M727.5 668.207c.204.446.577.795 1.033.973M718.014 357.31l9.315 310.17c.008.26.07.505.172.727M729.272 669.306a1.9 1.9 0 0 1-.74-.125M903.318 663.527a1.878 1.878 0 0 1-1.314.591l-172.732 5.189M892.762 350.214c.697.052 1.302.458 1.583 1.067M903.318 663.527c.331-.352.53-.829.513-1.348M894.786 361.053l9.046 301.126M718.014 357.31a1.881 1.881 0 0 1 1.1-1.77M915.647 614.483c6.914 4.454 17.146 16.031 19.91 18.702 3.06 2.958 4.38 4.376 4.38 4.376M916.894 658.423s8.042 4.745 13.978 7.12c5.938 2.374 15.734 2.077 20.21 0 4.474-2.077 6.805-5.938 7.398-10.985.595-5.045-2.968-5.343-5.343-5.045-2.375.295-8.905-5.047-11.578-7.126-2.67-2.077-1.621-4.826-1.621-4.826M956.447 647.518c-2.338-1.781-12.726-8.286-16.51-9.958M958.547 655.672c2.049-2.672.237-6.373-2.1-8.155M953.675 611.045c6.52-7.252 15.333-16.214 26.458-26.348 26.716-24.344 50.761-40.374 88.167-44.825 37.404-4.454 40.855-6.422 51.598-8.11 10.741-1.687 10.741-2.933 20.538 20.399 9.796 23.333 21.88 47.406 27.608 71.5 5.817 24.464 11.278 47.884 18.702 54.355M953.054 611.73c.198-.222.42-.46.621-.685"/><path d="M943.358 623.574c-2.287 3.19-3.43 5.337-3.421 6.245.006.625 1.406 4.216 3.807 9.729M995.24 730.708c-11.905-12.015-28.642-43.09-40.58-67.622M1186.746 678.015c10.688 7.911 19.593 12.363 25.381 17.708 5.79 5.342 6.235 13.357 9.353 15.584 3.116 2.227 14.248 5.279 15.14 10.431.89 5.155 6.678 8.27 15.583 17.177 8.906 8.905 15.587 17.367 22.71 24.937 7.125 7.57 26.272 29.834 30.28 38.295 4.007 8.46 7.57 14.693 12.47 18.256 4.897 3.561 10.685 5.788 13.357 16.03 2.672 10.242 4.9 16.475 10.687 18.702 5.788 2.227 10.242 2.513 12.469 11.053 2.227 8.54 5.342 7.65 9.796 16.11 4.108 7.807 6.323 14.845 9.088 17.637M1373.768 900.555a5.565 5.565 0 0 1-.707-.62M1119.898 611.71c33.006 31.467 56.162 58.394 66.85 66.305"/><path d="M1373.06 899.934c5.459 3.344 9.877 7.352 13.176 16.623 2.275 6.387 2.672 12.051 2.672 12.051M1229.68 944.853c10.687-13.805 44.342-43.853 76.404-50.087M1306.084 894.766c32.062-6.233 48.091-5.787 57.888 0 3.295 1.948 6.323 3.474 9.09 5.167"/><path d="M1206.84 960.002c17.367-12.914 27.998-18.48 44.918-26.05 16.923-7.57 42.795-25.416 81.49-21.374 29.834 3.118 38.74 10.242 49.426 14.694 10.688 4.454 19.148 7.126 26.717 31.17 7.212 22.91 4.726 24.567 4.474 24.672M1439.001 1063.531c-.904-4.366-1.733-8.196-2.446-11.132-4.009-16.475-15.141-48.091-18.702-59.224-1.02-3.188-2.425-6.57-3.987-10.06M1401.821 955.771c3.178 9.216 8.15 18.646 12.046 27.344"/><path d="M1225.681 994.899c20.484-16.03 51.65-33.34 86.288-31.113 34.636 2.227 51.557 2.459 67.588 14.588 16.03 12.129 14.694 12.129 24.936 36.62"/><path d="M1371.096 955.771c-20.038-10.241-32.952-12.468-56.997-11.132-35.592 1.977-64.666 18.083-94.498 37.232M1284.71 929.054s-20.038 13.805-30.28 18.502c-10.241 4.7-31.772 13.292-41.123 22.643M1306.084 894.766c-12.766-2.522-78.311 32.21-108.889 52.791M1289.163 877.886c-8.905 1.97-40.967 17.92-57.592 28.904-16.623 10.983-28.498 18.998-40.917 33.446 0 0-.02-.01-.044-.028"/><path d="M1306.084 841.777s-5.938 0-30.577 8.313c-24.638 8.312-41.56 23.45-66.794 54.97-21.06 26.305-19.546 33.2-18.468 34.763M1190.244 939.822c.156.226.298.34.366.386M1172.052 820.848s3.118 16.475-4.454 34.287c-7.57 17.813-10.687 40.076-1.945 62.419M1135.034 886.885c-9.293-17.945-12.409-30.617-11.074-46.99 1.336-16.374-.294-28.397-.294-28.397M910.342 413.248c45.096 39.914 111.647 114.155 128.486 133.308M833.186 301.014c.891-7.537 5.047-29.505 0-37.817-5.047-8.31-21.67-25.826-30.28-27.904-8.608-2.079-5.342-1.188-5.342-1.188M789.683 288.553c1.598-2.437 3.106-4.963 4.46-7.628M794.143 280.925c2.566-5.053 4.565-10.6 5.498-16.959M778.564 303.94c3.605-5.02 7.574-9.981 11.119-15.388"/><path d="M794.143 280.925c1.484-31.872 2.53-52.759 1.044-75.615-1.484-22.858-13.655-146.353-20.779-192.663-.68-4.421-1.302-8.548-1.873-12.4"/><path d="M788.336 131.573c5.22-20.961 16.351-41.445 25.257-77.067 7.158-28.63 9.996-42.016 7.601-54.259M778.564 110.042C768.81 72.922 758.766 38.322 749.69.247M781.15 187.53c-16.413-46.575-32.976-98.864-57.023-168.336M774.408 218.817c-10.242-29.835-35.586-58.008-50.282-102.308M734.332 199.67c17.812 29.834 24.045 47.2 35.177 61.895a2630.271 2630.271 0 0 1 20.174 26.989M704.054 353.02s-7.126-4.623-13.955-8.484c-6.826-3.859-15.732-8.015-30.575-16.92-14.844-8.906-20.186-12.765-24.047-21.968-3.858-9.203-2.375-16.92 4.156-24.718 6.531-7.797 17.219-6.155 30.874-1.999 13.657 4.156 36.968 18.736 52.107 29.126"/><path d="M669.023 286.65c0-.891-6.829-5.343-11.28-7.125-4.454-1.781-6.531-2.079-11.876 0-5.343 2.077-11.358 8.217-10.466 19.913 0 0 1.676 7.211 8.091 10.07 6.417 2.858 8.61 4.749 8.714 1.781.102-2.97 1.973-7.422 6.427-14.25 4.452-6.827 10.39-9.499 10.39-10.39zM669.023 353.02c19 9.625 35.744 22.549 37.046 25.21M483.653.247c-10.561 41.275-24.73 97.095-37.414 148.54-24.049 97.528-33.763 177.461-54.113 296.06-19.369 112.876-53.434 265.743-58.111 342.868M595.824 654.455c-47.418-5.229-96.168 6.038-116.871 12.759-20.705 6.722-25.381 28.252 6.679 19.157 32.059-9.095 72.972-23.208 97.6-19.157M603.428 631.56c-.002-.001-38.986-25.082-99.764-27.074M534.388 543.433c12.69 8.278 61.49 21.983 68.174 45.77M853.67 301.014c0-39.894 41.642-101.235 63.124-133.35M857.25 278.075c-13.377-59.258 40.447-145.2 56.728-190.62M864.482 138.785c4.432-37.114 9.31-80.796 7-129.7M864.482 138.785c-4.112 34.436-7.839 63.222-5.079 85.224M841.917.247c1.01 7.13 2.373 19.365 3.737 39.655 2.673 39.723.891 74.716 18.828 98.882M846.887 62.525c-12.544-21.174-17.79-41.147-16.812-62.277M1170.276.247c2.347 13.823 3.198 24.656 9.427 52.347 12.025 53.44 41.416 208.067 50.77 300.427 9.35 92.358 14.695 142.61 26.718 208.333 12.026 65.72 22.36 131.425 20.04 166.962-2.316 35.536.328 38.412.328 38.412M956.447 647.518c26.038-33.72 64.653-75.237 100.275-81.2 35.623-5.965 72.91-14.157 78.311-14.157 5.403 0 7.666 5.314 7.666 5.314M671.485 759.97c50.242-8.802 118.629-14.568 159.92-17.937M663.086 761.5a580.504 580.504 0 0 1 8.398-1.53"/><path d="M1046.926 766.728c-21.784-16.076-21.375-14.9-62.342-24.696-40.965-9.796-64.12-10.687-105.088-13.717-40.965-3.03-110.43-3.203-158.134 2.393M368.153 991.273c-1.408 19.955 1.931 26.633 5.94 30.64 4.006 4.008 3.537 16.329 1.755 21.518"/></g></svg>