<svg width="971" height="790" viewBox="0 0 971 790" xmlns="http://www.w3.org/2000/svg"><title>hero@2x</title><g stroke="#BFC9DB" fill="none" fill-rule="evenodd"><path d="M232 790c9.812-24.615 22.3-69.227 30.774-83.948 8.474-14.722 38.802-50.857 67.347-63.794 28.544-12.937 40.586-16.506 92.768-23.198S526.362 604.338 550 603m307 187c-.897-6.95-3.586-11.528-13-17.48-9.414-5.953-13-21.52-13-21.52"/><path d="M843 773c-7.979-15.234-18.263-67.719-39.199-95.786-20.936-28.067-52.563-44.106-67.708-50.343-15.145-6.237-48.999-11.583-98.443-9.356-49.444 2.228-117.597 5.346-149.67 8.465-32.071 3.118-40.98 4.9-40.98 4.9M187 789c-1.803-7.494-1.244-11.078-16.676-14.475C163.564 773.037 155 761 155 761"/><path d="M174 775c-4.152-14.255-18.189-27-37.565-27-19.375 0-31.435 1.382-31.435 1.382"/><path d="M173.232 772c5.2-10.48-1.32-25.446-16.252-33.388-14.93-7.943-18.912-8.936-32.251-8.539-13.338.397-24.089 3.574-35.835 8.737-11.745 5.163-18.713 7.943-22.894 9.134"/><path d="M174 762c7.66-2.65 11.079-5.746 10.882-13.375-.196-7.63 3.765-3.222 7.07-4.695 7.463-3.326 6.481-6.456 11.783-8.412 5.303-1.957 10.605-1.37 16.104-5.673 5.5-4.304 11.98-11.347 14.926-15.455 2.945-4.108 3.927-5.086 2.749-9.39M2.811 790c-.593-12.54-1.482-22.606 0-28.545 1.483-5.94 12.16-30.85 41.815-40.931 29.656-10.083 47.153-9.193 63.464-7.414 16.31 1.78 30.545 9.936 42.111 17.72 11.566 7.782 17.06 10.155 19.799 16.679"/><path d="M5.633 755c-4.955-7.235-8.151-20.655 2.294-28.754 10.445-8.1 12.186-9.445 10.155-14.922-2.031-5.476-1.741-12.992 7.834-13.275 5.078-.15 4.384-4.2 3.353-10.049"/><path d="M88.19 712c-22.032-3.943-40.193-10.235-50.912-15.269-10.718-5.034-8.634-12.47 0-14.85 8.635-2.379 16.839-7.435 18.84-15.764 2.002-8.328 9.147-10.113 15.697-12.195 6.55-2.082 6.848-8.328 10.421-13.682 3.573-5.354 10.42-6.246 16.971-7.436 6.55-1.19 12.207-6.544 16.375-11.303 4.169-4.759 11.314-9.815 16.971-11.005 5.657-1.19 10.719-7.139 18.46-10.41 7.741-3.273 31.857-18.442 46.446-24.391 14.59-5.949 44.958-19.036 47.638-21.416 2.68-2.38 8.932-3.57 17.566-6.841 8.635-3.272 32.156-16.062 41.088-21.118 8.932-5.057 31.262-17.55 38.705-21.119 7.444-3.57 12.505-2.38 20.544.595"/><path d="M62 687c17.61 12.474 28.057 17.038 35.22 20.385C104.385 710.732 110 713 110 713m-14-16c11.868 5.036 21.505 11.665 29 20m-25-45c10.473 17.67 25.676 42.807 39 51m-34-78c8.267 23.97 17.125 41.859 29.231 54.664 12.106 12.805 27.46 27.6 35.137 28.192 7.677.592 37.498-.765 41.632-1.862M139 622c5.556 23.383 15.377 50.318 37.103 63.933 21.725 13.616 38.987 22.1 49.999 20.966 11.011-1.134 14.88-1.377 22.916-8.951 8.035-7.575 12.5-10.535 18.452-12.015 5.952-1.48 19.53-9.887 19.53-9.887"/><path d="M175 660c13.747 14.297 26.6 25.968 43.04 28.885 16.439 2.918 31.982-.583 37.96-2.626M22 716c18.886-5.475 38.654-9.526 62-5.143m275.54-203.31c-6.13-2.545-14.582-2.642-21.533 5.092-6.73 7.488-7.328 23.663 2.243 37.44 9.57 13.779 20.637 28.755 33.497 34.746 12.861 5.99 20.345 2.538 24.675-2.397 4.337-4.942 3.516-9.03 3.516-9.03M378 609c37.381-26.507 65.422-38.817 88.567-45.41 23.145-6.595 87.685-24.18 138.426-18.465 50.74 5.715 74.776 17.145 81.007 20.223"/><path d="M550 568.727c34.422-4.409 73.314-4.525 105.053 7.658C686.793 588.57 714.41 606.963 731 624m-65-67.49c12.8 2.056 14.135-4.258 22.144 0 8.01 4.26 24.918 20.885 31.147 29.981 3.611 5.272 14.988 16.682 26.083 28.858C753.421 624.18 761.32 633.412 766 641"/><path d="M612 505c12.984 8.311 33.291 13.135 53.439 21.603 20.147 8.468 38.055 14.707 49.248 34.763C725.88 581.42 740.03 609.072 749 619M315.393 519c-5.087 15.236-1.993 34.458 8.613 49.21 10.607 14.752 26.971 28.162 38.456 31.738 11.485 3.577 18.357 3.793 22.538 1.77m52-49.113c-.628 5.378-4.897 9.986-7.4 11.918-2.502 1.933-6.623 7.136-10.745 8.176-4.121 1.04-11.629-.743-18.324-3.419-6.696-2.676-17.15-12.486-22.45-17.986-5.3-5.5-15.014-19.325-17.37-26.609-2.355-7.284-2.207-10.703 0-15.608 2.209-4.905 1.368-4.014 5.153-4.014 6.035 0 8.194 1.388 9.764 5.55 1.57 4.162 7.262 17.64 11.972 23.388 4.71 5.747 15.898 16.45 23.356 20.018 7.458 3.567 11.775 5.351 17.467 4.757 5.692-.595 6.67-4.97 6.67-4.97"/><path d="M334 519s6.004-2.29 10.682-4.595C349.36 512.1 361.091 506.93 362 506m.12-2c-.702-2.952 1.808-4.26 3.917-3.958 2.109.302 3.816.865 3.916 2.092.1 1.227.009 1.866.009 1.866"/><path d="M363.935 502c-1.23-1.705-1.281-3.992.05-4.962 1.332-.97 3.073-1.164 4.303-.97 1.229.194 2.656 1.055 2.71 2.564.055 1.51-1.235 3.368-1.235 3.368"/><path d="M365.048 495.661c-.577-3.564 4.263-5.589 5.574-4.241 1.945 2 1.412 3.087.908 4.12-.504 1.034-1.767 1.46-1.767 1.46m.237 3c10.714-5.764 19.403-16.1 22.957-18.683 3.554-2.584 9.025-10.546 9.577-17.093.889-10.534 1.284-14.31 0-23.056-1.283-8.746.1-14.112 4.64-22.261 4.543-8.15 8.294-13.913 11.256-23.255 2.962-9.341 9.282-21.664 9.874-22.658.592-.994 3.16-8.15 10.86-16.696 7.702-8.546 11.256-13.913 12.046-15.105L452 340"/><path d="M459.642 343.893c-5.708-1.503-8.712-1.429-7.293-4.897 1.418-3.468 1.418-6.529 4.66-12.65 3.24-6.12 4.76-9.589 8.103-5.712 4.05 4.695 4.66 6.733 4.863 8.569.202 1.836-.81 5.916-3.04 9.18-2.228 3.265-4.58 6.224-7.293 5.51z"/><path d="M463.424 318.849c2.413-1.862 9.95-1.026 13.047 6.212 3.096 7.238 4.794 14.873 2.397 24.788-2.397 9.916-3.462 11.006-6.725 16.857-3.262 5.85-8.156 13.088-8.855 13.484-.7.397.4.397-.4 2.777-.798 2.38-3.595 10.113-3.795 12.096-.2 1.983-.937 5.207-1.697 5.85-2.697 2.281-3.396 2.083-3.396 2.083"/><path d="M456.812 401c2.006 4.047-2.214 12.175-1.78 13.214.433 1.04 2.598 8.017 3.754 9.205 1.155 1.188 5.775 4.751 8.807 7.424 3.032 2.672 5.054 4.454 6.353 9.354 1.3 4.9 1.973 6.037 1.973 9.6 0 3.564.482 4.207.482 10.74s.42 10.888.565 19.054c.144 8.166-.132 16.43-1.576 23.409M441 543c6.284-5.937 8.079-7.698 16.158-11.807 7.473-3.8 19.867-14.99 22.842-25.193m-52 53c12.223-7.416 21.392-13.51 25.777-15.06 4.386-1.552 10.964-2.441 16.944-7.484 5.128-4.324 15.092-12.137 20.279-17.456m-103.947 67.912c7.69-7.643 15.81-16.45 16.848-16.912 0 0 .888 5.095-2.661 12.289-3.55 7.193-16.858 20.68-23.364 26.675-6.507 5.994-13.309 9.89-20.998 16.484-7.69 6.594-14.196 6.294-29.878 18.552m39-151.154c0-3.182 4.088-4.846 6.989-4.846 2.9 0 4.275 1.06 3.97 3.178-.306 2.118-1.222 4.822-3.512 4.822h-2.29m4.843-9c0-1.822 7.047-3.125 9-.579M610 396s2.071 4.293 7.909 9.366c5.837 5.073 9.259 10.536 9.46 12.877.202 2.342 3.825 11.512 3.02 10.147-.806-1.366-1.812-1.756-3.221-1.171s-3.02 5.463-2.214 7.61c.805 2.146 1.208 6.048 7.045 7.61 5.837 1.56 5.636 2.535 4.026 6.828-1.61 4.293-5.033 5.268-9.461 4.488-4.428-.78-8.857-3.707-10.87-6.244-2.012-2.537-6.24-7.61-5.635-16.39.603-8.78 1.64-12.806.433-18.074M630 429c3.098 6.132 8.714 15.428 6.494 18m-27.996-91.883c-.543 4.99-.51 12.767 0 16.877.509 4.109 1.41 4.696 6.671 7.778 5.26 3.081 9.168 4.696 14.729 4.109 5.56-.587 10.37-1.761 10.971-6.457.602-4.697-.901-5.87-3.907-6.458-3.006-.587-6.162-1.174-8.567-4.55-2.405-3.375-4.23-6.457-3.843-7.19.386-.734 1.89-.734 1.89-.734s-3.909-4.99-6.764-6.75c-2.856-1.762-2.705-2.79-7.365-6.458-4.659-3.67-4.307-3.271-4.307-3.271"/><path d="M627 358c3.694 2.651 9.604 8.15 12.263 10.948 2.66 2.799 3.547 5.499 1.921 8.052m-34.576-103.6c-.683.868-.65 2.652-.56 9.21.112 8.112-.327 11.638 2.473 7.895 2.8-3.743 4.9-9.618 2.287-13.985-2.613-4.367-3.78-3.652-4.2-3.12zm-1.608.484l-.415-13.94c-.336-11.332-9.745-20.275-20.973-19.935l-93.851 2.848c-11.228.34-20.089 9.838-19.752 21.172L471.733 322M609 354l-2-64m3 123l-1-39M477 488.133l.368 12.197c.337 11.177 9.75 19.997 20.98 19.66l93.884-2.808c11.232-.336 20.096-9.703 19.759-20.88L610.323 441M474 361l2 90"/><path d="M471.104 319.487l-.589-19.915a.526.526 0 0 1 .508-.545l.523-.016.62 20.973-.523.016a.524.524 0 0 1-.54-.513zm-.8-34.141L470 275.062a.424.424 0 0 1 .406-.435l.419-.013.329 11.128-.419.013a.42.42 0 0 1-.43-.41zm136.665 30.523l-.62-20.972.523-.016a.525.525 0 0 1 .539.513l.589 19.915a.526.526 0 0 1-.508.545l-.523.015zm-88.642-60.483c.039 1.3-.967 2.385-2.246 2.425-1.28.039-2.349-.984-2.387-2.284-.038-1.3.968-2.386 2.247-2.425 1.28-.039 2.348.983 2.386 2.284zM547.35 253a1.27 1.27 0 0 1 1.297 1.245 1.274 1.274 0 0 1-1.22 1.323l-19.385.591a1.27 1.27 0 0 1-1.297-1.246 1.274 1.274 0 0 1 1.221-1.322L547.35 253zM480 277.758a1.26 1.26 0 0 1 1.22-1.295l115.267-3.462a1.26 1.26 0 0 1 1.296 1.219l6.216 207.022a1.259 1.259 0 0 1-1.22 1.295l-115.266 3.462a1.259 1.259 0 0 1-1.295-1.219L480 277.758z"/><path d="M480 277.758a1.259 1.259 0 0 1 1.22-1.295l115.267-3.462a1.259 1.259 0 0 1 1.296 1.219l6.216 207.022a1.26 1.26 0 0 1-1.22 1.295l-115.266 3.462a1.259 1.259 0 0 1-1.295-1.219L480 277.758zM612 449c4.674 2.956 11.59 10.64 13.459 12.413 2.07 1.964 2.961 2.905 2.961 2.905s-.709 1.824 1.097 3.204c1.806 1.379 6.22 4.925 7.826 4.729 1.606-.198 4.014 0 3.613 3.35-.402 3.349-1.977 5.91-5.002 7.29-3.025 1.379-9.648 1.576-13.661 0-4.014-1.577-9.45-4.726-9.45-4.726"/><path d="M628 464c2.523 1.106 9.447 5.417 11.006 6.597 1.558 1.18 2.765 3.633 1.399 5.403M636 446.827c4.389-4.908 10.42-11.051 18.076-18.015 17.835-16.221 33.886-26.904 58.855-29.871 24.97-2.968 27.274-4.279 34.445-5.404 7.17-1.125 7.17-1.955 13.71 13.594 6.54 15.549 14.605 31.59 18.43 47.647 3.882 16.303 7.528 31.91 12.484 36.222"/><path d="M630 466c-1.261-3.796-1.997-6.27-2-6.7-.005-.625.596-2.104 1.797-4.3M664 528c-7.921-8.173-19.058-29.311-27-46m111-35c21.972 21.026 37.387 39.018 44.5 44.303 7.115 5.286 13.044 8.261 16.897 11.832 3.854 3.57 4.15 8.926 6.225 10.413 2.075 1.488 9.486 3.527 10.079 6.97.592 3.444 4.446 5.527 10.374 11.477 5.929 5.951 10.375 11.604 15.118 16.662s17.49 19.935 20.157 25.588c2.668 5.653 5.04 9.819 8.3 12.199 3.26 2.38 7.114 3.868 8.893 10.711 1.779 6.843 3.26 11.009 7.114 12.497 3.854 1.487 6.818 1.678 8.3 7.384 1.482 5.707 3.557 5.112 6.522 10.765 2.964 5.653 4.446 10.711 6.521 12.199"/><path d="M928 657.289s-.265-3.735-1.779-7.947c-3.31-9.211-8.3-10.551-14.821-14.368-6.522-3.817-17.194-4.11-38.537 0S829.114 658.898 822 668"/><path d="M805 680.399c11.626-8.714 18.742-12.47 30.07-17.579 11.327-5.108 28.648-17.151 54.55-14.423 19.972 2.103 25.934 6.911 33.088 9.916 7.154 3.005 12.818 4.807 17.886 21.033 5.067 16.226 2.98 16.654 2.98 16.654"/><path d="M936 677c2.957 8.594 8.278 17.485 10.643 24.894 2.366 7.41 9.757 28.451 12.418 39.416 2.66 10.966 7.687 40.478 10.939 48.69m-152-88.292c13.632-10.604 34.373-22.052 57.424-20.58 23.052 1.473 34.313 1.627 44.98 9.65C931.075 698.8 930.185 698.8 937 715"/><path d="M815 694c20.087-12.737 39.66-23.451 63.625-24.767 16.19-.888 24.884.593 38.375 7.406M810 687c6.286-6.364 20.76-12.211 27.645-15.409C844.53 668.394 858 659 858 659m-58 12c20.218-13.611 63.56-36.583 72-34.914m-10.341-11.248c-5.97 1.301-27.459 11.83-38.601 19.081-11.143 7.251-19.102 12.543-27.426 22.081 0 0-4.808-2.416 12.105-23.223s28.254-30.802 44.769-36.29C869.02 601 873 601 873 601m-94.567 50c-5.675-14.786-3.651-29.521 1.263-41.309 4.915-11.787 2.891-22.691 2.891-22.691M759 630c-6.539-11.902-8.732-20.307-7.792-31.167C752.148 587.974 751 580 751 580m-58-176c-11.14-12.788-55.167-62.352-85-89m-51.65-77c.6-4.943 3.392-19.348 0-24.799-3.391-5.45-14.564-16.935-20.35-18.298-5.786-1.363-3.592-.779-3.592-.779M521 241c5.521-7.82 12.328-15.414 14-27"/><path d="M530.804 226c1.006-21.325 1.715-35.299.709-50.591-1.006-15.293-9.254-97.912-14.082-128.894C512.603 15.533 512 6 512 6"/><path d="M526 127c3.408-14.075 10.676-27.83 16.49-51.75 5.815-23.92 7.269-31.992 3.199-42.457s-8.075-19.435-8.69-26.312C536.387-.396 537-3 537-3m-41 21c6.88 33.657 15.09 61.995 23 93m-36-59c16.447 46.222 27.775 81.012 39 112m-39-48c9.937 29.445 27.075 48.17 34 68m-27-12c11.906 20.14 16.073 31.862 23.515 41.781A1785.426 1785.426 0 0 1 527 232m-43 11.44c-10.179-6.831-25.852-16.417-35.034-19.15-9.18-2.732-16.366-3.811-20.757 1.315-4.39 5.126-5.389 10.2-2.794 16.25 2.595 6.051 6.187 8.588 16.167 14.443s15.967 8.588 20.557 11.125c4.59 2.537 9.382 5.577 9.382 5.577"/><path d="M425.058 239.155c-.583-7.75 3.343-11.818 6.83-13.195 3.488-1.376 4.844-1.18 7.75 0 2.906 1.18 7.362 4.13 7.362 4.721 0 .59-3.875 2.36-6.781 6.885-2.906 4.524-4.127 7.474-4.195 9.441-.067 1.967-1.498.714-5.686-1.18-4.187-1.894-5.28-6.672-5.28-6.672zM447 274c12.821 6.109 24.122 14.311 25 16M223 565c3.135-51.553 25.959-153.735 38.937-229.185 13.635-79.276 20.144-132.706 36.257-197.897S334-3 334-3m64 478.872c-31.653-3.393-64.197 3.914-78.017 8.274-13.82 4.359-16.94 18.321 4.458 12.423 21.4-5.898 48.708-15.05 65.146-12.423M336 442c40.819 1.325 67 18 67 18m-46-59c8.563 5.426 41.49 14.41 46 30m168-192c0-26.626 27.707-67.566 42-89m-40.562 74c-9.094-39.48 27.494-96.74 38.562-127m-37.372 92c-3.788-30.629 10.922-80.834 7.98-144"/><path d="M577 131c-11.873-16.056-10.694-39.304-12.463-65.694C562.769 38.916 561 33 561 33"/><path d="M566 80c-11.643-18.495-14.43-35.61-10.016-54.897C560.398 5.815 562.92-3 562.92-3M770-3c14.223 47.152 8.89 40.9 16.89 76.623 8 35.724 27.557 139.087 33.78 200.826 6.222 61.74 9.777 95.332 17.778 139.265 8 43.933 14.876 87.854 13.334 111.609C850.24 549.077 852 551 852 551m-214-81c17.335-22.277 43.043-49.707 66.76-53.647 23.716-3.94 48.54-9.353 52.137-9.353 3.597 0 5.103 3.51 5.103 3.51M443 547c33.778-6.458 82.963-10.621 112-13"/><path d="M482 526.99c31.796-3.73 78.097-3.614 105.403-1.595 27.305 2.02 42.74 2.613 70.045 9.143 27.306 6.53 27.032 5.745 41.552 16.462M246.21 700c-.904 13.39 1.241 17.871 3.815 20.56 2.573 2.69 2.272 10.958 1.126 14.44"/></g></svg>