<svg width="729" height="592" viewBox="0 0 729 592" xmlns="http://www.w3.org/2000/svg"><title>hero</title><g stroke="#BFC9DB" fill="none" fill-rule="evenodd"><path d="M174.25 591.75c7.359-18.461 16.725-51.92 23.08-62.961 6.356-11.041 29.102-38.143 50.51-47.846 21.409-9.702 30.44-12.38 69.577-17.398 39.137-5.019 77.604-11.041 95.333-12.045M643 591.75c-.672-5.212-2.69-8.646-9.75-13.11-7.06-4.464-9.75-16.14-9.75-16.14"/><path d="M632.5 579c-5.984-11.425-13.697-50.789-29.4-71.84-15.701-21.05-39.421-33.079-50.78-37.757-11.359-4.678-36.75-8.687-73.833-7.017-37.083 1.671-88.197 4.01-112.251 6.349-24.054 2.339-30.736 3.675-30.736 3.675M140.5 591c-1.352-5.62-.933-8.308-12.507-10.856C122.923 579.028 116.5 570 116.5 570"/><path d="M130.75 580.5c-3.114-10.692-13.642-20.25-28.173-20.25-14.532 0-23.577 1.037-23.577 1.037"/><path d="M130.174 578.25c3.9-7.86-.99-19.085-12.189-25.041-11.198-5.957-14.184-6.702-24.188-6.404-10.004.298-18.067 2.68-26.876 6.552-8.81 3.873-14.035 5.957-17.171 6.85"/><path d="M130.75 570.75c5.744-1.987 8.31-4.31 8.162-10.031-.147-5.722 2.823-2.417 5.302-3.522 5.597-2.494 4.86-4.841 8.838-6.309 3.976-1.467 7.953-1.027 12.077-4.254 4.125-3.228 8.985-8.51 11.194-11.591 2.21-3.082 2.946-3.815 2.062-7.043M2.359 591.75c-.445-9.406-1.112-16.954 0-21.41 1.112-4.454 9.119-23.136 31.36-30.697 22.243-7.562 35.365-6.895 47.598-5.56 12.233 1.334 22.91 7.452 31.584 13.289s12.794 7.617 14.849 12.51"/><path d="M4.475 565.5c-3.716-5.426-6.114-15.491 1.72-21.566 7.834-6.074 9.14-7.084 7.617-11.19-1.524-4.108-1.307-9.745 5.875-9.957 3.808-.113 3.288-3.15 2.515-7.537"/><path d="M66.393 533.25c-16.524-2.957-30.146-7.676-38.184-11.451-8.04-3.776-6.476-9.353 0-11.138 6.475-1.784 12.628-5.577 14.13-11.823 1.5-6.246 6.86-7.585 11.773-9.146 4.912-1.562 5.135-6.247 7.815-10.262 2.68-4.015 7.816-4.685 12.728-5.577 4.913-.892 9.156-4.908 12.282-8.477 3.126-3.57 8.485-7.362 12.728-8.254 4.243-.893 8.039-5.354 13.845-7.808 5.805-2.454 23.893-13.831 34.835-18.293 10.941-4.461 33.718-14.277 35.728-16.062 2.01-1.784 6.699-2.677 13.175-5.13 6.475-2.454 24.116-12.047 30.815-15.84 6.7-3.792 23.447-13.161 29.03-15.838 5.582-2.677 9.378-1.785 15.407.446"/><path d="M46.75 514.5c13.208 9.356 21.043 12.779 26.416 15.289A219.115 219.115 0 0 0 82.75 534m-10.5-12c8.901 3.777 16.129 8.749 21.75 15m-18.75-33.75c7.855 13.252 19.257 32.105 29.25 38.25M79 483c6.2 17.977 12.844 31.394 21.923 40.998 9.08 9.603 20.595 20.7 26.353 21.144 5.757.444 28.124-.574 31.224-1.396m-54-77.996c4.167 17.537 11.533 37.738 27.827 47.95 16.294 10.212 29.24 16.575 37.5 15.724 8.258-.85 11.16-1.032 17.186-6.713 6.027-5.681 9.375-7.901 13.84-9.011 4.463-1.11 14.647-7.415 14.647-7.415"/><path d="M131.5 494.25c10.31 10.723 19.95 19.476 32.28 21.664 12.33 2.188 23.986-.438 28.47-1.97M16.75 536.25c14.164-4.106 28.99-7.144 46.5-3.857M269.906 379.91c-4.599-1.909-10.938-1.981-16.151 3.82-5.047 5.616-5.496 17.746 1.682 28.08 7.178 10.333 15.478 21.566 25.123 26.058 9.646 4.493 15.259 1.904 18.506-1.797 3.253-3.706 2.638-6.772 2.638-6.772M283.75 456c28.036-19.88 49.067-29.112 66.426-34.058 17.358-4.946 65.763-18.134 103.818-13.848 38.056 4.286 56.082 12.859 60.756 15.167"/><path d="M412.75 425.795c25.816-3.306 54.985-3.393 78.79 5.744 23.804 9.137 44.518 22.933 56.96 35.711m-48.75-50.617c9.6 1.541 10.601-3.194 16.608 0s18.688 15.664 23.36 22.485c2.709 3.955 11.241 12.512 19.563 21.644 6.034 6.623 11.958 13.547 15.469 19.238"/><path d="M459.25 378c9.738 6.233 24.969 9.852 40.079 16.203 15.11 6.35 28.542 11.03 36.936 26.071 8.395 15.041 19.008 35.78 25.735 43.226m-325.205-75c-3.816 11.427-1.495 25.844 6.46 36.907 7.955 11.064 20.228 21.122 28.841 23.804 8.614 2.683 13.768 2.845 16.904 1.327m39-36.834c-.471 4.033-3.673 7.49-5.55 8.939-1.876 1.449-4.967 5.35-8.059 6.131-3.09.78-8.721-.557-13.743-2.564-5.021-2.007-12.863-9.365-16.837-13.49-3.975-4.125-11.26-14.493-13.027-19.956-1.767-5.463-1.656-8.027 0-11.706 1.656-3.68 1.025-3.01 3.864-3.01 4.526 0 6.145 1.04 7.323 4.162 1.177 3.121 5.446 13.23 8.98 17.54 3.532 4.311 11.922 12.338 17.516 15.014 5.593 2.676 8.832 4.014 13.1 3.568 4.27-.446 5.003-3.727 5.003-3.727"/><path d="M250.75 388.5s4.503-1.717 8.012-3.446c3.508-1.73 12.306-5.607 12.988-6.304m.09-1.5c-.527-2.214 1.356-3.194 2.938-2.968 1.581.226 2.862.648 2.937 1.568.075.92.006 1.4.006 1.4"/><path d="M273.201 375.75c-.922-1.279-.96-2.994.038-3.722.999-.727 2.305-.873 3.227-.727.921.145 1.992.791 2.033 1.923.04 1.132-.927 2.526-.927 2.526"/><path d="M274.036 370.996c-.433-2.673 3.197-4.192 4.18-3.181 1.46 1.5 1.06 2.315.681 3.09-.378.775-1.324 1.095-1.324 1.095m.177 2.25c8.036-4.323 14.552-12.075 17.218-14.012 2.666-1.938 6.769-7.91 7.183-12.82.666-7.9.962-10.733 0-17.292-.963-6.56.074-10.584 3.48-16.696 3.406-6.112 6.22-10.435 8.442-17.44 2.221-7.007 6.96-16.25 7.405-16.995.444-.745 2.37-6.111 8.145-12.521 5.776-6.41 8.442-10.435 9.035-11.33l.592-.894"/><path d="M344.982 257.17c-4.281-1.128-6.534-1.072-5.47-3.673 1.063-2.601 1.063-4.896 3.494-9.487 2.431-4.59 3.571-7.192 6.078-4.285 3.037 3.522 3.495 5.05 3.647 6.427.152 1.377-.608 4.438-2.28 6.886-1.67 2.448-3.435 4.667-5.47 4.131z"/><path d="M347.818 238.386c1.81-1.396 7.463-.769 9.785 4.66 2.322 5.428 3.596 11.155 1.798 18.591-1.798 7.437-2.597 8.255-5.043 12.642-2.448 4.388-6.118 9.816-6.642 10.114-.524.297.3.297-.3 2.082-.599 1.785-2.696 7.585-2.846 9.072-.15 1.488-.703 3.906-1.273 4.388-2.023 1.71-2.547 1.562-2.547 1.562"/><path d="M342.86 300c1.504 3.035-1.661 9.131-1.336 9.91.324.78 1.949 6.014 2.815 6.904.866.891 4.332 3.564 6.606 5.568 2.274 2.004 3.79 3.34 4.765 7.015.974 3.675 1.479 4.529 1.479 7.201 0 2.673.362 3.155.362 8.055s.315 8.166.423 14.29c.109 6.125-.099 12.323-1.181 17.557M331 406.5c4.713-4.453 6.06-5.773 12.118-8.855 5.605-2.85 14.9-11.243 17.132-18.895m-39 39.75c9.167-5.562 16.044-10.133 19.333-11.296 3.29-1.163 8.223-1.83 12.708-5.612 3.845-3.243 11.319-9.103 15.209-13.092m-77.96 50.934c5.767-5.732 11.857-12.337 12.636-12.684 0 0 .665 3.821-1.996 9.216-2.662 5.395-12.643 15.51-17.523 20.007-4.88 4.496-9.982 7.418-15.749 12.363-5.767 4.946-10.647 4.72-22.408 13.914m29.25-113.365c0-2.387 3.066-3.635 5.242-3.635 2.175 0 3.206.794 2.977 2.383-.23 1.589-.916 3.617-2.634 3.617h-1.717m3.632-6.75c0-1.367 5.285-2.344 6.75-.434m168.75-67.816s1.553 3.22 5.932 7.024c4.378 3.805 6.944 7.903 7.095 9.659.151 1.756 2.868 8.633 2.264 7.61-.604-1.025-1.358-1.318-2.415-.879-1.057.44-2.265 4.098-1.66 5.707.603 1.61.905 4.537 5.283 5.708 4.378 1.17 4.227 1.902 3.02 5.121-1.208 3.22-3.775 3.952-7.096 3.366-3.321-.585-6.642-2.78-8.152-4.683-1.51-1.902-4.68-5.707-4.227-12.292.453-6.585 1.23-9.605.325-13.556M472.75 321c2.324 4.599 6.535 11.571 4.87 13.5m-20.997-68.913c-.407 3.743-.382 9.576 0 12.658.382 3.082 1.059 3.522 5.004 5.834 3.945 2.311 6.876 3.522 11.046 3.082 4.171-.44 7.778-1.321 8.229-4.843.45-3.523-.676-4.403-2.93-4.843-2.255-.44-4.622-.88-6.426-3.412-1.803-2.532-3.172-4.843-2.882-5.394.29-.55 1.417-.55 1.417-.55s-2.93-3.742-5.073-5.063c-2.141-1.321-2.029-2.091-5.523-4.843-3.494-2.752-3.23-2.454-3.23-2.454"/><path d="M470.5 267.75c2.77 1.988 7.203 6.112 9.198 8.211 1.994 2.1 2.66 4.124 1.44 6.039m-25.932-77.7c-.513.651-.488 1.99-.42 6.907.084 6.084-.245 8.73 1.855 5.922 2.1-2.808 3.675-7.214 1.715-10.489-1.96-3.275-2.835-2.74-3.15-2.34zm-1.206.363l-.31-10.454c-.254-8.5-7.31-15.207-15.731-14.952l-70.388 2.136c-8.42.255-15.067 7.379-14.814 15.878l1.293 43.479m102.95 24l-1.5-48m2.25 92.25l-.75-29.25m-99 85.6l.276 9.147c.253 8.383 7.312 14.998 15.735 14.746l70.413-2.107c8.424-.252 15.072-7.277 14.819-15.66L457.993 330M355.75 270l1.5 67.5"/><path d="M353.578 238.865l-.442-14.936a.394.394 0 0 1 .381-.409l.392-.012.465 15.73-.392.012a.393.393 0 0 1-.404-.385zm-.6-25.606l-.228-7.712a.318.318 0 0 1 .305-.327l.314-.01.246 8.347-.314.01a.314.314 0 0 1-.323-.308zm102.499 22.893l-.465-15.73.392-.012a.393.393 0 0 1 .404.385l.442 14.936a.395.395 0 0 1-.381.41l-.392.01zm-66.482-45.363c.03.975-.725 1.79-1.685 1.819-.96.03-1.76-.737-1.79-1.713-.028-.975.726-1.789 1.686-1.818.96-.03 1.76.737 1.79 1.712zM410.763 189a.953.953 0 0 1 .973.935.955.955 0 0 1-.916.991l-14.538.444a.953.953 0 0 1-.973-.934.955.955 0 0 1 .916-.992l14.538-.444zm-50.513 18.569a.944.944 0 0 1 .916-.971l86.45-2.598a.944.944 0 0 1 .971.915l4.663 155.267a.944.944 0 0 1-.916.97l-86.45 2.598a.944.944 0 0 1-.97-.915L360.25 207.57z"/><path d="M360.25 207.568a.944.944 0 0 1 .916-.97l86.45-2.598a.944.944 0 0 1 .971.915l4.663 155.266a.944.944 0 0 1-.916.971l-86.45 2.598a.944.944 0 0 1-.97-.915l-4.664-155.267zm99 128.432c3.505 2.217 8.693 7.98 10.094 9.31 1.552 1.473 2.221 2.178 2.221 2.178s-.532 1.369.823 2.403c1.354 1.035 4.665 3.695 5.87 3.547 1.204-.148 3.01 0 2.709 2.512-.301 2.512-1.483 4.433-3.752 5.468-2.269 1.034-7.235 1.182-10.245 0-3.01-1.182-7.088-3.545-7.088-3.545"/><path d="M471.25 347.25c1.892.83 7.085 4.063 8.254 4.948 1.17.885 2.074 2.724 1.05 4.052m-3.304-21.88c3.291-3.68 7.815-8.288 13.557-13.51 13.376-12.167 25.415-20.179 44.142-22.405 18.726-2.225 20.455-3.208 25.833-4.052 5.378-.844 5.378-1.466 10.282 10.195 4.905 11.662 10.954 23.693 13.823 35.736 2.912 12.227 5.646 23.932 9.363 27.166"/><path d="M472.75 348.75c-.946-2.847-1.498-4.702-1.5-5.024-.003-.47.447-1.579 1.348-3.226m25.652 54.75c-5.94-6.13-14.293-21.984-20.25-34.5m83.25-26.25c16.48 15.77 28.04 29.263 33.376 33.227 5.335 3.965 9.782 6.196 12.672 8.874 2.89 2.678 3.112 6.695 4.669 7.81 1.556 1.116 7.114 2.645 7.558 5.228.445 2.583 3.335 4.145 7.782 8.608 4.446 4.463 7.78 8.702 11.338 12.496 3.557 3.794 13.117 14.951 15.118 19.19 2 4.24 3.78 7.365 6.225 9.15 2.445 1.785 5.335 2.901 6.67 8.033 1.333 5.133 2.445 8.257 5.335 9.373 2.89 1.115 5.113 1.258 6.225 5.538 1.112 4.28 2.668 3.834 4.891 8.074s3.335 8.033 4.891 9.149"/><path d="M696.25 492.216s-.199-2.8-1.334-5.96c-2.483-6.908-6.225-7.913-11.116-10.776-4.891-2.862-12.895-3.083-28.903 0-16.007 3.083-32.811 17.943-38.147 24.77"/><path d="M604 509.549c8.72-6.535 14.056-9.353 22.552-13.184 8.496-3.831 21.486-12.863 40.913-10.817 14.979 1.577 19.45 5.183 24.816 7.437 5.366 2.253 9.613 3.605 13.414 15.775 3.8 12.17 2.236 12.49 2.236 12.49"/><path d="M702.25 507c2.217 6.446 6.209 13.114 7.983 18.67 1.774 5.558 7.317 21.339 9.313 29.563 1.995 8.224 5.765 30.358 8.204 36.517m-114-66.22c10.224-7.952 25.78-16.538 43.068-15.434 17.289 1.105 25.734 1.22 33.736 7.237 8 6.017 7.334 6.017 12.446 18.167"/><path d="M611.5 519.75c15.065-9.553 29.745-17.588 47.719-18.575 12.142-.667 18.663.444 28.781 5.554m-80.25 7.771c4.715-4.773 15.57-9.158 20.733-11.556 5.164-2.398 15.267-9.444 15.267-9.444m-43.5 9c15.164-10.209 47.67-27.437 54-26.185m-7.756-8.436c-4.477.975-20.594 8.872-28.95 14.31-8.358 5.439-14.327 9.407-20.57 16.561 0 0-3.606-1.812 9.079-17.417 12.684-15.606 21.19-23.102 33.576-27.218C652.015 450 655 450 655 450m-70.925 37.5c-4.256-11.09-2.739-22.14.947-30.982 3.686-8.84 2.168-17.018 2.168-17.018m-17.69 32.25c-4.904-8.926-6.55-15.23-5.844-23.375.705-8.144-.156-14.125-.156-14.125m-43.5-132c-8.355-9.59-41.376-46.764-63.75-66.75m-38.737-57.75c.449-3.707 2.544-14.51 0-18.599-2.544-4.088-10.924-12.702-15.263-13.724-4.34-1.022-2.694-.584-2.694-.584M391 180c4.14-5.865 9.246-11.56 10.5-20.25"/><path d="M398.353 168.75c.754-15.994 1.286-26.474.532-37.943-.755-11.47-6.94-73.434-10.561-96.67C384.703 10.9 384.25 3.75 384.25 3.75"/><path d="M394.75 94.5c2.556-10.556 8.007-20.872 12.368-38.812 4.361-17.94 5.451-23.995 2.399-31.843-3.053-7.85-6.056-14.577-6.517-19.734C402.54-1.047 403-3 403-3m-30.75 15.75c5.16 25.243 11.318 46.497 17.25 69.75m-27-44.25c12.335 34.667 20.831 60.76 29.25 84m-29.25-36c7.453 22.084 20.306 36.128 25.5 51m-20.25-9c8.93 15.104 12.055 23.896 17.636 31.336A1339.063 1339.063 0 0 1 395.5 173.25m-32.25 8.58c-7.634-5.124-19.39-12.313-26.275-14.362-6.886-2.05-12.275-2.859-15.568.986-3.293 3.844-4.042 7.65-2.096 12.188 1.946 4.537 4.64 6.44 12.125 10.832 7.485 4.39 11.976 6.44 15.418 8.343 3.443 1.903 7.037 4.183 7.037 4.183"/><path d="M319.044 178.616c-.438-5.812 2.507-8.863 5.122-9.896 2.616-1.032 3.633-.885 5.812 0 2.18.885 5.522 3.098 5.522 3.54 0 .443-2.906 1.771-5.086 5.164s-3.095 5.606-3.146 7.081c-.05 1.476-1.124.536-4.264-.885-3.14-1.42-3.96-5.004-3.96-5.004zM335.5 204.75c9.616 4.582 18.091 10.733 18.75 12M167.5 423c2.352-38.665 19.469-115.302 29.202-171.889 10.227-59.456 15.109-99.53 27.193-148.423C235.98 53.795 250.75-3 250.75-3m48 359.154c-23.74-2.545-48.148 2.935-58.513 6.205-10.365 3.27-12.705 13.741 3.344 9.318 16.05-4.424 36.53-11.288 48.86-9.318M252.25 330.75c30.614.994 50.25 13.5 50.25 13.5M268 300c6.422 4.07 31.118 10.807 34.5 22.5m126-144c0-19.97 20.78-50.674 31.5-66.75m-30.422 55.5c-6.82-29.61 20.62-72.554 28.922-95.25m-28.029 69c-2.841-22.971 8.192-60.626 5.985-108"/><path d="M433 97.5c-8.905-12.042-8.02-29.478-9.347-49.27C422.326 28.437 421 24 421 24"/><path d="M424.75 59.25c-8.732-13.87-10.822-26.708-7.512-41.173C420.548 3.612 422.44-3 422.44-3m155.31 0c10.667 35.364 6.667 30.675 12.667 57.468 6 26.792 20.668 104.315 25.335 150.619 4.667 46.304 7.334 71.498 13.334 104.448 6 32.95 11.157 65.891 10 83.707-1.156 17.816.164 19.258.164 19.258m-160.5-60.75c13.002-16.708 32.282-37.28 50.07-40.235 17.787-2.956 36.406-7.015 39.103-7.015 2.697 0 3.827 2.633 3.827 2.633M332.5 409.5c25.333-4.844 62.222-7.966 84-9.75"/><path d="M361.75 394.492c23.847-2.798 58.573-2.71 79.052-1.196 20.48 1.515 32.055 1.96 52.534 6.858 20.48 4.897 20.274 4.309 31.164 12.346M184.908 524.25c-.678 10.042.93 13.403 2.86 15.42 1.93 2.017 1.705 8.219.846 10.83"/></g></svg>