<svg width="721" height="534" viewBox="0 0 721 534" xmlns="http://www.w3.org/2000/svg"><title>hero</title><g stroke="#BFC9DB" fill="none" fill-rule="evenodd"><path d="M412.367 423.38c-17.724 1.004-56.182 7.024-95.308 12.04-39.127 5.016-48.156 7.69-69.558 17.39-21.403 9.698-44.143 36.785-50.497 47.82-3.456 6.003-7.802 18.633-12.231 31.874M625.85 532.504c-5.255-16.7-12.228-39.35-22.867-53.61a93.379 93.379 0 0 0-6.852-8.137"/><path d="M595.949 470.564c-15.104-15.964-34.021-25.434-43.797-29.46-11.37-4.681-36.785-8.694-73.905-7.022-37.12 1.672-88.286 4.013-112.364 6.354-24.077 2.34-30.766 3.679-30.766 3.679M125.863 532.504c-2.195-2.674-5.097-5.097-8.639-6.986-11.148-5.945-14.12-6.688-24.079-6.39-9.959.296-17.985 2.674-26.755 6.54-8.769 3.863-13.97 5.944-17.093 6.836M178.66 499.55c.807 3.104.054 3.886-2.13 6.943-2.23 3.12-7.135 8.472-11.297 11.742-4.162 3.27-8.175 2.824-12.188 4.31-4.013 1.487-3.27 3.865-8.918 6.392-2.502 1.119-5.499-2.23-5.35 3.567"/><path d="M127.947 531.612c-2.06-4.905-6.19-6.689-14.885-12.54-8.695-5.852-19.397-11.985-31.659-13.323-12.263-1.337-25.417-2.006-47.713 5.574-14.004 4.762-22.376 13.92-26.944 21.181M22.41 488.638c-.052-.3-.107-.607-.165-.923M22.41 488.638c.66 3.768.81 6.308-2.766 6.41-7.357.21-7.58 5.797-6.019 9.867 1.56 4.07.223 5.071-7.804 11.09-5.978 4.484-6.139 11.161-4.26 16.5M22.41 488.638a3.925 3.925 0 0 1-.165-.923M235.967 360.817c-3.478 1.94-6.624 3.712-8.752 4.918-6.69 3.79-24.302 13.376-30.768 15.83-6.465 2.452-11.147 3.344-13.154 5.127-1.074.955-8.09 4.21-16.054 7.712"/><path d="M65.796 504.915c-16.499-2.956-30.099-7.672-38.125-11.445-3.086-1.45-4.743-3.167-5.26-4.832M271.551 350.34c-6-2.222-9.789-3.106-15.352-.435-3.8 1.824-12.78 6.756-20.232 10.912M22.245 487.716c-.137-2.313 1.91-4.406 5.425-5.376 6.466-1.784 12.61-5.574 14.108-11.817 1.5-6.242 6.85-7.58 11.755-9.141 4.905-1.561 5.128-6.243 7.804-10.256 2.675-4.013 7.803-4.682 12.709-5.574 4.904-.891 9.14-4.905 12.262-8.472 3.121-3.567 8.472-7.357 12.708-8.25 4.236-.891 8.026-5.35 13.823-7.803 5.797-2.452 23.857-13.823 34.781-18.282 5.077-2.072 12.704-5.3 19.618-8.34M46.4 486.799c13.153 9.14 20.957 12.485 26.308 14.938 5.351 2.452 9.545 4.115 9.545 4.115M71.593 493.47c8.918 3.807 16.159 8.82 21.79 15.12M75.16 474.982c7.803 13.377 19.131 32.408 29.058 38.611M78.282 455.14c6.243 18.058 12.93 31.537 22.073 41.185 9.14 9.648 20.734 20.795 26.53 21.241 5.798.446 28.316-.576 31.438-1.403M215.091 477.79s-10.172 6.333-14.63 7.448c-4.46 1.115-7.804 3.345-13.824 9.05-3.1 2.939-5.375 4.407-7.977 5.262M104.219 437.08c4.162 17.613 11.519 37.902 27.794 48.158 16.276 10.256 29.207 16.647 37.457 15.792 4-.414 6.74-.675 9.19-1.48"/><path d="M130.678 466.733c10.254 10.925 19.84 19.843 32.103 22.072 12.263 2.23 23.856-.445 28.315-2.006M63.335 504.456c-17.622-3.523-32.543-.267-46.798 4.134M250.162 360.815c.636-2.007 1.582-3.755 2.804-5.113 5.182-5.757 11.482-5.685 16.053-3.79M250.162 360.815c-1.974 6.228-.92 15 4.476 22.755 7.135 10.257 15.384 21.404 24.97 25.863 4.122 1.918 7.499 2.53 10.27 2.32M289.878 411.752c3.676-.279 6.285-2.007 8.125-4.103 3.227-3.67 2.624-6.707 2.62-6.72M514.363 394.956c-4.682-2.341-22.74-11.036-60.863-15.383-38.124-4.347-86.614 9.029-104.003 14.045-17.39 5.017-38.458 14.38-66.544 34.544"/><path d="M547.768 439.553c-12.41-12.922-33.07-26.873-56.814-36.114-23.743-9.24-52.837-9.152-78.587-5.808M499.727 389.049c9.62 1.559 10.623-3.231 16.643 0 6.019 3.232 18.727 15.847 23.409 22.749 2.713 4 11.264 12.658 19.603 21.897 6.047 6.7 11.983 13.706 15.501 19.463M498.311 365.861c-15.049-6.353-30.217-9.974-39.915-16.21"/><path d="M498.311 365.861c15.05 6.355 28.425 11.036 36.786 26.084 8.36 15.05 18.93 35.798 25.63 43.248M235.967 360.817c-3.85 11.399-1.51 25.779 6.517 36.813 8.026 11.036 20.408 21.07 29.099 23.745 8.69 2.675 13.89 2.837 17.054 1.322M271.551 350.34c.54-.966.866-.658 2.818-.658 4.571 0 6.206 1.04 7.395 4.161 1.19 3.122 5.5 13.23 9.067 17.54 3.567 4.31 12.04 12.336 17.687 15.012 5.174 2.45 8.361 3.76 12.171 3.624"/><path d="M271.551 350.34c-.252.451-.55 1.18-1.083 2.351-1.672 3.68-1.784 6.243 0 11.706 1.783 5.462 9.141 15.83 13.154 19.954 4.013 4.125 11.931 11.482 17.002 13.49 5.07 2.005 10.756 3.343 13.877 2.563 3.122-.78 6.243-4.682 8.138-6.132 1.895-1.449 5.128-4.905 5.604-8.937"/><path d="M320.69 390.019c.348-.013.695-.019 1.057-.057 4.31-.446 5.052-3.725 5.052-3.726M250.162 360.815c.079-.031 4.508-1.784 7.969-3.553 3.493-1.784 12.253-5.783 12.932-6.502M277.386 349.634s.068-.473-.007-1.379c-.074-.907-1.337-1.323-2.898-1.546-1.56-.223-3.418.743-2.898 2.925"/><path d="M276.518 347.241s.936-1.424.897-2.58c-.04-1.156-1.075-1.816-1.967-1.965-.892-.149-2.156 0-3.122.743-.966.743-.928 2.496-.036 3.802M278.717 342.644c-.372.721-1.302 1.018-1.302 1.018"/><path d="M273.94 342.728c-.425-2.485 3.142-3.897 4.108-2.957 1.434 1.394 1.041 2.152.67 2.873M292.02 334.07c1.107-1.053 2.01-1.892 2.676-2.373 1.088-.786 2.412-2.242 3.63-4.014M292.02 334.07c-3.344 3.19-8.543 8.36-14.604 11.599M338.901 226.372l.237-.355M338.901 226.372l-.358.537c-.594.892-3.27 4.905-9.067 11.296-5.796 6.39-7.729 11.742-8.175 12.486-.446.743-5.202 9.958-7.43 16.944-2.23 6.986-5.055 11.296-8.474 17.39-3.418 6.095-4.459 10.108-3.493 16.648.848 5.734.723 8.613.23 14.546M298.326 327.682c1.779-2.589 3.332-5.862 3.578-8.768l.229-2.695"/><path d="M338.901 226.372c.18 1.3 2.25 1.448 5.588 2.32 1.99.52 3.716-1.635 5.351-4.013 1.634-2.378 2.378-5.351 2.23-6.688-.149-1.338-.598-2.823-3.568-6.243-2.453-2.824-3.567-.297-5.946 4.162-2.378 4.459-2.378 6.688-3.418 9.215-.21.513-.282.916-.237 1.247M342.408 272.094c-2.007 1.709-2.527 1.56-2.527 1.56M342.408 272.094c.566-.482 1.115-2.898 1.263-4.385.149-1.486 2.23-7.283 2.825-9.067.594-1.783-.223-1.783.297-2.08.52-.298 4.162-5.723 6.589-10.108.705-1.272 1.269-2.242 1.762-3.162"/><path d="M355.144 243.292c1.207-2.252 1.976-4.196 3.242-9.472 1.784-7.432.52-13.154-1.783-18.58-2.304-5.425-7.914-6.05-9.71-4.656M342.408 272.094c1.549 3.039-1.71 9.14-1.375 9.92.335.782 2.007 6.02 2.898 6.913.892.892 4.46 3.567 6.8 5.574 2.342 2.007 3.902 3.344 4.906 7.023.745 2.732 1.222 3.907 1.419 5.427"/><path d="M357.056 306.95c.068.527.103 1.095.103 1.783 0 2.675.372 3.158.372 8.063 0 4.905.325 8.175.437 14.307.111 6.13-.102 12.336-1.217 17.576M359.104 351.126c.056-.172.126-.345.175-.516M330.22 378.717c4.682-4.51 6.02-5.848 12.039-8.97 5.446-2.822 14.38-11.012 16.846-18.62M367.505 360.103c-3.9 3.995-11.207 9.774-14.99 12.99-4.459 3.79-9.364 4.458-12.634 5.623-.938.334-2.178.957-3.673 1.796M336.209 380.513c-2.145 1.204-4.827 2.865-7.966 4.822M326.8 386.236a785.669 785.669 0 0 1-6.11 3.783M326.8 386.236l1.443-.901M288.637 422.698a162.15 162.15 0 0 1-5.683 5.464M289.878 411.752l-.006.007M289.878 411.752c4.086-4.007 8.323-8.434 10.746-10.822M282.953 428.162c-4.905 4.459-10.033 7.357-15.83 12.263-5.796 4.904-10.702 4.682-22.523 13.8M300.624 400.93c1.014-1 1.718-1.651 1.95-1.752 0 0 .668 3.79-2.007 9.14-1.845 3.689-7.184 9.6-11.93 14.38M278.717 342.644h1.672c1.672 0 2.341-1.992 2.564-3.553.138-.962-.195-1.626-.964-1.995"/><path d="M274.952 340.32c0-2.343 2.985-3.57 5.103-3.57.811 0 1.456.117 1.934.347M281.989 337.096c.397-1.639 5.256-2.698 6.648-.346M457.26 268.08s1.53 3.27 5.84 7.136c4.31 3.864 6.837 8.026 6.986 9.809.149 1.784 2.825 8.77 2.23 7.73M457.624 281.067c.892 4.013.126 7.08-.32 13.769-.187 2.809.258 5.114.944 6.993"/><path d="M458.247 301.828c.947 2.595 2.356 4.372 3.218 5.493 1.486 1.932 4.756 4.161 8.027 4.756 3.27.594 5.796-.149 6.985-3.419 1.19-3.27 1.338-4.013-2.972-5.202-4.31-1.189-4.608-4.162-5.203-5.797-.594-1.635.595-5.35 1.635-5.797 1.041-.446 1.784-.148 2.378.892M477.5 305.947c-.056.12-.115.238-.2.333M477.5 305.947c1.07-2.296-2.924-8.813-5.184-13.192M456.004 227.127c.038.007.403.242 3.195 2.494 3.456 2.787 3.344 3.567 5.463 4.905 2.118 1.338 5.016 5.128 5.016 5.128M456.369 237.09c-.403 3.79-.378 9.7 0 12.82.378 3.121 1.046 3.567 4.948 5.908s6.8 3.567 10.925 3.122c4.124-.446 7.692-1.338 8.138-4.906M469.677 239.654s-1.115 0-1.4.557c-.288.558 1.065 2.9 2.85 5.463 1.783 2.564 4.124 3.01 6.353 3.456 2.23.445 3.345 1.337 2.9 4.904"/><path d="M469.677 239.654c2.787 2.007 7.246 6.168 9.253 8.286 2.006 2.12 2.675 4.162 1.45 6.094M456.263 187.669c2.23-2.675 3.902-6.874 1.821-9.996-2.08-3.121-3.01-2.61-3.344-2.23-.545.62-.519 1.896-.447 6.583.09 5.798-.26 8.318 1.97 5.643z"/><path d="M389.823 152.181l48.55-1.458c8.45-.254 15.528 6.406 15.782 14.846l.312 10.381M353.956 203.738l.242 8.044M353.525 189.378l.153 5.082M389.823 152.181l-22.061.663c-8.447.253-15.114 7.326-14.861 15.766l.624 20.767M456.004 227.127l-1.154-38.41M456.303 237.087l-.3-9.96M456.745 251.797l.879 29.27M459.084 329.668l-.837-27.84M367.505 360.103c-3.895-1.685-6.976-4.93-8.4-8.976M359.104 351.126a15.24 15.24 0 0 1-.86-4.609l-.277-9.21M459.084 329.668l.414 13.808c.254 8.44-6.412 15.512-14.86 15.767l-70.613 2.12a15.215 15.215 0 0 1-6.52-1.26M355.144 243.292l1.912 63.66M357.056 306.95l.103 3.436M355.144 243.292l-.022-.75M353.956 203.738l-.279-9.279"/><path d="M352.516 176.755l.228 7.602a.313.313 0 0 0 .324.303l.315-.009-.247-8.227-.315.01a.315.315 0 0 0-.305.321M455.803 206.91a.391.391 0 0 0 .381-.402l-.442-14.722a.392.392 0 0 0-.405-.38l-.393.012.466 15.505.393-.012M353.677 194.46l-.393.012a.39.39 0 0 0-.38.403l.441 14.722a.39.39 0 0 0 .405.379l.393-.012-.187-6.225M395.144 161.86a.95.95 0 0 0 .975.922l14.561-.438a.947.947 0 0 0 .918-.977.948.948 0 0 0-.975-.921l-14.56.437a.949.949 0 0 0-.919.978zM388.82 162.209a1.74 1.74 0 1 0-3.48.104 1.74 1.74 0 0 0 3.48-.104zM452.286 332.224a.94.94 0 0 0 .257-.675M447.793 175.885a.939.939 0 0 1 .085.364l.136 4.529"/><path d="M447.793 175.885a.939.939 0 0 1 .085.364l.136 4.529M446.907 175.334l-57.657 1.732M360.056 178.017a.944.944 0 0 1 .365-.085l28.828-.866M364.255 334.568a.949.949 0 0 0 .517.487M359.506 178.903l4.664 155.3a.94.94 0 0 0 .086.364M365.142 335.118a.951.951 0 0 1-.37-.063M452.286 332.224a.94.94 0 0 1-.658.296l-86.486 2.598M447 175.35a.942.942 0 0 1 .794.534M452.286 332.224a.94.94 0 0 0 .257-.675M448.014 180.777l4.53 150.772M359.506 178.903a.942.942 0 0 1 .55-.886M458.46 307.668c3.461 2.23 8.584 8.027 9.968 9.364 1.532 1.481 2.193 2.191 2.193 2.191M459.084 329.668s4.026 2.377 6.998 3.565c2.974 1.19 7.879 1.04 10.12 0 2.24-1.04 3.406-2.973 3.704-5.5.298-2.526-1.486-2.675-2.675-2.526-1.19.149-4.46-2.526-5.798-3.567-1.337-1.04-.811-2.416-.811-2.416M478.888 324.209c-1.171-.892-6.372-4.15-8.267-4.986M479.939 328.291c1.026-1.338.119-3.19-1.051-4.083M477.5 305.947c3.264-3.631 7.677-8.118 13.247-13.192 13.377-12.19 25.416-20.215 44.145-22.444 18.728-2.23 20.456-3.215 25.835-4.06 5.378-.845 5.378-1.47 10.283 10.213 4.905 11.683 10.955 23.736 13.823 35.8 2.913 12.249 5.647 23.975 9.364 27.215M477.189 306.29c.099-.111.21-.23.31-.343"/><path d="M472.334 312.22c-1.145 1.597-1.717 2.672-1.713 3.127.003.313.704 2.111 1.906 4.871M498.311 365.861c-5.96-6.015-14.34-21.575-20.318-33.858M594.197 339.478c5.351 3.961 9.81 6.19 12.708 8.866 2.9 2.675 3.122 6.688 4.683 7.803 1.56 1.115 7.134 2.643 7.58 5.223.446 2.581 3.344 4.141 7.803 8.6 4.46 4.46 7.804 8.696 11.371 12.486 3.567 3.79 13.154 14.938 15.161 19.174 2.006 4.236 3.79 7.357 6.243 9.141 2.452 1.783 5.35 2.898 6.688 8.026s2.453 8.25 5.351 9.364c2.898 1.115 5.128 1.258 6.243 5.534 1.115 4.276 2.675 3.83 4.905 8.066 2.057 3.91 3.166 7.433 4.55 8.831M687.838 450.903a2.787 2.787 0 0 1-.354-.311M560.727 306.28c16.526 15.755 28.12 29.237 33.47 33.198"/><path d="M687.484 450.592c2.733 1.674 4.945 3.681 6.597 8.323 1.139 3.198 1.338 6.034 1.338 6.034M615.694 473.083c5.35-6.912 22.202-21.957 38.255-25.078M653.95 448.005c16.052-3.121 24.078-2.898 28.983 0 1.65.975 3.166 1.739 4.551 2.587"/><path d="M604.258 480.668c8.695-6.466 14.018-9.253 22.49-13.043 8.473-3.791 21.427-12.726 40.801-10.702 14.938 1.56 19.397 5.128 24.748 7.357 5.351 2.23 9.587 3.568 13.377 15.607 3.611 11.47 2.366 12.3 2.24 12.353M720.5 532.504c-.453-2.186-.868-4.104-1.225-5.574-2.007-8.249-7.581-24.079-9.364-29.653-.511-1.596-1.214-3.29-1.996-5.037M701.884 478.55c1.591 4.613 4.081 9.335 6.031 13.69"/><path d="M613.692 498.14c10.256-8.026 25.86-16.693 43.204-15.578 17.342 1.115 25.814 1.231 33.84 7.304 8.027 6.073 7.358 6.073 12.486 18.336"/><path d="M686.5 478.55c-10.033-5.129-16.499-6.244-28.538-5.575-17.82.99-32.378 9.054-47.315 18.642M643.247 465.172s-10.033 6.912-15.16 9.264c-5.129 2.353-15.909 6.655-20.59 11.337M653.95 448.005c-6.393-1.263-39.21 16.127-54.52 26.432M645.477 439.553c-4.46.986-20.512 8.972-28.836 14.472-8.323 5.499-14.27 9.512-20.487 16.746 0 0-.01-.005-.022-.014"/><path d="M653.95 421.473s-2.974 0-15.31 4.162c-12.337 4.162-20.81 11.742-33.444 27.523-10.545 13.171-9.787 16.623-9.247 17.406M595.949 470.564c.078.113.149.17.183.193M586.84 410.994s1.56 8.25-2.23 17.167c-3.79 8.92-5.351 20.066-.974 31.253M568.305 444.058c-4.653-8.985-6.213-15.33-5.545-23.528.67-8.198-.147-14.218-.147-14.218M455.803 206.91c22.58 19.986 55.901 57.158 64.332 66.748M417.172 150.716c.446-3.774 2.527-14.773 0-18.935-2.527-4.16-10.85-12.93-15.161-13.97-4.31-1.042-2.675-.596-2.675-.596M395.39 144.477c.8-1.22 1.555-2.485 2.233-3.82M397.623 140.657c1.285-2.53 2.286-5.306 2.753-8.49M389.823 152.181c1.805-2.514 3.792-4.998 5.567-7.705"/><path d="M397.623 140.657c.743-15.958 1.267-26.416.523-37.86-.743-11.444-6.837-73.277-10.404-96.465-.341-2.213-.652-4.28-.938-6.208"/><path d="M394.715 65.878c2.614-10.495 8.187-20.751 12.646-38.587 3.584-14.335 5.005-21.037 3.806-27.167M389.823 55.097c-4.884-18.586-9.913-35.91-14.457-54.974M391.118 93.895c-8.218-23.32-16.511-49.5-28.551-84.285M387.742 109.56c-5.128-14.938-17.818-29.044-25.176-51.225M367.676 99.973c8.918 14.938 12.04 23.633 17.613 30.991a1316.967 1316.967 0 0 1 10.101 13.513M352.516 176.755s-3.568-2.315-6.987-4.248c-3.418-1.932-7.877-4.013-15.31-8.472-7.431-4.459-10.106-6.39-12.04-10.999-1.931-4.608-1.188-8.472 2.082-12.376 3.27-3.904 8.62-3.082 15.458-1 6.838 2.08 18.51 9.38 26.09 14.582"/><path d="M334.976 143.524c0-.446-3.419-2.675-5.648-3.567-2.23-.892-3.27-1.041-5.946 0-2.675 1.04-5.687 4.114-5.24 9.97 0 0 .839 3.61 4.051 5.042 3.213 1.43 4.311 2.378 4.363.892.051-1.487.988-3.716 3.218-7.135 2.229-3.418 5.202-4.756 5.202-5.202zM334.976 176.755c9.513 4.82 17.897 11.29 18.549 12.622M242.162.124c-5.288 20.666-12.382 48.615-18.733 74.373-12.04 48.832-16.905 88.854-27.094 148.236-9.698 56.516-26.754 133.056-29.096 171.672M298.326 327.682c-23.742-2.618-48.151 3.023-58.517 6.388-10.367 3.366-12.708 14.146 3.344 9.592s36.537-11.62 48.868-9.592M302.133 316.219c-.001-.001-19.52-12.559-49.951-13.556M267.565 272.094c6.354 4.145 30.788 11.007 34.134 22.917M427.428 150.716c0-19.975 20.85-50.688 31.606-66.768M429.22 139.23c-6.697-29.67 20.252-72.7 28.404-95.441M432.841 69.489c2.22-18.583 4.661-40.454 3.505-64.94M432.841 69.489c-2.059 17.242-3.925 31.655-2.543 42.67M421.543.124c.505 3.57 1.188 9.696 1.871 19.855 1.338 19.889.446 37.41 9.427 49.51M424.032 31.306c-6.281-10.602-8.908-20.602-8.418-31.182M585.95.124c1.176 6.92 1.602 12.345 4.72 26.21 6.022 26.757 20.738 104.178 25.42 150.422 4.683 46.243 7.359 71.404 13.379 104.31 6.02 32.907 11.195 65.805 10.034 83.598-1.16 17.793.164 19.233.164 19.233M478.888 324.209c13.037-16.883 32.37-37.671 50.207-40.656 17.836-2.987 36.506-7.09 39.21-7.09 2.705 0 3.838 2.662 3.838 2.662M336.209 380.513c25.156-4.407 59.397-7.294 80.07-8.981M332.003 381.278c1.368-.26 2.775-.515 4.205-.766"/><path d="M524.19 383.896c-10.907-8.049-10.702-7.46-31.214-12.365-20.511-4.905-32.105-5.35-52.617-6.868-20.511-1.517-55.292-1.604-79.177 1.198M184.332 496.325c-.705 9.991.967 13.335 2.974 15.341 2.006 2.007 1.771 8.176.88 10.774"/></g></svg>