<svg width="60" height="58" viewBox="0 0 60 58" xmlns="http://www.w3.org/2000/svg"><title>logo_designdesign</title><g fill="#8F9EBC" fill-rule="evenodd"><path d="M3.633 2.452h-2.48v11.407h2.48c2.97 0 4.594-2.623 4.594-5.703 0-3.082-1.624-5.704-4.594-5.704m.105 12.635H.577c-.315 0-.577-.313-.577-.687V1.89c0-.376.262-.667.577-.667h3.161c3.494 0 5.643 3.206 5.643 6.933 0 3.725-2.15 6.931-5.643 6.931M19.022 15.087h-6.97c-.314 0-.576-.313-.576-.687V1.89c0-.375.262-.667.577-.667h6.707c.297 0 .542.27.542.625 0 .354-.245.624-.542.624h-6.148V7.24h3.476c.297 0 .524.27.524.624s-.227.625-.524.625h-3.476v5.35h6.41c.297 0 .524.27.524.624 0 .353-.227.624-.524.624M25.852 15.358c-1.38 0-3.616-.667-4.664-2.103a.757.757 0 0 1-.157-.458c0-.146.034-.27.122-.395.105-.125.227-.209.367-.209.123 0 .262.063.367.167 1.136 1.166 2.515 1.77 3.982 1.77 1.538 0 3.18-.666 3.18-2.561 0-1.54-1.52-2.144-4-3.227-1.59-.686-3.337-1.52-3.337-3.85 0-2.457 1.904-3.519 4.175-3.519 1.45 0 3.057.625 4 1.478a.7.7 0 0 1 .227.521.779.779 0 0 1-.087.333c-.105.166-.262.27-.42.27a.523.523 0 0 1-.296-.104c-1.049-.79-2.062-1.27-3.424-1.27-1.607 0-3.04.688-3.04 2.29 0 1.604 1.59 2.207 3.774 3.123 2.06.853 3.58 1.77 3.58 3.893 0 2.602-1.99 3.85-4.349 3.85M33.66 15.254c-.315 0-.577-.313-.577-.687V1.723c0-.374.262-.687.577-.687.314 0 .559.313.559.687v12.844c0 .374-.245.687-.56.687M47.494 12.568c-1.152 1.832-2.882 2.79-4.75 2.79-3.373 0-5.818-3.394-5.818-7.203 0-3.81 2.445-7.182 5.817-7.182 1.59 0 2.917.667 3.982 1.937.105.125.14.27.14.436 0 .147-.035.313-.122.417a.415.415 0 0 1-.35.167.522.522 0 0 1-.366-.146c-.822-.812-1.817-1.582-3.284-1.582-2.83 0-4.681 2.851-4.681 5.953 0 3.123 1.85 5.975 4.681 5.975 1.572 0 2.935-.791 3.738-2.124v-3.08h-3.214c-.28 0-.507-.292-.507-.625s.227-.604.507-.604h3.79c.315 0 .577.333.577.708v3.705a.815.815 0 0 1-.14.458M58.743 15.254c-.192.02-.332-.063-.437-.25l-6.865-11.49v11.095c0 .353-.262.645-.559.645-.297 0-.541-.292-.541-.645V1.702c0-.333.227-.666.559-.666.192 0 .35.125.436.27 0 0 5.59 9.534 6.848 11.47V1.702c0-.353.245-.666.542-.666.297 0 .559.313.559.666V14.61c0 .353-.245.624-.542.645M5.468 24.496l-2.533 6.662h5.048l-2.515-6.662zm5.135 12.011a.403.403 0 0 1-.21.062c-.21 0-.4-.124-.489-.375l-1.467-3.85H2.48l-1.45 3.83c-.087.229-.279.395-.489.395a.463.463 0 0 1-.226-.062C.122 36.403 0 36.174 0 35.924c0-.083 0-.187.035-.27l4.926-12.907c.053-.145.244-.395.507-.395.262 0 .436.27.49.395l4.925 12.907c.034.083.034.187.034.27 0 .25-.121.479-.314.583zM21.416 36.57c-.192.02-.332-.063-.437-.25l-6.865-11.49v11.094c0 .354-.262.645-.559.645-.297 0-.541-.29-.541-.645V23.018c0-.333.227-.666.559-.666.192 0 .35.125.436.27 0 0 5.59 9.534 6.848 11.47V23.018c0-.354.245-.666.542-.666.297 0 .559.312.559.666v12.906c0 .354-.245.625-.542.645M29.084 23.767h-2.48v11.407h2.48c2.97 0 4.594-2.622 4.594-5.703 0-3.081-1.625-5.704-4.594-5.704m.105 12.636h-3.162c-.314 0-.576-.313-.576-.687v-12.51c0-.376.262-.667.576-.667h3.162c3.493 0 5.642 3.206 5.642 6.932 0 3.726-2.149 6.932-5.642 6.932M3.633 45.083h-2.48V56.49h2.48c2.97 0 4.594-2.622 4.594-5.703 0-3.081-1.624-5.704-4.594-5.704m.105 12.636H.577c-.315 0-.577-.313-.577-.687v-12.51c0-.376.262-.667.577-.667h3.161c3.494 0 5.643 3.206 5.643 6.932 0 3.726-2.15 6.932-5.643 6.932M19.023 57.719h-6.97c-.315 0-.577-.313-.577-.687V44.52c0-.374.262-.666.577-.666h6.708c.297 0 .541.27.541.624 0 .355-.244.625-.541.625h-6.149v4.767h3.476c.297 0 .525.27.525.625 0 .353-.228.624-.525.624h-3.476v5.35h6.41c.298 0 .525.27.525.624s-.227.625-.524.625M25.852 57.99c-1.38 0-3.615-.667-4.664-2.103a.757.757 0 0 1-.157-.458c0-.146.035-.27.122-.396.105-.124.228-.208.367-.208.123 0 .263.062.367.167 1.136 1.166 2.515 1.769 3.983 1.769 1.537 0 3.179-.666 3.179-2.56 0-1.54-1.52-2.145-4-3.227-1.59-.687-3.337-1.52-3.337-3.851 0-2.456 1.905-3.518 4.175-3.518 1.45 0 3.057.625 4 1.478a.7.7 0 0 1 .228.521.779.779 0 0 1-.088.332c-.105.167-.262.271-.42.271a.523.523 0 0 1-.296-.104c-1.048-.791-2.061-1.27-3.424-1.27-1.607 0-3.04.687-3.04 2.29s1.59 2.207 3.774 3.122c2.06.854 3.58 1.77 3.58 3.893 0 2.602-1.99 3.851-4.349 3.851M33.66 57.885c-.314 0-.576-.312-.576-.687V44.354c0-.374.262-.686.576-.686.314 0 .559.312.559.686v12.844c0 .375-.245.687-.559.687M47.494 55.2c-1.152 1.831-2.882 2.79-4.75 2.79-3.373 0-5.818-3.394-5.818-7.203 0-3.81 2.445-7.182 5.817-7.182 1.59 0 2.917.666 3.982 1.936.105.125.14.27.14.437 0 .146-.035.313-.122.417a.415.415 0 0 1-.35.166.522.522 0 0 1-.366-.146c-.822-.811-1.817-1.582-3.284-1.582-2.83 0-4.681 2.852-4.681 5.954 0 3.122 1.85 5.974 4.681 5.974 1.572 0 2.935-.79 3.738-2.123v-3.08h-3.214c-.28 0-.507-.292-.507-.625s.227-.604.507-.604h3.79c.315 0 .577.333.577.708v3.705a.815.815 0 0 1-.14.458M58.743 57.885c-.192.02-.332-.062-.437-.25l-6.865-11.49V57.24c0 .354-.262.645-.559.645-.297 0-.541-.291-.541-.645V44.334c0-.333.227-.666.559-.666.192 0 .35.124.436.27 0 0 5.59 9.534 6.848 11.47V44.334c0-.354.245-.666.542-.666.297 0 .559.312.559.666V57.24c0 .354-.245.625-.542.645"/></g></svg>