<svg width="104" height="35" viewBox="0 0 104 35" xmlns="http://www.w3.org/2000/svg"><title>logo_mydoc</title><g fill="#8F9EBC" fill-rule="evenodd"><path d="M99.389 16.842A17.64 17.64 0 0 1 95.093 28.4l2.746 2.751a21.515 21.515 0 0 0 5.421-14.31c0-5.491-2.05-10.502-5.42-14.31l-2.747 2.751a17.637 17.637 0 0 1 4.296 11.559"/><path d="M94.58 16.842c0 3.09-1.087 5.923-2.896 8.143l2.745 2.75a16.702 16.702 0 0 0 4.023-10.893c0-4.16-1.517-7.964-4.023-10.894L91.684 8.7a12.839 12.839 0 0 1 2.896 8.142"/><path d="M89.773 16.842a8.033 8.033 0 0 1-1.518 4.708l2.761 2.766a11.898 11.898 0 0 0 2.628-7.474c0-2.83-.985-5.428-2.628-7.474l-2.761 2.766a8.03 8.03 0 0 1 1.518 4.708M81.73 21.005a4.16 4.16 0 0 1-4.155-4.163 4.16 4.16 0 0 1 4.156-4.164c1.132 0 2.157.456 2.906 1.191l2.749-2.754a8.006 8.006 0 0 0-5.655-2.33c-4.442 0-8.042 3.607-8.042 8.057s3.6 8.058 8.042 8.058c2.205 0 4.202-.89 5.655-2.33l-2.749-2.755a4.134 4.134 0 0 1-2.906 1.19M15.121 8.802a6.161 6.161 0 0 0-4.464 1.912 6.163 6.163 0 0 0-4.465-1.912C2.772 8.802 0 11.579 0 15.006c0 .162.012.321.024.48v9.446h3.407v-9.926a2.764 2.764 0 0 1 2.761-2.767c1.47 0 2.66 1.155 2.746 2.607-.002.054-.009.106-.009.16 0 .054.007.107.009.16.002.108.007.214.015.32v9.446h3.407v-9.446c.008-.106.013-.212.016-.32.002-.053.008-.106.008-.16 0-.054-.006-.106-.008-.16a2.756 2.756 0 0 1 2.745-2.607 2.764 2.764 0 0 1 2.762 2.767v9.926h3.406v-9.446c.012-.159.024-.318.024-.48 0-3.427-2.772-6.204-6.192-6.204M63.954 20.959a4.104 4.104 0 0 1-4.1-4.108 4.104 4.104 0 0 1 4.1-4.108c2.265 0 4.1 1.84 4.1 4.108a4.104 4.104 0 0 1-4.1 4.108m0-12.157c-4.436 0-8.033 3.604-8.033 8.049 0 4.445 3.597 8.049 8.033 8.049s8.034-3.604 8.034-8.05c0-4.444-3.598-8.048-8.034-8.048M46.09 20.959a4.104 4.104 0 0 1-4.1-4.108 4.105 4.105 0 0 1 4.1-4.108c2.264 0 4.1 1.84 4.1 4.108a4.104 4.104 0 0 1-4.1 4.108zM50.19.205V9.93a7.979 7.979 0 0 0-4.1-1.128c-4.437 0-8.033 3.604-8.033 8.049 0 4.445 3.596 8.049 8.033 8.049 4.436 0 8.032-3.604 8.032-8.05V.206h-3.933zM35.872 8.802h-3.406v9.929c0 .632-.221 1.207-.577 1.673a2.745 2.745 0 0 1-2.185 1.091 2.753 2.753 0 0 1-2.573-1.788 2.742 2.742 0 0 1-.188-.979V8.802h-3.406v9.446a6.191 6.191 0 0 0-.024.48c0 .848.17 1.656.478 2.392a6.226 6.226 0 0 0 2.15 2.677 6.157 6.157 0 0 0 6.325.479v2.718a3.971 3.971 0 0 1-3.967 3.969V34.4c3.773 0 6.88-2.832 7.335-6.49 0 0 .038-.547.038-1.409V8.802z"/></g></svg>