<svg width="112" height="27" viewBox="0 0 112 27" xmlns="http://www.w3.org/2000/svg"><title>logo_yahoo</title><g fill="#8F9EBC" fill-rule="evenodd"><path d="M66.62 22.467c-4.834 0-7.674-3.478-7.674-9.345 0-6.636 3.5-9.307 7.476-9.388.063-.002.127 0 .19 0 4.435 0 7.692 3.033 7.692 9.37 0 6.33-3.253 9.363-7.683 9.363m-.022-19.982c-7.252 0-11.057 4.617-11.057 10.602 0 6.552 4.154 10.547 11.047 10.547 7.452 0 11.09-4.503 11.09-10.478 0-6.662-4.345-10.671-11.08-10.671M82.308 12.974c0-8.063 4.938-10.448 9.337-10.448 5.424 0 9.418 3.308 9.418 10.604 0 7.932-4.832 10.504-9.41 10.504-4.89 0-9.345-2.882-9.345-10.66m9.329-11.73c-7.223 0-12.743 4.119-12.743 11.775 0 6.308 3.672 11.86 12.802 11.86 7.73 0 12.777-4.268 12.777-11.749 0-7.054-4.708-11.885-12.836-11.885M11.692 14.983c2.85-5.021 7.555-13.214 8.847-14.966l-.002.001.001-.001c-1.231.28-2.342.29-3.445 0-.972 1.817-4.556 7.699-6.837 11.465L3.419.017C2.004.32 1.412.339 0 .017c2.802 4.24 7.293 12.315 8.82 14.966l-.205 11.053s.985-.166 1.644-.166c.73 0 1.638.166 1.638.166l-.205-11.053zM29.195 15.88c-2.424.084-4.848.085-7.273 0h-.002c1.484-3.779 2.893-7.424 3.636-9.573 1.134 3.173 2.38 6.37 3.647 9.575l-.008-.003zm6.358 7.474C33.497 19.5 29.372 9.417 26.751 2.756h-.003l.003-.001c-.851.299-1.545.282-2.38.001l-.004-.002c-2.753 6.937-5.925 14.766-8.778 20.605v.002l.012-.005c-.004 0-.007.002-.011.003l.022-.008-.011.005c1.304-.325 2.549-.224 3.372 0l-.006-.004.005.002c.727-1.845 1.555-3.936 2.384-6.04l.004.003c2.803-.08 5.606-.09 8.41 0 .797 2.012 1.596 4.028 2.376 6.044a7 7 0 0 1 3.41-.006l-.003-.001zM54.556 2.763a7.184 7.184 0 0 1-3.42 0c.167 3.201.256 6.405.267 9.612a235.4 235.4 0 0 1-11.466 0c.011-3.206.1-6.41.266-9.612a7.184 7.184 0 0 1-3.419 0c.298 6.877.272 13.741 0 20.596a7.179 7.179 0 0 1 3.415 0l-.007-.004.011.004a194.493 194.493 0 0 1-.267-9.58h.001c3.823-.053 7.645-.055 11.467-.004-.011 3.192-.099 6.387-.267 9.584l.011-.004-.007.004a7.178 7.178 0 0 1 3.415 0c-.272-6.855-.298-13.719 0-20.596M110.567.317l-.001.002V.317s-.212-.03-.356-.03c-.82 0-1.634.484-1.634 1.72-.487 6.198-.994 12.415-1.827 18.33l-.004.003h.007c.504-.088.895.045 1.275.198l-.002-.003c.946-6.008 3.194-15.007 3.769-17.554.083-.358.206-.782.206-1.083 0-.909-.574-1.437-1.433-1.58M106.643 22.827c-1.075 0-1.612.824-1.612 1.71 0 1.044.83 1.58 1.858 1.58.743 0 1.554-.454 1.554-1.684 0-.987-.77-1.606-1.8-1.606"/></g></svg>