<svg width="159" height="38" viewBox="0 0 159 38" xmlns="http://www.w3.org/2000/svg"><title>logo_barcamp</title><g fill="none" fill-rule="evenodd"><path d="M32.85 19.166c-.092-.618-.195-1.492-.356-2.355-.24-1.284-.807-2.442-1.482-3.546-.249-.406-.603-.646-1.109-.519-.402.1-.544.41-.548.783-.006.357.18.655.358.956.916 1.55 1.383 3.212 1.35 5.029-.033 1.81-.508 3.46-1.469 4.995-.295.471-.596 1.122.041 1.513.632.388 1.07-.032 1.444-.61 1.182-1.828 1.621-3.858 1.772-6.246m3.935.435c-.01-3.052-.746-5.84-2.367-8.374-.317-.497-.67-1.021-1.345-.586-.669.431-.45.95-.09 1.533 2.13 3.452 2.59 7.152 1.526 11.053-.375 1.378-1.006 2.637-1.794 3.825-.264.4-.36.857.107 1.164.438.287.907.24 1.272-.185.142-.165.257-.357.373-.544a15.12 15.12 0 0 0 2.318-7.886m3.824-.075c.028-3.541-1.219-7.844-3.038-10.465-.338-.484-.722-.992-1.373-.517-.582.426-.387.94-.062 1.491 3.718 6.284 3.718 12.566-.074 18.822-.33.545-.663 1.09-.017 1.576.72.543 1.06-.128 1.433-.573.16-.19.279-.418.407-.635 1.774-2.99 2.644-6.234 2.724-9.7M0 20.3c1.05.068 1.925.177 2.799.17 2.196-.018 3.51-1.31 3.596-3.511.032-.817-.025-1.639.008-2.456.088-2.253 1.54-3.302 3.699-2.667 1.585.467 3 1.275 4.328 2.247.66.481 1.309.977 2.057 1.331 2.347 1.114 4.291.252 4.909-2.286.51-2.101-.14-4.981-2.52-5.747-1.38-.445-2.723-.333-4.097-.035-.29.062-.652.342-.887.092-.286-.301.056-.65.18-.941 1.611-3.836 3.63-4.658 7.47-3.088 1.448.592 2.776 1.473 4.32 1.843 1.095.263 2.172.405 3.16-.349.838-.64.859-1.419.042-2.109-1.155-.972-2.503-1.636-4.056-2.446 2.718-.54 5.15-.492 7.514.44 4.342 1.711 6.766 5.174 8.321 9.353 1.767 4.747 2.017 9.651 1.06 14.588-.755 3.9-2.292 7.46-5.416 10.118-2.668 2.27-5.774 3.057-9.23 2.658-2.757-.319-5.313-1.209-7.98-2.614 1.341-.096 2.461.02 3.544-.26 1.588-.407 3.047-1.03 3.89-2.549 1.008-1.818.252-3.176-1.827-3.324-1.574-.113-3.03.457-4.534.772-2.439.51-4.895.977-7.298-.192-.607-.295-1.095-.718-1.506-1.399.489-.117.933-.215 1.371-.334 2.178-.59 3.502-2.403 2.921-4.332-.607-2.017-1.98-3.498-4.052-4.09-1.45-.415-2.6.19-3.508 1.412-1.163 1.568-2.631 2.68-4.738 2.207C2.112 22.482 1.03 21.577 0 20.3" fill="#A9CE3C"/><path d="M58.621 21.365c.035-2.413-1.543-4.179-3.759-4.208-2.252-.029-3.87 1.664-3.897 4.078-.027 2.441 1.504 4.156 3.756 4.206 2.216.048 3.866-1.675 3.9-4.076m-7.549-5.68c1.98-1.719 4.048-2.307 6.326-1.58 2.798.895 4.319 2.973 4.728 5.813.425 2.96-.3 5.588-2.755 7.506-2.372 1.853-5.26 1.839-7.686.045-.15-.11-.306-.21-.453-.311-.064.062-.145.107-.14.137.188 1.012-.318 1.163-1.207 1.141-2.405-.058-2.407-.018-2.407-2.39 0-5.484.012-10.968-.017-16.45-.004-.698.16-.968.885-.891.869.091 2.006-.352 2.552.167.554.527.147 1.668.166 2.54.03 1.344.008 2.69.008 4.272M74.592 21.221c.035-2.289-1.577-4.018-3.792-4.07-2.166-.051-3.835 1.666-3.872 3.982-.04 2.49 1.502 4.265 3.742 4.306 2.325.043 3.884-1.635 3.922-4.218m-.166 6.074c-.304-.114-.427.083-.556.187-3.33 2.732-8.946 1.184-10.277-4.016-.74-2.893-.259-5.634 1.99-7.853 2.152-2.123 5.598-2.393 8.055-.615l.645.468c.24-.132.185-.316.164-.45-.106-.664.158-.898.822-.823.897.102 2.064-.386 2.628.196.514.53.141 1.68.145 2.556.012 3.529-.014 7.058.021 10.589.007.697-.16.982-.886.892a6.262 6.262 0 0 0-1.416 0c-.883.092-1.573.006-1.335-1.131" fill="#506F47"/><path d="M122.383 16.262c1.314-1.478 2.837-2.564 4.884-2.417 2.023.146 3.51 1.121 4.218 3.147.487-.234.602-.697.852-1.028 1.67-2.217 4.924-2.821 7.088-1.306 1.291.905 1.859 2.215 1.978 3.708.25 3.112.088 6.235.128 9.352.008.546-.18.86-.77.757-.5-.087-1.16.152-1.146-.808.036-2.677-.008-5.356-.02-8.034-.001-.094-.001-.19-.005-.283-.094-2.16-.755-3.152-2.394-3.59-1.487-.397-3.375.427-4.326 1.862-.65.983-.868 2.089-.893 3.227-.05 2.236-.076 4.474-.038 6.71.014.828-.395.922-1.04.94-.665.019-.854-.26-.854-.904 0-2.928.115-5.86-.146-8.783-.106-1.188-.517-2.2-1.673-2.76-1.743-.846-4.057-.07-5.062 1.677-.787 1.368-.88 2.873-.9 4.387-.026 1.828-.032 3.656.01 5.483.016.669-.22.916-.863.883-.602-.032-1.116.05-1.103-.906.058-4.19.043-8.38.008-12.571-.007-.713.255-.848.874-.813.551.03 1.117-.078 1.009.786-.047.37-.008.75-.008 1.124.063.055.128.107.192.16M151.18 15.699c-3.245 0-5.599 2.449-5.596 5.822.001 3.01 2.506 5.52 5.526 5.54 3.052.02 5.622-2.58 5.618-5.68-.005-3.178-2.45-5.682-5.548-5.682zm-7.434 8.18c0-2.96.024-5.92-.017-8.878-.01-.726.295-.857.896-.81.54.043 1.22-.148 1.096.8-.023.186-.01.377-.004.566.008.182-.051.405.143.51.262.144.396-.094.542-.244 3.505-3.578 9.778-2.252 11.8 2.732 1.172 2.892.103 6.71-2.366 8.698-2.66 2.142-6.854 1.875-8.927.036-.31-.275-.673-.825-1.036-.657-.395.181-.145.797-.15 1.218-.023 1.635-.047 3.275.006 4.91.028.852-.423.866-1.06.88-.667.016-.968-.135-.94-.883.057-1.477.02-2.96.02-4.44V23.88h-.003zM116.304 21.489c-.02-3.467-2.33-5.81-5.71-5.792-3.046.017-5.49 2.598-5.469 5.781.019 3.012 2.622 5.596 5.619 5.58 3.136-.018 5.579-2.464 5.56-5.57m1.797-.176c0 2.077-.057 4.157.025 6.232.04.985-.586.85-1.14.919-.727.09-.845-.361-.798-.942.006-.094.01-.19-.003-.283-.033-.235.106-.555-.185-.673-.284-.114-.434.19-.61.35-2.24 2.008-4.8 2.373-7.543 1.335-2.675-1.013-4.182-3.084-4.572-5.86-.57-4.07 1.86-7.548 5.853-8.413 2.348-.51 4.492.034 6.273 1.741.19.184.352.546.673.397.327-.15.12-.497.122-.764.001-.367-.183-.853.186-1.05.44-.234.992-.16 1.478-.045.373.088.242.465.242.727.01 2.11.006 4.22.006 6.329h-.007M96.378 28.78c-3.615.004-6.042-1.265-7.451-3.959-1.534-2.929-1.134-5.848 1.032-8.353 2.078-2.402 4.836-3.041 7.885-2.458 1.7.324 3.252.99 4.311 2.469.198.277.686.607.089.883-.455.212-.864 1.005-1.524.258-1.14-1.29-2.591-1.905-4.31-2.015-2.554-.163-4.471.902-5.709 3.056-1.18 2.056-.919 4.15.456 6.033 1.387 1.9 3.379 2.538 5.66 2.308 1.458-.147 2.699-.787 3.731-1.84.56-.57 1.156-.531 1.787.184.478.545-.167.852-.434 1.123-1.666 1.683-3.734 2.364-5.523 2.311" fill="#A9CE3C"/><path d="M83.3 15.572c1.36-1.55 2.57-2.018 3.855-1.605.441.141.654.296.425.79-.198.425-.33.881-.482 1.327-.226.66-.308 1.421-1.391.977-.507-.207-.931.242-1.245.668-.551.748-.67 1.634-.689 2.51-.05 2.392-.066 4.786-.031 7.179.012.748-.129 1.101-.962 1.015-.838-.087-1.963.255-2.46-.173-.58-.503-.178-1.657-.184-2.526-.024-3.558.012-7.118-.028-10.676-.008-.726.208-.965.9-.865.278.04.568.027.85 0 .916-.083 1.78-.124 1.442 1.38" fill="#506F47"/></g></svg>