<svg width="128" height="31" viewBox="0 0 128 31" xmlns="http://www.w3.org/2000/svg"><title>logo_barcamp</title><g fill="none" fill-rule="evenodd"><path d="M27.08 15.333c-.073-.494-.156-1.193-.285-1.884-.191-1.027-.645-1.954-1.186-2.837-.199-.325-.482-.517-.886-.415-.322.08-.436.328-.44.626-.003.286.145.524.287.765.734 1.24 1.107 2.57 1.08 4.023-.026 1.448-.406 2.768-1.175 3.997-.236.376-.477.897.033 1.21.506.31.856-.026 1.155-.488.946-1.463 1.297-3.087 1.418-4.997m3.148.348c-.009-2.442-.597-4.672-1.894-6.7-.254-.397-.536-.816-1.075-.468-.536.345-.36.76-.072 1.226 1.704 2.762 2.072 5.722 1.22 8.842-.3 1.103-.805 2.11-1.435 3.06-.212.32-.288.686.086.932.35.23.725.192 1.017-.148.113-.133.205-.286.298-.435a12.096 12.096 0 0 0 1.855-6.31m3.06-.06c.021-2.832-.976-6.275-2.432-8.371-.27-.387-.577-.794-1.098-.414-.465.34-.31.752-.05 1.193 2.975 5.027 2.975 10.053-.059 15.058-.264.436-.53.871-.014 1.26.577.434.849-.102 1.147-.458.128-.153.223-.335.326-.508 1.419-2.392 2.115-4.987 2.18-7.76m-32.49.62c.84.053 1.54.141 2.24.135 1.757-.014 2.807-1.049 2.877-2.809.026-.654-.02-1.31.007-1.964.07-1.803 1.232-2.642 2.958-2.134 1.269.374 2.4 1.02 3.463 1.797.528.385 1.047.782 1.646 1.066 1.878.89 3.433.2 3.927-1.83.408-1.68-.112-3.984-2.016-4.597-1.104-.356-2.179-.266-3.278-.028-.232.05-.521.274-.71.074-.228-.242.046-.52.144-.754 1.29-3.068 2.905-3.725 5.976-2.47 1.16.474 2.221 1.179 3.456 1.475.877.21 1.738.324 2.528-.28.67-.511.688-1.134.034-1.687-.923-.777-2.002-1.308-3.244-1.957 2.173-.431 4.119-.393 6.01.353 3.474 1.369 5.413 4.14 6.657 7.482 1.414 3.798 1.614 7.721.849 11.67-.604 3.12-1.835 5.969-4.333 8.095-2.135 1.815-4.62 2.446-7.385 2.126-2.205-.255-4.25-.967-6.383-2.091 1.073-.076 1.969.016 2.835-.208 1.27-.325 2.437-.824 3.112-2.04.806-1.454.201-2.54-1.462-2.659-1.259-.09-2.424.366-3.627.618-1.95.407-3.916.782-5.838-.153-.486-.236-.876-.575-1.205-1.12.391-.094.746-.172 1.097-.267 1.742-.472 2.8-1.922 2.336-3.466-.485-1.613-1.583-2.798-3.24-3.271-1.161-.333-2.082.152-2.807 1.13-.931 1.254-2.105 2.142-3.79 1.765-1.143-.255-2.01-.98-2.834-2.002" fill="#BFC9DB"/><path d="M47.697 17.092c.028-1.93-1.234-3.343-3.007-3.366-1.802-.024-3.097 1.33-3.118 3.262-.022 1.953 1.203 3.325 3.005 3.365 1.772.038 3.093-1.34 3.12-3.261m-6.04-4.545c1.585-1.374 3.239-1.845 5.062-1.263 2.238.716 3.455 2.378 3.781 4.65.341 2.369-.24 4.471-2.203 6.005-1.898 1.483-4.208 1.471-6.15.036-.119-.088-.244-.168-.361-.249-.052.05-.116.086-.112.11.15.81-.255.93-.966.913-1.924-.046-1.925-.015-1.925-1.912 0-4.387.01-8.774-.014-13.16-.003-.559.128-.774.708-.713.695.073 1.604-.281 2.041.133.444.422.118 1.335.134 2.032.024 1.076.006 2.152.006 3.418M60.474 16.977c.027-1.831-1.262-3.215-3.034-3.256-1.733-.041-3.068 1.333-3.097 3.185-.032 1.993 1.201 3.413 2.993 3.445 1.86.034 3.107-1.308 3.138-3.374m-.133 4.859c-.244-.091-.342.066-.445.15-2.665 2.185-7.157.947-8.221-3.213-.593-2.314-.208-4.507 1.592-6.282 1.72-1.7 4.478-1.915 6.443-.492l.516.374c.193-.106.148-.253.131-.36-.084-.532.127-.719.658-.659.718.082 1.652-.308 2.102.157.412.424.114 1.343.117 2.045.01 2.823-.012 5.647.017 8.471.005.558-.128.786-.71.714a5.01 5.01 0 0 0-1.132 0c-.707.073-1.259.004-1.068-.905" fill="#8F9EBC"/><path d="M98.706 13.01c1.052-1.183 2.27-2.051 3.908-1.934 1.618.116 2.807.897 3.374 2.518.39-.187.482-.558.682-.823 1.336-1.773 3.939-2.257 5.67-1.044 1.033.723 1.487 1.772 1.582 2.966.2 2.489.071 4.988.103 7.481.006.437-.144.689-.617.606-.399-.07-.927.122-.916-.646.029-2.142-.006-4.286-.016-6.428-.001-.075-.001-.15-.004-.226-.075-1.729-.604-2.522-1.915-2.872-1.19-.317-2.7.342-3.461 1.49-.52.786-.694 1.67-.714 2.582-.04 1.788-.062 3.578-.03 5.367.01.662-.317.737-.833.752-.531.015-.683-.207-.683-.723 0-2.342.092-4.688-.117-7.027-.085-.95-.414-1.759-1.338-2.207-1.395-.677-3.246-.056-4.05 1.341-.63 1.095-.704 2.299-.72 3.51-.02 1.462-.026 2.925.008 4.386.013.535-.176.733-.69.706-.482-.025-.893.04-.883-.724.047-3.352.035-6.705.007-10.057-.006-.57.204-.678.699-.65.441.024.894-.063.807.629-.037.296-.006.6-.006.899l.153.128M121.744 12.56c-2.596 0-4.479 1.958-4.477 4.657.001 2.408 2.005 4.415 4.42 4.431 2.442.016 4.499-2.063 4.496-4.543-.005-2.542-1.96-4.546-4.44-4.546zm-5.947 6.543c0-2.367.019-4.736-.014-7.102-.007-.581.236-.686.717-.648.432.034.975-.118.877.64-.019.148-.008.302-.003.453.006.145-.041.324.114.408.21.115.316-.076.434-.195 2.803-2.863 7.822-1.802 9.44 2.185.937 2.314.082 5.369-1.893 6.959-2.128 1.713-5.483 1.5-7.142.028-.247-.22-.538-.66-.828-.526-.317.145-.117.638-.12.975-.019 1.308-.038 2.62.004 3.928.023.682-.338.692-.848.704-.533.013-.774-.108-.752-.707.045-1.181.016-2.367.017-3.55v-3.552h-.003zM93.843 17.191c-.016-2.774-1.864-4.648-4.567-4.633-2.438.013-4.393 2.078-4.376 4.625.015 2.41 2.098 4.476 4.495 4.464 2.51-.015 4.463-1.972 4.448-4.456m1.438-.142c0 1.662-.046 3.326.02 4.986.032.788-.469.68-.912.735-.582.073-.676-.289-.639-.753a1.079 1.079 0 0 0-.002-.226c-.026-.189.085-.445-.148-.539-.227-.09-.347.152-.488.28-1.792 1.606-3.84 1.898-6.035 1.068-2.14-.81-3.345-2.467-3.657-4.689-.457-3.255 1.488-6.038 4.682-6.73 1.88-.407 3.594.028 5.019 1.394.152.147.281.436.538.317.262-.12.097-.398.098-.612 0-.293-.146-.682.149-.84.35-.187.793-.127 1.182-.035.299.07.194.372.194.581.007 1.688.004 3.376.004 5.063h-.005M77.902 23.024c-2.892.003-4.833-1.012-5.96-3.167-1.228-2.343-.907-4.679.825-6.682 1.662-1.923 3.869-2.433 6.308-1.967 1.36.26 2.602.791 3.449 1.975.159.222.549.486.07.707-.363.169-.69.804-1.218.206-.912-1.032-2.073-1.524-3.447-1.612-2.044-.13-3.578.721-4.568 2.445-.945 1.644-.735 3.32.365 4.826 1.11 1.52 2.703 2.03 4.527 1.846 1.167-.117 2.16-.629 2.986-1.471.447-.456.924-.425 1.429.147.383.436-.133.681-.347.898-1.333 1.347-2.987 1.892-4.419 1.85" fill="#BFC9DB"/><path d="M67.44 12.458c1.088-1.241 2.057-1.614 3.084-1.284.353.113.523.237.34.631-.158.34-.264.706-.386 1.062-.18.528-.246 1.137-1.113.782-.405-.166-.744.194-.995.534-.441.599-.536 1.308-.551 2.008-.04 1.914-.053 3.83-.026 5.743.01.599-.102.881-.769.812-.67-.07-1.57.205-1.967-.138-.466-.402-.143-1.326-.148-2.02-.02-2.847.01-5.695-.023-8.542-.006-.58.167-.772.72-.692.223.032.455.022.68 0 .733-.066 1.425-.099 1.154 1.104" fill="#8F9EBC"/></g></svg>