<svg width="130" height="43" viewBox="0 0 130 43" xmlns="http://www.w3.org/2000/svg" xmlns:xlink="http://www.w3.org/1999/xlink"><title>logo_experience_mydoc</title><defs><path id="a" d="M10.42.137v35.775H.213V.137H10.42z"/></defs><g fill="none" fill-rule="evenodd"><g transform="translate(118.655 3.028)"><mask id="b" fill="#fff"><use xlink:href="#a"/></mask><path d="M5.581 18.024a22.05 22.05 0 0 1-5.37 14.449l3.433 3.44a26.894 26.894 0 0 0 6.777-17.889A26.893 26.893 0 0 0 3.644.137L.212 3.576a22.047 22.047 0 0 1 5.37 14.448" fill="#233E6D" mask="url(#b)"/></g><path d="M118.225 21.052c0 3.862-1.358 7.405-3.62 10.179l3.432 3.439a20.877 20.877 0 0 0 5.028-13.618c0-5.2-1.896-9.955-5.028-13.617l-3.432 3.44a16.049 16.049 0 0 1 3.62 10.177" fill="#859CC5"/><path d="M112.216 21.052c0 2.198-.705 4.23-1.897 5.885l3.452 3.459a14.872 14.872 0 0 0 3.284-9.344c0-3.537-1.231-6.785-3.284-9.342l-3.453 3.458a10.037 10.037 0 0 1 1.898 5.884" fill="#C8D0E1"/><path d="M102.163 26.257a5.2 5.2 0 0 1-5.194-5.204 5.2 5.2 0 0 1 5.194-5.205 5.17 5.17 0 0 1 3.633 1.488l3.436-3.443a10.008 10.008 0 0 0-7.069-2.912c-5.551 0-10.052 4.51-10.052 10.072 0 5.563 4.5 10.072 10.052 10.072a10.01 10.01 0 0 0 7.069-2.912l-3.436-3.444a5.168 5.168 0 0 1-3.633 1.488" fill="#233E6D"/><path d="M18.902 11.002c-2.195 0-4.172.92-5.58 2.39a7.703 7.703 0 0 0-5.582-2.39c-4.274 0-7.74 3.472-7.74 7.755 0 .203.015.402.03.6v11.809h4.258V18.757A3.455 3.455 0 0 1 7.74 15.3c1.838 0 3.326 1.443 3.432 3.258-.002.068-.01.133-.01.2 0 .068.008.134.01.2.003.135.01.269.02.4V31.167h4.257V19.358a8.24 8.24 0 0 0 .021-.4c.002-.067.01-.133.01-.2 0-.068-.008-.133-.01-.2.106-1.816 1.594-3.259 3.432-3.259a3.455 3.455 0 0 1 3.451 3.458v12.409h4.258V19.358c.015-.199.03-.398.03-.6 0-4.284-3.465-7.756-7.74-7.756" fill="#B4B4B4"/><path d="M79.942 26.199a5.13 5.13 0 0 1-5.124-5.135 5.13 5.13 0 0 1 5.124-5.135 5.13 5.13 0 0 1 5.126 5.135 5.13 5.13 0 0 1-5.126 5.135m0-15.196c-5.545 0-10.04 4.504-10.04 10.06 0 5.557 4.495 10.062 10.04 10.062 5.546 0 10.042-4.505 10.042-10.061 0-5.557-4.496-10.061-10.042-10.061M57.612 26.199a5.13 5.13 0 0 1-5.126-5.135 5.13 5.13 0 0 1 5.126-5.135 5.13 5.13 0 0 1 5.125 5.135 5.13 5.13 0 0 1-5.125 5.135zM62.737.256v12.157a9.973 9.973 0 0 0-5.125-1.41c-5.545 0-10.041 4.504-10.041 10.06 0 5.557 4.496 10.062 10.04 10.062 5.546 0 10.041-4.505 10.041-10.061V.256h-4.915z" fill="#233E6D"/><path d="M44.84 11.003h-4.258V23.414c0 .79-.276 1.51-.721 2.091a3.432 3.432 0 0 1-2.73 1.364 3.442 3.442 0 0 1-3.218-2.235 3.427 3.427 0 0 1-.234-1.224V11.002h-4.258V22.81c-.015.199-.03.397-.03.6 0 1.06.214 2.07.598 2.99a7.783 7.783 0 0 0 2.687 3.346 7.696 7.696 0 0 0 4.455 1.42 7.696 7.696 0 0 0 3.451-.822v3.399a4.964 4.964 0 0 1-4.958 4.96V43c4.716 0 8.6-3.54 9.168-8.112 0 0 .048-.685.048-1.761V11.003z" fill="#B4B4B4"/></g></svg>