<svg width="139" height="47" viewBox="0 0 139 47" xmlns="http://www.w3.org/2000/svg"><title>logo_experience_hungrygowhere</title><g fill="none" fill-rule="evenodd"><path fill="#231F1F" d="M94.03 25.826h-4.548l-1.59 7.087h-.088l-1.523-7.087h-4.084l-1.458 7.087h-.044l-1.7-7.087h-4.548l3.576 11.458h4.482l1.7-7.044h.044l1.657 7.044h4.48zM118.116 32.538c0-4.461-1.965-7-6.512-7-3.622 0-6.05 2.716-6.05 6.05 0 3.821 2.76 5.983 6.424 5.983 2.606 0 5.013-1.147 5.895-3.62h-4.083c-.355.551-1.127.818-1.833.818-1.37 0-2.121-.928-2.231-2.231h8.39zm-8.368-2.273c.2-1.237.95-1.922 2.253-1.922 1.126 0 1.92.862 1.92 1.922h-4.173zM139 32.538c0-4.461-1.964-7-6.514-7-3.621 0-6.048 2.716-6.048 6.05 0 3.821 2.759 5.983 6.424 5.983 2.605 0 5.013-1.147 5.895-3.62h-4.086c-.353.551-1.124.818-1.831.818-1.37 0-2.12-.928-2.231-2.231H139zm-8.368-2.273c.199-1.237.95-1.922 2.252-1.922 1.126 0 1.92.862 1.92 1.922h-4.172z"/><path d="M101.242 35.782l.028-4.501c0-1.327-.156-2.254-1.435-2.254-.75 0-1.745.376-1.745 2.208v6.05h-4.37V24.7c2.478-.32 3.742-1.417 4.38-2.716l.034 5.078c.75-.884 1.723-1.524 3.578-1.524 2.053 0 3.929 1.257 3.929 3.886v7.86h-2.897c-.83 0-1.502-.672-1.502-1.503M119.83 25.826c-.829 0-1.501.673-1.501 1.504v9.954h4.372v-4.526c0-2.45.927-3.465 2.648-3.465.884 0 1.281.132 1.722.287v-3.865a4.99 4.99 0 0 0-1.281-.176c-1.588 0-2.515.751-3.222 2.119l-.045-1.832h-2.692zM61.122 25.826h-4.37v1.391h-.045c-.508-1.17-1.723-1.678-3.004-1.678-3.267 0-4.966 2.495-4.966 5.477 0 3.067 1.524 5.585 4.901 5.585 1.303 0 2.362-.574 3.07-1.591h.044v1.06c0 .95-.31 2.626-1.723 2.626-.552 0-1.016-.44-1.281-.837-.09-.133-.199-.287-.243-.397h-4.327c.398 3.091 3.268 3.82 5.984 3.82 5.364 0 5.96-3.203 5.96-5.476v-9.98zm-8.015 5.167c0-1.215.619-2.275 1.855-2.275 1.281 0 1.9.994 1.9 2.252 0 1.28-.177 2.827-1.79 2.827-1.567 0-1.965-1.503-1.965-2.804z" fill="#231F1F"/><path d="M69.113 31.545c0 1.214-.22 2.848-1.875 2.848-1.658 0-1.879-1.634-1.879-2.848 0-1.215.221-2.826 1.879-2.826 1.656 0 1.875 1.611 1.875 2.826m4.373 0c0-3.18-1.943-6.006-6.248-6.006-4.306 0-6.25 2.827-6.25 6.006 0 3.18 1.944 6.026 6.25 6.026 4.305 0 6.248-2.846 6.248-6.026" fill="#231F1F"/><path d="M25.654 16.894c-2.623 0-3.999.906-5.061 2.158l-.063-9.095h-4.058a2.128 2.128 0 0 0-2.127 2.129v21.43h6.185v-8.561c0-2.593 1.407-3.125 2.468-3.125 1.813 0 2.032 1.312 2.032 3.186l-.04 6.373c0 1.174.951 2.127 2.125 2.127h4.1V22.394c0-3.719-2.655-5.5-5.561-5.5M44.496 40.409a3.6 3.6 0 1 0-5.088 5.09 3.6 3.6 0 0 0 5.088-5.09" fill="#E82C2E"/><path d="M40.453 37.478l-1.187-1.19c7.052-8.662 6.54-21.434-1.531-29.504-8.616-8.618-22.587-8.618-31.204 0-8.617 8.616-8.617 22.586 0 31.2a22 22 0 0 0 15.599 6.464l.001-4.563c-4.478 0-8.957-1.71-12.373-5.125-6.836-6.835-6.836-17.918 0-24.752 6.835-6.834 17.915-6.834 24.75 0 6.835 6.834 6.835 17.917 0 24.752l-1.612 1.613 2.828 2.826a2.12 2.12 0 0 0 3.005 0l1.724-1.721zM56.26 18.61c0 .83.673 1.502 1.502 1.502h2.897v-7.86c0-2.628-1.877-3.885-3.93-3.885-1.854 0-2.825.639-3.576 1.524l-.045-6.427H50.24c-.83 0-1.503.674-1.503 1.505v15.143h4.372v-6.05c0-1.831.995-2.206 1.745-2.206 1.281 0 1.434.926 1.434 2.252l-.027 4.502zM62.78 8.655c-.83 0-1.502.672-1.502 1.502v6.357c0 2.627 1.877 3.886 3.93 3.886 1.744 0 2.915-.596 3.73-1.745l.045 1.456H73.2V8.655h-4.37v6.049c0 1.832-.994 2.207-1.747 2.207-1.278 0-1.434-.928-1.434-2.252V8.655H62.78zM81.425 18.61c0 .83.674 1.502 1.503 1.502h2.869v-7.86c0-2.628-1.877-3.885-3.929-3.885-1.745 0-2.915.596-3.733 1.745l-.043-1.457h-2.716c-.828 0-1.502.672-1.502 1.501v9.956h4.372v-6.05c0-1.831.993-2.206 1.745-2.206 1.28 0 1.434.926 1.434 2.252v4.502zM100.281 8.655c-.83 0-1.503.672-1.503 1.502v9.954h4.372v-4.525c0-2.45.928-3.465 2.65-3.465.883 0 1.28.132 1.722.288V8.544c-.42-.11-.84-.178-1.28-.178-1.59 0-2.517.753-3.224 2.12l-.046-1.831h-2.691zM108.823 22.32c0 .829.67 1.503 1.5 1.503h.73c1.624-.002 3.277-.046 4.37-1.413.685-.863 1.081-2.165 1.437-3.18l3.797-10.576h-4.528l-1.853 6.58-1.877-6.58h-4.68l1.941 5.275c.244.664 1.922 4.881 1.922 5.433 0 .508-.154.728-.42.862-.31.153-.883.109-1.324.109h-1.015v1.988z" fill="#E82C2E"/><path d="M98.095 8.655h-4.372v1.389h-.044c-.507-1.17-1.722-1.678-3.003-1.678-3.267 0-4.966 2.495-4.966 5.478 0 3.067 1.522 5.583 4.9 5.583 1.303 0 2.363-.572 3.069-1.589h.044v1.06c0 .95-.308 2.629-1.721 2.629-.552 0-1.016-.444-1.281-.84-.088-.133-.199-.287-.243-.398H86.15c.397 3.092 3.269 3.822 5.984 3.822 5.365 0 5.961-3.203 5.961-5.477v-9.98zm-8.013 5.165c0-1.214.617-2.274 1.853-2.274 1.281 0 1.898.995 1.898 2.252 0 1.28-.177 2.827-1.787 2.827-1.568 0-1.964-1.502-1.964-2.805z" fill="#E82C2E"/></g></svg>