<svg width="120" height="25" viewBox="0 0 120 25" xmlns="http://www.w3.org/2000/svg"><title>logo_designmodo</title><g fill="#8F9EBC" fill-rule="evenodd"><path d="M78.399 6.67c-1.55-.344-3.102-.13-4.587.63-.28.144-.644.347-.774.423a.136.136 0 0 1-.138-.001l-.077-.045c-.168-.1-.463-.276-.637-.373a6.823 6.823 0 0 0-3.408-.912c-1.05 0-1.725.241-1.732.244-.007.003-.813.314-1.463.59a.138.138 0 0 1-.104.001l-1.95-.781.006 11.71L66 19.502v-8.637c.043-1.742 1.04-2.7 2.803-2.7 1.591 0 2.51.98 2.522 2.688l-.003 7.163 2.57 1.393.008-8.528c-.013-1.588.786-2.492 2.374-2.686 1.763-.217 2.85.693 2.927 2.423l-.004 7.423 2.614 1.461.008-8.752c-.034-2.33-1.057-3.552-3.421-4.08M45.895 22.872c-.317.08-.645.109-.936.134-.119.008-.23.018-.314.032-.195-.014-.346-.02-.492-.025a5.14 5.14 0 0 1-.837-.083c-1.055-.23-2.247-.487-2.215-1.872.032-1.504 1.196-1.728 2.45-1.747l.064-.001c.276-.005.548-.009.822-.009.512 0 .922.014 1.29.048 1.265.106 1.93.618 2.033 1.566.132 1.204-.65 1.653-1.865 1.957M42.93 8.758c.436-.436 1.055-.657 1.84-.657H44.872c1.705.043 2.5.966 2.501 2.905.001.998-.206 1.722-.633 2.21-.429.491-1.061.73-1.935.73l-.093-.002c-1.671-.032-2.519-1.005-2.525-2.891-.004-1.024.245-1.796.743-2.295m6.146 9.731c-.9-.695-2.018-1.022-3.52-1.034h-.102l-.434.003-.125.003c-.743.006-1.528.008-2.286-.308-.566-.237-1.294-.65-1.074-1.493.1-.378.286-.562.573-.562.203 0 .428.09.625.172.112.043.216.085.316.114.521.146 1.08.22 1.661.22 2.358 0 4.796-1.087 4.796-2.908V6.44l-1.49 1.078a.138.138 0 0 1-.18-.018c-.293-.315-.866-.623-1.094-.71-.792-.304-1.575-.458-2.323-.458-1.432 0-2.717.573-3.718 1.657-.695.847-.914 2.006-.951 2.23-.258 2.224.738 3.9 1.049 4.36a.137.137 0 0 1-.075.208c-.357.104-.958.442-.958 1.535 0 1.49.603 1.873 1.056 2.03.045.016.08.055.088.101a.132.132 0 0 1-.04.128c-.331.303-.653.655-.745.792-.606.916-.787 1.91-.505 2.796.264.832.924 1.49 1.858 1.851 2.285.887 4.6.853 6.936-.102 1.055-.432 1.775-1.346 1.922-2.444.154-1.141-.316-2.257-1.26-2.985M104.071 15.313c-.101 1.405-.963 2.162-2.558 2.26a2.99 2.99 0 0 1-.262.01c-1.5 0-2.396-.785-2.396-2.1l.011-5.112c.096-1.36 1.007-2.143 2.472-2.093 1.734.072 2.653.847 2.733 2.304v4.73zm.026-14.644l-.006 6.412a.135.135 0 0 1-.07.118.135.135 0 0 1-.135 0c-.351-.206-1.324-.685-2.773-.685-3.268 0-4.926 1.769-4.926 5.26v1.985c0 2.576.92 5.646 5.312 5.646 1.539 0 2.723-.825 2.945-.99a.133.133 0 0 1 .081-.025c.02 0 .04.003.06.012l2.226 1.082-.01-17.33-2.704-1.485zM7.9 15.226c-.001.033-.198 2.355-2.65 2.355-2.435 0-2.648-2.277-2.656-2.374l.001-4.55c.006-1.705 1.348-2.596 2.67-2.596 1.494 0 2.558 1.055 2.649 2.624L7.9 15.226zM7.959.99l.004 6.135a.136.136 0 0 1-.079.124.14.14 0 0 1-.146-.02c-.451-.385-1.4-.837-2.584-.844H5.09C1.622 6.385.007 7.922.007 11.22l-.003 1.27c-.005.946-.008 1.923.008 2.896.03 1.802.975 3.003 2.815 3.569 1.526.467 3.053.394 4.43-.214.284-.124.78-.3.925-.35a.139.139 0 0 1 .112.01l2.105 1.165.007-1.806-.06-15.247L7.957.99zM89.13 17.96h-.039c-2.018 0-2.956-.863-3.046-2.797l.005-4.427c.078-1.86 1.015-2.728 2.947-2.739h.038c2.003 0 2.977.889 3.067 2.796l.005 4.429c-.08 1.86-1.025 2.727-2.977 2.738m1.904-11.301a9.803 9.803 0 0 0-2.061-.229c-.496 0-.99.044-1.47.127-3.06.543-4.052 1.704-4.08 4.777v3.654c.087 2.61 1.048 3.738 3.67 4.31 1.225.265 2.405.3 3.529.102 3.025-.535 4.055-1.74 4.082-4.776l.002-.438c.006-.662.012-2.703-.003-3.212-.087-2.613-1.047-3.744-3.669-4.315M114.26 17.96h-.04c-2.016 0-2.956-.863-3.046-2.797l.005-4.427c.08-1.86 1.017-2.728 2.947-2.739h.038c2.004 0 2.98.889 3.067 2.796l.005 4.429c-.08 1.86-1.025 2.727-2.977 2.738m5.574-6.986c-.087-2.614-1.047-3.744-3.67-4.315a9.793 9.793 0 0 0-2.06-.229c-.495 0-.99.044-1.468.127-3.063.543-4.055 1.704-4.082 4.777l.001 3.654c.085 2.609 1.045 3.738 3.668 4.31 1.229.267 2.408.3 3.53.102 3.024-.534 4.053-1.74 4.08-4.776l.004-.438c.005-.519.014-2.676-.003-3.212M57.017 6.45c-.762 0-1.605.136-2.504.407-.768.23-.97.33-1.132.408-.085.041-.16.078-.294.125a.144.144 0 0 1-.118-.015L50.997 6.11l.005 11.89 2.624 1.365-.004-8.699c-.008-1.345.764-2.216 2.174-2.447.216-.037.422-.041.577-.041h.113c1.554.018 2.369.92 2.424 2.683l-.002 7.03 2.702 1.517-.005-7.308c-.003-3.59-1.675-5.65-4.588-5.65M30.878 12.25a50.81 50.81 0 0 0-1.97-.594c-.655-.19-1.334-.384-2-.604-1.077-.358-1.548-.913-1.44-1.695.119-.865.741-1.351 1.903-1.486 2.063-.242 3.615.658 4.778 2.749.765-1.141 1.01-1.821.847-2.34-.154-.49-.67-.864-1.778-1.292-1.036-.402-2.013-.596-2.988-.596-.68 0-1.363.1-2.025.297-1.959.58-2.925 1.702-2.954 3.428-.028 1.662.911 2.838 2.713 3.398.436.133.875.263 1.314.393l.146.043c.887.26 1.806.532 2.692.844.886.312 1.324.898 1.233 1.65-.098.836-.66 1.33-1.67 1.47-2.338.325-4.07-.585-5.311-2.796-.66 1.131-.998 1.9-.796 2.47.19.532.858.874 1.876 1.255 1.808.675 3.551.77 5.216.29 1.85-.536 2.834-1.634 2.924-3.265.098-1.75-.84-3.002-2.71-3.619M35.27 6.348l-.007 6.07c0 .532 0 1.137-.003 1.768v.063c-.002 1.268-.004 2.704.01 3.804l2.567 1.454-.009-11.932-2.558-1.227zM18.378 10.191a.238.238 0 0 0 .2-.231 6.172 6.172 0 0 0 0-.527c-.005-.13-.077-.209-.19-.209-.012 0-.023 0-.05.003-.184.02-.37.039-.532.103-.607.24-.992.702-1.115 1.336-.087.459-.005.91.24 1.313.357.584.923.932 1.68 1.032.35.046.772-.034 1.035-.09.46-.105.869-.328 1.216-.664.53-.513.818-1.175.88-2.023.03-.426-.02-.859-.149-1.286a3.337 3.337 0 0 0-.66-1.22c-.692-.808-1.643-1.272-2.827-1.379-1.692-.078-2.813.474-3.135.637a5.595 5.595 0 0 0-2.254 2.064 5.29 5.29 0 0 0-.74 1.934 6.638 6.638 0 0 0-.062 1.083c.001.428.022.752.067 1.05.054.35.152.702.246 1.043l-.122.072.132-.036c.13.47.338.936.636 1.421.61.99 1.39 1.796 2.441 2.395.472.268.866.46 1.242.604.48.182.971.317 1.518.463a8.107 8.107 0 0 0 1.849.262l.052.004c.122.006.513.026.735.012.25-.015.507-.03.765-.06.011 0 .023-.001.033-.004v-1.068c-.192.018-.442.024-.478.025a6.31 6.31 0 0 1-1.974-.31 6.836 6.836 0 0 1-2.134-1.144 6.385 6.385 0 0 1-1.612-1.859 5.912 5.912 0 0 1-.782-2.564 5.902 5.902 0 0 1 .112-1.682c.108-.495.3-.95.572-1.348a3.028 3.028 0 0 1 1.984-1.306c.5-.1.996-.065 1.45.096.454.16.787.42 1.02.79.248.393.36.839.342 1.357a1.75 1.75 0 0 1-.42 1.128c-.327.376-.815.511-1.264.342-.336-.124-.532-.397-.552-.768-.019-.348.16-.727.605-.79M35.26 3.584l2.58 1.192v-3.18L35.26.277z"/></g></svg>