<svg width="125" height="46" viewBox="0 0 125 46" xmlns="http://www.w3.org/2000/svg"><title>logo_experience_mozat</title><g fill="none" fill-rule="evenodd"><path d="M23.511 15.233c-.94-1.332-2.136-2.242-3.676-2.712-1.266-.386-2.539-.377-3.815-.158-1.923.331-3.602 1.092-4.807 2.732-1.073 1.462-1.589 3.097-1.647 4.877-.05 1.552.006 3.106-.029 4.658-.037 1.62.085 3.238-.129 4.863-.14 1.061-.262 2.106-.696 3.118 1.084-.052 2.144.071 3.2-.095 1.382-.218 2.223-.994 2.52-2.363.094-.438.126-.885.126-1.334 0-2.568.002-5.137 0-7.705 0-.783.105-1.546.373-2.283.52-1.432 1.747-2.26 3.283-2.217 1.581.045 2.657.888 3.098 2.423.158.55.233 1.11.234 1.68.005 2.492.04 4.987-.01 7.48-.03 1.496-.169 2.994-.832 4.402.857 0 1.693.024 2.526-.006 1.47-.053 2.6-.848 3.04-2.105.18-.512.234-1.043.233-1.584-.004-2.584-.007-5.167.003-7.75.004-.978.15-1.934.62-2.812.654-1.225 1.74-1.727 3.067-1.72 1.291.006 2.243.625 2.827 1.785.335.665.498 1.38.505 2.116.022 2.418.027 4.837.027 7.255.001.851-.099 1.696-.213 2.54-.104.772-.338 1.513-.572 2.284h1.923c2.402 0 3.786-1.376 3.788-3.772.003-2.553.013-5.106-.003-7.66-.006-1.087-.129-2.165-.428-3.218-.8-2.815-2.599-4.63-5.428-5.38-1.357-.359-2.747-.487-4.146-.292-1.173.164-2.259.556-3.235 1.265-.66.481-1.205 1.067-1.727 1.688M41.954 38.52c-.658.325-1.245.772-1.912 1.084-1.524.713-3.124 1.134-4.803 1.136-11.674.015-23.349.008-35.024.008-.059 0-.119-.007-.17-.01-.096-.096-.012-.174.018-.246.833-2.044 1.092-4.197 1.255-6.375.106-1.413.196-2.826.151-4.24-.098-3.134-.075-6.269-.04-9.402.046-4.399 1.398-8.33 4.476-11.559 2.327-2.442 5.204-3.899 8.506-4.525 2.314-.439 4.623-.46 6.913.17.678.187 1.31.496 1.954.765.257.107.47.112.718.004 1.655-.719 3.372-1.19 5.187-1.23 4.027-.092 7.78.786 11.094 3.184.168.122.343.234.515.351.047.152.166.248.28.341 1.232 1 2.211 2.22 3.058 3.55.513.805.865 1.693 1.27 2.554-.86.65-1.51 1.484-2.04 2.407-.87 1.517-1.352 3.164-1.495 4.904-.343 4.2.796 7.76 4.45 10.224-.257 1.346-.774 2.588-1.485 3.756-.754 1.238-1.757 2.246-2.876 3.15" fill="#FE9A0B"/><path d="M85.9 18.594c.562-.54 1.092-.938 1.697-1.233 2.008-.979 4.133-1.212 6.32-.942 1.272.157 2.263.737 2.613 2.085.117.451.134.913.166 1.375.018.276-.084.36-.358.353a46.655 46.655 0 0 0-2.149-.004c-1.888.04-3.746.261-5.509.993-1.402.582-2.553 1.451-3.156 2.896-1.052 2.518-.458 5.906 2.93 7.632 2.433 1.24 5.042 1.321 7.641.786 3.072-.632 4.948-2.735 5.418-5.847.18-1.198.062-2.414.067-3.622.006-1.636.077-3.275-.275-4.894-.623-2.869-2.222-4.836-5.114-5.642-2.205-.615-4.41-.482-6.623-.03-1.489.302-2.582 1.07-3.147 2.513-.438 1.116-.498 2.287-.52 3.581m16.937 19.932a15.703 15.703 0 0 1-3.68 1.754c-1.612.524-3.268.771-4.96.8-1.386.022-2.769-.01-4.147-.168-.084-.025-.167-.06-.252-.075a16.54 16.54 0 0 1-4.483-1.455c-1.563-.774-2.93-1.815-4.176-3.027.162-.409.358-.802.461-1.236.127-.533.26-1.068.45-1.58.134-.364.003-.388-.3-.386-.994.005-1.989-.01-2.983-.018-.05-.107-.099-.216-.153-.322a14.94 14.94 0 0 1-1.628-5.608c-.114-1.293-.018-2.587-.07-3.879.71-.82 1.438-1.628 2.128-2.466 1.048-1.27 1.997-2.617 2.396-4.244.322-1.31.232-2.576-.836-3.584-.474-.448-1.089-.577-1.698-.713.495-.898 1.032-1.767 1.682-2.564a14.501 14.501 0 0 1 5.28-4.065c4.35-1.856 8.78-2.003 13.282-.63.085.026.174.041.261.062.051.027.101.06.155.08 2.22.822 4.184 2.04 5.82 3.768.254.27.431.608.752.815.028.117-.047.2-.104.284-.552.821-.768 1.747-.773 2.713-.018 4.134-.039 8.27-.01 12.403.02 2.722.781 5.122 3.242 6.678-.784 1.62-1.675 3.173-2.969 4.443a20.575 20.575 0 0 1-2.687 2.22" fill="#82B10D"/><path d="M106.14 9.785c-.322-.207-.5-.546-.754-.815-1.635-1.728-3.599-2.945-5.819-3.768-.054-.02-.104-.053-.156-.08 1.4-1.817 2.99-3.407 5.123-4.361a8.656 8.656 0 0 1 3.561-.751c5.492-.002 10.984.004 16.477-.01.413-.001.478.08.398.49-.51 2.584-.667 5.205-.674 7.83-.022 7.059-.003 14.117-.007 21.175 0 1.274-.166 2.532-.606 3.732a11.463 11.463 0 0 1-2.263 3.78c-2.396 2.657-5.468 3.77-8.945 3.93-2.935.137-5.766-.324-8.406-1.687-.423-.218-.822-.482-1.23-.724a20.568 20.568 0 0 0 2.686-2.22c1.294-1.27 2.185-2.824 2.97-4.443a7.593 7.593 0 0 0 2.955.794c1.431.083 2.771-.172 3.905-1.104 1.233-1.013 1.7-2.37 1.726-3.964-1.43.637-2.88.729-4.35.627-1.19-.082-2.03-.794-2.353-1.938a4.93 4.93 0 0 1-.19-1.326c-.008-2.553.003-5.106-.01-7.658-.002-.33.115-.392.411-.39 1.21.016 2.42.008 3.628.008 1.512-.001 2.507-.738 2.941-2.192.18-.6.306-1.216.52-1.802.144-.395.018-.43-.328-.427-2.225.01-4.449-.002-6.674.013-.374.003-.519-.048-.48-.483.116-1.34.22-2.677.712-3.945.071-.182.03-.246-.159-.24-.418.017-.839 0-1.252.048-1 .116-1.963.315-2.673 1.154-.215.254-.419.533-.685.747" fill="#FE9A0B"/><path d="M45.4 14.08c-.405-.86-.757-1.749-1.27-2.555-.847-1.33-1.826-2.549-3.058-3.549-.114-.093-.233-.189-.279-.34 1.611-1.297 3.446-2.16 5.41-2.768 1.76-.544 3.573-.789 5.41-.787 2.513.003 4.933.496 7.23 1.542.667.33 1.332.662 1.966 1.057 1.068.666 1.987 1.5 2.91 2.351a15.204 15.204 0 0 1 2.637 3.227c-.146.098-.316.067-.476.085-1.223.136-2.157.683-2.705 1.83-.366.764-.397 1.627-.74 2.4-.099.22.132.172.244.173.745.006 1.49-.005 2.235.005 1.175.015 2.351-.046 3.526.032.508 1.65.716 3.343.79 5.06.044 1.042-.095 2.073-.15 3.11-1.212 1.4-2.423 2.801-3.637 4.2-.806.93-1.528 1.911-2.023 3.047-.633 1.448-.81 2.885.083 4.302-1.722 1.567-3.656 2.785-5.85 3.587-.992.363-2.02.582-3.038.844-1.403.168-2.804.33-4.222.253-2.855-.155-5.527-.916-7.995-2.37-.152-.09-.296-.197-.443-.296 1.118-.903 2.121-1.91 2.875-3.149.712-1.168 1.228-2.41 1.485-3.756 1.995 1.127 4.136 1.458 6.392 1.175 2.847-.357 5.167-1.642 6.634-4.125 2.086-3.526 2.384-7.28.794-11.069-1.475-3.513-4.237-5.31-8.032-5.532a10.979 10.979 0 0 0-2.792.21c-1.446.287-2.779.834-3.91 1.806" fill="#D23886"/><path d="M54.615 40.934c1.018-.263 2.046-.482 3.038-.844 2.194-.802 4.128-2.021 5.85-3.588.717.827 1.65 1.125 2.712 1.124 4.115-.003 8.23.008 12.344-.007 1.046-.004 1.95-.374 2.58-1.264 1.246 1.213 2.615 2.254 4.178 3.027 1.423.704 2.92 1.18 4.482 1.455.086.016.168.05.252.076-1.006 1.372-2.33 2.358-3.803 3.175-2.173 1.206-4.512 1.683-6.975 1.679-4.595-.007-9.191.004-13.786-.005-2.748-.005-5.352-.577-7.727-2.022a11.367 11.367 0 0 1-3.145-2.806M66.356 12.258a15.204 15.204 0 0 0-2.638-3.227c-.922-.85-1.84-1.685-2.909-2.35-.634-.396-1.3-.728-1.967-1.059 1.52-.729 3.133-1.145 4.801-1.294 2.752-.246 5.515-.076 8.273-.104 2.447-.024 4.894.006 7.341-.005 2.162-.01 4.227.417 6.196 1.31.136.06.277.107.416.16a14.493 14.493 0 0 0-5.28 4.066c-.65.796-1.187 1.666-1.682 2.564-.296-.02-.592-.06-.887-.06-3.888-.005-7.776-.002-11.664 0" fill="#10A4DA"/><path d="M23.511 15.233c.522-.62 1.066-1.207 1.727-1.688.976-.709 2.062-1.1 3.235-1.265 1.4-.195 2.79-.067 4.146.292 2.83.75 4.628 2.565 5.428 5.38.3 1.053.422 2.131.428 3.218.016 2.554.006 5.107.003 7.66-.002 2.396-1.386 3.772-3.788 3.772h-1.923c.234-.77.468-1.512.572-2.285.114-.843.214-1.688.213-2.539 0-2.418-.005-4.837-.027-7.255a4.761 4.761 0 0 0-.505-2.116c-.584-1.16-1.536-1.779-2.827-1.785-1.328-.007-2.413.495-3.068 1.72-.469.878-.615 1.834-.619 2.812-.01 2.583-.007 5.166-.003 7.75.001.541-.053 1.072-.233 1.584-.44 1.257-1.57 2.052-3.04 2.105-.833.03-1.669.006-2.526.006.663-1.408.802-2.906.832-4.403.05-2.492.015-4.987.01-7.48a6.083 6.083 0 0 0-.234-1.679c-.44-1.535-1.517-2.378-3.098-2.423-1.536-.043-2.763.785-3.283 2.217-.268.737-.374 1.5-.374 2.283.003 2.568 0 5.137.001 7.705 0 .45-.032.896-.127 1.334-.296 1.37-1.137 2.145-2.519 2.363-1.056.166-2.116.043-3.2.095.434-1.012.556-2.057.696-3.118.214-1.625.092-3.243.13-4.863.034-1.552-.022-3.106.028-4.658.058-1.78.574-3.415 1.647-4.877 1.205-1.64 2.884-2.4 4.807-2.732 1.276-.219 2.55-.228 3.815.158 1.54.47 2.735 1.38 3.676 2.712M55.934 22.81c-.023-1.21-.131-2.406-.58-3.55-.714-1.827-2.21-2.812-4.22-2.765-1.801.042-3.15 1.069-3.767 2.902-.578 1.715-.533 3.46-.186 5.21.417 2.097 1.67 3.644 4.06 3.839 1.662.135 3.352-.708 3.954-2.13.473-1.115.78-2.276.739-3.505M45.4 14.08c1.133-.972 2.466-1.518 3.91-1.806.92-.184 1.852-.265 2.793-.21 3.796.223 6.558 2.02 8.032 5.532 1.59 3.788 1.292 7.543-.793 11.07-1.468 2.482-3.788 3.768-6.634 4.125-2.257.283-4.397-.05-6.393-1.176-3.653-2.463-4.793-6.024-4.45-10.223.143-1.74.624-3.388 1.496-4.905.53-.922 1.179-1.757 2.039-2.407M66.356 12.258c3.888 0 7.776-.004 11.664 0 .295 0 .591.04.887.061.61.136 1.224.265 1.698.713 1.068 1.007 1.158 2.273.836 3.584-.399 1.627-1.348 2.972-2.396 4.244-.69.838-1.418 1.645-2.13 2.466-2.115 2.344-4.259 4.662-6.29 7.081-.613.73-1.199 1.483-1.593 2.364-.102.228-.147.382.211.38 3.175-.012 6.35-.012 9.525-.016.994.007 1.988.023 2.983.018.303-.002.433.022.3.386-.19.512-.323 1.047-.45 1.58-.103.433-.299.827-.46 1.235-.632.89-1.537 1.26-2.583 1.264-4.114.016-8.228.005-12.343.008-1.063 0-1.995-.297-2.712-1.124-.894-1.418-.716-2.854-.084-4.302.496-1.136 1.218-2.118 2.024-3.047 1.214-1.399 2.425-2.8 3.637-4.2.783-.882 1.57-1.758 2.347-2.644.854-.972 1.711-1.94 2.543-2.93.66-.786 1.277-1.605 1.674-2.596H68.44c-1.175-.078-2.35-.017-3.526-.032-.745-.01-1.49.001-2.235-.005-.112 0-.343.047-.245-.174.344-.772.375-1.635.741-2.4.548-1.146 1.482-1.693 2.705-1.829.16-.018.33.013.476-.085M95.384 23.808c-1.222-.02-2.448-.043-3.628.354-1.092.367-1.591 1.005-1.615 2.046-.022 1.023.502 1.8 1.512 2.2.865.341 1.764.404 2.68.271 1.37-.2 2.096-.901 2.342-2.255.078-.43.064-.863.053-1.293-.011-.442.195-1.032-.091-1.279-.248-.212-.823-.044-1.253-.044M85.9 18.595c.022-1.294.083-2.465.52-3.581.566-1.444 1.659-2.212 3.147-2.515 2.213-.452 4.418-.584 6.624.03 2.89.806 4.49 2.774 5.114 5.643.35 1.62.28 3.258.274 4.893-.004 1.208.114 2.425-.067 3.622-.47 3.113-2.345 5.215-5.417 5.848-2.6.536-5.21.454-7.642-.786-3.388-1.726-3.981-5.114-2.93-7.631.604-1.446 1.755-2.314 3.156-2.896 1.763-.733 3.62-.955 5.51-.995a48.113 48.113 0 0 1 2.149.005c.273.006.376-.076.357-.354-.031-.46-.048-.922-.165-1.373-.35-1.348-1.341-1.928-2.614-2.085-2.186-.27-4.311-.038-6.32.941-.604.294-1.134.692-1.696 1.233M106.14 9.785c.265-.214.47-.493.684-.747.71-.84 1.672-1.038 2.673-1.154.413-.048.834-.031 1.252-.047.188-.007.23.057.16.239-.494 1.268-.597 2.605-.714 3.945-.038.435.107.486.481.483 2.225-.015 4.45-.002 6.674-.013.346-.002.472.032.328.427-.214.586-.34 1.203-.52 1.802-.434 1.454-1.429 2.19-2.94 2.192-1.21 0-2.419.008-3.629-.007-.296-.003-.413.059-.41.389.012 2.552.001 5.105.01 7.658 0 .448.067.893.19 1.326.322 1.144 1.162 1.856 2.352 1.938 1.47.102 2.92.01 4.35-.627-.026 1.594-.493 2.95-1.726 3.964-1.134.932-2.474 1.187-3.905 1.104a7.593 7.593 0 0 1-2.956-.794c-2.46-1.555-3.223-3.956-3.242-6.678-.029-4.134-.008-8.268.01-12.403.005-.965.221-1.892.773-2.713.057-.085.132-.167.104-.284" fill="#FEFEFE"/><path d="M78.768 33.135c-3.175.004-6.35.004-9.525.016-.358.002-.312-.152-.211-.38.394-.88.981-1.635 1.593-2.364 2.031-2.419 4.175-4.737 6.291-7.08.053 1.291-.043 2.585.071 3.877.175 1.98.716 3.847 1.628 5.61.054.105.102.214.153.321M68.44 16.783h7.204c-.397.992-1.015 1.81-1.674 2.595-.832.991-1.689 1.96-2.543 2.932-.777.885-1.564 1.762-2.347 2.642.055-1.036.194-2.067.15-3.109-.074-1.717-.282-3.41-.79-5.06" fill="#10A4DA"/><path d="M55.934 22.81c.04 1.23-.266 2.39-.74 3.506-.601 1.422-2.291 2.265-3.953 2.13-2.39-.195-3.643-1.742-4.06-3.84-.347-1.748-.392-3.494.186-5.21.617-1.832 1.966-2.86 3.768-2.901 2.01-.047 3.505.938 4.22 2.765.448 1.144.556 2.34.579 3.55" fill="#D23886"/><path d="M95.384 23.808c.43 0 1.005-.168 1.253.044.286.247.08.837.09 1.279.012.43.026.863-.052 1.293-.246 1.354-.972 2.056-2.341 2.256-.917.133-1.816.07-2.681-.273-1.01-.4-1.534-1.177-1.512-2.2.024-1.04.523-1.678 1.615-2.046 1.18-.396 2.406-.373 3.628-.353" fill="#82B10D"/></g></svg>