<svg width="130" height="24" viewBox="0 0 130 24" xmlns="http://www.w3.org/2000/svg"><title>logo_experience_sony</title><g fill="#221F20" fill-rule="evenodd"><path d="M116.463 9.758l4.054-4.327c.234-.318.352-.54.352-.73 0-.318-.274-.446-1.134-.446h-1.022V1.524h11.07v2.731h-1.456c-1.68 0-1.992.254-4.335 3.209l-6.412 6.924v4.225c0 1.081.547 1.461 2.109 1.461h2.421v2.636h-15.503v-2.636h2.421c1.562 0 2.109-.38 2.109-1.461v-4.225l-7.552-8.354c-1.249-1.46-1.076-1.779-4.55-1.779V1.524h14.02v2.731h-.999c-1.015 0-1.445.19-1.445.572 0 .318.313.573.508.826l3.821 4.164c.453.472 1.006.533 1.523-.059M22.393 1.523h3.382v7.623H22.65c-.276-1.524-1.23-2.117-2.1-2.916-1.57-1.442-4.967-2.643-7.826-2.643-3.688 0-6.8 1.145-6.8 2.827 0 4.67 21.095.954 21.095 9.784 0 4.606-4.519 7.18-12.634 7.18-2.809 0-7.06-.873-9.568-2.204-.787-.455-1.121.428-1.268 1.536H.082v-7.878h3.137c.691 2.002 1.645 2.414 2.521 3.209 1.521 1.397 5.141 2.414 8.461 2.382 5.006-.05 6.728-1.144 6.728-2.732 0-1.588-1.702-1.97-7.189-2.827l-4.657-.762C3.827 13.307 0 12.132 0 7.94 0 3.587 4.841.855 12.495.855c3.226 0 5.925.431 8.515 1.896.719.465 1.392.521 1.383-1.228M88.396 14.286l.067-8.473c0-1.111-.578-1.493-2.23-1.493H84.29V1.684h12.354V4.32h-1.61c-1.654 0-2.233.382-2.233 1.493V22.87l-4.835-.037L72.308 8.005v10.768c0 1.08.578 1.493 2.23 1.493h2.15v2.605H63.858v-2.605h2.125c1.653 0 2.231-.412 2.231-1.493V5.813c0-1.111-.578-1.493-2.23-1.493h-2.126V1.684h11.093l13.444 12.602zM46.793 20.453c-5.45 0-8.582-3.145-8.582-8.576 0-5.305 3.268-8.45 8.854-8.45 5.358 0 8.491 3.209 8.491 8.672 0 5.337-3.178 8.354-8.763 8.354M47.017.695c-9.846 0-16.009 4.352-16.009 11.34 0 6.863 6.078 11.182 15.708 11.182 10.23 0 16.18-4.256 16.18-11.53 0-6.544-6.421-10.992-15.88-10.992"/></g></svg>