<svg width="125" height="45" viewBox="0 0 125 45" xmlns="http://www.w3.org/2000/svg"><title>logo_experience_viki</title><g fill="none" fill-rule="evenodd"><path d="M25.683 36.359c-.072-.101-.114-.164-.16-.224l-4.733-6.283c-.064-.084-.182-.162-.166-.264.016-.1.15-.144.233-.21 2.187-1.75 2.955-4.691 1.895-7.257-.971-2.35-3.252-3.866-5.828-3.87-1.803-.004-3.605-.002-5.408-.001-.29 0-.265-.035-.265.256v17.756c0 .068.032.099.1.097.039-.002.077 0 .116 0h3.017c.244 0 .226.012.225-.227v-.116-5.06c0-.24-.003-.213.213-.214.665 0 1.33.006 1.996-.003a.395.395 0 0 1 .364.18c1.315 1.759 2.638 3.512 3.954 5.27a.375.375 0 0 0 .344.173c1.292-.006 2.584-.003 3.876-.003h.227zM0 26.653c.072-.166.07-.346.082-.521.223-3.137 1.23-6.002 3.064-8.554 2.6-3.618 6.1-5.88 10.463-6.792a16.294 16.294 0 0 1 4.617-.282 16.9 16.9 0 0 1 15.146 12.863c.41 1.705.554 3.435.42 5.182a16.866 16.866 0 0 1-12.668 15.083 15.984 15.984 0 0 1-3.227.49c-.1.005-.201.004-.298.037h-1.301c-.115-.013-.23-.032-.345-.037a15.274 15.274 0 0 1-2.617-.352c-3.56-.792-6.573-2.534-9.007-5.248C1.483 35.347.13 31.582-.001 27.35v-.697zm14.71-2.134v2.574c0 .24-.002.21.215.21.695 0 1.391.005 2.087-.002 1.497-.017 2.738-1.259 2.761-2.757.024-1.538-1.22-2.829-2.759-2.852-.695-.01-1.39-.002-2.087-.002-.228 0-.218-.025-.218.232v2.597z" fill="#BE0000"/><path d="M93.24 0c.03.077.111.069.17.098.278.143.434.363.44.681v20.119c.09.005.107-.056.138-.094 1.485-1.825 2.968-3.65 4.451-5.476.761-.936 1.527-1.869 2.281-2.812.373-.466.85-.667 1.437-.662.936.008 1.872.002 2.81.002h7.33c-.013.112-.085.154-.133.21l-4.38 5.019-3.65 4.178-3.175 3.637c-.112.129-.112.13-.008.294l3.382 5.33 7.621 12.012c.035.057.088.108.09.18-.055.06-.12.037-.179.037-3.034.002-6.067.007-9.1-.003-.696-.002-1.229-.327-1.57-.943l-2.813-5.1-2.78-5.038c-.037-.067-.08-.131-.115-.188-.072-.019-.094.03-.122.063-.476.56-.949 1.123-1.429 1.679-.08.094-.086.191-.086.3v4.063c0 1.439-.01 2.879.007 4.318.005.458-.287.853-.85.852-2.4-.004-4.799-.002-7.198-.001-.102 0-.2-.011-.298-.036a.72.72 0 0 1-.546-.647c-.009-.115-.006-.232-.006-.348 0-12.884-.002-25.769.003-38.653 0-.922-.047-1.84-.1-2.759-.003-.054-.008-.108-.01-.162-.005-.075.03-.116.105-.12l.186-.003c.712 0 1.424.001 2.136-.001.083 0 .17.023.25-.026h5.71zM125 42.208c-.15.404-.456.55-.869.548-2.414-.004-4.828-.002-7.242-.002-.085 0-.169 0-.254-.018a.761.761 0 0 1-.635-.726c-.005-.085-.001-.17-.001-.255-.001-9.099-.002-18.198.002-27.297.001-.775-.052-1.546-.097-2.317-.019-.31-.046-.285.277-.285h8.542c.092 0 .186.011.277-.016v30.368zM54.036 29.513c.08-.245.142-.435.202-.626.946-3.032 1.778-6.097 2.55-9.178a237.07 237.07 0 0 0 1.564-6.656c.02-.083.035-.167.053-.25.132-.59.571-.945 1.177-.946 1.284-.002 2.57-.001 3.853-.001h5.236c.033.038.026.065.01.094-.393.647-.635 1.355-.86 2.072a746.078 746.078 0 0 1-1.676 5.257 9630.527 9630.527 0 0 1-4.16 12.86c-.872 2.685-1.748 5.366-2.622 8.048-.192.588-.375 1.179-.578 1.763a1.14 1.14 0 0 1-.943.794c-.083.014-.169.01-.254.01h-7.104c-.629 0-1.032-.288-1.228-.892-.972-3-1.94-6-2.912-9.001-1.05-3.25-2.103-6.5-3.153-9.751-1.026-3.177-2.052-6.354-3.076-9.532-.112-.348-.285-.668-.436-.998-.09-.197-.187-.391-.275-.588-.053-.12-.042-.134.083-.142.046-.003.092 0 .14 0 2.931 0 5.864.005 8.797.002.386 0 .712.11.972.402.15.167.235.36.28.577.247 1.195.523 2.385.802 3.573.917 3.897 1.92 7.77 3.075 11.605.136.45.28.9.42 1.35.011.037.028.07.063.154zm26.401-2.462v14.716c0 .093.002.186-.003.279a.724.724 0 0 1-.589.683c-.09.02-.183.026-.276.026h-7.266a1.45 1.45 0 0 1-.208-.011c-.403-.065-.656-.354-.673-.766-.003-.085 0-.17 0-.255 0-9.122-.002-18.245.002-27.367a31.67 31.67 0 0 0-.096-2.178c-.025-.36-.059-.321.307-.321l8.496-.001c.345 0 .306-.027.306.316V27.05z" fill="#3B9CD6"/></g></svg>