<svg width="60" height="36" viewBox="0 0 60 36" xmlns="http://www.w3.org/2000/svg"><title>logo_bltd</title><g fill="#8F9EBC" fill-rule="evenodd"><path d="M6.189 24.264c0 1.898.019 3.797-.012 5.695-.009.54.164.76.7.778.92.031 1.84.146 2.761.149 2.306.007 3.468-.966 3.604-3.274.147-2.495.121-5.003.092-7.505-.009-.775-.196-1.572-.44-2.315-.357-1.092-1.19-1.64-2.352-1.636-1.452.007-2.767.438-3.83 1.437-.28.265-.49.746-.501 1.134-.052 1.845-.023 3.691-.022 5.537M0 35.334V.659h6.174v11.726c1.203-.35 2.306-.795 3.45-.983 5.029-.828 8.754 1.652 9.677 6.643.669 3.617.639 7.323.024 10.947-.686 4.046-3.423 6.33-7.683 6.697-1.41.121-2.842.041-4.262-.013-2.184-.083-4.366-.225-6.548-.338-.257-.014-.515-.002-.832-.002M53.767 24.25c0-1.58-.121-3.174.035-4.74.15-1.503-.58-2.254-1.787-2.762-.53-.223-1.089-.414-1.653-.512-2.064-.357-3.352.402-3.503 2.476-.218 3.01-.268 6.051-.092 9.062.134 2.303 1.318 3.127 3.651 3.11.841-.006 1.682-.128 2.523-.125.719.002.856-.326.841-.975-.04-1.844-.014-3.689-.015-5.534m-.02-11.737V.673h6.223v34.582c-.122.03-.218.07-.316.075-2.892.16-5.784.415-8.678.438-1.667.014-3.398-.13-4.992-.586-3.365-.962-5.167-3.486-5.425-6.856-.244-3.167-.316-6.396.011-9.548.657-6.335 6.584-9.372 12.47-6.603.206.097.41.196.708.338M20.936 35.287h6.17V.677h-6.17zM34.648 4.93v6.765h5.632v4.956h-5.61v18.62h-6.284v-.804c-.002-8.993.005-17.987-.019-26.98-.002-.674.185-.958.858-1.117 1.564-.369 3.103-.841 4.653-1.268.223-.062.452-.102.77-.172"/></g></svg>