<svg width="76" height="33" viewBox="0 0 76 33" xmlns="http://www.w3.org/2000/svg"><title>logo</title><g stroke="#6977FD" stroke-width="2" fill="none" fill-rule="evenodd" stroke-linecap="round"><path d="M24.511 9.46c-2.551 4.845-2.3 10.78.775 15.402a15.146 15.146 0 0 0 4.237 4.236c4.622 3.075 10.556 3.327 15.402.775M30.846 3.124C35.692.572 41.626.824 46.25 3.9a15.146 15.146 0 0 1 4.236 4.237c3.074 4.622 3.327 10.556.775 15.402"/><path d="M52.23 3.123C57.94.116 65.163 1.004 69.965 5.806c5.905 5.905 5.905 15.48 0 21.386-5.18 5.18-13.182 5.813-19.056 1.906a15.188 15.188 0 0 1-2.33-1.906l-2.138-2.14-5.346-5.346M34.678 13.29l-5.346-5.346-2.14-2.139A15.19 15.19 0 0 0 24.864 3.9C18.99-.008 10.987.625 5.807 5.805c-5.905 5.906-5.905 15.48 0 21.387 4.802 4.8 12.025 5.69 17.734 2.682M34.678 19.706L30.4 23.984M41.094 13.29l4.277-4.276M41.094 13.29l-1.07 1.07-2.139 2.139-2.138 2.138-1.069 1.07"/></g></svg>