<svg width="96" height="36" viewBox="0 0 96 36" xmlns="http://www.w3.org/2000/svg"><title>logo_coolhunting</title><g fill="#8F9EBC" fill-rule="evenodd"><path d="M76.279 29.645v-.65-9.227c0-.724.025-.748.734-.75.635-.002 1.27-.003 1.904 0 .644.004.682.042.683.704.002 2.001.001 4.003.001 6.005v8.788c-.001.68-.035.71-.723.713-.7.002-1.402-.029-2.1.01-.523.028-.838-.177-1.105-.614-1.596-2.609-3.211-5.206-4.823-7.806-.451-.729-.913-1.45-1.403-2.229-.143.246-.1.443-.1.627-.003 3.092-.001 6.184-.003 9.276 0 .711-.025.734-.748.736-.684.002-1.368-.012-2.05.004-.43.01-.62-.154-.62-.6.007-5.012.006-10.024.001-15.037 0-.416.176-.586.588-.58.846.013 1.692.011 2.538 0 .329-.005.548.12.72.4 2.016 3.249 4.036 6.494 6.057 9.74.1.16.157.357.449.49M41.433 29.505c.137-.183.078-.385.078-.57.004-3.01.003-6.02.003-9.03 0-.878.01-.887.91-.888.618 0 1.236-.003 1.854.002.597.004.648.051.65.636.005 1.042.002 2.083.002 3.124v11.664c0 .775-.011.784-.798.785-.764.001-1.53-.01-2.294.004-.347.006-.564-.123-.75-.424-2.004-3.254-4.022-6.5-6.037-9.748l-.353-.565c-.169.216-.116.416-.116.597-.004 3.14-.002 6.28-.003 9.42 0 .682-.034.713-.72.716-.667.002-1.334-.016-2 .005-.438.014-.613-.148-.607-.596.017-1.268.005-2.537.005-3.806V19.8c0-.773.011-.782.8-.783.732-.002 1.464.015 2.196-.006.405-.013.653.138.867.486 1.962 3.186 3.938 6.362 5.915 9.537.106.169.173.385.398.47M95.908 30.853c0 1.253-.014 2.506.007 3.758.008.47-.17.65-.631.622a13.129 13.129 0 0 0-1.22-.003c-.34.01-.513-.146-.563-.471-.04-.257-.084-.514-.137-.769-.03-.136-.011-.323-.181-.368-.144-.039-.225.111-.31.202-.946 1.032-2.132 1.612-3.51 1.717-2.142.164-4.113-.335-5.737-1.81-2.424-2.204-3.025-5.017-2.616-8.139.292-2.228 1.26-4.095 3.073-5.459 1.607-1.21 3.451-1.596 5.434-1.435 1.59.13 3.006.666 4.196 1.75 1.023.932 1.634 2.088 1.87 3.447.059.337-.084.491-.42.49-.845 0-1.691-.002-2.537.001-.265.001-.418-.123-.505-.37-.53-1.506-1.613-2.317-3.19-2.345-1.675-.028-3.03.63-3.753 2.22-1.04 2.286-1.005 4.574.174 6.805.746 1.412 2.432 1.995 3.917 1.849.95-.094 1.817-.357 2.473-1.107.454-.52.69-1.134.816-1.799.066-.353-.134-.466-.448-.465-.781 0-1.562.002-2.343-.004-.626-.004-.688-.07-.693-.711-.003-.504.007-1.009-.002-1.513-.006-.344.136-.508.492-.507 1.952.006 3.904.007 5.857 0 .399-.002.491.213.49.558-.008 1.286-.003 2.57-.003 3.856M14.363 27.173v7.321c-.001.71-.026.732-.751.734-.683.002-1.367.002-2.05 0-.769-.002-.81-.04-.81-.79-.002-1.807 0-3.612-.002-5.418 0-.69-.034-.725-.71-.726-1.676-.002-3.351-.002-5.027 0-.675 0-.708.034-.708.726-.002 1.855 0 3.71-.003 5.564 0 .592-.051.64-.644.643-.78.004-1.562-.01-2.342.005-.424.008-.627-.141-.627-.592.007-5.01.007-10.022 0-15.032 0-.45.2-.602.625-.594.796.015 1.594.019 2.39-.002.44-.011.61.154.605.599-.015 1.643-.007 3.286-.004 4.929 0 .692.031.724.709.725 1.675.002 3.351.002 5.027 0 .676 0 .708-.034.71-.726.001-1.594-.002-3.188.001-4.783.001-.674.06-.734.716-.737.732-.004 1.464-.004 2.196 0 .66.002.697.037.698.687.002 2.489 0 4.978 0 7.467M19.539 24.53c0 1.58-.016 3.158.006 4.736.014.958.168 1.873.941 2.577.586.534 1.3.683 2.03.71 1.076.04 2.17.02 2.973-.889.616-.698.675-1.577.68-2.437.023-3.124.01-6.249.01-9.373 0-.835.002-.836.844-.836.716-.001 1.432.012 2.148-.004.427-.01.624.147.623.595-.009 3.174.032 6.347-.021 9.52-.027 1.61-.332 3.175-1.471 4.444-.67.746-1.476 1.29-2.43 1.566-2.027.587-4.072.648-6.099-.014-2.195-.718-3.59-2.508-3.74-4.821-.235-3.575-.051-7.156-.106-10.734-.006-.393.173-.558.562-.554.83.01 1.66.015 2.49-.003.429-.01.567.178.564.587-.012 1.644-.005 3.287-.004 4.93M13.168 5.93c-.423 0-.847-.004-1.27 0-.258.003-.417-.096-.51-.354-.547-1.532-1.683-2.357-3.266-2.438-1.5-.077-2.755.477-3.599 1.818-1.317 2.092-1.22 5.727.29 7.63 1.009 1.27 2.39 1.631 3.942 1.344 1.5-.278 2.313-1.292 2.693-2.704.214-.8.202-.803 1.032-.803.684 0 1.368.009 2.05-.002.416-.006.552.182.488.578-.54 3.312-2.644 5.588-6.066 5.981-1.91.22-3.706-.114-5.334-1.134-1.739-1.09-2.763-2.718-3.273-4.68C-.223 8.983-.098 6.828.78 4.76 1.95 2.002 4.08.492 7.055.163c1.77-.195 3.444.1 4.962 1.04 1.562.966 2.485 2.394 2.856 4.192.08.392-.043.548-.436.538-.423-.011-.846-.003-1.27-.003M52.83 19.018c1.952 0 3.905-.002 5.857 0 .752 0 .79.041.792.81.002.488.002.976 0 1.464-.002.727-.024.75-.732.752-1.058.002-2.115 0-3.173.001-.974 0-.974 0-.974.999v11.424c0 .741-.02.758-.774.76h-2.001c-.812-.002-.837-.027-.838-.862V23.04c0-.995 0-.995-.979-.995-1.041 0-2.083.002-3.124-.001-.645-.002-.68-.04-.684-.702-.003-.57.02-1.14-.006-1.708-.022-.471.17-.627.63-.623 2.002.016 4.004.007 6.005.007M53.232 7.063c0 1.97-.002 3.939 0 5.908.002.625.047.672.664.673 2.18.003 4.362 0 6.543.002.659 0 .696.04.7.687.003.553.005 1.106 0 1.66-.006.602-.077.677-.678.678-2.946.003-5.892.002-8.838.002-.456 0-.912-.017-1.367.004-.458.02-.65-.166-.64-.63.018-.83.004-1.66.004-2.49V1.3c0-.801.033-.834.815-.836.716-.002 1.432-.004 2.148.001.595.004.646.051.647.64.003 1.986.001 3.972.002 5.958M60.656 27.12c0-2.44-.002-4.88 0-7.319 0-.734.048-.78.769-.783.764-.002 1.529.01 2.293-.004.394-.007.553.15.552.548-.006 5.042-.006 10.085 0 15.127 0 .402-.168.55-.557.543-.797-.014-1.594 0-2.391-.006-.592-.004-.664-.076-.665-.689-.003-2.472-.001-4.944-.001-7.417M44.849 8.342c-.03 1.661-.268 2.978-1.107 4.113-1.692 2.29-5.418 2.07-6.825-.401a5.954 5.954 0 0 1-.78-2.89c-.02-1.095.042-2.165.397-3.224 1.043-3.116 4.702-3.544 6.66-1.86.79.68 1.202 1.607 1.427 2.613.141.635.258 1.277.228 1.649m3.495-.983c-.297-2.26-1.138-4.251-2.994-5.662C43.26.106 40.883-.217 38.363.372 36.152.89 34.571 2.22 33.53 4.217c-.724 1.388-.981 2.88-1.005 4.425-.052.824.088 1.625.288 2.415.602 2.382 1.902 4.224 4.188 5.26 1.453.658 2.975.877 4.569.658 3.071-.424 5.165-2.073 6.258-4.963.566-1.497.727-3.059.517-4.653M27.24 11.81c-.778 1.64-2.182 2.269-3.91 2.213-1.691-.054-2.867-.94-3.553-2.473-.419-.936-.602-1.92-.529-2.87-.053-1.375.184-2.607.877-3.721.827-1.333 2.092-1.88 3.6-1.84 1.632.042 2.895.793 3.556 2.312.921 2.116.959 4.266-.042 6.378m4.049-5.392c-.41-1.89-1.26-3.523-2.816-4.716C26.7.344 24.675-.083 22.487.184c-2.733.333-4.744 1.723-5.929 4.209-.991 2.08-1.17 4.267-.667 6.524.824 3.699 3.807 6.133 7.585 6.141.163 0 .327.012.488-.003.26-.022.517-.062.775-.095 2.692-.35 4.669-1.735 5.86-4.166.993-2.028 1.167-4.173.689-6.377"/></g></svg>