<svg width="80" height="65" viewBox="0 0 80 65" xmlns="http://www.w3.org/2000/svg"><title>logo_cnbc</title><g fill="none" fill-rule="evenodd"><path d="M39.986 6.215C38.74 3.102 35.702-.26 30.013.202c-7.246.788-9.505 7.732-8.41 11.875-2.886-1.954-7.793-2.813-12.077.856-5.53 5.544-2.572 13.042.468 14.84-3.35-.31-8.647 1.955-9.818 7.878-1.247 7.353 4.36 11.64 9.818 11.64h60.532c6.313 0 9.815-5.46 9.422-10.61-.62-6.722-6.77-9.3-10.125-8.748 2.803-1.564 6.547-8.91.854-14.686-4.518-4.298-10.279-2.734-12.304-.86 1.092-3.59-.699-11.012-8.028-12.186a13.165 13.165 0 0 0-1.459-.087c-5.595 0-8.11 4.09-8.9 6.101" fill="#FFF"/><path d="M10.534 14.103c-3.196 2.893-4.359 9.448 1.402 13.28L34.92 43.153 23.776 17.62c-2.335-6.025-8.724-7.338-13.242-3.518" fill="#F37021"/><path d="M30.318 1.69c-3.735.076-9.345 4.525-6.849 11.319L34.995 40.19l4.05-28.59c.937-7.105-4.439-10.384-8.727-9.91" fill="#CC004C"/><path d="M40.844 10.51h2.18s1.163 0 1.321.55c-.857.7-3.192.787-2.882 4.528l3.664 24.6 11.447-27.254c2.341-6.086-2.573-11.168-6.933-11.323a8.585 8.585 0 0 0-.62-.027c-3.912 0-8.396 2.844-8.177 8.926" fill="#6460AA"/><path d="M56.113 17.853L45.286 43.077l22.977-15.851c5.296-3.757 4.442-9.763 1.477-12.732-1.243-1.397-3.525-2.477-5.942-2.477-2.856 0-5.913 1.515-7.685 5.836" fill="#0089D0"/><path d="M65.69 30.815L44.112 45.886h26.569c5.45 0 8.954-5.62 7.396-10.777-1.043-3.242-4.128-5.787-7.71-5.79-1.507 0-3.106.454-4.677 1.496" fill="#0DB14B"/><path d="M9.915 45.886h26.176L14.508 30.815c-4.986-3.204-10.593-1.33-12.617 3.987C.176 40.888 4.46 45.886 9.915 45.886" fill="#FCB711"/><path d="M.084 56.794c0 2.567 2.099 7.24 10.111 7.24 7.387 0 9.72-3.39 9.72-4.944h-5.719s-.271 2.053-3.497 2.053c-3.229 0-4.102-2.695-4.102-4.253 0-1.552.873-4.101 4.102-4.101 3.226 0 3.497 1.788 3.497 1.788h5.72c0-1.556-1.712-4.898-9.72-4.898-8.013 0-10.112 4.976-10.112 7.115M60.062 56.794c0 2.567 2.1 7.24 10.111 7.24 7.386 0 9.72-3.39 9.72-4.944h-5.715s-.272 2.053-3.5 2.053c-3.228 0-4.102-2.695-4.102-4.253 0-1.552.874-4.101 4.103-4.101 3.227 0 3.5 1.788 3.5 1.788h5.714c0-1.556-1.71-4.898-9.72-4.898-8.01 0-10.11 4.976-10.11 7.115M35.546 49.919v8.689l-6.656-8.69h-7.487v13.764h5.133v-8.79l6.539 8.79h7.604V49.919zM56.194 56.365c.935 0 2.888-1.085 2.888-3.186 0-2.993-5.572-3.26-6.427-3.26H42.39v13.763h10.266c4.938 0 6.922-1.56 6.922-4.165s-3.383-3.152-3.383-3.152zm-8.438-3.77h4.121v.006c.698 0 1.264.46 1.264 1.025 0 .567-.566 1.023-1.264 1.023v.006h-4.12v-2.06zm4.238 7.799v.018h-4.277v-2.527h4.277v.008c.913 0 1.65.561 1.65 1.252 0 .69-.737 1.249-1.65 1.249z" fill="#292526"/></g></svg>