<svg width="140" height="28" viewBox="0 0 140 28" xmlns="http://www.w3.org/2000/svg"><title>logo_experience_verifone</title><g fill="none" fill-rule="evenodd"><path d="M57.327 5.46h5.684l.913-4.62H58.24l-.912 4.62zm-.59 2.972h5.686l-3.611 18.242c-.264.092-1.078.417-2.202.417-1.516 0-2.907-.593-2.907-2.696 0-.396.045-.846.147-1.358 1.13-5.692 2.888-14.605 2.888-14.605zm56.45-.417c-3.784 0-5.288 2.223-5.994 3.577h-.067l.219-3.156h-5.619c-.037.694-.28 2.882-.64 4.768 0 0-1.298 6.622-1.543 7.89-.187.968-.529 2.4-.529 3.231 0 1.77.895 2.767 2.891 2.767 1.12 0 1.926-.308 2.22-.417l1.879-9.501c.52-2.623 2.411-4.34 4.66-4.34 1.815 0 2.682 1.327 2.682 2.413 0 .944-.236 1.991-.419 2.917l-.808 4.068c-.096.488-.302 1.426-.302 2.162 0 1.799 1.01 2.698 2.93 2.698 1.05 0 1.713-.263 2.184-.418l1.686-8.516c.365-1.925.5-2.939.5-4.164 0-3.526-2.055-5.979-5.93-5.979zm-25.252 4.411c-3.178 0-4.938 3.26-4.938 6.165 0 2.45 1.103 4.09 3.61 4.09 2.835 0 5.054-2.42 5.054-6.55 0-1.89-1.003-3.705-3.726-3.705zm-1.676 14.666c-6.087 0-9-3.662-9-8.33 0-6.406 4.384-10.747 11.159-10.747 5.877 0 8.999 3.57 8.999 8.156 0 6.872-4.682 10.921-11.158 10.921zm-21.288-4.393c-.13.657-.212 1.117-.212 1.682 0 2.092 1.393 2.71 2.87 2.71 1.18 0 1.911-.324 2.178-.416l2.734-13.829h4.42l.872-4.414h-4.42l.216-1.087c.4-2.038 1.355-2.935 3.01-2.935 1.105 0 1.998.197 2.309.279L79.78.49C79.426.4 77.792 0 75.375 0 71.523 0 69 2.347 68.253 6.128l-.457 2.304h-2.878l-.873 4.414h2.88s-1.136 5.717-1.954 9.853zM51.884 8.016c-2.853 0-4.422 1.987-5.036 3.573h-.066l.22-3.157h-5.62c-.05 1.095-.278 2.945-.851 5.854-.58 2.948-1.146 5.889-1.73 8.75-.1.49-.144.969-.144 1.374 0 1.5.738 2.68 2.92 2.68 1.08 0 1.831-.282 2.192-.416l1.672-8.457c.602-3.235 1.696-5.374 4.87-5.374 1.444 0 2.816.309 3.103.393l.962-4.866c-.207-.072-1.04-.354-2.492-.354zm82.456 7.81c.304-1.673-.665-3.4-2.857-3.4-2.676 0-3.852 1.835-4.377 3.4h7.234zm2.537 6.788c0 2.537-2.449 4.483-6.784 4.483-5.993 0-8.923-3.746-8.923-8.33 0-4.552 3.01-10.747 10.36-10.747 4.846 0 8.47 2.415 8.47 7.946 0 1.36-.302 2.838-.431 3.43h-12.882c-.02 1.327 1.094 3.627 5.57 3.627 1.996 0 4.256-.708 4.62-.888v.48zM31.623 15.826c.304-1.673-.666-3.4-2.857-3.4-2.677 0-3.852 1.835-4.377 3.4h7.234zm2.537 6.788c0 2.537-2.449 4.483-6.784 4.483-5.993 0-8.923-3.746-8.923-8.33 0-4.552 3.01-10.747 10.36-10.747 4.847 0 8.47 2.415 8.47 7.946 0 1.36-.302 2.838-.432 3.43h-12.88c-.022 1.327 1.092 3.627 5.57 3.627 1.995 0 4.255-.708 4.619-.888v.48zM0 2.224h5.72v18.139c0 2.728 1.352 4.12 3.524 4.12.222 0 .352-.03.395-.04-.952 1.447-2.186 2.632-5.02 2.632-3 0-4.619-2.089-4.619-5.223V2.225z" fill="#221F20"/><path d="M6.774 18.252v1.873c0 1.808.958 2.456 2.005 2.456 1.07 0 1.642-.74 2.167-1.58.88-1.407 11.635-18.743 11.635-18.743h-5.755L6.774 18.252z" fill="#00ADEF"/></g></svg>