<svg width="120" height="32" viewBox="0 0 120 32" xmlns="http://www.w3.org/2000/svg"><title>logo_smashingmag</title><g fill="none" fill-rule="evenodd"><path d="M43.994 12.874c-.57-.3-1.45-.591-2.64-.872-1.19-.28-1.94-.55-2.249-.81-.242-.204-.363-.45-.363-.736 0-.314.129-.564.388-.752.402-.292.959-.438 1.67-.438.688 0 1.205.137 1.55.41.344.272.568.72.673 1.343l2.446-.108c-.039-1.113-.442-2.003-1.21-2.67-.77-.666-1.914-1-3.435-1-.93 0-1.726.141-2.384.422-.658.281-1.162.69-1.512 1.227a3.113 3.113 0 0 0-.525 1.732c0 .958.372 1.771 1.116 2.438.528.474 1.449.873 2.76 1.198 1.02.254 1.672.43 1.959.529.418.149.712.324.88.525.168.201.252.445.252.731 0 .446-.2.836-.6 1.17-.399.333-.992.5-1.78.5-.744 0-1.335-.187-1.773-.562-.438-.375-.729-.962-.872-1.76l-2.38.23c.16 1.356.65 2.388 1.47 3.096.822.708 1.998 1.062 3.53 1.062 1.052 0 1.93-.148 2.636-.442.705-.295 1.25-.745 1.637-1.352a3.568 3.568 0 0 0 .578-1.95c0-.766-.161-1.41-.483-1.93a3.405 3.405 0 0 0-1.34-1.231zm34.172 0c-.57-.3-1.45-.591-2.64-.872-1.19-.28-1.94-.55-2.248-.81-.243-.204-.364-.45-.364-.736 0-.314.13-.564.388-.752.402-.292.959-.438 1.67-.438.688 0 1.205.137 1.55.41.343.272.568.72.673 1.343l2.446-.108c-.039-1.113-.442-2.003-1.21-2.67-.77-.666-1.914-1-3.435-1-.931 0-1.726.141-2.384.422-.659.281-1.163.69-1.512 1.227a3.113 3.113 0 0 0-.525 1.732c0 .958.372 1.771 1.116 2.438.529.474 1.448.873 2.76 1.198 1.019.254 1.672.43 1.958.529.42.149.713.324.88.525.169.201.253.445.253.731 0 .446-.2.836-.6 1.17-.4.333-.993.5-1.78.5-.744 0-1.335-.187-1.773-.562-.438-.375-.729-.962-.872-1.76l-2.38.23c.16 1.356.65 2.388 1.471 3.096.82.708 1.997 1.062 3.529 1.062 1.052 0 1.93-.148 2.636-.442.705-.295 1.25-.745 1.636-1.352a3.568 3.568 0 0 0 .58-1.95c0-.766-.162-1.41-.484-1.93a3.402 3.402 0 0 0-1.34-1.231zm13.796 6.66h2.56V7.418h-2.56v12.116zm11.453-4.025l-5.148-8.091h-2.471v12.116h2.36v-7.901l5.07 7.9h2.548V7.419h-2.36v8.09zm-15.257-3.322h-4.891v-4.77H80.77v12.117h2.497v-5.298h4.891v5.298h2.496V7.418h-2.496v4.769zm-24.343-4.77l-4.46 12.117h2.453l.945-2.752h4.576l1 2.752h2.514L66.26 7.418h-2.444zm-.352 7.323l1.547-4.496 1.577 4.496h-3.124zM52.81 15.783l-2.62-8.365h-3.89V19.68h2.525v-8.41l2.663 8.41h2.617l2.672-8.41v8.41H59.3V7.418h-3.898l-2.594 8.365zm59.959-1.242l.051.042 1.588 1.587 1.312-.147a3.749 3.749 0 0 1-2.766 1.22 3.77 3.77 0 0 1-3.765-3.767 3.77 3.77 0 0 1 3.765-3.766c1.334 0 2.505.698 3.174 1.747l2.21-.758a6.058 6.058 0 1 0-1.12 7.078l-.042 1.162 1.517 1.517 1.236-7.058-7.16 1.143z" fill="#8F9EBC"/><path d="M63.698 27.118h2.074v1.306c-.227.198-.534.368-.92.512a3.233 3.233 0 0 1-1.13.215c-.772 0-1.399-.234-1.88-.701-.482-.468-.723-1.172-.723-2.11 0-.617.112-1.139.338-1.567.225-.428.523-.743.893-.946.37-.202.812-.304 1.325-.304.352 0 .67.056.951.168.282.111.51.265.682.462.172.196.315.492.429.887l.84-.23c-.125-.5-.313-.894-.564-1.181a2.48 2.48 0 0 0-.958-.666c-.387-.156-.84-.234-1.357-.234-.701 0-1.308.135-1.821.404-.513.27-.929.69-1.246 1.258-.317.568-.476 1.235-.476 2.001 0 .757.158 1.405.473 1.945.316.54.743.95 1.284 1.23.54.281 1.155.422 1.845.422a4.27 4.27 0 0 0 2.015-.504v.429h.913v-1.019l.004-.002v-2.608l-2.991.005v.828zm-22.404.617c-.169.491-.294.866-.376 1.124l-.336-1.038-1.676-4.968h-1.405v7.016h.9V23.9l2.047 5.969h.84l2.059-5.867v5.867h.899v-7.016h-1.258l-1.694 4.882zm10.628-4.882l-2.546 7.016h.921l.718-2.125h2.777l.768 2.125h1l-2.704-7.016h-.934zm-.652 4.135l.735-2.058c.155-.443.276-.89.361-1.34.099.374.254.859.467 1.455l.686 1.943H51.27zm22.813-4.135l-2.546 7.016h.922l.717-2.125h2.777l.768 2.125h1l-2.704-7.016h-.934zm-.652 4.135l.735-2.058c.156-.443.276-.89.361-1.34.1.374.255.859.467 1.455l.686 1.943h-2.249zm30.785 1.385l-3.47-5.52h-.895v7.016h.84v-5.52l3.465 5.52h.895v-7.016h-.835v5.52zm7.706.668v-2.388h3.651v-.828h-3.651v-2.144h3.898v-.828h-4.772v7.016h4.926v-.828h-4.052zm-18.942.828h.873v-7.016h-.873v7.016zm-9.081-1.32l3.7-4.868v-.828h-4.727v.828h3.684c-.223.243-.452.52-.686.833l-3.377 4.494v.861h5.216v-.828h-4.211l.4-.493z" fill="#BFC9DB"/><path d="M14.085 18.281c-4.216-1.593-7.757-4.437-7.992-8.14-.15-2.361.444-4.425 1.981-6.162l-6.273 1.5A2.346 2.346 0 0 0 .065 8.307l5.218 21.824a2.347 2.347 0 0 0 2.828 1.737l2.686-.643c-1.042-.345-2.845-1.003-4.572-1.924l2.504-5.68s2.947 2.624 7.178 2.624c4.232 0 6.112-4.966-1.822-7.964m17.587 5.54L26.453 1.997A2.347 2.347 0 0 0 23.625.261L19.13 1.336c1.146.18 3.416.677 5.916 1.988L23.089 8.75s-1.63-1.82-5.998-2.04c-4.152-.211-6.461 4.281 1.637 6.93 6.2 2.027 8.184 5.935 8.081 9.55-.053 1.879-.71 3.407-1.473 4.56l4.6-1.1a2.347 2.347 0 0 0 1.736-2.828" fill="#8F9EBC"/></g></svg>