<svg width="112" height="27" viewBox="0 0 112 27" xmlns="http://www.w3.org/2000/svg"><title>logo_rockport</title><g fill="none" fill-rule="evenodd"><path fill="#8F9EBC" d="M0 26.757h111.176V.29H0z"/><path d="M16.334 12.493c0 .565-.453.678-.566.678h-.792v-1.244h.453c.226 0 .678 0 .905.226v.34zm.452 1.47c.226-.113.339-.113.452-.113 0-.113.113-.227.227-.34.339-.34.339-.791.339-.904 0-.905-.453-1.47-1.244-1.697h-2.941v5.202h1.357v-1.923h.453l1.13 1.923h1.584l-1.357-2.148zM26.964 15.207c-.452 0-.791-.34-.905-.452-.226-.453-.34-1.131-.34-1.244 0-.114 0-1.018.567-1.47.112-.114.339-.226.678-.226.226 0 .34 0 .452.112.678.226.792 1.019.792 1.584 0 .113 0 1.696-1.244 1.696m2.262-3.393c-.678-1.017-1.81-1.13-2.262-1.13-.791 0-1.47.338-2.035.904-.566.791-.566 1.583-.566 1.922 0 .565.113 1.13.453 1.696.678 1.018 1.809 1.018 2.148 1.018.34 0 1.357 0 2.15-.905.565-.678.565-1.47.565-1.809 0-.565-.114-1.13-.453-1.696M39.62 12.72v-.34c-.227-.34-.566-.565-.905-.565-.679 0-1.131.565-1.131 1.696 0 .453.113 1.017.34 1.357.112.113.338.339.79.339.453 0 .793-.339.906-.679 0-.226 0-.34.113-.453h1.244c0 .227 0 .793-.453 1.358-.452.566-1.13.791-1.922.791-.227 0-1.131 0-1.697-.678-.339-.34-.792-.904-.792-2.036 0-.904.34-1.47.453-1.809.34-.34.905-1.017 2.148-1.017 1.245 0 1.81.678 2.036 1.13.113.226.113.452.113.905H39.62zM49.831 10.909v2.037l1.81-2.037h1.583l-2.149 2.375 2.262 2.827h-1.696l-1.81-2.374v2.374h-1.47v-5.202zM74.118 15.207c-.452 0-.792-.34-.905-.452-.226-.453-.227-1.131-.227-1.244 0-.114 0-1.018.453-1.47.113-.114.34-.226.679-.226.226 0 .34 0 .453.112.678.226.79 1.019.79 1.584 0 .113 0 1.696-1.243 1.696m2.262-3.393c-.678-1.017-1.809-1.13-2.262-1.13-.678 0-1.47.338-2.036.904-.565.791-.565 1.583-.565 1.922 0 .565.114 1.13.452 1.696.68 1.018 1.81 1.018 2.15 1.018.452 0 1.47 0 2.148-.905.566-.678.566-1.47.566-1.809a3.19 3.19 0 0 0-.453-1.696M85.6 13.17h-.452v.001h-.34v-1.244h.454c.225 0 .678 0 .904.226 0 .113.113.226.113.34 0 .565-.565.678-.679.678zm1.018.793c.227-.113.34-.113.453-.113 0-.113.226-.227.34-.34.225-.34.225-.791.225-.904 0-.905-.452-1.47-1.244-1.697h-2.94v5.202h1.357v-1.923h.453l1.13 1.923h1.584l-1.358-2.148zM98.422 10.909v1.018h-1.47v4.184h-1.47v-4.184H94.01v-1.018zM62.827 15.207c-.565 0-.905-.34-1.018-.452-.226-.453-.226-1.131-.226-1.244 0-.114 0-1.018.452-1.47.113-.114.34-.226.678-.226.227 0 .34 0 .453.112.678.226.792 1.019.792 1.584 0 .113 0 1.696-1.131 1.696m2.149-3.393c-.679-1.017-1.81-1.13-2.15-1.13-.51 0-1.019.142-1.469.394v-.17h-1.244v10.518h1.244v-5.501c.559.297 1.132.299 1.357.299.453 0 1.47 0 2.149-.905.566-.678.566-1.47.566-1.809a3.19 3.19 0 0 0-.453-1.696" fill="#FFF"/></g></svg>