<svg width="112" height="38" viewBox="0 0 112 38" xmlns="http://www.w3.org/2000/svg"><title>logo_hungrygowhere</title><g fill="none" fill-rule="evenodd"><path fill="#8F9EBC" d="M75.225 20.661h-3.64l-1.27 5.67h-.072l-1.218-5.67h-3.268l-1.166 5.67h-.035l-1.36-5.67h-3.638l2.86 9.166h3.586l1.36-5.635h.035l1.326 5.635h3.584zM94.493 26.03c0-3.569-1.572-5.6-5.21-5.6-2.897 0-4.84 2.174-4.84 4.841 0 3.057 2.208 4.786 5.14 4.786 2.084 0 4.01-.918 4.715-2.897h-3.266c-.284.442-.902.655-1.466.655-1.096 0-1.698-.742-1.785-1.785h6.712zm-6.695-1.818c.16-.99.76-1.537 1.803-1.537.9 0 1.536.689 1.536 1.537h-3.339zM111.2 26.03c0-3.569-1.572-5.6-5.212-5.6-2.896 0-4.838 2.174-4.838 4.841 0 3.057 2.208 4.786 5.14 4.786 2.084 0 4.01-.918 4.715-2.897h-3.268c-.283.442-.9.655-1.465.655-1.096 0-1.696-.742-1.785-1.785h6.713zm-6.694-1.818c.159-.99.759-1.537 1.801-1.537.9 0 1.536.689 1.536 1.537h-3.337z"/><path d="M80.994 28.626l.022-3.601c0-1.062-.124-1.803-1.148-1.803-.6 0-1.396.3-1.396 1.766v4.84h-3.497V19.76c1.983-.256 2.995-1.134 3.505-2.173l.027 4.062c.6-.707 1.379-1.219 2.862-1.219 1.643 0 3.144 1.006 3.144 3.109v6.287h-2.318a1.2 1.2 0 0 1-1.201-1.201M95.865 20.661c-.664 0-1.202.538-1.202 1.203v7.963h3.498v-3.62c0-1.96.741-2.773 2.118-2.773.707 0 1.025.106 1.377.23v-3.092a3.993 3.993 0 0 0-1.024-.14c-1.27 0-2.012.6-2.578 1.694l-.035-1.465h-2.154zM48.898 20.661H45.4v1.113h-.035c-.407-.936-1.379-1.343-2.403-1.343-2.614 0-3.974 1.996-3.974 4.381 0 2.455 1.22 4.468 3.921 4.468 1.043 0 1.89-.459 2.456-1.272h.035v.848c0 .76-.248 2.1-1.378 2.1-.441 0-.812-.352-1.025-.669-.07-.106-.159-.23-.194-.317h-3.461c.318 2.473 2.614 3.055 4.787 3.055 4.291 0 4.768-2.562 4.768-4.38V20.66zm-6.412 4.134c0-.973.495-1.82 1.484-1.82 1.024 0 1.52.795 1.52 1.8 0 1.026-.142 2.263-1.432 2.263-1.254 0-1.572-1.203-1.572-2.243z" fill="#8F9EBC"/><path d="M55.29 25.236c0 .971-.175 2.278-1.5 2.278-1.326 0-1.502-1.307-1.502-2.278 0-.972.176-2.261 1.502-2.261 1.325 0 1.5 1.29 1.5 2.26m3.498 0c0-2.542-1.553-4.804-4.998-4.804-3.444 0-5 2.262-5 4.805 0 2.544 1.556 4.821 5 4.821 3.445 0 4.998-2.277 4.998-4.821" fill="#8F9EBC"/><path d="M20.523 13.515c-2.098 0-3.199.725-4.049 1.726l-.05-7.275h-3.246c-.94 0-1.702.763-1.702 1.703v17.144h4.948v-6.85c0-2.073 1.126-2.499 1.974-2.499 1.45 0 1.626 1.05 1.626 2.549l-.032 5.098c0 .94.761 1.702 1.7 1.702h3.28v-8.897c0-2.976-2.124-4.4-4.449-4.4M35.597 32.327a2.88 2.88 0 1 0-4.07 4.072 2.88 2.88 0 0 0 4.07-4.072" fill="#BFC9DB"/><path d="M32.363 29.982l-.95-.951c5.641-6.93 5.232-17.148-1.225-23.604-6.892-6.894-18.07-6.894-24.964 0-6.893 6.893-6.893 18.069 0 24.96a17.6 17.6 0 0 0 12.48 5.171v-3.65a13.961 13.961 0 0 1-9.898-4.1c-5.468-5.468-5.468-14.334 0-19.801 5.469-5.468 14.332-5.468 19.8 0 5.468 5.467 5.468 14.333 0 19.801l-1.29 1.29 2.263 2.261c.664.666 1.74.666 2.404 0l1.38-1.377zM45.008 14.888c0 .664.538 1.202 1.202 1.202h2.317V9.802c0-2.103-1.501-3.108-3.144-3.108-1.483 0-2.26.51-2.861 1.219l-.036-5.142h-2.295c-.663 0-1.202.54-1.202 1.204V16.09h3.497v-4.84c0-1.465.796-1.766 1.396-1.766 1.025 0 1.147.742 1.147 1.802l-.02 3.602zM50.224 6.924c-.663 0-1.201.538-1.201 1.201v5.086c0 2.102 1.501 3.109 3.143 3.109 1.396 0 2.333-.477 2.985-1.396l.036 1.165h3.373V6.924h-3.497v4.839c0 1.466-.794 1.766-1.397 1.766-1.022 0-1.147-.742-1.147-1.802V6.924h-2.295zM65.14 14.888c0 .664.539 1.202 1.202 1.202h2.296V9.802c0-2.103-1.502-3.108-3.144-3.108-1.396 0-2.331.476-2.986 1.396l-.035-1.166h-2.172c-.663 0-1.202.538-1.202 1.201v7.965h3.498v-4.84c0-1.465.795-1.766 1.396-1.766 1.023 0 1.147.742 1.147 1.802v3.602zM80.225 6.924c-.664 0-1.203.538-1.203 1.201v7.964h3.498v-3.62c0-1.96.742-2.772 2.12-2.772.706 0 1.024.105 1.378.23V6.835a4.007 4.007 0 0 0-1.025-.142c-1.272 0-2.013.602-2.579 1.696l-.036-1.465h-2.153zM87.058 17.857c0 .662.537 1.201 1.2 1.201h.584c1.3-.001 2.622-.037 3.497-1.13.548-.69.864-1.732 1.149-2.544l3.038-8.46h-3.623l-1.482 5.263-1.502-5.264h-3.744l1.553 4.22c.195.532 1.538 3.905 1.538 4.346 0 .407-.124.583-.336.69-.248.123-.707.087-1.06.087h-.812v1.59z" fill="#BFC9DB"/><path d="M78.476 6.924h-3.498v1.111h-.035c-.406-.936-1.377-1.342-2.402-1.342-2.614 0-3.973 1.996-3.973 4.382 0 2.454 1.218 4.467 3.92 4.467 1.042 0 1.89-.458 2.455-1.272h.035v.848c0 .76-.246 2.103-1.377 2.103-.44 0-.812-.354-1.024-.671-.07-.107-.16-.23-.195-.319H68.92c.318 2.474 2.615 3.058 4.787 3.058 4.292 0 4.77-2.562 4.77-4.382V6.924zm-6.41 4.132c0-.971.493-1.82 1.482-1.82 1.025 0 1.518.796 1.518 1.802 0 1.025-.14 2.262-1.429 2.262-1.255 0-1.572-1.201-1.572-2.244z" fill="#BFC9DB"/></g></svg>