<svg width="47" height="57" viewBox="0 0 47 57" xmlns="http://www.w3.org/2000/svg"><title>logo_fastcodesign</title><g fill="#8F9EBC" fill-rule="evenodd"><path d="M.15 47.131V5.477h.368c3.833 0 7.665-.012 11.498.005 2.533.011 5.03.289 7.436 1.143 3.992 1.419 6.536 4.216 7.813 8.217.693 2.175 1.017 4.417 1.049 6.688.037 2.587.047 5.178-.067 7.762-.136 3.123-.736 6.167-2.035 9.04-2.078 4.598-5.624 7.375-10.524 8.47a13.955 13.955 0 0 1-3.135.337c-3.988-.02-7.976-.008-11.965-.008H.149z"/><path d="M21.106.48h25.87v46.629h-19.85c.037-.042.053-.072.078-.087 2.4-1.462 3.993-3.619 5.198-6.098 1.218-2.505 1.931-5.167 2.393-7.902.502-2.966.668-5.957.6-8.962-.091-4.075-.624-8.076-2.128-11.898C31.036 6.49 27.078 2.598 21.297.596c-.068-.024-.135-.052-.202-.078l.01-.039M45.578 54.972V51.96l-.56-.032v-.736h1.89v.733a85 85 0 0 0-.436.032v4.32c-.444 0-.852.015-1.258-.011-.094-.006-.213-.137-.263-.238-.566-1.143-1.121-2.29-1.68-3.436a.944.944 0 0 0-.196-.293v3.233l.59.042v.683h-1.949v-.674l.411-.054v-3.566l-.413-.041v-.755c.413 0 .833.038 1.243-.01.552-.065.843.122 1.061.653.404.983.902 1.927 1.361 2.887.048.098.098.194.147.29l.052-.015M20.747 51.984v3.507c.354 0 .686.025 1.013-.006.589-.054.985-.397 1.06-.974.07-.543.069-1.105.017-1.651-.043-.445-.354-.743-.815-.798-.414-.05-.834-.053-1.275-.078m-1.523 4.273v-.675l.422-.049v-3.567l-.418-.05v-.75h.427c.689.001 1.378-.015 2.066.007 1.409.045 2.167.772 2.26 2.181.025.384-.002.781-.074 1.16-.192 1.014-.871 1.658-1.92 1.73-.905.063-1.818.013-2.763.013M24.668 56.25v-.674l.404-.044v-3.565l-.405-.047v-.724h3.966v1.466H27.8v-.64h-1.64v1.35h1.817v.762h-1.82v1.38h1.686v-.69h.837v1.427h-4.01zM40.738 52.674h-.856c-.011-.083-.028-.157-.03-.23-.011-.528-.01-.528-.55-.562-.96-.06-1.576.464-1.65 1.42a5.49 5.49 0 0 0 .006.83c.083 1.09.738 1.597 1.826 1.452.322-.043.474-.149.43-.496-.031-.237-.007-.48-.007-.753h-.882v-.744h1.906c0 .681.008 1.346-.009 2.01-.002.098-.096.225-.184.285-.861.591-1.8.68-2.757.31-.888-.344-1.314-1.08-1.379-1.992-.036-.51-.012-1.052.129-1.539.28-.974 1.017-1.479 2.008-1.589.578-.064 1.152-.014 1.688.255.218.11.344.247.317.515-.026.262-.006.529-.006.828M29.459 54.775h.874v.825c.438 0 .844.032 1.243-.01.36-.038.546-.292.564-.636.018-.355-.095-.519-.495-.64-.381-.116-.773-.196-1.157-.304-.56-.156-.89-.52-.959-1.103-.077-.655.061-1.241.68-1.573.826-.442 1.67-.36 2.489.047.08.04.165.16.17.249.022.307.009.617.009.945h-.866v-.626c-.407-.128-.796-.143-1.18-.003-.26.095-.36.312-.365.58-.004.268.122.456.368.534.316.1.64.173.964.248 1.012.232 1.397.647 1.376 1.492-.02.885-.524 1.433-1.494 1.57a3.238 3.238 0 0 1-1.944-.301c-.198-.1-.305-.226-.282-.468.024-.263.005-.53.005-.826M11.108 55.49v-.736h.886c0 .32.017.64-.01.956-.008.097-.12.207-.21.274-1.49 1.085-3.685.146-3.897-1.679a4.628 4.628 0 0 1 .025-1.357c.259-1.389 1.397-2.108 2.861-1.858.022.004.043.01.065.015 1.031.198 1.234.491 1.064 1.56h-.855c-.009-.074-.019-.126-.02-.18-.024-.597-.024-.597-.64-.606-.887-.014-1.4.456-1.447 1.338a8.761 8.761 0 0 0-.003.833c.054 1.271.938 1.864 2.181 1.44M13.709 54.354c.036.222.052.478.122.72.118.414.416.62.84.624.425.003.771-.188.845-.603.081-.461.102-.95.047-1.413-.053-.452-.43-.69-.887-.69-.457.002-.768.239-.882.702-.05.202-.055.415-.085.66m2.957-.041c-.008 1.264-.772 2.054-1.986 2.055-1.226 0-1.997-.81-1.99-2.086.006-1.215.801-1.99 2.022-1.974 1.206.016 1.962.792 1.954 2.005M35.414 51.959v3.575l.458.042v.683h-1.994v-.683l.438-.041v-3.578l-.436-.03v-.735h1.993v.727l-.459.04M18.444 55.713a.625.625 0 0 1-.597.632.616.616 0 0 1-.655-.6.637.637 0 0 1 .607-.66c.335-.011.637.284.645.628"/></g></svg>