<svg width="120" height="19" viewBox="0 0 120 19" xmlns="http://www.w3.org/2000/svg"><title>logo_boingboing</title><g fill="#8F9EBC" fill-rule="evenodd"><path d="M20.14 9.284c0-1.341-.002-2.683.003-4.024 0-.142-.027-.191-.18-.188-.447.011-.894.008-1.341.002-.118-.001-.17.014-.17.155.005 2.696.005 5.393 0 8.09 0 .14.053.156.17.154.44-.005.88-.011 1.32.003.173.005.202-.053.201-.21-.006-1.327-.003-2.655-.003-3.982m5.03 9.217H13.426c0-.084.003-.167.003-.251V2.58L13.426.047H25.17l-.003.251v15.628c0 .859.002 1.717.003 2.576M81.377 9.275c0-1.342-.002-2.683.003-4.024 0-.129-.022-.182-.168-.178-.454.01-.908.009-1.362 0-.134-.003-.16.04-.16.165.004 2.69.005 5.38 0 8.07 0 .147.052.167.179.166.44-.007.88-.011 1.32.001.162.005.192-.045.192-.197-.007-1.334-.004-2.669-.004-4.003M74.663.046h11.744l-.002.251v13.93l.002 4.274H74.663c.001-.084.003-.167.003-.251V2.665L74.663.046M108.218.046c3.859 0 7.717.001 11.576-.004.144 0 .173.028.172.172-.006 1.622-.004 3.243-.004 4.865-2.188 0-4.376 0-6.564-.005-.116 0-.153.028-.152.15.003 2.697.003 5.396-.001 8.094 0 .14.049.157.168.155.44-.006.881-.011 1.321.003.172.005.202-.053.201-.21-.005-2.09-.001-4.18-.007-6.27 0-.181.033-.242.232-.241 1.6.008 3.201.003 4.802.002 0 3.859-.001 7.718.004 11.576 0 .144-.028.172-.172.172-3.859-.005-7.717-.004-11.576-.004 0-.084.003-.167.003-.251V4.32c0-1.425-.002-2.85-.003-4.274M58.725 18.501H46.98l.002-.251V2.706l-.002-2.66h11.744c-.001 1.6-.006 3.2.002 4.8 0 .195-.054.235-.24.235-2.096-.007-4.192-.004-6.288-.005-.107 0-.193-.02-.193.151.007 2.698.006 5.395.001 8.092 0 .141.053.156.17.154.44-.005.88-.011 1.32.003.173.005.201-.054.2-.21-.004-2.09.001-4.179-.008-6.268-.001-.21.059-.244.253-.243 1.46.009 2.92.005 4.38.005.4 0 .4 0 .4.4l.003 11.341M94.796.046h11.744c0 .084-.003.168-.003.251V15.8l.003 2.702h-5.033c0-.636.003-1.271.003-1.907 0-3.766-.002-7.532.005-11.297 0-.188-.048-.232-.229-.225-.418.014-.838.012-1.257 0-.161-.004-.208.036-.207.204.008 1.201.004 2.403.004 3.605l.003 9.62h-5.033c.001-.084.003-.167.003-.251V2.748L94.796.046M38.592 18.501h-5.033c0-.084.003-.167.003-.251V2.665L33.558.046h11.744L45.3.297v15.544c0 .887.002 1.773.003 2.66H40.27l.002-1.99c0-3.739-.001-7.477.005-11.214 0-.188-.047-.232-.228-.225-.419.014-.839.012-1.257 0-.162-.004-.208.036-.207.204.008 1.23.004 2.459.004 3.689l.003 9.536M5.034 10.941c0 .79.003 1.579-.003 2.368 0 .125.025.168.16.165.46-.009.921-.007 1.382 0 .125.002.147-.043.147-.155a832.77 832.77 0 0 1 .001-4.736c.001-.142-.054-.155-.17-.153-.447.005-.894.009-1.34-.002-.154-.004-.181.047-.18.188.007.775.003 1.55.003 2.325m6.714 7.56c-3.859 0-7.717 0-11.576.004-.144 0-.172-.028-.172-.172.005-6.04.005-12.08 0-18.12C0 .07.028.042.172.043c1.622.006 3.243.004 4.865.004 0 .769.004 1.538-.007 2.306-.003.172.036.219.214.218 2.096-.007 4.193-.002 6.29-.009.174 0 .216.04.215.216-.005 3.704-.004 7.408-.004 11.112l.003 4.612M67.955 10.95c0-.782-.003-1.565.003-2.347.001-.133-.03-.178-.17-.175-.447.01-.894.008-1.341.001-.127-.002-.18.02-.18.167.007 1.571.006 3.143.002 4.714 0 .126.026.167.16.164.446-.009.894-.012 1.34.002.167.005.19-.052.19-.2-.008-.775-.004-1.55-.004-2.326M61.241.046h5.033c0 .769.004 1.538-.007 2.306-.002.172.036.219.214.218 2.097-.007 4.193-.002 6.29-.009.174 0 .216.04.216.216-.006 3.704-.005 7.408-.004 11.112l.002 4.612H61.241c.001-.084.003-.167.003-.251V2.665L61.241.046M88.085 18.501l.003-11.38c0-.361 0-.361.355-.361 1.488 0 2.976.004 4.464-.005.18 0 .212.05.212.22-.005 3.758-.004 7.516-.004 11.275 0 .084.002.167.003.251h-5.033zM26.848 18.501l.003-11.296c0-.445 0-.445.438-.445 1.46 0 2.92.004 4.38-.005.18 0 .213.05.213.22-.005 3.758-.004 7.516-.004 11.275 0 .084.002.167.003.251h-5.033zM93.118.046c0 1.606-.005 3.212.002 4.818 0 .171-.037.218-.214.217a483.825 483.825 0 0 0-4.63 0c-.159 0-.192-.043-.192-.196.005-1.613.002-3.226.001-4.839h5.033zM31.88.046c0 1.606-.004 3.212.002 4.818 0 .171-.036.218-.214.217a483.825 483.825 0 0 0-4.629 0c-.16 0-.192-.043-.192-.196.005-1.613.002-3.226 0-4.839h5.034z"/></g></svg>