<svg width="80" height="80" viewBox="0 0 80 80" xmlns="http://www.w3.org/2000/svg"><title>logo_experience_anideo</title><g fill="#FF5A00" fill-rule="evenodd"><path d="M0 80h80V0H0v80zm3.174-3.175h73.652V3.174H3.174v73.651z"/><path d="M16.826 65.661v-.979a2.954 2.954 0 0 1-.51.254 4.266 4.266 0 0 1-.707.18l-.6.111c-.561.1-.965.22-1.21.36-.414.24-.622.613-.622 1.118 0 .45.127.775.38.975.253.2.56.3.924.3.575 0 1.105-.167 1.59-.499.485-.333.736-.939.755-1.82zm-.558-2.439c.378-.16.567-.409.567-.748 0-.412-.145-.697-.435-.854-.29-.157-.716-.236-1.278-.236-.631 0-1.077.154-1.34.462-.187.228-.311.536-.374.924h-2.54c.056-.88.303-1.604.742-2.17.699-.888 1.899-1.33 3.6-1.33 1.107 0 2.09.218 2.95.655.86.437 1.29 1.262 1.29 2.475v4.62c0 .32.006.707.018 1.163.018.345.07.58.157.702a.94.94 0 0 0 .388.305v.388h-2.864a2.959 2.959 0 0 1-.166-.573 6.997 6.997 0 0 1-.074-.61c-.365.395-.787.73-1.263 1.007-.57.327-1.215.49-1.933.49-.917 0-1.674-.26-2.272-.78-.598-.52-.896-1.259-.896-2.213 0-1.238.48-2.134 1.442-2.688.527-.302 1.303-.517 2.327-.647l.902-.11c.49-.062.84-.139 1.052-.232zM24.212 64.128c0-.622.085-1.133.256-1.533.33-.758.939-1.137 1.825-1.137.722 0 1.21.259 1.468.776.14.284.21.69.21 1.22v6.124h2.698v-6.78c0-1.262-.33-2.166-.99-2.711-.659-.545-1.506-.818-2.542-.818-.829 0-1.512.203-2.053.61-.3.228-.619.6-.956 1.117v-1.468h-2.55v10.05h2.634v-5.45zM32.852 69.578h2.67V59.509h-2.67zM32.852 58.309h2.67v-2.43h-2.67zM40.498 62.442c.36-.582.925-.873 1.695-.873.505 0 .949.16 1.33.48.622.53.933 1.41.933 2.642 0 .881-.194 1.598-.582 2.152-.388.555-.954.832-1.7.832-.745 0-1.301-.279-1.667-.836-.366-.557-.55-1.3-.55-2.23 0-.863.18-1.585.54-2.167m.92 7.45c.714 0 1.312-.136 1.792-.407.48-.27.908-.705 1.284-1.302v1.395h2.559V55.98h-2.67v4.804a3.21 3.21 0 0 0-1.154-1.113c-.475-.268-1.017-.402-1.626-.402-1.324 0-2.382.493-3.173 1.478-.792.985-1.187 2.337-1.187 4.055 0 1.49.402 2.711 1.205 3.663.804.951 1.794 1.427 2.97 1.427M51.995 61.987c.372-.383.896-.575 1.571-.575.621 0 1.142.181 1.562.543.42.361.653.892.701 1.59h-4.536c.096-.654.33-1.175.702-1.558m-1.881 6.694c1.024.826 2.207 1.239 3.547 1.239 1.623 0 2.886-.49 3.788-1.469.58-.615.905-1.222.976-1.82h-2.688a2.214 2.214 0 0 1-.542.694c-.374.307-.862.462-1.462.462-.565 0-1.049-.128-1.451-.38-.661-.406-1.012-1.114-1.053-2.124h7.333c.013-.87-.016-1.537-.087-1.998-.122-.79-.389-1.484-.802-2.082-.457-.678-1.037-1.175-1.74-1.49-.702-.315-1.491-.471-2.368-.471-1.475 0-2.676.465-3.6 1.396-.925.93-1.387 2.268-1.387 4.012 0 1.861.512 3.206 1.536 4.031M62.759 62.228c.416-.544 1.008-.816 1.778-.816s1.36.272 1.774.816c.413.544.619 1.321.619 2.33 0 1.008-.206 1.786-.62 2.333-.412.547-1.003.821-1.773.821s-1.362-.274-1.778-.82c-.415-.548-.623-1.326-.623-2.335 0-1.008.208-1.785.623-2.329m1.788 7.691c1.73 0 3.02-.524 3.87-1.573.85-1.049 1.275-2.312 1.275-3.789 0-1.452-.425-2.71-1.275-3.775-.85-1.064-2.14-1.597-3.87-1.597-1.731 0-3.021.533-3.871 1.597-.85 1.065-1.275 2.323-1.275 3.775 0 1.477.425 2.74 1.275 3.79.85 1.048 2.14 1.572 3.87 1.572"/></g></svg>