<svg width="96" height="32" viewBox="0 0 96 32" xmlns="http://www.w3.org/2000/svg"><title>logo_ixda</title><g fill="none" fill-rule="evenodd"><path d="M16.803 30.995l-.002.003c.115-.03.171-.132.247-.207 2.539-2.534 5.075-5.07 7.613-7.604.464-.463.769-.46 1.24.012l7.65 7.651c.078.077.164.144.246.216.19.264.444.362.773.357 1.067-.013 2.134-.004 3.202-.005.547 0 .774-.23.775-.785.001-1.068-.006-2.135.004-3.202.004-.316-.085-.566-.345-.749-.066-.074-.127-.153-.197-.223l-7.651-7.661c-.518-.52-.521-.797-.009-1.309 2.537-2.539 5.075-5.077 7.61-7.617.074-.073.189-.12.193-.25.28-.152.402-.388.4-.708-.006-1.07-.002-2.139-.002-3.208 0-.624-.224-.85-.847-.85-1.029-.002-2.058.006-3.087-.005-.347-.003-.628.089-.825.384-.09.08-.182.155-.266.239L25.891 13.1c-.458.457-.77.458-1.223.007l-7.7-7.686c-.07-.07-.149-.132-.223-.197-.177-.264-.424-.373-.74-.371-1.08.005-2.16-.002-3.24.004-.523.003-.767.257-.768.778-.002 1.06.01 2.12-.006 3.18-.005.353.1.622.393.818.06.067.115.137.178.2 2.552 2.562 5.106 5.123 7.66 7.684.476.478.475.779-.01 1.263-2.528 2.53-5.057 5.059-7.584 7.59-.075.075-.177.132-.209.245l.002-.002-.073.064c-.262.178-.358.426-.355.742.01 1.088.002 2.175.004 3.263.002.488.25.735.738.736 1.087.001 2.175-.008 3.262.005.319.004.563-.093.744-.352.037-.011.064-.032.062-.076" fill="#515F67"/><path d="M83.241 7.553l-.075.014c-.035.092-.074.183-.105.277-1.384 4.18-2.765 8.36-4.157 12.537-.093.28-.01.298.236.297 2.699-.008 5.398-.005 8.098-.005h.344l-4.341-13.12zM96 31.415c-1.52.001-3.04-.002-4.56.009-.205.001-.264-.087-.323-.258-.703-2.05-1.418-4.095-2.119-6.145-.078-.23-.173-.32-.432-.318-3.58.01-7.159.01-10.738 0-.239 0-.346.065-.424.294-.694 2.042-1.407 4.077-2.1 6.12-.082.245-.196.31-.441.307-1.38-.012-2.76-.006-4.14-.006-.336 0-.337 0-.224-.312l6.932-19.057c1.252-3.444 2.506-6.886 3.75-10.334.09-.249.202-.325.466-.32 1.04.018 2.08.015 3.12.002.241-.003.356.058.445.302 3.548 9.78 7.106 19.556 10.663 29.333.033.09.039.197.125.263v.12zM0 1.415c1.45-.004 2.9-.006 4.349-.016.159 0 .219.05.2.206-.008.059-.002.12-.002.18 0 9.76 0 19.519.007 29.278 0 .283-.057.367-.354.363-1.4-.019-2.8-.01-4.2-.011v-30z" fill="#8F9EBC"/><path d="M25.56.875c.925.92 1.85 1.838 2.773 2.76.424.422.426.76.005 1.183a630.75 630.75 0 0 1-2.478 2.479c-.415.413-.752.413-1.16.006-.835-.832-1.668-1.665-2.5-2.5-.4-.401-.404-.744-.013-1.137a825.04 825.04 0 0 1 2.52-2.52c.098-.097.209-.181.313-.271h.54z" fill="#BFC9DB"/><path d="M38.152 9.623c-.004.128-.12.176-.192.249-2.536 2.54-5.074 5.078-7.611 7.617-.512.512-.51.79.009 1.309l7.65 7.661c.07.07.132.149.198.223-.107-.02-.214-.06-.322-.06-1.156-.004-2.312-.009-3.468.002-.362.003-.637.253-.638.586-.005 1.285-.04 2.57.019 3.856-.082-.072-.168-.14-.245-.216L25.9 23.2c-.471-.472-.776-.475-1.24-.012-2.538 2.535-5.074 5.07-7.613 7.604-.076.075-.132.177-.247.207l-.004-3.56c0-.568-.25-.819-.818-.82l-3.56-.003c.032-.113.134-.17.21-.245 2.526-2.531 5.055-5.06 7.583-7.59.485-.484.486-.785.01-1.263-2.554-2.561-5.108-5.122-7.66-7.684-.063-.063-.119-.133-.178-.2 1.218.004 2.435.009 3.652.01.524.001.76-.24.76-.773.002-1.008 0-2.016.003-3.024 0-.21-.007-.417-.054-.622.074.065.152.127.223.197l7.7 7.686c.453.451.765.45 1.223-.007l7.634-7.626c.084-.084.177-.16.265-.24-.066.417-.057.837-.056 1.256.002.73-.002 1.459.003 2.188 0 .159.012.32.046.475.06.283.24.481.534.482 1.278.007 2.557-.006 3.835-.012" fill="#BFC9DB"/><path d="M38.152 9.623c-1.278.006-2.557.019-3.835.012-.293-.001-.474-.199-.534-.482a2.352 2.352 0 0 1-.046-.475c-.005-.73-.001-1.459-.003-2.188 0-.42-.01-.839.056-1.255.198-.295.48-.387.826-.384 1.029.01 2.058.003 3.087.004.623 0 .847.227.847.851 0 1.07-.004 2.139.002 3.208.002.32-.12.556-.4.709M12.419 26.615l3.56.003c.569.001.817.252.818.82l.004 3.56.002-.003c-.045.005-.057.038-.062.076-.181.26-.425.356-.744.352-1.087-.013-2.175-.004-3.262-.005-.487-.001-.736-.248-.738-.736-.002-1.088.006-2.175-.004-3.263-.003-.316.093-.564.356-.742.037-.006.069-.019.072-.064l-.002.002M16.745 5.224c.047.205.054.412.054.622-.004 1.008 0 2.016-.002 3.024-.001.533-.237.774-.76.773-1.218-.001-2.435-.006-3.653-.01-.292-.196-.398-.465-.393-.818.016-1.06.004-2.12.006-3.18 0-.521.245-.775.768-.778 1.08-.006 2.16.001 3.24-.004.316-.002.563.107.74.37M33.797 31.066c-.06-1.285-.024-2.57-.019-3.856.001-.333.276-.583.638-.586 1.156-.01 2.312-.006 3.468-.002.108 0 .215.04.322.06.26.183.349.433.345.749-.01 1.067-.003 2.134-.004 3.202 0 .554-.228.785-.775.785-1.068 0-2.135-.008-3.202.005-.329.005-.582-.093-.773-.357M62.594 18.717c-.008 1.12-.014 2.24-.18 3.35-.383 2.555-2.268 4.47-4.823 4.909a9.578 9.578 0 0 1-1.64.138c-1.71-.003-3.42-.01-5.13.006-.298.003-.353-.086-.353-.366.01-3.45.007-6.899.007-10.348 0-3.46.003-6.919-.006-10.378 0-.252.043-.34.322-.337 1.849.02 3.699.005 5.548.027 1.425.017 2.755.35 3.851 1.33 1.339 1.195 2.132 2.665 2.275 4.477.189 2.395.144 4.794.129 7.192m4.538-5.648c-.016-1.21-.058-2.421-.325-3.607-1.038-4.6-5.056-7.936-9.794-8.032-3.578-.072-7.159-.02-10.738-.034-.28-.002-.364.053-.364.351.011 4.89.008 9.779.008 14.668 0 4.9.002 9.799-.006 14.698 0 .252.068.311.314.31 3.36-.007 6.719-.001 10.078-.007a10.88 10.88 0 0 0 3.622-.597c3.25-1.145 5.447-3.374 6.63-6.588.438-1.19.473-2.467.53-3.726.111-2.478.077-4.957.045-7.436" fill="#8F9EBC"/></g></svg>