<svg width="80" height="46" viewBox="0 0 80 46" xmlns="http://www.w3.org/2000/svg"><title>logo_up</title><path d="M40.497 28.459c-.076 4.439-1.413 8.533-4.696 11.757-2.47 2.426-5.53 3.716-8.865 4.418-.977.206-1.954.44-2.966.408-.31.14-.634.143-.963.117l-.951.027c-1.191.194-2.382.174-3.574-.002l-.816-.021c-.324-.011-.663.095-.964-.115-7.95-.61-14.312-4.564-16.103-12.673a23.466 23.466 0 0 1-.58-5.003C-.001 18.724.013 10.076 0 1.428 0 .988.054.8.574.8c13.21.016 26.421.012 39.633.013.044 0 .088.01.135.015.108.216-.1.274-.2.368C34.354 6.7 28.564 12.197 22.785 17.708c-.166.157-.727.33-.202.686.355.24.509 1.037 1.243.333 5.379-5.17 10.792-10.303 16.196-15.446.116-.109.24-.208.36-.312l.135-.072.016.24c.009.09.024.18.024.27-.007 8.352.082 16.704-.06 25.052zm39.367-13.805c.165 1.318.164 2.634.08 3.955.022.238.04.475-.1.69l-.03.405c.006.05.011.098.014.146a.578.578 0 0 1-.122.407l-.013.135-.013.133a.753.753 0 0 1 .007.169.414.414 0 0 1-.111.251c-.62 3.279-2.259 5.936-4.935 7.923-2.47 1.834-5.313 2.68-8.345 2.88-3.37.224-6.748.126-10.122.086-.58-.007-.435.324-.436.606-.006 3.195-.002 6.39-.005 9.584 0 1.003-.012 2.006-.019 3.01-.002.204-.138.156-.258.138-.477.008-.955.024-1.432.024-7.374.002-14.748.002-22.122 0-.273 0-.545-.017-.818-.027h-.726a7.712 7.712 0 0 1-.037-.097l.741-.26c3.726-1.483 6.646-3.897 8.59-7.435.288-.524.544-1.06.77-1.604.678-1.633 1.098-3.35 1.374-5.111l.006-.147.113-.818.098-.828.04-1.225c-.007-4.692-.016-9.384-.02-14.075-.004-3.549 0-7.097.15-10.782l.468.604c2.881 2.725 5.766 5.446 8.645 8.174 2.499 2.369 5.019 4.716 7.467 7.136.707.699.889-.002 1.249-.269.536-.397-.028-.576-.214-.753-5.74-5.478-11.493-10.943-17.244-16.41-.124-.118-.26-.226-.526-.457h.648c6.248 0 12.497-.033 18.744.013 3.318.025 6.568.547 9.625 1.91 5.176 2.308 8.11 6.293 8.819 11.919z" fill="#C0282E" fill-rule="evenodd"/></svg>