<svg width="59" height="71" viewBox="0 0 59 71" xmlns="http://www.w3.org/2000/svg"><title>logo_fastcodesign</title><g fill="none" fill-rule="evenodd"><path d="M-8-2h75v75H-8V-2z"/><path d="M.187 58.914V6.847h.46c4.791 0 9.582-.015 14.373.006 3.166.013 6.288.36 9.295 1.429 4.99 1.773 8.17 5.27 9.766 10.27.867 2.72 1.27 5.522 1.311 8.36.047 3.234.059 6.474-.083 9.703-.17 3.904-.92 7.71-2.544 11.3-2.598 5.748-7.03 9.219-13.155 10.587-1.291.288-2.59.429-3.919.422-4.985-.025-9.97-.01-14.956-.01H.187z" fill="#000"/><path d="M26.382.599H58.72v58.287H33.908c.045-.053.066-.09.096-.109 3.002-1.828 4.992-4.523 6.498-7.622 1.523-3.131 2.415-6.459 2.992-9.878.627-3.708.834-7.446.75-11.202-.115-5.094-.78-10.095-2.66-14.873C38.794 8.112 33.848 3.247 26.62.744c-.084-.03-.168-.064-.252-.096l.013-.049M56.972 68.715V64.95l-.7-.04v-.92h2.364v.916l-.546.04v5.4c-.555 0-1.065.02-1.572-.014-.118-.007-.267-.17-.33-.297-.707-1.428-1.4-2.863-2.098-4.296a1.18 1.18 0 0 0-.247-.366v4.042l.738.053v.853h-2.436v-.843l.514-.067v-4.457l-.517-.052v-.944c.516 0 1.042.048 1.554-.012.69-.08 1.054.152 1.327.817.504 1.228 1.127 2.408 1.7 3.608.06.122.123.242.184.364l.065-.02M25.934 64.98v4.383c.442 0 .857.032 1.266-.006.736-.069 1.232-.497 1.326-1.218a9.31 9.31 0 0 0 .02-2.064c-.053-.556-.443-.928-1.018-.998-.517-.062-1.042-.066-1.594-.097M24.03 70.32v-.843l.527-.061v-4.46l-.522-.062v-.937h.534c.86 0 1.722-.019 2.582.008 1.762.057 2.71.966 2.825 2.727.032.48-.002.976-.092 1.449-.24 1.269-1.09 2.073-2.4 2.163-1.131.078-2.273.016-3.454.016M30.835 70.313v-.843l.505-.054v-4.457l-.507-.06v-.904h4.958v1.833h-1.043v-.8H32.7v1.686h2.27v.953h-2.275v1.725h2.107v-.861h1.046v1.782h-5.013zM50.923 65.842h-1.07c-.015-.104-.035-.195-.037-.288-.015-.66-.015-.66-.689-.702-1.2-.074-1.97.58-2.062 1.775-.026.344-.02.694.007 1.039.104 1.362.923 1.995 2.282 1.814.403-.053.594-.186.537-.62-.038-.297-.007-.601-.007-.94H48.78v-.93h2.382c0 .85.01 1.681-.01 2.512-.003.122-.12.28-.231.356-1.076.739-2.249.85-3.446.387-1.11-.43-1.642-1.35-1.723-2.49-.046-.637-.015-1.316.16-1.924.351-1.218 1.272-1.849 2.51-1.986.723-.08 1.44-.018 2.111.318.272.137.43.31.395.644-.032.328-.006.661-.006 1.035M36.824 68.469h1.092V69.5c.548 0 1.056.04 1.554-.012.45-.048.683-.365.705-.796.022-.444-.119-.648-.62-.8-.475-.145-.965-.245-1.445-.38-.7-.194-1.113-.649-1.199-1.379-.096-.819.077-1.55.85-1.965 1.033-.553 2.087-.451 3.111.058.101.05.206.201.214.311.026.384.01.771.01 1.182h-1.083v-.783c-.508-.16-.995-.178-1.475-.003-.324.118-.448.39-.455.725-.006.334.151.57.459.667.395.124.8.216 1.205.31 1.265.29 1.747.809 1.72 1.865-.026 1.106-.654 1.79-1.868 1.962-.839.119-1.659.01-2.43-.376-.246-.125-.38-.283-.352-.584.03-.33.007-.663.007-1.033M13.885 69.362v-.919h1.107c0 .4.022.8-.012 1.194-.01.122-.15.26-.263.343-1.86 1.356-4.605.182-4.87-2.099-.065-.558-.071-1.147.03-1.695.324-1.737 1.747-2.636 3.577-2.323.028.004.054.013.08.018 1.29.247 1.544.614 1.33 1.95h-1.067c-.012-.092-.024-.158-.027-.225-.028-.746-.028-.746-.798-.758-1.11-.017-1.75.57-1.81 1.674-.018.345-.017.694-.003 1.04.067 1.59 1.172 2.33 2.726 1.8M17.136 67.942c.045.277.066.598.153.901.147.517.52.774 1.05.779.531.004.963-.235 1.056-.754a6.14 6.14 0 0 0 .059-1.765c-.067-.566-.538-.863-1.109-.862-.571.001-.96.298-1.103.877-.061.252-.069.519-.106.824m3.696-.051c-.01 1.58-.965 2.568-2.482 2.569-1.532 0-2.497-1.011-2.488-2.608.008-1.518 1.002-2.488 2.528-2.467 1.508.02 2.452.99 2.442 2.506M44.268 64.949v4.468l.572.053v.853h-2.493v-.852l.548-.052v-4.473l-.545-.036v-.92h2.492v.908l-.574.05M23.055 69.641a.78.78 0 0 1-.746.79.77.77 0 0 1-.819-.75.796.796 0 0 1 .758-.825c.419-.014.797.355.807.785" fill="#000"/></g></svg>