<svg width="150" height="24" viewBox="0 0 150 24" xmlns="http://www.w3.org/2000/svg"><title>logo_boingboing</title><path d="M25.175 11.605c0-1.677-.003-3.353.004-5.03 0-.177-.034-.24-.225-.234a44.57 44.57 0 0 1-1.677.002c-.147-.002-.212.017-.211.193.006 3.37.006 6.742 0 10.113 0 .176.065.195.212.193.55-.008 1.1-.015 1.65.002.215.007.252-.066.251-.261-.007-1.66-.004-3.319-.004-4.978m6.287 11.521h-14.68c.002-.104.004-.209.004-.314V3.226c0-1.056-.002-2.112-.004-3.168h14.68c0 .104-.003.209-.003.314v19.534l.003 3.22m70.259-11.533c0-1.676-.002-3.353.004-5.03 0-.16-.027-.226-.21-.222-.567.013-1.135.011-1.702 0-.168-.003-.2.05-.2.206.005 3.363.005 6.725 0 10.087-.001.184.064.21.223.208.55-.008 1.1-.014 1.65.002.203.006.24-.056.24-.246-.008-1.668-.005-3.336-.005-5.005M93.33.058h14.68c-.001.104-.003.209-.003.314v17.413l.003 5.341H93.33c.001-.104.004-.209.004-.314V3.331c0-1.091-.003-2.182-.004-3.273m41.942 0c4.824 0 9.647 0 14.47-.005.18 0 .216.035.216.214-.008 2.028-.005 4.055-.005 6.082-2.735-.001-5.47-.001-8.205-.006-.145 0-.191.035-.191.186.004 3.373.005 6.746-.001 10.118 0 .175.062.197.21.195.55-.008 1.102-.015 1.652.002.215.007.251-.065.25-.26-.005-2.613 0-5.226-.008-7.839 0-.227.04-.303.29-.302 2 .011 4.002.005 6.003.003 0 4.824-.002 9.647.005 14.47 0 .18-.036.216-.215.216-4.824-.007-9.647-.006-14.47-.006 0-.104.003-.209.003-.314V5.4c0-1.78-.002-3.56-.004-5.341M73.406 23.126h-14.68c0-.104.003-.209.003-.314V3.383L58.726.058h14.68c-.001 2-.007 4 .003 6 0 .244-.068.294-.3.293-2.62-.009-5.24-.005-7.86-.006-.134 0-.242-.025-.241.19.008 3.37.007 6.742.001 10.114 0 .176.066.194.212.193.55-.008 1.101-.015 1.65.003.217.006.252-.068.251-.263-.006-2.611 0-5.223-.011-7.834-.001-.263.074-.305.316-.304 1.825.011 3.65.006 5.476.006.5 0 .5 0 .5.5 0 4.726.002 9.451.003 14.176M118.495.058h14.68c-.001.104-.003.209-.003.314v19.377c0 1.126.002 2.252.003 3.377h-6.291c0-.794.003-1.589.003-2.384 0-4.707-.002-9.414.006-14.121 0-.235-.059-.29-.285-.281-.524.018-1.048.015-1.572 0-.201-.005-.26.045-.258.255.01 1.502.004 3.004.005 4.506 0 4.008.002 8.017.004 12.025h-6.292c.001-.104.004-.209.004-.314V3.435c0-1.126-.003-2.251-.004-3.377M48.24 23.126h-6.292c.002-.104.004-.209.004-.314V3.331c0-1.091-.002-2.182-.004-3.273h14.68c0 .104-.003.209-.003.314v19.43c0 1.108.002 2.216.004 3.324h-6.292l.004-2.488c0-4.673-.002-9.345.006-14.017 0-.235-.06-.29-.286-.281-.523.018-1.048.015-1.572 0-.201-.005-.26.045-.258.255.01 1.537.005 3.074.005 4.61l.004 11.921M6.293 13.677c0 .986.003 1.973-.004 2.96 0 .155.03.21.2.206a48.34 48.34 0 0 1 1.728 0c.155.002.183-.054.183-.195-.004-1.973-.005-3.946.002-5.92 0-.177-.068-.193-.213-.191-.559.007-1.118.012-1.676-.002-.192-.005-.226.058-.224.235.008.969.004 1.938.004 2.907m8.392 9.45c-4.823 0-9.647-.002-14.47.005-.18 0-.215-.036-.215-.215.006-7.55.006-15.1 0-22.65C0 .087.035.052.215.052c2.027.009 4.054.006 6.081.006 0 .96.005 1.922-.009 2.882-.003.215.045.273.268.273 2.62-.01 5.241-.003 7.862-.011.217-.001.27.05.27.269-.007 4.63-.006 9.26-.005 13.89 0 1.922.002 3.844.003 5.765m70.259-9.439c0-.977-.004-1.955.004-2.933.001-.167-.038-.222-.213-.219-.559.012-1.118.01-1.677.002-.158-.003-.224.023-.223.207.007 1.965.006 3.93 0 5.894 0 .157.034.208.2.205a33.016 33.016 0 0 1 1.677.001c.208.007.238-.065.236-.25-.009-.968-.004-1.937-.004-2.907M76.552.057h6.291c-.001.962.005 1.923-.009 2.883-.003.215.045.274.267.273 2.621-.01 5.242-.003 7.863-.011.217-.001.27.05.27.269-.008 4.63-.006 9.26-.006 13.89 0 1.922.003 3.844.004 5.766h-14.68l.003-.315V3.331L76.552.058m33.554 23.068l.004-14.225c0-.451 0-.451.444-.451 1.86 0 3.72.005 5.58-.006.224-.001.265.062.265.274-.006 4.698-.005 9.396-.005 14.094 0 .105.003.21.004.314h-6.292zm-76.546 0l.003-14.12c0-.556 0-.556.549-.556 1.825 0 3.65.005 5.475-.006.225-.001.266.062.265.274-.006 4.698-.005 9.396-.004 14.094 0 .105.002.21.003.314H33.56zM116.398.058c-.001 2.007-.006 4.014.001 6.022.001.214-.045.272-.267.271a604.78 604.78 0 0 0-5.786 0c-.2 0-.241-.053-.24-.245.006-2.016.002-4.032 0-6.048h6.292zm-76.547 0c-.001 2.007-.006 4.014.002 6.022 0 .214-.046.272-.267.271a604.78 604.78 0 0 0-5.787 0c-.2 0-.24-.053-.24-.245.006-2.016.002-4.032 0-6.048h6.292z" fill="#FE0000" fill-rule="evenodd"/></svg>