<svg width="150" height="40" viewBox="0 0 150 40" xmlns="http://www.w3.org/2000/svg"><title>logo_experience_singaporebrides</title><g fill="#000" fill-rule="evenodd"><path d="M77.357 37.452c.87-.049 1.685-.05 2.488-.155.589-.076 1.199-.204 1.733-.452 3.241-1.505 4.13-6.088 1.748-8.762-1.636-1.836-3.781-1.829-5.969-1.812v11.181zm-2.38-13.53c2.036.105 4.048.08 6.023.342 2.967.394 5.204 2.656 5.86 5.79.757 3.616-.642 7.219-4.288 8.86-.714.322-1.516.551-2.294.61-1.749.135-3.508.135-5.302.191V23.921zM34.868 26.263v4.508c1.102-.077 2.264.11 2.908-1.026.454-.802.513-1.714.046-2.52-.666-1.15-1.854-.912-2.954-.962zm-.025 11.146c.538 0 1.023.014 1.508-.004a8.163 8.163 0 0 0 1.115-.107c1.21-.212 1.903-1.002 1.956-2.196.047-1.055-.615-2.027-1.667-2.21-.947-.164-1.923-.157-2.912-.227v4.744zM32.45 23.931c1.583.096 3.141.074 4.66.308 2.71.418 4.144 3.648 2.726 6-.235.389-.618.69-.946 1.047.019.01.081.054.15.076 2.094.674 2.889 2.382 2.691 4.434-.207 2.154-1.703 3.558-4.123 3.747-1.698.132-3.413.025-5.158.025V23.931zM93.587 24.037h8.56v2.235h-6.171v3.958h5.99v2.25h-5.984v4.929h6.171v2.22h-8.566zM110.64 34.852c.127.47.198.908.363 1.307.481 1.169 1.423 1.692 2.736 1.57 1.096-.103 1.944-.828 2.18-1.865.28-1.226-.151-2.325-1.23-2.923-.694-.384-1.45-.657-2.167-1.001-.586-.28-1.19-.542-1.727-.9-1.45-.969-2.033-2.532-1.617-4.17.409-1.607 1.822-2.853 3.45-3.049 1.286-.154 2.533-.113 3.67.624.73.473 1.247 1.119 1.662 1.916l-1.871 1.098c-.205-.278-.373-.56-.592-.793-.965-1.03-2.989-.957-3.728.122-.53.772-.442 1.688.287 2.273.373.3.823.517 1.262.722.825.384 1.686.694 2.497 1.103 3.613 1.822 2.977 6.07 1.02 7.822-1.09.978-2.406 1.29-3.845 1.249-2.53-.07-4.205-2.09-4.573-4.036-.073-.389-.056-.632.44-.694.607-.075 1.202-.248 1.783-.375M64.84 39.633h2.308v-15.6H64.84zM50.682 31.267v-5.039c1.146.013 2.307-.112 3.295.662.719.563.866 1.353.74 2.2-.15.992-.794 1.616-1.715 1.862-.727.195-1.501.211-2.32.315m2.897 1.725l.325-.108c2.186-.712 3.263-2.357 3.112-4.755-.127-2.023-1.544-3.619-3.718-3.91-1.637-.219-3.306-.195-5-.28v15.7h2.369v-6.35l.133-.103c.168.131.38.232.497.398 1.355 1.913 2.693 3.838 4.043 5.753.094.133.252.307.384.312.872.028 1.745.014 2.72.014-1.65-2.263-3.244-4.45-4.865-6.671M26.69 0l11.298 11.831V1.055h2.39v16.543L29.09 5.778v10.854h-2.4V0zM60.184 10.735h-3.896V8.578h6.425c-.014 2.128-.42 4.102-1.783 5.805-1.42 1.774-3.325 2.451-5.518 2.588-4.732.296-7.334-3.29-7.865-6.496-.344-2.076-.082-4.075 1.015-5.89C50.195 1.88 52.702.717 55.788.758c2.348.032 4.402.81 5.944 2.676.154.186.287.388.47.637l-1.827 1.284c-.57-.52-1.064-1.046-1.63-1.473-2.293-1.73-7.195-1.278-8.558 2.812-.917 2.75-.118 5.697 2.038 7.189 2.18 1.508 6.32 1.36 7.689-2.113.122-.31.172-.65.27-1.035M143.378 14.416h6.163v2.226h-8.569V1.062h8.57v2.203h-6.167v3.98h5.99V9.48h-5.987zM2.22 11.867c.189.57.296 1.087.523 1.545.522 1.055 1.49 1.484 2.79 1.313.978-.128 1.765-.865 2.008-1.88.264-1.104-.117-2.176-1.053-2.78-.447-.29-.951-.491-1.435-.723-.834-.401-1.722-.716-2.5-1.206C.275 6.703.003 3.82 1.937 1.946 2.783 1.128 3.85.827 5.007.75c2.001-.132 3.734.844 4.553 2.634L7.7 4.474c-.056-.077-.111-.132-.145-.199C6.84 2.88 5.325 2.791 4.31 3.097c-.666.2-1.064.695-1.206 1.355-.141.655.043 1.247.6 1.647.379.272.8.495 1.225.692.81.376 1.655.682 2.454 1.08 3.672 1.826 3.034 6.05 1.11 7.807-1.252 1.144-2.76 1.38-4.413 1.24C2.248 16.762.073 14.788 0 12.355l2.22-.488M17.047 16.65h2.337V1.05h-2.337zM109.747 14.77c-3.392-.024-5.758-2.477-5.74-5.951.02-3.447 2.415-5.877 5.777-5.86 3.441.018 5.761 2.463 5.733 6.044-.026 3.355-2.463 5.79-5.77 5.767m.061-14.028c-4.625-.03-8.162 3.441-8.18 8.027-.017 4.698 3.428 8.19 8.094 8.204 4.672.014 8.168-3.434 8.18-8.068.01-4.657-3.436-8.134-8.094-8.163M127.34 8.283V3.244c.943-.023 1.869-.057 2.74.319.943.406 1.348 1.149 1.306 2.283-.036.955-.62 1.802-1.628 2.085-.763.215-1.58.238-2.418.352m2.894 1.726c.182-.067.3-.115.42-.154 1.954-.636 3.085-2.252 3.036-4.336-.05-2.102-1.274-3.708-3.278-4.201-.704-.173-1.444-.242-2.172-.272-1.098-.044-2.2-.011-3.299-.011V16.65h2.358v-6.307l.161-.142c.165.131.372.232.488.397 1.344 1.9 2.67 3.811 4.012 5.713.103.146.272.34.416.345.871.032 1.744.016 2.715.016l-4.857-6.664M72.238 10.6l2.392-5.257 2.303 5.256h-4.695zM74.725.108l-7.79 16.566c.796 0 1.512-.014 2.227.006.272.008.402-.09.508-.333.452-1.027.933-2.04 1.38-3.07.12-.274.255-.398.572-.396 1.97.014 3.941.014 5.912 0 .292-.002.43.099.54.361a98.616 98.616 0 0 0 1.344 3.085c.069.15.282.324.436.33.73.036 1.464.016 2.285.016L74.725.11zM94.13 5.797c-.035 1.042-.688 1.917-1.745 2.14-.751.158-1.538.152-2.334.222-.02-.195-.038-.289-.038-.382-.002-1.496-.001-2.993-.001-4.632.882.105 1.739.107 2.537.324 1.149.313 1.622 1.112 1.581 2.328m-1.148-4.54c-1.743-.26-3.531-.223-5.34-.319v15.71h2.377v-6.251c.981-.094 1.911-.125 2.819-.282 2.098-.361 3.581-2.224 3.599-4.434.017-2.163-1.394-4.117-3.456-4.424"/></g></svg>