<svg width="120" height="32" viewBox="0 0 120 32" xmlns="http://www.w3.org/2000/svg"><title>logo_singaporebrides</title><g fill="#8F9EBC" fill-rule="evenodd"><path d="M61.886 29.962c.695-.04 1.348-.04 1.99-.124.471-.061.96-.163 1.386-.362 2.594-1.204 3.304-4.87 1.399-7.01-1.309-1.468-3.025-1.462-4.775-1.45v8.946zm-1.905-10.825c1.63.085 3.24.065 4.819.275 2.374.314 4.164 2.124 4.688 4.631.606 2.893-.514 5.775-3.43 7.089a5.606 5.606 0 0 1-1.835.488c-1.4.107-2.807.108-4.242.152V19.137zM27.894 21.01v3.607c.882-.062 1.811.087 2.326-.821.364-.642.411-1.371.038-2.016-.534-.92-1.484-.73-2.364-.77zm-.02 8.917c.43 0 .819.011 1.206-.003a6.53 6.53 0 0 0 .892-.085c.968-.17 1.523-.802 1.565-1.757.038-.845-.492-1.622-1.333-1.768-.758-.132-1.539-.126-2.33-.182v3.795zM25.96 19.145c1.267.076 2.514.059 3.728.246 2.17.335 3.316 2.919 2.181 4.8-.188.311-.494.552-.757.838.016.008.066.043.121.06 1.675.54 2.31 1.906 2.153 3.548-.166 1.723-1.363 2.846-3.3 2.997-1.357.106-2.73.02-4.126.02V19.146zM74.87 19.23h6.847v1.788h-4.936v3.166h4.791v1.8h-4.786v3.943h4.937v1.777H74.87zM88.512 27.882c.102.376.159.726.29 1.045.385.935 1.139 1.354 2.19 1.256.876-.082 1.555-.662 1.743-1.492.224-.98-.12-1.86-.983-2.338-.556-.308-1.16-.526-1.735-.801-.468-.225-.951-.434-1.38-.72-1.161-.775-1.628-2.025-1.294-3.336.326-1.285 1.457-2.283 2.76-2.439 1.028-.124 2.026-.09 2.936.499.584.379.997.895 1.33 1.533l-1.498.878c-.164-.222-.298-.447-.474-.634-.771-.825-2.39-.766-2.982.098-.423.617-.353 1.35.23 1.818.298.24.658.413 1.01.577.66.308 1.348.556 1.997.883 2.89 1.457 2.381 4.855.816 6.258-.873.782-1.925 1.03-3.076.998-2.024-.056-3.364-1.672-3.658-3.228-.059-.311-.045-.506.351-.555.486-.06.962-.199 1.427-.3M51.872 31.707h1.846v-12.48h-1.846zM40.546 25.014v-4.031c.917.01 1.845-.09 2.636.529.575.45.693 1.083.591 1.76-.119.794-.634 1.293-1.372 1.49-.58.155-1.2.169-1.855.252m2.317 1.38l.26-.087c1.75-.57 2.61-1.886 2.49-3.804-.102-1.618-1.236-2.895-2.975-3.128-1.309-.175-2.644-.156-4-.224v12.56h1.895v-5.08l.107-.082c.135.105.303.185.398.318 1.083 1.53 2.154 3.07 3.234 4.603.075.106.201.245.307.249.698.022 1.396.012 2.176.012l-3.892-5.338M21.353 0l9.037 9.465V.844h1.912v13.234l-9.03-9.455v8.683h-1.92V0zM48.147 8.588H45.03V6.863h5.14c-.01 1.702-.335 3.281-1.426 4.643-1.136 1.42-2.66 1.961-4.414 2.07-3.786.238-5.868-2.631-6.293-5.196-.275-1.661-.065-3.26.812-4.712C40.156 1.505 42.161.573 44.631.607c1.878.025 3.52.648 4.755 2.14.123.149.229.31.375.51L48.3 4.284c-.457-.416-.851-.837-1.305-1.179-1.834-1.384-5.755-1.022-6.846 2.25-.733 2.2-.094 4.558 1.63 5.751 1.745 1.207 5.057 1.088 6.152-1.69.098-.249.138-.52.216-.828M114.703 11.533h4.93v1.78h-6.855V.85h6.856v1.763H114.7v3.184h4.793v1.788h-4.79zM1.777 9.494c.15.456.236.87.418 1.236.417.843 1.19 1.187 2.23 1.05.784-.103 1.414-.692 1.608-1.504.211-.883-.094-1.741-.842-2.224-.358-.231-.761-.393-1.148-.579-.668-.32-1.378-.572-2-.964C.22 5.363.002 3.056 1.55 1.557 2.227.902 3.08.661 4.006.6c1.6-.105 2.987.675 3.642 2.107l-1.488.872c-.045-.061-.089-.106-.116-.159-.571-1.117-1.784-1.187-2.595-.943-.533.161-.851.556-.965 1.085-.113.523.035.997.48 1.317.303.218.64.396.98.554.649.3 1.324.545 1.964.863 2.937 1.461 2.426 4.84.887 6.246-1.001.915-2.207 1.104-3.53.992C1.8 13.41.058 11.83 0 9.884l1.777-.39M13.638 13.32h1.87V.84h-1.87zM87.798 11.816c-2.714-.02-4.606-1.982-4.592-4.76.016-2.758 1.932-4.702 4.622-4.688 2.752.014 4.608 1.97 4.586 4.834-.02 2.685-1.97 4.633-4.616 4.614M87.846.594c-3.7-.024-6.529 2.753-6.543 6.422-.014 3.758 2.742 6.551 6.475 6.563 3.738.01 6.534-2.748 6.544-6.455.008-3.726-2.75-6.507-6.476-6.53M101.872 6.627V2.595c.754-.018 1.495-.045 2.192.255.754.325 1.079.92 1.045 1.827-.03.764-.497 1.441-1.302 1.668-.611.172-1.265.19-1.935.282m2.315 1.38c.146-.053.24-.092.337-.123 1.562-.509 2.468-1.801 2.428-3.469-.04-1.681-1.019-2.966-2.622-3.36-.564-.14-1.156-.194-1.738-.218-.878-.035-1.76-.01-2.639-.01v12.494h1.887V8.275l.128-.113c.132.105.298.185.39.317 1.076 1.52 2.137 3.05 3.21 4.57.082.117.218.272.333.277.697.025 1.395.013 2.172.013l-3.886-5.332M57.79 8.48l1.914-4.205 1.843 4.204H57.79zM59.78.086L53.548 13.34c.637 0 1.21-.011 1.781.005.219.006.322-.073.407-.266.362-.822.746-1.633 1.104-2.456.096-.22.204-.32.457-.318 1.577.012 3.153.012 4.73 0 .234 0 .345.08.432.29.346.828.701 1.652 1.075 2.468.056.12.226.258.35.264.584.028 1.17.012 1.827.012L59.78.087zM75.304 4.637c-.028.834-.55 1.534-1.396 1.712-.6.127-1.23.122-1.867.178-.016-.156-.03-.231-.03-.306-.002-1.197-.001-2.394-.001-3.705.706.084 1.39.086 2.029.26.92.25 1.298.888 1.265 1.861m-.919-3.632C72.991.797 71.56.827 70.114.75V13.32h1.9V8.317c.786-.075 1.53-.1 2.256-.225 1.679-.29 2.865-1.78 2.88-3.548.013-1.73-1.115-3.293-2.765-3.539"/></g></svg>