<svg width="60" height="75" viewBox="0 0 60 75" xmlns="http://www.w3.org/2000/svg"><title>logo_neko</title><path d="M33.134 52.342c-1.337.668-3.406.856-5.078-.814-1.182-1.181-1.525-2.924-.104-4.177 0 0 .838-.798 3.394-.93.12-.007.234-.01.349-.012-1.92 1.695-.948 3.95-.948 3.95 1.664-.72 1.714-2.964 1.65-3.956 2.256.055 3.127.795 3.204 2.368.062 1.295-1.129 2.903-2.467 3.571M13.992 44.01c-.668 1.42-2.925 1.88-4.647 1.378-1.72-.5-3.168-1.754-3.514-4.44-.219-1.7.722-3.328 3.135-3.046.729.085 1.605.447 2.422.92-2.683 1.37-1.951 4.06-1.951 4.06 1.903-.436 2.385-2.628 2.507-3.713.282.187.551.382.794.58 1.072.874 1.923 2.841 1.254 4.261m42.482-25.427c-3.255-.289-6.253.834-9.281 1.77-3.502 1.082-7.052 1.61-10.449-.172-4.118-2.16-8.614-3.65-12.164-6.85-.78-.704-1.84-1.293-2.858-1.497-2.183-.435-3.205-1.879-4.003-3.725-.992-2.293-1.905-4.637-3.841-6.38C10.94-.914 8.937-.49 6.813 2.755 4.463 6.346 2.929 10.26 1.258 14.16.55 15.81-.011 17.31 0 19.114c.054 8.597.024 17.194.026 25.791 0 9.014-.007 18.028.017 27.043C.045 72.64 0 75 0 75s1.825-1.5 2.342-1.896c1.852-1.423 3.753-2.788 5.526-4.302 1.067-.91 1.902-1.072 3.32-.555 4.818 1.756 9.549 1.425 14.234-.883 2.75-1.355 4.723-3.795 7.408-5.048 3.886-1.813 7.411-3.737 10.295-7.182 2.158-2.577 3.528-5.047 3.907-8.327.282-2.442.245-5.215 1.688-7.18a162.722 162.722 0 0 0 10.308-15.872c1.839-3.233 1.113-4.848-2.554-5.172" fill="#6977FD" fill-rule="evenodd"/></svg>