<svg width="108" height="78" viewBox="0 0 108 78" xmlns="http://www.w3.org/2000/svg"><title>logo_experience_toc</title><g fill="#231F1F" fill-rule="evenodd"><path d="M67 0L35.91 28.946H34V.15L0 29.762v48.183h108V1.946H84v27H67V0zm20 31.945v-27h18v70.001H3V31.127L31 6.741v25.204h6.09L64 6.891v25.054h23z"/><path d="M18.19 52.493c0 2.334.784 4.252 2.35 5.756 1.56 1.504 3.358 2.256 5.4 2.256 2.215 0 4.083-.766 5.605-2.297 1.523-1.55 2.285-3.436 2.285-5.66 0-2.251-.752-4.138-2.256-5.66-1.496-1.531-3.346-2.296-5.552-2.296-2.195 0-4.05.765-5.563 2.297-1.514 1.512-2.27 3.38-2.27 5.604m-3.213-.041c0-2.971 1.09-5.522 3.268-7.655 2.17-2.133 4.776-3.2 7.82-3.2 3.008 0 5.587 1.076 7.737 3.227 2.16 2.15 3.241 4.734 3.241 7.75 0 3.036-1.084 5.61-3.254 7.726-2.178 2.124-4.807 3.185-7.888 3.185-2.726 0-5.172-.943-7.341-2.83-2.389-2.087-3.583-4.821-3.583-8.203M44.233 51.578h1.189c2.926 0 4.389-1.126 4.389-3.377 0-2.18-1.51-3.268-4.525-3.268h-1.053v6.645zm0 2.952v8.572h-3.185V41.994h3.609c1.768 0 3.103.123 4.006.369a5.372 5.372 0 0 1 2.406 1.395c1.212 1.184 1.818 2.679 1.818 4.484 0 1.932-.647 3.463-1.941 4.593-1.295 1.13-3.04 1.695-5.236 1.695h-1.477zM67.815 44.988h-8.462v5.072h8.216v2.993h-8.216v7.055h8.462v2.994H56.168V41.994h11.647zM71.999 63.102V40.558l15.394 16.105V41.994h3.185v22.393L75.185 48.324v14.778z"/></g></svg>