<svg width="112" height="29" viewBox="0 0 112 29" xmlns="http://www.w3.org/2000/svg"><title>logo_lifehacker</title><g fill="#8F9EBC" fill-rule="evenodd"><path d="M0 28.286h4V1.362l-4-.276zM11.121 27.974H6.856V8.492l4.265.243v19.239zM8.99 2.564c1.341 0 2.442 1.11 2.442 2.462s-1.1 2.461-2.442 2.461-2.443-1.11-2.443-2.461c0-1.352 1.101-2.462 2.443-2.462zM21.303 12.41v4.298h-3.199v11.247h-4.265V6.585c0-3.258 2.683-6.204 5.847-6.204 1.067 0 1.927.312 2.133.45l-.172 4.126h-1.96c-.86 0-1.583.728-1.583 1.629v5.823h3.199zM27.294 16.153h3.199v-2.01c0-.902-.723-1.63-1.583-1.63-.894 0-1.616.728-1.616 1.63v2.01zm-4.266-2.01c0-3.259 2.615-5.928 5.882-5.928 3.234 0 5.848 2.67 5.848 5.928v4.16a2.13 2.13 0 0 1-2.133 2.148h-5.331v1.872c0 .902.722 1.63 1.616 1.63h4.094l.137 3.64-3.852.589c-3.715.624-6.26-2.6-6.26-5.859v-8.18zM38.406 27.974V.83h2.751v8.25c.757-.242 1.961-.346 2.787-.346 2.924 0 5.194 2.669 5.194 5.685v13.554h-2.683V14.42c0-1.49-1.204-2.67-2.683-2.67h-2.615v16.224h-2.751zM59.205 22.74v-4.68h-2.648c-1.48 0-2.649 1.178-2.649 2.669v2.01c0 1.491 1.17 2.704 2.649 2.704s2.648-1.213 2.648-2.704zm0-8.77c0-1.56-.722-2.809-2.683-2.6h.035c-1.101.034-2.511.173-3.68.242-.035-1.005-.07-1.387-.104-2.15.929-.346 2.27-.693 3.405-.727 3.44-.07 5.71 2.738 5.71 5.754v8.25c0 2.981-2.373 5.443-5.331 5.443s-5.4-2.462-5.4-5.443v-1.698c0-2.981 2.029-5.235 5.4-5.235 1.272 0 1.926.14 2.648.347v-2.184zM69.595 8.735c2.958 0 5.4 2.426 5.4 5.442v.347c-1.066.035-1.926.035-2.717.07v-.417c0-1.456-1.204-2.669-2.683-2.669-1.445 0-2.614 1.213-2.614 2.67v8.665c0 1.526 1.17 2.67 2.614 2.67 1.445 0 2.649-1.11 2.683-2.566a87.25 87.25 0 0 0 2.717.174c-.137 2.877-2.545 5.165-5.4 5.165-2.958 0-5.366-2.427-5.366-5.443v-8.666c0-3.016 2.408-5.442 5.366-5.442M85.838 27.974l-5.23-9.187c-.515-.9-.515-1.005.104-2.08l4.61-7.695h3.13l-5.194 8.874 5.607 10.088h-3.027zm-8.669 0h2.752V.9h-2.752v27.073zM92.196 17.124h5.297v-2.912c0-1.49-1.204-2.704-2.648-2.704-1.48 0-2.649 1.213-2.649 2.704v2.912zm-2.752-2.912c0-3.016 2.408-5.477 5.4-5.477 2.959 0 5.367 2.461 5.367 5.477v4.264c0 .797-.62 1.386-1.376 1.386h-6.639v2.947c0 1.49 1.17 2.704 2.649 2.704h3.474c.034.9.069 1.525.137 2.149l-3.302.52c-3.37.589-5.71-2.358-5.71-5.373v-8.597zM105.376 27.974h-2.751v-13.52c0-3.015 2.339-5.823 5.778-5.754 1.17.035 1.892.312 2.684.693-.035.832-.07 1.526-.104 2.15l-2.992-.07c-1.445 0-2.615 1.56-2.615 2.982v13.519z"/></g></svg>