<svg width="112" height="22" viewBox="0 0 112 22" xmlns="http://www.w3.org/2000/svg"><title>logo_verifone</title><g fill="none" fill-rule="evenodd"><path d="M45.861 4.368h4.547L51.14.672h-4.548l-.73 3.696zm-.47 2.378h4.547L47.05 21.339c-.21.074-.862.334-1.76.334-1.214 0-2.327-.475-2.327-2.157 0-.316.037-.677.118-1.086.903-4.554 2.31-11.684 2.31-11.684zm45.159-.334c-3.027 0-4.231 1.779-4.796 2.861h-.053l.175-2.524H81.38c-.03.555-.224 2.305-.512 3.815 0 0-1.038 5.297-1.234 6.311-.15.775-.424 1.92-.424 2.585 0 1.415.716 2.213 2.313 2.213.896 0 1.54-.245 1.776-.333l1.503-7.601c.417-2.098 1.93-3.472 3.728-3.472 1.452 0 2.146 1.062 2.146 1.93 0 .756-.19 1.593-.335 2.334l-.647 3.255c-.077.39-.241 1.14-.241 1.73 0 1.438.808 2.157 2.344 2.157.839 0 1.37-.21 1.747-.334l1.349-6.813c.292-1.54.4-2.35.4-3.33 0-2.822-1.644-4.784-4.744-4.784zM70.348 9.941c-2.542 0-3.95 2.607-3.95 4.931 0 1.96.882 3.273 2.888 3.273 2.268 0 4.043-1.936 4.043-5.24 0-1.512-.803-2.964-2.981-2.964zm-1.34 11.733c-4.87 0-7.2-2.93-7.2-6.665 0-5.124 3.507-8.597 8.926-8.597 4.702 0 7.2 2.857 7.2 6.525 0 5.497-3.746 8.737-8.927 8.737zM51.976 18.16c-.104.525-.17.893-.17 1.345 0 1.673 1.115 2.168 2.296 2.168.944 0 1.529-.259 1.743-.333l2.187-11.063h3.536l.698-3.531H58.73l.172-.87c.32-1.63 1.085-2.348 2.408-2.348.885 0 1.599.158 1.847.223l.666-3.358C63.54.32 62.234 0 60.3 0c-3.082 0-5.1 1.878-5.698 4.902l-.365 1.844h-2.303l-.698 3.53h2.304l-1.563 7.884zM41.507 6.413c-2.282 0-3.537 1.59-4.029 2.858h-.052l.176-2.525h-4.497c-.04.875-.222 2.355-.68 4.683-.464 2.358-.917 4.71-1.384 7a5.61 5.61 0 0 0-.115 1.099c0 1.2.59 2.144 2.335 2.144.865 0 1.466-.225 1.754-.333l1.337-6.765c.482-2.589 1.358-4.3 3.897-4.3 1.155 0 2.253.248 2.482.315l.77-3.893c-.166-.057-.832-.283-1.994-.283zm65.965 6.248c.243-1.338-.532-2.72-2.286-2.72-2.14 0-3.08 1.468-3.5 2.72h5.786zm2.03 5.43c0 2.03-1.96 3.586-5.427 3.586-4.795 0-7.14-2.996-7.14-6.664 0-3.641 2.41-8.597 8.29-8.597 3.876 0 6.775 1.932 6.775 6.357 0 1.087-.241 2.27-.345 2.744H101.35c-.017 1.061.874 2.902 4.456 2.902 1.597 0 3.404-.567 3.696-.71v.382zm-84.204-5.43c.244-1.338-.532-2.72-2.285-2.72-2.142 0-3.082 1.468-3.502 2.72h5.787zm2.03 5.43c0 2.03-1.96 3.586-5.427 3.586-4.795 0-7.139-2.996-7.139-6.664 0-3.641 2.409-8.597 8.289-8.597 3.877 0 6.775 1.932 6.775 6.357 0 1.087-.241 2.27-.345 2.744H19.176c-.017 1.061.875 2.902 4.456 2.902 1.597 0 3.404-.567 3.696-.71v.382zM0 1.78h4.575v14.51c0 2.182 1.082 3.296 2.82 3.296.177 0 .282-.023.316-.03-.761 1.156-1.749 2.104-4.016 2.104C1.295 21.66 0 19.99 0 17.482V1.78z" fill="#8F9EBC"/><path d="M5.42 14.602V16.1c0 1.446.766 1.965 1.603 1.965.856 0 1.314-.592 1.734-1.264.704-1.126 9.308-14.995 9.308-14.995H13.46L5.42 14.602z" fill="#BFC9DB"/></g></svg>