<svg width="100" height="100" viewBox="0 0 100 100" xmlns="http://www.w3.org/2000/svg"><title>logo_experience_relayroom</title><g fill="none" fill-rule="evenodd"><path fill="#000" d="M50 0L0 50l50 50 50-50z"/><path d="M27.247 48.69c1.36 0 3.196-.248 4.336-2.01 1.055-1.63 1.382-3.476 1.18-5.398-.126-1.208-.847-1.958-1.998-2.316-.64-.2-1.3-.167-1.957-.206-.721-.044-1.066.283-1.27.95-.722 2.362-1.485 4.71-2.231 7.065-.596 1.88-.596 1.88 1.94 1.915m1.656.434c1.795 1.32 2.494 3.202 3.324 4.98 1.478 3.169 2.868 6.379 4.774 9.328 2.647 4.096 5.95 7.513 10.727 8.93 6.803 2.02 13.413 1.614 19.345-2.712 3.782-2.757 5.727-6.735 6.769-11.193.677-2.893 1.24-5.808 1.25-8.798.004-.728-.051-1.453-.331-2.138-.254-.623-.654-.708-1.137-.247-.635.605-.986 1.392-1.358 2.166-.13.27-.198.754-.645.55-.41-.185-.18-.594-.061-.874.542-1.292 1.264-2.471 2.353-3.38 1.53-1.275 2.907-.826 3.368 1.1.523 2.183.092 4.33-.311 6.472a33.394 33.394 0 0 1-1.512 5.407c2.423-2.657 4.778-5.344 6.317-8.627.419-.894.323-1.79-.035-2.688-.22-.555-.425-1.152.038-1.686.55-.635 1.259-1.07 2.094-.738.782.31.769 1.097.67 1.797-.191 1.37-.846 2.562-1.583 3.702-2.196 3.392-4.83 6.435-7.6 9.362a4.38 4.38 0 0 0-.893 1.396c-3.23 7.912-9.18 12.186-17.626 12.983-10.978 1.036-18.738-4.032-24.351-13.043-1.681-2.7-2.994-5.575-3.985-8.598a12.795 12.795 0 0 0-.72-1.734c-.585-1.17-1.677-1.703-2.935-1.537-.344.045-.426.237-.508.499-.868 2.77-1.734 5.539-2.615 8.304-.196.615.002.878.632.864a52.247 52.247 0 0 1 1.583-.015c.315.002.632.069.613.47-.017.363-.3.48-.628.493a2.101 2.101 0 0 1-.297-.005c-2.406-.262-4.811-.127-7.217.009-.38.02-1.003.254-1.001-.415.002-.582.57-.5 1.002-.496 1.85.01 1.75.437 2.449-1.76 1.817-5.72 3.603-11.45 5.397-17.176.307-.978.228-1.08-.793-1.1-.363-.007-.726.002-1.09-.007-.325-.007-.606-.096-.574-.502.032-.413.338-.427.653-.41.69.04 1.383.124 2.074.11 1.846-.034 3.692-.113 5.539-.17a9.938 9.938 0 0 1 2.555.256c2.808.652 4.08 2.928 3.388 6.039-.542 2.438-2.298 4.115-4.781 4.536-.713.12-1.437.185-2.327.296" fill="#FFF"/><path d="M57.409 57.178c-.03.44-.025.885.412 1.136.414.237.847.124 1.216-.119a10.41 10.41 0 0 0 1.255-.956c2.444-2.198 4.378-4.823 6.207-7.528a5.198 5.198 0 0 0 .811-2.005c.219-1.227-.552-1.996-1.777-1.77-.8.145-1.486.551-2.079 1.085-2.514 2.264-4.429 4.948-5.605 8.135a7.413 7.413 0 0 0-.44 2.022m8.259-5.193c-1.376 1.694-2.693 3.426-4.207 4.992-.964.997-1.921 2.01-3.162 2.671-.799.427-1.663.79-2.523.212-.814-.546-.825-1.456-.799-2.32a5.12 5.12 0 0 1 .217-1.365c1.315-4.203 3.735-7.605 7.402-10.08a6.42 6.42 0 0 1 2.071-.92c1.554-.378 2.146-.125 2.996 1.337.113-.276.207-.489.288-.707.306-.816 1.372-1.192 2.079-.718.563.38.211.844.043 1.233-1.175 2.725-2.376 5.438-3.571 8.155-.331.754-.682 1.501-.995 2.263-.117.283-.453.65-.13.888.368.272.651-.16.902-.384.741-.66 1.378-1.418 1.971-2.213.138-.185.267-.379.423-.547.134-.144.307-.292.514-.145.22.155.106.347-.003.517-.124.194-.245.392-.387.573a24.32 24.32 0 0 1-3.97 3.99c-.256.202-.539.4-.843.506-.571.198-1.206.311-1.684-.155-.508-.496-.041-1.007.19-1.435 1.122-2.08 2.288-4.139 3.178-6.348M53.136 37.958c1.1-.04 2.154-.095 3.117-.614.29-.156.637-.36.919-.11.339.297.08.673-.045 1-1.642 4.277-3.3 8.548-4.93 12.83-.738 1.94-1.428 3.898-2.133 5.85-.1.274-.29.65-.015.825.36.231.579-.178.783-.412a18.866 18.866 0 0 0 2.167-3.064c.125-.217.256-.557.577-.377.292.164.149.476.016.702-1.088 1.856-2.331 3.598-3.928 5.055-.561.511-1.296.611-1.938.241-.641-.369-.425-1.072-.28-1.625.675-2.555 1.749-4.97 2.643-7.45 1.274-3.534 2.538-7.072 3.827-10.6.23-.632.16-.97-.587-1.032-.353-.029-.703-.17-1.04-.299-.276-.106-.583-.257-.511-.628.074-.387.408-.37.71-.35.23.015.46.041.648.058M39.962 51.783c2.5-.049 5.579-2.598 6.036-4.914.174-.882-.251-1.33-1.14-1.209a2.138 2.138 0 0 0-.987.422c-1.946 1.446-3.01 3.483-3.91 5.701m-3.29 3.996c.476-3.976 2.313-7.477 5.918-9.95a4.406 4.406 0 0 1 2.514-.794c1.708 0 2.747 1.314 2.369 2.983-.24 1.058-.907 1.817-1.77 2.417-1.525 1.062-3.245 1.616-5.077 1.774-.693.06-.98.354-1.12.981-.201.903-.433 1.803-.367 2.734.145 2.03 1.628 2.831 3.396 1.84 1.027-.576 1.805-1.424 2.49-2.366.166-.227.324-.656.638-.48.332.186.05.538-.098.774-.815 1.29-1.731 2.503-2.982 3.4-1.252.9-2.621 1.526-4.143.74-1.493-.772-1.69-2.24-1.767-4.053" fill="#FFF"/></g></svg>