<svg width="100" height="37" viewBox="0 0 100 37" xmlns="http://www.w3.org/2000/svg"><title>logo_mozat</title><g fill="#8F9EBC" fill-rule="evenodd"><path d="M18.809 12.186c-.753-1.065-1.709-1.793-2.94-2.17-1.014-.308-2.032-.3-3.053-.126-1.538.265-2.881.874-3.845 2.186-.859 1.17-1.272 2.478-1.318 3.902-.04 1.241.005 2.484-.023 3.726-.03 1.296.068 2.59-.103 3.89-.112.85-.21 1.685-.557 2.495.867-.042 1.715.057 2.56-.076 1.105-.175 1.778-.795 2.015-1.89.076-.35.102-.709.102-1.068-.001-2.054.001-4.11-.001-6.164 0-.626.085-1.237.299-1.826.416-1.146 1.398-1.808 2.626-1.774 1.265.036 2.126.71 2.479 1.939.126.439.186.888.187 1.343.004 1.994.031 3.99-.008 5.984-.024 1.197-.135 2.396-.666 3.522.686 0 1.355.02 2.021-.005 1.175-.042 2.08-.678 2.432-1.684.144-.41.187-.834.187-1.267-.004-2.067-.006-4.133.002-6.2.003-.782.12-1.547.495-2.25.524-.98 1.392-1.38 2.455-1.375 1.032.004 1.794.5 2.261 1.428.268.532.399 1.103.404 1.692.018 1.935.022 3.87.022 5.804 0 .681-.08 1.357-.17 2.032-.084.618-.271 1.21-.458 1.828h1.538c1.922 0 3.029-1.101 3.03-3.018.003-2.042.011-4.085-.002-6.128a9.573 9.573 0 0 0-.342-2.574c-.64-2.252-2.08-3.704-4.343-4.304-1.085-.288-2.197-.39-3.316-.234-.939.131-1.808.445-2.588 1.012-.53.385-.964.854-1.382 1.35m14.754 18.63c-.526.26-.996.618-1.53.867-1.218.57-2.498.907-3.842.91-9.339.011-18.679.005-28.019.005-.047 0-.095-.005-.137-.008-.076-.076-.008-.139.016-.196.666-1.636.873-3.358 1.004-5.1.084-1.13.156-2.261.12-3.392-.078-2.508-.06-5.016-.032-7.522.037-3.52 1.119-6.664 3.581-9.247 1.862-1.954 4.163-3.12 6.805-3.62 1.851-.351 3.698-.368 5.53.136.543.15 1.048.397 1.564.612.205.085.375.09.574.003 1.324-.575 2.698-.953 4.15-.985 3.221-.073 6.224.63 8.875 2.548.134.098.274.187.412.281.037.122.133.198.224.273.985.8 1.769 1.775 2.446 2.84.41.644.692 1.354 1.016 2.043-.689.52-1.208 1.187-1.632 1.926-.697 1.213-1.081 2.53-1.196 3.923-.274 3.36.637 6.208 3.56 8.18-.205 1.076-.619 2.07-1.188 3.004-.603.99-1.405 1.797-2.3 2.52M68.72 14.875c.45-.432.874-.75 1.358-.986 1.606-.783 3.306-.97 5.056-.754 1.017.126 1.81.59 2.09 1.668.094.361.107.73.133 1.1.014.221-.067.287-.287.283a37.324 37.324 0 0 0-1.719-.004c-1.51.032-2.997.21-4.407.795-1.122.465-2.042 1.16-2.525 2.317-.841 2.014-.366 4.724 2.343 6.105 1.948.991 4.035 1.057 6.114.63 2.458-.507 3.958-2.189 4.334-4.679.144-.958.05-1.93.054-2.897.005-1.309.062-2.62-.22-3.915-.498-2.296-1.778-3.87-4.091-4.514-1.764-.492-3.528-.386-5.299-.025-1.19.243-2.065.857-2.517 2.011-.35.893-.399 1.83-.417 2.865m13.55 15.946a12.563 12.563 0 0 1-2.944 1.403c-1.29.42-2.614.617-3.968.64-1.108.018-2.215-.009-3.317-.134-.067-.02-.134-.048-.202-.06-1.25-.221-2.447-.601-3.586-1.164-1.25-.62-2.345-1.452-3.34-2.422.129-.327.285-.642.368-.989.101-.426.208-.854.36-1.264.107-.29.002-.31-.24-.309-.795.004-1.591-.008-2.387-.014-.04-.086-.079-.173-.122-.258a11.951 11.951 0 0 1-1.302-4.486c-.092-1.034-.015-2.07-.057-3.103.569-.657 1.151-1.303 1.703-1.973.838-1.017 1.598-2.094 1.917-3.395.257-1.049.185-2.06-.669-2.867-.38-.359-.871-.462-1.358-.57.396-.72.825-1.414 1.345-2.052a11.601 11.601 0 0 1 4.224-3.252c3.48-1.485 7.024-1.602 10.626-.504.068.02.14.033.209.05.04.021.08.048.124.064 1.776.657 3.347 1.632 4.655 3.014.204.215.345.486.602.652.023.094-.037.16-.083.227-.442.657-.614 1.398-.618 2.17-.015 3.308-.032 6.616-.008 9.923.016 2.178.624 4.098 2.593 5.342-.627 1.296-1.34 2.539-2.375 3.555a16.46 16.46 0 0 1-2.15 1.776"/><path d="M84.309 7.176c-1.308-1.383-2.88-2.356-4.655-3.015-.043-.016-.083-.042-.125-.064 1.12-1.453 2.392-2.725 4.098-3.488a6.925 6.925 0 0 1 2.85-.601C90.87.006 95.262.01 99.656 0c.331-.001.383.064.32.392-.409 2.067-.534 4.164-.54 6.265-.018 5.646-.002 11.292-.006 16.939 0 1.019-.132 2.025-.484 2.985a9.17 9.17 0 0 1-1.81 3.024c-1.918 2.126-4.375 3.017-7.157 3.145-2.348.109-4.613-.26-6.725-1.35-.338-.175-.657-.386-.984-.58a16.454 16.454 0 0 0 2.15-1.775c1.034-1.016 1.747-2.26 2.374-3.555a6.074 6.074 0 0 0 2.365.635c1.145.067 2.217-.137 3.124-.883.987-.81 1.36-1.896 1.381-3.171-1.145.51-2.305.583-3.48.502-.952-.066-1.624-.636-1.882-1.55a3.943 3.943 0 0 1-.152-1.062c-.007-2.042.002-4.084-.008-6.126-.002-.264.092-.314.328-.311.968.012 1.936.005 2.903.005 1.21 0 2.005-.59 2.353-1.753.143-.48.244-.973.416-1.442.115-.316.014-.343-.263-.341-1.78.008-3.559-.002-5.339.01-.3.002-.415-.038-.385-.386.094-1.072.176-2.142.57-3.156.057-.146.024-.197-.127-.192-.334.013-.67 0-1.001.038-.801.093-1.57.252-2.139.923-.172.203-.335.427-.548.598-.256-.166-.399-.437-.602-.652zM36.32 11.264c-.324-.689-.605-1.399-1.016-2.044-.677-1.064-1.46-2.039-2.446-2.839-.091-.074-.187-.151-.223-.273 1.288-1.037 2.756-1.728 4.327-2.213a14.54 14.54 0 0 1 4.328-.63c2.011.002 3.947.397 5.784 1.234.534.264 1.066.53 1.573.845.855.533 1.59 1.2 2.328 1.881.83.767 1.522 1.627 2.11 2.582-.117.078-.253.053-.38.068-.98.108-1.726.546-2.165 1.463-.293.612-.317 1.302-.593 1.92-.078.177.107.138.196.139.596.005 1.192-.004 1.788.004.94.012 1.881-.037 2.821.026.407 1.319.573 2.674.631 4.048.036.833-.075 1.658-.119 2.487-.97 1.12-1.938 2.241-2.91 3.36-.644.744-1.222 1.53-1.618 2.438-.506 1.159-.649 2.308.067 3.442-1.378 1.253-2.925 2.228-4.681 2.87-.793.29-1.616.465-2.43.675-1.122.134-2.243.264-3.377.202-2.284-.124-4.422-.733-6.396-1.897-.122-.072-.237-.157-.355-.236.895-.722 1.697-1.529 2.3-2.519.57-.934.983-1.928 1.188-3.005 1.596.902 3.309 1.167 5.114.94 2.277-.285 4.133-1.313 5.307-3.3 1.669-2.82 1.907-5.825.635-8.855-1.18-2.81-3.39-4.248-6.425-4.426a8.783 8.783 0 0 0-2.234.168c-1.157.23-2.223.668-3.129 1.445"/><path d="M43.692 32.747c.814-.21 1.637-.386 2.43-.675 1.756-.642 3.303-1.617 4.681-2.87.573.66 1.32.9 2.169.898 3.292-.002 6.584.007 9.875-.005.837-.003 1.56-.3 2.065-1.011.996.97 2.091 1.803 3.342 2.421 1.138.563 2.336.944 3.585 1.164.069.013.135.04.202.061-.805 1.098-1.864 1.886-3.043 2.54-1.738.965-3.61 1.346-5.58 1.343-3.676-.005-7.352.003-11.028-.004-2.199-.004-4.282-.461-6.182-1.617a9.093 9.093 0 0 1-2.516-2.245M53.085 9.807a12.163 12.163 0 0 0-2.11-2.582c-.738-.68-1.473-1.348-2.327-1.88-.508-.317-1.04-.582-1.574-.847a11.105 11.105 0 0 1 3.84-1.035c2.202-.197 4.413-.061 6.62-.084 1.957-.019 3.914.005 5.872-.004 1.73-.008 3.382.334 4.957 1.048.109.048.221.086.333.128a11.594 11.594 0 0 0-4.224 3.253c-.52.637-.95 1.333-1.346 2.051-.237-.016-.474-.048-.71-.048-3.11-.004-6.22-.001-9.33 0M63.014 26.508c-2.54.003-5.08.003-7.62.013-.286.002-.25-.122-.168-.304.315-.705.784-1.308 1.274-1.891 1.625-1.935 3.34-3.79 5.033-5.665.042 1.034-.035 2.069.057 3.102a11.95 11.95 0 0 0 1.302 4.488c.043.084.082.172.122.257M54.752 13.426h5.763c-.317.794-.812 1.448-1.339 2.076-.665.793-1.351 1.568-2.034 2.346-.622.708-1.251 1.41-1.878 2.114.044-.83.155-1.654.12-2.488-.059-1.373-.225-2.728-.632-4.048M44.747 18.249c.033.983-.213 1.912-.591 2.804-.482 1.137-1.834 1.812-3.163 1.704-1.912-.156-2.915-1.394-3.248-3.072-.278-1.399-.314-2.796.148-4.168.494-1.466 1.573-2.288 3.015-2.321 1.608-.038 2.804.75 3.376 2.212.358.915.445 1.872.463 2.84M76.307 19.047c.344 0 .804-.135 1.002.035.23.198.064.67.073 1.022.009.345.02.692-.042 1.036-.197 1.082-.778 1.644-1.873 1.804-.734.106-1.453.056-2.145-.218-.808-.32-1.227-.942-1.21-1.76.02-.833.419-1.343 1.292-1.637.944-.317 1.925-.299 2.903-.282"/></g></svg>