<svg width="140" height="33" viewBox="0 0 140 33" xmlns="http://www.w3.org/2000/svg"><title>logo_experience_yahoo</title><g fill="#400090" fill-rule="evenodd"><path d="M83.276 28.084c-6.043 0-9.594-4.348-9.594-11.682 0-8.294 4.375-11.633 9.345-11.735.08-.002.159 0 .238 0 5.544 0 9.615 3.791 9.615 11.714 0 7.912-4.066 11.703-9.604 11.703m-.027-24.978c-9.065 0-13.821 5.772-13.821 13.253 0 8.19 5.192 13.184 13.808 13.184 9.315 0 13.864-5.629 13.864-13.098 0-8.327-5.433-13.339-13.85-13.339M102.885 16.217c0-10.078 6.173-13.06 11.671-13.06 6.78 0 11.773 4.135 11.773 13.256 0 9.914-6.04 13.13-11.762 13.13-6.113 0-11.682-3.603-11.682-13.326m11.66-14.66c-9.027 0-15.928 5.146-15.928 14.716 0 7.885 4.59 14.825 16.003 14.825 9.663 0 15.972-5.334 15.972-14.685 0-8.818-5.885-14.857-16.046-14.857M14.615 18.729C18.178 12.452 24.059 2.212 25.675.02l-.004.002.002-.002c-1.54.35-2.928.362-4.307 0-1.214 2.272-5.695 9.624-8.546 14.331L4.273.021C2.505.4 1.765.424 0 .02c3.503 5.3 9.116 15.394 11.025 18.708l-.256 13.816s1.231-.207 2.055-.207c.912 0 2.047.207 2.047.207l-.256-13.816zM36.494 19.85c-3.03.105-6.06.106-9.091 0H27.4c1.855-4.723 3.616-9.28 4.546-11.966 1.416 3.966 2.974 7.961 4.557 11.97l-.009-.005zm7.947 9.343c-2.57-4.818-7.726-17.422-11.003-25.749l-.003.002.003-.002c-1.063.373-1.93.352-2.975.001l-.005-.002c-3.441 8.67-7.406 18.457-10.972 25.755v.004l.015-.007-.014.003.029-.01-.015.007c1.63-.406 3.186-.28 4.215 0l-.007-.005.006.002c.909-2.306 1.944-4.92 2.98-7.549l.005.004c3.504-.1 7.008-.114 10.512 0 .997 2.515 1.996 5.034 2.97 7.554 1.561-.409 3.115-.297 4.263-.007l-.004-.001zM68.194 3.454a8.98 8.98 0 0 1-4.273 0c.207 4.001.318 8.006.333 12.015-4.782.112-9.56.12-14.332 0h-.001c.015-4.008.126-8.014.333-12.015a8.98 8.98 0 0 1-4.273 0c.372 8.596.34 17.176 0 25.744a8.973 8.973 0 0 1 4.268 0l-.009-.004.014.004c-.21-3.994-.32-7.986-.334-11.974h.002c4.777-.066 9.555-.07 14.333-.005-.014 3.99-.123 7.983-.334 11.98l.014-.005-.008.004a8.973 8.973 0 0 1 4.267 0c-.34-8.568-.372-17.148 0-25.744M138.21.396l-.003.003V.397s-.264-.038-.444-.038c-1.026 0-2.043.604-2.043 2.149-.608 7.748-1.242 15.52-2.284 22.913l-.005.005.005-.001h.004c.63-.11 1.119.056 1.594.248l-.003-.004c1.183-7.51 3.992-18.76 4.712-21.943.103-.448.257-.977.257-1.353 0-1.136-.717-1.796-1.79-1.977M133.304 28.534c-1.345 0-2.015 1.03-2.015 2.137 0 1.306 1.038 1.975 2.322 1.975.929 0 1.942-.567 1.942-2.105 0-1.234-.962-2.007-2.25-2.007"/></g></svg>