<svg width="108" height="27" viewBox="0 0 108 27" xmlns="http://www.w3.org/2000/svg"><title>logo_gestalten</title><path d="M17.008 10.621c0-1.129.91-2.013 2.067-2.013h1.907c1.16 0 2.067.884 2.067 2.013v1.62h-6.04v-1.62zm-2.606 5.589c0 2.626 1.998 4.682 4.546 4.682h2.416c2.094 0 4.261-1.42 4.261-3.796v-.055h-2.638v.098c-.133.855-.719 1.322-1.656 1.322h-2.193c-1.174 0-2.13-.903-2.13-2.011v-1.875h8.65v-3.68c0-2.628-2.027-4.685-4.612-4.685h-2.034c-2.543 0-4.61 2.131-4.61 4.749v5.251zm70.59-5.589c0-1.129.906-2.013 2.064-2.013h1.909c1.16 0 2.065.884 2.065 2.013v1.62h-6.038v-1.62zm-2.609 5.589c0 2.626 1.996 4.682 4.545 4.682h2.415c2.098 0 4.264-1.42 4.264-3.796v-.055H90.97v.098c-.131.855-.717 1.322-1.656 1.322H87.12c-1.174 0-2.128-.903-2.128-2.011v-1.875h8.648v-3.68c0-2.628-2.027-4.685-4.611-4.685h-2.034c-2.544 0-4.612 2.131-4.612 4.749v5.251zm-42.737-.234c0-2.218-1.459-3.827-3.47-3.827h-3.852c-.645 0-1.15-.509-1.15-1.158V9.8c0-.67.505-1.192 1.15-1.192h2.91c.889 0 1.34.423 1.34 1.256v.23h2.668v-.089a3.796 3.796 0 0 0-3.788-3.796h-3.036c-2.16 0-3.85 1.64-3.85 3.731v.883c0 2.13 1.648 3.798 3.756 3.798h3.565c.635 0 1.148.549 1.148 1.223v1.391c0 .664-.538 1.225-1.178 1.225h-3.726c-.768 0-1.244-.495-1.244-1.29v-.131h-2.637v.056c0 2.128 1.62 3.796 3.693 3.796h3.914c2.124 0 3.787-1.64 3.787-3.73v-1.186zm14.733-.174c0-.676.518-1.225 1.15-1.225h4.752v1.779c0 1.3-.776 2.107-2.02 2.107H55.53c-.632 0-1.15-.552-1.15-1.228v-1.433zm1.182 5.09h2.335c1.026 0 1.857-.49 2.285-1.34l.064-.124.127 1.201h2.516V10.072c0-2.238-1.593-3.861-3.788-3.861h-3.006c-2.064 0-3.734 1.673-3.815 3.817h2.605c.056-.604.525-1.42 1.21-1.42H59.1c.65 0 1.18.534 1.18 1.19v2.442h-4.719c-2.089 0-3.787 1.75-3.787 3.898v.825c0 1.906 1.329 3.929 3.787 3.929zm10.894-.264h2.608V.5h-2.608v20.128zm-18.516.001h1.813V18.2h-1.657c-1.113 0-1.776-.661-1.776-1.773V8.871h3.433V6.473h-3.433V1.08h-2.606v5.393H41.37v2.398h2.343v7.478c0 2.64 1.618 4.28 4.226 4.28zm32.108 0V18.2H78.39c-1.112 0-1.777-.661-1.777-1.773V8.871h3.434V6.473h-3.434V1.08h-2.608v5.393h-2.342v2.398h2.342v7.478c0 2.64 1.62 4.28 4.229 4.28h1.813zM103.36 8.61c1.141 0 2.034.883 2.034 2.01v10.01H108V10.86c0-2.825-1.773-4.65-4.515-4.65h-1.802c-.875 0-1.764.54-2.22 1.038l-.061.068-.068-.842H96.82v14.155h2.607V10.555c0-1.127.843-1.947 2.004-1.947h1.929zM4.641 18.462c-1.158 0-2.033-.852-2.033-1.982v-5.86c0-1.13.893-2.012 2.033-2.012h1.994c1.105 0 2.003.845 2.003 1.88v5.992c0 1.13-.861 1.982-2.003 1.982H4.641zm2.247 8.04c2.607 0 4.357-1.725 4.357-4.29V6.474H8.729l-.066.91-.063-.07A3.327 3.327 0 0 0 6.097 6.21h-1.55C1.997 6.21 0 8.25 0 10.86v5.379c0 2.61 1.982 4.652 4.515 4.652h1.867c.933 0 1.705-.443 2.19-.814l.066-.05v2.46c0 1.093-.83 1.584-1.654 1.584H4.77c-.97 0-1.636-.53-1.747-1.388H.415c.185 2.25 1.956 3.819 4.321 3.819h2.152z" fill="#8F9EBC" fill-rule="evenodd"/></svg>