<svg width="64" height="37" viewBox="0 0 64 37" xmlns="http://www.w3.org/2000/svg"><title>logo_up</title><path d="M32.397 22.927c-.06 3.551-1.13 6.826-3.756 9.405-1.977 1.942-4.423 2.973-7.092 3.535-.782.165-1.564.353-2.373.327-.247.111-.507.114-.77.093l-.761.022a9.27 9.27 0 0 1-2.86-.002l-.652-.017c-.26-.009-.53.076-.772-.091C7.001 35.71 1.912 32.547.48 26.059a18.773 18.773 0 0 1-.463-4.002C-.002 15.14.01 8.22 0 1.303 0 .95.042.8.458.8c10.57.012 21.137.01 31.706.01.036 0 .07.008.109.013.086.173-.08.219-.16.294-4.63 4.403-9.262 8.8-13.885 13.21-.133.125-.581.263-.162.548.285.193.408.83.994.266 4.304-4.135 8.635-8.241 12.958-12.356.092-.087.191-.166.287-.25l.108-.057c.005.064.01.127.013.191.007.072.02.145.02.217-.006 6.681.065 13.363-.049 20.041zm31.494-11.044c.132 1.054.132 2.108.064 3.164.018.19.033.38-.08.553l-.024.323c.005.04.01.079.011.117a.462.462 0 0 1-.097.326l-.01.107-.01.107a.602.602 0 0 1 .005.135.331.331 0 0 1-.09.201c-.495 2.623-1.806 4.749-3.947 6.338-1.976 1.468-4.25 2.144-6.676 2.305-2.696.178-5.398.1-8.098.068-.464-.006-.348.26-.349.485-.004 2.556-.001 5.111-.003 7.667-.001.802-.01 1.605-.016 2.408-.001.163-.11.125-.206.11-.382.007-.764.02-1.145.02H25.522c-.219 0-.436-.014-.654-.022h-.582l-.029-.077.593-.209c2.98-1.186 5.316-3.117 6.872-5.947.23-.42.435-.848.616-1.284.542-1.306.878-2.68 1.1-4.088l.004-.118.09-.654.079-.663.031-.98c-.005-3.754-.012-7.507-.015-11.26-.004-2.839-.001-5.678.12-8.626l.374.484c2.305 2.18 4.613 4.357 6.916 6.54 1.999 1.894 4.015 3.772 5.973 5.708.566.559.711-.002 1-.215.429-.318-.022-.46-.172-.603-4.592-4.382-9.194-8.755-13.795-13.128-.099-.094-.207-.18-.42-.366h.518C39.14.81 44.14.783 49.136.82c2.654.02 5.254.438 7.7 1.528 4.141 1.846 6.488 5.034 7.055 9.535z" fill="#8F9EBC" fill-rule="evenodd"/></svg>