<svg width="150" height="40" viewBox="0 0 150 40" xmlns="http://www.w3.org/2000/svg"><title>logo_smashingmag</title><g fill="none" fill-rule="evenodd"><path d="M54.992 16.097c-.713-.376-1.813-.739-3.3-1.09-1.488-.351-2.425-.689-2.81-1.013-.303-.254-.455-.56-.455-.92 0-.391.162-.705.486-.94.502-.364 1.198-.547 2.086-.547.861 0 1.507.171 1.937.512.43.34.711.9.842 1.679l3.058-.135c-.048-1.391-.552-2.503-1.513-3.337-.96-.833-2.392-1.25-4.293-1.25-1.164 0-2.157.176-2.98.527-.823.352-1.453.863-1.89 1.534a3.892 3.892 0 0 0-.656 2.165c0 1.198.465 2.214 1.394 3.047.661.593 1.811 1.092 3.45 1.498 1.275.317 2.09.537 2.45.661.522.186.889.405 1.1.656.21.252.314.557.314.914 0 .558-.25 1.046-.748 1.462-.5.417-1.242.625-2.227.625-.93 0-1.668-.233-2.216-.702-.547-.469-.91-1.202-1.09-2.2l-2.975.289c.2 1.694.813 2.984 1.839 3.869 1.026.884 2.496 1.327 4.411 1.327 1.315 0 2.414-.184 3.296-.553.881-.368 1.563-.93 2.045-1.689a4.46 4.46 0 0 0 .723-2.438c0-.957-.201-1.761-.604-2.412a4.256 4.256 0 0 0-1.674-1.54zm42.715 0c-.713-.376-1.813-.739-3.3-1.09-1.488-.351-2.425-.689-2.81-1.013-.304-.254-.455-.56-.455-.92 0-.391.162-.705.486-.94.502-.364 1.198-.547 2.087-.547.86 0 1.506.171 1.936.512.43.34.711.9.842 1.679l3.058-.135c-.048-1.391-.552-2.503-1.513-3.337-.96-.833-2.392-1.25-4.293-1.25-1.164 0-2.157.176-2.98.527-.823.352-1.453.863-1.89 1.534a3.892 3.892 0 0 0-.657 2.165c0 1.198.465 2.214 1.395 3.047.661.593 1.811 1.092 3.45 1.498 1.274.317 2.09.537 2.449.661.523.186.89.405 1.1.656.21.252.315.557.315.914 0 .558-.25 1.046-.748 1.462-.5.417-1.242.625-2.227.625-.93 0-1.668-.233-2.216-.702-.547-.469-.91-1.202-1.09-2.2l-2.975.289c.2 1.694.812 2.984 1.839 3.869 1.026.884 2.496 1.327 4.411 1.327 1.315 0 2.414-.184 3.296-.553.88-.368 1.563-.93 2.045-1.689a4.46 4.46 0 0 0 .723-2.438c0-.957-.201-1.761-.604-2.412a4.253 4.253 0 0 0-1.674-1.54zm17.245 8.325h3.201V9.277h-3.2v15.145zm14.316-5.032l-6.435-10.113h-3.088v15.145h2.949v-9.876l6.338 9.876h3.186V9.277h-2.95V19.39zm-19.07-4.152h-6.115V9.277h-3.12v15.145h3.12V17.8h6.115v6.622h3.12V9.277h-3.12v5.96zm-30.43-5.961l-5.574 15.145h3.066l1.18-3.44h5.721l1.25 3.44h3.143l-5.73-15.145h-3.055zm-.439 9.153l1.933-5.62 1.972 5.62H79.33zm-13.318 1.303L62.735 9.277h-4.861v15.328h3.156V14.094l3.329 10.511h3.271l3.34-10.511v10.511h3.156V9.277h-4.873l-3.242 10.456zm74.949-1.553l.064.053 1.985 1.985 1.64-.184a4.686 4.686 0 0 1-3.457 1.523 4.713 4.713 0 0 1-4.707-4.708 4.713 4.713 0 0 1 4.707-4.707c1.666 0 3.13.873 3.967 2.183l2.763-.946a7.572 7.572 0 1 0-1.4 8.848l-.053 1.45 1.896 1.898 1.545-8.823-8.95 1.428z" fill="#E9362B"/><path d="M79.623 33.901h2.592v1.633c-.284.247-.667.46-1.15.64a4.04 4.04 0 0 1-1.413.27c-.964 0-1.748-.293-2.35-.878-.602-.584-.903-1.464-.903-2.637 0-.77.14-1.423.422-1.958.281-.535.654-.929 1.116-1.182.463-.254 1.015-.38 1.656-.38.44 0 .837.07 1.19.209.352.14.636.332.852.577.215.245.394.615.536 1.11l1.05-.287c-.156-.626-.391-1.119-.705-1.478a3.1 3.1 0 0 0-1.197-.832c-.484-.195-1.05-.293-1.696-.293-.877 0-1.636.17-2.277.506-.642.338-1.16.861-1.557 1.572-.396.71-.595 1.544-.595 2.502 0 .946.197 1.756.591 2.43a3.924 3.924 0 0 0 1.605 1.539c.676.35 1.444.526 2.306.526a5.338 5.338 0 0 0 2.519-.63v.537h1.141v-1.273l.005-.004v-3.26l-3.738.006v1.035zm-28.005.772a64.26 64.26 0 0 0-.47 1.406l-.42-1.298-2.095-6.21h-1.756v8.77H48V29.88l2.559 7.46h1.05l2.574-7.334v7.335h1.123v-8.77h-1.572l-2.117 6.102zm13.284-6.102l-3.182 8.77h1.152l.896-2.656h3.472l.96 2.656h1.25l-3.38-8.77h-1.168zm-.814 5.168l.918-2.572c.194-.554.345-1.112.452-1.675.123.467.318 1.073.583 1.819l.858 2.428h-2.811zm28.516-5.168l-3.182 8.77h1.151l.897-2.656h3.471l.96 2.656h1.25l-3.38-8.77h-1.167zm-.815 5.168l.918-2.572c.195-.554.346-1.112.452-1.675.124.467.318 1.073.584 1.819l.857 2.428h-2.81zm38.481 1.731l-4.338-6.899h-1.119v8.77h1.05v-6.9l4.332 6.9h1.119v-8.77h-1.044v6.9zm9.632.836V33.32h4.565v-1.035h-4.565v-2.68h4.874V28.57h-5.965v8.77h6.157v-1.035h-5.066zm-23.677 1.035h1.091v-8.77h-1.091v8.77zm-11.352-1.651l4.626-6.084v-1.035h-5.91v1.035h4.606c-.279.303-.564.65-.857 1.04l-4.222 5.618v1.077h6.52v-1.035h-5.264l.501-.616z" fill="#A8ABAD"/><path d="M17.607 22.856c-5.27-1.991-9.697-5.547-9.991-10.175-.188-2.952.556-5.531 2.477-7.703L2.252 6.854a2.933 2.933 0 0 0-2.17 3.535l6.522 27.28a2.933 2.933 0 0 0 3.535 2.17l3.357-.803c-1.303-.432-3.555-1.254-5.715-2.406l3.13-7.1s3.684 3.28 8.973 3.28c5.29 0 7.64-6.207-2.277-9.954M39.59 29.78L33.066 2.501a2.933 2.933 0 0 0-3.534-2.17l-5.62 1.343c1.433.226 4.27.846 7.395 2.486l-2.446 6.78s-2.037-2.274-7.497-2.55c-5.19-.263-8.077 5.352 2.046 8.662 7.75 2.535 10.23 7.42 10.101 11.938-.067 2.35-.888 4.26-1.841 5.7l5.75-1.374a2.933 2.933 0 0 0 2.17-3.536" fill="#E9362B"/></g></svg>