<svg width="64" height="51" viewBox="0 0 64 51" xmlns="http://www.w3.org/2000/svg"><title>logo_cnbc</title><g fill="#8F9EBC" fill-rule="evenodd"><path d="M8.427 10.483C5.871 12.797 4.94 18.04 9.55 21.107L27.936 33.72 19.02 13.297c-1.869-4.82-6.98-5.87-10.594-2.814M24.255.552c-2.989.061-7.477 3.62-5.48 9.055l9.221 21.746 3.24-22.873c.75-5.683-3.551-8.306-6.981-7.928M32.675 7.608h1.743s.932 0 1.058.44c-.686.56-2.553.63-2.305 3.623L36.1 31.35 45.26 9.547C47.132 4.679 43.201.613 39.713.489a6.868 6.868 0 0 0-.496-.022c-3.13 0-6.717 2.275-6.542 7.141M44.89 13.482l-8.661 20.18L54.61 20.98c4.237-3.005 3.554-7.81 1.182-10.185-.994-1.118-2.82-1.981-4.754-1.981-2.285 0-4.73 1.211-6.147 4.668M52.552 23.852L35.29 35.909h21.255c4.36 0 7.163-4.496 5.917-8.622-.835-2.593-3.303-4.629-6.168-4.632-1.206 0-2.485.364-3.742 1.197M7.932 35.91h20.941L11.607 23.851c-3.99-2.563-8.475-1.064-10.094 3.19-1.373 4.868 2.055 8.867 6.419 8.867M.068 44.635c0 2.054 1.678 5.792 8.088 5.792 5.91 0 7.776-2.712 7.776-3.955h-4.575s-.217 1.642-2.798 1.642c-2.583 0-3.281-2.155-3.281-3.402 0-1.242.698-3.28 3.28-3.28s2.8 1.43 2.8 1.43h4.574c0-1.245-1.37-3.919-7.776-3.919-6.41 0-8.088 3.98-8.088 5.692M48.05 44.635c0 2.054 1.68 5.792 8.088 5.792 5.91 0 7.777-2.712 7.777-3.955h-4.572s-.219 1.642-2.8 1.642c-2.583 0-3.282-2.155-3.282-3.402 0-1.242.7-3.28 3.282-3.28 2.581 0 2.8 1.43 2.8 1.43h4.572c0-1.245-1.368-3.919-7.777-3.919-6.408 0-8.088 3.98-8.088 5.692M28.436 39.135v6.951l-5.324-6.951h-5.99v11.01h4.106v-7.031l5.232 7.031h6.083v-11.01zM44.955 44.292c.748 0 2.31-.868 2.31-2.55 0-2.393-4.457-2.607-5.14-2.607H33.91v11.01h8.213c3.95 0 5.537-1.247 5.537-3.331 0-2.084-2.706-2.522-2.706-2.522zm-6.75-3.016h3.297v.005c.558 0 1.011.367 1.011.82 0 .454-.453.818-1.011.818v.005h-3.297v-1.648zm3.39 6.239v.014h-3.422v-2.021h3.422v.006c.73 0 1.32.45 1.32 1.002s-.59.999-1.32.999z"/></g></svg>