<svg width="96" height="24" viewBox="0 0 96 24" xmlns="http://www.w3.org/2000/svg"><title>logo_tnw</title><path d="M20.364 0H0v8.727h5.818v14.546h8.727V8.727h5.819V0zm66.909 0v7.564c0 1.018-.437 1.89-1.018 2.618l-3.346 3.345c-.727.728-1.6 1.018-2.618 1.018h-3.636c1.163-1.309 1.89-3.054 1.89-4.8V0h-8.727v7.564c0 1.018-.436 1.89-1.018 2.618l-3.346 3.345c-.727.728-1.6 1.018-2.618 1.018h-1.745V0h-8.727v23.273h12.654c1.891 0 3.782-.727 5.091-2.182l4.073-4.073v6.255h8.29c1.892 0 3.783-.727 5.092-2.182l6.254-6.255c1.455-1.309 2.182-3.2 2.182-5.09V0h-8.727zM49.455 23.273h-8.728v-7.564c0-1.018-.436-1.89-1.018-2.618l-3.345-3.346c-.728-.581-1.6-1.018-2.619-1.018H32v14.546h-8.727V0h12.654c1.891 0 3.782.727 5.091 2.182l6.255 6.254c1.454 1.31 2.182 3.2 2.182 5.091v9.746z" fill="#8F9EBC" fill-rule="evenodd"/></svg>