<svg width="89" height="30" viewBox="0 0 89 30" xmlns="http://www.w3.org/2000/svg"><title>logo_aen</title><g fill="#6977FD" fill-rule="evenodd"><path d="M67.908 10.969c-.217 1.153-.45 2.304-.648 3.46-.677 3.97-1.32 7.947-2.025 11.912-.217 1.227-.604 2.442-1.77 3.132-1.147.679-2.373.719-3.523.021-1.122-.68-1.411-1.83-1.257-3.029.257-1.996.623-3.98.964-5.965.487-2.831.977-5.662 1.494-8.488.512-2.8.978-5.61 1.61-8.382.7-3.07 4.01-4.55 6.527-3.022 1.031.626 1.633 1.61 2.133 2.668 2.353 4.975 4.703 9.95 7.06 14.923.12.255.293.485.564.926.172-.778.318-1.33.414-1.892.788-4.552 1.547-9.108 2.358-13.656.273-1.531.837-2.914 2.562-3.384 2.36-.642 4.22.857 3.948 3.288-.218 1.945-.585 3.875-.915 5.808-.477 2.805-.97 5.609-1.477 8.41-.531 2.931-1.031 5.87-1.655 8.783-.396 1.855-1.932 3.27-3.447 3.444-2.303.264-3.793-.461-4.807-2.558-2.207-4.568-4.342-9.171-6.51-13.757-.43-.908-.88-1.808-1.32-2.711-.094.023-.187.045-.28.069M12.462 18.053c.185.164.224.229.263.23 2.413.02 4.827.042 7.24.028.144 0 .379-.277.406-.451.044-.28-.037-.585-.088-.874-.403-2.268-.807-4.537-1.222-6.803-.108-.586-.259-1.164-.39-1.746l-.233-.05-5.976 9.666M25.409 29.95c-1.941-.025-3.047-1.069-3.383-3.182-.123-.77-.27-1.533-.386-2.303-.073-.48-.312-.695-.81-.694-3.763.009-7.526-.007-11.29.027-.303.003-.71.254-.885.513-.873 1.289-1.653 2.64-2.525 3.928-.746 1.103-1.764 1.763-3.175 1.72C.819 29.89-.506 28.078.183 26.054a7.6 7.6 0 0 1 .866-1.718c4.6-6.937 9.215-13.864 13.834-20.789.372-.557.771-1.1 1.203-1.612 1.252-1.487 2.8-2.229 4.777-1.79 2.096.466 2.907 2.05 3.33 3.922.965 4.264 1.909 8.534 2.842 12.806.641 2.936 1.282 5.872 1.862 8.82.464 2.359-1.153 4.286-3.488 4.255M43.488 29.592c-2.017 0-4.034.01-6.051-.007-.507-.004-1.028-.03-1.517-.152-1.813-.453-2.622-1.579-2.38-3.433.243-1.863.583-3.714.903-5.566a989.81 989.81 0 0 1 1.485-8.407c.516-2.853 1.013-5.71 1.597-8.548.387-1.88 1.42-2.791 3.329-2.95 1.443-.121 2.9-.084 4.351-.091 2.502-.012 5.003-.006 7.504 0 .403 0 .808.013 1.207.062 1.7.21 2.61 1.139 2.585 2.614-.028 1.635-1.072 2.888-2.706 2.953-2.792.11-5.59.082-8.386.112-.456.005-.935-.075-1.364.035-.285.075-.664.384-.72.648-.3 1.417-.481 2.86-.765 4.28-.133.665.132.802.707.799 2.393-.011 4.787-.011 7.18.003.48.003.972.038 1.439.144 1.278.29 1.848.936 1.952 2.125.103 1.189-.5 2.379-1.537 2.777a5.55 5.55 0 0 1-1.874.354c-2.663.039-5.325.036-7.988.007-.702-.007-1.059.145-1.16.937-.195 1.516-.52 3.016-.798 4.52-.161.872-.071 1 .815 1 2.932.007 5.864-.002 8.795.01.535.003 1.09 0 1.598.14 1.187.33 1.811 1.227 1.82 2.46.01 1.338-.697 2.501-1.834 2.85a6.945 6.945 0 0 1-1.894.31c-2.098.037-4.195.014-6.293.014"/></g></svg>