<svg width="88" height="33" viewBox="0 0 88 33" xmlns="http://www.w3.org/2000/svg"><title>logo_upout</title><g fill="none" fill-rule="evenodd"><path d="M77.727 12.203c0-2.135-.005-4.271.005-6.407.002-.265-.05-.358-.34-.354-1.366.017-2.733.016-4.1 0-.269-.002-.332.067-.332.334.01 3.775.008 7.55.005 11.326 0 .627-.028 1.254-.15 1.871-.21 1.07-.602 2.042-1.54 2.689-.814.56-1.74.663-2.699.622-1.559-.067-2.703-.898-3.236-2.362-.298-.818-.403-1.67-.405-2.532-.007-3.877-.005-7.753.003-11.63 0-.248-.055-.32-.312-.317-1.376.014-2.753.013-4.13 0-.244-.002-.319.048-.318.309.011 2.834-.001 5.668.01 8.502.006 1.588-.039 3.176.053 4.764.143 2.47 1.192 4.434 3.188 5.893 1.326.97 2.827 1.46 4.45 1.59 1.83.148 3.627-.002 5.3-.82 2.087-1.02 3.57-2.58 4.158-4.889.291-1.144.377-2.313.386-3.487.013-1.7.004-3.401.004-5.102" fill="#8F9EBC"/><path d="M23.197 15.69a8.288 8.288 0 0 0 .31 2.337c.861 3.01 3.418 4.672 6.507 4.182 1.845-.293 3.086-1.44 3.931-3.034.878-1.655.932-3.426.582-5.226-.25-1.283-.834-2.4-1.778-3.314-1.106-1.071-2.445-1.533-3.977-1.472-1.666.066-3.052.702-4.116 2.004-1.077 1.318-1.444 2.864-1.46 4.524zm-4.492 16.795c.003-.131.009-.263.009-.394 0-8.754.002-17.507-.006-26.261 0-.295.054-.393.374-.388 1.366.02 2.732.014 4.098.003.24-.002.312.063.305.303-.016.602-.005 1.204-.005 1.872.446-.387.829-.742 1.25-1.05 1.9-1.396 4.026-1.92 6.356-1.622 3.572.458 6.004 2.516 7.42 5.687 1.622 3.636 1.55 7.35-.321 10.908-1.225 2.328-3.104 3.992-5.7 4.67-3.314.867-6.241.115-8.732-2.26a9.61 9.61 0 0 0-.2-.185c-.006-.004-.019 0-.041 0-.057.061-.03.145-.03.22-.003 2.752-.003 5.505-.001 8.257 0 .08.014.16.022.24h-4.798z" fill="#BFC9DB"/><path d="M53.815 13.75c-.028-1.086.096-2.147-.06-3.205-.577-3.903-4.335-5.8-7.746-4.369-2.206.926-3.241 2.765-3.38 5.116-.05.857-.056 1.718-.051 2.577.005.96-.068 1.92.043 2.88.306 2.64 2.328 4.708 4.957 4.963 2.991.29 5.728-1.823 6.111-4.81.136-1.057.085-2.119.126-3.152zM49.435.905c.42.134.861.153 1.29.243 3.912.82 7.345 4.349 8.069 8.286.154.84.226 1.684.224 2.534-.005 1.507.04 3.015-.038 4.521-.243 4.667-3.798 8.84-8.378 9.791-2.838.59-5.552.275-8.058-1.27a10.894 10.894 0 0 1-2.998-2.758c-.084-.112-.16-.204-.068-.371.978-1.778 1.446-3.697 1.537-5.714.106-2.314-.212-4.553-1.184-6.676a10.762 10.762 0 0 0-1.274-2.128c-.125-.162-.132-.288-.042-.462 1.712-3.324 4.409-5.288 8.101-5.889.17-.028.36.017.512-.107h2.307z" fill="#8F9EBC"/><path d="M0 2.484c1.518-.003 3.036-.005 4.554-.012.159 0 .222.054.208.21-.008.081-.001.163-.001.244 0 4.777-.004 9.554.003 14.33.001.882.093 1.755.386 2.598.524 1.506 1.685 2.37 3.281 2.43.559.02 1.113 0 1.655-.151 1.41-.396 2.136-1.412 2.48-2.763a8.148 8.148 0 0 0 .238-2.012c.002-4.848.004-9.696-.005-14.544-.001-.282.078-.349.35-.346 1.367.014 2.733.011 4.1.002.225-.002.309.04.309.292-.009 4.95-.002 9.898-.01 14.847a13.091 13.091 0 0 1-.384 3.214c-.551 2.169-1.93 3.676-3.856 4.713-1.595.859-3.332 1.073-5.116.997-2.464-.106-4.585-.972-6.26-2.828C.825 22.479.267 21.027.117 19.397c-.025-.274-.005-.557-.117-.82V2.485z" fill="#BFC9DB"/><path d="M87.94 9.893c-1.174-.003-2.348-.004-3.521-.013-.147 0-.202.047-.186.19.008.07.002.142.002.213 0 5.11-.002 10.222.006 15.333 0 .27-.058.353-.342.35a244.12 244.12 0 0 0-4.16-.004c-.195.001-.256-.048-.256-.252.006-8.239.005-16.477.006-24.715 0-.03.005-.06.009-.09h4.737c0 1.413.007 2.827-.007 4.24-.002.257.072.313.319.31 1.13-.01 2.262.001 3.392.005v4.433zM77.727 12.203c0 1.7.01 3.401-.004 5.102-.009 1.174-.095 2.343-.386 3.487-.588 2.31-2.071 3.87-4.158 4.89-1.673.817-3.47.967-5.3.82-1.623-.132-3.124-.622-4.45-1.591-1.996-1.46-3.045-3.424-3.188-5.893-.092-1.588-.047-3.176-.053-4.764-.011-2.834.001-5.668-.01-8.502 0-.261.074-.31.319-.308 1.376.012 2.753.013 4.13-.001.256-.003.311.069.31.317-.007 3.877-.01 7.753-.002 11.63.002.862.107 1.714.405 2.532.533 1.464 1.677 2.295 3.236 2.362.96.04 1.885-.062 2.698-.622.939-.647 1.33-1.62 1.541-2.689.122-.617.15-1.244.15-1.871.003-3.776.005-7.551-.005-11.326 0-.267.063-.336.333-.334 1.366.016 2.733.017 4.099 0 .29-.004.342.089.34.354-.01 2.136-.005 4.272-.005 6.407" fill="#8F9EBC"/></g></svg>