<svg width="104" height="19" viewBox="0 0 104 19" xmlns="http://www.w3.org/2000/svg"><title>logo_sony</title><g fill="#8F9EBC" fill-rule="evenodd"><path d="M93.17 7.807l3.244-3.462c.187-.254.28-.432.28-.585 0-.254-.218-.356-.906-.356h-.818V1.22h8.856v2.185h-1.164c-1.344 0-1.594.203-3.468 2.567l-5.13 5.54v3.38c0 .864.437 1.168 1.687 1.168h1.937v2.11H85.286v-2.11h1.937c1.249 0 1.686-.304 1.686-1.169v-3.38l-6.041-6.683c-.999-1.168-.861-1.423-3.64-1.423V1.22h11.216v2.185h-.799c-.812 0-1.156.153-1.156.458 0 .254.25.458.406.66l3.057 3.331c.362.378.805.427 1.219-.046M17.914 1.218h2.706v6.099H18.12c-.221-1.22-.984-1.694-1.68-2.333-1.256-1.154-3.974-2.114-6.26-2.114-2.951 0-5.441.915-5.441 2.261 0 3.736 16.876.763 16.876 7.827 0 3.686-3.615 5.744-10.107 5.744-2.247 0-5.649-.698-7.655-1.763-.63-.364-.896.343-1.014 1.229H.066v-6.302h2.509c.553 1.601 1.316 1.931 2.017 2.567 1.217 1.118 4.113 1.931 6.769 1.905 4.005-.04 5.382-.915 5.382-2.185s-1.362-1.576-5.75-2.262l-3.726-.61C3.062 10.647 0 9.707 0 6.352 0 2.87 3.873.684 9.996.684c2.58 0 4.74.345 6.812 1.517.575.372 1.113.417 1.106-.983M70.717 11.429l.053-6.779c0-.888-.462-1.194-1.784-1.194h-1.554V1.347h9.883v2.11h-1.288c-1.323 0-1.786.305-1.786 1.193v13.646l-3.869-.029L57.846 6.404v8.615c0 .864.463 1.194 1.785 1.194h1.719v2.083H51.087v-2.083h1.7c1.322 0 1.785-.33 1.785-1.194V4.65c0-.888-.463-1.194-1.784-1.194h-1.7V1.347h8.873L70.717 11.43zM37.434 16.363c-4.36 0-6.866-2.516-6.866-6.862 0-4.243 2.616-6.76 7.084-6.76 4.286 0 6.793 2.568 6.793 6.938 0 4.27-2.543 6.684-7.01 6.684M37.612.556c-7.876 0-12.806 3.482-12.806 9.072 0 5.49 4.862 8.945 12.566 8.945 8.184 0 12.944-3.404 12.944-9.224 0-5.234-5.137-8.793-12.704-8.793"/></g></svg>