<svg width="75" height="72" viewBox="0 0 75 72" xmlns="http://www.w3.org/2000/svg"><title>logo_designdesign</title><path d="M4.542 2.018h-3.1v14.26h3.1c3.711 0 5.742-3.279 5.742-7.13s-2.03-7.13-5.742-7.13m.131 15.795H.721c-.393 0-.72-.391-.72-.859V1.316C0 .847.327.483.72.483h3.952c4.367 0 7.053 4.007 7.053 8.665 0 4.657-2.686 8.665-7.053 8.665m19.106 0h-8.712c-.394 0-.721-.391-.721-.859V1.316c0-.468.327-.833.72-.833h8.385c.371 0 .677.338.677.78 0 .443-.306.781-.677.781h-7.685v5.96h4.345c.37 0 .655.337.655.78 0 .442-.284.78-.655.78h-4.345v6.688h8.013c.37 0 .655.338.655.78s-.284.78-.655.78m8.537.339c-1.725 0-4.52-.833-5.83-2.628a.946.946 0 0 1-.197-.572.82.82 0 0 1 .153-.495c.132-.156.285-.26.46-.26.152 0 .327.078.457.208 1.42 1.458 3.144 2.211 4.979 2.211 1.921 0 3.974-.831 3.974-3.2 0-1.925-1.9-2.68-5-4.033-1.987-.859-4.171-1.9-4.171-4.814 0-3.07 2.38-4.397 5.218-4.397 1.813 0 3.822.78 5 1.847a.875.875 0 0 1 .285.651.96.96 0 0 1-.11.416c-.13.208-.327.338-.524.338a.653.653 0 0 1-.37-.13c-1.311-.989-2.577-1.587-4.28-1.587-2.009 0-3.8.859-3.8 2.862 0 2.004 1.988 2.758 4.717 3.903 2.576 1.067 4.476 2.213 4.476 4.866 0 3.253-2.49 4.814-5.437 4.814m9.76-.13c-.393 0-.72-.39-.72-.859V1.107c0-.467.327-.858.72-.858.392 0 .698.39.698.858v16.055c0 .468-.306.859-.698.859m17.293-3.357c-1.441 2.29-3.603 3.487-5.94 3.487-4.214 0-7.27-4.242-7.27-9.003 0-4.762 3.056-8.977 7.27-8.977 1.987 0 3.647.832 4.979 2.42.13.156.174.338.174.546 0 .183-.043.39-.152.521a.52.52 0 0 1-.437.208.653.653 0 0 1-.459-.182c-1.026-1.015-2.27-1.978-4.104-1.978-3.538 0-5.852 3.565-5.852 7.442 0 3.903 2.314 7.468 5.852 7.468 1.965 0 3.668-.989 4.673-2.654V10.11h-4.019c-.35 0-.632-.364-.632-.78 0-.417.283-.756.632-.756h4.739c.393 0 .72.417.72.886v4.63c0 .235-.065.39-.174.573m14.061 3.358c-.24.026-.415-.078-.546-.312L64.302 3.346v13.869c0 .442-.328.806-.7.806-.37 0-.676-.364-.676-.806V1.082c0-.417.284-.833.699-.833.24 0 .437.156.545.338 0 0 6.988 11.918 8.56 14.337V1.082c0-.442.306-.833.677-.833.371 0 .699.39.699.833v16.133c0 .442-.306.78-.677.806M6.834 29.574L3.67 37.9h6.31l-3.145-8.327zm6.42 15.014a.504.504 0 0 1-.262.078c-.262 0-.502-.156-.611-.47l-1.835-4.813H3.1l-1.812 4.788c-.11.286-.349.495-.611.495a.58.58 0 0 1-.284-.078c-.24-.13-.393-.417-.393-.729 0-.104 0-.234.044-.338l6.157-16.133c.066-.182.306-.494.633-.494.328 0 .546.338.612.494l6.157 16.133a.907.907 0 0 1 .044.338c0 .312-.152.598-.393.729zm13.516.078c-.24.025-.414-.078-.546-.312L17.643 29.99v13.87c0 .442-.328.806-.699.806-.371 0-.677-.364-.677-.807V27.727c0-.417.284-.833.699-.833.24 0 .437.156.546.338 0 0 6.987 11.917 8.56 14.337V27.727c0-.443.305-.833.676-.833.371 0 .699.39.699.833v16.132c0 .443-.306.781-.677.807m9.585-16.003h-3.1v14.259h3.1c3.711 0 5.742-3.278 5.742-7.129 0-3.852-2.03-7.13-5.742-7.13m.131 15.795h-3.952c-.393 0-.72-.391-.72-.859V27.961c0-.47.327-.833.72-.833h3.952c4.367 0 7.053 4.007 7.053 8.665 0 4.657-2.686 8.665-7.053 8.665M4.542 55.308h-3.1v14.259h3.1c3.711 0 5.742-3.279 5.742-7.13 0-3.85-2.03-7.13-5.742-7.13m.131 15.795H.721c-.393 0-.72-.39-.72-.858V54.605c0-.468.327-.833.72-.833h3.952c4.367 0 7.053 4.008 7.053 8.666 0 4.657-2.686 8.664-7.053 8.664m19.106 0h-8.712c-.394 0-.722-.39-.722-.858V54.605c0-.468.328-.833.722-.833h8.384c.371 0 .677.339.677.78 0 .444-.306.781-.677.781h-7.686v5.96h4.346c.37 0 .655.337.655.78s-.284.781-.655.781h-4.346v6.687h8.014c.37 0 .655.339.655.78 0 .443-.284.781-.655.781m8.536.338c-1.725 0-4.52-.832-5.83-2.627a.946.946 0 0 1-.196-.573c0-.182.043-.338.153-.494.131-.156.284-.26.459-.26.153 0 .327.077.458.207 1.42 1.458 3.144 2.212 4.978 2.212 1.922 0 3.974-.832 3.974-3.2 0-1.926-1.9-2.68-5-4.034-1.987-.858-4.17-1.9-4.17-4.813 0-3.07 2.38-4.398 5.218-4.398 1.813 0 3.82.78 5 1.848a.875.875 0 0 1 .284.65.96.96 0 0 1-.11.416c-.13.209-.327.339-.523.339a.653.653 0 0 1-.371-.13c-1.31-.99-2.577-1.587-4.28-1.587-2.008 0-3.8.858-3.8 2.862s1.988 2.758 4.718 3.903c2.575 1.066 4.475 2.212 4.475 4.866 0 3.252-2.489 4.813-5.437 4.813m9.76-.13c-.393 0-.72-.39-.72-.858V54.397c0-.468.327-.859.72-.859.393 0 .699.391.699.859v16.055c0 .468-.306.858-.699.858m17.293-3.356c-1.441 2.29-3.603 3.486-5.94 3.486-4.214 0-7.27-4.241-7.27-9.003 0-4.761 3.056-8.977 7.27-8.977 1.987 0 3.647.833 4.979 2.42.13.157.174.338.174.546 0 .183-.043.391-.152.522a.52.52 0 0 1-.437.208.653.653 0 0 1-.459-.183c-1.026-1.014-2.27-1.977-4.104-1.977-3.538 0-5.852 3.564-5.852 7.441 0 3.903 2.314 7.469 5.852 7.469 1.965 0 3.668-.99 4.673-2.655v-3.85h-4.019c-.35 0-.632-.365-.632-.781 0-.417.283-.755.632-.755h4.739c.393 0 .72.416.72.885v4.631c0 .234-.065.39-.174.573m14.061 3.356c-.24.026-.415-.078-.546-.311l-8.581-14.364v13.87c0 .441-.328.805-.7.805-.37 0-.676-.364-.676-.806V54.371c0-.416.284-.833.699-.833.24 0 .437.156.545.339 0 0 6.988 11.917 8.56 14.337V54.37c0-.442.306-.833.677-.833.371 0 .699.391.699.833v16.133c0 .442-.306.78-.677.806" fill-rule="evenodd"/></svg>