<svg width="120" height="30" viewBox="0 0 120 30" xmlns="http://www.w3.org/2000/svg"><title>logo_tnw</title><path d="M25.455 0H0v10.91h7.273v18.18h10.909V10.909h7.273V0zm83.636 0v9.455c0 1.272-.546 2.363-1.273 3.272l-4.182 4.182c-.909.91-2 1.273-3.272 1.273h-4.546c1.455-1.636 2.364-3.818 2.364-6V0h-10.91v9.455c0 1.272-.545 2.363-1.272 3.272l-4.182 4.182c-.909.91-2 1.273-3.273 1.273h-2.182V0H65.455v29.091h15.818c2.363 0 4.727-.91 6.363-2.727l5.091-5.091v7.818h10.364c2.363 0 4.727-.91 6.364-2.727l7.818-7.819c1.818-1.636 2.727-4 2.727-6.363V0h-10.91zM61.818 29.091H50.91v-9.455c0-1.272-.545-2.363-1.273-3.272l-4.182-4.182c-.909-.727-2-1.273-3.272-1.273H40v18.182H29.091V0h15.818c2.364 0 4.727.909 6.364 2.727l7.818 7.819c1.818 1.636 2.727 4 2.727 6.363v12.182z" fill="#FE4219" fill-rule="evenodd"/></svg>