<svg width="87" height="63" viewBox="0 0 87 63" xmlns="http://www.w3.org/2000/svg"><title>logo_toc</title><g fill="#8F9EBC" fill-rule="evenodd"><path d="M53.6 0L28.728 23.157H27.2V.12L0 23.81v38.546h86.4V1.557H67.2v21.6H53.6V0zm16 25.556v-21.6H84v56.001H2.4V24.902L24.8 5.393v20.163h4.872L51.2 5.513v20.043h18.4z"/><path d="M14.552 41.994c0 1.867.627 3.402 1.88 4.605 1.248 1.203 2.687 1.805 4.32 1.805 1.772 0 3.267-.613 4.484-1.838 1.218-1.239 1.828-2.749 1.828-4.528 0-1.8-.602-3.31-1.805-4.527-1.196-1.226-2.676-1.838-4.441-1.838-1.757 0-3.24.612-4.451 1.838-1.21 1.21-1.815 2.704-1.815 4.483m-2.57-.033c0-2.376.87-4.417 2.614-6.124 1.735-1.706 3.82-2.56 6.256-2.56 2.405 0 4.468.861 6.19 2.582 1.727 1.72 2.592 3.787 2.592 6.2 0 2.429-.868 4.489-2.603 6.18-1.743 1.7-3.847 2.549-6.311 2.549-2.18 0-4.138-.755-5.873-2.264-1.91-1.67-2.866-3.857-2.866-6.563M35.386 41.262h.952c2.34 0 3.51-.9 3.51-2.702 0-1.743-1.206-2.614-3.62-2.614h-.842v5.316zm0 2.362v6.857h-2.548V33.595h2.888c1.414 0 2.482.098 3.204.295.73.197 1.37.569 1.925 1.116.97.947 1.455 2.143 1.455 3.587 0 1.546-.518 2.77-1.553 3.675-1.036.904-2.432 1.356-4.19 1.356h-1.18zM54.252 35.99h-6.77v4.058h6.574v2.394h-6.573v5.644h6.77v2.395h-9.318V33.595h9.317zM57.6 50.482V32.446L69.913 45.33V33.595h2.548V51.51L60.148 38.66v11.822z"/></g></svg>