<svg width="135" height="33" viewBox="0 0 135 33" xmlns="http://www.w3.org/2000/svg"><title>logo_gestalten</title><path d="M21.26 13.152c0-1.411 1.136-2.516 2.584-2.516h2.384c1.45 0 2.584 1.105 2.584 2.516v2.024H21.26v-2.024zm-3.257 6.986c0 3.281 2.497 5.852 5.682 5.852h3.02c2.617 0 5.327-1.775 5.327-4.744v-.07h-3.298v.123c-.166 1.069-.899 1.652-2.07 1.652h-2.742c-1.467 0-2.662-1.128-2.662-2.514v-2.344h10.812v-4.6c0-3.284-2.533-5.856-5.764-5.856h-2.543c-3.179 0-5.762 2.665-5.762 5.936v6.564zm88.237-6.987c0-1.41 1.133-2.515 2.58-2.515h2.386c1.45 0 2.582 1.105 2.582 2.516v2.024h-7.548v-2.024zm-3.261 6.986c0 3.282 2.494 5.854 5.681 5.854h3.019c2.623 0 5.33-1.776 5.33-4.745v-.07h-3.298v.123c-.164 1.069-.896 1.652-2.07 1.652H108.9c-1.467 0-2.66-1.128-2.66-2.514v-2.344h10.81v-4.6c0-3.284-2.533-5.856-5.764-5.856h-2.542c-3.18 0-5.765 2.665-5.765 5.936v6.564zm-53.422-.291c0-2.773-1.823-4.784-4.337-4.784h-4.816a1.427 1.427 0 0 1-1.436-1.448v-1.489c0-.835.631-1.489 1.436-1.489h3.64c1.11 0 1.674.529 1.674 1.57v.287h3.335v-.11a4.745 4.745 0 0 0-4.735-4.745h-3.796c-2.699 0-4.813 2.05-4.813 4.664v1.103c0 2.664 2.061 4.748 4.695 4.748h4.457c.794 0 1.435.686 1.435 1.529v1.739c0 .83-.672 1.53-1.472 1.53h-4.658c-.96 0-1.554-.619-1.554-1.611v-.166h-3.297v.072c0 2.66 2.025 4.744 4.616 4.744h4.893c2.654 0 4.733-2.05 4.733-4.662v-1.482zm18.417-.218c0-.846.647-1.532 1.437-1.532h5.94v2.224c0 1.625-.97 2.633-2.524 2.633H69.41c-.79 0-1.437-.69-1.437-1.534v-1.791zm1.478 6.361h2.919c1.281 0 2.32-.61 2.855-1.674l.08-.155.159 1.502h3.144V12.466c0-2.798-1.99-4.827-4.734-4.827h-3.758c-2.58 0-4.667 2.091-4.768 4.772h3.256c.07-.756.657-1.775 1.512-1.775h3.758c.813 0 1.476.667 1.476 1.488v3.051h-5.9c-2.61 0-4.734 2.188-4.734 4.872v1.031c0 2.384 1.661 4.912 4.735 4.912zm13.616-.33h3.26V.5h-3.26v25.16zm-23.144.003h2.266v-3.037h-2.07c-1.392 0-2.221-.828-2.221-2.218v-9.444h4.29V7.967H57.9V1.224h-3.26v6.742h-2.928v2.997h2.928v9.347c0 3.3 2.022 5.35 5.283 5.35zm40.135 0v-3.037h-2.071c-1.39 0-2.222-.828-2.222-2.218v-9.444h4.293V7.967h-4.293V1.224h-3.26v6.742h-2.927v2.997h2.927v9.347c0 3.3 2.025 5.35 5.286 5.35h2.267zm29.14-15.026c1.426 0 2.543 1.105 2.543 2.514v12.51H135V13.45c0-3.533-2.216-5.815-5.644-5.815h-2.252c-1.094 0-2.205.676-2.775 1.298l-.077.087-.084-1.054h-3.144v17.695h3.259V13.069c0-1.41 1.053-2.434 2.504-2.434h2.412zM5.8 22.953c-1.447 0-2.54-1.064-2.54-2.476v-7.325c0-1.412 1.115-2.515 2.54-2.515h2.493c1.38 0 2.504 1.056 2.504 2.35v7.49c0 1.412-1.077 2.476-2.504 2.476H5.8zm2.809 10.05c3.26 0 5.446-2.155 5.446-5.361V7.968l-3.144-.002-.083 1.14-.08-.09A4.16 4.16 0 0 0 7.623 7.64H5.684C2.496 7.639 0 10.189 0 13.45v6.724c0 3.264 2.478 5.816 5.644 5.816h2.333c1.166 0 2.132-.553 2.739-1.017l.082-.063v3.075c0 1.367-1.038 1.98-2.068 1.98H5.962c-1.213 0-2.044-.663-2.183-1.735H.519c.231 2.814 2.445 4.774 5.402 4.774H8.61z" fill="#111" fill-rule="evenodd"/></svg>