<svg width="12" height="18" viewBox="0 0 12 18" xmlns="http://www.w3.org/2000/svg" xmlns:xlink="http://www.w3.org/1999/xlink"><title>page-help</title><defs><path d="M17 17a1 1 0 0 1-1 1h-2a1 1 0 0 1-1-1c0-1.471.808-2.578 2.103-3.276C16.49 12.977 17 12.374 17 12a2 2 0 1 0-4 0H9a6 6 0 1 1 12 0c0 2.155-1.455 3.63-4 5zm-3 3h2a1 1 0 0 1 1 1v2a1 1 0 0 1-1 1h-2a1 1 0 0 1-1-1v-2a1 1 0 0 1 1-1zm-5-8h4a1 1 0 0 1-1 1h-2a1 1 0 0 1-1-1z" id="a"/></defs><use fill="#000" fill-rule="nonzero" xlink:href="#a" transform="translate(-9 -6)"/></svg>