<svg width="25" height="24" viewBox="0 0 25 24" xmlns="http://www.w3.org/2000/svg"><title>topic_icon_design</title><g stroke="#BFC9DB" fill="none" fill-rule="evenodd" stroke-linecap="round" stroke-linejoin="round"><path d="M5.503 21.5l-3-3L14.998 6 18 9z"/><path d="M11.918 15.082L21 23.5c1.699 0 2.5.195 2.5-2.5l-9.76-7.739M22.5 4.5c.781.781.781 2.22 0 3l-5 5M2.25 21.75L.5 23.5"/><path d="M20.5.5l3 3L18 9l-3-3zM3.249 19.25L1.5 20.999 3 22.5l1.75-1.75M3 .5c-.184 3.741 3.217 3.281 4.68 4.371 1.549 1.155 1.876 3.399.718 4.947C4.652 14.842-2.588 5.902 3 .5z"/><path d="M10.393 10.606L8.727 9.285l-.027.03a3.352 3.352 0 0 1-.302.503 4.065 4.065 0 0 1-1.066 1.013l1.472 1.363"/></g></svg>