<svg width="24" height="22" viewBox="0 0 24 22" xmlns="http://www.w3.org/2000/svg"><title>topic_icon_psychology</title><g stroke="#BFC9DB" fill="none" fill-rule="evenodd" stroke-linecap="round" stroke-linejoin="round"><path d="M11.5 15.5h-3c-1.587 0-2.872-.736-2.979-2.296C4.319 14.307.5 11.999.5 8.5c0-3.499 3.22-5.835 4.508-5.079A2.996 2.996 0 0 1 8 .5c.901 0 1.7.405 2.25 1.034A2.98 2.98 0 0 1 12.5.5c1.292 0 2.384.821 2.806 1.967A2.984 2.984 0 0 1 17.5 1.5a3 3 0 0 1 3 3 3 3 0 0 1 3 3c0 .901-.405 1.7-1.035 2.25a2.981 2.981 0 0 1 .914 3.107 2.964 2.964 0 0 1-1.856 1.965 2.962 2.962 0 0 1-2.578-.269 2.993 2.993 0 0 1-2.444 2.396V21.5h-3v-4.535a3.466 3.466 0 0 1 3.465-3.465H17"/><path d="M13.522 17.585A2.977 2.977 0 0 1 12 18c-2.5 0-3.583-1.344-4-2.5M22.5 10s-4 1.5-6.5-1M1 6.541s4.5-.5 5.5 2m4-7.041V4a1.5 1.5 0 0 0 3 0m-3-2.5V4a1.5 1.5 0 0 1-3 0M9 15.5S8.5 11 11.5 10m8 0s1-2 0-3.5"/></g></svg>