<?xml version="1.0" encoding="UTF-8"?>
<svg width="1440px" height="1065px" viewBox="0 0 1440 1065" version="1.1" xmlns="http://www.w3.org/2000/svg" xmlns:xlink="http://www.w3.org/1999/xlink">
    <!-- Generator: Sketch 43.2 (39069) - http://www.bohemiancoding.com/sketch -->
    <title>hero</title>
    <desc>Created with Sketch.</desc>
    <defs></defs>
    <g id="art" stroke="none" stroke-width="1" fill="none" fill-rule="evenodd">
        <g id="hero" stroke="#BFC9DB">
            <path d="M823.589725,845.587173 C788.19089,847.590391 711.38157,859.613692 633.238103,869.631778 C555.092638,879.649864 537.059684,884.992444 494.315051,904.36354 C451.568422,923.732638 406.151501,977.831501 393.461126,999.872888 C386.558713,1011.86024 377.878768,1037.0852 369.033054,1063.53047" id="Stroke-1"></path>
            <path d="M1249.96214,1063.53127 C1239.46872,1030.1776 1225.54206,984.940427 1204.29357,956.457986 C1199.99953,950.703978 1195.39793,945.297487 1190.60858,940.208555" id="Stroke-3"></path>
            <path d="M1190.24408,939.822092 C1160.07798,907.938374 1122.29645,889.024644 1102.77157,880.985809 C1080.06311,871.634796 1029.30361,863.619928 955.16658,866.95929 C881.029548,870.298652 778.839479,874.974158 730.750269,879.649664 C682.663057,884.325171 669.303612,886.997459 669.303612,886.997459" id="Stroke-5"></path>
            <path d="M251.377265,1063.53127 C246.993354,1058.19069 241.197404,1053.35141 234.123229,1049.57865 C211.858153,1037.70514 205.922397,1036.2212 186.032022,1036.81438 C166.141648,1037.40756 150.111911,1042.15696 132.596239,1049.87624 C115.082563,1057.59352 104.692993,1061.74975 98.4576533,1063.53127" id="Stroke-9"></path>
            <path d="M356.823012,997.713886 C358.436771,1003.91328 356.93286,1005.47511 352.570918,1011.58063 C348.117104,1017.81397 338.32071,1028.50113 330.008255,1035.03206 C321.6958,1041.56298 313.680932,1040.67222 305.666064,1043.6421 C297.651196,1046.60998 299.135135,1051.35938 287.854802,1056.40637 C282.857742,1058.64126 276.872055,1051.95455 277.167645,1063.53047" id="Stroke-13"></path>
            <path d="M255.539883,1061.75015 C251.425598,1051.95375 243.177054,1048.3907 225.811173,1036.70493 C208.445293,1025.01717 187.070979,1012.76818 162.580993,1010.09589 C138.08901,1007.4256 111.817498,1006.08945 67.2873454,1021.22843 C39.3181914,1030.73922 22.5974147,1049.02981 13.474086,1063.53167" id="Stroke-15"></path>
            <path d="M44.7584355,975.920954 C44.6545798,975.321786 44.5447323,974.708638 44.4288932,974.077515" id="Stroke-17"></path>
            <path d="M44.7584355,975.920954 C46.0766047,983.446502 46.3741914,988.519456 39.2341082,988.723173 C24.540516,989.142591 24.0951345,1000.30109 27.2128044,1008.4298 C30.3284771,1016.55851 27.6581859,1018.55774 11.6264521,1030.57904 C-0.312965326,1039.5346 -0.634518724,1052.87008 3.11826907,1063.53127" id="Stroke-21"></path>
            <path d="M44.7584355,975.920954 C44.5667018,975.301814 44.4668405,974.686669 44.4288932,974.077515" id="Stroke-25"></path>
            <path d="M471.279245,720.634119 C464.332893,724.508738 458.04962,728.045825 453.799523,730.45448 C440.440078,738.023967 405.262935,757.171373 392.348871,762.070569 C379.436804,766.967767 370.085792,768.749293 366.077359,772.312344 C363.932338,774.219695 349.9198,780.718669 334.013892,787.714951" id="Stroke-27"></path>
            <path d="M131.409886,1008.4296 C98.4576533,1002.5258 71.2953786,993.106885 55.2656422,985.571351 C49.1022025,982.673376 45.7927989,979.246136 44.7582358,975.920755" id="Stroke-29"></path>
            <path d="M542.349337,699.706785 C530.363983,695.270946 522.798491,693.505398 511.687922,698.839989 C504.096466,702.482929 486.161376,712.333248 471.280044,720.63372" id="Stroke-31"></path>
            <path d="M44.4292926,974.078513 C44.1536755,969.458929 48.2419972,965.278735 55.2642441,963.341426 C68.1783079,959.778374 80.4492649,952.208888 83.4411096,939.740205 C86.4349515,927.27352 97.1221082,924.601232 106.918502,921.483562 C116.714896,918.365892 117.160277,909.014879 122.504854,901.000011 C127.847434,892.985143 138.089209,891.648999 147.885603,889.867473 C157.681997,888.087945 166.142247,880.071079 172.377587,872.946974 C178.610929,865.822868 189.298086,858.253381 197.758336,856.471856 C206.218585,854.69033 213.788072,845.784699 225.365992,840.885503 C236.943911,835.988305 273.011817,813.277847 294.831512,804.372216 C304.971429,800.233964 320.204272,793.786918 334.013093,787.715351" id="Stroke-33"></path>
            <path d="M92.6694924,972.247057 C118.941004,990.5037 134.527356,997.182424 145.214513,1002.08162 C155.90167,1006.97882 164.278036,1010.30021 164.278036,1010.30021" id="Stroke-35"></path>
            <path d="M142.987207,985.57175 C160.798469,993.17519 175.260383,1003.18529 186.50876,1015.76981" id="Stroke-37"></path>
            <path d="M150.111712,948.646635 C165.696067,975.363528 188.320644,1013.37274 208.147107,1025.76153" id="Stroke-39"></path>
            <path d="M156.346053,909.015678 C168.814735,945.083584 182.172183,972.004194 200.430824,991.273431 C218.68547,1010.54267 241.841309,1032.80575 253.419229,1033.69651 C264.997148,1034.58727 309.970685,1032.54611 316.206025,1030.8944" id="Stroke-41"></path>
            <path d="M429.586352,954.256044 C429.586352,954.256044 409.270569,966.90248 400.364938,969.129387 C391.459307,971.356294 384.780583,975.810108 372.757282,987.204283 C366.563883,993.07413 362.020194,996.006058 356.823412,997.713687" id="Stroke-43"></path>
            <path d="M208.147906,872.947373 C216.460361,908.124516 231.153953,948.646236 263.660804,969.129786 C296.167656,989.613337 321.993786,1002.37761 338.468904,1000.66998 C346.459806,999.843129 351.930208,999.321853 356.823412,997.714086" id="Stroke-45"></path>
            <path d="M260.99311,932.170918 C281.472666,953.990613 300.620072,971.801875 325.110058,976.253692 C349.602042,980.707506 372.755883,975.364926 381.661515,972.247257" id="Stroke-47"></path>
            <path d="M126.494913,1007.51228 C91.2997947,1000.47605 61.4991845,1006.97902 33.0287268,1015.76881" id="Stroke-49"></path>
            <path d="M499.62987,720.628128 C500.900105,716.619695 502.789481,713.130541 505.230092,710.416311 C515.579717,698.91828 528.162241,699.06208 537.291562,702.846824" id="Stroke-53"></path>
            <path d="M499.62987,720.628128 C495.687345,733.066852 497.794419,750.586519 508.569454,766.077004 C522.819662,786.560555 539.294779,808.825631 558.442186,817.731262 C566.672755,821.559945 573.417387,822.782247 578.9517,822.362829" id="Stroke-55"></path>
            <path d="M578.9517,822.362829 C586.293503,821.805603 591.504266,818.352399 595.179162,814.168211 C601.624211,806.836394 600.419883,800.770818 600.413892,800.746852" id="Stroke-57"></path>
            <path d="M1027.2992,788.815623 C1017.94818,784.140117 981.882275,766.774236 905.742025,758.092294 C829.599778,749.410352 732.754286,776.125248 698.024521,786.143334 C663.29276,796.163417 621.215201,814.863445 565.12111,855.135512" id="Stroke-59"></path>
            <path d="M1094.01653,877.886313 C1069.23096,852.078158 1027.96827,824.214857 980.54613,805.758491 C933.125992,787.304122 875.018696,787.479878 823.590125,794.158602" id="Stroke-61"></path>
            <path d="M998.067795,777.018208 C1017.28111,780.131883 1019.28433,770.565171 1031.30763,777.018208 C1043.32893,783.473243 1068.70968,808.66825 1078.06069,822.453104 C1083.47917,830.442008 1100.55745,847.733992 1117.21232,866.186363 C1129.28954,879.567778 1141.14508,893.560344 1148.17132,905.058374" id="Stroke-63"></path>
            <path d="M995.240122,730.708128 C965.183867,718.017753 934.889942,710.787795 915.520843,698.333093" id="Stroke-65"></path>
            <path d="M995.240122,730.708128 C1025.29638,743.398502 1052.01127,752.749515 1068.71008,782.803773 C1085.40689,812.860028 1106.51757,854.300472 1119.89699,869.177809" id="Stroke-67"></path>
            <path d="M471.279245,720.634119 C463.589925,743.398502 468.265431,772.118613 484.295168,794.158003 C500.324904,816.19939 525.054558,836.237559 542.412449,841.580139 C559.768344,846.922718 570.15392,847.246269 576.473143,844.222469" id="Stroke-73"></path>
            <path d="M542.349337,699.706785 C543.425842,697.779462 544.078935,698.394607 547.97752,698.394607 C557.10684,698.394607 560.372305,700.471723 562.747007,706.705065 C565.121709,712.940405 573.73175,733.126369 580.855856,741.736411 C587.979961,750.344455 604.90046,766.374191 616.180793,771.718768 C626.514441,776.611972 632.879601,779.228338 640.489032,778.956716" id="Stroke-75"></path>
            <path d="M542.349337,699.706785 C541.846036,700.609531 541.250863,702.063512 540.186341,704.404261 C536.846979,711.752055 536.62329,716.872943 540.186341,727.783789 C543.747395,738.692638 558.442985,759.397881 566.457853,767.636438 C574.472721,775.874996 590.286757,790.568588 600.414691,794.577021 C610.540627,798.583456 621.896854,801.255745 628.130197,799.697908 C634.365537,798.138075 640.598879,790.346896 644.383623,787.450918 C648.168366,784.556938 654.625398,777.654524 655.576078,769.601709" id="Stroke-77"></path>
            <path d="M640.488632,778.956117 C641.185664,778.930153 641.878702,778.918169 642.601698,778.842275 C651.209742,777.951512 652.691684,771.402607 652.691684,771.40061" id="Stroke-79"></path>
            <path d="M499.62987,720.628128 C499.78765,720.566214 508.633365,717.065076 515.545764,713.533981 C522.522075,709.970929 540.017775,701.984022 541.373892,700.546019" id="Stroke-85"></path>
            <path d="M554.002752,698.29894 C554.002752,698.29894 554.138563,697.354252 553.988771,695.544766 C553.840976,693.733282 551.31848,692.902436 548.20081,692.457054 C545.08314,692.011673 541.374291,693.940993 542.412849,698.29894" id="Stroke-87"></path>
            <path d="M552.268361,693.518979 C552.268361,693.518979 554.137764,690.674929 554.059872,688.366136 C553.979983,686.057343 551.912854,684.739173 550.131329,684.441587 C548.349803,684.144 545.825309,684.441587 543.895989,685.925526 C541.966669,687.409465 542.042563,690.910602 543.824089,693.518979" id="Stroke-89"></path>
            <path d="M556.661459,684.337931 C555.918491,685.777931 554.061071,686.371107 554.061071,686.371107" id="Stroke-91"></path>
            <path d="M547.12051,684.506297 C546.271689,679.54319 553.395795,676.723107 555.325115,678.600499 C558.189137,681.384632 557.404227,682.89853 556.661259,684.33853" id="Stroke-93"></path>
            <path d="M583.231157,667.214313 C585.440089,665.109237 587.245581,663.433564 588.573736,662.472899 C590.746718,660.905076 593.391046,657.997115 595.823667,654.456033" id="Stroke-95"></path>
            <path d="M583.231157,667.214313 C576.550436,673.583467 566.166857,683.909126 554.06167,690.378141" id="Stroke-97"></path>
            <path d="M676.862313,452.115462 C677.331662,451.412438 677.335656,451.406447 677.335656,451.406447" id="Stroke-99"></path>
            <path d="M676.862313,452.115462 C676.692549,452.371107 676.464865,452.712632 676.147307,453.187972 C674.960954,454.969498 669.616377,462.984366 658.038458,475.748638 C646.462535,488.51291 642.601897,499.200067 641.711135,500.686003 C640.820372,502.169942 631.321564,520.57438 626.869748,534.527001 C622.415933,548.479623 616.775767,557.087667 609.947251,569.26076 C603.120732,581.431856 601.04162,589.446724 602.97094,602.508583 C604.664588,613.960677 604.414935,619.710691 603.428305,631.560233" id="Stroke-101"></path>
            <path d="M595.824466,654.455234 C599.377531,649.284416 602.479223,642.747495 602.970541,636.943556 C603.136311,635.006247 603.2881,633.224721 603.427906,631.561032" id="Stroke-103"></path>
            <path d="M676.862313,452.115462 C677.219817,454.713853 681.356072,455.007445 688.022813,456.749026 C691.995295,457.789581 695.444505,453.483562 698.709969,448.734158 C701.973437,443.984755 703.459373,438.047001 703.161786,435.37671 C702.866197,432.704422 701.969442,429.738541 696.037681,422.908028 C691.138485,417.267861 688.913576,422.314852 684.162175,431.220483 C679.412771,440.126114 679.412771,444.577931 677.335656,449.624921 C676.914241,450.649498 676.772438,451.45438 676.862313,452.115462" id="Stroke-105"></path>
            <path d="M683.865986,543.432832 C679.857553,546.846092 678.818996,546.550502 678.818996,546.550502" id="Stroke-107"></path>
            <path d="M683.865986,543.432832 C684.996416,542.470169 686.092893,537.644871 686.388483,534.674996 C686.686069,531.707118 690.842297,520.129198 692.030646,516.566147 C693.216999,513.005093 691.585265,513.005093 692.623822,512.411917 C693.66238,511.816743 700.936277,500.981792 705.783545,492.223956 C707.191589,489.683484 708.318025,487.746175 709.302657,485.908727" id="Stroke-109"></path>
            <path d="M709.302657,485.909326 C711.713309,481.411573 713.249176,477.528965 715.777664,466.991601 C719.340716,452.148216 716.818219,440.720089 712.21661,429.88314 C707.615001,419.048189 696.410563,417.797925 692.825542,420.584055" id="Stroke-111"></path>
            <path d="M683.865986,543.432832 C686.959689,549.502402 680.452727,561.689476 681.1198,563.247312 C681.788871,564.807146 685.128233,575.270613 686.907761,577.052139 C688.689287,578.833664 695.81539,584.176244 700.490896,588.184677 C705.166402,592.19311 708.282075,594.863401 710.28729,602.211196 C711.775223,607.667617 712.7279,610.014358 713.121354,613.050141" id="Stroke-113"></path>
            <path d="M713.121753,613.050141 C713.257564,614.100682 713.327467,615.235107 713.327467,616.609198 C713.327467,621.951778 714.070436,622.916438 714.070436,632.712832 C714.070436,642.509226 714.719534,649.040155 714.943223,661.287146 C715.164915,673.532139 714.739506,685.924926 712.512599,696.390391" id="Stroke-115"></path>
            <path d="M717.212272,701.278602 C717.324117,700.935079 717.463922,700.589559 717.561786,700.248033" id="Stroke-117"></path>
            <path d="M659.523395,756.382868 C668.874408,747.375379 671.546696,744.70309 683.568,738.469748 C694.444893,732.831578 712.288111,716.474297 717.21327,701.279401" id="Stroke-119"></path>
            <path d="M733.990968,719.2081 C726.199789,727.185021 711.608055,738.72699 704.052549,745.150069 C695.146918,752.719556 685.350524,754.0557 678.819595,756.382469 C676.946197,757.049542 674.469637,758.293814 671.483784,759.969487" id="Stroke-121"></path>
            <path d="M671.484782,759.969886 C667.200732,762.374546 661.844172,765.691939 655.574879,769.60051" id="Stroke-123"></path>
            <path d="M652.691883,771.400211 C648.903146,773.764926 644.834796,776.297409 640.488832,778.955717" id="Stroke-125"></path>
            <path d="M652.691883,771.400211 C653.668527,770.791057 654.639179,770.185897 655.575878,769.60071" id="Stroke-127"></path>
            <path d="M576.472344,844.223467 C572.19828,848.525492 568.165881,852.368155 565.122108,855.136311" id="Stroke-133"></path>
            <path d="M578.9517,822.362829 C578.947706,822.366824 578.943712,822.370818 578.939717,822.374813" id="Stroke-135"></path>
            <path d="M578.9517,822.362829 C587.112366,814.359945 595.574613,805.518225 600.413892,800.746852" id="Stroke-137"></path>
            <path d="M565.121908,855.135712 C555.325515,864.041343 545.083739,869.829304 533.50582,879.627695 C521.929897,889.422092 512.131506,888.978707 488.522297,907.189415" id="Stroke-139"></path>
            <path d="M600.414491,800.74765 C602.439678,798.750424 603.845725,797.45023 604.307085,797.24851 C604.307085,797.24851 605.643229,804.817997 600.300649,815.505154 C596.615767,822.870924 585.952577,834.678524 576.471745,844.223268" id="Stroke-141"></path>
            <path d="M556.661459,684.337931 L560.000821,684.337931 C563.340183,684.337931 564.676327,680.359456 565.121709,677.241786 C565.397326,675.320455 564.73225,673.994297 563.196383,673.25732" id="Stroke-143"></path>
            <path d="M549.141503,679.697775 C549.141503,675.016277 555.103223,672.567678 559.333348,672.567678 C560.953098,672.567678 562.241309,672.799356 563.195983,673.258718" id="Stroke-145"></path>
            <path d="M563.195784,673.25772 C563.988682,669.984266 573.693204,667.869204 576.473343,672.56668" id="Stroke-149"></path>
            <path d="M913.252594,535.417764 C913.252594,535.417764 916.306352,541.948693 924.916394,549.667972 C933.524438,557.385254 938.571429,565.697709 938.869015,569.258763 C939.164605,572.821814 944.509182,586.774436 943.320832,584.69732" id="Stroke-151"></path>
            <path d="M913.977986,561.353542 C915.759512,569.368411 914.229637,575.493903 913.338874,588.853348 C912.965393,594.463556 913.854158,599.067162 915.224255,602.81995" id="Stroke-153"></path>
            <path d="M915.223456,602.818951 C917.114829,608.001753 919.928921,611.550824 921.65053,613.789714 C924.618408,617.648355 931.149337,622.100172 937.682264,623.288521 C944.211196,624.474874 949.258186,622.990935 951.632888,616.460006 C954.007589,609.929076 954.305176,608.445137 945.697132,606.070436 C937.08709,603.695734 936.493914,597.757981 935.305564,594.492516 C934.119212,591.227051 936.493914,583.805359 938.571029,582.914596 C940.650141,582.023834 942.13408,582.619007 943.320433,584.696122" id="Stroke-155"></path>
            <path d="M953.675251,611.044727 C953.563406,611.284394 953.44557,611.520067 953.277803,611.709803" id="Stroke-157"></path>
            <path d="M953.675251,611.044727 C955.812283,606.459096 947.835362,593.443173 943.321631,584.69732" id="Stroke-159"></path>
            <path d="M910.74228,453.624366 C910.818175,453.638347 911.547162,454.107695 917.123417,458.605448 C924.025831,464.171717 923.802141,465.729553 928.034264,468.401842 C932.264388,471.07413 938.05235,478.643617 938.05235,478.643617" id="Stroke-161"></path>
            <path d="M911.471268,473.52253 C910.666386,481.092017 910.716316,492.893626 911.471268,499.126968 C912.226219,505.360311 913.560366,506.251074 921.353542,510.92658 C929.146718,515.602086 934.93468,518.050685 943.173237,517.16192 C951.409798,516.271157 958.5359,514.489631 959.426663,507.363528" id="Stroke-163"></path>
            <path d="M938.05195,478.643417 C938.05195,478.643417 935.825043,478.643417 935.253836,479.755872 C934.680632,480.870325 937.382879,485.545831 940.945931,490.666718 C944.508982,495.787606 949.184488,496.678369 953.636305,497.569132 C958.090119,498.457897 960.317026,500.239423 959.426264,507.363528" id="Stroke-167"></path>
            <path d="M938.05195,478.643417 C943.618219,482.65185 952.52385,490.962308 956.532283,495.192433 C960.538718,499.424555 961.874863,503.504888 959.426264,507.363528" id="Stroke-169"></path>
            <path d="M911.26056,374.816621 C915.714374,369.474042 919.053736,361.087689 914.897509,354.85235 C910.741282,348.619007 908.885859,349.639589 908.218785,350.400533 C907.130297,351.638813 907.182225,354.185276 907.326025,363.546275 C907.505775,375.126191 906.806746,380.159201 911.26056,374.816621 Z" id="Stroke-171"></path>
            <path d="M778.564261,303.94066 L875.531584,301.028705 C892.406147,300.521409 906.542513,313.822935 907.049809,330.679523 L907.672943,351.412727" id="Stroke-173"></path>
            <path d="M706.930153,406.911245 L707.413481,422.976932" id="Stroke-175"></path>
            <path d="M706.068749,378.23008 L706.374325,388.379983" id="Stroke-177"></path>
            <path d="M778.564261,303.94066 L734.503456,305.264821 C717.632888,305.770119 704.317381,319.896499 704.82268,336.753087 L706.068949,378.229481" id="Stroke-179"></path>
            <path d="M910.74228,453.624366 L908.437481,376.910913" id="Stroke-181"></path>
            <path d="M911.33965,473.51554 L910.74248,453.625165" id="Stroke-183"></path>
            <path d="M912.222225,502.896333 L913.977786,561.353143" id="Stroke-185"></path>
            <path d="M916.893537,658.422524 L915.223856,602.81975" id="Stroke-187"></path>
            <path d="M733.990968,719.2081 C726.211773,715.842774 720.058319,709.361775 717.212272,701.279001" id="Stroke-189"></path>
            <path d="M717.212272,701.278602 C716.193687,698.386619 715.592521,695.29691 715.494657,692.073387 L714.941426,673.678935" id="Stroke-191"></path>
            <path d="M916.893537,658.422524 L917.722386,686.000222 C918.227684,702.85681 904.914175,716.981193 888.041609,717.488488 L747.011484,721.724605 C742.385908,721.864411 737.982025,720.933703 733.991567,719.2081" id="Stroke-193"></path>
            <path d="M709.302657,485.909326 L713.121354,613.050741" id="Stroke-197"></path>
            <path d="M713.121753,613.050141 L713.327467,619.910613" id="Stroke-199"></path>
            <path d="M709.302657,485.909326 L709.258718,484.411406" id="Stroke-201"></path>
            <path d="M706.930153,406.911245 L706.372926,388.378985" id="Stroke-203"></path>
            <path d="M704.053947,353.020094 L704.509315,368.203007 C704.521298,368.548527 704.806902,368.818153 705.156416,368.808166 L705.785542,368.790191 L705.292227,352.359012 L704.663101,352.376988 C704.315584,352.386974 704.043961,352.680566 704.053947,353.020094" id="Stroke-205"></path>
            <path d="M910.342436,413.247645 C910.775834,413.233664 911.117359,412.876161 911.103379,412.442763 L910.220605,383.039601 C910.208621,382.6082 909.849121,382.268671 909.411728,382.280655 L908.626818,382.304621 L909.557526,413.271612 L910.342436,413.247645" id="Stroke-207"></path>
            <path d="M706.373526,388.379983 L705.588616,388.40395 C705.155218,388.415933 704.813692,388.775434 704.827673,389.208832 L705.710447,418.611994 C705.72243,419.043395 706.081931,419.382924 706.519323,419.368943 L707.304233,419.344976 L706.930752,406.912244" id="Stroke-209"></path>
            <path d="M789.1921,323.272211 C789.224055,324.318757 790.094846,325.141614 791.139395,325.111656 L820.221004,324.236871 C821.265553,324.206913 822.086413,323.332128 822.054458,322.285581 C822.022502,321.237037 821.151712,320.41418 820.107162,320.446136 L791.025553,321.318924 C789.981004,321.350879 789.160144,322.225664 789.1921,323.272211 Z" id="Stroke-211"></path>
            <path d="M776.562641,323.967845 C776.504721,322.04851 774.902946,320.538607 772.983612,320.596527 C771.06228,320.654447 769.552377,322.256222 769.610297,324.177553 C769.668216,326.096888 771.271989,327.604793 773.191323,327.548871 C775.110657,327.490951 776.62056,325.887179 776.562641,323.967845 Z" id="Stroke-213"></path>
            <path d="M903.317792,663.526835 C903.649331,663.175323 903.847057,662.697986 903.831079,662.178707" id="Stroke-215"></path>
            <path d="M894.344455,351.281509 C894.446313,351.503201 894.50623,351.74886 894.514219,352.008499 L894.785842,361.053936" id="Stroke-217"></path>
            <path d="M894.344455,351.281509 C894.446313,351.503201 894.50623,351.74886 894.514219,352.008499 L894.785842,361.053936" id="Stroke-219"></path>
            <path d="M892.573515,350.182236 L777.419451,353.641431" id="Stroke-221"></path>
            <path d="M719.114031,355.540394 C719.335723,355.438535 719.583379,355.378619 719.843018,355.37063 L777.419051,353.641032" id="Stroke-225"></path>
            <path d="M727.500183,668.207334 C727.7039,668.652716 728.077381,669.00223 728.532749,669.179983" id="Stroke-227"></path>
            <path d="M718.013958,357.310336 L727.329021,667.479545 C727.33701,667.739184 727.398924,667.984843 727.500782,668.206535" id="Stroke-229"></path>
            <path d="M729.271723,669.306408 C729.012083,669.314397 728.76243,669.26846 728.532749,669.180583" id="Stroke-231"></path>
            <path d="M903.317792,663.526835 C902.986252,663.878347 902.522896,664.102036 902.003617,664.118014 L729.271523,669.306807" id="Stroke-233"></path>
            <path d="M892.761653,350.214391 C893.458685,350.266319 894.063845,350.671756 894.345454,351.28091" id="Stroke-235"></path>
            <path d="M903.317792,663.526835 C903.649331,663.175323 903.847057,662.697986 903.831079,662.178707" id="Stroke-237"></path>
            <path d="M894.786241,361.053337 L903.831678,662.179107" id="Stroke-239"></path>
            <path d="M718.013958,357.310336 C717.989992,356.52942 718.445359,355.846369 719.11443,355.540793" id="Stroke-241"></path>
            <path d="M915.646669,614.482752 C922.561065,618.936566 932.792854,630.514485 935.557015,633.184777 C938.616766,636.142669 939.936932,637.560699 939.936932,637.560699" id="Stroke-243"></path>
            <path d="M916.893537,658.422524 C916.893537,658.422524 924.936366,663.167933 930.872122,665.542635 C936.809875,667.917337 946.606269,667.61975 951.082053,665.542635 C955.555839,663.46552 957.886602,659.604882 958.479778,654.557892 C959.074951,649.512899 955.5119,649.215312 953.137198,649.512899 C950.762497,649.808488 944.231567,644.465908 941.559279,642.386796 C938.888988,640.309681 939.937531,637.561498 939.937531,637.561498" id="Stroke-245"></path>
            <path d="M956.447401,647.518069 C954.108649,645.736544 943.721076,639.231578 939.936333,637.5599" id="Stroke-247"></path>
            <path d="M958.546685,655.671945 C960.595839,652.999656 958.784355,649.298796 956.447601,647.51727" id="Stroke-249"></path>
            <path d="M953.675251,611.044727 C960.194197,603.792799 969.007956,594.831245 980.132505,584.69732 C1006.8494,560.353132 1030.894,544.323395 1068.30005,539.871578 C1105.7041,535.417764 1109.15531,533.450497 1119.89839,531.76284 C1130.63947,530.075184 1130.63947,528.828915 1140.43586,552.16051 C1150.23226,575.494103 1162.31547,599.566669 1168.04352,623.661204 C1173.86144,648.125226 1179.32185,671.544699 1186.74554,678.015712" id="Stroke-251"></path>
            <path d="M953.054114,611.729975 C953.251839,611.508283 953.473531,611.270613 953.675251,611.044926" id="Stroke-253"></path>
            <path d="M943.35818,623.573925 C941.071356,626.763495 939.928943,628.910513 939.936932,629.819251 C939.942924,630.444383 941.342979,634.035395 943.743645,639.547739" id="Stroke-255"></path>
            <path d="M995.240122,730.708128 C983.334657,718.692816 966.597903,687.617975 954.660483,663.086047" id="Stroke-257"></path>
            <path d="M1186.74634,678.015112 C1197.4335,685.926125 1206.33913,690.377942 1212.12709,695.722519 C1217.91705,701.065098 1218.36243,709.079967 1221.4801,711.306874 C1224.59577,713.533781 1235.72831,716.585542 1236.61907,721.738386 C1237.50984,726.893226 1243.2978,730.008899 1252.20343,738.91453 C1261.10906,747.820161 1267.78978,756.282408 1274.91389,763.851895 C1282.03799,771.421381 1301.1854,793.686458 1305.19383,802.146707 C1309.20027,810.606957 1312.76332,816.8403 1317.66251,820.403351 C1322.55971,823.964405 1328.34767,826.191312 1331.01996,836.433087 C1333.69225,846.674863 1335.91916,852.908205 1341.70712,855.135112 C1347.49508,857.362019 1351.94889,857.647623 1354.1758,866.187761 C1356.40271,874.7279 1359.51838,873.837137 1363.97219,882.297387 C1368.08049,890.104544 1370.29541,897.142768 1373.05957,899.93489" id="Stroke-259"></path>
            <path d="M1373.76799,900.555229 C1373.52632,900.383467 1373.29265,900.167767 1373.06097,899.934092" id="Stroke-261"></path>
            <path d="M1119.89799,611.710602 C1152.90414,643.176899 1176.05998,670.103501 1186.74714,678.014513" id="Stroke-263"></path>
            <path d="M1373.06037,899.934291 C1378.51879,903.277648 1382.93665,907.28608 1386.23607,916.557204 C1388.51091,922.944333 1388.90836,928.608466 1388.90836,928.608466" id="Stroke-265"></path>
            <path d="M1229.67991,944.852904 C1240.36707,931.048078 1274.02232,900.999811 1306.08379,894.766469" id="Stroke-267"></path>
            <path d="M1306.08419,894.766469 C1338.14566,888.533126 1354.1754,888.978508 1363.97179,894.766469 C1367.26722,896.713764 1370.29501,898.239645 1373.06117,899.933293" id="Stroke-269"></path>
            <path d="M1206.84063,960.002463 C1224.20651,947.088399 1234.83775,941.52213 1251.75825,933.952644 C1268.68074,926.38116 1294.55281,908.535945 1333.24707,912.57833 C1363.08163,915.696 1371.98726,922.820105 1382.67442,927.271922 C1393.36158,931.725736 1401.82183,934.398025 1409.39131,958.44263 C1416.6033,981.35281 1414.11675,983.00851 1413.8651,983.114363" id="Stroke-271"></path>
            <path d="M1439.00139,1063.53127 C1438.09664,1059.16534 1437.26779,1055.33466 1436.55479,1052.39874 C1432.54635,1035.92362 1421.41381,1004.30753 1417.85276,993.17499 C1416.83218,989.987417 1415.42813,986.604117 1413.8663,983.114963" id="Stroke-275"></path>
            <path d="M1401.82123,955.77134 C1404.99881,964.986541 1409.97191,974.417442 1413.8665,983.115362" id="Stroke-277"></path>
            <path d="M1225.68107,994.898796 C1246.16462,978.86906 1277.33133,961.559101 1311.96922,963.786008 C1346.60512,966.012915 1363.52561,966.244594 1379.55735,978.373748 C1395.58708,990.502902 1394.25094,990.502902 1404.49272,1014.99488" id="Stroke-279"></path>
            <path d="M1371.0963,955.77134 C1351.05813,945.529564 1338.14407,943.302657 1314.09946,944.638802 C1278.5069,946.616055 1249.43328,962.721687 1219.60071,981.87109" id="Stroke-281"></path>
            <path d="M1284.71028,929.053847 C1284.71028,929.053847 1264.67211,942.858674 1254.43034,947.55615 C1244.18856,952.255623 1222.65846,960.847689 1213.30745,970.198702" id="Stroke-283"></path>
            <path d="M1306.08419,894.766469 C1293.31793,892.243972 1227.77296,926.975734 1197.19543,947.557148" id="Stroke-285"></path>
            <path d="M1289.1633,877.886313 C1280.25766,879.855578 1248.19619,895.805426 1231.57128,906.790169 C1214.94837,917.772915 1203.07287,925.787784 1190.65411,940.235717 C1190.65411,940.235717 1190.63414,940.225731 1190.61017,940.207756" id="Stroke-287"></path>
            <path d="M1306.08419,841.777065 C1306.08419,841.777065 1300.14644,841.777065 1275.50666,850.08952 C1250.86888,858.401975 1233.94639,873.540949 1208.71343,905.059173 C1187.65268,931.364638 1189.16658,938.259062 1190.24508,939.82289" id="Stroke-289"></path>
            <path d="M1190.24408,939.822092 C1190.39987,940.047778 1190.54167,940.16162 1190.60958,940.207556" id="Stroke-291"></path>
            <path d="M1172.05195,820.848333 C1172.05195,820.848333 1175.16962,837.323451 1167.59814,855.134713 C1160.02865,872.947972 1156.91098,895.211051 1165.65284,917.554019" id="Stroke-293"></path>
            <path d="M1135.03416,886.885015 C1125.74107,868.939939 1122.6254,856.26754 1123.95955,839.89428 C1125.29569,823.521021 1123.66595,811.49772 1123.66595,811.49772" id="Stroke-295"></path>
            <path d="M910.342436,413.247645 C955.437803,453.162208 1021.98937,527.403096 1038.82798,546.556494" id="Stroke-297"></path>
            <path d="M833.186197,301.014125 C834.07696,293.476594 838.233187,271.509104 833.186197,263.196649 C828.139207,254.886191 811.516294,237.370519 802.906252,235.293404 C794.298208,233.214291 797.563673,234.105054 797.563673,234.105054" id="Stroke-299"></path>
            <path d="M789.683018,288.552832 C791.280799,286.116216 792.788705,283.589725 794.142824,280.925426" id="Stroke-301"></path>
            <path d="M794.142824,280.924827 C796.709259,275.871845 798.708483,270.325548 799.641187,263.96638" id="Stroke-303"></path>
            <path d="M778.564261,303.94066 C782.169254,298.919634 786.137742,293.958524 789.682818,288.552033" id="Stroke-305"></path>
            <path d="M794.142824,280.924827 C795.626763,249.053093 796.673309,228.166103 795.187373,205.309847 C793.703434,182.451595 781.532338,58.9571151 774.408233,12.6474341 C773.727179,8.22557559 773.106042,4.09930652 772.534835,0.24665742" id="Stroke-307"></path>
            <path d="M788.335689,131.57286 C793.556438,110.611972 804.686979,90.1284216 813.59261,54.5058974 C820.750669,25.8756616 823.588727,12.4902524 821.194053,0.247256588" id="Stroke-311"></path>
            <path d="M778.564261,110.042164 C768.809809,72.9217198 758.765759,38.3217753 749.690363,0.24665742" id="Stroke-313"></path>
            <path d="M781.150269,187.530341 C764.737065,140.955029 748.174069,88.6656533 724.127467,19.1941415" id="Stroke-315"></path>
            <path d="M774.408233,218.816688 C764.166458,188.982125 738.821659,160.809254 724.126069,116.508782" id="Stroke-317"></path>
            <path d="M734.332294,199.669282 C752.143556,229.503845 758.376899,246.869725 769.509437,261.565315 C780.635983,276.250918 789.673431,288.53985 789.683417,288.553831" id="Stroke-321"></path>
            <path d="M704.053947,353.020094 C704.053947,353.020094 696.927845,348.396516 690.099329,344.535878 C683.27281,340.677237 674.367179,336.52101 659.523795,327.615379 C644.680411,318.709748 639.337831,314.851107 635.477193,305.647889 C631.618552,296.444671 633.102491,288.72739 639.63342,280.930219 C646.16435,273.133049 656.851506,274.774768 670.506541,278.930996 C684.163573,283.087223 707.475196,297.666974 722.614169,308.056544" id="Stroke-323"></path>
            <path d="M669.022802,286.649276 C669.022802,285.758513 662.194286,281.306696 657.742469,279.525171 C653.288655,277.743645 651.21154,277.446058 645.866963,279.525171 C640.524383,281.602286 634.508738,287.741759 635.401498,299.437515 C635.401498,299.437515 637.077171,306.649498 643.492261,309.507528 C649.909348,312.365559 652.102302,314.256932 652.206158,311.289054 C652.308017,308.319179 654.179417,303.867362 658.633232,297.038846 C663.085049,290.212327 669.022802,287.540039 669.022802,286.649276 Z" id="Stroke-325"></path>
            <path d="M669.022802,353.020094 C688.022413,362.644727 704.767157,375.568777 706.069348,378.229082" id="Stroke-327"></path>
            <path d="M483.65306,0.246857143 C473.091728,41.5215312 458.923406,97.3420028 446.239024,148.786552 C422.190424,246.315096 412.475917,326.248078 392.12618,444.847356 C372.757082,557.722585 338.692394,710.590269 334.01489,787.715151" id="Stroke-331"></path>
            <path d="M595.824466,654.455234 C548.406325,649.226497 499.656033,660.492849 478.952788,667.213515 C458.247545,673.936178 453.572039,695.466275 485.631512,686.370907 C517.690985,677.27554 558.604161,663.16314 583.231956,667.213515" id="Stroke-337"></path>
            <path d="M603.427506,631.560832 C603.425509,631.558835 564.441653,606.47767 503.664067,604.486436" id="Stroke-339"></path>
            <path d="M534.388194,543.432832 C547.078569,551.711334 595.878791,565.4163 602.561509,589.203262" id="Stroke-343"></path>
            <path d="M853.669548,301.014125 C853.669548,261.119534 895.311712,199.77873 916.793875,167.663334" id="Stroke-345"></path>
            <path d="M857.250774,278.075184 C843.873354,218.817487 897.696599,132.874852 913.977986,87.4559334" id="Stroke-347"></path>
            <path d="M864.48213,138.785043 C868.913975,101.670591 873.791201,57.9892594 871.482408,9.08518169" id="Stroke-349"></path>
            <path d="M864.48213,138.785043 C860.369842,173.221215 856.643018,202.007234 859.403184,224.008677" id="Stroke-351"></path>
            <path d="M841.91747,0.246857143 C842.926069,7.37695423 844.290175,19.6119612 845.65428,39.9017809 C848.326569,79.6246103 846.545043,114.618008 864.48213,138.784444" id="Stroke-353"></path>
            <path d="M846.887368,62.5251595 C834.342791,41.3505687 829.096078,21.3783079 830.074718,0.247656033" id="Stroke-357"></path>
            <path d="M1170.27602,0.246857143 C1172.62276,14.0696588 1173.47358,24.902613 1179.70292,52.5941526 C1191.72822,106.033931 1221.1194,260.661171 1230.47241,353.020893 C1239.82342,445.378619 1245.168,495.630824 1257.1913,561.353542 C1269.2166,627.074264 1279.55025,692.779007 1277.23147,728.31565 C1274.91469,763.852294 1277.55901,766.7283 1277.55901,766.7283" id="Stroke-359"></path>
            <path d="M956.447401,647.518069 C982.485237,613.798902 1021.09961,572.280566 1056.72213,566.318846 C1092.34465,560.353132 1129.63287,552.16051 1135.03336,552.16051 C1140.43586,552.16051 1142.69872,557.475129 1142.69872,557.475129" id="Stroke-361"></path>
            <path d="M671.484782,759.969886 C721.727001,751.168111 790.114019,745.402119 831.404671,742.032799" id="Stroke-363"></path>
            <path d="M663.085648,761.499162 C665.817853,760.977886 668.62795,760.470591 671.483983,759.969287" id="Stroke-365"></path>
            <path d="M1046.92554,766.7277 C1025.14179,750.652028 1025.55122,751.828394 984.584122,742.032 C943.619018,732.235606 920.463179,731.344843 879.496078,728.315051 C838.530974,725.285259 769.065454,725.111501 721.361709,730.707728" id="Stroke-367"></path>
            <path d="M368.152877,991.273232 C366.744832,1011.22752 370.084194,1017.90624 374.092627,1021.91268 C378.099062,1025.92111 377.629714,1038.242 375.848189,1043.43079" id="Stroke-369"></path>
        </g>
    </g>
</svg>