<?xml version="1.0" encoding="UTF-8"?>
<svg width="159px" height="38px" viewBox="0 0 159 38" version="1.1" xmlns="http://www.w3.org/2000/svg" xmlns:xlink="http://www.w3.org/1999/xlink">
    <!-- Generator: Sketch 43.2 (39069) - http://www.bohemiancoding.com/sketch -->
    <title>logo_barcamp</title>
    <desc>Created with Sketch.</desc>
    <defs></defs>
    <g id="Page-1" stroke="none" stroke-width="1" fill="none" fill-rule="evenodd">
        <g id="Home-long" transform="translate(-54.000000, -859.000000)">
            <g id="card" transform="translate(29.000000, 777.000000)">
                <g id="logo_barcamp" transform="translate(25.000000, 82.000000)">
                    <path d="M32.8509091,19.1660165 C32.7583471,18.5484959 32.6552066,17.6744463 32.4938843,16.8109752 C32.2545455,15.5270083 31.6872727,14.3686612 31.0115702,13.2645289 C30.7629752,12.8585785 30.408595,12.6192397 29.9034711,12.7461818 C29.5014876,12.8466777 29.3586777,13.1560992 29.3547107,13.5289917 C29.3494215,13.8860165 29.5345455,14.1835372 29.7130579,14.4850248 C30.6294215,16.0347769 31.0961983,17.6969256 31.0631405,19.5137851 C31.0300826,21.3240331 30.5553719,22.974281 29.5940496,24.5094876 C29.2991736,24.9802314 28.997686,25.6308099 29.6350413,26.0222149 C30.2671074,26.4096529 30.7047934,25.9904793 31.0790083,25.4126281 C32.261157,23.5838678 32.7001653,21.5541157 32.8509091,19.1660165 M36.7861157,19.6010579 C36.7755372,16.549157 36.0403306,13.761719 34.4191736,11.226843 C34.1018182,10.7296529 33.7487603,10.2060165 33.0743802,10.6410579 C32.4052893,11.0721322 32.6247934,11.5918017 32.9844628,12.1736198 C35.1147107,15.6261818 35.574876,19.3260165 34.5104132,23.226843 C34.134876,24.6046942 33.5041322,25.8635372 32.7160331,27.0522975 C32.4515702,27.4516364 32.3563636,27.909157 32.8231405,28.2159339 C33.2608264,28.502876 33.7302479,28.456595 34.0952066,28.0308099 C34.2366942,27.8655207 34.3517355,27.6737851 34.4680992,27.4873388 C35.9834711,25.0556033 36.7438017,22.4043636 36.7861157,19.6010579 M40.6102479,19.525686 C40.6380165,15.9845289 39.3910744,11.681719 37.5715702,9.06089256 C37.2343802,8.57692562 36.8495868,8.06915702 36.1990083,8.54386777 C35.6171901,8.96965289 35.8115702,9.48403306 36.1368595,10.035438 C39.8552066,16.3190744 39.8552066,22.6013884 36.0628099,28.8572562 C35.7322314,29.4020496 35.4003306,29.946843 36.0456198,30.4334545 C36.766281,30.9756033 37.1061157,30.3051901 37.4790083,29.8595702 C37.6390083,29.669157 37.7580165,29.441719 37.886281,29.2248595 C39.6595041,26.2351074 40.5295868,22.9914711 40.6102479,19.525686 M-0.000661157025,20.2992397 C1.0492562,20.3666777 1.9246281,20.4764298 2.79867769,20.4684959 C4.99504132,20.4513058 6.30809917,19.1580826 6.3953719,16.9577521 C6.42710744,16.140562 6.37024793,15.319405 6.40330579,14.5022149 C6.49057851,12.2489917 7.94380165,11.2003967 10.1018182,11.8351074 C11.6872727,12.3018843 13.1021488,13.1098182 14.4297521,14.081719 C15.0895868,14.5630413 15.738843,15.0589091 16.4872727,15.4132893 C18.8343802,16.5266777 20.7781818,15.6645289 21.3957025,13.1270083 C21.9061157,11.0258512 21.2568595,8.14585124 18.8766942,7.3802314 C17.4961983,6.93461157 16.1527273,7.04700826 14.778843,7.34452893 C14.4892562,7.40667769 14.1269421,7.68700826 13.8915702,7.43709091 C13.6059504,7.13560331 13.9484298,6.7865124 14.071405,6.49560331 C15.6833058,2.65957025 17.7024793,1.83841322 21.541157,3.408 C22.9904132,4.00039669 24.3180165,4.88105785 25.861157,5.25130579 C26.9573554,5.51444628 28.033719,5.65593388 29.0214876,4.90221488 C29.8598347,4.26221488 29.8809917,3.4833719 29.0638017,2.79312397 C27.9094215,1.82122314 26.5606612,1.15742149 25.0082645,0.346842975 C27.7256198,-0.192661157 30.1573554,-0.145057851 32.5216529,0.787173554 C36.8641322,2.49824793 39.2879339,5.96138843 40.8429752,10.1399008 C42.6095868,14.8870083 42.8595041,19.7914711 41.9034711,24.7276694 C41.1484298,28.6284959 39.6105785,32.1881653 36.4872727,34.8460165 C33.818843,37.1151074 30.7127273,37.9032066 27.2561983,37.5038678 C24.5004959,37.1851901 21.9444628,36.2952727 19.2773554,34.8896529 C20.6181818,34.7944463 21.7381818,34.9094876 22.821157,34.6304793 C24.4092562,34.2232066 25.8677686,33.6003967 26.711405,32.0810579 C27.7190083,30.262876 26.9626446,28.9048595 24.8839669,28.7567603 C23.3104132,28.6443636 21.8532231,29.214281 20.3497521,29.5289917 C17.911405,30.0380826 15.4545455,30.5061818 13.0519008,29.3372562 C12.4449587,29.0423802 11.9570248,28.6192397 11.5457851,27.9382479 C12.0350413,27.820562 12.4793388,27.7227107 12.9170248,27.6037025 C15.094876,27.0139504 16.4185124,25.2010579 15.8380165,23.2718017 C15.2310744,21.2552727 13.8585124,19.774281 11.7864463,19.1818843 C10.3358678,18.7666777 9.18545455,19.3722975 8.27834711,20.5941157 C7.11471074,22.1623802 5.64694215,23.273124 3.54049587,22.8010579 C2.11239669,22.4823802 1.02942149,21.576595 -0.000661157025,20.2992397" id="Fill-4" fill="#A9CE3C"></path>
                    <path d="M58.6214876,21.3647603 C58.6558678,18.9515372 57.0783471,17.1862479 54.8621488,17.157157 C52.6102479,17.1280661 50.9917355,18.8206281 50.9652893,21.2351736 C50.9375207,23.6761653 52.4687603,25.3912066 54.7206612,25.4414545 C56.9368595,25.4890579 58.5871074,23.7660826 58.6214876,21.3647603 M51.0723967,15.6840992 C53.0519008,13.9664132 55.12,13.3779835 57.3983471,14.1052562 C60.1963636,15.0004628 61.7170248,17.0778182 62.1256198,19.9181488 C62.551405,22.8788099 61.8254545,25.5062479 59.3712397,27.4236033 C56.9990083,29.2774876 54.1110744,29.2629421 51.6846281,27.468562 C51.5352066,27.3588099 51.3791736,27.258314 51.2323967,27.1578182 C51.1676033,27.2199669 51.0869421,27.2649256 51.0922314,27.2953388 C51.28,28.3069091 50.7735537,28.4576529 49.8849587,28.4364959 C47.4796694,28.378314 47.4783471,28.4179835 47.4783471,26.0457521 C47.4783471,20.5621157 47.4902479,15.0784793 47.461157,9.59616529 C47.4571901,8.89798347 47.621157,8.6282314 48.3457851,8.70492562 C49.2145455,8.79616529 50.3517355,8.35319008 50.8978512,8.87153719 C51.4519008,9.3991405 51.0446281,10.5402975 51.0644628,11.4117025 C51.094876,12.7564959 51.0723967,14.1012893 51.0723967,15.6840992" id="Fill-7" fill="#506F47"></path>
                    <path d="M74.5922645,21.221157 C74.6266446,18.9322314 73.0147438,17.2026446 70.7998678,17.1510744 C68.6339174,17.0995041 66.965157,18.8171901 66.9281322,21.132562 C66.8884628,23.6238017 68.430281,25.3983471 70.670281,25.4393388 C72.9949091,25.4816529 74.5539174,23.8036364 74.5922645,21.221157 M74.4256529,27.2945455 C74.1215207,27.1808264 73.9985455,27.3778512 73.870281,27.482314 C70.5393719,30.2142149 64.9235041,28.6657851 63.5932562,23.4664463 C62.8527603,20.5732231 63.3340826,17.8320661 65.5833388,15.6132231 C67.7347438,13.4895868 71.1806942,13.2198347 73.6375537,14.9983471 C73.8597025,15.1583471 74.0805289,15.3196694 74.282843,15.4664463 C74.5235041,15.3342149 74.4679669,15.1504132 74.4468099,15.0168595 C74.3410248,14.3517355 74.6054876,14.117686 75.2692893,14.1930579 C76.1658182,14.294876 77.3334215,13.8069421 77.8967273,14.3887603 C78.4111074,14.9190083 78.0382149,16.0680992 78.0421818,16.9447934 C78.0540826,20.4740496 78.0276364,24.0033058 78.0633388,27.5338843 C78.0699504,28.2307438 77.9033388,28.5163636 77.1773884,28.4264463 C76.7119339,28.3695868 76.2292893,28.374876 75.7611901,28.425124 C74.8778843,28.517686 74.1876364,28.4317355 74.4256529,27.2945455" id="Fill-9" fill="#506F47"></path>
                    <path d="M122.382545,16.2623471 C123.696926,14.784 125.220231,13.6983802 127.267174,13.845157 C129.290314,13.9906116 130.776595,14.9664793 131.485355,16.9922645 C131.971967,16.7582149 132.087008,16.295405 132.336926,15.9635041 C134.007008,13.7473058 137.261223,13.1430083 139.424529,14.6583802 C140.71643,15.562843 141.283702,16.8732562 141.402711,18.3661488 C141.652628,21.4775537 141.491306,24.6008595 141.530975,27.7175537 C141.538909,28.2636694 141.35114,28.5783802 140.760066,28.4752397 C140.261554,28.3879669 139.601719,28.6273058 139.614942,27.6673058 C139.650645,24.9896198 139.607008,22.3106116 139.595107,19.6329256 C139.593785,19.5390413 139.593785,19.4438347 139.589818,19.3499504 C139.495934,17.1892893 138.834777,16.1975537 137.19643,15.7598678 C135.708826,15.3631736 133.820562,16.1869752 132.869818,17.621686 C132.21924,18.6054876 132.00238,19.7109421 131.977256,20.8494545 C131.927008,23.0854876 131.900562,25.322843 131.938909,27.558876 C131.953455,28.3866446 131.543537,28.4805289 130.898248,28.4990413 C130.234446,28.5175537 130.045355,28.2398678 130.045355,27.5945785 C130.045355,24.6669752 130.160397,21.735405 129.898579,18.8117686 C129.792793,17.6243306 129.381554,16.6127603 128.225851,16.0520992 C126.483041,15.2058182 124.168992,15.9820165 123.164033,17.7287934 C122.377256,19.0973884 122.283372,20.6021818 122.263537,22.1162314 C122.238413,23.9436694 122.231802,25.7724298 122.274116,27.5985455 C122.289983,28.2676364 122.053289,28.5149091 121.410645,28.4818512 C120.808992,28.4501157 120.294612,28.5320992 120.307835,27.5760661 C120.366017,23.3856529 120.351471,19.1952397 120.315769,15.0048264 C120.309157,14.2920992 120.570975,14.1572231 121.189818,14.1916033 C121.741223,14.2220165 122.307174,14.1135868 122.198744,14.9783802 C122.152463,15.3486281 122.19081,15.7281322 122.19081,16.1023471 C122.254281,16.156562 122.319074,16.2094545 122.382545,16.2623471" id="Fill-11" fill="#A9CE3C"></path>
                    <path d="M151.179901,15.6989091 C147.934942,15.6989091 145.581223,18.1478347 145.583868,21.5210579 C145.58519,24.5306446 148.089653,27.0403967 151.109818,27.0602314 C154.161719,27.0800661 156.732298,24.481719 156.728331,21.3808926 C156.723041,18.2033719 154.278083,15.6989091 151.179901,15.6989091 L151.179901,15.6989091 Z M143.745851,23.8787438 C143.745851,20.919405 143.769653,17.9587438 143.728661,15.0007273 C143.719405,14.2747769 144.023537,14.1438678 144.62519,14.1914711 C145.164694,14.2337851 145.844364,14.0433719 145.721388,14.9914711 C145.697587,15.176595 145.71081,15.3683306 145.717421,15.5574215 C145.725355,15.7385785 145.665851,15.9620496 145.860231,16.0678347 C146.12205,16.2106446 146.255603,15.9726281 146.40238,15.8232066 C149.906512,12.2450248 156.17957,13.5713058 158.201388,18.5551074 C159.374281,21.4470083 158.304529,25.2658512 155.835769,27.2532893 C153.176595,29.395438 148.982215,29.1283306 146.908826,27.2889917 C146.599405,27.0139504 146.235769,26.4638678 145.873455,26.6318017 C145.478083,26.8129587 145.728,27.429157 145.722711,27.8496529 C145.700231,29.4853554 145.67643,31.1250248 145.729322,32.759405 C145.757091,33.6122975 145.306182,33.6255207 144.668826,33.6400661 C144.00238,33.6559339 143.700893,33.5051901 143.728661,32.7567603 C143.785521,31.2797355 143.748496,29.7974215 143.749818,28.3177521 L143.749818,23.8787438 L143.745851,23.8787438 Z" id="Fill-13" fill="#A9CE3C"></path>
                    <path d="M116.304132,21.4887934 C116.284298,18.021686 113.974215,15.6785455 110.59438,15.6970579 C107.547769,15.7142479 105.104132,18.295405 105.125289,21.4782149 C105.143802,24.4904463 107.747438,27.0742479 110.743802,27.0583802 C113.880331,27.0398678 116.322645,24.5935868 116.304132,21.4887934 M118.101157,21.3116033 C118.101157,23.3889587 118.044298,25.4689587 118.126281,27.5436694 C118.16595,28.5287934 117.540496,28.3939174 116.986446,28.4626777 C116.259174,28.5539174 116.141488,28.101686 116.187769,27.5211901 C116.19438,27.4273058 116.198347,27.3307769 116.185124,27.2382149 C116.152066,27.002843 116.290909,26.682843 116,26.565157 C115.715702,26.451438 115.566281,26.7555702 115.390413,26.9142479 C113.150413,28.922843 110.590413,29.2878017 107.846612,28.2497851 C105.17157,27.2368926 103.665455,25.1661488 103.275372,22.3892893 C102.704132,18.3205289 105.134545,14.8415207 109.127934,13.9767273 C111.476364,13.4676364 113.619835,14.0111074 115.400992,15.7182149 C115.591405,15.9020165 115.752727,16.2643306 116.07405,16.1149091 C116.400661,15.9641653 116.19438,15.617719 116.195702,15.3506116 C116.197025,14.9843306 116.013223,14.497719 116.382149,14.3006942 C116.821157,14.0666446 117.373884,14.1406942 117.860496,14.2557355 C118.233388,14.3443306 118.102479,14.7211901 118.102479,14.9830083 C118.111736,17.0920992 118.107769,19.2025124 118.107769,21.3116033 L118.101157,21.3116033" id="Fill-16" fill="#A9CE3C"></path>
                    <path d="M96.3777851,28.7802975 C92.7625785,28.7842645 90.3361322,27.514843 88.9265455,24.8212893 C87.3926612,21.8923636 87.7933223,18.9726942 89.9592727,16.4682314 C92.0366281,14.0655868 94.7949752,13.4269091 97.8442314,14.0100496 C99.543405,14.3340165 101.095802,14.9991405 102.154975,16.4788099 C102.353322,16.7564959 102.841256,17.0857521 102.24357,17.3621157 C101.788694,17.573686 101.380099,18.3670744 100.720264,17.6199669 C99.5804298,16.3293884 98.1285289,15.7145124 96.410843,15.6047603 C93.8561322,15.4421157 91.9387769,16.5065785 90.7010909,18.6606281 C89.5202645,20.7168264 89.7820826,22.8113719 91.1572893,24.6943471 C92.5443967,26.5931901 94.5358017,27.2318678 96.8167934,27.0017851 C98.2753058,26.8550083 99.5156364,26.2150083 100.548364,25.1624463 C101.107702,24.5925289 101.704066,24.630876 102.33481,25.3462479 C102.813488,25.8910413 102.168198,26.1978182 101.901091,26.4688926 C100.234975,28.1521983 98.166876,28.8331901 96.3777851,28.7802975" id="Fill-18" fill="#A9CE3C"></path>
                    <path d="M83.3000992,15.5722314 C84.659438,14.021157 85.8706777,13.5543802 87.1546446,13.9669421 C87.5962975,14.1084298 87.8091901,14.2631405 87.5804298,14.7563636 C87.3820826,15.1821488 87.2498512,15.6383471 87.0977851,16.0839669 C86.8716694,16.7438017 86.789686,17.5054545 85.7067107,17.061157 C85.2002645,16.8535537 84.7758017,17.3031405 84.4624132,17.7289256 C83.9110083,18.4773554 83.792,19.3633058 83.7734876,20.2386777 C83.7232397,22.6307438 83.7073719,25.0254545 83.7417521,27.4175207 C83.7536529,28.1659504 83.6134876,28.5190083 82.7804298,28.4330579 C81.9420826,28.3457851 80.8167934,28.6882645 80.3209256,28.2598347 C79.7391074,27.7573554 80.1424132,26.6029752 80.1358017,25.7342149 C80.112,22.1758678 80.1477025,18.6161983 80.1080331,15.0578512 C80.1000992,14.3319008 80.3156364,14.092562 81.0085289,14.1930579 C81.2862149,14.2327273 81.5758017,14.2195041 81.8574545,14.1930579 C82.7738182,14.1097521 83.6386116,14.0687603 83.3000992,15.5722314" id="Fill-20" fill="#506F47"></path>
                </g>
            </g>
        </g>
    </g>
</svg>