<?xml version="1.0" encoding="UTF-8"?>
<svg width="112px" height="38px" viewBox="0 0 112 38" version="1.1" xmlns="http://www.w3.org/2000/svg" xmlns:xlink="http://www.w3.org/1999/xlink">
    <!-- Generator: Sketch 43.2 (39069) - http://www.bohemiancoding.com/sketch -->
    <title>logo_hungrygowhere</title>
    <desc>Created with Sketch.</desc>
    <defs></defs>
    <g stroke="none" stroke-width="1" fill="none" fill-rule="evenodd">
        <g transform="translate(-69.000000, -857.000000)">
            <g transform="translate(29.000000, 777.000000)">
                <g transform="translate(40.000000, 80.000000)">
                    <polygon fill="#8F9EBC" points="75.2246852 20.6611615 71.5857966 20.6611615 70.3142974 26.3306699 70.2431646 26.3306699 69.025015 20.6611615 65.7573508 20.6611615 64.5914394 26.3306699 64.555873 26.3306699 63.1954577 20.6611615 59.5576806 20.6611615 62.4185539 29.8272928 66.0040928 29.8272928 67.3645081 24.1922394 67.3989631 24.1922394 68.7249234 29.8272928 72.3093508 29.8272928"></polygon>
                    <path d="M94.4926779,26.0301337 C94.4926779,22.4612666 92.921087,20.4306467 89.2833099,20.4306467 C86.3857588,20.4306467 84.4429435,22.6035322 84.4429435,25.2710131 C84.4429435,28.3275017 86.6513954,30.0569185 89.5822901,30.0569185 C91.667371,30.0569185 93.5924031,29.1388605 94.298174,27.1604788 L91.0316214,27.1604788 C90.7482015,27.6017246 90.1302351,27.8151231 89.5656183,27.8151231 C88.4697282,27.8151231 87.8684336,27.0726742 87.780629,26.0301337 L94.4926779,26.0301337 Z M87.7984122,24.2118009 C87.9584611,23.2226101 88.5586443,22.674665 89.6011847,22.674665 C90.5014595,22.674665 91.1372092,23.3637643 91.1372092,24.2118009 L87.7984122,24.2118009 Z" fill="#8F9EBC"></path>
                    <path d="M111.2,26.0301337 C111.2,22.4612666 109.628409,20.4306467 105.988409,20.4306467 C103.091969,20.4306467 101.150266,22.6035322 101.150266,25.2710131 C101.150266,28.3275017 103.357606,30.0569185 106.289612,30.0569185 C108.373582,30.0569185 110.299725,29.1388605 111.005496,27.1604788 L107.736721,27.1604788 C107.454412,27.6017246 106.837557,27.8151231 106.271829,27.8151231 C105.175939,27.8151231 104.575756,27.0726742 104.48684,26.0301337 L111.2,26.0301337 Z M104.505734,24.2118009 C104.664672,23.2226101 105.264855,22.674665 106.307395,22.674665 C107.20767,22.674665 107.84342,23.3637643 107.84342,24.2118009 L104.505734,24.2118009 Z" fill="#8F9EBC"></path>
                    <path d="M80.9937795,28.625815 L81.0160085,25.0247157 C81.0160085,23.9632806 80.8915261,23.2219432 79.8678803,23.2219432 C79.2676971,23.2219432 78.4718986,23.5220348 78.4718986,24.9880379 L78.4718986,29.8272928 L74.9752757,29.8272928 L74.9752757,19.7608867 C76.9581032,19.5052531 77.9695231,18.6272073 78.4796788,17.5880012 L78.507465,21.6503524 C79.1076482,20.9434699 79.8856635,20.4310913 81.3694498,20.4310913 C83.0121734,20.4310913 84.5126315,21.4369539 84.5126315,23.539818 L84.5126315,29.8272928 L82.1952574,29.8272928 C81.5317215,29.8272928 80.9937795,29.2904623 80.9937795,28.625815" fill="#8F9EBC"></path>
                    <path d="M95.8646522,20.6611615 C95.2011163,20.6611615 94.6631744,21.1991035 94.6631744,21.8637508 L94.6631744,29.8272928 L98.1609087,29.8272928 L98.1609087,26.2061875 C98.1609087,24.2467005 98.9022461,23.4342302 100.279333,23.4342302 C100.986216,23.4342302 101.30409,23.539818 101.65642,23.6643005 L101.65642,20.5722455 C101.321874,20.4844409 100.986216,20.4310913 100.631663,20.4310913 C99.3612751,20.4310913 98.6199377,21.032386 98.0542095,22.1260531 L98.0186431,20.6611615 L95.8646522,20.6611615 Z" fill="#8F9EBC"></path>
                    <path d="M48.8978711,20.6611615 L45.4012482,20.6611615 L45.4012482,21.7737234 L45.3656818,21.7737234 C44.958891,20.8378821 43.9874834,20.4310913 42.9627261,20.4310913 C40.3485948,20.4310913 38.989291,22.4272562 38.989291,24.8124287 C38.989291,27.2665111 40.2085521,29.2804592 42.9104879,29.2804592 C43.9530284,29.2804592 44.7999536,28.8214302 45.3656818,28.0078485 L45.4012482,28.0078485 L45.4012482,28.8558852 C45.4012482,29.6161173 45.1533948,30.9565264 44.0230498,30.9565264 C43.581804,30.9565264 43.2105795,30.6041966 42.9982925,30.2874333 C42.9271597,30.180734 42.8393551,30.0573631 42.8037887,29.9695585 L39.3427322,29.9695585 C39.660607,32.4425356 41.9568635,33.0249356 44.129749,33.0249356 C48.4210589,33.0249356 48.8978711,30.4630424 48.8978711,28.6447096 L48.8978711,20.6611615 Z M42.4859139,24.7946455 C42.4859139,23.8221264 42.9805093,22.9740898 43.9697002,22.9740898 C44.9944574,22.9740898 45.4890528,23.7698882 45.4890528,24.7757508 C45.4890528,25.8005081 45.3478986,27.0375524 44.0575047,27.0375524 C42.8037887,27.0375524 42.4859139,25.8349631 42.4859139,24.7946455 L42.4859139,24.7946455 Z" fill="#8F9EBC"></path>
                    <path d="M55.2907115,25.235669 C55.2907115,26.2070766 55.1151023,27.5141423 53.7902534,27.5141423 C52.4642931,27.5141423 52.2875725,26.2070766 52.2875725,25.235669 C52.2875725,24.2642614 52.4642931,22.9749789 53.7902534,22.9749789 C55.1151023,22.9749789 55.2907115,24.2642614 55.2907115,25.235669 M58.7884458,25.235669 C58.7884458,22.6926705 57.2346382,20.430869 53.7902534,20.430869 C50.3458687,20.430869 48.7909496,22.6926705 48.7909496,25.235669 C48.7909496,27.7797789 50.3458687,30.0571408 53.7902534,30.0571408 C57.2346382,30.0571408 58.7884458,27.7797789 58.7884458,25.235669" fill="#8F9EBC"></path>
                    <path d="M20.5230986,13.5153136 C18.4246803,13.5153136 17.3243444,14.2399792 16.4740849,15.241396 L16.4240696,7.96584183 L13.1775231,7.96584183 C12.237236,7.96584183 11.4758925,8.72940824 11.4758925,9.66858382 L11.4758925,26.812706 L16.4240696,26.812706 L16.4240696,19.9639487 C16.4240696,17.8899823 17.5499689,17.4642968 18.3980055,17.4642968 C19.8484482,17.4642968 20.0240574,18.513506 20.0240574,20.0128525 L19.9918253,25.1110754 C19.9918253,26.050251 20.7531689,26.812706 21.6923444,26.812706 L24.9722345,26.812706 L24.9722345,17.9155456 C24.9722345,14.940193 22.8482528,13.5153136 20.5230986,13.5153136" fill="#BFC9DB"></path>
                    <path d="M35.5970333,32.3268336 C34.4733569,31.2042687 32.6494669,31.2042687 31.5257905,32.3268336 C30.4010027,33.4527328 30.4010027,35.2744 31.526902,36.4002992 C32.6505783,37.5239756 34.4733569,37.5239756 35.5970333,36.4002992 C36.7218211,35.2744 36.7218211,33.4527328 35.5970333,32.3268336" fill="#BFC9DB"></path>
                    <path d="M32.3627127,29.982229 L31.4124226,29.0308275 C37.0541447,22.1009344 36.645131,11.883371 30.1876043,5.42695573 C23.2955005,-1.46737099 12.1187554,-1.46737099 5.2244287,5.42695573 C-1.66878656,12.320171 -1.66878656,23.4958046 5.2244287,30.3879084 C8.67103634,33.8334046 13.1879707,35.5583756 17.7037936,35.5583756 L17.704905,31.9083725 C14.1227005,31.9083725 10.5393844,30.5401771 7.80632794,27.8082321 C2.33799206,22.3398962 2.33799206,13.4738565 7.80632794,8.00663206 C13.2746638,2.53940763 22.1384806,2.53940763 27.6068165,8.00663206 C33.0740409,13.4738565 33.0740409,22.3398962 27.6068165,27.8082321 L26.3164226,29.098626 L28.5793356,31.359316 C29.2428715,32.0250748 30.3198669,32.0250748 30.9834027,31.359316 L32.3627127,29.982229 Z" fill="#BFC9DB"></path>
                    <path d="M45.0083505,14.8882882 C45.0083505,15.5518241 45.5462925,16.0897661 46.2098284,16.0897661 L48.5272024,16.0897661 L48.5272024,9.8022913 C48.5272024,7.69942718 47.025633,6.69356458 45.3829093,6.69356458 C43.9002345,6.69356458 43.1233307,7.20483176 42.522036,7.91282565 L42.4864696,2.77125618 L40.1913246,2.77125618 C39.5277887,2.77125618 38.9887353,3.31030962 38.9887353,3.97495695 L38.9887353,16.0897661 L42.4864696,16.0897661 L42.4864696,11.2493997 C42.4864696,9.78450809 43.2822681,9.48441649 43.8824513,9.48441649 C44.9072085,9.48441649 45.0294681,10.2257539 45.0294681,11.2860776 L45.0083505,14.8882882 Z" fill="#BFC9DB"></path>
                    <path d="M50.2240537,6.92374595 C49.5605179,6.92374595 49.0225759,7.46168794 49.0225759,8.12522382 L49.0225759,13.2112208 C49.0225759,15.3129734 50.5241453,16.3199475 52.1657576,16.3199475 C53.5617392,16.3199475 54.4986919,15.8431353 55.1511133,14.9239658 L55.1866797,16.0887658 L58.5599316,16.0887658 L58.5599316,6.92374595 L55.0633087,6.92374595 L55.0633087,11.7630009 C55.0633087,13.229004 54.2686217,13.5290956 53.6662156,13.5290956 C52.6436812,13.5290956 52.5191988,12.7866467 52.5191988,11.7274345 L52.5191988,6.92374595 L50.2240537,6.92374595 Z" fill="#BFC9DB"></path>
                    <path d="M65.139829,14.8882882 C65.139829,15.5518241 65.6788824,16.0897661 66.3424183,16.0897661 L68.6375634,16.0897661 L68.6375634,9.8022913 C68.6375634,7.69942718 67.1359939,6.69356458 65.4943817,6.69356458 C64.0984,6.69356458 63.1625588,7.17037679 62.5079145,8.08954626 L62.4734595,6.92363481 L60.300574,6.92363481 C59.6381496,6.92363481 59.0990962,7.46157679 59.0990962,8.12511267 L59.0990962,16.0897661 L62.5968305,16.0897661 L62.5968305,11.2493997 C62.5968305,9.78450809 63.3915176,9.48441649 63.9928122,9.48441649 C65.016458,9.48441649 65.139829,10.2257539 65.139829,11.2860776 L65.139829,14.8882882 Z" fill="#BFC9DB"></path>
                    <path d="M80.224767,6.92374595 C79.5612311,6.92374595 79.0221777,7.46168794 79.0221777,8.12522382 L79.0221777,16.0887658 L82.5199121,16.0887658 L82.5199121,12.4687719 C82.5199121,10.5081734 83.2623609,9.69681466 84.6394479,9.69681466 C85.3463304,9.69681466 85.6642052,9.80240244 86.0176464,9.92688489 L86.0176464,6.83482992 C85.6819884,6.74702534 85.3463304,6.69256427 84.9928892,6.69256427 C83.7213899,6.69256427 82.9800525,7.29497038 82.4143243,8.38863756 L82.3776464,6.92374595 L80.224767,6.92374595 Z" fill="#BFC9DB"></path>
                    <path d="M87.0581863,17.8566388 C87.0581863,18.5190632 87.5950168,19.0581166 88.2585527,19.0581166 L88.8420641,19.0581166 C90.1413496,19.0570052 91.4639756,19.0214388 92.338687,17.9277716 C92.8866321,17.2375609 93.2033954,16.1961319 93.4879267,15.3836617 L96.5255206,6.92330137 L92.9033038,6.92330137 L91.420629,12.1871304 L89.9190595,6.92330137 L86.1745832,6.92330137 L87.7283908,11.1434785 C87.9228947,11.6747518 89.2655267,15.0480037 89.2655267,15.4892495 C89.2655267,15.8960403 89.1421557,16.0716495 88.9298687,16.1794602 C88.6820153,16.3017197 88.2229863,16.2661533 87.8706565,16.2661533 L87.0581863,16.2661533 L87.0581863,17.8566388 Z" fill="#BFC9DB"></path>
                    <path d="M78.4762333,6.92374595 L74.9784989,6.92374595 L74.9784989,8.03519634 L74.9429325,8.03519634 C74.5372531,7.09935511 73.5658455,6.69256427 72.5410882,6.69256427 C69.9269569,6.69256427 68.5676531,8.68872916 68.5676531,11.0750131 C68.5676531,13.5290956 69.7858027,15.5419322 72.4877386,15.5419322 C73.5302791,15.5419322 74.3783157,15.0840147 74.9429325,14.270433 L74.9784989,14.270433 L74.9784989,15.1184696 C74.9784989,15.8787017 74.7317569,17.2213337 73.6014119,17.2213337 C73.1601661,17.2213337 72.7889417,16.8667811 72.5766547,16.5500177 C72.5066333,16.4433185 72.4177173,16.3199475 72.3821508,16.2310315 L68.9199829,16.2310315 C69.2378577,18.70512 71.5352256,19.2886315 73.7069997,19.2886315 C77.9994211,19.2886315 78.4762333,16.7267383 78.4762333,14.907294 L78.4762333,6.92374595 Z M72.0653875,11.0561185 C72.0653875,10.0847108 72.5588715,9.2366742 73.5480623,9.2366742 C74.5728195,9.2366742 75.0663035,10.0324727 75.0663035,11.0383353 C75.0663035,12.0630925 74.9251493,13.3001368 73.6369783,13.3001368 C72.3821508,13.3001368 72.0653875,12.0986589 72.0653875,11.0561185 L72.0653875,11.0561185 Z" fill="#BFC9DB"></path>
                </g>
            </g>
        </g>
    </g>
</svg>