<?xml version="1.0" encoding="UTF-8"?>
<svg width="140px" height="28px" viewBox="0 0 140 28" version="1.1" xmlns="http://www.w3.org/2000/svg" xmlns:xlink="http://www.w3.org/1999/xlink">
    <!-- Generator: Sketch 43.2 (39069) - http://www.bohemiancoding.com/sketch -->
    <title>logo_experience_verifone</title>
    <desc>Created with Sketch.</desc>
    <defs></defs>
    <g stroke="none" stroke-width="1" fill="none" fill-rule="evenodd">
        <g transform="translate(-62.000000, -864.000000)">
            <g transform="translate(29.000000, 777.000000)">
                <g transform="translate(33.000000, 87.000000)">
                    <path d="M57.3266518,5.46035198 L63.0105622,5.46035198 L63.9244729,0.840246706 L58.2394551,0.840246706 L57.3266518,5.46035198 Z M56.7377732,8.4319494 L62.4230679,8.4319494 L58.8117222,26.6742867 C58.5481527,26.7663495 57.7341879,27.0909334 56.6104182,27.0909334 C55.0937859,27.0909334 53.7025706,26.4979489 53.7025706,24.394968 C53.7025706,23.9994596 53.7482523,23.5491586 53.8495826,23.0373897 C54.9791664,17.3447947 56.7377732,8.4319494 56.7377732,8.4319494 L56.7377732,8.4319494 Z M113.18706,8.01530274 C109.403231,8.01530274 107.898504,10.2384381 107.193067,11.5918444 L107.126344,11.5918444 L107.344509,8.43584329 L101.726214,8.43584329 C101.689392,9.1295127 101.44631,11.3178812 101.086117,13.2044728 C101.086117,13.2044728 99.7884799,19.8260396 99.543183,21.0940584 C99.3560265,22.0622473 99.014106,23.4940878 99.014106,24.325156 C99.014106,26.0943746 99.9091903,27.0917678 101.905065,27.0917678 C103.024682,27.0917678 103.831172,26.7844283 104.124919,26.6745648 L106.003682,17.1737415 C106.52473,14.5506476 108.415399,12.8337185 110.664323,12.8337185 C112.478578,12.8337185 113.346253,14.1612582 113.346253,15.2465421 C113.346253,16.1910895 113.109816,17.2379908 112.927089,18.163625 L112.118662,22.2319099 C112.022592,22.7203154 111.816886,23.6584658 111.816886,24.3944117 C111.816886,26.1928345 112.827697,27.0917678 114.747436,27.0917678 C115.796177,27.0917678 116.460361,26.8289299 116.931021,26.6742867 L118.61709,18.1577842 C118.98199,16.2328098 119.117374,15.2190067 119.117374,13.9938208 C119.117374,10.4676216 117.061975,8.01530274 113.18706,8.01530274 L113.18706,8.01530274 Z M87.9350489,12.4259721 C84.7569872,12.4259721 82.9967192,15.6854396 82.9967192,18.5905627 C82.9967192,21.0409346 84.1000014,22.6813765 86.6075112,22.6813765 C89.4419912,22.6813765 91.6607373,20.2615995 91.6607373,16.1312905 C91.6607373,14.2416393 90.657678,12.4259721 87.9350489,12.4259721 L87.9350489,12.4259721 Z M86.2592229,27.0920459 C80.1722061,27.0920459 77.259652,23.4295604 77.259652,18.7613377 C77.259652,12.3561602 81.6434336,8.01530274 88.4176138,8.01530274 C94.2953252,8.01530274 97.4166309,11.5857254 97.4166309,16.1710638 C97.4166309,23.0426742 92.7349493,27.0920459 86.2592229,27.0920459 L86.2592229,27.0920459 Z M64.9707222,22.6994553 C64.8411523,23.3558546 64.7592021,23.8161685 64.7592021,24.3813394 C64.7592021,26.4726386 66.1523554,27.0917678 67.6288431,27.0917678 C68.809092,27.0917678 69.5399992,26.767462 69.8074447,26.6745648 L72.5411481,12.8462346 L76.9606445,12.8459564 L77.8333033,8.4319494 L73.4138069,8.43222754 L73.6286493,7.34527483 C74.0284334,5.30654317 74.9844267,4.41039127 76.6392115,4.41039127 C77.7444317,4.41039127 78.6370243,4.60731105 78.9479367,4.68880469 L79.7798973,0.490908784 C79.4257949,0.401349221 77.7920514,0 75.3750744,0 C71.5225848,0 68.9990172,2.3471837 68.2526059,6.12787667 L67.7963427,8.4319494 L64.918119,8.4319494 L64.0449065,12.8459564 L66.9245145,12.8459564 C66.9245145,12.8459564 65.7893935,18.5633054 64.9707222,22.6994553 L64.9707222,22.6994553 Z M51.8841623,8.01585901 C49.0308559,8.01585901 47.4618973,10.0034138 46.8481014,11.5893412 L46.7822091,11.5893412 L47.0020349,8.4319494 L41.3815252,8.4319494 C41.3319675,9.5266899 41.103559,11.3765677 40.5310151,14.2861409 C39.9507191,17.234375 39.3850967,20.1745431 38.8017553,23.0368334 C38.7018093,23.5260734 38.657235,24.0047442 38.657235,24.4099873 C38.657235,25.9094146 39.3950636,27.0900989 41.5767106,27.0900989 C42.6572904,27.0900989 43.4084082,26.8083479 43.7688783,26.6742867 L45.4405515,18.2173051 C46.0429962,14.9817573 47.137142,12.8426188 50.3113277,12.8426188 C51.7551461,12.8426188 53.1272581,13.1519052 53.4140838,13.2359021 L54.376168,8.37020337 C54.1685239,8.29844446 53.3357328,8.01585901 51.8841623,8.01585901 L51.8841623,8.01585901 Z M134.340453,15.8258979 C134.644167,14.1534704 133.674608,12.4265284 131.482994,12.4265284 C128.8066,12.4265284 127.631335,14.2608306 127.106411,15.8258979 L134.340453,15.8258979 Z M136.877033,22.6140678 C136.877033,25.1512179 134.428494,27.0967742 130.093163,27.0967742 C124.100001,27.0967742 121.169728,23.3514044 121.169728,18.7663442 C121.169728,14.2146602 124.180844,8.02003104 131.530614,8.02003104 C136.376473,8.02003104 140,10.4353579 140,15.9658 C140,17.3256034 139.698224,18.8038924 139.568654,19.3963206 L126.687247,19.3963206 C126.666205,20.7230259 127.780562,23.0232048 132.257368,23.0232048 C134.253243,23.0232048 136.512964,22.3153505 136.877033,22.1353969 L136.877033,22.6140678 Z M31.6230845,15.8258979 C31.9270754,14.1534704 30.9572392,12.4265284 28.7659021,12.4265284 C26.0892316,12.4265284 24.914243,14.2608306 24.3893188,15.8258979 L31.6230845,15.8258979 Z M34.1596644,22.6140678 C34.1596644,25.1512179 31.7111256,27.0967742 27.3757942,27.0967742 C21.3826326,27.0967742 18.4526364,23.3514044 18.4526364,18.7663442 C18.4526364,14.2146602 21.4634754,8.02003104 28.8135218,8.02003104 C33.6596575,8.02003104 37.2829081,10.4353579 37.2829081,15.9658 C37.2829081,17.3256034 36.9811321,18.8038924 36.8512853,19.3963206 L23.9701546,19.3963206 C23.9488365,20.7230259 25.063193,23.0232048 29.5405529,23.0232048 C31.5361508,23.0232048 33.7955952,22.3153505 34.1596644,22.1353969 L34.1596644,22.6140678 Z M0,2.22480417 L5.71907142,2.22480417 L5.71907142,20.3628407 C5.71907142,23.0905135 7.07180332,24.4825806 9.2437603,24.4825806 C9.46552416,24.4825806 9.5962015,24.4539327 9.63911461,24.4439198 C8.68727419,25.889667 7.45276097,27.0753578 4.6188347,27.0753578 C1.61990061,27.0753578 0,24.9862836 0,21.8519771 L0,2.22480417 Z" fill="#221F20"></path>
                    <path d="M6.77419355,18.2522399 L6.77419355,20.1247367 C6.77419355,21.9329571 7.7324771,22.5806452 8.7792176,22.5806452 C9.8484744,22.5806452 10.420764,21.8413289 10.9461447,21.0013585 C11.8264253,19.5941139 22.5806452,2.25806452 22.5806452,2.25806452 L16.8255828,2.25806452 L6.77419355,18.2522399 Z" fill="#00ADEF"></path>
                </g>
            </g>
        </g>
    </g>
</svg>