<?xml version="1.0" encoding="UTF-8"?>
<svg width="60px" height="75px" viewBox="0 0 60 75" version="1.1" xmlns="http://www.w3.org/2000/svg" xmlns:xlink="http://www.w3.org/1999/xlink">
    <!-- Generator: Sketch 43.2 (39069) - http://www.bohemiancoding.com/sketch -->
    <title>logo_neko</title>
    <desc>Created with Sketch.</desc>
    <defs></defs>
    <g stroke="none" stroke-width="1" fill="none" fill-rule="evenodd">
        <g transform="translate(0.000000, -15.000000)" fill="#6977FD">
            <g>
                <path d="M33.1344504,67.3422405 C31.7968411,68.0103256 29.7279855,68.1982716 28.0563501,66.5278081 C26.8742186,65.3465053 26.5306632,63.6043718 27.9520297,62.3513989 C27.9520297,62.3513989 28.7896027,61.5525033 31.345956,61.4206906 C31.4668273,61.4141751 31.5801755,61.4116692 31.6950284,61.408662 C29.7741273,63.104185 30.7471163,65.3595362 30.7471163,65.3595362 C32.4112286,64.6393274 32.4608811,62.3950023 32.3966839,61.4026478 C34.6526142,61.4577786 35.5242921,62.198035 35.6005263,63.7712677 C35.6632189,65.0658393 34.4720596,66.6741554 33.1344504,67.3422405 M13.9921441,59.0099707 C13.3235903,60.4298396 11.0666568,60.8894301 9.34536896,60.3882409 C7.62408106,59.8870518 6.17663442,58.6340789 5.83107284,55.9482062 C5.61240107,54.2486737 6.55279,52.619809 8.96620414,52.9019785 C9.69494287,52.9866794 10.5711346,53.348538 11.3876429,53.8216606 C8.70540294,55.1929141 9.43664937,57.8822951 9.43664937,57.8822951 C11.3399966,57.4457594 11.8219772,55.253558 11.9443532,54.1689846 C12.2257176,54.3559282 12.4950449,54.551392 12.7382922,54.7498629 C13.8100848,55.6234356 14.6611995,57.5901018 13.9921441,59.0099707 M56.4736497,33.5826399 C53.2186502,33.2944562 50.2214426,34.4171199 47.1926379,35.3533412 C43.6913819,36.4349074 40.1409748,36.9621584 36.7440392,35.1809322 C32.625888,33.0213081 28.1300766,31.5317739 24.5796696,28.3301776 C23.7997737,27.6270092 22.7405196,27.0376107 21.7223919,26.8341279 C19.5391849,26.3985945 18.5165433,24.9551698 17.718592,23.1087889 C16.7270459,20.8163497 15.8142417,18.472288 13.8777928,16.7296533 C10.939767,14.0853793 8.93661324,14.5088841 6.81258811,17.7540839 C4.4623681,21.3456054 2.92865645,25.2598928 1.25752263,29.1591444 C0.550350161,30.8095603 -0.0108739515,32.3086171 0.000159945229,34.1144016 C0.0538248067,42.7107981 0.0242339018,51.3081969 0.0257385241,59.9050946 C0.0267416056,68.9189816 0.0187169534,77.9333698 0.04279091,86.947758 C0.044797073,87.6404014 0.000159945229,90 0.000159945229,90 C0.000159945229,90 1.82476524,88.500442 2.34185376,88.1035002 C4.19354225,86.6806242 6.09488328,85.3158861 7.86833141,83.8017937 C8.93510861,82.891133 9.77017398,82.7302512 11.1880297,83.2469773 C16.0058303,85.0026429 20.7368643,84.6723592 25.4217565,82.363882 C28.1722061,81.0086665 30.1452674,78.5693789 32.8300151,77.316406 C36.7164545,75.5026024 40.241283,73.5785372 43.1246408,70.1343653 C45.2827707,67.5567495 46.6534816,65.0868893 47.0316433,61.8071074 C47.3135092,59.3648127 47.2773983,56.591733 48.7198295,54.6265703 C52.4658375,49.5229611 55.9023948,44.2514536 59.0279968,38.7549121 C60.8666452,35.522242 60.1409158,33.9069093 56.4736497,33.5826399"></path>
            </g>
        </g>
    </g>
</svg>