<?xml version="1.0" encoding="UTF-8"?>
<svg width="96px" height="36px" viewBox="0 0 96 36" version="1.1" xmlns="http://www.w3.org/2000/svg" xmlns:xlink="http://www.w3.org/1999/xlink">
    <!-- Generator: Sketch 43.2 (39069) - http://www.bohemiancoding.com/sketch -->
    <title>logo_coolhunting</title>
    <desc>Created with Sketch.</desc>
    <defs></defs>
    <g stroke="none" stroke-width="1" fill="none" fill-rule="evenodd">
        <g transform="translate(-64.000000, -853.000000)" fill="#8F9EBC">
            <g transform="translate(29.000000, 777.000000)">
                <g transform="translate(35.000000, 76.000000)">
                    <path d="M76.2786702,29.6448781 L76.2786702,28.995633 C76.2787679,25.9198242 76.2780842,22.8441131 76.2792562,19.7683044 C76.2795491,19.0437632 76.3038665,19.0201294 77.0129774,19.0177856 C77.6476712,19.0157347 78.282365,19.0148557 78.9170588,19.0182739 C79.5606397,19.0215943 79.5993131,19.0597795 79.5999967,19.7216228 C79.6021453,21.7232667 79.6009733,23.7250083 79.6009733,25.7267499 C79.6009733,28.6560684 79.6017546,31.5853868 79.6000944,34.5146075 C79.5997038,35.194518 79.5662063,35.2254763 78.8776041,35.2277225 C78.1778686,35.2300663 77.4764728,35.199401 76.7787882,35.2377815 C76.2554271,35.2664936 75.9402775,35.0612118 75.6728838,34.62428 C74.0767251,32.0153847 72.4619133,29.4177204 70.8503243,26.818103 C70.3986458,26.08946 69.9370059,25.3670673 69.4467516,24.5892037 C69.30407,24.8354051 69.3473335,25.0318975 69.3471381,25.2158893 C69.3441107,28.3079097 69.3456732,31.4000277 69.344306,34.492048 C69.344013,35.2031121 69.3188167,35.2260623 68.5957404,35.2279178 C67.9123141,35.229578 67.2284973,35.215515 66.545364,35.2317266 C66.115366,35.2418832 65.9254169,35.0775211 65.9260028,34.6324834 C65.9330344,29.6200724 65.9324484,24.6076614 65.9271748,19.5953481 C65.9266865,19.1789249 66.1025725,19.0090938 66.5146987,19.0151487 C67.3607292,19.0275516 68.2071504,19.026282 69.0532785,19.0146604 C69.3817099,19.0102657 69.6011524,19.1357591 69.7739133,19.4142861 C71.7887414,22.6635394 73.8093314,25.9090816 75.8303121,29.1545261 C75.9299255,29.3143959 75.9867638,29.5123532 76.2786702,29.6448781"></path>
                    <path d="M41.4327601,29.5047064 C41.5699727,29.3216911 41.5105953,29.1204134 41.5108883,28.9341754 C41.5151854,25.9245803 41.5136228,22.9148875 41.5142087,19.9051947 C41.5144041,19.0265457 41.5238771,19.0182446 42.4235231,19.0174633 C43.0417123,19.0168773 43.6599015,19.0141428 44.2780907,19.0185375 C44.874697,19.0227369 44.9256757,19.0704928 44.9282149,19.6553799 C44.9329025,20.6965355 44.9298751,21.7376911 44.9298751,22.7789445 C44.9299727,26.6670909 44.9302657,30.5552374 44.9294844,34.4433839 C44.9292891,35.2176342 44.9187418,35.2270096 44.1321864,35.2280838 C43.3675068,35.2290604 42.6027296,35.2180248 41.8384407,35.2318926 C41.4914539,35.2381428 41.2742576,35.1092313 41.0886055,34.8080472 C39.0837388,31.5542039 37.0658832,28.308271 35.0514458,25.0602873 C34.9420663,24.8839129 34.831515,24.7083198 34.6981111,24.4947369 C34.5289636,24.7106637 34.5824814,24.9106718 34.5822861,25.0924175 C34.5784773,28.2322914 34.5803329,31.3720675 34.5787703,34.5119414 C34.5784773,35.1941957 34.5451752,35.2253493 33.8595027,35.2276932 C33.1924834,35.230037 32.5249758,35.2120675 31.8586401,35.2333575 C31.4211223,35.2473229 31.2455292,35.084621 31.2517795,34.6373371 C31.269456,33.3686332 31.2574437,32.0995386 31.2574437,30.8306393 C31.2573461,27.1539272 31.2569554,23.4773127 31.2577367,19.8006006 C31.257932,19.0278153 31.2683817,19.0187329 32.0564997,19.0175609 C32.7885607,19.0164867 33.5211101,19.0331866 34.2525851,19.011506 C34.6576798,18.9994938 34.905932,19.1500859 35.1204916,19.4984399 C37.0817042,22.6836281 39.0579565,25.8595386 41.0353807,29.0347654 C41.1407561,29.2039129 41.2078486,29.419742 41.4327601,29.5047064"></path>
                    <path d="M95.9077013,30.8532378 C95.9078966,32.1060232 95.8941266,33.3590039 95.9150258,34.6113986 C95.9229363,35.0802653 95.7458783,35.261132 95.2840431,35.2330059 C94.8787532,35.2082002 94.4705335,35.2166966 94.0642669,35.2296855 C93.7246047,35.2405257 93.5514531,35.0844647 93.5013534,34.7587679 C93.461801,34.5016285 93.4171703,34.2449774 93.3635548,33.9904749 C93.3347451,33.8535552 93.3529099,33.6672195 93.1825904,33.6216122 C93.0390299,33.5832317 92.9576789,33.7330425 92.8737888,33.8244525 C91.9269729,34.8563304 90.7412802,35.4361392 89.3622201,35.5413192 C87.2205314,35.7046071 85.2503341,35.206247 83.6263422,33.730308 C81.2021225,31.5268981 80.6010238,28.714186 81.0103178,25.5920863 C81.3024195,23.3637729 82.2702323,21.4972907 84.0829038,20.1331727 C85.6900981,18.9236509 87.5341184,18.5365257 89.5167186,18.6981534 C91.1071154,18.8278462 92.5231886,19.3639032 93.7127878,20.447541 C94.7357786,21.3795125 95.3466433,22.5358096 95.5831764,23.8953375 C95.6416749,24.2319723 95.498505,24.3864708 95.1636281,24.3858848 C94.3176952,24.3842246 93.4716647,24.3828574 92.6257318,24.3862755 C92.3605843,24.3873497 92.2075508,24.2633213 92.1208285,24.0161432 C91.5918031,22.509539 90.5079699,21.6985685 88.9300737,21.6714189 C87.2562751,21.6426092 85.9013371,22.3005461 85.1778702,23.8916264 C84.1385701,26.1768757 84.1732395,28.4652501 85.352096,30.6962002 C86.0982201,32.1079764 87.7843239,32.6909103 89.2692476,32.5445176 C90.2192863,32.4508614 91.0863137,32.1879601 91.7422975,31.4376366 C92.1961245,30.9184749 92.4326576,30.3038014 92.5577603,29.6391259 C92.6242669,29.2860842 92.4244541,29.173189 92.1097929,29.1735797 C91.3289017,29.1744586 90.5479129,29.1757282 89.7670218,29.1702592 C89.1412151,29.1659622 89.0785172,29.0998462 89.0741225,28.4589021 C89.0706067,27.9545847 89.0813493,27.450072 89.0724623,26.9458523 C89.0664073,26.6015023 89.2084053,26.4384098 89.5635955,26.4392887 C91.5159211,26.4445624 93.4682466,26.445539 95.4205721,26.4388004 C95.8200024,26.4374332 95.9121937,26.6519927 95.9102405,26.9974169 C95.903209,28.2826254 95.907506,29.5679316 95.9077013,30.8532378"></path>
                    <path d="M14.3627231,27.173342 C14.3627231,29.6136757 14.3636997,32.0540094 14.3622348,34.4944407 C14.3617465,35.2032586 14.3367455,35.2260134 13.612009,35.2279666 C12.9286804,35.2297245 12.2453518,35.2296269 11.5621209,35.2279666 C10.7933396,35.2260134 10.7525176,35.1878283 10.7517363,34.4372118 C10.7498808,32.6313766 10.7522246,30.8255414 10.7502714,29.0197062 C10.7495878,28.3295414 10.7156997,28.294579 10.0399886,28.2937001 C8.36433449,28.2915516 6.68868037,28.2915516 5.01292859,28.2937001 C4.33780346,28.294579 4.3052826,28.3284671 4.30459898,29.0203898 C4.30264578,30.8750551 4.30586857,32.7297204 4.30225514,34.5843858 C4.30118087,35.1756208 4.25098352,35.2235719 3.65818596,35.2268924 C2.87729481,35.2312871 2.09620834,35.216638 1.31561017,35.2317754 C0.891862462,35.2399788 0.688533876,35.091047 0.689119837,34.6400521 C0.696053713,29.6292037 0.696053713,24.6184529 0.689119837,19.6076045 C0.688436216,19.1582698 0.888249034,19.0057245 1.31365697,19.0138303 C2.11046673,19.029163 2.9082531,19.0328741 3.70486755,19.0120724 C4.14453388,19.0006462 4.31358372,19.165692 4.30938433,19.6105343 C4.29405168,21.2535699 4.30245046,22.8968008 4.30459898,24.5399341 C4.30538026,25.2318568 4.33643622,25.2641823 5.01361221,25.2650612 C6.68936399,25.2672098 8.36501811,25.2672098 10.0407699,25.2649636 C10.7172623,25.2640846 10.7493925,25.2305872 10.7502714,24.5392505 C10.7523223,22.9449473 10.7491972,21.3505465 10.752127,19.7562433 C10.7533965,19.0816065 10.812481,19.0220338 11.4679764,19.018518 C12.2000374,19.0145139 12.9321961,19.0151976 13.6642572,19.0181274 C14.3231707,19.0207642 14.3612582,19.0560195 14.3618442,19.7059483 C14.363895,22.1950144 14.3627231,24.6841782 14.3627231,27.173342"></path>
                    <path d="M19.5387345,24.53092 C19.5393204,26.1094022 19.5229135,27.6880798 19.545473,29.266269 C19.5591455,30.2238275 19.7132533,31.1387084 20.4860387,31.843034 C21.0721953,32.3772354 21.7868728,32.5259719 22.5154181,32.5529261 C23.5916338,32.5926739 24.6861119,32.5737278 25.488586,31.6644134 C26.105115,30.9656545 26.1637111,30.0869078 26.1698637,29.2270096 C26.1924232,26.1027613 26.1786531,22.9783178 26.1792391,19.8538743 C26.1794344,19.0187817 26.1806063,19.0181957 27.0229257,19.0175121 C27.7388728,19.0169261 28.4551129,19.029622 29.170767,19.0138987 C29.5976399,19.0045233 29.7952065,19.1611703 29.7939369,19.6093331 C29.7851475,22.7825091 29.8259695,25.9563687 29.77294,29.1286657 C29.7460834,30.7383992 29.4406022,32.3035996 28.3019817,33.5726942 C27.6329115,34.3185253 26.8255544,34.8631764 25.8727813,35.1389689 C23.8445738,35.7261021 21.8002523,35.7874328 19.7732167,35.1246128 C17.5782055,34.4068102 16.1837152,32.616503 16.0322442,30.3038112 C15.7979573,26.7285681 15.9816562,23.1479536 15.9273571,19.5701713 C15.9213021,19.176503 16.100118,19.0118478 16.488708,19.0161449 C17.3184293,19.0254226 18.1487365,19.0311845 18.9782625,19.0130197 C19.4077721,19.0036444 19.5461567,19.1912496 19.5431292,19.6002507 C19.5310193,21.2437746 19.5381485,22.8873961 19.5387345,24.53092"></path>
                    <path d="M13.1675963,5.92988973 C12.7445322,5.92940142 12.3213705,5.92598332 11.8983064,5.93057335 C11.6398975,5.93340549 11.4814926,5.83447569 11.3889107,5.57567609 C10.8411345,4.04368016 9.70524842,3.21874425 8.12237152,3.13778393 C6.62172452,3.06092533 5.3673766,3.6151471 4.52300631,4.95602197 C3.20596053,7.04751333 3.30264415,10.6830128 4.81374079,12.5866059 C5.8215943,13.8563841 7.20387711,14.2172387 8.75452614,13.9302153 C10.2558568,13.6523719 11.0679015,12.6381705 11.4475068,11.2263943 C11.6623593,10.4268501 11.6497611,10.4229436 12.480459,10.4227483 C13.1638852,10.422553 13.8475068,10.4317331 14.5308354,10.4212834 C14.945989,10.4149355 15.0823227,10.6030291 15.0178669,10.9987483 C14.4784895,14.3106018 12.3735211,16.5871593 8.95160448,16.9800464 C7.04195646,17.1992936 5.24578962,16.8658816 3.61818433,15.8456252 C1.87944171,14.7558348 0.855474262,13.1284248 0.344808952,11.1651613 C-0.222694608,8.9835296 -0.0979825025,6.82914507 0.78027589,4.7595296 C1.95053835,2.00170254 4.07865229,0.492168464 7.05494527,0.16334649 C8.82532981,-0.0321692777 10.4985424,0.263057579 12.0170612,1.20274425 C13.5786482,2.16909217 14.5024163,3.59737294 14.8729392,5.39451638 C14.9538995,5.78740346 14.829871,5.9434645 14.4367886,5.93291719 C14.0140175,5.92168627 13.5906604,5.93037803 13.1675963,5.92988973"></path>
                    <path d="M52.8292102,19.0175902 C54.7819263,19.0173949 56.7346425,19.0163207 58.6874564,19.0179809 C59.4389518,19.0186645 59.4767463,19.0594865 59.4791878,19.8276818 C59.480848,20.3158852 59.480848,20.8040887 59.4792855,21.2922922 C59.4768439,22.0186889 59.4545774,22.0429086 58.7469314,22.0442759 C57.6892712,22.0463268 56.6315133,22.0447642 55.5737554,22.0449595 C54.6001807,22.0451548 54.5999854,22.0452525 54.5999854,23.0440236 C54.5998877,26.8518934 54.600376,30.6596655 54.5993994,34.4675353 C54.5992041,35.2089717 54.5798673,35.2264529 53.8262234,35.2280155 C53.1590087,35.2294804 52.4918918,35.2293827 51.8246771,35.2280155 C51.0134136,35.2264529 50.9875337,35.2006706 50.9873384,34.3657733 C50.9866547,30.5905221 50.9870454,26.8151731 50.9869477,23.0399219 C50.9869477,22.0452525 50.9867524,22.0451548 50.0080993,22.0449595 C48.9666507,22.0447642 47.925202,22.0470104 46.8837534,22.0438852 C46.23861,22.041932 46.2031593,22.0036492 46.2001318,21.3419036 C46.197495,20.7723491 46.2198592,20.2018181 46.1936863,19.6335333 C46.1720057,19.1627133 46.3646893,19.0073359 46.8245713,19.0109493 C48.8260199,19.026868 50.8276639,19.0177856 52.8292102,19.0175902"></path>
                    <path d="M53.2316191,7.06259207 C53.2319121,9.0321058 53.2302519,11.0015219 53.2328887,12.9710356 C53.23367,13.596354 53.279375,13.6432309 53.8958063,13.6440122 C56.0768521,13.6468444 58.2579955,13.6441099 60.4390413,13.6462584 C61.0979548,13.646942 61.135261,13.6854201 61.1389721,14.3325168 C61.1420973,14.8858596 61.1435622,15.4393001 61.1382885,15.9927406 C61.1325266,16.5952065 61.0621135,16.6704049 60.4613078,16.6710885 C57.5151919,16.6743113 54.5690759,16.6728464 51.6230576,16.672944 C51.1672773,16.672944 50.7108134,16.6563418 50.2560098,16.6766551 C49.7981786,16.6969685 49.605202,16.5112187 49.6154564,16.0470397 C49.6338165,15.2173184 49.6198511,14.3869135 49.6198511,13.5568016 C49.6197534,9.47138149 49.6193628,5.38586368 49.6202417,1.30044354 C49.6203394,0.498555443 49.6532509,0.465839268 50.4346303,0.463983723 C51.1507727,0.462323499 51.8670128,0.460370295 52.5831552,0.464960326 C53.1783943,0.468671414 53.22908,0.516231943 53.2300566,1.10531841 C53.233377,3.09104374 53.2313261,5.07686673 53.2316191,7.06259207"></path>
                    <path d="M60.6556517,27.1202344 C60.6554564,24.6804867 60.6544798,22.240739 60.65614,19.8010889 C60.6566283,19.0673677 60.7040911,19.0202954 61.4247259,19.0180492 C62.1892102,19.0157054 62.9537921,19.0284012 63.7179833,19.0142405 C64.1122376,19.006916 64.2707402,19.1646372 64.2702519,19.5623097 C64.2638063,24.6044094 64.2638063,29.6465091 64.2701542,34.6886087 C64.2706425,35.0907736 64.1024716,35.2381428 63.7128073,35.2315019 C62.9160952,35.2177318 62.1188948,35.2320879 61.3219874,35.2264236 C60.7296781,35.2222242 60.6578979,35.1497603 60.6571166,34.5370401 C60.6538938,32.0647715 60.655847,29.592503 60.6556517,27.1202344"></path>
                    <path d="M44.8485729,8.34184334 C44.8190796,10.0032391 44.5814722,11.3198942 43.7423756,12.4550966 C42.0503145,14.7442523 38.3241864,14.5243215 36.9167072,12.0540061 C36.4081904,11.1614893 36.1547622,10.1963133 36.1365974,9.16414242 C36.117456,8.06907833 36.1791772,6.99872228 36.5335862,5.94018311 C37.576988,2.82423601 41.2357306,2.39560529 43.1937204,4.07936521 C43.9846706,4.75956867 44.3963084,5.68734079 44.6205363,6.69294812 C44.7622413,7.32832553 44.8791406,7.9699532 44.8485729,8.34184334 M48.3444183,7.35928383 C48.0471406,5.09991455 47.2061884,3.10793896 45.3502535,1.69655341 C43.2585668,0.105766022 40.8825913,-0.217001017 38.3633481,0.372085453 C36.1517347,0.889293998 34.571104,2.21884028 33.5286787,4.21696846 C32.8046258,5.6048179 32.5475841,7.09745677 32.524048,8.64185554 C32.4717998,9.46601017 32.6121375,10.2673123 32.8116574,11.0569929 C33.4137327,13.4390234 34.7140785,15.2806022 36.9997184,16.3161913 C38.4529025,16.9745188 39.9754254,17.1939613 41.5688496,16.9745188 C44.6400684,16.5513571 46.7343919,14.9019736 47.8271121,12.0122075 C48.3934437,10.514588 48.5540948,8.95348932 48.3444183,7.35928383"></path>
                    <path d="M27.2394287,11.8094454 C26.4624439,13.4500395 25.0578946,14.0786783 23.3305782,14.0232073 C21.6385172,13.9689082 20.4627858,13.08313 19.776918,11.5502551 C19.3582486,10.6144749 19.1746474,9.62918087 19.2480879,8.6809001 C19.1953514,7.30457457 19.4321774,6.07317681 20.1245884,4.95858067 C20.9520635,3.62649522 22.217447,3.07979329 23.7252232,3.11875972 C25.3569302,3.16094893 26.6199699,3.91215137 27.2814226,5.43145148 C28.2023585,7.54667426 28.2396647,9.69734771 27.2394287,11.8094454 M31.2875426,6.41684313 C30.877565,4.52682482 30.0283117,2.89375056 28.4716077,1.70102625 C26.7009302,0.344330417 24.6751642,-0.0825424212 22.4865986,0.183874669 C19.7535772,0.516603052 17.7429485,1.90747996 16.55833,4.39273733 C15.5665904,6.47348606 15.3880675,8.65980549 15.8910177,10.9173192 C16.714977,14.6159072 19.6981062,17.050186 23.4764826,17.0580964 C23.6391845,17.0580964 23.8029607,17.069718 23.9643931,17.0554596 C24.223388,17.0326071 24.4810157,16.9933477 24.7391316,16.9597526 C27.4309404,16.6103243 29.4078763,15.2251117 30.5984521,12.7939581 C31.5918519,10.7655552 31.7655894,8.62083906 31.2875426,6.41684313"></path>
                </g>
            </g>
        </g>
    </g>
</svg>