<svg width="120" height="45" viewBox="0 0 120 45" xmlns="http://www.w3.org/2000/svg"><title>logo_coolhunting</title><path d="M95.348 37.056v-.811l.001-11.535c0-.905.03-.935.917-.938.794-.002 1.587-.003 2.38 0 .805.005.853.053.854.88.003 2.502.001 5.004.001 7.506v10.985c-.001.85-.043.889-.904.892-.875.003-1.751-.036-2.624.012-.654.036-1.048-.22-1.382-.767-1.995-3.26-4.014-6.508-6.028-9.757-.565-.911-1.142-1.814-1.755-2.786-.178.307-.124.553-.124.783-.004 3.865-.002 7.73-.004 11.595 0 .889-.031.918-.935.92-.855.002-1.71-.016-2.563.005-.538.012-.775-.193-.774-.75.008-6.265.008-12.53.001-18.796 0-.52.22-.733.734-.725 1.058.015 2.116.014 3.174 0 .41-.006.684.15.9.499 2.519 4.061 5.045 8.118 7.57 12.175.125.2.196.447.561.613m-43.557-.176c.171-.228.097-.48.098-.712.005-3.762.003-7.524.004-11.287 0-1.098.012-1.108 1.136-1.11.773 0 1.546-.003 2.319.002.745.005.81.065.812.796.006 1.302.002 2.603.002 3.905v14.58c0 .968-.014.98-.997.981-.956.001-1.912-.012-2.867.005-.434.008-.705-.153-.937-.53-2.506-4.067-5.029-8.125-7.547-12.185-.136-.22-.275-.44-.441-.707-.212.27-.145.52-.145.748-.005 3.924-.003 7.85-.005 11.774 0 .853-.042.892-.899.895-.833.003-1.668-.02-2.5.007-.548.017-.767-.186-.76-.745.023-1.586.008-3.173.008-4.759V24.751c0-.966.013-.978.999-.979.915-.001 1.83.02 2.745-.008.506-.015.816.174 1.085.609a2655.3 2655.3 0 0 0 7.393 11.92c.132.212.216.482.497.588m68.094 1.686c0 1.566-.017 3.132.009 4.697.01.586-.212.812-.789.777a16.41 16.41 0 0 0-1.525-.004c-.424.014-.64-.181-.703-.589-.05-.321-.106-.642-.173-.96-.036-.171-.013-.404-.226-.461-.18-.048-.28.14-.386.254-1.183 1.29-2.665 2.014-4.39 2.146-2.676.204-5.14-.42-7.17-2.264-3.03-2.754-3.78-6.27-3.27-10.173.366-2.785 1.576-5.118 3.842-6.824 2.009-1.511 4.314-1.995 6.792-1.793 1.988.162 3.758.832 5.245 2.186 1.279 1.165 2.042 2.61 2.338 4.31.073.421-.106.614-.524.613a528.458 528.458 0 0 0-3.173 0c-.331.002-.523-.153-.631-.462-.661-1.883-2.016-2.897-3.988-2.93-2.093-.037-3.786.786-4.69 2.775-1.3 2.856-1.256 5.717.217 8.505.933 1.765 3.04 2.494 4.897 2.31 1.187-.116 2.27-.445 3.09-1.383.568-.649.864-1.417 1.02-2.248.083-.441-.166-.583-.56-.582-.976.001-1.952.003-2.928-.004-.782-.006-.86-.088-.866-.89-.005-.63.009-1.26-.002-1.89-.008-.431.17-.635.613-.634 2.44.007 4.881.008 7.322 0 .499-.002.614.266.612.698-.009 1.606-.004 3.213-.003 4.82m-101.932-4.6c0 3.05.002 6.1 0 9.151 0 .886-.032.915-.938.917-.854.002-1.708.002-2.562 0-.961-.002-1.012-.05-1.013-.988-.003-2.258 0-4.515-.002-6.772-.001-.863-.043-.907-.888-.908-2.095-.003-4.19-.003-6.284 0-.844.001-.884.044-.885.908-.003 2.319.001 4.637-.003 6.955-.002.74-.064.8-.805.804-.976.005-1.953-.013-2.928.006-.53.01-.784-.176-.784-.74.01-6.263.01-12.527 0-18.79 0-.562.25-.753.781-.743.996.02 1.993.024 2.99-.002.549-.014.76.192.755.748-.02 2.054-.009 4.108-.006 6.162 0 .865.04.905.886.906 2.095.003 4.19.003 6.284 0 .846 0 .886-.043.887-.907.002-1.993-.002-3.986.002-5.979.002-.843.076-.917.895-.922.915-.005 1.83-.004 2.745 0 .824.003.872.047.872.86.003 3.11.001 6.222.001 9.334m6.47-3.303c.001 1.973-.02 3.946.009 5.919.017 1.197.21 2.34 1.176 3.22.732.669 1.626.854 2.536.888 1.346.05 2.714.026 3.717-1.11.77-.874.844-1.972.851-3.047.029-3.906.011-7.811.012-11.717 0-1.044.002-1.044 1.055-1.045.895 0 1.79.015 2.684-.005.534-.011.781.184.78.745-.012 3.966.04 7.933-.027 11.899-.033 2.012-.415 3.968-1.839 5.555-.836.932-1.845 1.613-3.036 1.958-2.535.734-5.09.81-7.624-.018-2.744-.897-4.487-3.135-4.677-6.026-.293-4.47-.063-8.945-.13-13.417-.008-.492.215-.698.7-.693a94.11 94.11 0 0 0 3.113-.004c.537-.011.71.223.706.734-.015 2.055-.006 4.11-.006 6.164M16.46 7.412c-.53 0-1.058-.005-1.587.001-.323.004-.521-.12-.637-.443-.685-1.915-2.104-2.947-4.083-3.048-1.876-.096-3.444.597-4.5 2.273-1.646 2.614-1.525 7.159.364 9.538 1.26 1.587 2.988 2.039 4.926 1.68 1.877-.348 2.892-1.615 3.366-3.38.269-1 .253-1.004 1.292-1.005.854 0 1.708.012 2.563-.001.518-.008.689.227.608.721-.674 4.14-3.305 6.986-7.582 7.477-2.388.274-4.633-.143-6.667-1.418-2.174-1.362-3.454-3.396-4.092-5.85-.71-2.728-.553-5.42.544-8.008C2.438 2.502 5.098.615 8.82.204c2.213-.244 4.304.125 6.202 1.3 1.952 1.207 3.107 2.993 3.57 5.24.101.49-.054.685-.545.672-.528-.014-1.058-.003-1.587-.004m49.577 16.36c2.44 0 4.881-.002 7.322 0 .94.001.987.052.99 1.013.002.61.002 1.22 0 1.83-.003.908-.03.939-.915.94-1.322.003-2.645.001-3.967.001-1.217 0-1.217 0-1.217 1.249v14.28c-.001.926-.025.948-.967.95-.834.002-1.668.002-2.502 0-1.014-.002-1.047-.034-1.047-1.078V28.8c0-1.243 0-1.244-1.224-1.244-1.302 0-2.603.003-3.905-.001-.807-.003-.851-.05-.855-.878-.003-.712.025-1.425-.008-2.135-.027-.589.214-.783.789-.778 2.502.02 5.004.008 7.506.008m.503-14.944c0 2.462-.002 4.924.001 7.386.001.781.058.84.829.841 2.726.004 5.452 0 8.179.003.823 0 .87.049.875.858.004.691.005 1.383-.001 2.075-.007.753-.095.847-.846.848-3.683.004-7.366.002-11.048.002-.57 0-1.14-.02-1.709.005-.572.025-.813-.207-.8-.787.022-1.037.005-2.075.005-3.113V1.626c0-1.003.042-1.044 1.018-1.046.895-.002 1.79-.005 2.686.001.744.005.807.064.809.8.004 2.483.001 4.965.002 7.447M75.82 33.9c0-3.05-.002-6.1 0-9.149 0-.917.06-.976.96-.978.957-.003 1.912.013 2.867-.005.493-.01.691.188.69.685-.007 6.303-.007 12.605 0 18.908.001.502-.209.687-.696.678-.996-.017-1.992.001-2.989-.006-.74-.005-.83-.096-.83-.862-.005-3.09-.002-6.18-.002-9.27M56.06 10.427c-.036 2.077-.333 3.723-1.382 5.142-2.115 2.861-6.773 2.586-8.532-.501a7.442 7.442 0 0 1-.975-3.613c-.024-1.369.053-2.707.496-4.03 1.304-3.895 5.878-4.43 8.325-2.326.989.85 1.503 2.01 1.784 3.267.177.794.323 1.596.285 2.061M60.43 9.2c-.372-2.824-1.423-5.314-3.743-7.078C54.073.132 51.103-.271 47.954.465c-2.764.647-4.74 2.309-6.043 4.806-.905 1.735-1.227 3.6-1.256 5.531-.065 1.03.11 2.032.36 3.02.752 2.977 2.378 5.279 5.235 6.573a10.199 10.199 0 0 0 5.711.823c3.84-.529 6.457-2.59 7.823-6.203.708-1.872.909-3.823.647-5.816M34.05 14.762c-.972 2.05-2.728 2.836-4.887 2.767-2.115-.068-3.585-1.175-4.442-3.091-.523-1.17-.753-2.402-.66-3.587-.067-1.72.23-3.26 1.095-4.653 1.034-1.665 2.616-2.348 4.5-2.3 2.04.053 3.619.992 4.446 2.891 1.15 2.644 1.198 5.333-.053 7.973m5.06-6.74c-.512-2.363-1.574-4.405-3.52-5.896C33.377.43 30.845-.104 28.11.23c-3.417.416-5.93 2.154-7.411 5.26-1.24 2.602-1.463 5.335-.834 8.157 1.03 4.623 4.759 7.666 9.482 7.676.203 0 .408.014.61-.004.323-.028.645-.077.968-.12 3.365-.436 5.836-2.168 7.324-5.207 1.242-2.535 1.459-5.216.861-7.97" fill="#231F1F" fill-rule="evenodd"/></svg>