<?xml version="1.0" encoding="UTF-8"?>
<svg width="60px" height="36px" viewBox="0 0 60 36" version="1.1" xmlns="http://www.w3.org/2000/svg" xmlns:xlink="http://www.w3.org/1999/xlink">
    <!-- Generator: Sketch 43.2 (39069) - http://www.bohemiancoding.com/sketch -->
    <title>logo_bltd</title>
    <desc>Created with Sketch.</desc>
    <defs></defs>
    <g stroke="none" stroke-width="1" fill="none" fill-rule="evenodd">
        <g transform="translate(-84.000000, -850.000000)" fill="#8F9EBC">
            <g transform="translate(29.000000, 777.000000)">
                <g transform="translate(55.000000, 73.500000)">
                    <path d="M6.18899208,23.7639578 C6.18899208,25.6624274 6.20783113,27.5612137 6.17696042,29.4592084 C6.1682533,29.9996834 6.34081266,30.2191029 6.87653826,30.2373087 C7.79775198,30.2683377 8.71738259,30.3827968 9.63796306,30.3856464 C11.9440844,30.3927704 13.1064063,29.4204222 13.2422375,27.1122427 C13.3889921,24.616781 13.363029,22.1086544 13.3342164,19.6070185 C13.3253509,18.8319261 13.1379103,18.0345119 12.8947441,17.2923483 C12.5368021,16.1995251 11.7032929,15.6511346 10.5416042,15.6563588 C9.0902058,15.6628496 7.77495515,16.094248 6.7125277,17.092876 C6.43105013,17.3575726 6.22160422,17.8389974 6.21068074,18.2273351 C6.15922955,20.0716623 6.18772559,21.9182058 6.18899208,23.7639578 M-3.16622691e-05,34.8348285 L-3.16622691e-05,0.158311346 L6.17426913,0.158311346 L6.17426913,11.8837995 C7.3766438,11.5337731 8.47959894,11.0893931 9.6245066,10.9008443 C14.6526332,10.0731926 18.3783325,12.5531398 19.3011293,17.5443799 C19.9699947,21.1613193 19.9395989,24.8673879 19.3251926,28.4905013 C18.6392296,32.5366227 15.902343,34.8201055 11.6415515,35.1877045 C10.2314723,35.3094459 8.79954617,35.2290237 7.37996834,35.1748813 C5.19606332,35.0916095 3.01437467,34.9497625 0.831577836,34.8365699 C0.574796834,34.8232718 0.316591029,34.8348285 -3.16622691e-05,34.8348285"></path>
                    <path d="M53.7669815,23.750343 C53.7669815,22.1691293 53.6455567,20.5758839 53.80181,19.010343 C53.9518892,17.5068602 53.2219156,16.7558311 52.0147916,16.24781 C51.4850818,16.0249077 50.9262427,15.8341425 50.3620211,15.7363061 C48.2977995,15.3785224 47.0099367,16.1384169 46.8593826,18.2119789 C46.6409129,21.2211609 46.5912032,24.2632718 46.7667704,27.2738786 C46.9010185,29.5768338 48.0853456,30.4014776 50.4182216,30.3843799 C51.2594881,30.3782058 52.1002797,30.2556728 52.9412296,30.2585224 C53.6599631,30.2608971 53.7969024,29.9333509 53.782496,29.2841161 C53.7414934,27.4402639 53.7680897,25.5949868 53.7669815,23.750343 M53.7475092,12.0129815 L53.7475092,0.172559367 L59.9697784,0.172559367 L59.9697784,34.754723 C59.8481953,34.7844855 59.7521003,34.8243799 59.6541055,34.8299208 C56.7615989,34.9906069 53.8697256,35.2450132 50.9761108,35.268285 C49.309409,35.2815831 47.5776412,35.1372032 45.9842375,34.6817414 C42.6194881,33.7198417 40.8172718,31.1958839 40.558591,27.8255937 C40.3154248,24.6585752 40.2427599,21.4299736 40.5699894,18.2778364 C41.2274565,11.9431662 47.1538417,8.90627968 53.0395409,11.6753034 C53.2456623,11.77219 53.4508338,11.8712929 53.7475092,12.0129815"></path>
                    <polygon points="20.9355673 34.7874934 27.1062269 34.7874934 27.1062269 0.177150396 20.9355673 0.177150396"></polygon>
                    <path d="M34.6475303,4.42966227 L34.6475303,11.1954142 L40.2797731,11.1954142 L40.2797731,16.1505594 L34.6695356,16.1505594 L34.6695356,34.7714565 L28.3855251,34.7714565 L28.3855251,33.9669182 C28.3844169,24.9735673 28.3907493,15.980058 28.3671609,6.98670712 C28.3654195,6.31277573 28.5522269,6.02876517 29.2253668,5.86997889 C30.7890079,5.50111346 32.3282691,5.02855409 33.8784538,4.60190501 C34.1011979,4.54048021 34.3297995,4.50011082 34.6475303,4.42966227"></path>
                </g>
            </g>
        </g>
    </g>
</svg>