<svg width="140" height="34" viewBox="0 0 140 34" xmlns="http://www.w3.org/2000/svg"><title>logo_rockport</title><g fill="none" fill-rule="evenodd"><path fill="#000" d="M0 33.62h140V.29H0z"/><path d="M20.568 15.656c0 .712-.57.855-.712.855h-.997v-1.567h.57c.284 0 .854 0 1.14.285v.427zm.57 1.852c.284-.143.427-.143.57-.143 0-.142.142-.284.284-.427.428-.427.428-.997.428-1.14 0-1.138-.57-1.85-1.567-2.136H17.15v6.55h1.709v-2.42h.57l1.424 2.42h1.994l-1.71-2.704zm12.816 1.566c-.569 0-.996-.427-1.138-.57-.286-.569-.428-1.423-.428-1.565 0-.143 0-1.282.712-1.852.142-.143.427-.284.854-.284.285 0 .428 0 .57.141.854.285.997 1.283.997 1.995 0 .142 0 2.135-1.567 2.135m2.85-4.272c-.855-1.281-2.28-1.424-2.849-1.424-.997 0-1.851.427-2.564 1.14-.712.996-.712 1.993-.711 2.42 0 .712.142 1.424.57 2.135.854 1.282 2.278 1.282 2.705 1.282.427 0 1.709 0 2.706-1.14.712-.853.712-1.85.712-2.277 0-.712-.143-1.424-.57-2.136m13.088 1.14v-.427c-.284-.428-.712-.712-1.14-.712-.853 0-1.423.712-1.423 2.135 0 .57.142 1.282.427 1.71a1.3 1.3 0 0 0 .997.426c.57 0 .997-.426 1.14-.854 0-.285 0-.427.142-.57H51.6c0 .285 0 .997-.57 1.709-.57.713-1.423.997-2.42.997-.285 0-1.424 0-2.137-.855-.427-.427-.997-1.138-.997-2.563 0-1.14.428-1.852.57-2.278.427-.427 1.14-1.281 2.705-1.281 1.567 0 2.279.854 2.564 1.423.142.284.142.57.142 1.14h-1.566zm12.859-2.28v2.565l2.28-2.565h1.993l-2.706 2.991 2.848 3.56H65.03l-2.278-2.99v2.99H60.9v-6.55zm30.583 5.412c-.568 0-.996-.427-1.139-.57-.284-.569-.285-1.423-.285-1.565 0-.143 0-1.282.57-1.852.143-.143.428-.284.854-.284.286 0 .428 0 .57.141.855.285.997 1.283.997 1.995 0 .142 0 2.135-1.567 2.135m2.85-4.272c-.855-1.281-2.279-1.424-2.849-1.424-.854 0-1.851.427-2.564 1.14-.711.996-.711 1.993-.711 2.42 0 .712.143 1.424.569 2.135.855 1.282 2.28 1.282 2.706 1.282.57 0 1.852 0 2.706-1.14.713-.853.713-1.85.713-2.277 0-.712-.144-1.424-.57-2.136m11.61 1.708h-.57v.001h-.427v-1.567h.57c.284 0 .855 0 1.14.285 0 .143.142.285.142.427 0 .712-.712.855-.855.855zm1.282.998c.285-.143.428-.143.57-.143 0-.142.285-.285.427-.427.284-.427.284-.997.284-1.14 0-1.138-.569-1.85-1.566-2.136h-3.703v6.55h1.71v-2.42h.57l1.424 2.42h1.993l-1.71-2.704zm14.863-3.846v1.282h-1.85v5.269h-1.852v-5.269h-1.852v-1.282zm-44.823 5.412c-.711 0-1.139-.427-1.281-.57-.285-.569-.286-1.423-.286-1.565 0-.143 0-1.282.57-1.852.143-.143.428-.284.854-.284.286 0 .428 0 .57.141.855.285.997 1.283.997 1.995 0 .142 0 2.135-1.424 2.135m2.706-4.272c-.854-1.281-2.278-1.424-2.706-1.424-.642 0-1.284.18-1.85.497v-.213h-1.567v13.244h1.567V19.98c.703.373 1.425.376 1.708.376.57 0 1.852 0 2.706-1.14.713-.853.713-1.85.713-2.277 0-.712-.143-1.424-.57-2.136" fill="#FFF"/></g></svg>