<svg width="75" height="45" viewBox="0 0 75 45" xmlns="http://www.w3.org/2000/svg"><title>logo_bltd</title><path d="M7.736 30.205c0 2.373.024 4.747-.015 7.119-.01.676.205.95.875.973 1.151.038 2.3.181 3.451.185 2.883.009 4.336-1.206 4.506-4.092.183-3.119.15-6.254.115-9.381-.011-.97-.246-1.966-.55-2.894-.447-1.366-1.489-2.051-2.941-2.045-1.814.009-3.458.548-4.786 1.796-.352.331-.614.933-.628 1.418-.064 2.306-.028 4.614-.027 6.92M0 44.045V.698h7.718v14.657c1.503-.438 2.881-.993 4.313-1.229 6.285-1.035 10.942 2.065 12.095 8.304.836 4.522.798 9.154.03 13.683-.857 5.058-4.278 7.912-9.604 8.372-1.763.152-3.553.051-5.327-.016-2.73-.104-5.457-.282-8.186-.423-.32-.017-.643-.002-1.039-.002m67.209-13.856c0-1.977-.152-3.968.043-5.925.188-1.88-.725-2.818-2.234-3.453-.662-.279-1.36-.517-2.065-.64-2.58-.447-4.19.503-4.379 3.095-.273 3.761-.335 7.564-.116 11.327.168 2.879 1.649 3.91 4.565 3.888 1.051-.007 2.102-.16 3.154-.157.898.003 1.07-.406 1.051-1.218-.051-2.305-.018-4.611-.02-6.917m-.024-14.672V.716h7.778v43.227c-.152.038-.272.087-.394.094-3.616.201-7.23.52-10.848.548-2.083.017-4.248-.163-6.24-.733-4.206-1.202-6.458-4.357-6.782-8.57-.304-3.959-.395-7.995.014-11.935.822-7.918 8.23-11.714 15.587-8.253.258.121.515.245.885.422M26.17 43.984h7.713V.721h-7.714zM43.31 6.037v8.457h7.04v6.194h-7.013v23.276h-7.855V42.96c-.001-11.242.006-22.484-.023-33.726-.002-.842.231-1.197 1.073-1.396 1.954-.46 3.878-1.051 5.816-1.585.278-.076.564-.127.961-.215" fill-rule="evenodd"/></svg>