<?xml version="1.0" encoding="UTF-8"?>
<svg width="64px" height="71px" viewBox="0 0 64 71" version="1.1" xmlns="http://www.w3.org/2000/svg" xmlns:xlink="http://www.w3.org/1999/xlink">
    <!-- Generator: Sketch 43.2 (39069) - http://www.bohemiancoding.com/sketch -->
    <title>logo_intersective</title>
    <desc>Created with Sketch.</desc>
    <defs></defs>
    <g stroke="none" stroke-width="1" fill="none" fill-rule="evenodd">
        <g transform="translate(-284.000000, -832.000000)">
            <g transform="translate(244.000000, 777.000000)">
                <g transform="translate(40.000000, 55.000000)">
                    <polygon fill="#BFC9DB" points="31.5140503 0.357127862 6.19384925 15.1507404 14.9944746 30.2130743 25.3202367 24.1800648 31.3135812 34.4379319 46.3076628 25.6773289"></polygon>
                    <polygon fill="#BFC9DB" points="0 38.9735701 14.7936125 64.2937711 29.6483305 55.6149994 23.8229369 45.6440782 34.2884199 39.5292373 31.3135455 34.4378247 20.987426 40.4708342 14.9944389 30.2129671"></polygon>
                    <polygon fill="#8F9EBC" points="31.3135455 34.4379319 25.320201 24.1800648 14.9940815 30.2130743 20.987426 40.4709414"></polygon>
                    <polygon fill="#BFC9DB" points="34.2882412 39.5293088 40.1139922 49.50023 29.6485092 55.6147136 38.6163707 70.9643506 63.9365717 56.1707381 49.1429592 30.8505371"></polygon>
                    <polygon fill="#8F9EBC" points="34.2882769 39.5294517 23.822794 45.6439352 29.6481876 55.6148565 40.1136706 49.500373"></polygon>
                </g>
            </g>
        </g>
    </g>
</svg>