<?xml version="1.0" encoding="UTF-8"?>
<svg width="104px" height="35px" viewBox="0 0 104 35" version="1.1" xmlns="http://www.w3.org/2000/svg" xmlns:xlink="http://www.w3.org/1999/xlink">
    <!-- Generator: Sketch 43.2 (39069) - http://www.bohemiancoding.com/sketch -->
    <title>logo_mydoc</title>
    <desc>Created with Sketch.</desc>
    <defs></defs>
    <g stroke="none" stroke-width="1" fill="none" fill-rule="evenodd">
        <g transform="translate(-70.000000, -857.000000)" fill="#8F9EBC">
            <g transform="translate(29.000000, 777.000000)">
                <g transform="translate(41.000000, 80.000000)">
                    <path d="M99.38854,16.8417439 C99.38854,21.2615799 97.7670647,25.3001482 95.0928375,28.4009208 L97.8390757,31.152198 C101.21091,27.3442353 103.26036,22.3330243 103.26036,16.8417439 C103.26036,11.3506686 101.21091,6.33966257 97.8390757,2.53169978 L95.0928375,5.28318196 C97.7670647,8.38374961 99.38854,12.4219079 99.38854,16.8417439"></path>
                    <path d="M94.5803932,16.8417439 C94.5803932,19.9312425 93.4932723,22.7653327 91.683791,24.9846799 L94.4292109,27.7357521 C96.934867,24.806345 98.4520081,21.0030968 98.4520081,16.8417439 C98.4520081,12.681211 96.934867,8.87775781 94.4292109,5.94794071 L91.683791,8.69962788 C93.4932723,10.9181552 94.5803932,13.7526553 94.5803932,16.8417439"></path>
                    <path d="M89.7728396,16.8419489 C89.7728396,18.6000851 89.2084123,20.2251876 88.2554938,21.5495806 L91.0164616,24.3164365 C92.6592129,22.2700946 93.6438408,19.6719395 93.6438408,16.8417439 C93.6438408,14.0117534 92.6592129,11.4135982 91.0164616,9.36787133 L88.2546755,12.1343173 C89.2084123,13.4589152 89.7728396,15.0842226 89.7728396,16.8419489"></path>
                    <path d="M81.7306207,21.0054541 C79.4356787,21.0054541 77.5752578,19.1413418 77.5752578,16.8420514 C77.5752578,14.5429659 79.4356787,12.6784437 81.7306207,12.6784437 C82.8625438,12.6784437 83.8878825,13.1335052 84.6370426,13.868983 L87.3855312,11.114631 C85.9332408,9.67462788 83.9357535,8.78459319 81.7306207,8.78459319 C77.289464,8.78459319 73.6891178,12.3920829 73.6891178,16.8420514 C73.6891178,21.2924298 77.289464,24.8997146 81.7306207,24.8997146 C83.9357535,24.8997146 85.9332408,24.0096799 87.3855312,22.5700867 L84.6370426,19.8151198 C83.8878825,20.5510076 82.8625438,21.0054541 81.7306207,21.0054541"></path>
                    <path d="M15.1213109,8.80177073 C13.3652241,8.80177073 11.7838458,9.5372485 10.657037,10.7140539 C9.53002374,9.5372485 7.94823631,8.80177073 6.19235408,8.80177073 C2.77264914,8.80177073 2.04576749e-05,11.5794907 2.04576749e-05,15.0059808 C2.04576749e-05,15.168327 0.0122950626,15.3271886 0.0241605141,15.4862551 L0.0241605141,24.9324708 L3.43077254,24.9324708 L3.43077254,21.1191785 L3.43077254,15.0059808 C3.43077254,13.4778351 4.66682526,12.2393299 6.19235408,12.2393299 C7.66264717,12.2393299 8.85267012,13.3937922 8.93756947,14.8458893 C8.93572828,14.8997997 8.92918182,14.9520703 8.92918182,15.0059808 C8.92918182,15.0600962 8.93572828,15.1125717 8.93756947,15.1662772 C8.93981982,15.2736881 8.94534339,15.3804841 8.95291273,15.4862551 L8.95291273,21.1191785 L8.95291273,24.9324708 L12.3595248,24.9324708 L12.3595248,21.1191785 L12.3595248,15.4862551 C12.3677078,15.3804841 12.3730268,15.2736881 12.3760955,15.1662772 C12.3779367,15.1125717 12.3842785,15.0600962 12.3842785,15.0059808 C12.3842785,14.9520703 12.3779367,14.8997997 12.3760955,14.8458893 C12.4605857,13.3937922 13.6510178,12.2393299 15.1213109,12.2393299 C16.6460214,12.2393299 17.8826878,13.4778351 17.8826878,15.0059808 L17.8826878,21.1191785 L17.8826878,24.9324708 L21.2886861,24.9324708 L21.2886861,15.4862551 C21.3011653,15.3271886 21.3130308,15.168327 21.3130308,15.0059808 C21.3130308,11.5794907 18.5410158,8.80177073 15.1213109,8.80177073"></path>
                    <path d="M63.9538218,20.959005 C61.6897709,20.959005 59.8541037,19.1201056 59.8541037,16.8509477 C59.8541037,14.5824046 61.6897709,12.7428903 63.9538218,12.7428903 C66.218691,12.7428903 68.0541536,14.5824046 68.0541536,16.8509477 C68.0541536,19.1201056 66.218691,20.959005 63.9538218,20.959005 M63.9538218,8.80209871 C59.5177796,8.80209871 55.9213203,12.4056938 55.9213203,16.8509477 C55.9213203,21.2957915 59.5177796,24.8997966 63.9538218,24.8997966 C68.3902732,24.8997966 71.9875507,21.2957915 71.9875507,16.8509477 C71.9875507,12.4056938 68.3902732,8.80209871 63.9538218,8.80209871"></path>
                    <path d="M46.089505,20.959005 C43.8254541,20.959005 41.9891732,19.1201056 41.9891732,16.8509477 C41.9891732,14.5824046 43.8254541,12.7428903 46.089505,12.7428903 C48.3537604,12.7428903 50.189223,14.5824046 50.189223,16.8509477 C50.189223,19.1201056 48.3537604,20.959005 46.089505,20.959005 L46.089505,20.959005 Z M50.189223,0.204921161 L50.189223,9.93011826 C48.9891758,9.21452381 47.5876205,8.80209871 46.089505,8.80209871 C41.6534627,8.80209871 38.0565943,12.4056938 38.0565943,16.8509477 C38.0565943,21.2957915 41.6534627,24.8997966 46.089505,24.8997966 C50.5257518,24.8997966 54.1218018,21.2957915 54.1218018,16.8509477 L54.1218018,0.204921161 L50.189223,0.204921161 Z"></path>
                    <path d="M35.872267,8.8021807 L32.4658596,8.8021807 L32.4658596,12.6148581 L32.4658596,18.7249811 L32.4658596,18.7313355 C32.4652458,19.3630921 32.2449167,19.9384784 31.888544,20.404199 C31.3840577,21.0628083 30.598483,21.4951167 29.7044826,21.4951167 C28.5248931,21.4951167 27.5255356,20.7508247 27.1307025,19.7074629 C27.0142983,19.4020388 26.9433102,19.0736566 26.9433102,18.7282608 L26.9433102,12.6148581 L26.9433102,8.80177073 L23.5371073,8.80177073 L23.5371073,18.2481914 C23.5248327,18.407053 23.5129673,18.5657096 23.5129673,18.7282608 C23.5129673,19.5758641 23.6837889,20.3837007 23.9912677,21.1204084 C24.4439961,22.2037417 25.1960202,23.1282135 26.1411648,23.7970719 C27.1499327,24.5093866 28.3775978,24.9324708 29.7044826,24.9324708 C30.3928834,24.9324708 31.0522342,24.8152208 31.6708743,24.6073683 C31.9458255,24.5157411 32.2103432,24.4032056 32.4658596,24.2755014 L32.4658596,26.9812725 L32.4658596,26.9943914 C32.4621772,29.1862709 30.6872693,30.9626506 28.4989118,30.9626506 L28.4989118,34.3997997 C32.2717162,34.3997997 35.3796462,31.5677594 35.833602,27.9104588 C35.833602,27.9104588 35.872267,27.3627452 35.872267,26.5012031 L35.872267,8.8021807 Z"></path>
                </g>
            </g>
        </g>
    </g>
</svg>