<?xml version="1.0" encoding="UTF-8"?>
<svg width="125px" height="45px" viewBox="0 0 125 45" version="1.1" xmlns="http://www.w3.org/2000/svg" xmlns:xlink="http://www.w3.org/1999/xlink">
    <!-- Generator: Sketch 44.1 (41455) - http://www.bohemiancoding.com/sketch -->
    <title>logo_experience_viki</title>
    <desc>Created with Sketch.</desc>
    <defs></defs>
    <g stroke="none" stroke-width="1" fill="none" fill-rule="evenodd">
        <g transform="translate(-67.000000, -855.000000)">
            <g transform="translate(29.000000, 777.000000)">
                <g transform="translate(38.000000, 78.000000)">
                    <path d="M25.6828,36.3587 C25.6108,36.2577 25.5688,36.1947 25.5228,36.1347 C23.9448,34.0407 22.3668,31.9467 20.7898,29.8517 C20.7258,29.7677 20.6078,29.6897 20.6238,29.5877 C20.6398,29.4877 20.7738,29.4437 20.8568,29.3777 C23.0438,27.6277 23.8118,24.6867 22.7518,22.1207 C21.7808,19.7717 19.4998,18.2547 16.9238,18.2507 C15.1208,18.2467 13.3188,18.2487 11.5158,18.2497 C11.2268,18.2497 11.2508,18.2147 11.2508,18.5057 C11.2508,24.3707 11.2508,30.2347 11.2508,36.0997 C11.2508,36.1537 11.2518,36.2077 11.2508,36.2617 C11.2508,36.3297 11.2828,36.3607 11.3508,36.3587 C11.3898,36.3567 11.4278,36.3587 11.4668,36.3587 C12.4728,36.3587 13.4778,36.3587 14.4838,36.3587 C14.7278,36.3587 14.7098,36.3707 14.7088,36.1317 C14.7088,36.0937 14.7088,36.0547 14.7088,36.0157 C14.7088,34.3297 14.7088,32.6427 14.7088,30.9557 C14.7088,30.7167 14.7058,30.7427 14.9218,30.7417 C15.5868,30.7417 16.2528,30.7477 16.9178,30.7387 C17.0818,30.7357 17.1828,30.7867 17.2818,30.9187 C18.5968,32.6777 19.9198,34.4307 21.2358,36.1897 C21.3288,36.3157 21.4248,36.3627 21.5798,36.3617 C22.8718,36.3557 24.1638,36.3587 25.4558,36.3587 C25.5168,36.3587 25.5778,36.3587 25.6828,36.3587 L25.6828,36.3587 Z M-0.0002,26.6527 C0.0718,26.4867 0.0698,26.3067 0.0818,26.1317 C0.3048,22.9947 1.3118,20.1297 3.1458,17.5777 C5.7458,13.9597 9.2468,11.6977 13.6088,10.7857 C15.1308,10.4667 16.6748,10.3837 18.2258,10.5037 C25.6648,11.0777 31.6868,16.3827 33.3718,23.3667 C33.7828,25.0717 33.9258,26.8017 33.7918,28.5487 C33.2348,35.7937 28.1628,41.8297 21.1238,43.6317 C20.0658,43.9027 18.9898,44.0707 17.8968,44.1217 C17.7968,44.1267 17.6958,44.1257 17.5988,44.1587 L16.2978,44.1587 C16.1828,44.1457 16.0688,44.1267 15.9528,44.1217 C15.0708,44.0807 14.1968,43.9617 13.3358,43.7697 C9.7768,42.9777 6.7628,41.2357 4.3288,38.5217 C1.4828,35.3467 0.1308,31.5817 -0.0002,27.3497 L-0.0002,26.6527 Z M14.7092,24.5194 C14.7092,25.3774 14.7092,26.2354 14.7092,27.0934 C14.7092,27.3324 14.7082,27.3024 14.9252,27.3034 C15.6202,27.3034 16.3162,27.3084 17.0122,27.3014 C18.5092,27.2844 19.7502,26.0424 19.7732,24.5444 C19.7972,23.0064 18.5532,21.7154 17.0142,21.6924 C16.3192,21.6824 15.6232,21.6904 14.9272,21.6904 C14.6992,21.6904 14.7092,21.6654 14.7092,21.9224 C14.7092,22.7884 14.7092,23.6534 14.7092,24.5194 Z" fill="#BE0000"></path>
                    <path d="M93.2392,0 C93.2702,0.077 93.3512,0.069 93.4092,0.098 C93.6882,0.241 93.8442,0.461 93.8502,0.779 C93.8512,0.88 93.8502,0.981 93.8502,1.081 C93.8502,7.605 93.8502,14.128 93.8502,20.652 L93.8502,20.898 C93.9392,20.903 93.9572,20.842 93.9882,20.804 C95.4732,18.979 96.9562,17.154 98.4392,15.328 C99.2002,14.392 99.9662,13.459 100.7202,12.516 C101.0932,12.05 101.5692,11.849 102.1572,11.854 C103.0932,11.862 104.0292,11.856 104.9662,11.856 C107.3262,11.856 109.6862,11.856 112.0462,11.856 L112.2962,11.856 C112.2842,11.968 112.2122,12.01 112.1642,12.066 C110.7042,13.739 109.2442,15.413 107.7842,17.085 C106.5682,18.478 105.3512,19.87 104.1342,21.263 C103.0762,22.475 102.0172,23.688 100.9592,24.9 C100.8472,25.029 100.8472,25.03 100.9512,25.194 C102.0782,26.97 103.2062,28.747 104.3332,30.524 C106.8732,34.528 109.4142,38.532 111.9542,42.536 C111.9892,42.593 112.0422,42.644 112.0432,42.716 C111.9892,42.776 111.9232,42.753 111.8652,42.753 C108.8312,42.755 105.7982,42.76 102.7652,42.75 C102.0692,42.748 101.5362,42.423 101.1952,41.807 C100.2572,40.108 99.3202,38.407 98.3822,36.707 C97.4562,35.028 96.5292,33.348 95.6012,31.669 C95.5652,31.602 95.5222,31.538 95.4872,31.481 C95.4152,31.462 95.3932,31.511 95.3652,31.544 C94.8892,32.104 94.4162,32.667 93.9362,33.223 C93.8552,33.317 93.8502,33.414 93.8502,33.523 C93.8512,34.877 93.8502,36.232 93.8502,37.586 C93.8502,39.025 93.8402,40.465 93.8572,41.904 C93.8622,42.362 93.5702,42.757 93.0062,42.756 C90.6072,42.752 88.2082,42.754 85.8092,42.755 C85.7072,42.755 85.6082,42.744 85.5112,42.719 C85.2062,42.641 84.9892,42.385 84.9652,42.072 C84.9562,41.957 84.9592,41.84 84.9592,41.724 C84.9582,28.84 84.9572,15.955 84.9622,3.071 C84.9622,2.149 84.9152,1.231 84.8622,0.312 C84.8592,0.258 84.8542,0.204 84.8512,0.15 C84.8472,0.075 84.8812,0.034 84.9572,0.03 C85.0192,0.028 85.0812,0.027 85.1432,0.027 C85.8552,0.027 86.5672,0.028 87.2792,0.026 C87.3622,0.026 87.4492,0.049 87.5282,0 L93.2392,0 Z M125,42.2084 C124.85,42.6124 124.544,42.7574 124.131,42.7564 C121.717,42.7524 119.303,42.7544 116.889,42.7544 C116.804,42.7544 116.72,42.7544 116.635,42.7364 C116.263,42.6584 116.025,42.3894 116,42.0104 C115.995,41.9254 115.999,41.8404 115.999,41.7554 C115.998,32.6564 115.997,23.5574 116.001,14.4584 C116.002,13.6834 115.949,12.9124 115.904,12.1414 C115.885,11.8304 115.858,11.8564 116.181,11.8564 C119.029,11.8554 121.876,11.8554 124.723,11.8554 C124.815,11.8554 124.909,11.8674 125,11.8404 L125,42.2084 Z M54.0361,29.5127 C54.1151,29.2677 54.1781,29.0777 54.2381,28.8867 C55.1841,25.8547 56.0161,22.7897 56.7881,19.7087 C57.3431,17.4977 57.8611,15.2787 58.3521,13.0527 C58.3711,12.9697 58.3871,12.8857 58.4051,12.8027 C58.5371,12.2137 58.9761,11.8577 59.5821,11.8567 C60.8661,11.8547 62.1511,11.8557 63.4351,11.8557 C65.1221,11.8557 66.8091,11.8557 68.4961,11.8557 L68.6711,11.8557 C68.7041,11.8937 68.6971,11.9207 68.6801,11.9497 C68.2881,12.5967 68.0461,13.3047 67.8201,14.0217 C67.2681,15.7757 66.7101,17.5287 66.1451,19.2787 C64.7611,23.5667 63.3741,27.8537 61.9841,32.1397 C61.1131,34.8237 60.2371,37.5047 59.3631,40.1867 C59.1711,40.7747 58.9881,41.3657 58.7851,41.9497 C58.6301,42.3937 58.3121,42.6657 57.8421,42.7437 C57.7591,42.7577 57.6731,42.7537 57.5881,42.7537 C55.2201,42.7547 52.8521,42.7547 50.4841,42.7547 C49.8551,42.7547 49.4521,42.4657 49.2561,41.8617 C48.2841,38.8617 47.3151,35.8617 46.3441,32.8607 C45.2931,29.6107 44.2411,26.3607 43.1911,23.1097 C42.1651,19.9327 41.1391,16.7557 40.1151,13.5777 C40.0031,13.2297 39.8301,12.9097 39.6791,12.5797 C39.5891,12.3827 39.4921,12.1887 39.4041,11.9917 C39.3511,11.8717 39.3621,11.8577 39.4871,11.8497 C39.5331,11.8467 39.5791,11.8497 39.6261,11.8497 C42.5581,11.8507 45.4911,11.8547 48.4241,11.8517 C48.8101,11.8517 49.1361,11.9617 49.3961,12.2537 C49.5451,12.4207 49.6311,12.6137 49.6761,12.8307 C49.9231,14.0257 50.1991,15.2157 50.4781,16.4037 C51.3951,20.3007 52.3981,24.1747 53.5531,28.0087 C53.6891,28.4597 53.8321,28.9097 53.9721,29.3597 C53.9841,29.3957 54.0011,29.4297 54.0361,29.5127 Z M80.4374,27.0506 C80.4374,31.9556 80.4374,36.8616 80.4374,41.7666 C80.4374,41.8596 80.4394,41.9526 80.4344,42.0456 C80.4144,42.3916 80.1874,42.6526 79.8454,42.7286 C79.7544,42.7486 79.6624,42.7546 79.5694,42.7546 C77.1474,42.7546 74.7254,42.7546 72.3034,42.7546 C72.2344,42.7546 72.1644,42.7536 72.0954,42.7436 C71.6924,42.6786 71.4394,42.3896 71.4224,41.9776 C71.4194,41.8926 71.4224,41.8076 71.4224,41.7226 C71.4224,32.6006 71.4204,23.4776 71.4244,14.3556 C71.4254,13.6276 71.3774,12.9036 71.3284,12.1776 C71.3034,11.8186 71.2694,11.8566 71.6354,11.8566 C74.4674,11.8556 77.2994,11.8556 80.1314,11.8556 C80.4764,11.8556 80.4374,11.8286 80.4374,12.1716 C80.4374,17.1316 80.4374,22.0906 80.4374,27.0506 Z" fill="#3B9CD6"></path>
                </g>
            </g>
        </g>
    </g>
</svg>