<?xml version="1.0" encoding="UTF-8"?>
<svg width="59px" height="71px" viewBox="0 0 59 71" version="1.1" xmlns="http://www.w3.org/2000/svg" xmlns:xlink="http://www.w3.org/1999/xlink">
    <!-- Generator: Sketch 43.2 (39069) - http://www.bohemiancoding.com/sketch -->
    <title>logo_fastcodesign</title>
    <desc>Created with Sketch.</desc>
    <defs></defs>
    <g id="Page-1" stroke="none" stroke-width="1" fill="none" fill-rule="evenodd">
        <g id="Home-long" transform="translate(-97.000000, -853.000000)">
            <g id="card" transform="translate(29.000000, 777.000000)">
                <g id="logo_fastcodesign" transform="translate(60.000000, 74.000000)">
                    <path d="M0.000225,0.000375 L75.000225,0.000375 L75.000225,75.000375 L0.000225,75.000375 L0.000225,0.000375 L0.000225,0.000375 Z" id="Fill-1"></path>
                    <path d="M8.186625,60.914025 L8.186625,8.846775 L8.647125,8.846775 C13.438125,8.846775 18.229125,8.831775 23.020125,8.852775 C26.185875,8.866275 29.308125,9.213525 32.314875,10.281525 C37.304625,12.054525 40.484625,15.551775 42.080625,20.552775 C42.947625,23.271525 43.351875,26.073525 43.392375,28.912275 C43.438875,32.146275 43.450875,35.385525 43.309125,38.615025 C43.138125,42.518775 42.388875,46.324275 40.765125,49.915275 C38.167125,55.662525 33.735375,59.133525 27.610125,60.501525 C26.318625,60.790275 25.020375,60.930525 23.691375,60.923775 C18.706125,60.899025 13.720875,60.914025 8.734875,60.914025 L8.186625,60.914025 Z" id="Fill-4" fill="#000000"></path>
                    <path d="M34.382175,2.598975 L66.719175,2.598975 L66.719175,60.885975 L41.907675,60.885975 C41.953425,60.833475 41.973675,60.795975 42.004425,60.777225 C45.005925,58.949475 46.995675,56.253975 48.502425,53.154975 C50.024925,50.023725 50.916675,46.695975 51.494175,43.277475 C52.121175,39.569475 52.328175,35.830725 52.244175,32.075475 C52.129425,26.981475 51.463425,21.980475 49.583925,17.202225 C46.794675,10.112475 41.847675,5.247225 34.621425,2.744475 C34.536675,2.714475 34.452675,2.679975 34.368675,2.647725 C34.373175,2.631225 34.377675,2.615475 34.382175,2.598975" id="Fill-6" fill="#000000"></path>
                    <path d="M64.972125,70.7154 L64.972125,66.9504 C64.739625,66.9369 64.523625,66.92415 64.271625,66.9099 L64.271625,65.9904 L66.635625,65.9904 L66.635625,66.90615 C66.457125,66.9189 66.295875,66.9309 66.089625,66.94665 L66.089625,72.34665 C65.534625,72.34665 65.024625,72.3654 64.517625,72.3324 C64.399875,72.3249 64.251375,72.1614 64.188375,72.03465 C63.481125,70.60665 62.787375,69.1719 62.089875,67.7394 C62.029875,67.61565 61.966875,67.49265 61.843125,67.3734 L61.843125,71.41515 C62.071125,71.43165 62.313375,71.4489 62.581125,71.46765 L62.581125,72.32115 L60.145125,72.32115 L60.145125,71.47815 C60.312375,71.4564 60.472125,71.43615 60.658875,71.4114 L60.658875,66.95415 C60.489375,66.9369 60.328875,66.92115 60.142125,66.9024 L60.142125,65.95815 C60.658125,65.95815 61.183875,66.00615 61.696125,65.94615 C62.386125,65.86515 62.749875,66.0984 63.022875,66.7629 C63.526875,67.9914 64.150125,69.17115 64.723875,70.37115 C64.783125,70.4934 64.846125,70.6134 64.906875,70.7349 C64.928625,70.7289 64.950375,70.72215 64.972125,70.7154" id="Fill-8" fill="#000000"></path>
                    <path d="M33.933525,66.979575 L33.933525,71.363325 C34.376025,71.363325 34.790775,71.394825 35.199525,71.356575 C35.936025,71.288325 36.431775,70.860075 36.525525,70.138575 C36.613275,69.459825 36.611025,68.757075 36.545775,68.074575 C36.492525,67.518825 36.103275,67.146825 35.528025,67.077075 C35.010525,67.014825 34.485525,67.011075 33.933525,66.979575 M32.030025,72.321075 L32.030025,71.478075 C32.202525,71.457825 32.363775,71.439075 32.557275,71.416575 L32.557275,66.957825 C32.396775,66.938325 32.225775,66.918075 32.035275,66.894825 L32.035275,65.958075 C32.216775,65.958075 32.392275,65.957325 32.568525,65.958075 C33.429525,65.958825 34.291275,65.939325 35.150775,65.966325 C36.912525,66.022575 37.860525,66.931575 37.976025,68.692575 C38.007525,69.172575 37.973775,69.669075 37.883775,70.141575 C37.643775,71.410575 36.794775,72.214575 35.483775,72.305325 C34.352775,72.383325 33.211275,72.321075 32.030025,72.321075" id="Fill-10" fill="#000000"></path>
                    <path d="M38.835375,72.313275 L38.835375,71.470275 C39.008625,71.451525 39.157125,71.435025 39.340125,71.415525 L39.340125,66.959025 C39.175125,66.939525 39.016125,66.920775 38.833125,66.899775 L38.833125,65.994525 L43.791375,65.994525 L43.791375,67.827525 L42.748125,67.827525 L42.748125,67.028025 L40.699875,67.028025 L40.699875,68.714025 L42.969375,68.714025 L42.969375,69.667275 L40.695375,69.667275 L40.695375,71.391525 L42.802125,71.391525 L42.802125,70.530525 L43.848375,70.530525 L43.848375,72.313275 L38.835375,72.313275 Z" id="Fill-12" fill="#000000"></path>
                    <path d="M58.922625,67.84245 L57.852375,67.84245 C57.838125,67.7382 57.817875,67.6467 57.815625,67.55445 C57.800625,66.89445 57.801375,66.89445 57.127125,66.85245 C55.927125,66.7782 55.157625,67.4322 55.065375,68.62695 C55.039125,68.9712 55.045875,69.3207 55.072125,69.6657 C55.175625,71.02845 55.995375,71.6607 57.354375,71.47995 C57.757125,71.4267 57.947625,71.29395 57.891375,70.8597 C57.853125,70.56345 57.883875,70.25895 57.883875,69.9192 L56.780625,69.9192 L56.780625,68.9892 L59.163375,68.9892 C59.163375,69.84045 59.173125,70.67145 59.152875,71.5017 C59.149875,71.62395 59.032125,71.7822 58.921875,71.85795 C57.845625,72.5967 56.673375,72.70845 55.476375,72.24495 C54.365625,71.81445 53.833875,70.89495 53.752875,69.75495 C53.707125,69.1182 53.737875,68.43945 53.913375,67.8312 C54.264375,66.6132 55.184625,65.98245 56.423625,65.8452 C57.145875,65.76495 57.863625,65.8272 58.534125,66.1632 C58.806375,66.30045 58.963125,66.4722 58.929375,66.80745 C58.897125,67.1352 58.922625,67.4682 58.922625,67.84245" id="Fill-14" fill="#000000"></path>
                    <path d="M44.823675,70.46895 L45.916425,70.46895 L45.916425,71.5002 C46.463925,71.5002 46.971675,71.53995 47.469675,71.4882 C47.919675,71.4402 48.152925,71.12295 48.174675,70.69245 C48.197175,70.24845 48.056175,70.0437 47.555925,69.89145 C47.079675,69.74745 46.589925,69.64695 46.109925,69.5127 C45.410925,69.3177 44.996925,68.8632 44.911425,68.13345 C44.815425,67.31445 44.987925,66.58245 45.761925,66.1677 C46.793925,65.61495 47.848425,65.71695 48.872175,66.2262 C48.973425,66.27645 49.078425,66.4272 49.085925,66.53745 C49.112175,66.92145 49.095675,67.30845 49.095675,67.7187 L48.013425,67.7187 L48.013425,66.93645 C47.504925,66.7767 47.018175,66.75795 46.538175,66.9327 C46.214175,67.0512 46.089675,67.3227 46.082925,67.65795 C46.076925,67.99245 46.234425,68.22795 46.541925,68.32545 C46.937175,68.4492 47.342925,68.54145 47.747175,68.63445 C49.012425,68.9247 49.493925,69.4437 49.467675,70.50045 C49.441425,71.60595 48.812925,72.2907 47.599425,72.46245 C46.760175,72.58095 45.940425,72.47295 45.169425,72.08595 C44.922675,71.96145 44.789175,71.8032 44.816925,71.5017 C44.846925,71.17245 44.823675,70.8387 44.823675,70.46895" id="Fill-16" fill="#000000"></path>
                    <path d="M21.885075,71.36175 L21.885075,70.443 L22.992075,70.443 C22.992075,70.8435 23.013825,71.2425 22.980075,71.637 C22.969575,71.75925 22.830825,71.8965 22.716825,71.97975 C20.856075,73.33575 18.111825,72.162 17.846325,69.88125 C17.781825,69.32325 17.775825,68.7345 17.877825,68.1855 C18.201075,66.44925 19.623825,65.55 21.453825,65.86275 C21.481575,65.86725 21.507825,65.8755 21.534825,65.88075 C22.824075,66.12825 23.077575,66.495 22.864575,67.83075 L21.796575,67.83075 C21.785325,67.73925 21.772575,67.67325 21.770325,67.60575 C21.741825,66.8595 21.741825,66.8595 20.971575,66.84825 C19.862325,66.831 19.221825,67.41825 19.162575,68.5215 C19.143825,68.86725 19.144575,69.216 19.158825,69.5625 C19.226325,71.15175 20.331075,71.89275 21.885075,71.36175" id="Fill-18" fill="#000000"></path>
                    <path d="M25.135725,69.941925 C25.180725,70.219425 25.201725,70.540425 25.288725,70.843425 C25.436475,71.360175 25.809225,71.616675 26.338725,71.621925 C26.870475,71.626425 27.302475,71.387175 27.394725,70.868175 C27.496725,70.292175 27.522225,69.682425 27.453975,69.102675 C27.387225,68.537175 26.916225,68.240175 26.345475,68.240925 C25.773975,68.242425 25.384725,68.538675 25.242225,69.117675 C25.180725,69.370425 25.173225,69.636675 25.135725,69.941925 M28.832475,69.890925 C28.821975,71.471175 27.867225,72.458925 26.349975,72.459675 C24.817725,72.459675 23.853225,71.448675 23.862225,69.851925 C23.869725,68.333925 24.864225,67.364175 26.390475,67.385175 C27.897975,67.405425 28.842225,68.374425 28.832475,69.890925" id="Fill-20" fill="#000000"></path>
                    <path d="M52.26795,66.94875 L52.26795,71.41725 C52.46595,71.43525 52.64145,71.45175 52.8402,71.46975 L52.8402,72.32325 L50.3472,72.32325 L50.3472,71.4705 C50.5122,71.45475 50.68545,71.43825 50.8947,71.41875 L50.8947,66.94575 C50.7342,66.93525 50.5602,66.924 50.3502,66.90975 L50.3502,65.99025 L52.8417,65.99025 L52.8417,66.8985 C52.66545,66.91425 52.49145,66.92925 52.26795,66.94875" id="Fill-22" fill="#000000"></path>
                    <path d="M31.054725,71.641125 C31.064475,72.057375 30.729225,72.412875 30.309225,72.430875 C29.862975,72.450375 29.502975,72.120375 29.490225,71.680875 C29.478225,71.239875 29.818725,70.869375 30.248475,70.855875 C30.666975,70.842375 31.044975,71.210625 31.054725,71.641125" id="Fill-24" fill="#000000"></path>
                </g>
            </g>
        </g>
    </g>
</svg>