<?xml version="1.0" encoding="UTF-8"?>
<svg width="100px" height="37px" viewBox="0 0 100 37" version="1.1" xmlns="http://www.w3.org/2000/svg" xmlns:xlink="http://www.w3.org/1999/xlink">
    <!-- Generator: Sketch 43.2 (39069) - http://www.bohemiancoding.com/sketch -->
    <title>logo_mozat</title>
    <desc>Created with Sketch.</desc>
    <defs></defs>
    <g stroke="none" stroke-width="1" fill="none" fill-rule="evenodd">
        <g transform="translate(-67.000000, -857.000000)" fill="#8F9EBC">
            <g transform="translate(29.000000, 777.000000)">
                <g transform="translate(38.000000, 80.000000)">
                    <path d="M18.80904,12.18648 C18.05624,11.12088 17.10024,10.39288 15.86824,10.01688 C14.85544,9.70808 13.83704,9.71528 12.81624,9.89048 C11.27784,10.15528 9.93464,10.76408 8.97064,12.07608 C8.11224,13.24568 7.69944,14.55368 7.65304,15.97768 C7.61304,17.21928 7.65784,18.46248 7.62984,19.70408 C7.60024,21.00008 7.69784,22.29448 7.52664,23.59448 C7.41464,24.44328 7.31704,25.27928 6.96984,26.08888 C7.83704,26.04728 8.68504,26.14568 9.52984,26.01288 C10.63544,25.83848 11.30824,25.21768 11.54504,24.12248 C11.62104,23.77208 11.64664,23.41448 11.64664,23.05528 C11.64584,21.00088 11.64824,18.94568 11.64584,16.89128 C11.64584,16.26488 11.73064,15.65448 11.94504,15.06488 C12.36104,13.91928 13.34264,13.25688 14.57144,13.29128 C15.83624,13.32728 16.69704,14.00168 17.04984,15.22968 C17.17624,15.66888 17.23624,16.11768 17.23704,16.57288 C17.24104,18.56728 17.26824,20.56328 17.22904,22.55688 C17.20504,23.75448 17.09384,24.95288 16.56344,26.07928 C17.24904,26.07928 17.91784,26.09848 18.58424,26.07448 C19.75944,26.03208 20.66344,25.39608 21.01624,24.39048 C21.16024,23.98088 21.20344,23.55608 21.20264,23.12328 C21.19944,21.05608 21.19704,18.98968 21.20504,16.92328 C21.20824,16.14088 21.32504,15.37608 21.70024,14.67368 C22.22424,13.69368 23.09224,13.29208 24.15464,13.29768 C25.18744,13.30248 25.94904,13.79768 26.41624,14.72568 C26.68424,15.25768 26.81464,15.82888 26.82024,16.41848 C26.83784,18.35288 26.84184,20.28808 26.84184,22.22248 C26.84264,22.90328 26.76264,23.57928 26.67144,24.25368 C26.58824,24.87208 26.40104,25.46488 26.21384,26.08168 L27.75224,26.08168 C29.67384,26.08168 30.78104,24.98088 30.78264,23.06408 C30.78504,21.02168 30.79304,18.97928 30.78024,16.93608 C30.77544,16.06648 30.67704,15.20408 30.43784,14.36168 C29.79784,12.10968 28.35864,10.65768 26.09544,10.05768 C25.00984,9.77048 23.89784,9.66808 22.77864,9.82408 C21.84024,9.95528 20.97144,10.26888 20.19064,10.83608 C19.66184,11.22088 19.22664,11.68968 18.80904,12.18648 M33.56344,30.81608 C33.03704,31.07608 32.56744,31.43368 32.03384,31.68328 C30.81464,32.25368 29.53464,32.59048 28.19144,32.59208 C18.85224,32.60408 9.51224,32.59848 0.17224,32.59848 C0.12504,32.59848 0.07704,32.59288 0.03544,32.59048 C-0.04056,32.51368 0.02664,32.45128 0.05064,32.39368 C0.71704,30.75848 0.92424,29.03608 1.05464,27.29368 C1.13944,26.16328 1.21144,25.03288 1.17544,23.90168 C1.09704,21.39448 1.11544,18.88648 1.14264,16.38008 C1.18024,12.86088 2.26184,9.71608 4.72424,7.13288 C6.58584,5.17928 8.88744,4.01368 11.52904,3.51288 C13.38024,3.16168 15.22744,3.14488 17.05944,3.64888 C17.60184,3.79848 18.10664,4.04568 18.62264,4.26088 C18.82824,4.34648 18.99784,4.35048 19.19704,4.26408 C20.52104,3.68888 21.89464,3.31128 23.34664,3.27928 C26.56824,3.20648 29.57064,3.90888 32.22184,5.82728 C32.35624,5.92488 32.49624,6.01448 32.63384,6.10808 C32.67144,6.22968 32.76664,6.30648 32.85784,6.38088 C33.84344,7.18088 34.62664,8.15608 35.30424,9.22008 C35.71464,9.86488 35.99624,10.57528 36.32024,11.26408 C35.63144,11.78328 35.11224,12.45128 34.68824,13.18968 C33.99144,14.40328 33.60664,15.72088 33.49224,17.11288 C33.21784,20.47208 34.12904,23.32088 37.05224,25.29208 C36.84664,26.36888 36.43304,27.36248 35.86424,28.29688 C35.26104,29.28728 34.45864,30.09368 33.56344,30.81608"></path>
                    <path d="M68.72008,14.87528 C69.16968,14.44328 69.59368,14.12488 70.07768,13.88888 C71.68408,13.10568 73.38408,12.91928 75.13368,13.13528 C76.15128,13.26088 76.94408,13.72488 77.22408,14.80328 C77.31768,15.16408 77.33128,15.53368 77.35688,15.90328 C77.37128,16.12408 77.28968,16.19048 77.07048,16.18568 C76.49768,16.17128 75.92408,16.17048 75.35128,16.18248 C73.84088,16.21448 72.35448,16.39128 70.94408,16.97688 C69.82248,17.44248 68.90168,18.13768 68.41928,19.29368 C67.57768,21.30808 68.05288,24.01848 70.76248,25.39928 C72.70968,26.39048 74.79688,26.45608 76.87608,26.02808 C79.33368,25.52248 80.83448,23.84008 81.21048,21.35048 C81.35448,20.39208 81.26008,19.41928 81.26408,18.45288 C81.26888,17.14408 81.32568,15.83288 81.04408,14.53768 C80.54568,12.24248 79.26648,10.66888 76.95288,10.02408 C75.18888,9.53208 73.42488,9.63848 71.65448,9.99928 C70.46328,10.24168 69.58888,10.85608 69.13688,12.01048 C68.78648,12.90328 68.73848,13.84008 68.72008,14.87528 M82.27048,30.82088 C81.34968,31.41608 80.36888,31.88488 79.32648,32.22408 C78.03688,32.64328 76.71208,32.84088 75.35848,32.86328 C74.24968,32.88168 73.14328,32.85528 72.04088,32.72968 C71.97368,32.70968 71.90728,32.68168 71.83928,32.66968 C70.58888,32.44888 69.39208,32.06888 68.25288,31.50568 C67.00248,30.88648 65.90808,30.05368 64.91208,29.08408 C65.04168,28.75688 65.19848,28.44248 65.28088,28.09528 C65.38248,27.66888 65.48888,27.24088 65.64008,26.83128 C65.74808,26.54008 65.64328,26.52088 65.40088,26.52248 C64.60568,26.52648 63.80968,26.51448 63.01448,26.50808 C62.97368,26.42248 62.93528,26.33528 62.89208,26.25048 C62.16248,24.84088 61.72968,23.34728 61.58968,21.76408 C61.49848,20.72968 61.57528,19.69448 61.53288,18.66088 C62.10168,18.00408 62.68408,17.35848 63.23608,16.68808 C64.07448,15.67128 64.83368,14.59448 65.15288,13.29288 C65.41048,12.24408 65.33848,11.23208 64.48408,10.42568 C64.10488,10.06728 63.61288,9.96408 63.12568,9.85528 C63.52168,9.13688 63.95128,8.44168 64.47128,7.80408 C65.62488,6.39048 67.03608,5.31048 68.69528,4.55208 C72.17448,3.06728 75.71928,2.94968 79.32088,4.04808 C79.38888,4.06888 79.46008,4.08088 79.52968,4.09768 C79.57048,4.11928 79.61048,4.14568 79.65368,4.16168 C81.42968,4.81928 83.00088,5.79368 84.30888,7.17608 C84.51288,7.39128 84.65448,7.66248 84.91128,7.82808 C84.93368,7.92168 84.87368,7.98728 84.82808,8.05528 C84.38648,8.71208 84.21368,9.45288 84.20968,10.22568 C84.19528,13.53288 84.17848,16.84088 84.20168,20.14808 C84.21768,22.32568 84.82648,24.24568 86.79528,25.49048 C86.16808,26.78568 85.45528,28.02888 84.42008,29.04488 C83.75608,29.69688 83.03688,30.28888 82.27048,30.82088"></path>
                    <path d="M84.30896,7.17584 C83.00096,5.79344 81.42976,4.81984 79.65376,4.16144 C79.61056,4.14544 79.57056,4.11904 79.52896,4.09744 C80.64816,2.64384 81.92096,1.37184 83.62736,0.60864 C84.53376,0.20384 85.48576,0.00864 86.47616,0.00784 C90.86976,0.00624 95.26336,0.01104 99.65776,-0.00016 C99.98816,-0.00096 100.04016,0.06384 99.97616,0.39184 C99.56816,2.45904 99.44256,4.55584 99.43696,6.65664 C99.41936,12.30304 99.43456,17.94944 99.43136,23.59584 C99.43136,24.61504 99.29856,25.62144 98.94656,26.58144 C98.53696,27.70144 97.94096,28.71264 97.13616,29.60544 C95.21936,31.73104 92.76176,32.62224 89.98016,32.75024 C87.63216,32.85904 85.36736,32.49024 83.25536,31.39984 C82.91696,31.22544 82.59776,31.01424 82.27056,30.82064 C83.03696,30.28944 83.75616,29.69664 84.42016,29.04544 C85.45536,28.02864 86.16816,26.78544 86.79536,25.49024 C87.54176,25.85904 88.32656,26.07744 89.16016,26.12544 C90.30496,26.19184 91.37696,25.98784 92.28416,25.24224 C93.27056,24.43184 93.64416,23.34624 93.66496,22.07104 C92.52016,22.58064 91.36016,22.65424 90.18496,22.57264 C89.23296,22.50704 88.56096,21.93744 88.30256,21.02224 C88.20496,20.67584 88.15136,20.31984 88.15056,19.96144 C88.14416,17.91904 88.15296,15.87664 88.14256,13.83504 C88.14096,13.57104 88.23456,13.52144 88.47136,13.52384 C89.43936,13.53584 90.40656,13.52944 91.37376,13.52944 C92.58336,13.52864 93.37936,12.93904 93.72656,11.77584 C93.86976,11.29664 93.97136,10.80304 94.14256,10.33424 C94.25776,10.01824 94.15696,9.99104 93.88016,9.99264 C92.10016,10.00144 90.32096,9.99104 88.54096,10.00304 C88.24176,10.00544 88.12576,9.96464 88.15616,9.61664 C88.24976,8.54464 88.33216,7.47504 88.72656,6.46064 C88.78336,6.31504 88.74976,6.26384 88.59936,6.26944 C88.26496,6.28224 87.92816,6.26864 87.59776,6.30704 C86.79696,6.39984 86.02736,6.55904 85.45936,7.23024 C85.28736,7.43344 85.12416,7.65664 84.91136,7.82784 C84.65456,7.66224 84.51216,7.39104 84.30896,7.17584 Z"></path>
                    <path d="M36.32016,11.26416 C35.99616,10.57536 35.71456,9.86496 35.30416,9.22016 C34.62656,8.15616 33.84336,7.18096 32.85776,6.38096 C32.76656,6.30656 32.67136,6.22976 32.63456,6.10816 C33.92336,5.07136 35.39136,4.38016 36.96176,3.89456 C38.36976,3.45936 39.82096,3.26336 41.28976,3.26496 C43.30096,3.26736 45.23696,3.66176 47.07376,4.49856 C47.60816,4.76256 48.14016,5.02816 48.64736,5.34416 C49.50176,5.87696 50.23696,6.54416 50.97456,7.22496 C51.80496,7.99216 52.49696,8.85216 53.08496,9.80656 C52.96816,9.88496 52.83216,9.86016 52.70416,9.87456 C51.72576,9.98336 50.97856,10.42096 50.54016,11.33776 C50.24736,11.94976 50.22256,12.64016 49.94736,13.25776 C49.86896,13.43456 50.05376,13.39616 50.14336,13.39696 C50.73936,13.40176 51.33536,13.39296 51.93136,13.40096 C52.87136,13.41296 53.81216,13.36416 54.75216,13.42656 C55.15856,14.74576 55.32496,16.10096 55.38336,17.47456 C55.41936,18.30816 55.30816,19.13296 55.26416,19.96176 C54.29456,21.08176 53.32576,22.20336 52.35456,23.32256 C51.70976,24.06576 51.13216,24.85136 50.73616,25.76016 C50.22976,26.91856 50.08736,28.06816 50.80256,29.20176 C49.42496,30.45536 47.87776,31.42976 46.12176,32.07136 C45.32896,32.36176 44.50576,32.53696 43.69216,32.74656 C42.56976,32.88096 41.44896,33.01056 40.31456,32.94896 C38.03056,32.82496 35.89296,32.21616 33.91856,31.05216 C33.79696,30.98016 33.68176,30.89536 33.56416,30.81616 C34.45856,30.09376 35.26096,29.28736 35.86416,28.29696 C36.43376,27.36256 36.84656,26.36896 37.05216,25.29216 C38.64816,26.19376 40.36096,26.45856 42.16576,26.23216 C44.44336,25.94656 46.29936,24.91856 47.47296,22.93216 C49.14176,20.11136 49.38016,17.10736 48.10816,14.07696 C46.92816,11.26656 44.71856,9.82896 41.68256,9.65136 C40.92976,9.60736 40.18416,9.67216 39.44896,9.81856 C38.29216,10.04896 37.22576,10.48656 36.32016,11.26416"></path>
                    <path d="M43.69192,32.74688 C44.50632,32.53648 45.32872,32.36128 46.12232,32.07168 C47.87752,31.43008 49.42472,30.45488 50.80312,29.20128 C51.37592,29.86288 52.12232,30.10128 52.97192,30.10048 C56.26392,30.09808 59.55592,30.10688 62.84712,30.09488 C63.68392,30.09168 64.40792,29.79568 64.91192,29.08368 C65.90792,30.05408 67.00312,30.88688 68.25352,31.50528 C69.39192,32.06848 70.58952,32.44928 71.83912,32.66928 C71.90792,32.68208 71.97352,32.70928 72.04072,32.73008 C71.23592,33.82768 70.17672,34.61648 68.99832,35.27008 C67.25992,36.23488 65.38872,36.61648 63.41832,36.61328 C59.74232,36.60768 56.06552,36.61648 52.38952,36.60928 C50.19112,36.60528 48.10792,36.14768 46.20792,34.99168 C45.23112,34.39728 44.38872,33.65488 43.69192,32.74688"></path>
                    <path d="M53.08512,9.80664 C52.49712,8.85224 51.80512,7.99224 50.97472,7.22504 C50.23712,6.54424 49.50192,5.87704 48.64752,5.34424 C48.14032,5.02824 47.60752,4.76264 47.07392,4.49784 C48.28992,3.91464 49.58032,3.58184 50.91472,3.46264 C53.11632,3.26584 55.32672,3.40184 57.53312,3.37944 C59.49072,3.36024 61.44832,3.38424 63.40592,3.37544 C65.13552,3.36744 66.78752,3.70904 68.36272,4.42264 C68.47152,4.47144 68.58432,4.50904 68.69552,4.55144 C67.03632,5.30984 65.62512,6.38984 64.47152,7.80424 C63.95152,8.44104 63.52192,9.13704 63.12592,9.85544 C62.88912,9.83864 62.65232,9.80664 62.41632,9.80664 C59.30592,9.80344 56.19552,9.80584 53.08512,9.80664"></path>
                    <path d="M63.0144,26.50816 C60.4744,26.51136 57.9344,26.51136 55.3944,26.52096 C55.108,26.52256 55.1448,26.39936 55.2256,26.21696 C55.5408,25.51216 56.0104,24.90896 56.5,24.32576 C58.1248,22.39056 59.84,20.53616 61.5328,18.66096 C61.5752,19.69456 61.4984,20.72976 61.5896,21.76336 C61.7296,23.34736 62.1624,24.84096 62.892,26.25056 C62.9352,26.33536 62.9736,26.42256 63.0144,26.50816"></path>
                    <path d="M54.75216,13.42648 L60.51536,13.42648 C60.19776,14.22008 59.70336,14.87448 59.17616,15.50248 C58.51056,16.29528 57.82496,17.07048 57.14176,17.84808 C56.52016,18.55608 55.89056,19.25768 55.26416,19.96168 C55.30816,19.13288 55.41936,18.30808 55.38336,17.47448 C55.32496,16.10088 55.15856,14.74568 54.75216,13.42648"></path>
                    <path d="M44.74696,18.24856 C44.77976,19.23176 44.53416,20.16056 44.15576,21.05256 C43.67416,22.19016 42.32216,22.86456 40.99256,22.75656 C39.08136,22.60056 38.07816,21.36296 37.74456,19.68536 C37.46696,18.28616 37.43096,16.88936 37.89336,15.51736 C38.38696,14.05096 39.46616,13.22936 40.90776,13.19576 C42.51576,13.15816 43.71176,13.94616 44.28376,15.40776 C44.64216,16.32296 44.72856,17.27976 44.74696,18.24856"></path>
                    <path d="M76.30688,19.0468 C76.65088,19.0468 77.11088,18.9116 77.30928,19.082 C77.53808,19.2796 77.37328,19.7516 77.38208,20.1044 C77.39088,20.4492 77.40208,20.7956 77.33968,21.1396 C77.14288,22.222 76.56208,22.7836 75.46688,22.9436 C74.73328,23.05 74.01408,22.9996 73.32208,22.726 C72.51408,22.406 72.09488,21.7844 72.11248,20.966 C72.13168,20.1332 72.53088,19.6228 73.40448,19.3292 C74.34848,19.0124 75.32928,19.03 76.30688,19.0468"></path>
                </g>
            </g>
        </g>
    </g>
</svg>