<?xml version="1.0" encoding="UTF-8"?>
<svg width="88px" height="33px" viewBox="0 0 88 33" version="1.1" xmlns="http://www.w3.org/2000/svg" xmlns:xlink="http://www.w3.org/1999/xlink">
    <!-- Generator: Sketch 43.2 (39069) - http://www.bohemiancoding.com/sketch -->
    <title>logo_upout</title>
    <desc>Created with Sketch.</desc>
    <defs></defs>
    <g stroke="none" stroke-width="1" fill="none" fill-rule="evenodd">
        <g transform="translate(-59.000000, -861.000000)">
            <g transform="translate(29.000000, 777.000000)">
                <g transform="translate(30.000000, 84.838760)">
                    <path d="M77.7265253,11.3645532 C77.7265253,9.22892864 77.7219705,7.09324334 77.7322948,4.9576795 C77.7336309,4.69210048 77.682252,4.59942415 77.3918945,4.60306805 C76.0257386,4.62025507 74.6590968,4.61891898 73.2928801,4.60373609 C73.0232928,4.60076025 72.9598283,4.67060152 72.9604963,4.93703078 C72.9697883,8.71228544 72.9683914,12.4876008 72.9652941,16.2629769 C72.9648083,16.8900301 72.9369932,17.5168403 72.8151658,18.1345408 C72.6043059,19.2036588 72.2128304,20.1763351 71.274103,20.8231867 C70.4610899,21.3833137 69.5351161,21.4858286 68.5764687,21.4448348 C67.0174901,21.3782123 65.8731865,20.546919 65.3402065,19.083714 C65.0420146,18.2651136 64.9372527,17.4132323 64.9354915,16.5511481 C64.9275964,12.674654 64.9295398,8.7980991 64.9379208,4.92160497 C64.9384674,4.67278785 64.8831409,4.60161049 64.6261858,4.60416121 C63.2498269,4.61806874 61.8731644,4.61715776 60.4967448,4.60476853 C60.2516323,4.60252146 60.1771754,4.65213913 60.1782079,4.91328475 C60.1889573,7.74726128 60.1769325,10.5813593 60.1880464,13.4153358 C60.194241,15.0033441 60.1490567,16.5913524 60.2408828,18.1795429 C60.3835412,20.648705 61.4331644,22.6128237 63.4288028,24.0719597 C64.7550581,25.0416602 66.2558559,25.5315208 67.8793921,25.6625187 C69.7091119,25.8100963 71.5057938,25.6600894 73.178644,24.8425215 C75.2658656,23.8224745 76.7494763,22.2624635 77.337054,19.9535718 C77.6283832,18.8089038 77.7141968,17.6400646 77.7231851,16.4657596 C77.7361816,14.7654587 77.7265253,13.0649756 77.7265253,11.3645532" fill="#8F9EBC"></path>
                    <path d="M23.1965267,14.8520315 C23.1924577,15.6456712 23.2878062,16.4257071 23.5062576,17.1887382 C24.3679774,20.1987147 26.9253825,21.8603296 30.0144315,21.3702868 C31.8585447,21.0776823 33.0997758,19.9311315 33.9452803,18.3363821 C34.8229725,16.6808403 34.8769021,14.9098479 34.5272099,13.1107368 C34.2777248,11.8271757 33.6928193,10.709351 32.7494156,9.79643451 C31.6425833,8.72525162 30.3039994,8.26350973 28.7724715,8.32442346 C27.1056944,8.39062084 25.7195578,9.02611567 24.6559056,10.3281999 C23.5793176,11.6461957 23.2117096,13.192117 23.1965267,14.8520315 L23.1965267,14.8520315 Z M18.7053079,31.6463061 C18.7083445,31.5148831 18.7139925,31.3835208 18.7139925,31.2520977 C18.7144177,22.4984966 18.7158752,13.7448348 18.7079194,4.99117295 C18.7076157,4.69632133 18.7616668,4.59799696 19.0820864,4.60285549 C20.4479387,4.62350421 21.8143376,4.61743106 23.1804329,4.60613499 C23.4195329,4.60419158 23.491682,4.66905286 23.485123,4.90936756 C23.468604,5.51115638 23.4796571,6.11373471 23.4796571,6.78105286 C23.9258518,6.39437516 24.3088248,6.0395815 24.7296337,5.73076163 C26.6308952,4.33533306 28.7562562,3.81079476 31.0858573,4.10929027 C34.6575398,4.56690242 37.0901416,6.62551939 38.5053687,9.79667743 C40.1279939,13.4324317 40.0564522,17.1461046 38.1846454,20.7044262 C36.9598725,23.0326912 35.0805957,24.6961888 32.4840795,25.3751674 C29.1713562,26.2415028 26.2435495,25.489282 23.7528883,23.1143752 C23.6871161,23.0516395 23.619947,22.9904828 23.5524135,22.9296298 C23.5473121,22.9250142 23.5344977,22.9290225 23.5115412,22.9290225 C23.454575,22.9907257 23.4811754,23.0747175 23.4811147,23.1488707 C23.4794142,25.9014062 23.4794749,28.6540025 23.4806896,31.4065988 C23.4806896,31.4865215 23.4953259,31.5663834 23.5030995,31.6463061 L18.7053079,31.6463061 Z" fill="#BFC9DB"></path>
                    <path d="M53.8147511,12.9115798 C53.7868146,11.8253355 53.9112536,10.7644163 53.7548091,9.70580483 C53.177981,5.80277101 49.4196097,3.9066109 46.0091694,5.33726377 C43.8029747,6.26275169 42.7676842,8.10182415 42.6294592,10.453653 C42.579052,11.3106965 42.572736,12.1714446 42.5775337,13.03031 C42.5828781,13.9898683 42.5102432,14.9497303 42.6212605,15.9094101 C42.9267401,18.5498352 44.949404,20.6187158 47.5784116,20.8734239 C50.5690148,21.1631133 53.3061852,19.0506275 53.6891583,16.0635467 C53.8246504,15.0066965 53.7736966,13.9446233 53.8147511,12.9115798 L53.8147511,12.9115798 Z M49.4354606,0.0658876467 C49.8550548,0.200347274 50.2963909,0.218870393 50.7248519,0.308753071 C54.6373598,1.12966128 58.0699671,4.65822443 58.7939478,8.5956323 C58.9483274,9.43512436 59.0198084,10.2795357 59.0175006,11.1291092 C59.0133101,12.6362231 59.0579478,14.143762 58.9795434,15.6504508 C58.7367994,20.3167586 55.1823039,24.4909587 50.6020527,25.441711 C47.7640679,26.0308069 45.0503398,25.7166427 42.543767,24.1707821 C41.3689154,23.4463155 40.3763191,22.5166371 39.5463012,21.4136916 C39.4615807,21.3010346 39.3863343,21.2094515 39.478464,21.0418932 C40.4564847,19.2637952 40.9235103,17.3452859 41.0154578,15.3280878 C41.1209485,13.0144591 40.8026545,10.7747406 39.8314357,8.65199117 C39.4855696,7.89594424 39.0667042,7.18131622 38.5572273,6.52414023 C38.4316952,6.36222995 38.4248933,6.23615128 38.5145938,6.06203395 C40.2271625,2.73831829 42.9240072,0.774017391 46.616424,0.173261008 C46.7865938,0.145567426 46.9766228,0.19032657 47.1276621,0.0658876467 L49.4354606,0.0658876467 Z" fill="#8F9EBC"></path>
                    <path d="M0,1.64491373 C1.51798482,1.64193789 3.03603037,1.64072326 4.55401518,1.6334962 C4.71264596,1.63276743 4.77611042,1.68736508 4.76171705,1.84411318 C4.75436853,1.92440028 4.76068461,2.005902 4.76068461,2.08685714 C4.76068461,6.86387854 4.75685852,11.6408999 4.76414631,16.4178606 C4.7654824,17.299136 4.8567619,18.1717874 5.14997378,19.0148627 C5.6737833,20.5210048 6.83460594,21.3843037 8.43111663,21.4446101 C8.98984679,21.4656839 9.54353623,21.4461284 10.0855045,21.2941173 C11.4967233,20.8982084 12.222283,19.8822912 12.5662057,18.531136 C12.7338854,17.8723202 12.8038482,17.1982001 12.8041518,16.5189786 C12.8062167,11.6711442 12.8078565,6.82330987 12.7985645,1.9754755 C12.7980179,1.69289165 12.8769689,1.62669427 13.1498965,1.62942719 C14.5160524,1.64333471 15.8824513,1.64048033 17.2487288,1.63118841 C17.4737391,1.62967012 17.557913,1.67127122 17.5575487,1.92361077 C17.5493499,6.87262388 17.5559089,11.8216977 17.5479531,16.7707108 C17.5461919,17.8544044 17.4320166,18.9308709 17.1642512,19.9842595 C16.6129303,22.1532864 15.233717,23.6599752 13.3083451,24.6969055 C11.7129883,25.5561353 9.97624845,25.7706998 8.19171291,25.6938744 C5.72844168,25.5878979 3.60745342,24.7218661 1.93211318,22.8662747 C0.825280883,21.6403478 0.266915114,20.1877709 0.11721187,18.5585866 C0.0920690131,18.2845052 0.112049689,18.0013747 0,17.7387716 L0,1.64491373 Z" fill="#BFC9DB"></path>
                    <path d="M87.9392685,9.05416149 C86.7658137,9.05094272 85.5923589,9.04991028 84.4189041,9.04159006 C84.2717516,9.04049689 84.2170932,9.08780676 84.2333692,9.23167978 C84.2413251,9.30164251 84.2347053,9.373245 84.2347053,9.44405797 C84.2347053,14.5549814 84.232519,19.6659048 84.2407177,24.7768282 C84.2411429,25.0470835 84.182962,25.1304679 83.8985562,25.1271277 C82.5121767,25.1108516 81.1255542,25.1163175 79.7390531,25.123666 C79.5441049,25.1246984 79.4828875,25.07502 79.483009,24.8709013 C79.4885963,16.6327288 79.487989,8.39449551 79.4885963,0.156322981 C79.4885963,0.126200138 79.4944872,0.0960165631 79.4975845,0.0658937198 L84.2346446,0.0658937198 C84.2346446,1.47954175 84.241568,2.89318979 84.2283892,4.30671636 C84.2260207,4.56312491 84.2996273,4.61942305 84.5469869,4.61705452 C85.6776259,4.60600138 86.8085079,4.61741891 87.9392685,4.62075914 L87.9392685,9.05416149 Z" fill="#8F9EBC"></path>
                    <path d="M77.7265253,11.3645532 C77.7265253,13.0649756 77.7361816,14.7654587 77.7231851,16.4657596 C77.7141968,17.6400646 77.6283832,18.8089038 77.337054,19.9535718 C76.7494763,22.2624635 75.2658656,23.8224745 73.178644,24.8425215 C71.5057938,25.6600894 69.7091119,25.8100963 67.8793921,25.6625187 C66.2558559,25.5315208 64.7550581,25.0416602 63.4288028,24.0719597 C61.4331644,22.6128237 60.3835412,20.648705 60.2408828,18.1795429 C60.1490567,16.5913524 60.194241,15.0033441 60.1880464,13.4153358 C60.1769325,10.5813593 60.1889573,7.74726128 60.1782079,4.91328475 C60.1771754,4.65213913 60.2516323,4.60252146 60.4967448,4.60476853 C61.8731644,4.61715776 63.2498269,4.61806874 64.6261858,4.60416121 C64.8831409,4.60161049 64.9384674,4.67278785 64.9379208,4.92160497 C64.9295398,8.7980991 64.9275964,12.674654 64.9354915,16.5511481 C64.9372527,17.4132323 65.0420146,18.2651136 65.3402065,19.083714 C65.8731865,20.546919 67.0174901,21.3782123 68.5764687,21.4448348 C69.5351161,21.4858286 70.4610899,21.3833137 71.274103,20.8231867 C72.2128304,20.1763351 72.6043059,19.2036588 72.8151658,18.1345408 C72.9369932,17.5168403 72.9648083,16.8900301 72.9652941,16.2629769 C72.9683914,12.4876008 72.9697883,8.71228544 72.9604963,4.93703078 C72.9598283,4.67060152 73.0232928,4.60076025 73.2928801,4.60373609 C74.6590968,4.61891898 76.0257386,4.62025507 77.3918945,4.60306805 C77.682252,4.59942415 77.7336309,4.69210048 77.7322948,4.9576795 C77.7219705,7.09324334 77.7265253,9.22892864 77.7265253,11.3645532" fill="#8F9EBC"></path>
                </g>
            </g>
        </g>
    </g>
</svg>