<?xml version="1.0" encoding="UTF-8"?>
<svg width="80px" height="80px" viewBox="0 0 80 80" version="1.1" xmlns="http://www.w3.org/2000/svg" xmlns:xlink="http://www.w3.org/1999/xlink">
    <!-- Generator: Sketch 44.1 (41455) - http://www.bohemiancoding.com/sketch -->
    <title>logo_experience_anideo</title>
    <desc>Created with Sketch.</desc>
    <defs></defs>
    <g stroke="none" stroke-width="1" fill="none" fill-rule="evenodd">
        <g transform="translate(-89.000000, -837.000000)" fill="#FF5A00">
            <g transform="translate(29.000000, 777.000000)">
                <g transform="translate(60.000000, 60.000000)">
                    <path d="M0,80 L80,80 L80,0 L0,0 L0,80 Z M3.174,76.825 L76.826,76.825 L76.826,3.174 L3.174,3.174 L3.174,76.825 Z"></path>
                    <path d="M16.8259,65.6613 L16.8259,64.6823 C16.6569,64.7873 16.4869,64.8713 16.3159,64.9363 C16.1439,65.0013 15.9079,65.0613 15.6089,65.1163 L15.0089,65.2273 C14.4479,65.3263 14.0439,65.4463 13.7989,65.5873 C13.3849,65.8273 13.1769,66.2003 13.1769,66.7053 C13.1769,67.1553 13.3039,67.4803 13.5569,67.6803 C13.8099,67.8803 14.1179,67.9803 14.4809,67.9803 C15.0559,67.9803 15.5859,67.8133 16.0709,67.4813 C16.5559,67.1483 16.8069,66.5423 16.8259,65.6613 Z M16.2679,63.2223 C16.6459,63.0623 16.8349,62.8133 16.8349,62.4743 C16.8349,62.0623 16.6899,61.7773 16.3999,61.6203 C16.1099,61.4633 15.6839,61.3843 15.1219,61.3843 C14.4909,61.3843 14.0449,61.5383 13.7829,61.8463 C13.5949,62.0743 13.4709,62.3823 13.4079,62.7703 L10.8679,62.7703 C10.9239,61.8893 11.1709,61.1663 11.6099,60.5993 C12.3089,59.7123 13.5089,59.2693 15.2099,59.2693 C16.3169,59.2693 17.2999,59.4883 18.1599,59.9253 C19.0199,60.3623 19.4499,61.1873 19.4499,62.4003 L19.4499,67.0193 C19.4499,67.3393 19.4559,67.7273 19.4679,68.1833 C19.4859,68.5283 19.5389,68.7623 19.6249,68.8853 C19.7109,69.0083 19.8399,69.1103 20.0129,69.1903 L20.0129,69.5783 L17.1489,69.5783 C17.0689,69.3743 17.0139,69.1843 16.9829,69.0053 C16.9519,68.8273 16.9279,68.6233 16.9089,68.3953 C16.5439,68.7903 16.1219,69.1253 15.6459,69.4023 C15.0759,69.7293 14.4309,69.8923 13.7129,69.8923 C12.7959,69.8923 12.0389,69.6323 11.4409,69.1113 C10.8429,68.5913 10.5449,67.8533 10.5449,66.8993 C10.5449,65.6613 11.0259,64.7653 11.9869,64.2113 C12.5139,63.9093 13.2899,63.6943 14.3139,63.5643 L15.2159,63.4533 C15.7059,63.3923 16.0569,63.3153 16.2679,63.2223 Z"></path>
                    <path d="M24.2115,64.1279 C24.2115,63.5059 24.2975,62.9949 24.4685,62.5949 C24.7985,61.8369 25.4065,61.4579 26.2925,61.4579 C27.0145,61.4579 27.5035,61.7169 27.7605,62.2339 C27.9005,62.5179 27.9715,62.9239 27.9715,63.4539 L27.9715,69.5779 L30.6685,69.5779 L30.6685,62.7979 C30.6685,61.5359 30.3385,60.6319 29.6795,60.0869 C29.0205,59.5419 28.1725,59.2689 27.1365,59.2689 C26.3085,59.2689 25.6245,59.4719 25.0845,59.8789 C24.7845,60.1069 24.4655,60.4789 24.1285,60.9959 L24.1285,59.5279 L21.5785,59.5279 L21.5785,69.5779 L24.2115,69.5779 L24.2115,64.1279 Z"></path>
                    <polygon points="32.852 69.578 35.522 69.578 35.522 59.509 32.852 59.509"></polygon>
                    <polygon points="32.852 58.309 35.522 58.309 35.522 55.879 32.852 55.879"></polygon>
                    <path d="M40.4976,62.4423 C40.8576,61.8603 41.4226,61.5693 42.1926,61.5693 C42.6976,61.5693 43.1416,61.7293 43.5226,62.0493 C44.1446,62.5793 44.4556,63.4593 44.4556,64.6913 C44.4556,65.5723 44.2616,66.2893 43.8736,66.8433 C43.4856,67.3983 42.9196,67.6753 42.1746,67.6753 C41.4286,67.6753 40.8726,67.3963 40.5066,66.8393 C40.1406,66.2823 39.9566,65.5383 39.9566,64.6083 C39.9566,63.7463 40.1376,63.0243 40.4976,62.4423 M41.4166,69.8923 C42.1306,69.8923 42.7286,69.7563 43.2086,69.4853 C43.6896,69.2143 44.1166,68.7803 44.4926,68.1833 L44.4926,69.5783 L47.0516,69.5783 L47.0516,55.9803 L44.3816,55.9803 L44.3816,60.7843 C44.0856,60.3103 43.7006,59.9393 43.2276,59.6713 C42.7526,59.4033 42.2106,59.2693 41.6016,59.2693 C40.2776,59.2693 39.2196,59.7623 38.4286,60.7473 C37.6366,61.7323 37.2416,63.0843 37.2416,64.8023 C37.2416,66.2923 37.6436,67.5133 38.4466,68.4653 C39.2506,69.4163 40.2406,69.8923 41.4166,69.8923"></path>
                    <path d="M51.995,61.9875 C52.367,61.6045 52.891,61.4125 53.566,61.4125 C54.187,61.4125 54.708,61.5935 55.128,61.9545 C55.548,62.3165 55.781,62.8475 55.829,63.5455 L51.293,63.5455 C51.389,62.8905 51.623,62.3705 51.995,61.9875 M50.114,68.6815 C51.138,69.5065 52.321,69.9195 53.661,69.9195 C55.284,69.9195 56.547,69.4305 57.449,68.4515 C58.029,67.8355 58.354,67.2285 58.425,66.6315 L55.737,66.6315 C55.58,66.9275 55.4,67.1575 55.195,67.3245 C54.821,67.6325 54.333,67.7865 53.733,67.7865 C53.168,67.7865 52.684,67.6595 52.282,67.4075 C51.621,67.0005 51.27,66.2925 51.229,65.2825 L58.562,65.2825 C58.575,64.4135 58.546,63.7465 58.475,63.2845 C58.353,62.4945 58.086,61.8005 57.673,61.2025 C57.216,60.5245 56.636,60.0275 55.933,59.7135 C55.231,59.3985 54.442,59.2415 53.565,59.2415 C52.09,59.2415 50.889,59.7065 49.965,60.6375 C49.04,61.5685 48.578,62.9055 48.578,64.6495 C48.578,66.5115 49.09,67.8555 50.114,68.6815"></path>
                    <path d="M62.7589,62.2284 C63.1749,61.6844 63.7669,61.4124 64.5369,61.4124 C65.3069,61.4124 65.8979,61.6844 66.3109,62.2284 C66.7239,62.7724 66.9299,63.5494 66.9299,64.5574 C66.9299,65.5664 66.7239,66.3444 66.3109,66.8914 C65.8979,67.4384 65.3069,67.7124 64.5369,67.7124 C63.7669,67.7124 63.1749,67.4384 62.7589,66.8914 C62.3439,66.3444 62.1359,65.5664 62.1359,64.5574 C62.1359,63.5494 62.3439,62.7724 62.7589,62.2284 M64.5469,69.9194 C66.2769,69.9194 67.5669,69.3954 68.4169,68.3464 C69.2669,67.2974 69.6919,66.0344 69.6919,64.5574 C69.6919,63.1054 69.2669,61.8474 68.4169,60.7824 C67.5669,59.7184 66.2769,59.1854 64.5469,59.1854 C62.8159,59.1854 61.5259,59.7184 60.6759,60.7824 C59.8259,61.8474 59.4009,63.1054 59.4009,64.5574 C59.4009,66.0344 59.8259,67.2974 60.6759,68.3464 C61.5259,69.3954 62.8159,69.9194 64.5469,69.9194"></path>
                </g>
            </g>
        </g>
    </g>
</svg>