<svg width="120" height="40" viewBox="0 0 120 40" xmlns="http://www.w3.org/2000/svg"><title>logo_ixda</title><g fill="none" fill-rule="evenodd"><path d="M21.004 38.525l-.003.004c.144-.038.214-.165.309-.26 3.173-3.166 6.344-6.336 9.516-9.504.58-.58.961-.575 1.55.015l9.564 9.564c.096.096.204.18.306.27.238.33.555.452.966.447 1.334-.018 2.668-.006 4.002-.007.684 0 .97-.289.97-.982 0-1.334-.008-2.668.005-4.002.004-.395-.107-.707-.432-.936-.082-.093-.159-.191-.246-.279-3.187-3.193-6.376-6.385-9.564-9.577-.647-.648-.65-.995-.01-1.635 3.17-3.174 6.343-6.346 9.513-9.522.09-.091.235-.15.24-.311.351-.192.502-.486.5-.886-.007-1.337-.002-2.673-.003-4.01 0-.78-.28-1.063-1.058-1.064-1.286-.001-2.573.008-3.86-.005-.432-.004-.784.111-1.03.48-.112.099-.227.194-.332.299-3.182 3.176-6.362 6.354-9.543 9.532-.573.572-.963.573-1.528.009l-9.627-9.607c-.087-.088-.185-.165-.278-.247-.221-.33-.53-.466-.925-.464-1.35.007-2.7-.002-4.05.005-.654.004-.959.321-.96.973-.002 1.325.012 2.65-.007 3.975-.007.442.125.778.491 1.022.074.084.143.172.222.251 3.19 3.202 6.383 6.403 9.574 9.604.596.598.595.974-.01 1.58-3.16 3.161-6.322 6.323-9.48 9.486-.095.095-.222.166-.262.307l.002-.002-.09.08c-.329.222-.449.532-.445.927.012 1.36.002 2.719.006 4.078.001.61.312.92.922.92 1.359.003 2.718-.009 4.078.007.398.005.703-.116.929-.44.047-.014.08-.04.078-.095m83.047-29.302l-.093.016c-.044.116-.093.23-.132.347-1.73 5.224-3.456 10.45-5.196 15.672-.116.35-.012.372.294.37 3.375-.009 6.749-.005 10.123-.005h.43l-5.426-16.4zM120 39.05c-1.9.001-3.8-.003-5.699.01-.257.003-.33-.107-.404-.321-.88-2.562-1.773-5.118-2.649-7.681-.098-.288-.217-.4-.54-.398-4.475.013-8.95.012-13.423 0-.299 0-.432.08-.53.368-.868 2.552-1.76 5.096-2.624 7.65-.104.306-.245.386-.552.383-1.725-.015-3.45-.007-5.174-.007-.422 0-.423-.001-.281-.39l8.664-23.821c1.566-4.305 3.134-8.609 4.687-12.917.113-.312.254-.407.584-.401 1.299.022 2.6.018 3.899.002.302-.004.446.073.557.378 4.435 12.225 8.882 24.446 13.33 36.666.04.113.047.246.155.329v.15zM0 1.55c1.812-.005 3.624-.008 5.436-.02.198-.001.274.063.25.257-.01.074-.002.15-.002.225 0 12.2-.001 24.399.008 36.598 0 .354-.071.459-.443.454C3.5 39.04 1.75 39.05 0 39.05V1.55z" fill="#515F67"/><path d="M31.95.875c1.156 1.15 2.313 2.297 3.467 3.45.529.528.531.95.005 1.48a788.438 788.438 0 0 1-3.097 3.097c-.518.516-.94.517-1.45.008-1.043-1.04-2.085-2.081-3.124-3.125-.5-.501-.506-.93-.017-1.421a1031.3 1031.3 0 0 1 3.15-3.15c.122-.122.26-.227.391-.339h.675z" fill="#52BBBD"/><path d="M47.69 11.81c-.005.16-.15.22-.24.311-3.17 3.176-6.342 6.348-9.514 9.521-.64.64-.636.988.011 1.636 3.188 3.192 6.377 6.384 9.564 9.577.087.088.164.186.246.279-.134-.026-.268-.075-.402-.075-1.445-.005-2.89-.011-4.335.002-.453.004-.796.317-.797.733-.007 1.606-.052 3.213.023 4.82-.102-.09-.21-.174-.306-.27l-9.564-9.564c-.589-.59-.97-.594-1.55-.015-3.172 3.168-6.343 6.338-9.516 9.505-.095.094-.165.221-.309.259l-.005-4.45c0-.71-.312-1.023-1.023-1.025l-4.45-.004c.041-.141.168-.212.262-.307l9.48-9.487c.606-.605.607-.98.011-1.579l-9.574-9.604c-.079-.079-.148-.167-.222-.25 1.522.004 3.044.01 4.565.012.655.001.95-.3.95-.967.003-1.26 0-2.52.003-3.779a3.382 3.382 0 0 0-.067-.778c.093.082.19.16.278.247l9.627 9.607c.565.564.955.563 1.528-.01 3.181-3.177 6.361-6.355 9.543-9.531.105-.105.22-.2.331-.3-.083.521-.071 1.046-.07 1.57.002.911-.003 1.823.003 2.735.001.198.016.4.057.594.076.353.302.6.668.602 1.598.008 3.196-.008 4.794-.015" fill="#52BBBD"/><path d="M47.69 11.81c-1.598.007-3.196.023-4.794.015-.366-.001-.592-.249-.668-.602a2.94 2.94 0 0 1-.057-.594c-.006-.912-.001-1.824-.003-2.735-.001-.524-.013-1.049.07-1.57.247-.368.599-.483 1.032-.479 1.286.013 2.573.004 3.86.005.777.001 1.057.284 1.057 1.064 0 1.337-.004 2.673.003 4.01.002.4-.149.694-.5.886M15.524 33.05l4.45.004c.71.002 1.021.315 1.022 1.025l.005 4.45.003-.004c-.056.007-.072.047-.078.095-.226.324-.531.445-.93.44-1.359-.016-2.718-.004-4.077-.007-.61 0-.92-.31-.922-.92-.004-1.36.006-2.718-.006-4.078-.004-.395.116-.705.445-.928.047-.007.086-.023.09-.08l-.002.003M20.93 6.31c.06.257.07.517.068.779-.004 1.26 0 2.52-.002 3.78-.001.666-.296.967-.95.966-1.522-.002-3.044-.008-4.566-.013-.366-.244-.498-.58-.491-1.022.02-1.325.005-2.65.007-3.975.001-.652.306-.97.96-.973 1.35-.007 2.7.002 4.05-.005.395-.002.704.135.925.464m21.315 32.303c-.075-1.607-.03-3.213-.023-4.82.001-.416.344-.729.797-.733 1.445-.013 2.89-.007 4.335-.002.134 0 .268.049.402.075.325.229.436.541.432.936-.013 1.334-.004 2.668-.005 4.002-.001.693-.286.981-.97.982-1.334 0-2.668-.01-4.002.007-.41.005-.728-.117-.966-.447m35.996-15.437c-.01 1.4-.017 2.8-.225 4.188-.478 3.194-2.835 5.586-6.028 6.136-.68.116-1.362.173-2.05.172-2.138-.002-4.275-.01-6.412.009-.373.003-.443-.108-.442-.459.013-4.311.009-8.623.009-12.935 0-4.324.003-8.648-.007-12.972-.001-.315.053-.425.401-.421 2.312.024 4.624.006 6.936.033 1.78.022 3.444.44 4.814 1.663 1.673 1.494 2.664 3.331 2.843 5.596.236 2.995.18 5.993.161 8.99m5.673-7.06c-.02-1.51-.072-3.026-.406-4.508-1.298-5.75-6.32-9.92-12.243-10.04-4.472-.09-8.948-.025-13.422-.043-.35-.002-.455.066-.455.44.014 6.11.01 12.223.01 18.334 0 6.124.002 12.248-.008 18.372 0 .316.085.39.392.389 4.2-.01 8.4-.003 12.599-.01 1.547-.002 3.065-.231 4.526-.746 4.062-1.432 6.81-4.217 8.287-8.235.548-1.489.593-3.084.663-4.658.14-3.097.097-6.196.057-9.294" fill="#515F67"/></g></svg>