<?xml version="1.0" encoding="UTF-8"?>
<svg width="80px" height="65px" viewBox="0 0 80 65" version="1.1" xmlns="http://www.w3.org/2000/svg" xmlns:xlink="http://www.w3.org/1999/xlink">
    <!-- Generator: Sketch 43.2 (39069) - http://www.bohemiancoding.com/sketch -->
    <title>logo_cnbc</title>
    <desc>Created with Sketch.</desc>
    <defs></defs>
    <g id="Page-1" stroke="none" stroke-width="1" fill="none" fill-rule="evenodd">
        <g id="Home-long" transform="translate(-89.000000, -845.000000)">
            <g id="card" transform="translate(29.000000, 777.000000)">
                <g id="logo_cnbc" transform="translate(60.000000, 68.000000)">
                    <path d="M39.9861341,6.21523538 C38.7393438,3.10219686 35.7019686,-0.259857347 30.0131812,0.201997147 C22.766505,0.98978602 20.5082454,7.93449358 21.6035949,12.0774893 C18.7173181,10.1231384 13.8097004,9.26379458 9.52610556,12.933067 C3.99526391,18.4772611 6.95366619,25.9751213 9.99412268,27.7735806 C6.6432525,27.4633951 1.34727532,29.7275892 0.175691869,35.6505563 C-1.07064194,43.0043937 4.53529244,47.2914123 9.99412268,47.2914123 L70.5262767,47.2914123 C76.8386305,47.2914123 80.3408274,41.8305278 79.9480171,36.6803994 C79.3287874,29.95903 73.1781455,27.3801997 69.8230528,27.9327817 C72.6261341,26.3688445 76.3697004,19.0225392 70.6772611,13.2472468 C66.1585735,8.94915835 60.3982311,10.5130956 58.3727817,12.3876748 C59.4645934,8.79714693 57.6741227,1.37506419 50.3452782,0.201198288 C49.8385735,0.144479315 49.3508131,0.114122682 48.8859914,0.114122682 C43.2913552,0.114921541 40.7756348,4.20462197 39.9861341,6.21523538" id="Fill-1" fill="#FFFFFF"></path>
                    <path d="M10.5341512,14.103281 C7.33837375,16.996291 6.17523538,23.5514979 11.9362625,27.3835093 L34.9195435,43.1517261 L23.7756919,17.6209986 C21.4405136,11.5963481 15.0521541,10.2825678 10.5341512,14.103281" id="Fill-4" fill="#F37021"></path>
                    <path d="M30.3184593,1.69027104 C26.5825392,1.76639087 20.9726106,6.21523538 23.4691583,13.0087304 L34.9949786,40.1911555 L39.0450785,11.6004565 C39.9822539,4.49631954 34.6060485,1.21689016 30.3184593,1.69027104" id="Fill-6" fill="#CC004C"></path>
                    <path d="M40.8436519,10.5100143 L43.0230528,10.5100143 C43.0230528,10.5100143 44.1868759,10.5100143 44.3452782,11.0590585 C43.4876462,11.7594294 41.1532668,11.8471897 41.463224,15.5882454 L45.1269044,40.1872753 L56.57398,12.9335235 C58.9154351,6.84827389 54.0007418,1.76616262 49.6411412,1.61084165 C49.4375464,1.59623395 49.2331526,1.58436519 49.0215692,1.58436519 C45.1086448,1.58425107 40.6245364,4.42807418 40.8436519,10.5100143" id="Fill-8" fill="#6460AA"></path>
                    <path d="M56.1131526,17.8525535 L45.2861056,43.0769757 L68.2626534,27.2255635 C73.559087,23.468873 72.7048787,17.4628245 69.7400856,14.4940371 C68.4971755,13.096719 66.2150642,12.0173466 63.7976034,12.0173466 C60.9415692,12.016776 57.8850214,13.5316405 56.1131526,17.8525535" id="Fill-10" fill="#0089D0"></path>
                    <path d="M65.6900884,30.8146077 L44.1123424,45.8864479 L70.6807874,45.8864479 C76.1316291,45.8864479 79.6345107,40.2663623 78.0773067,35.1089301 C77.0343395,31.8671612 73.9486904,29.3224536 70.3671783,29.3188017 C68.8596177,29.3193723 67.260873,29.7734665 65.6900884,30.8146077" id="Fill-12" fill="#0DB14B"></path>
                    <path d="M9.91503566,45.8864479 L36.0914693,45.8864479 L14.5082454,30.8146077 C9.52199715,27.6109558 3.91537803,29.485535 1.89129815,34.8019401 C0.175577746,40.8877603 4.45940086,45.8864479 9.91503566,45.8864479" id="Fill-14" fill="#FCB711"></path>
                    <path d="M0.0843937233,56.7942939 C0.0843937233,59.3611412 2.18276748,64.0334379 10.1950927,64.0334379 C17.5822539,64.0334379 19.915378,60.643766 19.915378,59.0895292 L14.1963481,59.0895292 C14.1963481,59.0895292 13.9247361,61.1429387 10.698602,61.1429387 C7.47041369,61.1429387 6.59737518,58.448388 6.59737518,56.890271 C6.59737518,55.3380884 7.47041369,52.7890442 10.698602,52.7890442 C13.9247361,52.7890442 14.1963481,54.576776 14.1963481,54.576776 L19.915378,54.576776 C19.915378,53.0207133 18.2035378,49.6788588 10.1950927,49.6788588 C2.18276748,49.6788588 0.0843937233,54.6548359 0.0843937233,56.7942939" id="Fill-16" fill="#292526"></path>
                    <path d="M60.0622539,56.7942939 C60.0622539,59.3611412 62.162796,64.0334379 70.1729529,64.0334379 C77.5594294,64.0334379 79.8934665,60.643766 79.8934665,59.0895292 L74.1784308,59.0895292 C74.1784308,59.0895292 73.9055635,61.1429387 70.6786305,61.1429387 C67.4500999,61.1429387 66.5761484,58.448388 66.5761484,56.890271 C66.5761484,55.3380884 67.4500999,52.7890442 70.6786305,52.7890442 C73.9055635,52.7890442 74.1784308,54.576776 74.1784308,54.576776 L79.8934665,54.576776 C79.8934665,53.0207133 78.1834522,49.6788588 70.1729529,49.6788588 C62.1629101,49.6788588 60.0622539,54.6548359 60.0622539,56.7942939" id="Fill-18" fill="#292526"></path>
                    <polygon id="Fill-20" fill="#292526" points="35.5455064 49.9185164 35.5455064 58.6079315 28.8897575 49.9185164 21.4026248 49.9185164 21.4026248 63.681826 26.5355207 63.681826 26.5355207 54.8925535 33.0747504 63.681826 40.6787447 63.681826 40.6787447 49.9185164"></polygon>
                    <path d="M56.1941797,56.3647361 C57.1286163,56.3647361 59.0823966,55.28 59.0823966,53.1785449 C59.0823966,50.1861341 53.5101284,49.9185164 52.6553495,49.9185164 L42.3886448,49.9185164 L42.3886448,63.681826 L52.6553495,63.681826 C57.5932097,63.681826 59.576776,62.121883 59.576776,59.5169187 C59.576776,56.9119544 56.1941797,56.3647361 56.1941797,56.3647361 L56.1941797,56.3647361 Z M47.7560628,52.595378 L51.8770328,52.595378 L51.8770328,52.6011983 C52.5752354,52.6011983 53.141398,53.0605421 53.141398,53.6259058 C53.141398,54.1934379 52.5752354,54.6487874 51.8770328,54.6487874 L51.8770328,54.6549501 L47.7560628,54.6549501 L47.7560628,52.595378 Z M51.9936662,60.3937233 L51.9936662,60.4118688 L47.7168046,60.4118688 L47.7168046,57.8847361 L51.9936662,57.8847361 L51.9936662,57.8929529 C52.9068759,57.8929529 53.6449073,58.4542083 53.6449073,59.1453352 C53.6449073,59.8347504 52.9068759,60.3937233 51.9936662,60.3937233 L51.9936662,60.3937233 Z" id="Fill-22" fill="#292526"></path>
                </g>
            </g>
        </g>
    </g>
</svg>