<svg width="139" height="36" viewBox="0 0 139 36" xmlns="http://www.w3.org/2000/svg"><title>logo_lifehacker</title><path d="M0 35.286h5V1.63l-5-.345zm13.902-.39H8.57V10.544l5.332.303v24.049zM11.236 3.134c1.677 0 3.053 1.387 3.053 3.077s-1.376 3.076-3.053 3.076-3.053-1.386-3.053-3.076c0-1.69 1.376-3.077 3.053-3.077zM26.629 15.44v5.373H22.63v14.06h-5.332V8.16c0-4.073 3.354-7.757 7.31-7.757 1.333 0 2.408.39 2.666.564l-.215 5.156h-2.451c-1.075 0-1.978.91-1.978 2.037v7.28h3.999zm7.488 4.68h3.999v-2.513c0-1.127-.903-2.037-1.978-2.037-1.118 0-2.02.91-2.02 2.037v2.513zm-5.332-2.513c0-4.073 3.268-7.41 7.353-7.41 4.042 0 7.31 3.337 7.31 7.41v5.2a2.662 2.662 0 0 1-2.666 2.686h-6.665v2.34c0 1.126.903 2.036 2.021 2.036h5.117l.172 4.55-4.816.737c-4.644.78-7.826-3.25-7.826-7.323V17.607zm19.222 17.289V.968h3.44V11.28c.946-.303 2.45-.433 3.483-.433 3.655 0 6.492 3.337 6.492 7.107v16.942H58.07V17.954a3.334 3.334 0 0 0-3.354-3.337h-3.268v20.279h-3.44zm26-6.543v-5.85h-3.311c-1.849 0-3.31 1.473-3.31 3.336v2.514c0 1.863 1.461 3.38 3.31 3.38s3.31-1.517 3.31-3.38zm0-10.963c0-1.95-.903-3.51-3.354-3.25h.043c-1.376.044-3.139.217-4.6.304-.044-1.257-.087-1.734-.13-2.687 1.161-.433 2.838-.867 4.257-.91 4.3-.086 7.138 3.423 7.138 7.193v10.313c0 3.726-2.967 6.803-6.665 6.803s-6.75-3.077-6.75-6.803V26.23c0-3.727 2.536-6.543 6.75-6.543 1.59 0 2.408.173 3.31.433v-2.73zm12.987-6.543c3.698 0 6.75 3.033 6.75 6.803v.433c-1.333.044-2.408.044-3.396.087v-.52c0-1.82-1.505-3.336-3.354-3.336-1.806 0-3.268 1.516-3.268 3.336v10.833c0 1.906 1.462 3.336 3.268 3.336 1.806 0 3.31-1.386 3.354-3.207 1.677.13 3.267.217 3.396.217-.172 3.597-3.181 6.457-6.75 6.457-3.698 0-6.708-3.034-6.708-6.803V17.65c0-3.77 3.01-6.803 6.708-6.803m20.303 24.049l-6.536-11.483c-.645-1.127-.645-1.256.129-2.6l5.762-9.619h3.913l-6.493 11.092 7.009 12.61h-3.784zm-10.836 0h3.44V1.054h-3.44v33.842zm18.784-13.563h6.622v-3.64c0-1.863-1.505-3.38-3.311-3.38-1.849 0-3.311 1.517-3.311 3.38v3.64zm-3.44-3.64c0-3.77 3.01-6.846 6.75-6.846 3.698 0 6.709 3.077 6.709 6.846v5.33c0 .997-.775 1.733-1.72 1.733h-8.299v3.683c0 1.864 1.462 3.38 3.31 3.38h4.344c.043 1.127.086 1.907.171 2.687l-4.127.65c-4.214.736-7.138-2.947-7.138-6.717V17.693zm19.915 17.203h-3.44v-16.9c0-3.77 2.924-7.279 7.224-7.192 1.462.043 2.365.39 3.354.866a192.46 192.46 0 0 1-.129 2.687l-3.74-.087c-1.806 0-3.268 1.95-3.268 3.727v16.899z" fill="#94B330" fill-rule="evenodd"/></svg>