<svg width="110" height="41" viewBox="0 0 110 41" xmlns="http://www.w3.org/2000/svg"><title>logo_upout</title><g fill="none" fill-rule="evenodd"><path d="M97.158 15.044c0-2.67-.006-5.339.007-8.008.002-.332-.062-.448-.425-.443-1.708.021-3.416.02-5.124 0-.337-.003-.416.084-.415.417.011 4.72.01 9.438.006 14.157-.001.784-.036 1.568-.188 2.34-.264 1.336-.753 2.552-1.926 3.36-1.017.7-2.174.829-3.372.778-1.95-.083-3.38-1.123-4.046-2.952-.372-1.023-.503-2.088-.506-3.165a3462.3 3462.3 0 0 1 .003-14.537c.001-.311-.068-.4-.39-.397-1.72.017-3.44.016-5.161 0-.306-.002-.4.06-.398.386.013 3.543-.002 7.085.012 10.628.008 1.985-.049 3.97.066 5.955.178 3.087 1.49 5.542 3.985 7.366 1.658 1.212 3.534 1.824 5.563 1.988 2.287.184 4.533-.003 6.624-1.025 2.61-1.275 4.464-3.225 5.198-6.111.364-1.431.472-2.892.483-4.36.016-2.125.004-4.251.004-6.377" fill="#FEFEFE"/><path d="M28.996 19.404a10.36 10.36 0 0 0 .387 2.92c1.077 3.763 4.274 5.84 8.135 5.228 2.305-.366 3.857-1.8 4.914-3.793 1.097-2.07 1.164-4.283.727-6.532-.312-1.604-1.043-3.002-2.222-4.143-1.384-1.339-3.057-1.916-4.971-1.84-2.084.083-3.817.877-5.146 2.505-1.346 1.648-1.805 3.58-1.824 5.655zm-5.614 20.993c.003-.165.01-.329.01-.493.001-10.942.003-21.884-.007-32.826 0-.369.067-.492.468-.486 1.707.026 3.415.019 5.123.004.298-.002.389.08.38.38-.02.752-.006 1.505-.006 2.34.557-.484 1.036-.928 1.562-1.314 2.377-1.744 5.033-2.4 7.945-2.027 4.465.572 7.506 3.146 9.275 7.11 2.028 4.544 1.939 9.186-.401 13.634-1.531 2.91-3.88 4.99-7.126 5.839-4.14 1.083-7.8.142-10.914-2.826a12.013 12.013 0 0 0-.25-.231c-.007-.006-.023-.001-.052-.001-.07.077-.038.182-.038.275-.002 3.44-.002 6.881 0 10.322 0 .1.018.2.028.3h-5.997z" fill="#F89828"/><path d="M67.268 16.978c-.034-1.358.121-2.684-.074-4.007-.722-4.879-5.42-7.249-9.683-5.46-2.757 1.156-4.051 3.455-4.224 6.395a50.12 50.12 0 0 0-.065 3.22c.007 1.2-.084 2.4.055 3.6.381 3.3 2.91 5.886 6.196 6.205 3.738.362 7.16-2.279 7.638-6.013.17-1.32.106-2.648.157-3.94zM61.794.921c.525.168 1.076.191 1.612.304 4.89 1.026 9.181 5.437 10.086 10.358.193 1.05.283 2.105.28 3.167-.005 1.884.05 3.768-.048 5.652-.303 5.833-4.746 11.05-10.471 12.239-3.548.736-6.94.344-10.073-1.589-1.469-.905-2.71-2.067-3.747-3.446-.106-.14-.2-.255-.085-.465 1.223-2.222 1.806-4.62 1.921-7.142.132-2.892-.266-5.692-1.48-8.345a13.453 13.453 0 0 0-1.592-2.66c-.157-.202-.166-.36-.054-.578 2.141-4.154 5.512-6.61 10.128-7.36.212-.035.45.02.639-.135h2.884z" fill="#2F3767"/><path d="M0 2.895c1.897-.004 3.795-.005 5.693-.014.198-.001.277.067.26.263-.01.1-.002.202-.002.303 0 5.972-.005 11.943.004 17.914.002 1.102.116 2.192.482 3.246.655 1.883 2.106 2.962 4.102 3.038.698.026 1.39.001 2.068-.189 1.764-.494 2.67-1.764 3.1-3.453.21-.824.298-1.666.298-2.516.003-6.06.005-12.12-.007-18.179 0-.353.098-.436.44-.432 1.707.017 3.415.013 5.123.002.281-.002.386.05.386.365-.01 6.187-.002 12.373-.012 18.56-.002 1.354-.145 2.7-.48 4.016-.689 2.711-2.413 4.595-4.82 5.89-1.994 1.075-4.165 1.343-6.395 1.247-3.08-.132-5.73-1.215-7.825-3.534C1.032 27.889.334 26.073.147 24.037.115 23.694.14 23.34 0 23.012V2.895z" fill="#F89828"/><path d="M109.924 12.156c-1.467-.004-2.934-.005-4.4-.015-.184-.002-.253.058-.232.237.01.088.001.177.001.266 0 6.388-.002 12.777.008 19.166 0 .338-.072.442-.428.438a305.15 305.15 0 0 0-5.2-.005c-.243.002-.32-.06-.32-.316.008-10.297.007-20.595.008-30.893 0-.037.007-.075.011-.113h5.921c0 1.767.009 3.534-.008 5.301-.002.32.09.391.399.388 1.413-.014 2.827 0 4.24.005v5.541zm-12.766 2.888c0 2.126.012 4.252-.004 6.377-.011 1.468-.119 2.929-.483 4.36-.734 2.886-2.589 4.836-5.198 6.11-2.09 1.023-4.337 1.21-6.624 1.026-2.03-.164-3.905-.776-5.563-1.988-2.495-1.824-3.807-4.28-3.985-7.366-.115-1.985-.058-3.97-.066-5.955-.014-3.543.001-7.085-.012-10.628-.002-.326.092-.388.398-.385 1.72.015 3.441.016 5.162-.001.32-.003.39.086.39.397a3462.3 3462.3 0 0 0-.004 14.537c.003 1.077.134 2.142.506 3.165.666 1.83 2.097 2.869 4.046 2.952 1.198.051 2.355-.077 3.372-.777 1.173-.809 1.662-2.025 1.926-3.361.152-.772.187-1.556.188-2.34.003-4.719.005-9.438-.006-14.157-.001-.333.078-.42.415-.417 1.708.02 3.416.021 5.124 0 .363-.005.427.11.425.443-.013 2.67-.007 5.339-.007 8.008" fill="#2F3767"/></g></svg>