<?xml version="1.0" encoding="UTF-8"?>
<svg width="104px" height="19px" viewBox="0 0 104 19" version="1.1" xmlns="http://www.w3.org/2000/svg" xmlns:xlink="http://www.w3.org/1999/xlink">
    <!-- Generator: Sketch 43.2 (39069) - http://www.bohemiancoding.com/sketch -->
    <title>logo_sony</title>
    <desc>Created with Sketch.</desc>
    <defs></defs>
    <g stroke="none" stroke-width="1" fill="none" fill-rule="evenodd">
        <g transform="translate(-62.000000, -865.000000)" fill="#8F9EBC">
            <g transform="translate(29.000000, 777.000000)">
                <g transform="translate(33.000000, 88.000000)">
                    <path d="M93.1705968,7.80672941 L96.4135059,4.34469733 C96.6009283,4.0905369 96.6949176,3.91256898 96.6949176,3.76018396 C96.6949176,3.50602353 96.4757947,3.40424813 95.7883936,3.40424813 L94.9702973,3.40424813 L94.9702973,1.21913583 L103.82587,1.21913583 L103.82587,3.40424813 L102.661848,3.40424813 C101.31819,3.40424813 101.067923,3.60724278 99.1936984,5.97087914 L94.0637733,11.5101305 L94.0637733,14.8904086 C94.0637733,15.7552214 94.5014631,16.0594353 95.7511316,16.0594353 L97.6882011,16.0594353 L97.6882011,18.1683551 L85.2855059,18.1683551 L85.2855059,16.0594353 L87.2225754,16.0594353 C88.4716877,16.0594353 88.9093775,15.7552214 88.9093775,14.8904086 L88.9093775,11.5101305 L82.867923,4.82743529 C81.8690781,3.65896471 82.0070032,3.40424813 79.2273668,3.40424813 L79.2273668,1.21913583 L90.4443508,1.21913583 L90.4443508,3.40424813 L89.6451636,3.40424813 C88.833185,3.40424813 88.4889283,3.55663316 88.4889283,3.86195936 C88.4889283,4.11611979 88.7391957,4.31967059 88.8954738,4.52210909 L91.9520727,7.85344599 C92.3141262,8.23107166 92.7568214,8.28001283 93.1705968,7.80672941"></path>
                    <path d="M17.914139,1.21813476 L20.6198075,1.21813476 L20.6198075,7.31687273 L18.1210267,7.31687273 C17.8996791,6.09779251 17.1371979,5.62339679 16.4403422,4.9838246 C15.1851123,3.83037005 12.4672086,2.86989947 10.1803209,2.86989947 C7.22994652,2.86989947 4.73950802,3.78532193 4.73950802,5.13120428 C4.73950802,8.86741818 21.6158717,5.89424171 21.6158717,12.9584556 C21.6158717,16.6435037 18.0008984,18.7018139 11.5089626,18.7018139 C9.2615615,18.7018139 5.86014973,18.003846 3.85411765,16.9388193 C3.22455615,16.5750973 2.95760428,17.2819636 2.84025668,18.1679102 L0.0656256684,18.1679102 L0.0656256684,11.8656214 L2.57497326,11.8656214 C3.12834225,13.4673326 3.89082353,13.7971294 4.59212834,14.4328086 C5.80898396,15.5506695 8.70485561,16.3643166 11.3610267,16.3381775 C15.365861,16.2986909 16.7434439,15.4233112 16.7434439,14.1525091 C16.7434439,12.8822631 15.3814332,12.577493 10.9922995,11.8912043 L7.26665241,11.2816642 C3.06160428,10.645985 0,9.70553583 0,6.35139679 C0,2.86989947 3.87302674,0.684231016 9.99623529,0.684231016 C12.5767701,0.684231016 14.7362995,1.02904385 16.8079572,2.20085134 C17.383016,2.57291551 17.921369,2.61796364 17.914139,1.21813476"></path>
                    <path d="M70.7166631,11.4285989 L70.7700535,4.65024599 C70.7700535,3.76151872 70.307893,3.45619251 68.9859251,3.45619251 L67.4320428,3.45619251 L67.4320428,1.34727273 L77.3153797,1.34727273 L77.3153797,3.45619251 L76.0267807,3.45619251 C74.7037005,3.45619251 74.240984,3.76151872 74.240984,4.65024599 L74.240984,18.296492 L70.3724064,18.267016 L57.846246,6.40434225 L57.846246,15.0185455 C57.846246,15.8828021 58.3089626,16.2125989 59.6309305,16.2125989 L61.3499893,16.2125989 L61.3499893,18.296492 L51.0873583,18.296492 L51.0873583,16.2125989 L52.787508,16.2125989 C54.1094759,16.2125989 54.5721925,15.8828021 54.5721925,15.0185455 L54.5721925,4.65024599 C54.5721925,3.76151872 54.1094759,3.45619251 52.787508,3.45619251 L51.0873583,3.45619251 L51.0873583,1.34727273 L59.9612834,1.34727273 L70.7166631,11.4285989 Z"></path>
                    <path d="M37.4341604,16.3627037 C33.0745027,16.3627037 30.568492,13.8466824 30.568492,9.50148449 C30.568492,5.25750588 33.183508,2.74148449 37.651615,2.74148449 C41.9384171,2.74148449 44.444984,5.30867166 44.444984,9.67945241 C44.444984,13.9484578 41.9022674,16.3627037 37.4341604,16.3627037 M37.6132406,0.556372193 C29.7370481,0.556372193 24.8067807,4.03786952 24.8067807,9.62828663 C24.8067807,15.1180406 29.6686417,18.5733989 37.372984,18.5733989 C45.5567273,18.5733989 50.3168128,15.1686503 50.3168128,9.34909947 C50.3168128,4.11461818 45.1796578,0.556372193 37.6132406,0.556372193"></path>
                </g>
            </g>
        </g>
    </g>
</svg>