<?xml version="1.0" encoding="UTF-8"?>
<svg width="108px" height="78px" viewBox="0 0 108 78" version="1.1" xmlns="http://www.w3.org/2000/svg" xmlns:xlink="http://www.w3.org/1999/xlink">
    <!-- Generator: Sketch 43.2 (39069) - http://www.bohemiancoding.com/sketch -->
    <title>logo_experience_toc</title>
    <desc>Created with Sketch.</desc>
    <defs></defs>
    <g stroke="none" stroke-width="1" fill="none" fill-rule="evenodd">
        <g transform="translate(-76.000000, -838.000000)" fill="#231F1F">
            <g transform="translate(29.000000, 777.000000)">
                <g transform="translate(47.000000, 61.000000)">
                    <path d="M66.9996,0.0004 L35.9096,28.9464 L34.0006,28.9464 L34.0006,0.1504 L-0.0004,29.7624 L-0.0004,77.9454 L107.9996,77.9454 L107.9996,1.9464 L83.9996,1.9464 L83.9996,28.9464 L66.9996,28.9464 L66.9996,0.0004 Z M87.0006,31.9454 L87.0006,4.9454 L105.0006,4.9454 L105.0006,74.9464 L2.9996,74.9464 L2.9996,31.1274 L30.9996,6.7414 L30.9996,31.9454 L37.0896,31.9454 L63.9996,6.8914 L63.9996,31.9454 L87.0006,31.9454 Z"></path>
                    <path d="M18.1895,52.4927 C18.1895,54.8267 18.9735,56.7447 20.5405,58.2487 C22.0995,59.7527 23.8985,60.5047 25.9405,60.5047 C28.1555,60.5047 30.0235,59.7387 31.5455,58.2077 C33.0675,56.6587 33.8295,54.7717 33.8295,52.5477 C33.8295,50.2967 33.0775,48.4097 31.5735,46.8887 C30.0785,45.3567 28.2285,44.5917 26.0225,44.5917 C23.8265,44.5917 21.9715,45.3567 20.4585,46.8887 C18.9455,48.4007 18.1895,50.2687 18.1895,52.4927 M14.9765,52.4517 C14.9765,49.4807 16.0655,46.9297 18.2445,44.7967 C20.4135,42.6637 23.0195,41.5967 26.0645,41.5967 C29.0715,41.5967 31.6505,42.6727 33.8015,44.8237 C35.9615,46.9747 37.0425,49.5577 37.0425,52.5747 C37.0425,55.6097 35.9575,58.1847 33.7885,60.2997 C31.6095,62.4237 28.9805,63.4847 25.8995,63.4847 C23.1745,63.4847 20.7275,62.5417 18.5585,60.6547 C16.1705,58.5677 14.9765,55.8337 14.9765,52.4517"></path>
                    <path d="M44.2329,51.5776 L45.4219,51.5776 C48.3479,51.5776 49.8109,50.4516 49.8109,48.2006 C49.8109,46.0216 48.3019,44.9326 45.2859,44.9326 L44.2329,44.9326 L44.2329,51.5776 Z M44.2329,54.5296 L44.2329,63.1016 L41.0479,63.1016 L41.0479,41.9936 L44.6569,41.9936 C46.4249,41.9936 47.7599,42.1166 48.6629,42.3626 C49.5739,42.6086 50.3759,43.0736 51.0689,43.7576 C52.2809,44.9416 52.8869,46.4366 52.8869,48.2416 C52.8869,50.1736 52.2399,51.7046 50.9459,52.8346 C49.6509,53.9656 47.9059,54.5296 45.7099,54.5296 L44.2329,54.5296 Z"></path>
                    <polygon points="67.8154 44.9878 59.3534 44.9878 59.3534 50.0598 67.5694 50.0598 67.5694 53.0528 59.3534 53.0528 59.3534 60.1078 67.8154 60.1078 67.8154 63.1018 56.1684 63.1018 56.1684 41.9938 67.8154 41.9938"></polygon>
                    <polygon points="71.999 63.1021 71.999 40.5581 87.393 56.6631 87.393 41.9941 90.578 41.9941 90.578 64.3871 75.185 48.3241 75.185 63.1021"></polygon>
                </g>
            </g>
        </g>
    </g>
</svg>