<?xml version="1.0" encoding="UTF-8"?>
<svg width="89px" height="30px" viewBox="0 0 89 30" version="1.1" xmlns="http://www.w3.org/2000/svg" xmlns:xlink="http://www.w3.org/1999/xlink">
    <!-- Generator: Sketch 43.2 (39069) - http://www.bohemiancoding.com/sketch -->
    <title>logo_aen</title>
    <desc>Created with Sketch.</desc>
    <defs></defs>
    <g stroke="none" stroke-width="1" fill="none" fill-rule="evenodd">
        <g transform="translate(-30.000000, -30.000000)" fill="#6977FD">
            <g>
                <g transform="translate(30.000000, 30.000000)">
                    <path d="M67.908125,10.968525 C67.691375,12.122025 67.458125,13.272525 67.260125,14.429025 C66.582875,18.399525 65.940125,22.376025 65.235125,26.341275 C65.017625,27.567525 64.631375,28.782525 63.465125,29.472525 C62.318375,30.152025 61.092125,30.191775 59.942375,29.494275 C58.819625,28.813275 58.530875,27.663525 58.685375,26.465025 C58.941875,24.468525 59.307875,22.485525 59.649125,20.500275 C60.135875,17.669025 60.626375,14.837775 61.143125,12.011775 C61.654625,9.212775 62.121125,6.401775 62.752625,3.629775 C63.452375,0.559275 66.762875,-0.920475 69.279875,0.608025 C70.311125,1.234275 70.913375,2.217525 71.412875,3.275775 C73.765625,8.250525 76.116125,13.226775 78.472625,18.199275 C78.593375,18.454275 78.765875,18.683775 79.037375,19.124775 C79.209125,18.347025 79.354625,17.794275 79.451375,17.232525 C80.238875,12.680775 80.997875,8.124525 81.808625,3.577275 C82.082375,2.045775 82.646375,0.662775 84.370625,0.193275 C86.730875,-0.449475 88.591625,1.049775 88.319375,3.480525 C88.101125,5.426025 87.733625,7.355775 87.404375,9.288525 C86.926625,12.094275 86.434625,14.897775 85.926875,17.698275 C85.395875,20.630025 84.895625,23.569275 84.272375,26.481525 C83.875625,28.337025 82.339625,29.752275 80.825375,29.926275 C78.522125,30.190275 77.031875,29.465025 76.017875,27.368025 C73.810625,22.799775 71.676125,18.197025 69.507125,13.610775 C69.077375,12.702525 68.628125,11.803275 68.187125,10.899525 C68.094125,10.922775 68.001125,10.945275 67.908125,10.968525"></path>
                    <path d="M12.46155,18.053175 C12.6468,18.217425 12.6858,18.281925 12.7248,18.282675 C15.1383,18.302175 17.5518,18.324675 19.9653,18.311175 C20.10855,18.310425 20.34405,18.033675 20.37105,17.859675 C20.4153,17.579925 20.3343,17.275425 20.2833,16.985925 C19.8798,14.717925 19.4763,12.449175 19.0608,10.182675 C18.9528,9.596925 18.80205,9.018675 18.6708,8.436675 C18.59355,8.420175 18.51555,8.404425 18.4383,8.387925 C16.4403,11.618925 14.4423,14.849925 12.46155,18.053175 M25.4088,29.948925 C23.4678,29.924175 22.36155,28.880175 22.02555,26.766675 C21.9033,25.997925 21.7563,25.233675 21.64005,24.464175 C21.5673,23.984925 21.32805,23.768925 20.8308,23.770425 C17.0673,23.778675 13.3038,23.762925 9.5403,23.797425 C9.2373,23.800425 8.83005,24.050925 8.65455,24.310425 C7.7823,25.598925 7.0023,26.949675 6.13005,28.238175 C5.3838,29.341425 4.36605,30.001425 2.95455,29.957175 C0.81855,29.889675 -0.50595,28.079175 0.1833,26.054925 C0.3888,25.452675 0.6963,24.868425 1.0488,24.336675 C5.6493,17.399925 10.26405,10.472925 14.88255,3.548175 C15.25455,2.990925 15.6543,2.447925 16.0863,1.935675 C17.33805,0.449175 18.88605,-0.292575 20.86305,0.146925 C22.95855,0.611925 23.77005,2.196675 24.19305,4.067925 C25.15755,8.332425 26.1018,12.602175 27.0348,16.874175 C27.67605,19.809675 28.3173,22.745925 28.89705,25.694175 C29.3613,28.052925 27.74355,29.979675 25.4088,29.948925"></path>
                    <path d="M43.4878,29.592 C41.47105,29.592 39.45355,29.60175 37.4368,29.58525 C36.9298,29.5815 36.40855,29.55525 35.91955,29.433 C34.1068,28.98 33.29755,27.85425 33.5398,25.9995 C33.7828,24.13725 34.1233,22.28625 34.4428,20.4345 C34.92655,17.6295 35.42005,14.82675 35.9278,12.027 C36.4438,9.174 36.94105,6.31725 37.5253,3.4785 C37.91155,1.599 38.9443,0.68775 40.8538,0.52875 C42.2968,0.408 43.75405,0.44475 45.2053,0.438 C47.70655,0.426 50.2078,0.432 52.70905,0.438 C53.1118,0.43875 53.5168,0.45075 53.9158,0.50025 C55.61605,0.71025 56.52655,1.63875 56.50105,3.114 C56.47255,4.749 55.42855,6.0015 53.79505,6.06675 C51.0028,6.177 48.2053,6.14925 45.4093,6.17925 C44.95255,6.18375 44.47405,6.1035 44.04505,6.2145 C43.76005,6.28875 43.38055,6.59775 43.32505,6.86175 C43.0258,8.27925 42.84355,9.7215 42.56005,11.14275 C42.4273,11.8065 42.69205,11.94375 43.26655,11.94075 C45.6598,11.9295 48.0538,11.9295 50.44705,11.94375 C50.9278,11.94675 51.41905,11.982 51.88555,12.08775 C53.1643,12.378 53.73355,13.02375 53.8378,14.21325 C53.9413,15.402 53.33755,16.5915 52.30105,16.98975 C51.7153,17.21475 51.0553,17.33475 50.4268,17.34375 C47.7643,17.38275 45.1018,17.37975 42.4393,17.35125 C41.73655,17.34375 41.3803,17.496 41.2783,18.288 C41.08405,19.80375 40.7593,21.30375 40.48105,22.80825 C40.3198,23.67975 40.4098,23.80725 41.2963,23.80875 C44.22805,23.81475 47.1598,23.80575 50.0908,23.8185 C50.62555,23.82075 51.1813,23.8185 51.68905,23.95875 C52.8763,24.28725 53.5003,25.185 53.5093,26.41875 C53.5198,27.756 52.8118,28.91925 51.6748,29.26875 C51.06805,29.4555 50.4148,29.5665 49.78105,29.57775 C47.6833,29.61525 45.58555,29.592 43.4878,29.592"></path>
                </g>
            </g>
        </g>
    </g>
</svg>