<?xml version="1.0" encoding="UTF-8"?>
<svg width="96px" height="32px" viewBox="0 0 96 32" version="1.1" xmlns="http://www.w3.org/2000/svg" xmlns:xlink="http://www.w3.org/1999/xlink">
    <!-- Generator: Sketch 43.2 (39069) - http://www.bohemiancoding.com/sketch -->
    <title>logo_ixda</title>
    <desc>Created with Sketch.</desc>
    <defs></defs>
    <g stroke="none" stroke-width="1" fill="none" fill-rule="evenodd">
        <g transform="translate(-67.000000, -857.000000)">
            <g transform="translate(29.000000, 777.000000)">
                <g transform="translate(38.000000, 80.875000)">
                    <path d="M16.803174,30.12009 L16.801074,30.12321 C16.915854,30.09303 16.972254,29.99115 17.047854,29.91573 C19.586514,27.38205 22.123374,24.84651 24.661014,22.31175 C25.124574,21.84873 25.429674,21.85233 25.901034,22.32375 C28.451154,24.87429 31.000974,27.42519 33.551694,29.97507 C33.628554,30.05187 33.714894,30.11913 33.796794,30.19089 C33.987534,30.45513 34.241094,30.55269 34.569834,30.54843 C35.636934,30.53457 36.704334,30.54375 37.771554,30.54303 C38.318634,30.54267 38.546454,30.31233 38.546994,29.75757 C38.547954,28.69035 38.540514,27.62301 38.551434,26.55585 C38.554614,26.24031 38.465574,25.99005 38.205774,25.80699 C38.140314,25.73259 38.078634,25.65429 38.008734,25.58427 C35.458914,23.02989 32.908374,20.47629 30.357894,17.92257 C29.839674,17.40369 29.837034,17.12619 30.348954,16.61403 C32.886294,14.07537 35.424294,11.53743 37.959714,8.99691 C38.032674,8.92377 38.147634,8.87619 38.152194,8.74767 C38.432874,8.59455 38.553954,8.35887 38.552154,8.03889 C38.546094,6.96969 38.550054,5.90043 38.549754,4.83117 C38.549514,4.20723 38.325594,3.98091 37.703394,3.98019 C36.674094,3.97899 35.644794,3.98679 34.615614,3.97611 C34.269354,3.97251 33.988194,4.06485 33.790554,4.35951 C33.701934,4.43913 33.609474,4.51497 33.525294,4.59903 C30.980154,7.14039 28.435974,9.68271 25.891254,12.22455 C25.433094,12.68217 25.120794,12.68325 24.668454,12.23181 C22.101654,9.66975 19.534974,7.10763 16.967514,4.54623 C16.897374,4.47621 16.819134,4.41429 16.744734,4.34853 C16.567914,4.08543 16.320654,3.97593 16.004634,3.97761 C14.924874,3.98337 13.844994,3.97569 12.765234,3.98169 C12.241734,3.98457 11.997774,4.23861 11.996934,4.76025 C11.995374,5.82009 12.006534,6.88005 11.990874,7.93965 C11.985654,8.29347 12.091554,8.56245 12.384054,8.75781 C12.443094,8.82483 12.498774,8.89527 12.561654,8.95839 C15.114354,11.52003 17.667714,14.08101 20.221074,16.64199 C20.697954,17.12031 20.696694,17.42079 20.212494,17.90517 C17.684154,20.43477 15.155274,22.96389 12.628134,25.49475 C12.552594,25.57041 12.451434,25.62705 12.418974,25.74039 L12.420894,25.73811 C12.396714,25.75929 12.372594,25.78053 12.348474,25.80177 C12.085914,25.98039 11.989914,26.22795 11.992734,26.54427 C12.002574,27.63165 11.994594,28.71915 11.997294,29.80659 C11.998554,30.29499 12.247554,30.54189 12.734934,30.54267 C13.822374,30.54447 14.909934,30.53547 15.997254,30.54807 C16.315794,30.55179 16.559934,30.45537 16.740714,30.19617 C16.778274,30.18453 16.804794,30.16389 16.803174,30.12009" fill="#515F67"></path>
                    <path d="M83.240982,6.678444 C83.216022,6.682824 83.191122,6.687204 83.166162,6.691524 C83.130882,6.783804 83.091942,6.874884 83.060922,6.968604 C81.676842,11.148264 80.296002,15.329064 78.904302,19.506204 C78.810942,19.786404 78.894402,19.803744 79.139562,19.803084 C81.838962,19.795464 84.538362,19.798284 87.237762,19.798284 L87.582282,19.798284 C86.128182,15.403944 84.684582,11.041224 83.240982,6.678444 L83.240982,6.678444 Z M95.999982,30.540024 C94.480302,30.541104 92.960562,30.537684 91.440942,30.548604 C91.235082,30.550104 91.176102,30.462084 91.117302,30.290844 C90.413922,28.241604 89.698842,26.196444 88.998402,24.146244 C88.919622,23.915784 88.825002,23.826924 88.565682,23.827644 C84.986382,23.838144 81.407082,23.837424 77.827782,23.828664 C77.588982,23.828064 77.482302,23.892504 77.404182,24.122124 C76.709742,26.163804 75.996642,28.199124 75.304902,30.241644 C75.221802,30.486864 75.108462,30.551124 74.862822,30.548964 C73.483182,30.537144 72.103362,30.543384 70.723602,30.543144 C70.386762,30.543144 70.385682,30.542304 70.499022,30.230844 C72.809382,23.878524 75.120222,17.526384 77.430522,11.174064 C78.682902,7.730424 79.937382,4.287504 81.180282,0.840444 C81.270162,0.591144 81.383142,0.515124 81.646902,0.519744 C82.686402,0.537984 83.726502,0.534504 84.766122,0.521784 C85.008162,0.518784 85.123482,0.580044 85.212102,0.824244 C88.760322,10.604004 92.317722,20.380464 95.875242,30.156864 C95.908302,30.247584 95.913642,30.353724 95.999982,30.420024 L95.999982,30.540024 Z" fill="#8F9EBC"></path>
                    <path d="M0,0.540024 C1.44954,0.535764 2.89908,0.533604 4.34862,0.524244 C4.5075,0.523224 4.5678,0.574584 4.54854,0.729864 C4.54122,0.788964 4.5474,0.849744 4.5474,0.909744 C4.5474,10.669104 4.54608,20.428524 4.554,30.187944 C4.55424,30.471084 4.4967,30.555144 4.19958,30.551124 C2.7999,30.532344 1.39986,30.541104 0,30.540024 L0,0.540024 Z" fill="#8F9EBC"></path>
                    <path d="M25.56,2.4e-05 C26.48466,0.919644 27.41064,1.837884 28.33338,2.759424 C28.75668,3.182124 28.75854,3.520044 28.33794,3.943284 C27.5145,4.771944 26.68818,5.597784 25.86012,6.421884 C25.4454,6.834684 25.10784,6.835284 24.69954,6.428064 C23.8653,5.596104 23.03214,4.763004 22.20066,3.928224 C21.80088,3.526884 21.79614,3.184044 22.18704,2.791224 C23.02512,1.948944 23.86584,1.109244 24.70752,0.270624 C24.8049,0.173604 24.91554,0.089904 25.02,2.4e-05 L25.56,2.4e-05 Z" fill="#BFC9DB"></path>
                    <path d="M38.1522,8.747676 C38.14764,8.876196 38.03268,8.923776 37.95972,8.996916 C35.4243,11.537436 32.88624,14.075376 30.34896,16.613976 C29.83704,17.126196 29.83968,17.403696 30.3579,17.922576 C32.90838,20.476236 35.45892,23.029896 38.00874,25.584216 C38.07864,25.654296 38.14032,25.732536 38.20578,25.806996 C38.09862,25.786116 37.99152,25.747596 37.8843,25.747236 C36.72822,25.742976 35.57202,25.738116 34.41594,25.748736 C34.0539,25.752096 33.7794,26.002056 33.77808,26.335176 C33.77316,27.620376 33.73716,28.905936 33.7968,30.190896 C33.7149,30.119136 33.62856,30.051876 33.5517,29.975076 C31.00098,27.425196 28.45116,24.874296 25.90104,22.323756 C25.42968,21.852336 25.12458,21.848736 24.66102,22.311756 C22.12338,24.846516 19.58652,27.382056 17.04786,29.915736 C16.97226,29.991156 16.91586,30.093036 16.80108,30.123216 C16.79976,28.936596 16.79868,27.749976 16.797,26.563416 C16.79622,25.994916 16.54752,25.744416 15.97872,25.743456 C14.79216,25.741416 13.60554,25.741296 12.41898,25.740396 C12.45144,25.627056 12.5526,25.570356 12.62814,25.494756 C15.15528,22.963896 17.6841,20.434776 20.2125,17.905176 C20.6967,17.420796 20.69796,17.120316 20.22108,16.641996 C17.66772,14.081016 15.11436,11.520036 12.56166,8.958396 C12.49878,8.895216 12.4431,8.824836 12.38424,8.757936 C13.60164,8.761656 14.81892,8.766516 16.03614,8.768256 C16.55964,8.768976 16.7958,8.528016 16.79664,7.994616 C16.79832,6.986856 16.79526,5.979036 16.79862,4.971216 C16.79928,4.761276 16.7922,4.553616 16.74468,4.348536 C16.81914,4.414296 16.89738,4.476216 16.96752,4.546236 C19.53498,7.107636 22.10166,9.669756 24.66846,12.231816 C25.1208,12.683256 25.4331,12.682176 25.89126,12.224556 C28.43598,9.682716 30.98016,7.140396 33.5253,4.599036 C33.60948,4.514976 33.70194,4.439136 33.79044,4.359756 C33.72372,4.776156 33.73326,5.195616 33.73422,5.614836 C33.73578,6.344256 33.73206,7.073676 33.73668,7.802976 C33.73764,7.961736 33.74946,8.123496 33.78258,8.278236 C33.84324,8.561076 34.02378,8.759016 34.31664,8.760396 C35.59512,8.766576 36.87366,8.753676 38.1522,8.747676" fill="#BFC9DB"></path>
                    <path d="M38.1522,8.747676 C36.87366,8.753676 35.59512,8.766576 34.31664,8.760396 C34.02378,8.759016 33.84324,8.561076 33.78258,8.278236 C33.74946,8.123496 33.73764,7.961736 33.73668,7.802976 C33.73206,7.073676 33.73578,6.344256 33.73422,5.614836 C33.73326,5.195616 33.72372,4.776156 33.79044,4.359756 C33.9882,4.064856 34.26936,3.972516 34.61562,3.976116 C35.6448,3.986736 36.6741,3.978996 37.7034,3.980196 C38.3256,3.980916 38.54952,4.207236 38.5497,4.831176 C38.55006,5.900436 38.5461,6.969636 38.55216,8.038836 C38.55396,8.358876 38.43288,8.594556 38.1522,8.747676" fill="#8F9EBC"></path>
                    <path d="M12.418968,25.74039 C13.605588,25.74129 14.792148,25.74141 15.978768,25.74345 C16.547508,25.74441 16.796268,25.99491 16.797048,26.56341 C16.798668,27.74997 16.799748,28.93659 16.801068,30.12321 L16.803168,30.12009 C16.758048,30.12549 16.745748,30.15783 16.740708,30.19617 C16.559928,30.45537 16.315788,30.55179 15.997248,30.54807 C14.909928,30.53547 13.822428,30.54447 12.734928,30.54267 C12.247548,30.54189 11.998548,30.29499 11.997288,29.80659 C11.994588,28.71915 12.002568,27.63165 11.992728,26.54427 C11.989908,26.22795 12.085908,25.98039 12.348528,25.80171 C12.386328,25.79601 12.417888,25.78329 12.420888,25.73811 L12.418968,25.74039" fill="#8F9EBC"></path>
                    <path d="M16.74471,4.348554 C16.79217,4.553574 16.79931,4.761234 16.79859,4.971234 C16.79529,5.979054 16.79829,6.986814 16.79667,7.994634 C16.79577,8.528034 16.55961,8.768994 16.03617,8.768274 C14.81889,8.766534 13.60167,8.761674 12.38421,8.757954 C12.09159,8.562474 11.98563,8.293434 11.99091,7.939614 C12.00657,6.880074 11.99535,5.820114 11.99697,4.760274 C11.99775,4.238574 12.24171,3.984594 12.76521,3.981714 C13.84497,3.975654 14.92485,3.983394 16.00461,3.977634 C16.32063,3.975894 16.56789,4.085394 16.74471,4.348554" fill="#8F9EBC"></path>
                    <path d="M33.796824,30.190872 C33.737184,28.905972 33.773124,27.620412 33.778104,26.335212 C33.779364,26.002092 34.053924,25.752072 34.415964,25.748772 C35.571984,25.738092 36.728184,25.743012 37.884324,25.747212 C37.991544,25.747632 38.098584,25.786152 38.205744,25.806972 C38.465604,25.990032 38.554644,26.240292 38.551404,26.555832 C38.540544,27.622992 38.547984,28.690332 38.546964,29.757612 C38.546424,30.312312 38.318604,30.542652 37.771584,30.543012 C36.704304,30.543732 35.636964,30.534552 34.569864,30.548412 C34.241064,30.552672 33.987564,30.455112 33.796824,30.190872" fill="#8F9EBC"></path>
                    <path d="M62.593638,17.841924 C62.586318,18.961224 62.580258,20.081784 62.413938,21.192264 C62.031378,23.747124 60.145878,25.661124 57.591318,26.100504 C57.047898,26.193984 56.501838,26.239404 55.950558,26.238684 C54.240918,26.236464 52.531158,26.229744 50.821638,26.245464 C50.522838,26.248224 50.467578,26.159424 50.468358,25.878684 C50.478618,22.429404 50.475018,18.980064 50.475018,15.530724 C50.475018,12.071424 50.477718,8.612064 50.469438,5.152764 C50.468838,4.900884 50.512278,4.812984 50.790678,4.815864 C52.639938,4.835124 54.489618,4.820724 56.338818,4.842684 C57.763938,4.859664 59.094438,5.193744 60.190338,6.172464 C61.528578,7.367724 62.321598,8.837904 62.464578,10.649784 C62.653638,13.045284 62.609298,15.443604 62.593638,17.841924 M67.131978,12.194184 C67.116438,10.984884 67.074378,9.772884 66.806898,8.587224 C65.769138,3.987624 61.750938,0.650544 57.012738,0.554904 C53.434818,0.482604 49.854378,0.535404 46.275078,0.520584 C45.994818,0.519444 45.910818,0.573504 45.911478,0.872244 C45.922218,5.761524 45.919098,10.650804 45.919038,15.540084 C45.919038,20.439264 45.921138,25.338504 45.913038,30.237684 C45.912618,30.490224 45.980778,30.549324 46.226718,30.548784 C49.586178,30.540624 52.945698,30.546744 56.305218,30.541464 C57.543258,30.539484 58.757598,30.355704 59.926638,29.943744 C63.176358,28.798524 65.373978,26.570304 66.556398,23.356164 C66.994578,22.165164 67.030038,20.888904 67.086738,19.629804 C67.198398,17.152044 67.163718,14.672844 67.131978,12.194184" fill="#8F9EBC"></path>
                </g>
            </g>
        </g>
    </g>
</svg>