<?xml version="1.0" encoding="UTF-8"?>
<svg width="80px" height="46px" viewBox="0 0 80 46" version="1.1" xmlns="http://www.w3.org/2000/svg" xmlns:xlink="http://www.w3.org/1999/xlink">
    <!-- Generator: Sketch 43.2 (39069) - http://www.bohemiancoding.com/sketch -->
    <title>logo_up</title>
    <desc>Created with Sketch.</desc>
    <defs></defs>
    <g id="Page-1" stroke="none" stroke-width="1" fill="none" fill-rule="evenodd">
        <g id="Home-long" transform="translate(-84.000000, -851.000000)" fill="#C0282E">
            <g id="card" transform="translate(29.000000, 777.000000)">
                <g id="logo_up" transform="translate(55.000000, 74.800000)">
                    <path d="M40.49672,27.6588 C40.42072,32.098 39.08392,36.1916 35.80072,39.4156 C33.33032,41.842 30.27192,43.1316 26.93592,43.834 C25.95912,44.0396 24.98152,44.2748 23.96952,44.242 C23.66072,44.3812 23.33592,44.3852 23.00712,44.3588 C22.69032,44.3676 22.37272,44.3764 22.05592,44.386 C20.86472,44.5796 19.67352,44.5596 18.48232,44.3836 C18.21032,44.3764 17.93832,44.37 17.66632,44.3628 C17.34152,44.3516 17.00312,44.458 16.70152,44.2484 C8.75192,43.638 2.39032,39.6836 0.59912,31.5748 C0.23432,29.926 0.02472,28.2532 0.01992,26.5716 C-0.00248,17.9236 0.01192,9.2756 -8e-05,0.6284 C-0.00088,0.1884 0.05272,-0.0004 0.57272,-0.0004 C13.78392,0.0156 26.99432,0.0124 40.20552,0.0132 C40.24952,0.0132 40.29352,0.0228 40.34072,0.0284 C40.44872,0.2444 40.24072,0.302 40.14072,0.3964 C34.35432,5.8996 28.56392,11.3972 22.78472,16.9076 C22.61912,17.0652 22.05832,17.238 22.58312,17.594 C22.93832,17.8348 23.09192,18.6308 23.82552,17.9268 C29.20472,12.7572 34.61832,7.6244 40.02232,2.4812 C40.13752,2.3724 40.26152,2.2732 40.38152,2.1692 C40.42632,2.1452 40.47192,2.1212 40.51672,2.0972 C40.52232,2.1772 40.52792,2.2564 40.53272,2.3364 C40.54152,2.4268 40.55672,2.5172 40.55672,2.6076 C40.55032,10.9588 40.63912,19.3108 40.49672,27.6588 Z M79.86368,13.85392 C80.02928,15.17152 80.02848,16.48832 79.94368,17.80912 C79.96608,18.04672 79.98448,18.28432 79.84368,18.49952 C79.83408,18.63392 79.82368,18.76912 79.81328,18.90352 C79.82048,18.95312 79.82528,19.00192 79.82768,19.04992 C79.83248,19.19472 79.80768,19.33312 79.70608,19.45712 C79.70208,19.50192 79.69728,19.54672 79.69328,19.59152 C79.68928,19.63552 79.68448,19.68032 79.68048,19.72512 C79.68848,19.78272 79.69168,19.83952 79.68688,19.89392 C79.67808,19.98432 79.64608,20.06992 79.57568,20.14512 C78.95568,23.42352 77.31728,26.08112 74.64128,28.06752 C72.17088,29.90192 69.32768,30.74752 66.29648,30.94832 C62.92608,31.17152 59.54848,31.07392 56.17408,31.03392 C55.59408,31.02672 55.73888,31.35792 55.73808,31.64032 C55.73248,34.83472 55.73568,38.02912 55.73328,41.22352 C55.73248,42.22672 55.72128,43.22992 55.71408,44.23392 C55.71248,44.43792 55.57648,44.38992 55.45568,44.37152 C54.97888,44.37952 54.50128,44.39632 54.02448,44.39632 C46.65008,44.39792 39.27568,44.39792 31.90208,44.39632 C31.62928,44.39632 31.35728,44.37872 31.08448,44.36912 L30.35808,44.36912 C30.34528,44.33632 30.33328,44.30432 30.32128,44.27232 C30.56848,44.18512 30.81488,44.09792 31.06208,44.01152 C34.78768,42.52912 37.70768,40.11472 39.65248,36.57712 C39.94048,36.05312 40.19568,35.51792 40.42208,34.97312 C41.10048,33.34032 41.51968,31.62352 41.79648,29.86192 C41.79888,29.81312 41.80048,29.76352 41.80208,29.71472 C41.83968,29.44192 41.87728,29.16992 41.91488,28.89712 C41.94768,28.62112 41.98048,28.34512 42.01328,28.06912 C42.02608,27.66032 42.03968,27.25152 42.05248,26.84352 C42.04608,22.15152 42.03728,17.46032 42.03328,12.76912 C42.02928,9.22032 42.03248,5.67152 42.18288,1.98672 C42.33888,2.18832 42.49488,2.38912 42.65088,2.59072 C45.53248,5.31552 48.41728,8.03712 51.29568,10.76512 C53.79488,13.13392 56.31488,15.48112 58.76288,17.90112 C59.47008,18.59952 59.65168,17.89872 60.01168,17.63232 C60.54848,17.23472 59.98448,17.05632 59.79808,16.87872 C54.05728,11.40112 48.30528,5.93552 42.55408,0.46912 C42.43008,0.35072 42.29488,0.24272 42.02848,0.01152 L42.67648,0.01152 C48.92448,0.01152 55.17328,-0.02128 61.42048,0.02512 C64.73808,0.04992 67.98768,0.57232 71.04528,1.93552 C76.22128,4.24272 79.15488,8.22752 79.86368,13.85392 Z" id="Combined-Shape"></path>
                </g>
            </g>
        </g>
    </g>
</svg>