<?xml version="1.0" encoding="UTF-8"?>
<svg width="721px" height="534px" viewBox="0 0 721 534" version="1.1" xmlns="http://www.w3.org/2000/svg" xmlns:xlink="http://www.w3.org/1999/xlink">
    <!-- Generator: Sketch 43.2 (39069) - http://www.bohemiancoding.com/sketch -->
    <title>hero</title>
    <desc>Created with Sketch.</desc>
    <defs></defs>
    <g id="art" stroke="none" stroke-width="1" fill="none" fill-rule="evenodd">
        <g id="hero" stroke="#BFC9DB">
            <path d="M412.3668,423.3808 C394.6428,424.3838 356.1848,430.4038 317.0588,435.4198 C277.9318,440.4358 268.9028,443.1108 247.5008,452.8098 C226.0978,462.5078 203.3578,489.5948 197.0038,500.6308 C193.5478,506.6328 189.2018,519.2628 184.7728,532.5038" id="Stroke-1"></path>
            <path d="M625.8491,532.5042 C620.5951,515.8042 613.6221,493.1542 602.9831,478.8932 C600.8331,476.0122 598.5291,473.3052 596.1311,470.7572" id="Stroke-3"></path>
            <path d="M595.9486,470.5637 C580.8446,454.5997 561.9276,445.1297 552.1516,441.1047 C540.7816,436.4227 515.3666,432.4097 478.2466,434.0817 C441.1266,435.7537 389.9606,438.0947 365.8826,440.4357 C341.8056,442.7767 335.1166,444.1147 335.1166,444.1147" id="Stroke-5"></path>
            <path d="M125.8632,532.5042 C123.6682,529.8302 120.7662,527.4072 117.2242,525.5182 C106.0762,519.5732 103.1042,518.8302 93.1452,519.1272 C83.1862,519.4242 75.1602,521.8022 66.3902,525.6672 C57.6212,529.5312 52.4192,531.6122 49.2972,532.5042" id="Stroke-9"></path>
            <path d="M178.6593,499.5498 C179.4673,502.6538 178.7143,503.4358 176.5303,506.4928 C174.3003,509.6138 169.3953,514.9648 165.2333,518.2348 C161.0713,521.5048 157.0583,521.0588 153.0453,522.5458 C149.0323,524.0318 149.7753,526.4098 144.1273,528.9368 C141.6253,530.0558 138.6283,526.7078 138.7763,532.5038" id="Stroke-13"></path>
            <path d="M127.9474,531.6124 C125.8874,526.7074 121.7574,524.9234 113.0624,519.0724 C104.3674,513.2204 93.6654,507.0874 81.4034,505.7494 C69.1404,504.4124 55.9864,503.7434 33.6904,511.3234 C19.6864,516.0854 11.3144,525.2434 6.7464,532.5044" id="Stroke-15"></path>
            <path d="M22.4103,488.6382 C22.3583,488.3382 22.3033,488.0312 22.2453,487.7152" id="Stroke-17"></path>
            <path d="M22.4103,488.6382 C23.0703,492.4062 23.2193,494.9462 19.6443,495.0482 C12.2873,495.2582 12.0643,500.8452 13.6253,504.9152 C15.1853,508.9852 13.8483,509.9862 5.8213,516.0052 C-0.1567,520.4892 -0.3177,527.1662 1.5613,532.5042" id="Stroke-21"></path>
            <path d="M22.4103,488.6382 C22.3143,488.3282 22.2643,488.0202 22.2453,487.7152" id="Stroke-25"></path>
            <path d="M235.9669,360.8175 C232.4889,362.7575 229.3429,364.5285 227.2149,365.7345 C220.5259,369.5245 202.9129,379.1115 196.4469,381.5645 C189.9819,384.0165 185.2999,384.9085 183.2929,386.6925 C182.2189,387.6475 175.2029,390.9015 167.2389,394.4045" id="Stroke-27"></path>
            <path d="M65.7962,504.9151 C49.2972,501.9591 35.6972,497.2431 27.6712,493.4701 C24.5852,492.0191 22.9282,490.3031 22.4102,488.6381" id="Stroke-29"></path>
            <path d="M271.5513,350.3393 C265.5503,348.1183 261.7623,347.2343 256.1993,349.9053 C252.3983,351.7293 243.4183,356.6613 235.9673,360.8173" id="Stroke-31"></path>
            <path d="M22.2455,487.7157 C22.1075,485.4027 24.1545,483.3097 27.6705,482.3397 C34.1365,480.5557 40.2805,476.7657 41.7785,470.5227 C43.2775,464.2807 48.6285,462.9427 53.5335,461.3817 C58.4385,459.8207 58.6615,455.1387 61.3375,451.1257 C64.0125,447.1127 69.1405,446.4437 74.0455,445.5517 C78.9505,444.6607 83.1865,440.6467 86.3085,437.0797 C89.4295,433.5127 94.7805,429.7227 99.0165,428.8307 C103.2525,427.9387 107.0425,423.4797 112.8395,421.0267 C118.6365,418.5747 136.6955,407.2037 147.6205,402.7447 C152.6975,400.6727 160.3245,397.4447 167.2385,394.4047" id="Stroke-33"></path>
            <path d="M46.3991,486.7987 C59.5531,495.9397 67.3571,499.2837 72.7081,501.7367 C78.0591,504.1887 82.2531,505.8517 82.2531,505.8517" id="Stroke-35"></path>
            <path d="M71.5929,493.4703 C80.5109,497.2773 87.7519,502.2893 93.3839,508.5903" id="Stroke-37"></path>
            <path d="M75.1601,474.9821 C82.9631,488.3591 94.2911,507.3901 104.2181,513.5931" id="Stroke-39"></path>
            <path d="M78.2816,455.1391 C84.5246,473.1981 91.2126,486.6771 100.3546,496.3251 C109.4946,505.9731 121.0886,517.1201 126.8856,517.5661 C132.6826,518.0121 155.2006,516.9901 158.3226,516.1631" id="Stroke-41"></path>
            <path d="M215.0915,477.7907 C215.0915,477.7907 204.9195,484.1227 200.4605,485.2377 C196.0015,486.3527 192.6575,488.5827 186.6375,494.2877 C183.5365,497.2267 181.2615,498.6947 178.6595,499.5497" id="Stroke-43"></path>
            <path d="M104.2185,437.0799 C108.3805,454.6929 115.7375,474.9819 132.0135,485.2379 C148.2895,495.4939 161.2205,501.8849 169.4695,501.0299 C173.4705,500.6159 176.2095,500.3549 178.6595,499.5499" id="Stroke-45"></path>
            <path d="M130.6778,466.7328 C140.9318,477.6578 150.5188,486.5758 162.7808,488.8048 C175.0438,491.0348 186.6368,488.3598 191.0958,486.7988" id="Stroke-47"></path>
            <path d="M63.3353,504.4558 C45.7133,500.9328 30.7923,504.1888 16.5373,508.5898" id="Stroke-49"></path>
            <path d="M250.1619,360.8145 C250.7979,358.8075 251.7439,357.0605 252.9659,355.7015 C258.1479,349.9445 264.4479,350.0165 269.0189,351.9115" id="Stroke-53"></path>
            <path d="M250.1619,360.8145 C248.1879,367.0425 249.2429,375.8145 254.6379,383.5705 C261.7729,393.8265 270.0219,404.9745 279.6089,409.4335 C283.7299,411.3505 287.1069,411.9625 289.8779,411.7525" id="Stroke-55"></path>
            <path d="M289.8779,411.7525 C293.5539,411.4735 296.1629,409.7445 298.0029,407.6495 C301.2299,403.9785 300.6269,400.9415 300.6239,400.9295" id="Stroke-57"></path>
            <path d="M514.363,394.9556 C509.681,392.6146 491.623,383.9196 453.5,379.5726 C415.376,375.2256 366.886,388.6016 349.497,393.6176 C332.107,398.6346 311.039,407.9976 282.953,428.1616" id="Stroke-59"></path>
            <path d="M547.768,439.5528 C535.358,426.6308 514.698,412.6798 490.954,403.4388 C467.211,394.1988 438.117,394.2868 412.367,397.6308" id="Stroke-61"></path>
            <path d="M499.727,389.0487 C509.347,390.6077 510.35,385.8177 516.37,389.0487 C522.389,392.2807 535.097,404.8957 539.779,411.7977 C542.492,415.7977 551.043,424.4557 559.382,433.6947 C565.429,440.3947 571.365,447.4007 574.883,453.1577" id="Stroke-63"></path>
            <path d="M498.3112,365.8615 C483.2622,359.5075 468.0942,355.8875 458.3962,349.6515" id="Stroke-65"></path>
            <path d="M498.3112,365.8615 C513.3602,372.2155 526.7362,376.8975 535.0972,391.9455 C543.4572,406.9945 554.0272,427.7435 560.7262,435.1925" id="Stroke-67"></path>
            <path d="M235.9669,360.8175 C232.1169,372.2155 234.4579,386.5955 242.4839,397.6305 C250.5099,408.6665 262.8919,418.6995 271.5829,421.3745 C280.2729,424.0495 285.4729,424.2115 288.6369,422.6975" id="Stroke-73"></path>
            <path d="M271.5513,350.3393 C272.0903,349.3743 272.4173,349.6823 274.3693,349.6823 C278.9403,349.6823 280.5753,350.7223 281.7643,353.8433 C282.9533,356.9653 287.2643,367.0723 290.8313,371.3833 C294.3983,375.6933 302.8703,383.7193 308.5183,386.3953 C313.6923,388.8453 316.8793,390.1553 320.6893,390.0193" id="Stroke-75"></path>
            <path d="M271.5513,350.3393 C271.2993,350.7913 271.0013,351.5193 270.4683,352.6913 C268.7963,356.3703 268.6843,358.9343 270.4683,364.3973 C272.2513,369.8593 279.6093,380.2263 283.6223,384.3513 C287.6353,388.4763 295.5533,395.8333 300.6243,397.8403 C305.6943,399.8463 311.3803,401.1843 314.5013,400.4043 C317.6233,399.6233 320.7443,395.7223 322.6393,394.2723 C324.5343,392.8233 327.7673,389.3673 328.2433,385.3353" id="Stroke-77"></path>
            <path d="M320.6891,390.019 C321.0381,390.006 321.3851,390 321.7471,389.962 C326.0571,389.516 326.7991,386.237 326.7991,386.236" id="Stroke-79"></path>
            <path d="M250.1619,360.8145 C250.2409,360.7835 254.6699,359.0305 258.1309,357.2625 C261.6239,355.4785 270.3839,351.4795 271.0629,350.7595" id="Stroke-85"></path>
            <path d="M277.3861,349.6344 C277.3861,349.6344 277.4541,349.1614 277.3791,348.2554 C277.3051,347.3484 276.0421,346.9324 274.4811,346.7094 C272.9201,346.4864 271.0631,347.4524 271.5831,349.6344" id="Stroke-87"></path>
            <path d="M276.5177,347.2411 C276.5177,347.2411 277.4537,345.8171 277.4147,344.6611 C277.3747,343.5051 276.3397,342.8451 275.4477,342.6961 C274.5557,342.5471 273.2917,342.6961 272.3257,343.4391 C271.3597,344.1821 271.3977,345.9351 272.2897,347.2411" id="Stroke-89"></path>
            <path d="M278.7173,342.6442 C278.3453,343.3652 277.4153,343.6622 277.4153,343.6622" id="Stroke-91"></path>
            <path d="M273.9402,342.7285 C273.5152,340.2435 277.0822,338.8315 278.0482,339.7715 C279.4822,341.1655 279.0892,341.9235 278.7172,342.6445" id="Stroke-93"></path>
            <path d="M292.0206,334.0705 C293.1266,333.0165 294.0306,332.1775 294.6956,331.6965 C295.7836,330.9115 297.1076,329.4555 298.3256,327.6825" id="Stroke-95"></path>
            <path d="M292.0206,334.0705 C288.6756,337.2595 283.4766,342.4295 277.4156,345.6685" id="Stroke-97"></path>
            <path d="M338.9012,226.3717 C339.1362,226.0197 339.1382,226.0167 339.1382,226.0167" id="Stroke-99"></path>
            <path d="M338.9012,226.3717 C338.8162,226.4997 338.7022,226.6707 338.5432,226.9087 C337.9492,227.8007 335.2732,231.8137 329.4762,238.2047 C323.6802,244.5957 321.7472,249.9467 321.3012,250.6907 C320.8552,251.4337 316.0992,260.6487 313.8702,267.6347 C311.6402,274.6207 308.8162,278.9307 305.3972,285.0257 C301.9792,291.1197 300.9382,295.1327 301.9042,301.6727 C302.7522,307.4067 302.6272,310.2857 302.1332,316.2187" id="Stroke-101"></path>
            <path d="M298.326,327.6821 C300.105,325.0931 301.658,321.8201 301.904,318.9141 C301.987,317.9441 302.063,317.0521 302.133,316.2191" id="Stroke-103"></path>
            <path d="M338.9012,226.3717 C339.0802,227.6727 341.1512,227.8197 344.4892,228.6917 C346.4782,229.2127 348.2052,227.0567 349.8402,224.6787 C351.4742,222.3007 352.2182,219.3277 352.0692,217.9907 C351.9212,216.6527 351.4722,215.1677 348.5022,211.7477 C346.0492,208.9237 344.9352,211.4507 342.5562,215.9097 C340.1782,220.3687 340.1782,222.5977 339.1382,225.1247 C338.9272,225.6377 338.8562,226.0407 338.9012,226.3717" id="Stroke-105"></path>
            <path d="M342.4079,272.0938 C340.4009,273.8028 339.8809,273.6548 339.8809,273.6548" id="Stroke-107"></path>
            <path d="M342.4079,272.0938 C342.9739,271.6118 343.5229,269.1958 343.6709,267.7088 C343.8199,266.2228 345.9009,260.4258 346.4959,258.6418 C347.0899,256.8588 346.2729,256.8588 346.7929,256.5618 C347.3129,256.2638 350.9549,250.8388 353.3819,246.4538 C354.0869,245.1818 354.6509,244.2118 355.1439,243.2918" id="Stroke-109"></path>
            <path d="M355.1439,243.2921 C356.3509,241.0401 357.1199,239.0961 358.3859,233.8201 C360.1699,226.3881 358.9069,220.6661 356.6029,215.2401 C354.2989,209.8151 348.6889,209.1891 346.8939,210.5841" id="Stroke-111"></path>
            <path d="M342.4079,272.0938 C343.9569,275.1328 340.6989,281.2348 341.0329,282.0148 C341.3679,282.7958 343.0399,288.0348 343.9309,288.9268 C344.8229,289.8188 348.3909,292.4938 350.7319,294.5008 C353.0729,296.5078 354.6329,297.8448 355.6369,301.5238 C356.3819,304.2558 356.8589,305.4308 357.0559,306.9508" id="Stroke-113"></path>
            <path d="M357.0561,306.9508 C357.1241,307.4768 357.1591,308.0448 357.1591,308.7328 C357.1591,311.4078 357.5311,311.8908 357.5311,316.7958 C357.5311,321.7008 357.8561,324.9708 357.9681,331.1028 C358.0791,337.2338 357.8661,343.4388 356.7511,348.6788" id="Stroke-115"></path>
            <path d="M359.1042,351.1263 C359.1602,350.9543 359.2302,350.7813 359.2792,350.6103" id="Stroke-117"></path>
            <path d="M330.2197,378.7167 C334.9017,374.2067 336.2397,372.8687 342.2587,369.7477 C347.7047,366.9247 356.6387,358.7347 359.1047,351.1267" id="Stroke-119"></path>
            <path d="M367.5052,360.1035 C363.6042,364.0975 356.2982,369.8765 352.5152,373.0925 C348.0562,376.8825 343.1512,377.5515 339.8812,378.7165 C338.9432,379.0505 337.7032,379.6735 336.2082,380.5125" id="Stroke-121"></path>
            <path d="M336.2087,380.5127 C334.0637,381.7167 331.3817,383.3777 328.2427,385.3347" id="Stroke-123"></path>
            <path d="M326.7992,386.2358 C324.9022,387.4198 322.8652,388.6878 320.6892,390.0188" id="Stroke-125"></path>
            <path d="M326.7992,386.2358 C327.2882,385.9308 327.7742,385.6278 328.2432,385.3348" id="Stroke-127"></path>
            <path d="M288.6365,422.698 C286.4965,424.852 284.4775,426.776 282.9535,428.162" id="Stroke-133"></path>
            <path d="M289.8779,411.7525 C289.8759,411.7545 289.8739,411.7565 289.8719,411.7585" id="Stroke-135"></path>
            <path d="M289.8779,411.7525 C293.9639,407.7455 298.2009,403.3185 300.6239,400.9295" id="Stroke-137"></path>
            <path d="M282.9534,428.1617 C278.0484,432.6207 272.9204,435.5187 267.1234,440.4247 C261.3274,445.3287 256.4214,445.1067 244.6004,454.2247" id="Stroke-139"></path>
            <path d="M300.6242,400.9299 C301.6382,399.9299 302.3422,399.2789 302.5732,399.1779 C302.5732,399.1779 303.2422,402.9679 300.5672,408.3189 C298.7222,412.0069 293.3832,417.9189 288.6362,422.6979" id="Stroke-141"></path>
            <path d="M278.7173,342.6442 L280.3893,342.6442 C282.0613,342.6442 282.7303,340.6522 282.9533,339.0912 C283.0913,338.1292 282.7583,337.4652 281.9893,337.0962" id="Stroke-143"></path>
            <path d="M274.9521,340.3209 C274.9521,337.9769 277.9371,336.7509 280.0551,336.7509 C280.8661,336.7509 281.5111,336.8669 281.9891,337.0969" id="Stroke-145"></path>
            <path d="M281.989,337.0964 C282.386,335.4574 287.245,334.3984 288.637,336.7504" id="Stroke-149"></path>
            <path d="M457.2605,268.0807 C457.2605,268.0807 458.7895,271.3507 463.1005,275.2157 C467.4105,279.0797 469.9375,283.2417 470.0865,285.0247 C470.2345,286.8087 472.9105,293.7947 472.3155,292.7547" id="Stroke-151"></path>
            <path d="M457.6237,281.0666 C458.5157,285.0796 457.7497,288.1466 457.3037,294.8356 C457.1167,297.6446 457.5617,299.9496 458.2477,301.8286" id="Stroke-153"></path>
            <path d="M458.2473,301.8281 C459.1943,304.4231 460.6033,306.2001 461.4653,307.3211 C462.9513,309.2531 466.2213,311.4821 469.4923,312.0771 C472.7613,312.6711 475.2883,311.9281 476.4773,308.6581 C477.6663,305.3881 477.8153,304.6451 473.5053,303.4561 C469.1943,302.2671 468.8973,299.2941 468.3023,297.6591 C467.7083,296.0241 468.8973,292.3081 469.9373,291.8621 C470.9783,291.4161 471.7213,291.7141 472.3153,292.7541" id="Stroke-155"></path>
            <path d="M477.4999,305.9467 C477.4439,306.0667 477.3849,306.1847 477.3009,306.2797" id="Stroke-157"></path>
            <path d="M477.4999,305.9467 C478.5699,303.6507 474.5759,297.1337 472.3159,292.7547" id="Stroke-159"></path>
            <path d="M456.0036,227.1272 C456.0416,227.1342 456.4066,227.3692 459.1986,229.6212 C462.6546,232.4082 462.5426,233.1882 464.6616,234.5262 C466.7796,235.8642 469.6776,239.6542 469.6776,239.6542" id="Stroke-161"></path>
            <path d="M456.3686,237.0901 C455.9656,240.8801 455.9906,246.7891 456.3686,249.9101 C456.7466,253.0311 457.4146,253.4771 461.3166,255.8181 C465.2186,258.1591 468.1166,259.3851 472.2416,258.9401 C476.3656,258.4941 479.9336,257.6021 480.3796,254.0341" id="Stroke-163"></path>
            <path d="M469.6774,239.6541 C469.6774,239.6541 468.5624,239.6541 468.2764,240.2111 C467.9894,240.7691 469.3424,243.1101 471.1264,245.6741 C472.9104,248.2381 475.2514,248.6841 477.4804,249.1301 C479.7104,249.5751 480.8254,250.4671 480.3794,254.0341" id="Stroke-167"></path>
            <path d="M469.6774,239.6541 C472.4644,241.6611 476.9234,245.8221 478.9304,247.9401 C480.9364,250.0591 481.6054,252.1021 480.3794,254.0341" id="Stroke-169"></path>
            <path d="M456.2631,187.6686 C458.4931,184.9936 460.1651,180.7946 458.0841,177.6726 C456.0031,174.5516 455.0741,175.0626 454.7401,175.4436 C454.1951,176.0636 454.2211,177.3386 454.2931,182.0256 C454.3831,187.8236 454.0331,190.3436 456.2631,187.6686 Z" id="Stroke-171"></path>
            <path d="M389.8228,152.1814 L438.3738,150.7234 C446.8228,150.4694 453.9008,157.1294 454.1548,165.5694 L454.4668,175.9504" id="Stroke-173"></path>
            <path d="M353.956,203.7382 L354.198,211.7822" id="Stroke-175"></path>
            <path d="M353.5247,189.3777 L353.6777,194.4597" id="Stroke-177"></path>
            <path d="M389.8228,152.1814 L367.7618,152.8444 C359.3148,153.0974 352.6478,160.1704 352.9008,168.6104 L353.5248,189.3774" id="Stroke-179"></path>
            <path d="M456.0036,227.1272 L454.8496,188.7172" id="Stroke-181"></path>
            <path d="M456.3027,237.0866 L456.0037,227.1276" id="Stroke-183"></path>
            <path d="M456.7446,251.7974 L457.6236,281.0664" id="Stroke-185"></path>
            <path d="M459.0835,329.6685 L458.2475,301.8285" id="Stroke-187"></path>
            <path d="M367.5052,360.1035 C363.6102,358.4185 360.5292,355.1735 359.1042,351.1265" id="Stroke-189"></path>
            <path d="M359.1042,351.1263 C358.5942,349.6783 358.2932,348.1313 358.2442,346.5173 L357.9672,337.3073" id="Stroke-191"></path>
            <path d="M459.0835,329.6685 L459.4985,343.4765 C459.7515,351.9165 453.0855,358.9885 444.6375,359.2425 L374.0245,361.3635 C371.7085,361.4335 369.5035,360.9675 367.5055,360.1035" id="Stroke-193"></path>
            <path d="M355.1439,243.2921 L357.0559,306.9511" id="Stroke-197"></path>
            <path d="M357.0561,306.9508 L357.1591,310.3858" id="Stroke-199"></path>
            <path d="M355.1439,243.2921 L355.1219,242.5421" id="Stroke-201"></path>
            <path d="M353.956,203.7382 L353.677,194.4592" id="Stroke-203"></path>
            <path d="M352.5159,176.7552 L352.7439,184.3572 C352.7499,184.5302 352.8929,184.6652 353.0679,184.6602 L353.3829,184.6512 L353.1359,176.4242 L352.8209,176.4332 C352.6469,176.4382 352.5109,176.5852 352.5159,176.7552" id="Stroke-205"></path>
            <path d="M455.8034,206.9108 C456.0204,206.9038 456.1914,206.7248 456.1844,206.5078 L455.7424,191.7858 C455.7364,191.5698 455.5564,191.3998 455.3374,191.4058 L454.9444,191.4178 L455.4104,206.9228 L455.8034,206.9108" id="Stroke-207"></path>
            <path d="M353.6773,194.4597 L353.2843,194.4717 C353.0673,194.4777 352.8963,194.6577 352.9033,194.8747 L353.3453,209.5967 C353.3513,209.8127 353.5313,209.9827 353.7503,209.9757 L354.1433,209.9637 L353.9563,203.7387" id="Stroke-209"></path>
            <path d="M395.1441,161.8606 C395.1601,162.3846 395.5961,162.7966 396.1191,162.7816 L410.6801,162.3436 C411.2031,162.3286 411.6141,161.8906 411.5981,161.3666 C411.5821,160.8416 411.1461,160.4296 410.6231,160.4456 L396.0621,160.8826 C395.5391,160.8986 395.1281,161.3366 395.1441,161.8606 Z" id="Stroke-211"></path>
            <path d="M388.8206,162.2089 C388.7916,161.2479 387.9896,160.4919 387.0286,160.5209 C386.0666,160.5499 385.3106,161.3519 385.3396,162.3139 C385.3686,163.2749 386.1716,164.0299 387.1326,164.0019 C388.0936,163.9729 388.8496,163.1699 388.8206,162.2089 Z" id="Stroke-213"></path>
            <path d="M452.2862,332.2242 C452.4522,332.0482 452.5512,331.8092 452.5432,331.5492" id="Stroke-215"></path>
            <path d="M447.7933,175.8847 C447.8443,175.9957 447.8743,176.1187 447.8783,176.2487 L448.0143,180.7777" id="Stroke-217"></path>
            <path d="M447.7933,175.8847 C447.8443,175.9957 447.8743,176.1187 447.8783,176.2487 L448.0143,180.7777" id="Stroke-219"></path>
            <path d="M446.9066,175.3343 L389.2496,177.0663" id="Stroke-221"></path>
            <path d="M360.0564,178.0171 C360.1674,177.9661 360.2914,177.9361 360.4214,177.9321 L389.2494,177.0661" id="Stroke-225"></path>
            <path d="M364.2553,334.5677 C364.3573,334.7907 364.5443,334.9657 364.7723,335.0547" id="Stroke-227"></path>
            <path d="M359.5056,178.9033 L364.1696,334.2033 C364.1736,334.3333 364.2046,334.4563 364.2556,334.5673" id="Stroke-229"></path>
            <path d="M365.1423,335.118 C365.0123,335.122 364.8873,335.099 364.7723,335.055" id="Stroke-231"></path>
            <path d="M452.2862,332.2242 C452.1202,332.4002 451.8882,332.5122 451.6282,332.5202 L365.1422,335.1182" id="Stroke-233"></path>
            <path d="M447.0008,175.3504 C447.3498,175.3764 447.6528,175.5794 447.7938,175.8844" id="Stroke-235"></path>
            <path d="M452.2862,332.2242 C452.4522,332.0482 452.5512,331.8092 452.5432,331.5492" id="Stroke-237"></path>
            <path d="M448.0145,180.7774 L452.5435,331.5494" id="Stroke-239"></path>
            <path d="M359.5056,178.9033 C359.4936,178.5123 359.7216,178.1703 360.0566,178.0173" id="Stroke-241"></path>
            <path d="M458.4592,307.6681 C461.9212,309.8981 467.0442,315.6951 468.4282,317.0321 C469.9602,318.5131 470.6212,319.2231 470.6212,319.2231" id="Stroke-243"></path>
            <path d="M459.0835,329.6685 C459.0835,329.6685 463.1105,332.0445 466.0825,333.2335 C469.0555,334.4225 473.9605,334.2735 476.2015,333.2335 C478.4415,332.1935 479.6085,330.2605 479.9055,327.7335 C480.2035,325.2075 478.4195,325.0585 477.2305,325.2075 C476.0415,325.3555 472.7715,322.6805 471.4335,321.6395 C470.0965,320.5995 470.6215,319.2235 470.6215,319.2235" id="Stroke-245"></path>
            <path d="M478.8879,324.2087 C477.7169,323.3167 472.5159,320.0597 470.6209,319.2227" id="Stroke-247"></path>
            <path d="M479.939,328.2913 C480.965,326.9533 480.058,325.1003 478.888,324.2083" id="Stroke-249"></path>
            <path d="M477.4999,305.9467 C480.7639,302.3157 485.1769,297.8287 490.7469,292.7547 C504.1239,280.5657 516.1629,272.5397 534.8919,270.3107 C553.6199,268.0807 555.3479,267.0957 560.7269,266.2507 C566.1049,265.4057 566.1049,264.7817 571.0099,276.4637 C575.9149,288.1467 581.9649,300.1997 584.8329,312.2637 C587.7459,324.5127 590.4799,336.2387 594.1969,339.4787" id="Stroke-251"></path>
            <path d="M477.1889,306.2898 C477.2879,306.1788 477.3989,306.0598 477.4999,305.9468" id="Stroke-253"></path>
            <path d="M472.3342,312.22 C471.1892,313.817 470.6172,314.892 470.6212,315.347 C470.6242,315.66 471.3252,317.458 472.5272,320.218" id="Stroke-255"></path>
            <path d="M498.3112,365.8615 C492.3502,359.8455 483.9702,344.2865 477.9932,332.0035" id="Stroke-257"></path>
            <path d="M594.1973,339.4784 C599.5483,343.4394 604.0073,345.6684 606.9053,348.3444 C609.8043,351.0194 610.0273,355.0324 611.5883,356.1474 C613.1483,357.2624 618.7223,358.7904 619.1683,361.3704 C619.6143,363.9514 622.5123,365.5114 626.9713,369.9704 C631.4303,374.4294 634.7753,378.6664 638.3423,382.4564 C641.9093,386.2464 651.4963,397.3944 653.5033,401.6304 C655.5093,405.8664 657.2933,408.9874 659.7463,410.7714 C662.1983,412.5544 665.0963,413.6694 666.4343,418.7974 C667.7723,423.9254 668.8873,427.0464 671.7853,428.1614 C674.6833,429.2764 676.9133,429.4194 678.0283,433.6954 C679.1433,437.9714 680.7033,437.5254 682.9333,441.7614 C684.9903,445.6704 686.0993,449.1944 687.4833,450.5924" id="Stroke-259"></path>
            <path d="M687.838,450.903 C687.717,450.817 687.6,450.709 687.484,450.592" id="Stroke-261"></path>
            <path d="M560.7267,306.2801 C577.2527,322.0351 588.8467,335.5171 594.1977,339.4781" id="Stroke-263"></path>
            <path d="M687.4837,450.5921 C690.2167,452.2661 692.4287,454.2731 694.0807,458.9151 C695.2197,462.1131 695.4187,464.9491 695.4187,464.9491" id="Stroke-265"></path>
            <path d="M615.6939,473.0826 C621.0449,466.1706 637.8959,451.1256 653.9489,448.0046" id="Stroke-267"></path>
            <path d="M653.9491,448.0046 C670.0021,444.8836 678.0281,445.1066 682.9331,448.0046 C684.5831,448.9796 686.0991,449.7436 687.4841,450.5916" id="Stroke-269"></path>
            <path d="M604.2584,480.6679 C612.9534,474.2019 618.2764,471.4149 626.7484,467.6249 C635.2214,463.8339 648.1754,454.8989 667.5494,456.9229 C682.4874,458.4839 686.9464,462.0509 692.2974,464.2799 C697.6484,466.5099 701.8844,467.8479 705.6744,479.8869 C709.2854,491.3579 708.0404,492.1869 707.9144,492.2399" id="Stroke-271"></path>
            <path d="M720.5,532.5042 C720.047,530.3182 719.632,528.4002 719.275,526.9302 C717.268,518.6812 711.694,502.8512 709.911,497.2772 C709.4,495.6812 708.697,493.9872 707.915,492.2402" id="Stroke-275"></path>
            <path d="M701.8841,478.5494 C703.4751,483.1634 705.9651,487.8854 707.9151,492.2404" id="Stroke-277"></path>
            <path d="M613.6917,498.1403 C623.9477,490.1143 639.5527,481.4473 656.8957,482.5623 C674.2377,483.6773 682.7097,483.7933 690.7367,489.8663 C698.7627,495.9393 698.0937,495.9393 703.2217,508.2023" id="Stroke-279"></path>
            <path d="M686.5003,478.5494 C676.4673,473.4214 670.0013,472.3064 657.9623,472.9754 C640.1413,473.9654 625.5843,482.0294 610.6473,491.6174" id="Stroke-281"></path>
            <path d="M643.2473,465.1721 C643.2473,465.1721 633.2143,472.0841 628.0863,474.4361 C622.9583,476.7891 612.1783,481.0911 607.4963,485.7731" id="Stroke-283"></path>
            <path d="M653.9491,448.0046 C647.5571,446.7416 614.7391,464.1316 599.4291,474.4366" id="Stroke-285"></path>
            <path d="M645.4769,439.5528 C641.0179,440.5388 624.9649,448.5248 616.6409,454.0248 C608.3179,459.5238 602.3719,463.5368 596.1539,470.7708 C596.1539,470.7708 596.1439,470.7658 596.1319,470.7568" id="Stroke-287"></path>
            <path d="M653.9491,421.4731 C653.9491,421.4731 650.9761,421.4731 638.6391,425.6351 C626.3031,429.7971 617.8301,437.3771 605.1961,453.1581 C594.6511,466.3291 595.4091,469.7811 595.9491,470.5641" id="Stroke-289"></path>
            <path d="M595.9486,470.5637 C596.0266,470.6767 596.0976,470.7337 596.1316,470.7567" id="Stroke-291"></path>
            <path d="M586.8399,410.9942 C586.8399,410.9942 588.4009,419.2432 584.6099,428.1612 C580.8199,437.0802 579.2589,448.2272 583.6359,459.4142" id="Stroke-293"></path>
            <path d="M568.3053,444.0584 C563.6523,435.0734 562.0923,428.7284 562.7603,420.5304 C563.4293,412.3324 562.6133,406.3124 562.6133,406.3124" id="Stroke-295"></path>
            <path d="M455.8034,206.9108 C478.3824,226.8958 511.7044,264.0678 520.1354,273.6578" id="Stroke-297"></path>
            <path d="M417.1717,150.7161 C417.6177,146.9421 419.6987,135.9431 417.1717,131.7811 C414.6447,127.6201 406.3217,118.8501 402.0107,117.8101 C397.7007,116.7691 399.3357,117.2151 399.3357,117.2151" id="Stroke-299"></path>
            <path d="M395.3899,144.4768 C396.1899,143.2568 396.9449,141.9918 397.6229,140.6578" id="Stroke-301"></path>
            <path d="M397.6229,140.6575 C398.9079,138.1275 399.9089,135.3505 400.3759,132.1665" id="Stroke-303"></path>
            <path d="M389.8228,152.1814 C391.6278,149.6674 393.6148,147.1834 395.3898,144.4764" id="Stroke-305"></path>
            <path d="M397.6229,140.6575 C398.3659,124.6995 398.8899,114.2415 398.1459,102.7975 C397.4029,91.3525 391.3089,29.5195 387.7419,6.3325 C387.4009,4.1185 387.0899,2.0525 386.8039,0.1235" id="Stroke-307"></path>
            <path d="M394.7153,65.8778 C397.3293,55.3828 402.9023,45.1268 407.3613,27.2908 C410.9453,12.9558 412.3663,6.2538 411.1673,0.1238" id="Stroke-311"></path>
            <path d="M389.8228,55.0975 C384.9388,36.5115 379.9098,19.1875 375.3658,0.1235" id="Stroke-313"></path>
            <path d="M391.1176,93.8954 C382.8996,70.5754 374.6066,44.3944 362.5666,9.6104" id="Stroke-315"></path>
            <path d="M387.7419,109.5603 C382.6139,94.6223 369.9239,80.5163 362.5659,58.3353" id="Stroke-317"></path>
            <path d="M367.6761,99.9733 C376.5941,114.9113 379.7151,123.6063 385.2891,130.9643 C390.8601,138.3173 395.3851,144.4703 395.3901,144.4773" id="Stroke-321"></path>
            <path d="M352.5159,176.7552 C352.5159,176.7552 348.9479,174.4402 345.5289,172.5072 C342.1109,170.5752 337.6519,168.4942 330.2199,164.0352 C322.7879,159.5762 320.1129,157.6442 318.1799,153.0362 C316.2479,148.4282 316.9909,144.5642 320.2609,140.6602 C323.5309,136.7562 328.8819,137.5782 335.7189,139.6592 C342.5569,141.7402 354.2289,149.0402 361.8089,154.2422" id="Stroke-323"></path>
            <path d="M334.976,143.5237 C334.976,143.0777 331.557,140.8487 329.328,139.9567 C327.098,139.0647 326.058,138.9157 323.382,139.9567 C320.707,140.9967 317.695,144.0707 318.142,149.9267 C318.142,149.9267 318.981,153.5377 322.193,154.9687 C325.406,156.3997 326.504,157.3467 326.556,155.8607 C326.607,154.3737 327.544,152.1447 329.774,148.7257 C332.003,145.3077 334.976,143.9697 334.976,143.5237 Z" id="Stroke-325"></path>
            <path d="M334.976,176.7552 C344.489,181.5742 352.873,188.0452 353.525,189.3772" id="Stroke-327"></path>
            <path d="M242.1624,0.1236 C236.8744,20.7896 229.7804,48.7386 223.4294,74.4966 C211.3884,123.3286 206.5244,163.3506 196.3354,222.7326 C186.6374,279.2486 169.5814,355.7886 167.2394,394.4046" id="Stroke-331"></path>
            <path d="M298.326,327.6821 C274.584,325.0641 250.175,330.7051 239.809,334.0701 C229.442,337.4361 227.101,348.2161 243.153,343.6621 C259.205,339.1081 279.69,332.0421 292.021,334.0701" id="Stroke-337"></path>
            <path d="M302.1328,316.219 C302.1318,316.218 282.6128,303.66 252.1818,302.663" id="Stroke-339"></path>
            <path d="M267.5652,272.0938 C273.9192,276.2388 298.3532,283.1008 301.6992,295.0108" id="Stroke-343"></path>
            <path d="M427.4276,150.7161 C427.4276,130.7411 448.2776,100.0281 459.0336,83.9481" id="Stroke-345"></path>
            <path d="M429.2207,139.2307 C422.5227,109.5607 449.4717,66.5297 457.6237,43.7887" id="Stroke-347"></path>
            <path d="M432.8414,69.4889 C435.0604,50.9059 437.5024,29.0349 436.3464,4.5489" id="Stroke-349"></path>
            <path d="M432.8414,69.4889 C430.7824,86.7309 428.9164,101.1439 430.2984,112.1599" id="Stroke-351"></path>
            <path d="M421.5434,0.1236 C422.0484,3.6936 422.7314,9.8196 423.4144,19.9786 C424.7524,39.8676 423.8604,57.3886 432.8414,69.4886" id="Stroke-353"></path>
            <path d="M424.0318,31.306 C417.7508,20.704 415.1238,10.704 415.6138,0.124" id="Stroke-357"></path>
            <path d="M585.9507,0.1236 C587.1257,7.0446 587.5517,12.4686 590.6707,26.3336 C596.6917,53.0906 611.4077,130.5116 616.0907,176.7556 C620.7727,222.9986 623.4487,248.1596 629.4687,281.0666 C635.4897,313.9726 640.6637,346.8706 639.5027,364.6636 C638.3427,382.4566 639.6667,383.8966 639.6667,383.8966" id="Stroke-359"></path>
            <path d="M478.8879,324.2087 C491.9249,307.3257 511.2589,286.5377 529.0949,283.5527 C546.9309,280.5657 565.6009,276.4637 568.3049,276.4637 C571.0099,276.4637 572.1429,279.1247 572.1429,279.1247" id="Stroke-361"></path>
            <path d="M336.2087,380.5127 C361.3647,376.1057 395.6057,373.2187 416.2797,371.5317" id="Stroke-363"></path>
            <path d="M332.0033,381.2784 C333.3713,381.0174 334.7783,380.7634 336.2083,380.5124" id="Stroke-365"></path>
            <path d="M524.1898,383.8963 C513.2828,375.8473 513.4878,376.4363 492.9758,371.5313 C472.4648,366.6263 460.8708,366.1803 440.3588,364.6633 C419.8478,363.1463 385.0668,363.0593 361.1818,365.8613" id="Stroke-367"></path>
            <path d="M184.3321,496.325 C183.6271,506.316 185.2991,509.66 187.3061,511.666 C189.3121,513.673 189.0771,519.842 188.1851,522.44" id="Stroke-369"></path>
        </g>
    </g>
</svg>