<?xml version="1.0" encoding="UTF-8"?>
<svg width="128px" height="31px" viewBox="0 0 128 31" version="1.1" xmlns="http://www.w3.org/2000/svg" xmlns:xlink="http://www.w3.org/1999/xlink">
    <!-- Generator: Sketch 43.2 (39069) - http://www.bohemiancoding.com/sketch -->
    <title>logo_barcamp</title>
    <desc>Created with Sketch.</desc>
    <defs></defs>
    <g stroke="none" stroke-width="1" fill="none" fill-rule="evenodd">
        <g transform="translate(-53.000000, -859.000000)">
            <g transform="translate(29.000000, 777.000000)">
                <g transform="translate(24.000000, 82.000000)">
                    <path d="M27.0807273,15.3328132 C27.0066777,14.8387967 26.9241653,14.139557 26.7951074,13.4487802 C26.6036364,12.4216066 26.1498182,11.4949289 25.6092562,10.6116231 C25.4103802,10.2868628 25.126876,10.0953917 24.7227769,10.1969455 C24.4011901,10.2773421 24.2869421,10.5248793 24.2837686,10.8231934 C24.2795372,11.1088132 24.4276364,11.3468298 24.5704463,11.5880198 C25.3035372,12.8278215 25.6769587,14.1575405 25.6505124,15.6110281 C25.6240661,17.0592264 25.2442975,18.3794248 24.4752397,19.6075901 C24.2393388,19.9841851 23.9981488,20.5046479 24.5080331,20.8177719 C25.013686,21.1277223 25.3638347,20.7923835 25.6632066,20.3301025 C26.6089256,18.8670942 26.9601322,17.2432926 27.0807273,15.3328132 M30.2288926,15.6808463 C30.2204298,13.2393256 29.6322645,11.0093752 28.3353388,8.98147438 C28.0814545,8.58372231 27.7990083,8.16481322 27.2595041,8.51284628 C26.7242314,8.85770579 26.8998347,9.27344132 27.1875702,9.73889587 C28.8917686,12.5009455 29.2599008,15.4608132 28.4083306,18.5814744 C28.1079008,19.6837554 27.6033058,20.6908298 26.9728264,21.641838 C26.7612562,21.9613091 26.6850909,22.3273256 27.0585124,22.5727471 C27.4086612,22.8023008 27.7841983,22.765276 28.0761653,22.4246479 C28.1893554,22.2924165 28.2813884,22.1390281 28.3744793,21.9898711 C29.5867769,20.0444826 30.1950413,17.9234909 30.2288926,15.6808463 M33.2881983,15.6205488 C33.3104132,12.7876231 32.3128595,9.34537521 30.8572562,7.24871405 C30.5875041,6.8615405 30.2796694,6.45532562 29.7592066,6.83509421 C29.2937521,7.17572231 29.4492562,7.58722645 29.7094876,8.02835041 C32.6841653,13.0552595 32.6841653,18.0811107 29.6502479,23.085805 C29.3857851,23.5216397 29.1202645,23.9574744 29.6364959,24.3467636 C30.2130248,24.7804826 30.4848926,24.2441521 30.7832066,23.8876562 C30.9112066,23.7353256 31.0064132,23.5533752 31.1090248,23.3798876 C32.5276033,20.988086 33.2236694,18.3931769 33.2881983,15.6205488 M0.799471074,16.2393917 C1.63940496,16.2933421 2.33970248,16.3811438 3.03894215,16.3747967 C4.79603306,16.3610446 5.84647934,15.3264661 5.91629752,13.5662017 C5.94168595,12.9124496 5.89619835,12.255524 5.92264463,11.6017719 C5.99246281,9.79919339 7.15504132,8.96031736 8.88145455,9.46808595 C10.1498182,9.84150744 11.281719,10.4878545 12.3438017,11.2653752 C12.8716694,11.6504331 13.3910744,12.0471273 13.9898182,12.3306314 C15.8675041,13.2213421 17.4225455,12.5316231 17.916562,10.5016066 C18.3248926,8.82068099 17.8054876,6.51668099 15.9013554,5.90418512 C14.7969587,5.54768926 13.7221818,5.63760661 12.6230744,5.87562314 C12.391405,5.92534215 12.1015537,6.14960661 11.9132562,5.94967273 C11.6847603,5.70848264 11.9587438,5.42920992 12.057124,5.19648264 C13.3466446,2.1276562 14.9619835,1.47073058 18.0329256,2.7264 C19.1923306,3.20031736 20.2544132,3.90484628 21.4889256,4.20104463 C22.3658843,4.41155702 23.2269752,4.52474711 24.0171901,3.9217719 C24.6878678,3.4097719 24.7047934,2.78669752 24.0510413,2.23449917 C23.1275372,1.45697851 22.0485289,0.92593719 20.8066116,0.27747438 C22.9804959,-0.154128926 24.9258843,-0.116046281 26.8173223,0.629738843 C30.2913058,1.99859835 32.2303471,4.76911074 33.4743802,8.11192066 C34.8876694,11.9096066 35.0876033,15.8331769 34.3227769,19.7821355 C33.7187438,22.9027967 32.4884628,25.7505322 29.9898182,27.8768132 C27.8550744,29.692086 25.3701818,30.3225653 22.6049587,30.0030942 C20.4003967,29.7481521 18.3555702,29.0362182 16.2218843,27.9117223 C17.2945455,27.835557 18.1905455,27.9275901 19.0569256,27.7043835 C20.327405,27.3785653 21.4942149,26.8803174 22.169124,25.6648463 C22.9752066,24.2103008 22.3701157,23.1238876 20.7071736,23.0054083 C19.4483306,22.9154909 18.2825785,23.3714248 17.0798017,23.6231934 C15.129124,24.0304661 13.1636364,24.4049455 11.2415207,23.469805 C10.7559669,23.2339041 10.3656198,22.8953917 10.0366281,22.3505983 C10.4280331,22.2564496 10.7834711,22.1781686 11.1336198,22.082962 C12.8759008,21.6111603 13.9348099,20.1608463 13.4704132,18.6174413 C12.9848595,17.0042182 11.8868099,15.8194248 10.229157,15.3455074 C9.06869421,15.0133421 8.14836364,15.497838 7.42267769,16.4752926 C6.4917686,17.7299041 5.31755372,18.6184992 3.63239669,18.2408463 C2.48991736,17.9859041 1.62353719,17.261276 0.799471074,16.2393917" fill="#BFC9DB"></path>
                    <path d="M47.6971901,17.0918083 C47.7246942,15.1612298 46.4626777,13.7489983 44.689719,13.7257256 C42.8881983,13.7024529 41.5933884,15.0565025 41.5722314,16.9881388 C41.5500165,18.9409322 42.7750083,20.3129653 44.5765289,20.3531636 C46.3494876,20.3912463 47.669686,19.0128661 47.6971901,17.0918083 M41.6579174,12.5472793 C43.2415207,11.1731306 44.896,10.7023868 46.7186777,11.284205 C48.9570909,12.0003702 50.1736198,13.6622545 50.5004959,15.934519 C50.841124,18.3030479 50.2603636,20.4049983 48.2969917,21.9388826 C46.3992066,23.4219901 44.0888595,23.4103537 42.1477025,21.9748496 C42.0281653,21.8870479 41.9033388,21.8066512 41.7859174,21.7262545 C41.7340826,21.7759736 41.6695537,21.8119405 41.6737851,21.8362711 C41.824,22.6455273 41.418843,22.7661223 40.7079669,22.7491967 C38.7837355,22.7026512 38.7826777,22.7343868 38.7826777,20.8366017 C38.7826777,16.4496926 38.7921983,12.0627835 38.7689256,7.67693223 C38.7657521,7.11838678 38.8969256,6.90258512 39.4766281,6.9639405 C40.1716364,7.03693223 41.0813884,6.68255207 41.518281,7.09722975 C41.9615207,7.5193124 41.6357025,8.43223802 41.6515702,9.12936198 C41.6759008,10.2051967 41.6579174,11.2810314 41.6579174,12.5472793" fill="#8F9EBC"></path>
                    <path d="M60.4738116,16.9769256 C60.5013157,15.1457851 59.211795,13.7621157 57.4398942,13.7208595 C55.7071339,13.6796033 54.3721256,15.0537521 54.3425058,16.9060496 C54.3107702,18.8990413 55.5442248,20.3186777 57.3362248,20.3514711 C59.1959273,20.3853223 60.4431339,19.0429091 60.4738116,16.9769256 M60.3405223,21.8356364 C60.0972165,21.7446612 59.9988364,21.902281 59.8962248,21.9858512 C57.2314975,24.1713719 52.7388033,22.9326281 51.674605,18.773157 C51.0822083,16.4585785 51.4672661,14.2656529 53.2666711,12.4905785 C54.987795,10.7916694 57.7445554,10.5758678 59.710043,11.9986777 C59.887762,12.1266777 60.0644231,12.2557355 60.2262744,12.373157 C60.4188033,12.2673719 60.3743736,12.1203306 60.3574479,12.0134876 C60.2728198,11.4813884 60.4843901,11.2941488 61.0154314,11.3544463 C61.7326545,11.4359008 62.6667372,11.0455537 63.1173818,11.5110083 C63.528886,11.9352066 63.2305719,12.8544793 63.2337455,13.5558347 C63.2432661,16.3792397 63.2221091,19.2026446 63.2506711,22.0271074 C63.2559603,22.584595 63.1226711,22.8130909 62.5419107,22.741157 C62.1695471,22.6956694 61.7834314,22.6999008 61.4089521,22.7400992 C60.7023074,22.8141488 60.1501091,22.7453884 60.3405223,21.8356364" fill="#8F9EBC"></path>
                    <path d="M98.7060364,13.0098777 C99.7575405,11.8272 100.976185,10.9587041 102.613739,11.0761256 C104.232251,11.1924893 105.421276,11.9731835 105.988284,13.5938116 C106.377574,13.4065719 106.469607,13.036324 106.66954,12.7708033 C108.005607,10.9978446 110.608979,10.5144066 112.339623,11.7267041 C113.373144,12.4502744 113.826962,13.498605 113.922169,14.692919 C114.122102,17.182043 113.993045,19.6806876 114.02478,22.174043 C114.031127,22.6109355 113.880912,22.8627041 113.408053,22.7801917 C113.009243,22.7103736 112.481375,22.9018446 112.491954,22.1338446 C112.520516,19.9916959 112.485607,17.8484893 112.476086,15.7063405 C112.475028,15.6312331 112.475028,15.5550678 112.471855,15.4799603 C112.396747,13.7514314 111.867821,12.958043 110.557144,12.6078942 C109.367061,12.2905388 107.85645,12.9495802 107.095855,14.0973488 C106.575392,14.8843901 106.401904,15.7687537 106.381805,16.6795636 C106.341607,18.4683901 106.32045,20.2582744 106.351127,22.0471008 C106.362764,22.7093157 106.03483,22.7844231 105.518598,22.7992331 C104.987557,22.814043 104.836284,22.5918942 104.836284,22.0756628 C104.836284,19.7335802 104.928317,17.388324 104.718863,15.0494149 C104.634235,14.0994645 104.305243,13.2902083 103.380681,12.8416793 C101.986433,12.1646545 100.135193,12.7856132 99.3312264,14.1830347 C98.701805,15.2779107 98.6266975,16.4817455 98.6108298,17.6929851 C98.5907306,19.1549355 98.5854413,20.6179438 98.6192926,22.0788364 C98.6319868,22.6141091 98.4426314,22.8119273 97.9285157,22.785481 C97.4471934,22.7600926 97.0356893,22.8256793 97.0462678,22.0608529 C97.0928132,18.7085223 97.0811769,15.3561917 97.0526149,12.0038612 C97.0473256,11.4336793 97.2567802,11.3257785 97.7518545,11.3532826 C98.1929785,11.3776132 98.6457388,11.2908694 98.558995,11.9827041 C98.5219702,12.2789025 98.5526479,12.5825058 98.5526479,12.8818777 C98.6034248,12.9252496 98.6552595,12.9675636 98.7060364,13.0098777" fill="#BFC9DB"></path>
                    <path d="M121.743921,12.5591273 C119.147954,12.5591273 117.264979,14.5182678 117.267094,17.2168463 C117.268152,19.6245157 119.271722,21.6323174 121.687855,21.6481851 C124.129375,21.6640529 126.185838,19.5853752 126.182664,17.104714 C126.178433,14.5626975 124.222466,12.5591273 121.743921,12.5591273 L121.743921,12.5591273 Z M115.796681,19.102995 C115.796681,16.735524 115.815722,14.366995 115.782929,12.0005818 C115.775524,11.4198215 116.01883,11.3150942 116.500152,11.3531769 C116.931755,11.3870281 117.475491,11.2346975 117.377111,11.9931769 C117.358069,12.141276 117.368648,12.2946645 117.373937,12.4459372 C117.380284,12.5908628 117.332681,12.7696397 117.488185,12.8542678 C117.69764,12.9685157 117.804483,12.7781025 117.921904,12.6585653 C120.72521,9.79601983 125.743656,10.8570446 127.361111,14.844086 C128.299425,17.1576066 127.443623,20.212681 125.468615,21.8026314 C123.341276,23.5163504 119.985772,23.3026645 118.327061,21.8311934 C118.079524,21.6111603 117.788615,21.1710942 117.498764,21.3054413 C117.182466,21.4503669 117.3824,21.9433256 117.378169,22.2797223 C117.360185,23.5882843 117.341144,24.9000198 117.383458,26.207524 C117.405673,26.889838 117.044945,26.9004165 116.535061,26.9120529 C116.001904,26.9247471 115.760714,26.8041521 115.782929,26.2054083 C115.828417,25.0237884 115.798797,23.8379372 115.799855,22.6542017 L115.799855,19.102995 L115.796681,19.102995 Z" fill="#BFC9DB"></path>
                    <path d="M93.8433058,17.1910347 C93.827438,14.4173488 91.9793719,12.5428364 89.2755041,12.5576463 C86.8382149,12.5713983 84.8833058,14.636324 84.9002314,17.1825719 C84.9150413,19.592357 86.9979504,21.6593983 89.3950413,21.6467041 C91.9042645,21.6318942 93.8581157,19.6748694 93.8433058,17.1910347 M95.2809256,17.0492826 C95.2809256,18.7111669 95.235438,20.3751669 95.3010248,22.0349355 C95.3327603,22.8230347 94.8323967,22.7151339 94.389157,22.7701421 C93.8073388,22.8431339 93.7131901,22.4813488 93.7502149,22.0169521 C93.7555041,21.9418446 93.7586777,21.8646215 93.7480992,21.7905719 C93.7216529,21.6022744 93.8327273,21.3462744 93.6,21.2521256 C93.372562,21.1611504 93.2530248,21.4044562 93.1123306,21.5313983 C91.3203306,23.1382744 89.2723306,23.4302413 87.0772893,22.5998281 C84.9372562,21.789514 83.7323636,20.132919 83.4202975,17.9114314 C82.9633058,14.6564231 84.9076364,11.8732165 88.1023471,11.1813818 C89.9810909,10.7741091 91.6958678,11.208886 93.1207934,12.5745719 C93.273124,12.7216132 93.4021818,13.0114645 93.6592397,12.8919273 C93.9205289,12.7713322 93.7555041,12.4941752 93.756562,12.2804893 C93.7576198,11.9874645 93.6105785,11.5981752 93.905719,11.4405554 C94.2569256,11.2533157 94.6991074,11.3125554 95.0883967,11.4045884 C95.3867107,11.4754645 95.2819835,11.7769521 95.2819835,11.9864066 C95.2893884,13.6736793 95.2862149,15.3620099 95.2862149,17.0492826 L95.2809256,17.0492826" fill="#BFC9DB"></path>
                    <path d="M77.9022281,23.024238 C75.0100628,23.0274116 73.0689058,22.0118744 71.9412364,19.8570314 C70.7141289,17.5138909 71.0346579,15.1781554 72.7674182,13.1745851 C74.4293025,11.2524694 76.6359802,10.7415273 79.0753851,11.2080397 C80.434724,11.4672132 81.6766413,11.9993124 82.5239802,13.1830479 C82.6826579,13.4051967 83.073005,13.6686017 82.5948562,13.8896926 C82.2309554,14.0589488 81.9040793,14.6936595 81.3762116,14.0959736 C80.4643438,13.0635107 79.3028231,12.5716099 77.9286744,12.4838083 C75.8849058,12.3536926 74.3510215,13.2052628 73.3608727,14.9285025 C72.4162116,16.5734612 72.6256661,18.2490975 73.7258314,19.7554777 C74.8355174,21.2745521 76.4286413,21.7854942 78.2534347,21.6014281 C79.4202446,21.4840066 80.4125091,20.9720066 81.2386909,20.129957 C81.686162,19.6740231 82.1632529,19.7047008 82.6678479,20.2769983 C83.0507901,20.7128331 82.5345587,20.9582545 82.3208727,21.175114 C80.9879802,22.5217587 79.3335008,23.0665521 77.9022281,23.024238" fill="#BFC9DB"></path>
                    <path d="M67.4400793,12.4577851 C68.5275504,11.2169256 69.4965421,10.8435041 70.5237157,11.1735537 C70.877038,11.2867438 71.0473521,11.4105124 70.8643438,11.8050909 C70.7056661,12.145719 70.599881,12.5106777 70.4782281,12.8671736 C70.2973355,13.3950413 70.2317488,14.0043636 69.3653686,13.6489256 C68.9602116,13.482843 68.6206413,13.8425124 68.3699306,14.1831405 C67.9288066,14.7818843 67.8336,15.4906446 67.8187901,16.1909421 C67.7785917,18.104595 67.7658975,20.0203636 67.7934017,21.9340165 C67.8029223,22.5327603 67.6907901,22.8152066 67.0243438,22.7464463 C66.3536661,22.6766281 65.4534347,22.9506116 65.0567405,22.6078678 C64.591286,22.2058843 64.9139306,21.2823802 64.9086413,20.5873719 C64.8896,17.7406942 64.918162,14.8929587 64.8864264,12.046281 C64.8800793,11.4655207 65.0525091,11.2740496 65.6068231,11.3544463 C65.8289719,11.3861818 66.0606413,11.3756033 66.2859636,11.3544463 C67.0190545,11.2878017 67.7108893,11.2550083 67.4400793,12.4577851" fill="#8F9EBC"></path>
                </g>
            </g>
        </g>
    </g>
</svg>