<?xml version="1.0" encoding="UTF-8"?>
<svg width="87px" height="63px" viewBox="0 0 87 63" version="1.1" xmlns="http://www.w3.org/2000/svg" xmlns:xlink="http://www.w3.org/1999/xlink">
    <!-- Generator: Sketch 43.2 (39069) - http://www.bohemiancoding.com/sketch -->
    <title>logo_toc</title>
    <desc>Created with Sketch.</desc>
    <defs></defs>
    <g stroke="none" stroke-width="1" fill="none" fill-rule="evenodd">
        <g transform="translate(-76.000000, -838.000000)" fill="#8F9EBC">
            <g transform="translate(29.000000, 777.000000)">
                <g transform="translate(47.000000, 61.000000)">
                    <path d="M53.5996809,0.000320000006 L28.7276805,23.1571204 L27.2004805,23.1571204 L27.2004805,0.120320002 L-0.000320000006,23.8099204 L-0.000320000006,62.3563211 L86.3996815,62.3563211 L86.3996815,1.55712003 L67.1996812,1.55712003 L67.1996812,23.1571204 L53.5996809,23.1571204 L53.5996809,0.000320000006 Z M69.6004812,25.5563205 L69.6004812,3.95632007 L84.0004815,3.95632007 L84.0004815,59.9571211 L2.39968004,59.9571211 L2.39968004,24.9019204 L24.7996804,5.3931201 L24.7996804,25.5563205 L29.6716805,25.5563205 L51.1996809,5.5131201 L51.1996809,25.5563205 L69.6004812,25.5563205 Z"></path>
                    <path d="M14.5516003,41.9941607 C14.5516003,43.8613608 15.1788003,45.3957608 16.4324003,46.5989608 C17.6796003,47.8021608 19.1188003,48.4037609 20.7524004,48.4037609 C22.5244004,48.4037609 24.0188004,47.7909608 25.2364004,46.5661608 C26.4540005,45.3269608 27.0636005,43.8173608 27.0636005,42.0381607 C27.0636005,40.2373607 26.4620005,38.7277607 25.2588004,37.5109607 C24.0628004,36.2853606 22.5828004,35.6733606 20.8180004,35.6733606 C19.0612003,35.6733606 17.5772003,36.2853606 16.3668003,37.5109607 C15.1564003,38.7205607 14.5516003,40.2149607 14.5516003,41.9941607 M11.9812002,41.9613607 C11.9812002,39.5845607 12.8524002,37.5437607 14.5956003,35.8373606 C16.3308003,34.1309606 18.4156003,33.2773606 20.8516004,33.2773606 C23.2572004,33.2773606 25.3204004,34.1381606 27.0412005,35.8589606 C28.7692005,37.5797607 29.6340005,39.6461607 29.6340005,42.0597607 C29.6340005,44.4877608 28.7660005,46.5477608 27.0308005,48.2397609 C25.2876004,49.9389609 23.1844004,50.7877609 20.7196004,50.7877609 C18.5396003,50.7877609 16.5820003,50.0333609 14.8468003,48.5237609 C12.9364002,46.8541608 11.9812002,44.6669608 11.9812002,41.9613607"></path>
                    <path d="M35.3863206,41.2620807 L36.3375206,41.2620807 C38.6783207,41.2620807 39.8487207,40.3612807 39.8487207,38.5604807 C39.8487207,36.8172807 38.6415207,35.9460806 36.2287206,35.9460806 L35.3863206,35.9460806 L35.3863206,41.2620807 Z M35.3863206,43.6236808 L35.3863206,50.4812809 L32.8383206,50.4812809 L32.8383206,33.5948806 L35.7255206,33.5948806 C37.1399207,33.5948806 38.2079207,33.6932806 38.9303207,33.8900806 C39.6591207,34.0868806 40.3007207,34.4588806 40.8551207,35.0060806 C41.8247207,35.9532806 42.3095207,37.1492807 42.3095207,38.5932807 C42.3095207,40.1388807 41.7919207,41.3636807 40.7567207,42.2676807 C39.7207207,43.1724808 38.3247207,43.6236808 36.5679206,43.6236808 L35.3863206,43.6236808 Z"></path>
                    <polygon points="54.252321 35.9902406 47.4827208 35.9902406 47.4827208 40.0478407 54.055521 40.0478407 54.055521 42.4422407 47.4827208 42.4422407 47.4827208 48.0862408 54.252321 48.0862408 54.252321 50.4814409 44.9347208 50.4814409 44.9347208 33.5950406 54.252321 33.5950406"></polygon>
                    <polygon points="57.599201 50.4816809 57.599201 32.4464806 69.9144012 45.3304808 69.9144012 33.5952806 72.4624013 33.5952806 72.4624013 51.5096809 60.1480011 38.6592807 60.1480011 50.4816809"></polygon>
                </g>
            </g>
        </g>
    </g>
</svg>