<?xml version="1.0" encoding="UTF-8"?>
<svg width="139px" height="47px" viewBox="0 0 139 47" version="1.1" xmlns="http://www.w3.org/2000/svg" xmlns:xlink="http://www.w3.org/1999/xlink">
    <!-- Generator: Sketch 43.2 (39069) - http://www.bohemiancoding.com/sketch -->
    <title>logo_experience_hungrygowhere</title>
    <desc>Created with Sketch.</desc>
    <defs></defs>
    <g stroke="none" stroke-width="1" fill="none" fill-rule="evenodd">
        <g transform="translate(-69.000000, -857.000000)">
            <g transform="translate(29.000000, 777.000000)">
                <g transform="translate(39.000000, 80.000000)">
                    <polygon fill="#231F1F" points="95.0308565 25.8264519 90.4822458 25.8264519 88.8928718 32.9133374 88.8039557 32.9133374 87.2812687 25.8264519 83.1966885 25.8264519 81.7392992 32.9133374 81.6948412 32.9133374 79.9943221 25.8264519 75.4471008 25.8264519 79.0231924 37.284116 83.505116 37.284116 85.2056351 30.2402992 85.2487038 30.2402992 86.9061542 37.284116 91.3866885 37.284116"></polygon>
                    <path d="M119.115847,32.5376672 C119.115847,28.0765832 117.151359,25.5383084 112.604137,25.5383084 C108.982198,25.5383084 106.553679,28.2544153 106.553679,31.5887664 C106.553679,35.4093771 109.314244,37.5711481 112.977863,37.5711481 C115.584214,37.5711481 117.990504,36.4235756 118.872718,33.9505985 L114.789527,33.9505985 C114.435252,34.5021557 113.662794,34.7689038 112.957023,34.7689038 C111.58716,34.7689038 110.835542,33.8408427 110.725786,32.5376672 L119.115847,32.5376672 Z M110.748015,30.2647511 C110.948076,29.0282626 111.698305,28.3433313 113.001481,28.3433313 C114.126824,28.3433313 114.921511,29.2047053 114.921511,30.2647511 L110.748015,30.2647511 Z" fill="#231F1F"></path>
                    <path d="M140,32.5376672 C140,28.0765832 138.035511,25.5383084 133.485511,25.5383084 C129.864962,25.5383084 127.437832,28.2544153 127.437832,31.5887664 C127.437832,35.4093771 130.197008,37.5711481 133.862015,37.5711481 C136.466977,37.5711481 138.874656,36.4235756 139.75687,33.9505985 L135.670901,33.9505985 C135.318015,34.5021557 134.546947,34.7689038 133.839786,34.7689038 C132.469924,34.7689038 131.719695,33.8408427 131.60855,32.5376672 L140,32.5376672 Z M131.632168,30.2647511 C131.83084,29.0282626 132.581069,28.3433313 133.884244,28.3433313 C135.009588,28.3433313 135.804275,29.2047053 135.804275,30.2647511 L131.632168,30.2647511 Z" fill="#231F1F"></path>
                    <path d="M102.242224,35.7822687 L102.270011,31.2808947 C102.270011,29.9541008 102.114408,29.027429 100.83485,29.027429 C100.084621,29.027429 99.0898733,29.4025435 99.0898733,31.2350473 L99.0898733,37.284116 L94.7190947,37.284116 L94.7190947,24.7011084 C97.197629,24.3815664 98.4619038,23.2840092 99.0995985,21.9850015 L99.1343313,27.0629405 C99.8845603,26.1793374 100.857079,25.5388641 102.711812,25.5388641 C104.765217,25.5388641 106.640789,26.7961924 106.640789,29.4247725 L106.640789,37.284116 L103.744072,37.284116 C102.914652,37.284116 102.242224,36.6130779 102.242224,35.7822687" fill="#231F1F"></path>
                    <path d="M120.830815,25.8264519 C120.001395,25.8264519 119.328968,26.4988794 119.328968,27.3296885 L119.328968,37.284116 L123.701136,37.284116 L123.701136,32.7577344 C123.701136,30.3083756 124.627808,29.2927878 126.349166,29.2927878 C127.232769,29.2927878 127.630113,29.4247725 128.070525,29.5803756 L128.070525,25.7153069 C127.652342,25.6055511 127.232769,25.5388641 126.789579,25.5388641 C125.201594,25.5388641 124.274922,26.2904824 123.567762,27.6575664 L123.523304,25.8264519 L120.830815,25.8264519 Z" fill="#231F1F"></path>
                    <path d="M62.1223389,25.8264519 L57.7515603,25.8264519 L57.7515603,27.2171542 L57.7071023,27.2171542 C57.1986137,26.0473527 55.9843542,25.5388641 54.7034076,25.5388641 C51.4357435,25.5388641 49.7366137,28.0340702 49.7366137,31.0155359 C49.7366137,34.0831389 51.2606901,36.600574 54.6381099,36.600574 C55.9412855,36.600574 56.999942,36.0267878 57.7071023,35.0098107 L57.7515603,35.0098107 L57.7515603,36.0698565 C57.7515603,37.0201466 57.4417435,38.695658 56.0288122,38.695658 C55.477255,38.695658 55.0132244,38.2552458 54.7478656,37.8592916 C54.6589496,37.7259176 54.5491939,37.5717038 54.5047359,37.4619481 L50.1784153,37.4619481 C50.5757588,40.5531695 53.4460794,41.2811695 56.1621863,41.2811695 C61.5263237,41.2811695 62.1223389,38.0788031 62.1223389,35.805887 L62.1223389,25.8264519 Z M54.1073924,30.9933069 C54.1073924,29.777658 54.7256366,28.7176122 55.9621252,28.7176122 C57.2430718,28.7176122 57.861316,29.7123603 57.861316,30.9696885 C57.861316,32.2506351 57.6848733,33.7969405 56.0718809,33.7969405 C54.5047359,33.7969405 54.1073924,32.2937038 54.1073924,30.9933069 L54.1073924,30.9933069 Z" fill="#231F1F"></path>
                    <path d="M70.1133893,31.5445863 C70.1133893,32.7588458 69.8938779,34.3926779 68.2378168,34.3926779 C66.5803664,34.3926779 66.3594656,32.7588458 66.3594656,31.5445863 C66.3594656,30.3303267 66.5803664,28.7187237 68.2378168,28.7187237 C69.8938779,28.7187237 70.1133893,30.3303267 70.1133893,31.5445863 M74.4855573,31.5445863 C74.4855573,28.3658382 72.5432977,25.5385863 68.2378168,25.5385863 C63.9323359,25.5385863 61.988687,28.3658382 61.988687,31.5445863 C61.988687,34.7247237 63.9323359,37.571426 68.2378168,37.571426 C72.5432977,37.571426 74.4855573,34.7247237 74.4855573,31.5445863" fill="#231F1F"></path>
                    <path d="M26.6538733,16.894142 C24.0308504,16.894142 22.6554305,17.799974 21.5926061,19.051745 L21.530087,9.95730229 L17.4719038,9.95730229 C16.296545,9.95730229 15.3448656,10.9117603 15.3448656,12.0857298 L15.3448656,33.5158824 L21.530087,33.5158824 L21.530087,24.9549359 C21.530087,22.3624779 22.9374611,21.830371 23.9975069,21.830371 C25.8105603,21.830371 26.0300718,23.1418824 26.0300718,25.0160656 L25.9897817,31.3888443 C25.9897817,32.5628137 26.9414611,33.5158824 28.1154305,33.5158824 L32.2152931,33.5158824 L32.2152931,22.3944321 C32.2152931,18.6752412 29.560316,16.894142 26.6538733,16.894142" fill="#E82C2E"></path>
                    <path d="M45.4962916,40.408542 C44.0916962,39.0053359 41.8118336,39.0053359 40.4072382,40.408542 C39.0012534,41.815916 39.0012534,44.093 40.4086275,45.500374 C41.8132229,46.9049695 44.0916962,46.9049695 45.4962916,45.500374 C46.9022763,44.093 46.9022763,41.815916 45.4962916,40.408542" fill="#E82C2E"></path>
                    <path d="M41.4533908,37.4777863 L40.2655282,36.2885344 C47.3176809,27.6261679 46.8064137,14.8542137 38.7345053,6.78369466 C30.1193756,-1.83421374 16.1484443,-1.83421374 7.53053588,6.78369466 C-1.08598321,15.4002137 -1.08598321,29.3697557 7.53053588,37.9848855 C11.8387954,42.2917557 17.4849634,44.4479695 23.129742,44.4479695 L23.1311313,39.8854656 C18.6533756,39.8854656 14.1742305,38.1752214 10.7579099,34.7602901 C3.92249008,27.9248702 3.92249008,16.8423206 10.7579099,10.0082901 C17.5933298,3.17425954 28.6731008,3.17425954 35.5085206,10.0082901 C42.3425511,16.8423206 42.3425511,27.9248702 35.5085206,34.7602901 L33.8955282,36.3732824 L36.7241695,39.199145 C37.5535893,40.0313435 38.8998336,40.0313435 39.7292534,39.199145 L41.4533908,37.4777863 Z" fill="#E82C2E"></path>
                    <path d="M57.2604382,18.6103603 C57.2604382,19.4397802 57.9328656,20.1122076 58.7622855,20.1122076 L61.6590031,20.1122076 L61.6590031,12.2528641 C61.6590031,9.62428397 59.7820412,8.36695573 57.7286366,8.36695573 C55.8752931,8.36695573 54.9041634,9.00603969 54.152545,9.89103206 L54.108087,3.46407023 L51.2391557,3.46407023 C50.4097359,3.46407023 49.7359191,4.13788702 49.7359191,4.96869618 L49.7359191,20.1122076 L54.108087,20.1122076 L54.108087,14.0617496 C54.108087,12.2306351 55.1028351,11.8555206 55.8530641,11.8555206 C57.1340107,11.8555206 57.2868351,12.7821924 57.2868351,14.1075969 L57.2604382,18.6103603 Z" fill="#E82C2E"></path>
                    <path d="M63.7800672,8.65468244 C62.9506473,8.65468244 62.2782198,9.32710992 62.2782198,10.1565298 L62.2782198,16.514026 C62.2782198,19.1412168 64.1551817,20.3999344 66.2071969,20.3999344 C67.952174,20.3999344 69.1233649,19.8039191 69.9388916,18.6549573 L69.9833496,20.1109573 L74.1999145,20.1109573 L74.1999145,8.65468244 L69.8291359,8.65468244 L69.8291359,14.7037511 C69.8291359,16.536255 68.8357771,16.9113695 68.0827695,16.9113695 C66.8046015,16.9113695 66.6489985,15.9833084 66.6489985,14.6592931 L66.6489985,8.65468244 L63.7800672,8.65468244 Z" fill="#E82C2E"></path>
                    <path d="M82.4247863,18.6103603 C82.4247863,19.4397802 83.0986031,20.1122076 83.9280229,20.1122076 L86.7969542,20.1122076 L86.7969542,12.2528641 C86.7969542,9.62428397 84.9199924,8.36695573 82.8679771,8.36695573 C81.123,8.36695573 79.9531985,8.96297099 79.1348931,10.1119328 L79.0918244,8.65454351 L76.3757176,8.65454351 C75.547687,8.65454351 74.8738702,9.32697099 74.8738702,10.1563908 L74.8738702,20.1122076 L79.2460382,20.1122076 L79.2460382,14.0617496 C79.2460382,12.2306351 80.2393969,11.8555206 80.9910153,11.8555206 C82.2705725,11.8555206 82.4247863,12.7821924 82.4247863,14.1075969 L82.4247863,18.6103603 Z" fill="#E82C2E"></path>
                    <path d="M101.280959,8.65468244 C100.451539,8.65468244 99.7777221,9.32710992 99.7777221,10.1565298 L99.7777221,20.1109573 L104.14989,20.1109573 L104.14989,15.5859649 C104.14989,13.1352168 105.077951,12.1210183 106.79931,12.1210183 C107.682913,12.1210183 108.080256,12.2530031 108.522058,12.4086061 L108.522058,8.5435374 C108.102485,8.43378168 107.682913,8.36570534 107.241111,8.36570534 C105.651737,8.36570534 104.725066,9.11871298 104.017905,10.4857969 L103.972058,8.65468244 L101.280959,8.65468244 Z" fill="#E82C2E"></path>
                    <path d="M109.822733,22.3207985 C109.822733,23.148829 110.493771,23.8226458 111.323191,23.8226458 L112.05258,23.8226458 C113.676687,23.8212565 115.329969,23.7767985 116.423359,22.4097145 C117.10829,21.5469511 117.504244,20.2451649 117.859908,19.2295771 L121.656901,8.65412672 L117.12913,8.65412672 L115.275786,15.233913 L113.398824,8.65412672 L108.718229,8.65412672 L110.660489,13.9293481 C110.903618,14.5934397 112.581908,18.8100046 112.581908,19.3615618 C112.581908,19.8700504 112.427695,20.0895618 112.162336,20.2243252 C111.852519,20.3771496 111.278733,20.3326916 110.838321,20.3326916 L109.822733,20.3326916 L109.822733,22.3207985 Z" fill="#E82C2E"></path>
                    <path d="M99.0952916,8.65468244 L94.7231237,8.65468244 L94.7231237,10.0439954 L94.6786656,10.0439954 C94.1715664,8.87419389 92.9573069,8.36570534 91.6763603,8.36570534 C88.4086962,8.36570534 86.7095664,10.8609115 86.7095664,13.8437664 C86.7095664,16.9113695 88.2322534,19.4274153 91.6096733,19.4274153 C92.9128489,19.4274153 93.9728947,18.8550183 94.6786656,17.8380412 L94.7231237,17.8380412 L94.7231237,18.898087 C94.7231237,19.8483771 94.4146962,21.5266672 93.0017649,21.5266672 C92.4502076,21.5266672 91.9861771,21.0834763 91.7208183,20.6875221 C91.6332916,20.5541481 91.5221466,20.3999344 91.4776885,20.2887893 L87.1499786,20.2887893 C87.5473221,23.3814 90.4190321,24.1107893 93.1337496,24.1107893 C98.4992763,24.1107893 99.0952916,20.9084229 99.0952916,18.6341176 L99.0952916,8.65468244 Z M91.0817344,13.8201481 C91.0817344,12.6058885 91.6985893,11.5458427 92.9350779,11.5458427 C94.2160244,11.5458427 94.8328794,12.5405908 94.8328794,13.7979191 C94.8328794,15.0788656 94.6564366,16.625171 93.0462229,16.625171 C91.4776885,16.625171 91.0817344,15.1233237 91.0817344,13.8201481 L91.0817344,13.8201481 Z" fill="#E82C2E"></path>
                </g>
            </g>
        </g>
    </g>
</svg>