<?xml version="1.0" encoding="UTF-8"?>
<svg width="120px" height="32px" viewBox="0 0 120 32" version="1.1" xmlns="http://www.w3.org/2000/svg" xmlns:xlink="http://www.w3.org/1999/xlink">
    <!-- Generator: Sketch 43.2 (39069) - http://www.bohemiancoding.com/sketch -->
    <title>logo_smashingmag</title>
    <desc>Created with Sketch.</desc>
    <defs></defs>
    <g stroke="none" stroke-width="1" fill="none" fill-rule="evenodd">
        <g transform="translate(-54.000000, -857.000000)">
            <g transform="translate(29.000000, 777.000000)">
                <g transform="translate(25.000000, 79.982206)">
                    <path d="M43.993879,12.8916726 C43.4235587,12.5912456 42.5434164,12.3006406 41.3532384,12.0198577 C40.163274,11.7388612 39.4138078,11.468968 39.1052669,11.2097509 C38.8629181,11.0060498 38.741637,10.7607117 38.741637,10.4741637 C38.741637,10.1602847 38.871032,9.90960854 39.1302491,9.72213523 C39.5323132,9.43024911 40.0887544,9.28419929 40.799573,9.28419929 C41.4881851,9.28419929 42.0046975,9.42064057 42.3491103,9.69330961 C42.6935231,9.96597865 42.9179359,10.4137367 43.0227758,11.0363701 L45.4691103,10.9287544 C45.4304626,9.81587189 45.0269039,8.926121 44.2582206,8.25928826 C43.4897509,7.59288256 42.3450534,7.25935943 40.8243416,7.25935943 C39.8931673,7.25935943 39.0984342,7.39985765 38.4401423,7.68085409 C37.781637,7.96185053 37.2775089,8.37096085 36.927758,8.90818505 C36.5777936,9.44519573 36.4029181,10.0225623 36.4029181,10.6396441 C36.4029181,11.5981495 36.7748754,12.411032 37.5185765,13.0776512 C38.0474733,13.5514591 38.9675445,13.9509609 40.2790036,14.2759431 C41.2981495,14.529395 41.9511032,14.7057651 42.2376512,14.8048399 C42.6561566,14.9536655 42.9495374,15.1285409 43.1177936,15.3296797 C43.2858363,15.5308185 43.3699644,15.7746619 43.3699644,16.0609964 C43.3699644,16.5072598 43.1701068,16.897153 42.7708185,17.2304626 C42.3711032,17.5641993 41.7775089,17.7305338 40.9896085,17.7305338 C40.2459075,17.7305338 39.6548754,17.5437011 39.2169395,17.1685409 C38.7790036,16.7938078 38.4881851,16.2068327 38.344911,15.4082562 L35.9647687,15.6395018 C36.1246975,16.9949466 36.6149466,18.0269039 37.4359431,18.7347331 C38.256726,19.4425623 39.4330249,19.7965836 40.9648399,19.7965836 C42.0170819,19.7965836 42.8959431,19.6492527 43.60121,19.3543772 C44.3064769,19.0599288 44.8518149,18.6096085 45.2376512,18.0032028 C45.623274,17.3972242 45.8160854,16.7470463 45.8160854,16.0528826 C45.8160854,15.2869751 45.6548754,14.6436299 45.332669,14.1230605 C45.0102491,13.6024911 44.5639858,13.1918861 43.993879,12.8916726 L43.993879,12.8916726 Z M78.165694,12.8916726 C77.5955872,12.5912456 76.7154448,12.3006406 75.5252669,12.0198577 C74.3353025,11.7388612 73.5858363,11.468968 73.2775089,11.2097509 C73.0347331,11.0060498 72.9136655,10.7607117 72.9136655,10.4741637 C72.9136655,10.1602847 73.0430605,9.90960854 73.3022776,9.72213523 C73.7043416,9.43024911 74.2607829,9.28419929 74.9716014,9.28419929 C75.6602135,9.28419929 76.176726,9.42064057 76.5211388,9.69330961 C76.8653381,9.96597865 77.0899644,10.4137367 77.1945907,11.0363701 L79.6409253,10.9287544 C79.6022776,9.81587189 79.1989324,8.926121 78.4302491,8.25928826 C77.6617794,7.59288256 76.5168683,7.25935943 74.9963701,7.25935943 C74.0649822,7.25935943 73.2702491,7.39985765 72.6119573,7.68085409 C71.953452,7.96185053 71.4493238,8.37096085 71.099573,8.90818505 C70.7496085,9.44519573 70.5747331,10.0225623 70.5747331,10.6396441 C70.5747331,11.5981495 70.9466904,12.411032 71.690605,13.0776512 C72.2195018,13.5514591 73.1393594,13.9509609 74.451032,14.2759431 C75.4699644,14.529395 76.1229181,14.7057651 76.4094662,14.8048399 C76.8281851,14.9536655 77.1215658,15.1285409 77.2898221,15.3296797 C77.4576512,15.5308185 77.5417794,15.7746619 77.5417794,16.0609964 C77.5417794,16.5072598 77.3419217,16.897153 76.942847,17.2304626 C76.5429181,17.5641993 75.9493238,17.7305338 75.161637,17.7305338 C74.4177224,17.7305338 73.8269039,17.5437011 73.388968,17.1685409 C72.9508185,16.7938078 72.6602135,16.2068327 72.5169395,15.4082562 L70.1370107,15.6395018 C70.2965125,16.9949466 70.7867616,18.0269039 71.6079715,18.7347331 C72.4287544,19.4425623 73.6050534,19.7965836 75.1368683,19.7965836 C76.1888968,19.7965836 77.067758,19.6492527 77.7732384,19.3543772 C78.4782918,19.0599288 79.0238434,18.6096085 79.4094662,18.0032028 C79.795089,17.3972242 79.9881139,16.7470463 79.9881139,16.0528826 C79.9881139,15.2869751 79.8269039,14.6436299 79.5046975,14.1230605 C79.1824911,13.6024911 78.7360142,13.1918861 78.165694,12.8916726 L78.165694,12.8916726 Z M91.9618505,19.5518861 L94.5224199,19.5518861 L94.5224199,7.43572954 L91.9618505,7.43572954 L91.9618505,19.5518861 Z M103.414591,15.526548 L98.2667616,7.43572954 L95.7958719,7.43572954 L95.7958719,19.5514591 L98.155089,19.5514591 L98.155089,11.6506762 L103.225836,19.5514591 L105.774021,19.5514591 L105.774021,7.43572954 L103.414591,7.43572954 L103.414591,15.526548 Z M88.1581495,12.2043416 L83.2667616,12.2043416 L83.2667616,7.43572954 L80.7702491,7.43572954 L80.7702491,19.5518861 L83.2667616,19.5518861 L83.2667616,14.2539502 L88.1581495,14.2539502 L88.1581495,19.5518861 L90.6544484,19.5518861 L90.6544484,7.43572954 L88.1581495,7.43572954 L88.1581495,12.2043416 Z M63.8148043,7.43572954 L59.3555872,19.5514591 L61.8079004,19.5514591 L62.7527402,16.7993594 L67.3291815,16.7993594 L68.3288968,19.5514591 L70.8433452,19.5514591 L66.2592171,7.43572954 L63.8148043,7.43572954 Z M63.4633452,14.7580783 L65.0096797,10.2621352 L66.5874021,14.7580783 L63.4633452,14.7580783 Z M52.8091815,15.8004982 L50.1883986,7.43572954 L46.2990747,7.43572954 L46.2990747,19.6985765 L48.8241993,19.6985765 L48.8241993,11.289395 L51.4870463,19.6985765 L54.1039858,19.6985765 L56.7758007,11.289395 L56.7758007,19.6985765 L59.3009253,19.6985765 L59.3009253,7.43572954 L55.4026335,7.43572954 L52.8091815,15.8004982 Z M112.767972,14.5584342 L112.819431,14.6009253 L114.406975,16.1882562 L115.719075,16.0411388 C115.031103,16.7888968 114.047402,17.2599288 112.95331,17.2599288 C110.877224,17.2599288 109.187616,15.5701068 109.187616,13.4935943 C109.187616,11.4170819 110.877224,9.72747331 112.95331,9.72747331 C114.286762,9.72747331 115.457936,10.426121 116.127331,11.4745196 L118.337295,10.717153 C117.33032,8.76875445 115.298221,7.43572954 112.953523,7.43572954 C109.608043,7.43572954 106.895658,10.1479004 106.895658,13.4935943 C106.895658,16.8392883 109.608043,19.5518861 112.953523,19.5518861 C114.617082,19.5518861 116.123488,18.8809964 117.218007,17.7952313 L117.174875,18.9563701 L118.692384,20.473879 L119.928256,13.4160854 L112.767972,14.5584342 L112.767972,14.5584342 Z" fill="#8F9EBC"></path>
                    <path d="M63.6980071,27.1353737 L65.7719573,27.1353737 L65.7719573,28.4417082 C65.5449822,28.6394306 65.2381495,28.8100356 64.8525267,28.9537367 C64.4669039,29.0972242 64.0896085,29.1691815 63.7217082,29.1691815 C62.9500356,29.1691815 62.3233452,28.9351601 61.841637,28.467331 C61.3597153,27.9995018 61.1188612,27.2961566 61.1188612,26.3575089 C61.1188612,25.7412811 61.2313879,25.2192171 61.4566548,24.7911032 C61.6819217,24.3632028 61.9797865,24.0480427 62.3498221,23.8451957 C62.7198577,23.6423488 63.161637,23.5411388 63.6747331,23.5411388 C64.0270463,23.5411388 64.3443416,23.5968683 64.6264057,23.7085409 C64.9082562,23.8202135 65.1354448,23.9741637 65.3079715,24.1703915 C65.4800712,24.3666192 65.6233452,24.6623488 65.7369395,25.0580071 L66.577153,24.8284698 C66.4516014,24.3275445 66.2637011,23.9335943 66.0130249,23.6464057 C65.7621352,23.3592171 65.4429181,23.1373665 65.0553737,22.9808541 C64.6676157,22.8249822 64.2151601,22.7466192 63.6980071,22.7466192 C62.9970107,22.7466192 62.3897509,22.8815658 61.8768683,23.1512456 C61.3635587,23.4211388 60.9484698,23.8400712 60.6311744,24.4084698 C60.3140925,24.9766548 60.1550178,25.6439146 60.1550178,26.4100356 C60.1550178,27.1667616 60.3130249,27.8148043 60.6283986,28.3543772 C60.9435587,28.8939502 61.3714591,29.3043416 61.9120996,29.5851246 C62.4525267,29.866121 63.0674733,30.0066192 63.7569395,30.0066192 C64.273879,30.0066192 64.777153,29.9148043 65.2667616,29.7313879 C65.4373665,29.6675445 65.6054093,29.5887544 65.7719573,29.5027046 L65.7719573,29.9314591 L66.6851957,29.9314591 L66.6851957,28.9131673 C66.6862633,28.9123132 66.6875445,28.9114591 66.6886121,28.910605 L66.6886121,26.3024199 L63.6980071,26.307331 L63.6980071,27.1353737 Z M41.2940925,27.7524555 C41.1254093,28.2437722 41.0000712,28.6187189 40.9176512,28.8770819 L40.5824199,27.8387189 L38.9060498,22.8711032 L37.5014947,22.8711032 L37.5014947,29.8868327 L38.400427,29.8868327 L38.400427,23.9182206 L40.4479004,29.8868327 L41.2874733,29.8868327 L43.3469039,24.0194306 L43.3469039,29.8868327 L44.2456228,29.8868327 L44.2456228,22.8711032 L42.9881851,22.8711032 L41.2940925,27.7524555 Z M51.9219929,22.8711032 L49.3761566,29.8868327 L50.2972954,29.8868327 L51.0147331,27.7620641 L53.7920285,27.7620641 L54.5598577,29.8868327 L55.5593594,29.8868327 L52.8559431,22.8711032 L51.9219929,22.8711032 Z M51.2703203,27.0057651 L52.0046263,24.9478292 C52.1602847,24.5045552 52.2809253,24.0578648 52.3663345,23.6079715 C52.4649822,23.9814235 52.620427,24.4663345 52.8328826,25.0627046 L53.5189324,27.0057651 L51.2703203,27.0057651 Z M74.0833452,22.8711032 L71.5372954,29.8868327 L72.4586477,29.8868327 L73.1758719,27.7620641 L75.9531673,27.7620641 L76.7209964,29.8868327 L77.7204982,29.8868327 L75.0172954,22.8711032 L74.0833452,22.8711032 Z M73.4312456,27.0057651 L74.1657651,24.9478292 C74.321637,24.5045552 74.4422776,24.0578648 74.5272598,23.6079715 C74.626121,23.9814235 74.7817794,24.4663345 74.9940214,25.0627046 L75.6800712,27.0057651 L73.4312456,27.0057651 Z M104.216157,28.3904626 L100.745552,22.8711032 L99.8506762,22.8711032 L99.8506762,29.8868327 L100.690676,29.8868327 L100.690676,24.3666192 L104.15573,29.8868327 L105.050819,29.8868327 L105.050819,22.8711032 L104.216157,22.8711032 L104.216157,28.3904626 Z M111.921779,29.05879 L111.921779,26.6709609 L115.573452,26.6709609 L115.573452,25.8431317 L111.921779,25.8431317 L111.921779,23.6991459 L115.820498,23.6991459 L115.820498,22.8711032 L111.04847,22.8711032 L111.04847,29.8868327 L115.974021,29.8868327 L115.974021,29.05879 L111.921779,29.05879 Z M92.9799288,29.8868327 L93.8530249,29.8868327 L93.8530249,22.8711032 L92.9799288,22.8711032 L92.9799288,29.8868327 Z M83.8985765,28.5659786 L87.599573,23.6991459 L87.599573,22.8711032 L82.8715302,22.8711032 L82.8715302,23.6991459 L86.5560854,23.6991459 C86.3329537,23.9414947 86.104484,24.2188612 85.8704626,24.5316726 L82.4927402,29.0254804 L82.4927402,29.8868327 L87.7093238,29.8868327 L87.7093238,29.05879 L83.4975801,29.05879 L83.8985765,28.5659786 L83.8985765,28.5659786 Z" fill="#BFC9DB"></path>
                    <path d="M14.0852669,18.2991459 C9.86925267,16.7062633 6.32775801,13.8617082 6.09266904,10.1594306 C5.94256228,7.79765125 6.53743772,5.7341637 8.0741637,3.9969395 L1.80128114,5.49715302 C0.540854093,5.79843416 -0.23658363,7.06462633 0.064911032,8.32505338 L5.28341637,30.1490391 C5.58491103,31.4092527 6.85088968,32.1869039 8.11131673,31.8854093 L10.7970107,31.2431317 C9.75459075,30.8976512 7.95245552,30.2397865 6.22483986,29.3184342 L8.72882562,23.6382918 C8.72882562,23.6382918 11.6758719,26.2624911 15.9072598,26.2624911 C20.1386477,26.2624911 22.0191459,21.2963701 14.0852669,18.2991459 M31.6716726,23.8385765 L26.4531673,2.01501779 C26.1516726,0.754377224 24.885694,-0.0228469751 23.6252669,0.278434164 L19.1301779,1.35330961 C20.2757295,1.53395018 22.545694,2.03039146 25.0458363,3.34206406 L23.0886833,8.76661922 C23.0886833,8.76661922 21.4595018,6.94718861 17.0914591,6.72597865 C12.9392883,6.51565836 10.6296085,11.007758 18.7281139,13.6560854 C24.9283986,15.6837011 26.9118149,19.5918149 26.8091103,23.2063345 C26.755516,25.0857651 26.0980783,26.6141637 25.3360142,27.766548 L29.9353025,26.6669039 C31.1957295,26.3656228 31.9731673,25.0992171 31.6716726,23.8385765" fill="#8F9EBC"></path>
                </g>
            </g>
        </g>
    </g>
</svg>