<?xml version="1.0" encoding="UTF-8"?>
<svg width="81px" height="90px" viewBox="0 0 81 90" version="1.1" xmlns="http://www.w3.org/2000/svg" xmlns:xlink="http://www.w3.org/1999/xlink">
    <!-- Generator: Sketch 43.2 (39069) - http://www.bohemiancoding.com/sketch -->
    <title>logo_experience_intersective</title>
    <desc>Created with Sketch.</desc>
    <defs></defs>
    <g stroke="none" stroke-width="1" fill="none" fill-rule="evenodd">
        <g transform="translate(-284.000000, -832.000000)">
            <g transform="translate(244.000000, 777.000000)">
                <g transform="translate(40.000000, 55.000000)">
                    <polygon fill="#6BD2E3" points="39.8849698 0.45198995 7.83909045 19.1751558 18.9773819 38.2384221 32.0459246 30.6028945 39.6312513 43.5855075 58.6081357 32.4978693"></polygon>
                    <polygon fill="#C5DC72" points="0 49.3259246 18.7231658 81.371804 37.5236683 70.3877337 30.1509045 57.7682864 43.3962814 50.029191 39.631206 43.5853719 26.5622111 51.2208995 18.9773367 38.2382864"></polygon>
                    <polygon fill="#9FCD72" points="39.631206 43.5855075 32.0458794 30.6028945 18.9768844 38.2384221 26.5622111 51.2210352"></polygon>
                    <polygon fill="#D5E698" points="43.3960553 50.0292814 50.7692714 62.6487286 37.5238945 70.3873719 48.8738442 89.8142563 80.9197236 71.0910905 62.1965578 39.0452111"></polygon>
                    <polygon fill="#B3D753" points="43.3961005 50.0294623 30.1507236 57.7681055 37.5234874 70.3875528 50.7688643 62.6489095"></polygon>
                </g>
            </g>
        </g>
    </g>
</svg>