<?xml version="1.0" encoding="UTF-8"?>
<svg width="108px" height="27px" viewBox="0 0 108 27" version="1.1" xmlns="http://www.w3.org/2000/svg" xmlns:xlink="http://www.w3.org/1999/xlink">
    <!-- Generator: Sketch 43.2 (39069) - http://www.bohemiancoding.com/sketch -->
    <title>logo_gestalten</title>
    <desc>Created with Sketch.</desc>
    <defs></defs>
    <g stroke="none" stroke-width="1" fill="none" fill-rule="evenodd">
        <g transform="translate(-59.000000, -860.000000)" fill="#8F9EBC">
            <g transform="translate(29.000000, 777.000000)">
                <g transform="translate(30.000000, 83.500000)">
                    <path d="M17.00838,10.1212 C17.00838,8.9924 17.9171229,8.1084 19.0750371,8.1084 L20.9820086,8.1084 C22.1422371,8.1084 23.0494371,8.9924 23.0494371,10.1212 L23.0494371,11.7404 L17.00838,11.7404 L17.00838,10.1212 Z M14.4024943,15.71 C14.4024943,18.3356 16.3997229,20.3924 18.9477514,20.3924 L21.3638657,20.3924 C23.4575229,20.3924 25.6252371,18.9716 25.6252371,16.5964 L25.6252371,16.5412 L22.9869514,16.5412 L22.9869514,16.6388 C22.8542657,17.494 22.26798,17.9612 21.3306943,17.9612 L19.1375229,17.9612 C17.96418,17.9612 17.00838,17.058 17.00838,15.95 L17.00838,14.0748 L25.6576371,14.0748 L25.6576371,10.3948 C25.6576371,7.7668 23.6310943,5.71 21.0460371,5.71 L19.01178,5.71 C16.4691514,5.71 14.4024943,7.8412 14.4024943,10.4588 L14.4024943,15.71 Z M84.9920657,10.1212 C84.9920657,8.9924 85.8984943,8.1084 87.0556371,8.1084 L88.9649229,8.1084 C90.12438,8.1084 91.0300371,8.9924 91.0300371,10.1212 L91.0300371,11.7404 L84.9920657,11.7404 L84.9920657,10.1212 Z M82.3830943,15.71 C82.3830943,18.3356 84.37878,20.3924 86.9283514,20.3924 L89.3429229,20.3924 C91.4412086,20.3924 93.60738,18.9716 93.60738,16.5964 L93.60738,16.5412 L90.9690943,16.5412 L90.9690943,16.6388 C90.8379514,17.494 90.2516657,17.9612 89.3128371,17.9612 L87.1196657,17.9612 C85.9463229,17.9612 84.9920657,17.058 84.9920657,15.95 L84.9920657,14.0748 L93.63978,14.0748 L93.63978,10.3948 C93.63978,7.7668 91.6132371,5.71 89.0289514,5.71 L86.9954657,5.71 C84.4512943,5.71 82.3830943,7.8412 82.3830943,10.4588 L82.3830943,15.71 Z M39.6459514,15.4764 C39.6459514,13.258 38.18718,11.6492 36.1760657,11.6492 L32.3235514,11.6492 C31.6794086,11.6492 31.1741229,11.1404 31.1741229,10.4908 L31.1741229,9.3004 C31.1741229,8.6316 31.6794086,8.1092 32.3235514,8.1092 L35.2349229,8.1092 C36.1228371,8.1092 36.5741229,8.5316 36.5741229,9.3652 L36.5741229,9.5948 L39.2424943,9.5948 L39.2424943,9.506 C39.2424943,7.4124 37.5438086,5.71 35.4540086,5.71 L32.4176657,5.71 C30.2584371,5.71 28.5674657,7.35 28.5674657,9.4412 L28.5674657,10.3236 C28.5674657,12.4548 30.2160086,14.122 32.3235514,14.122 L35.8890943,14.122 C36.52398,14.122 37.03698,14.6708 37.03698,15.3452 L37.03698,16.7364 C37.03698,17.4004 36.4992943,17.9612 35.8590086,17.9612 L32.1330086,17.9612 C31.3654371,17.9612 30.8894657,17.466 30.8894657,16.6716 L30.8894657,16.5396 L28.2519514,16.5396 L28.2519514,16.5964 C28.2519514,18.7244 29.8719514,20.3916 31.94478,20.3916 L35.8590086,20.3916 C37.9827514,20.3916 39.6459514,18.7524 39.6459514,16.6628 L39.6459514,15.4764 Z M54.3794657,15.302 C54.3794657,14.626 54.8970943,14.0772 55.5288943,14.0772 L60.2808943,14.0772 L60.2808943,15.8556 C60.2808943,17.1556 59.5048371,17.9628 58.2612943,17.9628 L55.5288943,17.9628 C54.8970943,17.9628 54.3794657,17.4108 54.3794657,16.7348 L54.3794657,15.302 Z M55.5612943,20.3916 L57.8964086,20.3916 C58.9216371,20.3916 59.7532371,19.9028 60.1806086,19.0524 L60.2454086,18.9284 L60.3719229,20.1292 L62.8875514,20.1292 L62.8875514,9.5724 C62.8875514,7.334 61.2945514,5.7108 59.0998371,5.7108 L56.09358,5.7108 C54.0300086,5.7108 52.3598657,7.3844 52.2788657,9.5284 L54.88398,9.5284 C54.9395229,8.9236 55.4093229,8.1084 56.09358,8.1084 L59.0998371,8.1084 C59.7501514,8.1084 60.2808943,8.642 60.2808943,9.2988 L60.2808943,11.7404 L55.5612943,11.7404 C53.4722657,11.7404 51.77358,13.49 51.77358,15.638 L51.77358,16.4628 C51.77358,18.3692 53.1027514,20.3916 55.5612943,20.3916 L55.5612943,20.3916 Z M66.4546371,20.1276 L69.0628371,20.1276 L69.0628371,0.0004 L66.4546371,-0.0004 L66.4546371,20.1276 Z M47.9388086,20.1292 L49.7516657,20.1292 L49.7516657,17.6996 L48.0954086,17.6996 C46.9822371,17.6996 46.3188086,17.038 46.3188086,15.926 L46.3188086,8.3708 L49.7516657,8.3708 L49.7516657,5.9732 L46.3188086,5.9732 L46.3188086,0.5796 L43.7129229,0.5796 L43.7129229,5.9732 L41.3700943,5.9732 L41.3700943,8.3708 L43.7129229,8.3708 L43.7129229,15.8492 C43.7129229,18.4892 45.3306086,20.1292 47.9388086,20.1292 L47.9388086,20.1292 Z M80.0472086,20.1292 L80.0472086,17.6996 L78.39018,17.6996 C77.27778,17.6996 76.6128086,17.038 76.6128086,15.926 L76.6128086,8.3708 L80.0472086,8.3708 L80.0472086,5.9732 L76.6128086,5.9732 L76.6128086,0.5796 L74.0046086,0.5796 L74.0046086,5.9732 L71.6633229,5.9732 L71.6633229,8.3708 L74.0046086,8.3708 L74.0046086,15.8492 C74.0046086,18.4892 75.6246086,20.1292 78.23358,20.1292 L80.0472086,20.1292 Z M103.359009,8.1084 C104.499951,8.1084 105.393266,8.9924 105.393266,10.1196 L105.393266,20.1292 L107.999923,20.1292 L107.999923,10.3604 C107.999923,7.5348 106.22718,5.7092 103.484751,5.7092 L101.683466,5.7092 C100.807894,5.7092 99.9192086,6.2492 99.4632943,6.7476 L99.40158,6.8164 L99.3344657,5.974 L96.8188371,5.974 L96.8188371,20.1292 L99.4262657,20.1292 L99.4262657,10.0548 C99.4262657,8.9276 100.268666,8.1084 101.429666,8.1084 L103.359009,8.1084 Z M4.64083714,17.9628 C3.48292286,17.9628 2.60812286,17.1108 2.60812286,15.9812 L2.60812286,10.1212 C2.60812286,8.9916 3.50066571,8.1092 4.64083714,8.1092 L6.63498,8.1092 C7.73966571,8.1092 8.63838,8.954 8.63838,9.9892 L8.63838,15.9812 C8.63838,17.1108 7.77669429,17.9628 6.63498,17.9628 L4.64083714,17.9628 Z M6.88800857,26.0028 C9.49543714,26.0028 11.2450371,24.278 11.2450371,21.7132 L11.2450371,5.974 L8.72940857,5.9732 L8.66306571,6.8844 L8.59980857,6.8132 C8.22798,6.4012 7.41026571,5.7108 6.09729429,5.7108 L4.54749429,5.7108 C1.99715143,5.7108 -7.71428571e-05,7.7516 -7.71428571e-05,10.3604 L-7.71428571e-05,15.7396 C-7.71428571e-05,18.35 1.98249429,20.3916 4.51509429,20.3916 L6.38195143,20.3916 C7.31460857,20.3916 8.08680857,19.9492 8.57280857,19.578 L8.63838,19.5276 L8.63838,21.9884 C8.63838,23.0812 7.80832286,23.5724 6.98366571,23.5724 L4.76966571,23.5724 C3.79920857,23.5724 3.13423714,23.0412 3.02315143,22.1836 L0.414951429,22.1836 C0.600094286,24.4348 2.37129429,26.0028 4.73649429,26.0028 L6.88800857,26.0028 Z"></path>
                </g>
            </g>
        </g>
    </g>
</svg>