<?xml version="1.0" encoding="UTF-8"?>
<svg width="120px" height="19px" viewBox="0 0 120 19" version="1.1" xmlns="http://www.w3.org/2000/svg" xmlns:xlink="http://www.w3.org/1999/xlink">
    <!-- Generator: Sketch 43.2 (39069) - http://www.bohemiancoding.com/sketch -->
    <title>logo_boingboing</title>
    <desc>Created with Sketch.</desc>
    <defs></defs>
    <g stroke="none" stroke-width="1" fill="none" fill-rule="evenodd">
        <g transform="translate(-54.000000, -866.000000)" fill="#8F9EBC">
            <g transform="translate(29.000000, 777.000000)">
                <g transform="translate(25.000000, 89.000000)">
                    <path d="M20.1397665,9.28403635 C20.1397665,7.94264523 20.1375855,6.60121216 20.1429962,5.25982104 C20.1435834,5.11826215 20.1158588,5.06864313 19.9631849,5.07241804 C19.5163202,5.08344914 19.0689941,5.07980007 18.6219196,5.07401188 C18.5042684,5.07250192 18.4523845,5.08793708 18.4526361,5.22857323 C18.4573338,7.92536456 18.4573338,10.6221559 18.4526361,13.3189472 C18.4523845,13.459877 18.5048137,13.4748088 18.6221293,13.4732569 C19.0621992,13.4675107 19.5026886,13.4616805 19.942381,13.4755638 C20.1147683,13.4810164 20.143877,13.4227571 20.1431639,13.2663502 C20.137208,11.9389262 20.1397665,10.6114603 20.1397665,9.28403635 M25.1699937,18.5011772 L13.4258483,18.5011772 C13.4268549,18.4174163 13.4287005,18.3336554 13.4287005,18.2498944 C13.4288263,13.0268535 13.4289521,7.80377071 13.4287005,2.58072981 C13.4286585,1.73586438 13.4268549,0.890998951 13.4258483,0.0460915764 L25.1699937,0.0460915764 C25.169029,0.129852499 25.1671835,0.213613422 25.1671416,0.297374345 C25.1670157,5.50649004 25.1668899,10.7155638 25.1671835,15.9246795 C25.1672254,16.7835121 25.169029,17.6423446 25.1699937,18.5011772"></path>
                    <path d="M81.3770877,9.27478364 C81.3770877,7.93339252 81.3754939,6.59195945 81.3796463,5.25056833 C81.3800657,5.12196994 81.3582132,5.06924712 81.2122503,5.07256064 C80.758381,5.08292066 80.3039664,5.0819979 79.8500552,5.07285425 C79.7157945,5.07016987 79.6905865,5.11295211 79.6907543,5.23781755 C79.6942775,7.92760433 79.6947808,10.6174331 79.6898315,13.3072199 C79.6895379,13.4545669 79.7416316,13.4754128 79.86872,13.4735253 C80.308748,13.4668563 80.7491954,13.4625362 81.1889717,13.4753289 C81.3511248,13.4800685 81.3814079,13.4301139 81.3806949,13.2780273 C81.3744872,11.9436407 81.3770877,10.6092122 81.3770877,9.27478364 M74.6631695,0.0461083537 L86.4073569,0.0461083537 C86.4063502,0.129869276 86.4045047,0.213630199 86.4045047,0.297391122 C86.4043789,4.94090038 86.4041692,9.5843677 86.4045047,14.227877 C86.4046305,15.652316 86.4063502,17.076755 86.4073569,18.501194 L74.6631695,18.501194 C74.6641762,18.4174331 74.6660217,18.3336721 74.6660217,18.2499112 C74.6661475,13.0547627 74.6662733,7.85965606 74.6660217,2.66450751 C74.6659797,1.79170779 74.6641762,0.918908074 74.6631695,0.0461083537"></path>
                    <path d="M108.217896,0.0461041594 C112.076686,0.0461041594 115.935477,0.0471108004 119.794268,0.0420775952 C119.937882,0.0419098217 119.966739,0.0701796575 119.966194,0.213877665 C119.95965,1.83566026 119.962041,3.4574848 119.962041,5.07930933 C117.774149,5.07830269 115.586298,5.07817686 113.398406,5.07402447 C113.282475,5.07377281 113.245439,5.10242013 113.245606,5.223259 C113.248962,7.92143446 113.249381,10.6196099 113.244726,13.3177854 C113.244474,13.4572052 113.294009,13.4750731 113.41317,13.4733953 C113.85345,13.4672296 114.294191,13.4617351 114.734135,13.4755764 C114.906145,13.4809451 114.935505,13.4233569 114.935128,13.2664467 C114.930094,11.1764082 114.934037,9.0863698 114.927829,6.99633135 C114.927284,6.81471653 114.960629,6.75364698 115.159944,6.75469556 C116.760629,6.76321007 118.361314,6.75805103 119.962041,6.75704439 C119.962041,10.615835 119.961035,14.4746257 119.966068,18.3334163 C119.966236,18.4770304 119.937882,18.5053841 119.794268,18.5052164 C115.935477,18.5001832 112.076686,18.5011898 108.217896,18.5011898 C108.218861,18.4174289 108.220706,18.3336679 108.220706,18.249907 C108.220874,13.6063978 108.221084,8.96293044 108.220706,4.31942118 C108.22058,2.89498217 108.218861,1.47054317 108.217896,0.0461041594"></path>
                    <path d="M58.7247033,18.501194 L46.9805578,18.501194 C46.9815225,18.4174331 46.98341,18.3336721 46.98341,18.2499112 C46.9835358,13.0687298 46.9836617,7.88759035 46.9833681,2.70640895 C46.9833261,1.81964208 46.9815645,0.932875218 46.9805578,0.0461083537 L58.7247033,0.0461083537 C58.7236966,1.64620622 58.7188312,3.24634603 58.7268004,4.84640196 C58.7277651,5.0414806 58.6729451,5.08120098 58.4873876,5.08061377 C56.3911835,5.07386089 54.2949374,5.07654526 52.1986914,5.07574834 C52.0918196,5.0757064 52.0059616,5.0560769 52.006339,5.22749948 C52.0127144,7.9246683 52.0120433,10.6218371 52.0073037,13.3190059 C52.007094,13.4600615 52.059733,13.4747836 52.1769228,13.4732317 C52.6170765,13.4675274 53.0576078,13.4615715 53.4973841,13.4756225 C53.6704844,13.481159 53.6980832,13.4217253 53.6977476,13.2659476 C53.6928403,11.176706 53.6981671,9.08742258 53.6887718,6.998223 C53.6878071,6.78817057 53.7477861,6.7540706 53.9415225,6.75524502 C55.4018651,6.76401118 56.8622915,6.76002656 58.322676,6.76002656 C58.7217253,6.76002656 58.7216414,6.76002656 58.7217672,7.16058581 C58.7227319,10.9407746 58.7236966,14.7210052 58.7247033,18.501194"></path>
                    <path d="M94.7960154,0.0461041594 L106.540161,0.0461041594 C106.539196,0.129865082 106.537351,0.213626005 106.537351,0.297386928 C106.537183,5.46460119 106.537099,10.6317735 106.537351,15.7989878 C106.537393,16.6997218 106.539196,17.6004558 106.540161,18.5011898 L101.506956,18.5011898 C101.50792,17.865454 101.509724,17.2296763 101.509766,16.5939406 C101.510017,12.8281804 101.508256,9.06237819 101.514757,5.29661797 C101.515093,5.10892136 101.467487,5.06542607 101.28625,5.07171758 C100.867571,5.08627193 100.447801,5.08396505 100.028913,5.07247256 C99.8677665,5.06806851 99.8209158,5.10804055 99.8220063,5.27568822 C99.8299755,6.47732401 99.8259909,7.67904369 99.8263265,8.88072143 C99.8271234,12.0875442 99.8282139,15.294367 99.8292206,18.5011898 L94.7960154,18.5011898 C94.7969801,18.4174289 94.7988256,18.3336679 94.7988256,18.249907 C94.7989934,13.0826928 94.7991192,7.91552045 94.7988256,2.74830619 C94.7987836,1.84757218 94.7969801,0.946838168 94.7960154,0.0461041594"></path>
                    <path d="M38.5918868,18.501194 L33.5586816,18.501194 C33.5596882,18.4174331 33.5615337,18.3336721 33.5615337,18.2499112 C33.5616596,13.0547627 33.5617854,7.85965606 33.5614918,2.66454946 C33.5614498,1.79170779 33.5596463,0.918908074 33.5586816,0.0461083537 L45.302827,0.0461083537 C45.3018203,0.129869276 45.2999748,0.213630199 45.2999748,0.297391122 C45.299849,5.47857253 45.2997232,10.659712 45.3000168,15.8408934 C45.3000587,16.7276603 45.3018203,17.6144271 45.302827,18.501194 L40.2696218,18.501194 C40.2705865,17.837482 40.2723901,17.173812 40.272432,16.5101 C40.2727256,12.772274 40.2709221,9.0344481 40.2774233,5.29662216 C40.2777588,5.10892555 40.2301531,5.06543027 40.0489158,5.07172178 C39.630237,5.08627613 39.2104677,5.08396924 38.7915792,5.07247676 C38.6304327,5.0680727 38.5836239,5.10804474 38.5846725,5.27569242 C38.5925578,6.5052625 38.5886571,7.73491646 38.5889927,8.96457043 C38.5897896,12.1434589 38.5908801,15.3223055 38.5918868,18.501194"></path>
                    <path d="M5.0342202,10.941475 C5.0342202,11.7307235 5.03690458,12.519972 5.03145194,13.3091786 C5.03057113,13.4335407 5.05573715,13.4771199 5.19045928,13.4744775 C5.65124921,13.4652919 6.11241664,13.4665502 6.57329046,13.4738483 C6.69769451,13.4758196 6.72034394,13.4313177 6.72009228,13.318532 C6.71682069,11.7400769 6.71577211,10.1615799 6.72147641,8.58308284 C6.72197973,8.44110451 6.66732751,8.42818595 6.55122824,8.42961202 C6.10427962,8.43506466 5.6570374,8.4389654 5.2102985,8.4278504 C5.05712129,8.4240755 5.02969032,8.47470115 5.03090668,8.61567284 C5.03782733,9.39091227 5.0342202,10.1661936 5.0342202,10.941475 M11.7481384,18.5011814 C7.88934778,18.5011814 4.03055715,18.5001748 0.171766515,18.505208 C0.0281523943,18.5053757 -0.000117441454,18.477022 8.38867529e-06,18.3334079 C0.00462216008,12.2935617 0.00462216008,6.25371548 8.38867529e-06,0.213869276 C-0.000117441454,0.0702970989 0.0280685075,0.0413981125 0.171766515,0.0419853198 C1.79354911,0.0484865432 3.41537365,0.0460957707 5.03719818,0.0460957707 C5.03619154,0.814833974 5.04080531,1.58365606 5.02990003,2.35222649 C5.02746732,2.52364907 5.0659294,2.57079343 5.24376931,2.57020622 C7.34039287,2.56315973 9.43701643,2.56802517 11.53364,2.56135617 C11.7075372,2.56081091 11.7497323,2.6017057 11.7494387,2.77660958 C11.7437763,6.48062915 11.7448668,10.1846487 11.7452863,13.8887102 C11.745454,15.4261866 11.7471318,16.963705 11.7481384,18.5011814"></path>
                    <path d="M67.9552073,10.9499769 C67.9552073,10.167733 67.9521454,9.38544705 67.9581852,8.60320308 C67.9592338,8.4697812 67.9283635,8.42532122 67.7876435,8.4282992 C67.3408626,8.4377784 66.8936624,8.435849 66.4467557,8.42926389 C66.3196672,8.42737644 66.2673219,8.44826424 66.2678672,8.59556938 C66.2737812,10.1670199 66.2730262,11.7385544 66.268748,13.3100468 C66.2684124,13.4357931 66.2952981,13.4771073 66.4286361,13.474381 C66.8754589,13.4653212 67.322827,13.4619657 67.7694401,13.4755973 C67.9360391,13.4806725 67.9599469,13.4235456 67.9585627,13.2757791 C67.9513904,12.5005816 67.9552073,11.7252583 67.9552073,10.9499769 M61.2412891,0.0461251311 L66.2744942,0.0461251311 C66.2735295,0.814821391 66.2781433,1.58364348 66.267238,2.35221391 C66.2648053,2.52363649 66.3032674,2.57082279 66.4811073,2.57019364 C68.5777309,2.56314715 70.6743544,2.56805453 72.770978,2.56134359 C72.9448752,2.56079832 72.9870703,2.60169311 72.9867767,2.77659699 C72.9811143,6.48061657 72.9822048,10.1846781 72.9826243,13.8886977 C72.982792,15.426216 72.9844698,16.9636924 72.9854345,18.5012108 L61.2412891,18.5012108 C61.2422957,18.4174079 61.2441412,18.333647 61.2441412,18.2498861 C61.244267,13.0547794 61.2443929,7.85967284 61.2441412,2.66452429 C61.2440993,1.79172457 61.2422957,0.918924851 61.2412891,0.0461251311"></path>
                    <path d="M88.0850751,18.501194 C88.0860398,14.7077092 88.0870465,10.9142663 88.0880112,7.12078154 C88.088137,6.76002656 88.0880112,6.76002656 88.442936,6.76002656 C89.9310031,6.76002656 91.4191122,6.76363369 92.9070954,6.75528696 C93.0867808,6.75428032 93.1194967,6.80494792 93.119287,6.97410556 C93.1141279,10.7326515 93.1153023,14.4912394 93.1154701,18.2497854 C93.1154701,18.3335883 93.1172737,18.4173911 93.1182803,18.501194 L88.0850751,18.501194 Z"></path>
                    <path d="M26.8477413,18.501194 C26.848706,14.7356854 26.8497127,10.9701349 26.8506774,7.20462635 C26.8508032,6.76002656 26.8507193,6.76002656 27.289447,6.76002656 C28.7495799,6.76002656 30.2097127,6.76371758 31.6697616,6.75528696 C31.849447,6.75423838 31.8821629,6.80490598 31.8819532,6.97410556 C31.8767941,10.7326515 31.8779685,14.4911975 31.8780944,18.2497854 C31.8780944,18.3335883 31.8799399,18.4173911 31.8809465,18.501194 L26.8477413,18.501194 Z"></path>
                    <path d="M93.1182803,0.0461041594 C93.1173156,1.65199021 93.1134149,3.25791821 93.1195806,4.86376232 C93.1202517,5.03535267 93.0828801,5.08182593 92.9057952,5.08090318 C91.3627822,5.07297588 89.8196435,5.07360503 88.2765886,5.0804418 C88.1169521,5.08115484 88.0838168,5.03841454 88.0843202,4.88473401 C88.0893534,3.27188535 88.0860398,1.65899476 88.0850751,0.0461041594 L93.1182803,0.0461041594 Z"></path>
                    <path d="M31.8809465,0.0461041594 C31.8799399,1.65199021 31.8760391,3.25791821 31.8822468,4.86376232 C31.8829179,5.03535267 31.8455044,5.08182593 31.6684614,5.08090318 C30.1254484,5.07297588 28.5823097,5.07360503 27.0392548,5.0804418 C26.8796183,5.08115484 26.846525,5.03841454 26.8469864,4.88473401 C26.8520196,3.27188535 26.848748,1.65899476 26.8477413,0.0461041594 L31.8809465,0.0461041594 Z"></path>
                </g>
            </g>
        </g>
    </g>
</svg>