<?xml version="1.0" encoding="UTF-8"?>
<svg width="125px" height="46px" viewBox="0 0 125 46" version="1.1" xmlns="http://www.w3.org/2000/svg" xmlns:xlink="http://www.w3.org/1999/xlink">
    <!-- Generator: Sketch 43.2 (39069) - http://www.bohemiancoding.com/sketch -->
    <title>logo_experience_mozat</title>
    <desc>Created with Sketch.</desc>
    <defs></defs>
    <g stroke="none" stroke-width="1" fill="none" fill-rule="evenodd">
        <g transform="translate(-67.000000, -857.000000)">
            <g transform="translate(29.000000, 777.000000)">
                <g transform="translate(38.000000, 80.000000)">
                    <path d="M23.5113,15.2331 C22.5703,13.9011 21.3753,12.9911 19.8353,12.5211 C18.5693,12.1351 17.2963,12.1441 16.0203,12.3631 C14.0973,12.6941 12.4183,13.4551 11.2133,15.0951 C10.1403,16.5571 9.6243,18.1921 9.5663,19.9721 C9.5163,21.5241 9.5723,23.0781 9.5373,24.6301 C9.5003,26.2501 9.6223,27.8681 9.4083,29.4931 C9.2683,30.5541 9.1463,31.5991 8.7123,32.6111 C9.7963,32.5591 10.8563,32.6821 11.9123,32.5161 C13.2943,32.2981 14.1353,31.5221 14.4313,30.1531 C14.5263,29.7151 14.5583,29.2681 14.5583,28.8191 C14.5573,26.2511 14.5603,23.6821 14.5573,21.1141 C14.5573,20.3311 14.6633,19.5681 14.9313,18.8311 C15.4513,17.3991 16.6783,16.5711 18.2143,16.6141 C19.7953,16.6591 20.8713,17.5021 21.3123,19.0371 C21.4703,19.5861 21.5453,20.1471 21.5463,20.7161 C21.5513,23.2091 21.5853,25.7041 21.5363,28.1961 C21.5063,29.6931 21.3673,31.1911 20.7043,32.5991 C21.5613,32.5991 22.3973,32.6231 23.2303,32.5931 C24.6993,32.5401 25.8293,31.7451 26.2703,30.4881 C26.4503,29.9761 26.5043,29.4451 26.5033,28.9041 C26.4993,26.3201 26.4963,23.7371 26.5063,21.1541 C26.5103,20.1761 26.6563,19.2201 27.1253,18.3421 C27.7803,17.1171 28.8653,16.6151 30.1933,16.6221 C31.4843,16.6281 32.4363,17.2471 33.0203,18.4071 C33.3553,19.0721 33.5183,19.7861 33.5253,20.5231 C33.5473,22.9411 33.5523,25.3601 33.5523,27.7781 C33.5533,28.6291 33.4533,29.4741 33.3393,30.3171 C33.2353,31.0901 33.0013,31.8311 32.7673,32.6021 L34.6903,32.6021 C37.0923,32.6021 38.4763,31.2261 38.4783,28.8301 C38.4813,26.2771 38.4913,23.7241 38.4753,21.1701 C38.4693,20.0831 38.3463,19.0051 38.0473,17.9521 C37.2473,15.1371 35.4483,13.3221 32.6193,12.5721 C31.2623,12.2131 29.8723,12.0851 28.4733,12.2801 C27.3003,12.4441 26.2143,12.8361 25.2383,13.5451 C24.5773,14.0261 24.0333,14.6121 23.5113,15.2331 M41.9543,38.5201 C41.2963,38.8451 40.7093,39.2921 40.0423,39.6041 C38.5183,40.3171 36.9183,40.7381 35.2393,40.7401 C23.5653,40.7551 11.8903,40.7481 0.2153,40.7481 C0.1563,40.7481 0.0963,40.7411 0.0443,40.7381 C-0.0507,40.6421 0.0333,40.5641 0.0633,40.4921 C0.8963,38.4481 1.1553,36.2951 1.3183,34.1171 C1.4243,32.7041 1.5143,31.2911 1.4693,29.8771 C1.3713,26.7431 1.3943,23.6081 1.4283,20.4751 C1.4753,16.0761 2.8273,12.1451 5.9053,8.9161 C8.2323,6.4741 11.1093,5.0171 14.4113,4.3911 C16.7253,3.9521 19.0343,3.9311 21.3243,4.5611 C22.0023,4.7481 22.6333,5.0571 23.2783,5.3261 C23.5353,5.4331 23.7473,5.4381 23.9963,5.3301 C25.6513,4.6111 27.3683,4.1391 29.1833,4.0991 C33.2103,4.0081 36.9633,4.8861 40.2773,7.2841 C40.4453,7.4061 40.6203,7.5181 40.7923,7.6351 C40.8393,7.7871 40.9583,7.8831 41.0723,7.9761 C42.3043,8.9761 43.2833,10.1951 44.1303,11.5251 C44.6433,12.3311 44.9953,13.2191 45.4003,14.0801 C44.5393,14.7291 43.8903,15.5641 43.3603,16.4871 C42.4893,18.0041 42.0083,19.6511 41.8653,21.3911 C41.5223,25.5901 42.6613,29.1511 46.3153,31.6151 C46.0583,32.9611 45.5413,34.2031 44.8303,35.3711 C44.0763,36.6091 43.0733,37.6171 41.9543,38.5201" fill="#FE9A0B"></path>
                    <path d="M85.9001,18.5941 C86.4621,18.0541 86.9921,17.6561 87.5971,17.3611 C89.6051,16.3821 91.7301,16.1491 93.9171,16.4191 C95.1891,16.5761 96.1801,17.1561 96.5301,18.5041 C96.6471,18.9551 96.6641,19.4171 96.6961,19.8791 C96.7141,20.1551 96.6121,20.2381 96.3381,20.2321 C95.6221,20.2141 94.9051,20.2131 94.1891,20.2281 C92.3011,20.2681 90.4431,20.4891 88.6801,21.2211 C87.2781,21.8031 86.1271,22.6721 85.5241,24.1171 C84.4721,26.6351 85.0661,30.0231 88.4531,31.7491 C90.8871,32.9881 93.4961,33.0701 96.0951,32.5351 C99.1671,31.9031 101.0431,29.8001 101.5131,26.6881 C101.6931,25.4901 101.5751,24.2741 101.5801,23.0661 C101.5861,21.4301 101.6571,19.7911 101.3051,18.1721 C100.6821,15.3031 99.0831,13.3361 96.1911,12.5301 C93.9861,11.9151 91.7811,12.0481 89.5681,12.4991 C88.0791,12.8021 86.9861,13.5701 86.4211,15.0131 C85.9831,16.1291 85.9231,17.3001 85.9001,18.5941 M102.8381,38.5261 C101.6871,39.2701 100.4611,39.8561 99.1581,40.2801 C97.5461,40.8041 95.8901,41.0511 94.1981,41.0791 C92.8121,41.1021 91.4291,41.0691 90.0511,40.9121 C89.9671,40.8871 89.8841,40.8521 89.7991,40.8371 C88.2361,40.5611 86.7401,40.0861 85.3161,39.3821 C83.7531,38.6081 82.3851,37.5671 81.1401,36.3551 C81.3021,35.9461 81.4981,35.5531 81.6011,35.1191 C81.7281,34.5861 81.8611,34.0511 82.0501,33.5391 C82.1851,33.1751 82.0541,33.1511 81.7511,33.1531 C80.7571,33.1581 79.7621,33.1431 78.7681,33.1351 C78.7171,33.0281 78.6691,32.9191 78.6151,32.8131 C77.7031,31.0511 77.1621,29.1841 76.9871,27.2051 C76.8731,25.9121 76.9691,24.6181 76.9161,23.3261 C77.6271,22.5051 78.3551,21.6981 79.0451,20.8601 C80.0931,19.5891 81.0421,18.2431 81.4411,16.6161 C81.7631,15.3051 81.6731,14.0401 80.6051,13.0321 C80.1311,12.5841 79.5161,12.4551 78.9071,12.3191 C79.4021,11.4211 79.9391,10.5521 80.5891,9.7551 C82.0311,7.9881 83.7951,6.6381 85.8691,5.6901 C90.2181,3.8341 94.6491,3.6871 99.1511,5.0601 C99.2361,5.0861 99.3251,5.1011 99.4121,5.1221 C99.4631,5.1491 99.5131,5.1821 99.5671,5.2021 C101.7871,6.0241 103.7511,7.2421 105.3861,8.9701 C105.6411,9.2391 105.8181,9.5781 106.1391,9.7851 C106.1671,9.9021 106.0921,9.9841 106.0351,10.0691 C105.4831,10.8901 105.2671,11.8161 105.2621,12.7821 C105.2441,16.9161 105.2231,21.0511 105.2521,25.1851 C105.2721,27.9071 106.0331,30.3071 108.4941,31.8631 C107.7101,33.4821 106.8191,35.0361 105.5251,36.3061 C104.6951,37.1211 103.7961,37.8611 102.8381,38.5261" fill="#82B10D"></path>
                    <path d="M106.1392,9.7848 C105.8182,9.5778 105.6402,9.2388 105.3862,8.9698 C103.7512,7.2418 101.7872,6.0248 99.5672,5.2018 C99.5132,5.1818 99.4632,5.1488 99.4112,5.1218 C100.8102,3.3048 102.4012,1.7148 104.5342,0.7608 C105.6672,0.2548 106.8572,0.0108 108.0952,0.0098 C113.5872,0.0078 119.0792,0.0138 124.5722,-0.0002 C124.9852,-0.0012 125.0502,0.0798 124.9702,0.4898 C124.4602,3.0738 124.3032,5.6948 124.2962,8.3208 C124.2742,15.3788 124.2932,22.4368 124.2892,29.4948 C124.2892,30.7688 124.1232,32.0268 123.6832,33.2268 C123.1712,34.6268 122.4262,35.8908 121.4202,37.0068 C119.0242,39.6638 115.9522,40.7778 112.4752,40.9378 C109.5402,41.0738 106.7092,40.6128 104.0692,39.2498 C103.6462,39.0318 103.2472,38.7678 102.8382,38.5258 C103.7962,37.8618 104.6952,37.1208 105.5252,36.3068 C106.8192,35.0358 107.7102,33.4818 108.4942,31.8628 C109.4272,32.3238 110.4082,32.5968 111.4502,32.6568 C112.8812,32.7398 114.2212,32.4848 115.3552,31.5528 C116.5882,30.5398 117.0552,29.1828 117.0812,27.5888 C115.6502,28.2258 114.2002,28.3178 112.7312,28.2158 C111.5412,28.1338 110.7012,27.4218 110.3782,26.2778 C110.2562,25.8448 110.1892,25.3998 110.1882,24.9518 C110.1802,22.3988 110.1912,19.8458 110.1782,17.2938 C110.1762,16.9638 110.2932,16.9018 110.5892,16.9048 C111.7992,16.9198 113.0082,16.9118 114.2172,16.9118 C115.7292,16.9108 116.7242,16.1738 117.1582,14.7198 C117.3372,14.1208 117.4642,13.5038 117.6782,12.9178 C117.8222,12.5228 117.6962,12.4888 117.3502,12.4908 C115.1252,12.5018 112.9012,12.4888 110.6762,12.5038 C110.3022,12.5068 110.1572,12.4558 110.1952,12.0208 C110.3122,10.6808 110.4152,9.3438 110.9082,8.0758 C110.9792,7.8938 110.9372,7.8298 110.7492,7.8368 C110.3312,7.8528 109.9102,7.8358 109.4972,7.8838 C108.4962,7.9998 107.5342,8.1988 106.8242,9.0378 C106.6092,9.2918 106.4052,9.5708 106.1392,9.7848" fill="#FE9A0B"></path>
                    <path d="M45.4002,14.0802 C44.9952,13.2192 44.6432,12.3312 44.1302,11.5252 C43.2832,10.1952 42.3042,8.9762 41.0722,7.9762 C40.9582,7.8832 40.8392,7.7872 40.7932,7.6352 C42.4042,6.3392 44.2392,5.4752 46.2022,4.8682 C47.9622,4.3242 49.7762,4.0792 51.6122,4.0812 C54.1262,4.0842 56.5462,4.5772 58.8422,5.6232 C59.5102,5.9532 60.1752,6.2852 60.8092,6.6802 C61.8772,7.3462 62.7962,8.1802 63.7182,9.0312 C64.7562,9.9902 65.6212,11.0652 66.3562,12.2582 C66.2102,12.3562 66.0402,12.3252 65.8802,12.3432 C64.6572,12.4792 63.7232,13.0262 63.1752,14.1722 C62.8092,14.9372 62.7782,15.8002 62.4342,16.5722 C62.3362,16.7932 62.5672,16.7452 62.6792,16.7462 C63.4242,16.7522 64.1692,16.7412 64.9142,16.7512 C66.0892,16.7662 67.2652,16.7052 68.4402,16.7832 C68.9482,18.4322 69.1562,20.1262 69.2292,21.8432 C69.2742,22.8852 69.1352,23.9162 69.0802,24.9522 C67.8682,26.3522 66.6572,27.7542 65.4432,29.1532 C64.6372,30.0822 63.9152,31.0642 63.4202,32.2002 C62.7872,33.6482 62.6092,35.0852 63.5032,36.5022 C61.7812,38.0692 59.8472,39.2872 57.6522,40.0892 C56.6612,40.4522 55.6322,40.6712 54.6152,40.9332 C53.2122,41.1012 51.8112,41.2632 50.3932,41.1862 C47.5382,41.0312 44.8662,40.2702 42.3982,38.8152 C42.2462,38.7252 42.1022,38.6192 41.9552,38.5202 C43.0732,37.6172 44.0762,36.6092 44.8302,35.3712 C45.5422,34.2032 46.0582,32.9612 46.3152,31.6152 C48.3102,32.7422 50.4512,33.0732 52.7072,32.7902 C55.5542,32.4332 57.8742,31.1482 59.3412,28.6652 C61.4272,25.1392 61.7252,21.3842 60.1352,17.5962 C58.6602,14.0832 55.8982,12.2862 52.1032,12.0642 C51.1622,12.0092 50.2302,12.0902 49.3112,12.2732 C47.8652,12.5612 46.5322,13.1082 45.4002,14.0802" fill="#D23886"></path>
                    <path d="M54.6149,40.9336 C55.6329,40.6706 56.6609,40.4516 57.6529,40.0896 C59.8469,39.2876 61.7809,38.0686 63.5039,36.5016 C64.2199,37.3286 65.1529,37.6266 66.2149,37.6256 C70.3299,37.6226 74.4449,37.6336 78.5589,37.6186 C79.6049,37.6146 80.5099,37.2446 81.1399,36.3546 C82.3849,37.5676 83.7539,38.6086 85.3169,39.3816 C86.7399,40.0856 88.2369,40.5616 89.7989,40.8366 C89.8849,40.8526 89.9669,40.8866 90.0509,40.9126 C89.0449,42.2846 87.7209,43.2706 86.2479,44.0876 C84.0749,45.2936 81.7359,45.7706 79.2729,45.7666 C74.6779,45.7596 70.0819,45.7706 65.4869,45.7616 C62.7389,45.7566 60.1349,45.1846 57.7599,43.7396 C56.5389,42.9966 55.4859,42.0686 54.6149,40.9336" fill="#10A4DA"></path>
                    <path d="M66.3564,12.2583 C65.6214,11.0653 64.7564,9.9903 63.7184,9.0313 C62.7964,8.1803 61.8774,7.3463 60.8094,6.6803 C60.1754,6.2853 59.5094,5.9533 58.8424,5.6223 C60.3624,4.8933 61.9754,4.4773 63.6434,4.3283 C66.3954,4.0823 69.1584,4.2523 71.9164,4.2243 C74.3634,4.2003 76.8104,4.2303 79.2574,4.2193 C81.4194,4.2093 83.4844,4.6363 85.4534,5.5283 C85.5894,5.5893 85.7304,5.6363 85.8694,5.6893 C83.7954,6.6373 82.0314,7.9873 80.5894,9.7553 C79.9394,10.5513 79.4024,11.4213 78.9074,12.3193 C78.6114,12.2983 78.3154,12.2583 78.0204,12.2583 C74.1324,12.2543 70.2444,12.2573 66.3564,12.2583" fill="#10A4DA"></path>
                    <path d="M23.5113,15.2331 C24.0333,14.6121 24.5773,14.0261 25.2383,13.5451 C26.2143,12.8361 27.3003,12.4441 28.4733,12.2801 C29.8723,12.0851 31.2623,12.2131 32.6193,12.5721 C35.4483,13.3221 37.2473,15.1371 38.0473,17.9521 C38.3463,19.0051 38.4693,20.0831 38.4753,21.1701 C38.4913,23.7241 38.4813,26.2771 38.4783,28.8301 C38.4763,31.2261 37.0923,32.6021 34.6903,32.6021 L32.7673,32.6021 C33.0013,31.8311 33.2353,31.0901 33.3393,30.3171 C33.4533,29.4741 33.5533,28.6291 33.5523,27.7781 C33.5523,25.3601 33.5473,22.9411 33.5253,20.5231 C33.5183,19.7861 33.3553,19.0721 33.0203,18.4071 C32.4363,17.2471 31.4843,16.6281 30.1933,16.6221 C28.8653,16.6151 27.7803,17.1171 27.1253,18.3421 C26.6563,19.2201 26.5103,20.1761 26.5063,21.1541 C26.4963,23.7371 26.4993,26.3201 26.5033,28.9041 C26.5043,29.4451 26.4503,29.9761 26.2703,30.4881 C25.8293,31.7451 24.6993,32.5401 23.2303,32.5931 C22.3973,32.6231 21.5613,32.5991 20.7043,32.5991 C21.3673,31.1911 21.5063,29.6931 21.5363,28.1961 C21.5853,25.7041 21.5513,23.2091 21.5463,20.7161 C21.5453,20.1471 21.4703,19.5861 21.3123,19.0371 C20.8713,17.5021 19.7953,16.6591 18.2143,16.6141 C16.6783,16.5711 15.4513,17.3991 14.9313,18.8311 C14.6633,19.5681 14.5573,20.3311 14.5573,21.1141 C14.5603,23.6821 14.5573,26.2511 14.5583,28.8191 C14.5583,29.2681 14.5263,29.7151 14.4313,30.1531 C14.1353,31.5221 13.2943,32.2981 11.9123,32.5161 C10.8563,32.6821 9.7963,32.5591 8.7123,32.6111 C9.1463,31.5991 9.2683,30.5541 9.4083,29.4931 C9.6223,27.8681 9.5003,26.2501 9.5373,24.6301 C9.5723,23.0781 9.5163,21.5241 9.5663,19.9721 C9.6243,18.1921 10.1403,16.5571 11.2133,15.0951 C12.4183,13.4551 14.0973,12.6941 16.0203,12.3631 C17.2963,12.1441 18.5693,12.1351 19.8353,12.5211 C21.3753,12.9911 22.5703,13.9011 23.5113,15.2331" fill="#FEFEFE"></path>
                    <path d="M55.9337,22.8107 C55.9107,21.5997 55.8027,20.4037 55.3547,19.2597 C54.6397,17.4327 53.1447,16.4477 51.1347,16.4947 C49.3327,16.5367 47.9837,17.5637 47.3667,19.3967 C46.7887,21.1117 46.8337,22.8577 47.1807,24.6067 C47.5977,26.7037 48.8517,28.2507 51.2407,28.4457 C52.9027,28.5807 54.5927,27.7377 55.1947,26.3157 C55.6677,25.2007 55.9747,24.0397 55.9337,22.8107 M45.3997,14.0797 C46.5327,13.1077 47.8657,12.5617 49.3107,12.2737 C50.2307,12.0897 51.1617,12.0087 52.1027,12.0637 C55.8987,12.2867 58.6607,14.0837 60.1347,17.5957 C61.7247,21.3837 61.4267,25.1387 59.3417,28.6657 C57.8737,31.1477 55.5537,32.4337 52.7077,32.7907 C50.4507,33.0737 48.3107,32.7417 46.3147,31.6147 C42.6617,29.1517 41.5217,25.5907 41.8657,21.3917 C42.0077,19.6517 42.4887,18.0037 43.3607,16.4867 C43.8907,15.5647 44.5397,14.7297 45.3997,14.0797" fill="#FEFEFE"></path>
                    <path d="M66.3564,12.2583 C70.2444,12.2573 74.1324,12.2543 78.0204,12.2583 C78.3154,12.2583 78.6114,12.2983 78.9074,12.3193 C79.5164,12.4553 80.1314,12.5843 80.6054,13.0323 C81.6734,14.0393 81.7634,15.3053 81.4414,16.6163 C81.0424,18.2433 80.0934,19.5883 79.0454,20.8603 C78.3544,21.6983 77.6274,22.5053 76.9154,23.3263 C74.8004,25.6703 72.6564,27.9883 70.6254,30.4073 C70.0124,31.1363 69.4264,31.8903 69.0324,32.7713 C68.9304,32.9993 68.8854,33.1533 69.2434,33.1513 C72.4184,33.1393 75.5934,33.1393 78.7684,33.1353 C79.7624,33.1423 80.7564,33.1583 81.7514,33.1533 C82.0544,33.1513 82.1844,33.1753 82.0504,33.5393 C81.8614,34.0513 81.7284,34.5863 81.6014,35.1193 C81.4984,35.5523 81.3024,35.9463 81.1404,36.3543 C80.5094,37.2443 79.6044,37.6143 78.5584,37.6183 C74.4444,37.6343 70.3304,37.6233 66.2154,37.6263 C65.1524,37.6263 64.2204,37.3293 63.5034,36.5023 C62.6094,35.0843 62.7874,33.6483 63.4194,32.2003 C63.9154,31.0643 64.6374,30.0823 65.4434,29.1533 C66.6574,27.7543 67.8684,26.3523 69.0804,24.9523 C69.8634,24.0713 70.6504,23.1953 71.4274,22.3093 C72.2814,21.3373 73.1384,20.3683 73.9704,19.3783 C74.6294,18.5933 75.2474,17.7743 75.6444,16.7833 L68.4404,16.7833 C67.2654,16.7053 66.0894,16.7663 64.9144,16.7513 C64.1694,16.7413 63.4244,16.7523 62.6794,16.7463 C62.5674,16.7453 62.3364,16.7933 62.4344,16.5723 C62.7784,15.8003 62.8094,14.9373 63.1754,14.1713 C63.7234,13.0263 64.6574,12.4793 65.8804,12.3433 C66.0404,12.3253 66.2104,12.3563 66.3564,12.2583" fill="#FEFEFE"></path>
                    <path d="M95.3836,23.8085 C94.1616,23.7875 92.9356,23.7655 91.7556,24.1615 C90.6636,24.5285 90.1646,25.1665 90.1406,26.2075 C90.1186,27.2305 90.6426,28.0075 91.6526,28.4075 C92.5176,28.7495 93.4166,28.8125 94.3336,28.6795 C95.7026,28.4795 96.4286,27.7775 96.6746,26.4245 C96.7526,25.9945 96.7386,25.5615 96.7276,25.1305 C96.7166,24.6895 96.9226,24.0995 96.6366,23.8525 C96.3886,23.6395 95.8136,23.8085 95.3836,23.8085 M85.9006,18.5945 C85.9226,17.3005 85.9836,16.1295 86.4206,15.0135 C86.9866,13.5705 88.0796,12.8015 89.5676,12.4985 C91.7806,12.0475 93.9856,11.9155 96.1916,12.5295 C99.0826,13.3355 100.6826,15.3025 101.3056,18.1715 C101.6566,19.7915 101.5856,21.4295 101.5796,23.0655 C101.5756,24.2735 101.6936,25.4905 101.5126,26.6875 C101.0436,29.8005 99.1676,31.9025 96.0956,32.5355 C93.4966,33.0705 90.8866,32.9885 88.4536,31.7485 C85.0656,30.0225 84.4726,26.6345 85.5236,24.1175 C86.1276,22.6715 87.2786,21.8035 88.6796,21.2215 C90.4426,20.4895 92.3006,20.2675 94.1896,20.2275 C94.9056,20.2125 95.6226,20.2145 96.3386,20.2315 C96.6116,20.2385 96.7146,20.1555 96.6956,19.8785 C96.6646,19.4175 96.6476,18.9555 96.5306,18.5045 C96.1806,17.1565 95.1896,16.5765 93.9166,16.4195 C91.7306,16.1495 89.6056,16.3825 87.5976,17.3615 C86.9926,17.6555 86.4626,18.0535 85.9006,18.5945" fill="#FEFEFE"></path>
                    <path d="M106.1392,9.7848 C106.4052,9.5708 106.6092,9.2918 106.8242,9.0378 C107.5342,8.1988 108.4962,7.9998 109.4972,7.8838 C109.9102,7.8358 110.3312,7.8528 110.7492,7.8368 C110.9372,7.8298 110.9792,7.8938 110.9082,8.0758 C110.4152,9.3438 110.3122,10.6808 110.1952,12.0208 C110.1572,12.4558 110.3022,12.5068 110.6762,12.5038 C112.9012,12.4888 115.1252,12.5018 117.3502,12.4908 C117.6962,12.4888 117.8222,12.5228 117.6782,12.9178 C117.4642,13.5038 117.3372,14.1208 117.1582,14.7198 C116.7242,16.1738 115.7292,16.9108 114.2172,16.9118 C113.0082,16.9118 111.7992,16.9198 110.5892,16.9048 C110.2932,16.9018 110.1762,16.9638 110.1782,17.2938 C110.1912,19.8458 110.1802,22.3988 110.1882,24.9518 C110.1892,25.3998 110.2562,25.8448 110.3782,26.2778 C110.7012,27.4218 111.5412,28.1338 112.7312,28.2158 C114.2002,28.3178 115.6502,28.2258 117.0812,27.5888 C117.0552,29.1828 116.5882,30.5398 115.3552,31.5528 C114.2212,32.4848 112.8812,32.7398 111.4502,32.6568 C110.4082,32.5968 109.4272,32.3238 108.4942,31.8628 C106.0332,30.3078 105.2712,27.9068 105.2522,25.1848 C105.2232,21.0508 105.2442,16.9168 105.2622,12.7818 C105.2672,11.8168 105.4832,10.8898 106.0352,10.0688 C106.0922,9.9838 106.1672,9.9018 106.1392,9.7848" fill="#FEFEFE"></path>
                    <path d="M78.768,33.1352 C75.593,33.1392 72.418,33.1392 69.243,33.1512 C68.885,33.1532 68.931,32.9992 69.032,32.7712 C69.426,31.8902 70.013,31.1362 70.625,30.4072 C72.656,27.9882 74.8,25.6702 76.916,23.3262 C76.969,24.6182 76.873,25.9122 76.987,27.2042 C77.162,29.1842 77.703,31.0512 78.615,32.8132 C78.669,32.9192 78.717,33.0282 78.768,33.1352" fill="#10A4DA"></path>
                    <path d="M68.4402,16.7831 L75.6442,16.7831 C75.2472,17.7751 74.6292,18.5931 73.9702,19.3781 C73.1382,20.3691 72.2812,21.3381 71.4272,22.3101 C70.6502,23.1951 69.8632,24.0721 69.0802,24.9521 C69.1352,23.9161 69.2742,22.8851 69.2292,21.8431 C69.1562,20.1261 68.9482,18.4321 68.4402,16.7831" fill="#10A4DA"></path>
                    <path d="M55.9337,22.8107 C55.9747,24.0397 55.6677,25.2007 55.1947,26.3157 C54.5927,27.7377 52.9027,28.5807 51.2407,28.4457 C48.8517,28.2507 47.5977,26.7037 47.1807,24.6067 C46.8337,22.8577 46.7887,21.1117 47.3667,19.3967 C47.9837,17.5637 49.3327,16.5367 51.1347,16.4947 C53.1447,16.4477 54.6397,17.4327 55.3547,19.2597 C55.8027,20.4037 55.9107,21.5997 55.9337,22.8107" fill="#D23886"></path>
                    <path d="M95.3836,23.8085 C95.8136,23.8085 96.3886,23.6395 96.6366,23.8525 C96.9226,24.0995 96.7166,24.6895 96.7276,25.1305 C96.7386,25.5615 96.7526,25.9945 96.6746,26.4245 C96.4286,27.7775 95.7026,28.4795 94.3336,28.6795 C93.4166,28.8125 92.5176,28.7495 91.6526,28.4075 C90.6426,28.0075 90.1186,27.2305 90.1406,26.2075 C90.1646,25.1665 90.6636,24.5285 91.7556,24.1615 C92.9356,23.7655 94.1616,23.7875 95.3836,23.8085" fill="#82B10D"></path>
                </g>
            </g>
        </g>
    </g>
</svg>