<?xml version="1.0" encoding="UTF-8"?>
<svg width="47px" height="57px" viewBox="0 0 47 57" version="1.1" xmlns="http://www.w3.org/2000/svg" xmlns:xlink="http://www.w3.org/1999/xlink">
    <!-- Generator: Sketch 43.2 (39069) - http://www.bohemiancoding.com/sketch -->
    <title>logo_fastcodesign</title>
    <desc>Created with Sketch.</desc>
    <defs></defs>
    <g stroke="none" stroke-width="1" fill="none" fill-rule="evenodd">
        <g transform="translate(-97.000000, -853.000000)" fill="#8F9EBC">
            <g transform="translate(29.000000, 777.000000)">
                <g transform="translate(68.000000, 76.000000)">
                    <path d="M0.149300002,47.1312208 L0.149300002,5.47742009 L0.517700008,5.47742009 C4.35050007,5.47742009 8.18330013,5.46542009 12.0161002,5.48222009 C14.5487002,5.49302009 17.0465003,5.77082009 19.4519003,6.62522011 C23.4437004,8.04362013 25.9877004,10.8414202 27.2645004,14.8422202 C27.9581005,17.0172203 28.2815005,19.2588203 28.3139005,21.5298203 C28.3511005,24.1170204 28.3607005,26.7084204 28.2473005,29.2920205 C28.1105005,32.4150205 27.5111004,35.4594206 26.2121004,38.3322206 C24.1337004,42.9300207 20.5883003,45.7068207 15.6881003,46.8012208 C14.6549002,47.0322208 13.6163002,47.1444208 12.5531002,47.1390208 C8.56490014,47.1192208 4.57670007,47.1312208 0.58790001,47.1312208 L0.149300002,47.1312208 Z"></path>
                    <path d="M21.1057403,0.479180008 L46.9753408,0.479180008 L46.9753408,47.1087808 L27.1261404,47.1087808 C27.1627404,47.0667808 27.1789404,47.0367808 27.2035404,47.0217808 C29.6047405,45.5595807 31.1965405,43.4031807 32.4019405,40.9239807 C33.6199405,38.4189806 34.3333406,35.7567806 34.7953406,33.0219805 C35.2969406,30.0555805 35.4625406,27.0645804 35.3953406,24.0603804 C35.3035406,19.9851803 34.7707406,15.9843803 33.2671405,12.1617802 C31.0357405,6.4899801 27.0781404,2.59778004 21.2971403,0.59558001 C21.2293403,0.571580009 21.1621403,0.543980009 21.0949403,0.518180008 C21.0985403,0.504980008 21.1021403,0.492380008 21.1057403,0.479180008"></path>
                    <path d="M45.5777007,54.9723209 L45.5777007,51.9603208 C45.3917007,51.9495208 45.2189007,51.9393208 45.0173007,51.9279208 L45.0173007,51.1923208 L46.9085008,51.1923208 L46.9085008,51.9249208 C46.7657008,51.9351208 46.6367008,51.9447208 46.4717008,51.9573208 L46.4717008,56.2773209 C46.0277007,56.2773209 45.6197007,56.2923209 45.2141007,56.2659209 C45.1199007,56.2599209 45.0011007,56.1291209 44.9507007,56.0277209 C44.3849007,54.8853209 43.8299007,53.7375209 43.2719007,52.5915209 C43.2239007,52.4925208 43.1735007,52.3941208 43.0745007,52.2987208 L43.0745007,55.5321209 C43.2569007,55.5453209 43.4507007,55.5591209 43.6649007,55.5741209 L43.6649007,56.2569209 L41.7161007,56.2569209 L41.7161007,55.5825209 C41.8499007,55.5651209 41.9777007,55.5489209 42.1271007,55.5291209 L42.1271007,51.9633208 C41.9915007,51.9495208 41.8631007,51.9369208 41.7137007,51.9219208 L41.7137007,51.1665208 C42.1265007,51.1665208 42.5471007,51.2049208 42.9569007,51.1569208 C43.5089007,51.0921208 43.7999007,51.2787208 44.0183007,51.8103208 C44.4215007,52.7931209 44.9201007,53.7369209 45.3791007,54.6969209 C45.4265007,54.7947209 45.4769007,54.8907209 45.5255007,54.9879209 C45.5429007,54.9831209 45.5603007,54.9777209 45.5777007,54.9723209"></path>
                    <path d="M20.7468203,51.9836608 L20.7468203,55.4906609 C21.1008203,55.4906609 21.4326203,55.5158609 21.7596204,55.4852609 C22.3488204,55.4306609 22.7454204,55.0880609 22.8204204,54.5108609 C22.8906204,53.9678609 22.8888204,53.4056609 22.8366204,52.8596609 C22.7940204,52.4150608 22.4826204,52.1174608 22.0224204,52.0616608 C21.6084203,52.0118608 21.1884203,52.0088608 20.7468203,51.9836608 M19.2240203,56.2568609 L19.2240203,55.5824609 C19.3620203,55.5662609 19.4910203,55.5512609 19.6458203,55.5332609 L19.6458203,51.9662608 C19.5174203,51.9506608 19.3806203,51.9344608 19.2282203,51.9158608 L19.2282203,51.1664608 C19.3734203,51.1664608 19.5138203,51.1658608 19.6548203,51.1664608 C20.3436203,51.1670608 21.0330203,51.1514608 21.7206204,51.1730608 C23.1300204,51.2180608 23.8884204,51.9452608 23.9808204,53.3540609 C24.0060204,53.7380609 23.9790204,54.1352609 23.9070204,54.5132609 C23.7150204,55.5284609 23.0358204,56.1716609 21.9870204,56.2442609 C21.0822203,56.3066609 20.1690203,56.2568609 19.2240203,56.2568609"></path>
                    <path d="M24.6683004,56.2506209 L24.6683004,55.5762209 C24.8069004,55.5612209 24.9257004,55.5480209 25.0721004,55.5324209 L25.0721004,51.9672208 C24.9401004,51.9516208 24.8129004,51.9366208 24.6665004,51.9198208 L24.6665004,51.1956208 L28.6331005,51.1956208 L28.6331005,52.6620209 L27.7985004,52.6620209 L27.7985004,52.0224208 L26.1599004,52.0224208 L26.1599004,53.3712209 L27.9755005,53.3712209 L27.9755005,54.1338209 L26.1563004,54.1338209 L26.1563004,55.5132209 L27.8417005,55.5132209 L27.8417005,54.8244209 L28.6787005,54.8244209 L28.6787005,56.2506209 L24.6683004,56.2506209 Z"></path>
                    <path d="M40.7381007,52.6739609 L39.8819006,52.6739609 C39.8705006,52.5905609 39.8543006,52.5173608 39.8525006,52.4435608 C39.8405006,51.9155608 39.8411006,51.9155608 39.3017006,51.8819608 C38.3417006,51.8225608 37.7261006,52.3457608 37.6523006,53.3015609 C37.6313006,53.5769609 37.6367006,53.8565609 37.6577006,54.1325609 C37.7405006,55.2227609 38.3963006,55.7285609 39.4835006,55.5839609 C39.8057006,55.5413609 39.9581006,55.4351609 39.9131006,55.0877609 C39.8825006,54.8507609 39.9071006,54.6071609 39.9071006,54.3353609 L39.0245006,54.3353609 L39.0245006,53.5913609 L40.9307007,53.5913609 C40.9307007,54.2723609 40.9385007,54.9371609 40.9223007,55.6013609 C40.9199007,55.6991609 40.8257007,55.8257609 40.7375007,55.8863609 C39.8765006,56.4773609 38.9387006,56.5667609 37.9811006,56.1959609 C37.0925006,55.8515609 36.6671006,55.1159609 36.6023006,54.2039609 C36.5657006,53.6945609 36.5903006,53.1515609 36.7307006,52.6649609 C37.0115006,51.6905608 37.7477006,51.1859608 38.7389006,51.0761608 C39.3167006,51.0119608 39.8909006,51.0617608 40.4273007,51.3305608 C40.6451007,51.4403608 40.7705007,51.5777608 40.7435007,51.8459608 C40.7177007,52.1081608 40.7381007,52.3745608 40.7381007,52.6739609"></path>
                    <path d="M29.4589405,54.7751609 L30.3331405,54.7751609 L30.3331405,55.6001609 C30.7711405,55.6001609 31.1773405,55.6319609 31.5757405,55.5905609 C31.9357405,55.5521609 32.1223405,55.2983609 32.1397405,54.9539609 C32.1577405,54.5987609 32.0449405,54.4349609 31.6447405,54.3131609 C31.2637405,54.1979609 30.8719405,54.1175609 30.4879405,54.0101609 C29.9287405,53.8541609 29.5975405,53.4905609 29.5291405,52.9067609 C29.4523405,52.2515608 29.5903405,51.6659608 30.2095405,51.3341608 C31.0351405,50.8919608 31.8787405,50.9735608 32.6977405,51.3809608 C32.7787405,51.4211608 32.8627405,51.5417608 32.8687405,51.6299608 C32.8897405,51.9371608 32.8765405,52.2467608 32.8765405,52.5749608 L32.0107405,52.5749608 L32.0107405,51.9491608 C31.6039405,51.8213608 31.2145405,51.8063608 30.8305405,51.9461608 C30.5713405,52.0409608 30.4717405,52.2581608 30.4663405,52.5263608 C30.4615405,52.7939609 30.5875405,52.9823609 30.8335405,53.0603609 C31.1497405,53.1593609 31.4743405,53.2331609 31.7977405,53.3075609 C32.8099405,53.5397609 33.1951405,53.9549609 33.1741405,54.8003609 C33.1531405,55.6847609 32.6503405,56.2325609 31.6795405,56.3699609 C31.0081405,56.4647609 30.3523405,56.3783609 29.7355405,56.0687609 C29.5381405,55.9691609 29.4313405,55.8425609 29.4535405,55.6013609 C29.4775405,55.3379609 29.4589405,55.0709609 29.4589405,54.7751609"></path>
                    <path d="M11.1080602,55.4894009 L11.1080602,54.7544009 L11.9936602,54.7544009 C11.9936602,55.0748009 12.0110602,55.3940009 11.9840602,55.7096009 C11.9756602,55.8074009 11.8646602,55.9172009 11.7734602,55.9838009 C10.2848602,57.0686009 8.08946013,56.1296009 7.87706013,54.3050009 C7.82546013,53.8586009 7.82066013,53.3876009 7.90226013,52.9484009 C8.16086013,51.5594008 9.29906015,50.8400008 10.7630602,51.0902008 C10.7852602,51.0938008 10.8062602,51.1004008 10.8278602,51.1046008 C11.8592602,51.3026008 12.0620602,51.5960008 11.8916602,52.6646009 L11.0372602,52.6646009 C11.0282602,52.5914009 11.0180602,52.5386008 11.0162602,52.4846008 C10.9934602,51.8876008 10.9934602,51.8876008 10.3772602,51.8786008 C9.48986015,51.8648008 8.97746015,52.3346008 8.93006014,53.2172009 C8.91506014,53.4938009 8.91566014,53.7728009 8.92706014,54.0500009 C8.98106015,55.3214009 9.86486016,55.9142009 11.1080602,55.4894009"></path>
                    <path d="M13.7085802,54.3535409 C13.7445802,54.5755409 13.7613802,54.8323409 13.8309802,55.0747409 C13.9491802,55.4881409 14.2473802,55.6933409 14.6709802,55.6975409 C15.0963802,55.7011409 15.4419802,55.5097409 15.5157803,55.0945409 C15.5973803,54.6337409 15.6177803,54.1459409 15.5631803,53.6821409 C15.5097803,53.2297409 15.1329802,52.9921409 14.6763802,52.9927409 C14.2191802,52.9939409 13.9077802,53.2309409 13.7937802,53.6941409 C13.7445802,53.8963409 13.7385802,54.1093409 13.7085802,54.3535409 M16.6659803,54.3127409 C16.6575803,55.5769409 15.8937803,56.3671409 14.6799802,56.3677409 C13.4541802,56.3677409 12.6825802,55.5589409 12.6897802,54.2815409 C12.6957802,53.0671409 13.4913802,52.2913408 14.7123802,52.3081408 C15.9183803,52.3243408 16.6737803,53.0995409 16.6659803,54.3127409"></path>
                    <path d="M35.4143606,51.9590008 L35.4143606,55.5338009 C35.5727606,55.5482009 35.7131606,55.5614009 35.8721606,55.5758009 L35.8721606,56.2586009 L33.8777605,56.2586009 L33.8777605,55.5764009 C34.0097605,55.5638009 34.1483606,55.5506009 34.3157606,55.5350009 L34.3157606,51.9566008 C34.1873606,51.9482008 34.0481606,51.9392008 33.8801605,51.9278008 L33.8801605,51.1922008 L35.8733606,51.1922008 L35.8733606,51.9188008 C35.7323606,51.9314008 35.5931606,51.9434008 35.4143606,51.9590008"></path>
                    <path d="M18.4437803,55.7129009 C18.4515803,56.0459009 18.1833803,56.3303009 17.8473803,56.3447009 C17.4903803,56.3603009 17.2023803,56.0963009 17.1921803,55.7447009 C17.1825803,55.3919009 17.4549803,55.0955009 17.7987803,55.0847009 C18.1335803,55.0739009 18.4359803,55.3685009 18.4437803,55.7129009"></path>
                </g>
            </g>
        </g>
    </g>
</svg>