<?xml version="1.0" encoding="UTF-8"?>
<svg width="100px" height="100px" viewBox="0 0 100 100" version="1.1" xmlns="http://www.w3.org/2000/svg" xmlns:xlink="http://www.w3.org/1999/xlink">
    <!-- Generator: Sketch 44.1 (41455) - http://www.bohemiancoding.com/sketch -->
    <title>logo_experience_relayroom</title>
    <desc>Created with Sketch.</desc>
    <defs></defs>
    <g stroke="none" stroke-width="1" fill="none" fill-rule="evenodd">
        <g transform="translate(-79.000000, -827.000000)">
            <g transform="translate(29.000000, 777.000000)">
                <g transform="translate(50.000000, 50.000000)">
                    <polygon fill="#000000" points="50.0004 0.0001 0.0004 50.0001 50.0004 100.0001 100.0004 50.0001"></polygon>
                    <path d="M27.2466,48.6899 C28.6066,48.6909 30.4426,48.4419 31.5826,46.6799 C32.6376,45.0499 32.9646,43.2039 32.7626,41.2819 C32.6366,40.0739 31.9156,39.3239 30.7646,38.9659 C30.1246,38.7669 29.4646,38.7989 28.8076,38.7599 C28.0866,38.7159 27.7416,39.0429 27.5376,39.7109 C26.8156,42.0719 26.0526,44.4209 25.3066,46.7749 C24.7106,48.6549 24.7106,48.6549 27.2466,48.6899 M28.9026,49.1239 C30.6976,50.4449 31.3966,52.3259 32.2266,54.1049 C33.7046,57.2729 35.0946,60.4829 37.0006,63.4319 C39.6476,67.5279 42.9506,70.9449 47.7276,72.3629 C54.5306,74.3829 61.1406,73.9759 67.0726,69.6499 C70.8546,66.8929 72.7996,62.9149 73.8416,58.4569 C74.5186,55.5639 75.0826,52.6489 75.0926,49.6589 C75.0956,48.9309 75.0406,48.2059 74.7606,47.5209 C74.5066,46.8979 74.1066,46.8129 73.6236,47.2739 C72.9886,47.8789 72.6376,48.6659 72.2656,49.4399 C72.1366,49.7099 72.0676,50.1939 71.6206,49.9909 C71.2106,49.8049 71.4416,49.3959 71.5596,49.1159 C72.1016,47.8239 72.8236,46.6449 73.9126,45.7369 C75.4436,44.4609 76.8196,44.9099 77.2806,46.8359 C77.8036,49.0189 77.3726,51.1659 76.9696,53.3079 C76.6226,55.1479 76.1126,56.9439 75.4576,58.7149 C77.8806,56.0579 80.2356,53.3709 81.7746,50.0879 C82.1936,49.1939 82.0976,48.2989 81.7396,47.3999 C81.5196,46.8449 81.3146,46.2479 81.7776,45.7139 C82.3286,45.0789 83.0366,44.6449 83.8716,44.9759 C84.6536,45.2859 84.6406,46.0729 84.5426,46.7729 C84.3506,48.1439 83.6956,49.3349 82.9586,50.4749 C80.7626,53.8669 78.1296,56.9099 75.3596,59.8369 C74.9646,60.2539 74.6836,60.7009 74.4656,61.2329 C71.2356,69.1449 65.2866,73.4189 56.8396,74.2159 C45.8616,75.2519 38.1016,70.1839 32.4886,61.1729 C30.8076,58.4739 29.4946,55.5979 28.5036,52.5749 C28.3086,51.9819 28.0646,51.3989 27.7846,50.8409 C27.1986,49.6719 26.1066,49.1379 24.8486,49.3039 C24.5046,49.3489 24.4226,49.5409 24.3406,49.8029 C23.4726,52.5729 22.6066,55.3419 21.7256,58.1069 C21.5296,58.7219 21.7276,58.9849 22.3576,58.9709 C22.8856,58.9589 23.4136,58.9519 23.9406,58.9559 C24.2556,58.9579 24.5726,59.0249 24.5536,59.4259 C24.5366,59.7889 24.2536,59.9059 23.9256,59.9189 C23.8266,59.9219 23.7266,59.9249 23.6286,59.9139 C21.2226,59.6519 18.8176,59.7869 16.4116,59.9229 C16.0326,59.9439 15.4086,60.1769 15.4106,59.5079 C15.4126,58.9259 15.9806,59.0089 16.4126,59.0119 C18.2626,59.0229 18.1636,59.4489 18.8616,57.2529 C20.6786,51.5329 22.4646,45.8029 24.2586,40.0759 C24.5656,39.0979 24.4866,38.9969 23.4656,38.9759 C23.1026,38.9689 22.7396,38.9779 22.3766,38.9689 C22.0506,38.9619 21.7696,38.8729 21.8016,38.4669 C21.8336,38.0539 22.1396,38.0399 22.4546,38.0579 C23.1456,38.0969 23.8376,38.1809 24.5286,38.1679 C26.3746,38.1329 28.2206,38.0539 30.0676,37.9969 C30.9286,37.9709 31.7836,38.0579 32.6226,38.2529 C35.4306,38.9049 36.7026,41.1809 36.0106,44.2919 C35.4686,46.7299 33.7126,48.4069 31.2296,48.8279 C30.5166,48.9489 29.7926,49.0129 28.9026,49.1239" fill="#FFFFFF"></path>
                    <path d="M57.409,57.1784 C57.379,57.6184 57.384,58.0634 57.821,58.3144 C58.235,58.5514 58.668,58.4384 59.037,58.1954 C59.476,57.9074 59.902,57.5904 60.292,57.2394 C62.736,55.0414 64.67,52.4164 66.499,49.7114 C66.906,49.1084 67.182,48.4284 67.31,47.7064 C67.529,46.4794 66.758,45.7104 65.533,45.9354 C64.733,46.0814 64.047,46.4874 63.454,47.0214 C60.94,49.2854 59.025,51.9694 57.849,55.1564 C57.61,55.8054 57.46,56.4834 57.409,57.1784 M65.668,51.9854 C64.292,53.6794 62.975,55.4114 61.461,56.9774 C60.497,57.9744 59.54,58.9874 58.299,59.6484 C57.5,60.0754 56.636,60.4384 55.776,59.8604 C54.962,59.3144 54.951,58.4044 54.977,57.5394 C54.991,57.0824 55.057,56.6114 55.194,56.1754 C56.509,51.9724 58.929,48.5704 62.596,46.0954 C63.227,45.6704 63.923,45.3554 64.667,45.1744 C66.221,44.7974 66.813,45.0504 67.663,46.5124 C67.776,46.2364 67.87,46.0234 67.951,45.8054 C68.257,44.9894 69.323,44.6134 70.03,45.0874 C70.593,45.4664 70.241,45.9314 70.073,46.3204 C68.898,49.0454 67.697,51.7584 66.502,54.4754 C66.171,55.2294 65.82,55.9764 65.507,56.7384 C65.39,57.0214 65.054,57.3874 65.377,57.6264 C65.745,57.8984 66.028,57.4654 66.279,57.2424 C67.02,56.5824 67.657,55.8244 68.25,55.0294 C68.388,54.8444 68.517,54.6504 68.673,54.4824 C68.807,54.3384 68.98,54.1904 69.187,54.3374 C69.407,54.4924 69.293,54.6844 69.184,54.8544 C69.06,55.0484 68.939,55.2464 68.797,55.4274 C67.629,56.9114 66.303,58.2404 64.827,59.4164 C64.571,59.6194 64.288,59.8174 63.984,59.9234 C63.413,60.1214 62.778,60.2344 62.3,59.7684 C61.792,59.2724 62.259,58.7614 62.49,58.3334 C63.612,56.2524 64.778,54.1944 65.668,51.9854" fill="#FFFFFF"></path>
                    <path d="M53.1358,37.9583 C54.2368,37.9173 55.2898,37.8633 56.2528,37.3443 C56.5428,37.1883 56.8898,36.9843 57.1718,37.2333 C57.5108,37.5313 57.2518,37.9073 57.1268,38.2343 C55.4848,42.5113 53.8278,46.7823 52.1978,51.0633 C51.4588,53.0033 50.7688,54.9623 50.0638,56.9143 C49.9648,57.1883 49.7738,57.5633 50.0488,57.7393 C50.4098,57.9703 50.6278,57.5613 50.8318,57.3273 C51.6578,56.3803 52.3758,55.3553 52.9988,54.2633 C53.1238,54.0463 53.2548,53.7063 53.5758,53.8863 C53.8678,54.0503 53.7248,54.3623 53.5918,54.5883 C52.5038,56.4443 51.2608,58.1863 49.6638,59.6433 C49.1028,60.1543 48.3678,60.2543 47.7258,59.8843 C47.0848,59.5153 47.3008,58.8123 47.4468,58.2593 C48.1208,55.7043 49.1948,53.2883 50.0888,50.8093 C51.3628,47.2753 52.6268,43.7373 53.9158,40.2093 C54.1468,39.5773 54.0758,39.2383 53.3288,39.1773 C52.9758,39.1483 52.6258,39.0063 52.2888,38.8783 C52.0128,38.7723 51.7058,38.6213 51.7778,38.2503 C51.8518,37.8633 52.1858,37.8803 52.4888,37.9003 C52.7188,37.9153 52.9488,37.9413 53.1358,37.9583" fill="#FFFFFF"></path>
                    <path d="M39.9616,51.7832 C42.4616,51.7342 45.5406,49.1852 45.9976,46.8692 C46.1716,45.9872 45.7466,45.5382 44.8586,45.6602 C44.4896,45.7112 44.1626,45.8652 43.8706,46.0822 C41.9246,47.5282 40.8606,49.5652 39.9616,51.7832 M36.6716,55.7792 C37.1466,51.8032 38.9836,48.3022 42.5886,45.8292 C43.3316,45.3192 44.1876,45.0352 45.1026,45.0352 C46.8106,45.0342 47.8496,46.3492 47.4716,48.0182 C47.2316,49.0762 46.5646,49.8352 45.7026,50.4352 C44.1766,51.4972 42.4566,52.0512 40.6246,52.2092 C39.9316,52.2682 39.6446,52.5632 39.5046,53.1902 C39.3036,54.0932 39.0716,54.9932 39.1376,55.9242 C39.2826,57.9542 40.7656,58.7552 42.5336,57.7642 C43.5606,57.1882 44.3386,56.3402 45.0246,55.3982 C45.1896,55.1712 45.3476,54.7422 45.6616,54.9182 C45.9936,55.1042 45.7126,55.4562 45.5636,55.6922 C44.7486,56.9812 43.8326,58.1952 42.5816,59.0922 C41.3296,59.9912 39.9606,60.6182 38.4386,59.8322 C36.9456,59.0602 36.7486,57.5912 36.6716,55.7792" fill="#FFFFFF"></path>
                </g>
            </g>
        </g>
    </g>
</svg>