<?xml version="1.0" encoding="UTF-8"?>
<svg width="120px" height="32px" viewBox="0 0 120 32" version="1.1" xmlns="http://www.w3.org/2000/svg" xmlns:xlink="http://www.w3.org/1999/xlink">
    <!-- Generator: Sketch 43.2 (39069) - http://www.bohemiancoding.com/sketch -->
    <title>logo_singaporebrides</title>
    <desc>Created with Sketch.</desc>
    <defs></defs>
    <g stroke="none" stroke-width="1" fill="none" fill-rule="evenodd">
        <g transform="translate(-54.000000, -857.000000)" fill="#8F9EBC">
            <g transform="translate(29.000000, 777.000000)">
                <g transform="translate(25.000000, 80.000000)">
                    <path d="M61.88596,29.96196 C62.58116,29.92276 63.23396,29.92156 63.87596,29.83796 C64.34716,29.77676 64.83516,29.67476 65.26236,29.47636 C67.85556,28.27236 68.56596,24.60596 66.66076,22.46676 C65.35236,20.99796 63.63596,21.00356 61.88596,21.01676 L61.88596,29.96196 Z M59.98116,19.13716 C61.61076,19.22196 63.22036,19.20196 64.79996,19.41156 C67.17356,19.72636 68.96356,21.53596 69.48796,24.04316 C70.09356,26.93636 68.97436,29.81836 66.05796,31.13156 C65.48636,31.38916 64.84516,31.57236 64.22276,31.61996 C62.82356,31.72716 61.41596,31.72756 59.98116,31.77236 L59.98116,19.13716 Z"></path>
                    <path d="M27.89408,21.01064 L27.89408,24.61704 C28.77568,24.55544 29.70528,24.70424 30.22048,23.79584 C30.58368,23.15424 30.63128,22.42464 30.25768,21.77984 C29.72448,20.85944 28.77408,21.05024 27.89408,21.01064 L27.89408,21.01064 Z M27.87408,29.92744 C28.30448,29.92744 28.69288,29.93824 29.08048,29.92384 C29.37848,29.91304 29.67888,29.89024 29.97248,29.83864 C30.94048,29.66864 31.49528,29.03704 31.53728,28.08184 C31.57488,27.23744 31.04528,26.46024 30.20408,26.31384 C29.44648,26.18224 28.66528,26.18784 27.87408,26.13184 L27.87408,29.92744 Z M25.96048,19.14504 C27.22728,19.22144 28.47368,19.20384 29.68848,19.39104 C31.85728,19.72584 33.00368,22.30984 31.86928,24.19064 C31.68128,24.50224 31.37528,24.74304 31.11248,25.02904 C31.12768,25.03704 31.17768,25.07224 31.23328,25.08984 C32.90768,25.62904 33.54368,26.99504 33.38568,28.63664 C33.21968,30.36024 32.02288,31.48304 30.08688,31.63424 C28.72888,31.74024 27.35648,31.65464 25.96048,31.65464 L25.96048,19.14504 Z"></path>
                    <polygon points="74.8698 19.22924 81.7174 19.22924 81.7174 21.01764 76.7806 21.01764 76.7806 24.18404 81.5722 24.18404 81.5722 25.98444 76.7858 25.98444 76.7858 29.92684 81.7226 29.92684 81.7226 31.70364 74.8698 31.70364"></polygon>
                    <path d="M88.5118,27.88188 C88.6138,28.25788 88.6706,28.60828 88.8022,28.92748 C89.1874,29.86228 89.941,30.28068 90.9914,30.18268 C91.8682,30.10108 92.5466,29.52068 92.7354,28.69108 C92.9586,27.71028 92.6142,26.83108 91.7518,26.35308 C91.1962,26.04548 90.5918,25.82708 90.0174,25.55188 C89.549,25.32748 89.0658,25.11828 88.6362,24.83188 C87.4758,24.05708 87.0094,22.80668 87.3426,21.49628 C87.6694,20.21068 88.8002,19.21348 90.1026,19.05708 C91.131,18.93348 92.1286,18.96628 93.0386,19.55588 C93.6226,19.93468 94.0358,20.45108 94.3682,21.08908 C93.857,21.38868 93.3662,21.67668 92.871,21.96708 C92.707,21.74508 92.5726,21.51988 92.3974,21.33268 C91.6258,20.50828 90.0066,20.56708 89.415,21.43068 C88.9918,22.04828 89.0618,22.78068 89.6446,23.24908 C89.9434,23.48948 90.3034,23.66228 90.6546,23.82628 C91.3142,24.13388 92.003,24.38188 92.6518,24.70908 C95.5422,26.16628 95.0334,29.56428 93.4682,30.96668 C92.5954,31.74868 91.5434,31.99788 90.3922,31.96548 C88.3682,31.90908 87.0282,30.29348 86.7338,28.73668 C86.675,28.42588 86.689,28.23108 87.0854,28.18188 C87.571,28.12148 88.0474,27.98308 88.5118,27.88188"></path>
                    <polygon points="51.872 31.70672 53.7184 31.70672 53.7184 19.22672 51.872 19.22672"></polygon>
                    <path d="M40.54588,25.0138 L40.54588,20.9826 C41.46268,20.993 42.39148,20.893 43.18188,21.5118 C43.75668,21.9622 43.87468,22.5946 43.77348,23.2718 C43.65428,24.0658 43.13868,24.5646 42.40148,24.7618 C41.82028,24.9174 41.20068,24.9306 40.54588,25.0138 M42.86348,26.3934 C42.98228,26.3542 43.05268,26.3306 43.12308,26.3074 C44.87228,25.7374 45.73388,24.4214 45.61308,22.5034 C45.51148,20.8846 44.37748,19.6082 42.63828,19.3754 C41.32908,19.2002 39.99388,19.2194 38.63868,19.1506 L38.63868,31.7106 L40.53348,31.7106 L40.53348,26.6306 C40.56908,26.6034 40.60468,26.5762 40.64028,26.549 C40.77468,26.6538 40.94348,26.7342 41.03788,26.867 C42.12148,28.3978 43.19188,29.9374 44.27228,31.4698 C44.34708,31.5762 44.47348,31.7154 44.57948,31.719 C45.27708,31.7414 45.97548,31.7306 46.75548,31.7306 C45.43508,29.9198 44.15988,28.171 42.86348,26.3934"></path>
                    <path d="M21.35256,0 C24.38016,3.1708 27.34736,6.278 30.39016,9.4648 L30.39016,0.8436 L32.30176,0.8436 L32.30176,14.0784 C29.28336,10.9176 26.30656,7.8008 23.27176,4.6228 L23.27176,13.3056 L21.35256,13.3056 L21.35256,0 Z"></path>
                    <path d="M48.1474,8.58772 L45.0302,8.58772 L45.0302,6.86252 L50.1706,6.86252 C50.1594,8.56492 49.835,10.14412 48.7442,11.50612 C47.6078,12.92532 46.0842,13.46732 44.3298,13.57692 C40.5442,13.81372 38.4622,10.94492 38.0374,8.37972 C37.7622,6.71892 37.9722,5.11972 38.8494,3.66772 C40.1562,1.50452 42.1614,0.57332 44.6306,0.60652 C46.509,0.63172 48.1518,1.25492 49.3858,2.74692 C49.5086,2.89572 49.615,3.05772 49.7614,3.25692 C49.2458,3.61892 48.7522,3.96572 48.2998,4.28372 C47.8434,3.86772 47.449,3.44732 46.9954,3.10532 C45.1614,1.72132 41.2398,2.08292 40.1494,5.35492 C39.4162,7.55492 40.0554,9.91252 41.7798,11.10612 C43.5238,12.31292 46.8362,12.19372 47.931,9.41612 C48.029,9.16732 48.0686,8.89532 48.1474,8.58772"></path>
                    <polygon points="114.70276 11.5326 119.63276 11.5326 119.63276 13.3134 112.77796 13.3134 112.77796 0.849 119.63356 0.849 119.63356 2.6118 114.70036 2.6118 114.70036 5.7962 119.49276 5.7962 119.49276 7.5842 114.70276 7.5842"></polygon>
                    <path d="M1.77672,9.49376 C1.92712,9.94976 2.01312,10.36336 2.19472,10.72976 C2.61232,11.57336 3.38592,11.91656 4.42592,11.78016 C5.20912,11.67736 5.83872,11.08816 6.03312,10.27576 C6.24432,9.39256 5.93912,8.53496 5.19072,8.05176 C4.83272,7.82056 4.42952,7.65896 4.04272,7.47336 C3.37512,7.15256 2.66512,6.90056 2.04232,6.50896 C0.21992,5.36256 0.00232,3.05576 1.54952,1.55736 C2.22672,0.90176 3.08112,0.66096 4.00632,0.60016 C5.60672,0.49456 6.99312,1.27536 7.64792,2.70696 C7.16232,2.99176 6.67232,3.27896 6.16032,3.57896 C6.11512,3.51776 6.07112,3.47336 6.04392,3.42016 C5.47272,2.30336 4.25952,2.23296 3.44872,2.47736 C2.91592,2.63816 2.59792,3.03336 2.48392,3.56176 C2.37112,4.08536 2.51872,4.55936 2.96392,4.87896 C3.26712,5.09696 3.60432,5.27496 3.94432,5.43256 C4.59272,5.73336 5.26832,5.97816 5.90752,6.29616 C8.84512,7.75736 8.33432,11.13616 6.79512,12.54216 C5.79352,13.45736 4.58792,13.64616 3.26512,13.53416 C1.79872,13.40976 0.05832,11.83016 -8e-05,9.88376 C0.59592,9.75296 1.19952,9.62056 1.77672,9.49376"></path>
                    <polygon points="13.6376 13.31952 15.5072 13.31952 15.5072 0.84032 13.6376 0.84032"></polygon>
                    <path d="M87.79756,11.81632 C85.08396,11.79672 83.19156,9.83432 83.20636,7.05512 C83.22156,4.29752 85.13756,2.35392 87.82756,2.36752 C90.58036,2.38152 92.43636,4.33792 92.41396,7.20232 C92.39316,9.88672 90.44356,11.83512 87.79756,11.81632 M87.84636,0.59352 C84.14636,0.56992 81.31716,3.34672 81.30316,7.01552 C81.28916,10.77352 84.04516,13.56712 87.77756,13.57872 C91.51556,13.58992 94.31236,10.83112 94.32156,7.12392 C94.33036,3.39832 91.57276,0.61712 87.84636,0.59352"></path>
                    <path d="M101.87192,6.6266 L101.87192,2.5954 C102.62632,2.5766 103.36712,2.5498 104.06432,2.8502 C104.81832,3.1754 105.14272,3.7694 105.10872,4.677 C105.07992,5.441 104.61232,6.1182 103.80672,6.345 C103.19592,6.5166 102.54232,6.535 101.87192,6.6266 M104.18712,8.0074 C104.33312,7.9538 104.42712,7.9154 104.52352,7.8842 C106.08632,7.375 106.99152,6.0826 106.95192,4.415 C106.91192,2.7338 105.93312,1.4486 104.32952,1.0542 C103.76632,0.9158 103.17432,0.8606 102.59232,0.837 C101.71352,0.8018 100.83232,0.8278 99.95312,0.8278 L99.95312,13.3206 L101.83952,13.3206 L101.83952,8.2754 C101.88272,8.2374 101.92552,8.1998 101.96832,8.1618 C102.09992,8.2666 102.26552,8.3474 102.35872,8.479 C103.43352,9.999 104.49512,11.5282 105.56792,13.0498 C105.65032,13.1662 105.78552,13.3214 105.90112,13.3258 C106.59792,13.3514 107.29592,13.3386 108.07272,13.3386 C106.75232,11.527 105.47832,9.7786 104.18712,8.0074"></path>
                    <path d="M57.7904,8.47932 C58.4228,7.08972 59.0468,5.71892 59.7044,4.27452 C60.3348,5.71332 60.9316,7.07532 61.5468,8.47932 L57.7904,8.47932 Z M59.78,0.08692 C57.6896,4.53212 55.6284,8.91572 53.5484,13.33972 C54.1848,13.33972 54.7576,13.32892 55.3292,13.34492 C55.5476,13.35132 55.6512,13.27212 55.7364,13.07852 C56.0976,12.25692 56.4824,11.44572 56.8404,10.62252 C56.936,10.40332 57.044,10.30372 57.2972,10.30532 C58.8736,10.31692 60.4504,10.31652 62.0268,10.30572 C62.2612,10.30412 62.3716,10.38452 62.4592,10.59452 C62.8052,11.42252 63.1604,12.24692 63.5344,13.06252 C63.5896,13.18292 63.76,13.32132 63.8832,13.32692 C64.4676,13.35492 65.0544,13.33932 65.7112,13.33932 C63.7268,8.90572 61.7688,4.53052 59.78,0.08692 L59.78,0.08692 Z"></path>
                    <path d="M75.304,4.63724 C75.276,5.47084 74.7536,6.17124 73.9084,6.34924 C73.3072,6.47604 72.678,6.47124 72.0408,6.52684 C72.0248,6.37084 72.0108,6.29604 72.0104,6.22124 C72.0092,5.02444 72.0096,3.82724 72.0096,2.51604 C72.7156,2.59964 73.4004,2.60164 74.0388,2.77524 C74.9584,3.02564 75.3368,3.66444 75.304,4.63724 M74.3852,1.00524 C72.9908,0.79724 71.5604,0.82724 70.1136,0.75044 L70.1136,13.31884 L72.0148,13.31884 L72.0148,8.31724 C72.8,8.24204 73.544,8.21724 74.2704,8.09204 C75.9488,7.80284 77.1352,6.31244 77.1492,4.54444 C77.1628,2.81444 76.0348,1.25084 74.3852,1.00524"></path>
                </g>
            </g>
        </g>
    </g>
</svg>