<?xml version="1.0" encoding="UTF-8"?>
<svg width="150px" height="40px" viewBox="0 0 150 40" version="1.1" xmlns="http://www.w3.org/2000/svg" xmlns:xlink="http://www.w3.org/1999/xlink">
    <!-- Generator: Sketch 43.2 (39069) - http://www.bohemiancoding.com/sketch -->
    <title>logo_experience_singaporebrides</title>
    <desc>Created with Sketch.</desc>
    <defs></defs>
    <g stroke="none" stroke-width="1" fill="none" fill-rule="evenodd">
        <g transform="translate(-54.000000, -857.000000)" fill="#000000">
            <g transform="translate(29.000000, 777.000000)">
                <g transform="translate(25.000000, 80.000000)">
                    <path d="M77.35745,37.45245 C78.22645,37.40345 79.04245,37.40195 79.84495,37.29745 C80.43395,37.22095 81.04395,37.09345 81.57795,36.84545 C84.81945,35.34045 85.70745,30.75745 83.32595,28.08345 C81.69045,26.24745 79.54495,26.25445 77.35745,26.27095 L77.35745,37.45245 Z M74.97645,23.92145 C77.01345,24.02745 79.02545,24.00245 80.99995,24.26445 C83.96695,24.65795 86.20445,26.91995 86.85995,30.05395 C87.61695,33.67045 86.21795,37.27295 82.57245,38.91445 C81.85795,39.23645 81.05645,39.46545 80.27845,39.52495 C78.52945,39.65895 76.76995,39.65945 74.97645,39.71545 L74.97645,23.92145 Z"></path>
                    <path d="M34.8676,26.2633 L34.8676,30.7713 C35.9696,30.6943 37.1316,30.8803 37.7756,29.7448 C38.2296,28.9428 38.2891,28.0308 37.8221,27.2248 C37.1556,26.0743 35.9676,26.3128 34.8676,26.2633 L34.8676,26.2633 Z M34.8426,37.4093 C35.3806,37.4093 35.8661,37.4228 36.3506,37.4048 C36.7231,37.3913 37.0986,37.3628 37.4656,37.2983 C38.6756,37.0858 39.3691,36.2963 39.4216,35.1023 C39.4686,34.0468 38.8066,33.0753 37.7551,32.8923 C36.8081,32.7278 35.8316,32.7348 34.8426,32.6648 L34.8426,37.4093 Z M32.4506,23.9313 C34.0341,24.0268 35.5921,24.0048 37.1106,24.2388 C39.8216,24.6573 41.2546,27.8873 39.8366,30.2383 C39.6016,30.6278 39.2191,30.9288 38.8906,31.2863 C38.9096,31.2963 38.9721,31.3403 39.0416,31.3623 C41.1346,32.0363 41.9296,33.7438 41.7321,35.7958 C41.5246,37.9503 40.0286,39.3538 37.6086,39.5428 C35.9111,39.6753 34.1956,39.5683 32.4506,39.5683 L32.4506,23.9313 Z"></path>
                    <polygon points="93.58725 24.03655 102.14675 24.03655 102.14675 26.27205 95.97575 26.27205 95.97575 30.23005 101.96525 30.23005 101.96525 32.48055 95.98225 32.48055 95.98225 37.40855 102.15325 37.40855 102.15325 39.62955 93.58725 39.62955"></polygon>
                    <path d="M110.63975,34.85235 C110.76725,35.32235 110.83825,35.76035 111.00275,36.15935 C111.48425,37.32785 112.42625,37.85085 113.73925,37.72835 C114.83525,37.62635 115.68325,36.90085 115.91925,35.86385 C116.19825,34.63785 115.76775,33.53885 114.68975,32.94135 C113.99525,32.55685 113.23975,32.28385 112.52175,31.93985 C111.93625,31.65935 111.33225,31.39785 110.79525,31.03985 C109.34475,30.07135 108.76175,28.50835 109.17825,26.87035 C109.58675,25.26335 111.00025,24.01685 112.62825,23.82135 C113.91375,23.66685 115.16075,23.70785 116.29825,24.44485 C117.02825,24.91835 117.54475,25.56385 117.96025,26.36135 C117.32125,26.73585 116.70775,27.09585 116.08875,27.45885 C115.88375,27.18135 115.71575,26.89985 115.49675,26.66585 C114.53225,25.63535 112.50825,25.70885 111.76875,26.78835 C111.23975,27.56035 111.32725,28.47585 112.05575,29.06135 C112.42925,29.36185 112.87925,29.57785 113.31825,29.78285 C114.14275,30.16735 115.00375,30.47735 115.81475,30.88635 C119.42775,32.70785 118.79175,36.95535 116.83525,38.70835 C115.74425,39.68585 114.42925,39.99735 112.99025,39.95685 C110.46025,39.88635 108.78525,37.86685 108.41725,35.92085 C108.34375,35.53235 108.36125,35.28885 108.85675,35.22735 C109.46375,35.15185 110.05925,34.97885 110.63975,34.85235"></path>
                    <polygon points="64.84 39.6334 67.148 39.6334 67.148 24.0334 64.84 24.0334"></polygon>
                    <path d="M50.68235,31.26725 L50.68235,26.22825 C51.82835,26.24125 52.98935,26.11625 53.97735,26.88975 C54.69585,27.45275 54.84335,28.24325 54.71685,29.08975 C54.56785,30.08225 53.92335,30.70575 53.00185,30.95225 C52.27535,31.14675 51.50085,31.16325 50.68235,31.26725 M53.57935,32.99175 C53.72785,32.94275 53.81585,32.91325 53.90385,32.88425 C56.09035,32.17175 57.16735,30.52675 57.01635,28.12925 C56.88935,26.10575 55.47185,24.51025 53.29785,24.21925 C51.66135,24.00025 49.99235,24.02425 48.29835,23.93825 L48.29835,39.63825 L50.66685,39.63825 L50.66685,33.28825 C50.71135,33.25425 50.75585,33.22025 50.80035,33.18625 C50.96835,33.31725 51.17935,33.41775 51.29735,33.58375 C52.65185,35.49725 53.98985,37.42175 55.34035,39.33725 C55.43385,39.47025 55.59185,39.64425 55.72435,39.64875 C56.59635,39.67675 57.46935,39.66325 58.44435,39.66325 C56.79385,37.39975 55.19985,35.21375 53.57935,32.99175"></path>
                    <path d="M26.6907,0 C30.4752,3.9635 34.1842,7.8475 37.9877,11.831 L37.9877,1.0545 L40.3772,1.0545 L40.3772,17.598 C36.6042,13.647 32.8832,9.751 29.0897,5.7785 L29.0897,16.632 L26.6907,16.632 L26.6907,0 Z"></path>
                    <path d="M60.18425,10.73465 L56.28775,10.73465 L56.28775,8.57815 L62.71325,8.57815 C62.69925,10.70615 62.29375,12.68015 60.93025,14.38265 C59.50975,16.15665 57.60525,16.83415 55.41225,16.97115 C50.68025,17.26715 48.07775,13.68115 47.54675,10.47465 C47.20275,8.39865 47.46525,6.39965 48.56175,4.58465 C50.19525,1.88065 52.70175,0.71665 55.78825,0.75815 C58.13625,0.78965 60.18975,1.56865 61.73225,3.43365 C61.88575,3.61965 62.01875,3.82215 62.20175,4.07115 C61.55725,4.52365 60.94025,4.95715 60.37475,5.35465 C59.80425,4.83465 59.31125,4.30915 58.74425,3.88165 C56.45175,2.15165 51.54975,2.60365 50.18675,6.69365 C49.27025,9.44365 50.06925,12.39065 52.22475,13.88265 C54.40475,15.39115 58.54525,15.24215 59.91375,11.77015 C60.03625,11.45915 60.08575,11.11915 60.18425,10.73465"></path>
                    <polygon points="143.37845 14.41575 149.54095 14.41575 149.54095 16.64175 140.97245 16.64175 140.97245 1.06125 149.54195 1.06125 149.54195 3.26475 143.37545 3.26475 143.37545 7.24525 149.36595 7.24525 149.36595 9.48025 143.37845 9.48025"></polygon>
                    <path d="M2.2209,11.8672 C2.4089,12.4372 2.5164,12.9542 2.7434,13.4122 C3.2654,14.4667 4.2324,14.8957 5.5324,14.7252 C6.5114,14.5967 7.2984,13.8602 7.5414,12.8447 C7.8054,11.7407 7.4239,10.6687 6.4884,10.0647 C6.0409,9.7757 5.5369,9.5737 5.0534,9.3417 C4.2189,8.9407 3.3314,8.6257 2.5529,8.1362 C0.2749,6.7032 0.0029,3.8197 1.9369,1.9467 C2.7834,1.1272 3.8514,0.8262 5.0079,0.7502 C7.0084,0.6182 8.7414,1.5942 9.5599,3.3837 C8.9529,3.7397 8.3404,4.0987 7.7004,4.4737 C7.6439,4.3972 7.5889,4.3417 7.5549,4.2752 C6.8409,2.8792 5.3244,2.7912 4.3109,3.0967 C3.6449,3.2977 3.2474,3.7917 3.1049,4.4522 C2.9639,5.1067 3.1484,5.6992 3.7049,6.0987 C4.0839,6.3712 4.5054,6.5937 4.9304,6.7907 C5.7409,7.1667 6.5854,7.4727 7.3844,7.8702 C11.0564,9.6967 10.4179,13.9202 8.4939,15.6777 C7.2419,16.8217 5.7349,17.0577 4.0814,16.9177 C2.2484,16.7622 0.0729,14.7877 -0.0001,12.3547 C0.7449,12.1912 1.4994,12.0257 2.2209,11.8672"></path>
                    <polygon points="17.047 16.6494 19.384 16.6494 19.384 1.0504 17.047 1.0504"></polygon>
                    <path d="M109.74695,14.7704 C106.35495,14.7459 103.98945,12.2929 104.00795,8.8189 C104.02695,5.3719 106.42195,2.9424 109.78445,2.9594 C113.22545,2.9769 115.54545,5.4224 115.51745,9.0029 C115.49145,12.3584 113.05445,14.7939 109.74695,14.7704 M109.80795,0.7419 C105.18295,0.7124 101.64645,4.1834 101.62895,8.7694 C101.61145,13.4669 105.05645,16.9589 109.72195,16.9734 C114.39445,16.9874 117.89045,13.5389 117.90195,8.9049 C117.91295,4.2479 114.46595,0.7714 109.80795,0.7419"></path>
                    <path d="M127.3399,8.28325 L127.3399,3.24425 C128.2829,3.22075 129.2089,3.18725 130.0804,3.56275 C131.0229,3.96925 131.4284,4.71175 131.3859,5.84625 C131.3499,6.80125 130.7654,7.64775 129.7584,7.93125 C128.9949,8.14575 128.1779,8.16875 127.3399,8.28325 M130.2339,10.00925 C130.4164,9.94225 130.5339,9.89425 130.6544,9.85525 C132.6079,9.21875 133.7394,7.60325 133.6899,5.51875 C133.6399,3.41725 132.4164,1.81075 130.4119,1.31775 C129.7079,1.14475 128.9679,1.07575 128.2404,1.04625 C127.1419,1.00225 126.0404,1.03475 124.9414,1.03475 L124.9414,16.65075 L127.2994,16.65075 L127.2994,10.34425 C127.3534,10.29675 127.4069,10.24975 127.4604,10.20225 C127.6249,10.33325 127.8319,10.43425 127.9484,10.59875 C129.2919,12.49875 130.6189,14.41025 131.9599,16.31225 C132.0629,16.45775 132.2319,16.65175 132.3764,16.65725 C133.2474,16.68925 134.1199,16.67325 135.0909,16.67325 C133.4404,14.40875 131.8479,12.22325 130.2339,10.00925"></path>
                    <path d="M72.238,10.59915 C73.0285,8.86215 73.8085,7.14865 74.6305,5.34315 C75.4185,7.14165 76.1645,8.84415 76.9335,10.59915 L72.238,10.59915 Z M74.725,0.10865 C72.112,5.66515 69.5355,11.14465 66.9355,16.67465 C67.731,16.67465 68.447,16.66115 69.1615,16.68115 C69.4345,16.68915 69.564,16.59015 69.6705,16.34815 C70.122,15.32115 70.603,14.30715 71.0505,13.27815 C71.17,13.00415 71.305,12.87965 71.6215,12.88165 C73.592,12.89615 75.563,12.89565 77.5335,12.88215 C77.8265,12.88015 77.9645,12.98065 78.074,13.24315 C78.5065,14.27815 78.9505,15.30865 79.418,16.32815 C79.487,16.47865 79.7,16.65165 79.854,16.65865 C80.5845,16.69365 81.318,16.67415 82.139,16.67415 C79.6585,11.13215 77.211,5.66315 74.725,0.10865 L74.725,0.10865 Z"></path>
                    <path d="M94.13,5.79655 C94.095,6.83855 93.442,7.71405 92.3855,7.93655 C91.634,8.09505 90.8475,8.08905 90.051,8.15855 C90.031,7.96355 90.0135,7.87005 90.013,7.77655 C90.0115,6.28055 90.012,4.78405 90.012,3.14505 C90.8945,3.24955 91.7505,3.25205 92.5485,3.46905 C93.698,3.78205 94.171,4.58055 94.13,5.79655 M92.9815,1.25655 C91.2385,0.99655 89.4505,1.03405 87.642,0.93805 L87.642,16.64855 L90.0185,16.64855 L90.0185,10.39655 C91,10.30255 91.93,10.27155 92.838,10.11505 C94.936,9.75355 96.419,7.89055 96.4365,5.68055 C96.4535,3.51805 95.0435,1.56355 92.9815,1.25655"></path>
                </g>
            </g>
        </g>
    </g>
</svg>