<?xml version="1.0" encoding="UTF-8"?>
<svg width="112px" height="29px" viewBox="0 0 112 29" version="1.1" xmlns="http://www.w3.org/2000/svg" xmlns:xlink="http://www.w3.org/1999/xlink">
    <!-- Generator: Sketch 43.2 (39069) - http://www.bohemiancoding.com/sketch -->
    <title>logo_lifehacker</title>
    <desc>Created with Sketch.</desc>
    <defs></defs>
    <g stroke="none" stroke-width="1" fill="none" fill-rule="evenodd">
        <g transform="translate(-64.000000, -860.000000)" fill="#8F9EBC">
            <g transform="translate(29.000000, 777.000000)">
                <g transform="translate(35.000000, 83.285714)">
                    <polygon points="0 27.9999992 3.99999989 27.9999992 3.99999989 1.0761953 0 0.799999978"></polygon>
                    <path d="M11.121277,27.6879214 L6.85580522,27.6879214 L6.85580522,8.2064991 L11.121277,8.44929104 L11.121277,27.6879214 Z M8.98854111,2.27876772 C10.3300557,2.27876772 11.4308286,3.38805628 11.4308286,4.74013678 C11.4308286,6.09202936 10.3300557,7.20131792 8.98854111,7.20131792 C7.64702655,7.20131792 6.54625363,6.09202936 6.54625363,4.74013678 C6.54625363,3.38805628 7.64702655,2.27876772 8.98854111,2.27876772 L8.98854111,2.27876772 Z"></path>
                    <path d="M21.303007,12.1235111 L21.303007,16.4219808 L18.1039964,16.4219808 L18.1039964,27.6693362 L13.8385246,27.6693362 L13.8385246,6.29988708 C13.8385246,3.04155159 16.5215537,0.094974494 19.6862526,0.094974494 C20.7527137,0.094974494 21.6125586,0.407108714 21.8189884,0.545793274 L21.6470568,4.67081329 L19.6862526,4.67081329 C18.8264077,4.67081329 18.1039964,5.39881327 18.1039964,6.29988708 L18.1039964,12.1235111 L21.303007,12.1235111 Z"></path>
                    <path d="M27.2937254,15.8672613 L30.492736,15.8672613 L30.492736,13.8568989 C30.492736,12.9554493 29.7703246,12.2276372 28.9104798,12.2276372 C28.0161367,12.2276372 27.2937254,12.9554493 27.2937254,13.8568989 L27.2937254,15.8672613 Z M23.0282536,13.8568989 C23.0282536,10.5983755 25.6426592,7.92916757 28.9104798,7.92916757 C32.1438021,7.92916757 34.7582077,10.5983755 34.7582077,13.8568989 L34.7582077,18.0166841 C34.7582077,19.2298921 33.7950547,20.165731 32.6254718,20.165731 L27.2937254,20.165731 L27.2937254,22.0377846 C27.2937254,22.9388584 28.0161367,23.6668584 28.9104798,23.6668584 L33.0038334,23.6668584 L33.1414533,27.3066704 L29.2888413,27.8959858 C25.5738493,28.5198784 23.0282536,25.2959322 23.0282536,22.0377846 L23.0282536,13.8568989 Z"></path>
                    <path d="M38.4056579,27.6879214 L38.4056579,0.545774482 L41.1574969,0.545774482 L41.1574969,8.79581452 C41.9142201,8.5532105 43.1183012,8.44929104 43.9438342,8.44929104 C46.867605,8.44929104 49.1379608,11.1183111 49.1379608,14.1342305 L49.1379608,27.6879214 L46.4549317,27.6879214 L46.4549317,14.1342305 C46.4549317,12.6434654 45.2508506,11.4650225 43.7717161,11.4650225 L41.1574969,11.4650225 L41.1574969,27.6879214 L38.4056579,27.6879214 Z"></path>
                    <path d="M59.2054923,22.453688 L59.2054923,17.7739297 L56.556775,17.7739297 C55.0776405,17.7739297 53.9080576,18.9525606 53.9080576,20.4429498 L53.9080576,22.453688 C53.9080576,23.9442651 55.0776405,25.1572852 56.556775,25.1572852 C58.0359094,25.1572852 59.2054923,23.9442651 59.2054923,22.453688 L59.2054923,22.453688 Z M59.2054923,13.6834869 C59.2054923,12.1235675 58.483081,10.8755943 56.5224632,11.0838091 L56.556775,11.0838091 C55.456002,11.1183863 54.0456775,11.2570708 52.8762811,11.3264131 C52.8417829,10.321044 52.8074711,9.93975543 52.7729729,9.17717827 C53.7018142,8.83046687 55.0431423,8.48375547 56.1784134,8.44917829 C59.6183521,8.37983601 61.8885214,11.1877286 61.8885214,14.20346 L61.8885214,22.453688 C61.8885214,25.4346543 59.5152304,27.8958355 56.556775,27.8958355 C53.5986925,27.8958355 51.1562185,25.4346543 51.1562185,22.453688 L51.1562185,20.755084 C51.1562185,17.7739297 53.1858327,15.5207754 56.556775,15.5207754 C57.8294796,15.5207754 58.483081,15.65946 59.2054923,15.8672989 L59.2054923,13.6834869 Z"></path>
                    <path d="M69.5949016,8.44925346 C72.553357,8.44925346 74.995458,10.8756695 74.995458,13.891401 L74.995458,14.2381124 C73.9291833,14.2728775 73.069152,14.2728775 72.2781172,14.3074546 L72.2781172,13.891401 C72.2781172,12.4355889 71.0740361,11.2223809 69.5949016,11.2223809 C68.1502653,11.2223809 66.9806824,12.4355889 66.9806824,13.891401 L66.9806824,22.5576826 C66.9806824,24.0828369 68.1502653,25.2268906 69.5949016,25.2268906 C71.0397243,25.2268906 72.2436189,24.117602 72.2781172,22.6614141 C73.6196317,22.7655215 74.8923363,22.8348638 74.995458,22.8348638 C74.8578381,25.7119107 72.4500488,28.000018 69.5949016,28.000018 C66.6368191,28.000018 64.2288434,25.5732261 64.2288434,22.5576826 L64.2288434,13.891401 C64.2288434,10.8756695 66.6368191,8.44925346 69.5949016,8.44925346"></path>
                    <path d="M85.8375212,27.6879214 L80.6088964,18.5016666 C80.092915,17.6005928 80.092915,17.4966733 80.7120181,16.421962 L85.3215397,8.72666016 L88.4517403,8.72666016 L83.2576138,17.6005928 L88.8646001,27.6879214 L85.8375212,27.6879214 Z M77.1691442,27.6879214 L79.9209833,27.6879214 L79.9209833,0.614928842 L77.1691442,0.614928842 L77.1691442,27.6879214 Z"></path>
                    <path d="M92.1959906,16.8378841 L97.4934254,16.8378841 L97.4934254,13.9260721 C97.4934254,12.4356829 96.2893443,11.2224749 94.844708,11.2224749 C93.3655735,11.2224749 92.1959906,12.4356829 92.1959906,13.9260721 L92.1959906,16.8378841 Z M89.4441516,13.9260721 C89.4441516,10.9103406 91.8519408,8.44934742 94.844708,8.44934742 C97.8027905,8.44934742 100.210953,10.9103406 100.210953,13.9260721 L100.210953,18.1899646 C100.210953,18.9873069 99.5914766,19.5764344 98.8349399,19.5764344 L92.1959906,19.5764344 L92.1959906,22.5228235 C92.1959906,24.0135886 93.3655735,25.2267966 94.844708,25.2267966 L98.3189584,25.2267966 C98.3532702,26.1278704 98.3877684,26.7521389 98.4563919,27.3758435 L95.1542596,27.8960046 C91.7831309,28.4851321 89.4441516,25.5387429 89.4441516,22.5228235 L89.4441516,13.9260721 Z"></path>
                    <path d="M105.376418,27.6879214 L102.624579,27.6879214 L102.624579,14.1688077 C102.624579,11.1528883 104.963558,8.34518366 108.403497,8.41452594 C109.57308,8.44929104 110.295491,8.72666016 111.086526,9.10776082 C111.052028,9.93968026 111.017716,10.6331031 110.983404,11.2569957 L107.990637,11.1876534 C106.546001,11.1876534 105.376418,12.7475728 105.376418,14.1688077 L105.376418,27.6879214 Z"></path>
                </g>
            </g>
        </g>
    </g>
</svg>