<?xml version="1.0" encoding="UTF-8"?>
<svg width="120px" height="25px" viewBox="0 0 120 25" version="1.1" xmlns="http://www.w3.org/2000/svg" xmlns:xlink="http://www.w3.org/1999/xlink">
    <!-- Generator: Sketch 43.2 (39069) - http://www.bohemiancoding.com/sketch -->
    <title>logo_designmodo</title>
    <desc>Created with Sketch.</desc>
    <defs></defs>
    <g stroke="none" stroke-width="1" fill="none" fill-rule="evenodd">
        <g transform="translate(-54.000000, -862.000000)" fill="#8F9EBC">
            <g transform="translate(29.000000, 777.000000)">
                <g transform="translate(25.000000, 85.000000)">
                    <path d="M78.3985497,6.66953349 C76.849358,6.3264388 75.2968406,6.53983372 73.8116674,7.30084988 C73.5323141,7.44357506 73.1676028,7.64727021 73.0376259,7.72292841 C72.9955012,7.74787067 72.9411824,7.74676212 72.9001663,7.72181986 L72.8233995,7.67747806 C72.655455,7.5768776 72.3600277,7.40145035 72.185709,7.30417552 C71.1203972,6.69890993 69.9738845,6.39239723 68.7777644,6.39239723 C67.7288037,6.39239723 67.0531455,6.6329515 67.0456628,6.636 C67.0390115,6.63932564 66.232545,6.94999538 65.5832148,7.22602309 C65.5505127,7.24015704 65.5139307,7.24015704 65.4792887,7.22713164 L63.529358,6.44560739 L63.5349007,18.1557229 L66.0008591,19.5023279 L66.0008591,10.864545 C66.0443695,9.12274365 67.0401201,8.1646836 68.8038152,8.1646836 C70.3951316,8.1646836 71.3141155,9.14436028 71.3260323,10.8526282 L71.3227067,18.0160462 L73.8928684,19.4092102 L73.9014596,10.8808961 C73.8884342,9.29262818 74.687418,8.38888684 76.2745774,8.19489145 C78.0379954,7.97844804 79.1249238,8.8877321 79.2016905,10.6178938 L79.1975335,18.0409885 L81.8117598,19.5023279 L81.820351,10.7498106 C81.785709,8.41909469 80.7627991,7.19803233 78.3985497,6.66953349"></path>
                    <path d="M45.895455,22.8723326 C45.5784111,22.9524249 45.2502818,22.9806928 44.9592887,23.0056351 C44.8401201,23.0142263 44.7295427,23.0239261 44.6452933,23.03806 C44.4504665,23.0239261 44.298873,23.0186605 44.152545,23.0131178 C43.8440924,22.9989838 43.5844157,22.9859584 43.3158707,22.9296998 C42.2613672,22.7002309 41.0694042,22.4427714 41.1009977,21.0579215 C41.1334226,19.5544573 42.2971178,19.330254 43.5508822,19.3108545 L43.6146236,19.309746 C43.8906513,19.3053118 44.1633533,19.3011547 44.4374411,19.3011547 C44.9493118,19.3011547 45.358642,19.3150115 45.726679,19.348545 C46.9920831,19.4546882 47.656933,19.966836 47.7597506,20.9151963 C47.8919446,22.1190762 47.1101432,22.5683141 45.895455,22.8723326 M42.9292656,8.75806005 C43.3646467,8.32157044 43.9837691,8.10096998 44.7697275,8.10096998 L44.770836,8.10096998 L44.8714365,8.10180139 C46.5763788,8.14420323 47.3712055,9.0665127 47.3723141,11.0064665 C47.3734226,12.0036028 47.1655704,12.7277598 46.7387806,13.2160739 C46.3103279,13.7074365 45.677903,13.9454965 44.8043695,13.9454965 L44.7112517,13.944388 C43.039843,13.911963 42.1920831,12.9389376 42.185709,11.0530254 C42.1823834,10.0290069 42.4312517,9.25690531 42.9292656,8.75806005 M49.0750393,18.4891455 C48.175455,17.7940878 47.0572102,17.467067 45.5545774,17.4551501 L45.4528684,17.4551501 C45.3087575,17.4551501 45.1638152,17.4573672 45.0185958,17.4584758 L44.8941617,17.4606928 C44.1514365,17.467067 43.3657552,17.4692841 42.6077875,17.1533487 C42.0415982,16.9161201 41.3141155,16.5026328 41.5338845,15.6604157 C41.6336536,15.2815704 41.819612,15.097552 42.1067252,15.097552 C42.3101432,15.097552 42.5351778,15.1884527 42.7322217,15.2696536 C42.8439076,15.3128868 42.9478337,15.3550115 43.0484342,15.384388 C43.5691732,15.5304388 44.1278799,15.604157 44.7090346,15.604157 C47.0669099,15.604157 49.5048776,14.5172286 49.5048776,12.6964434 L49.5048776,6.44009238 L48.0141617,7.51842956 C47.957903,7.55833718 47.8819677,7.54974596 47.8345774,7.50013857 C47.5421986,7.18503464 46.969358,6.87741339 46.7409977,6.78983834 C45.9486651,6.48554273 45.1660323,6.33200924 44.4177644,6.33200924 C42.9855242,6.33200924 41.7007206,6.90457275 40.7002587,7.98928406 C40.0054781,8.83593533 39.785709,9.9951963 39.7488499,10.2193995 C39.4911132,12.4428637 40.4871409,14.1187067 40.7978106,14.57903 C40.8216443,14.6145035 40.8280185,14.6610624 40.8130531,14.7012471 C40.7989192,14.7433718 40.7653857,14.7738568 40.7229838,14.7868822 C40.3657552,14.8908083 39.7649238,15.2294688 39.7649238,16.32194 C39.7649238,17.8123788 40.3679723,18.1945497 40.8205358,18.3516859 C40.8659861,18.3677598 40.9006282,18.406836 40.9092194,18.4533949 C40.9200277,18.4999538 40.9039538,18.5487298 40.8682032,18.5811547 C40.5378568,18.8843418 40.2163788,19.2360277 40.1243695,19.3734873 C39.5182725,20.2894226 39.3373025,21.2821247 39.618873,22.1686836 C39.8829838,23.0012009 40.5433995,23.6593995 41.4765173,24.0199538 C43.7617829,24.9065127 46.0764249,24.8729792 48.4126836,23.9182448 C49.4680185,23.4861894 50.1880185,22.5724711 50.3351778,21.4736259 C50.4889885,20.3326559 50.0189654,19.2166282 49.0750393,18.4891455"></path>
                    <path d="M104.071344,15.3128591 C103.969635,16.71794 103.108018,17.4747991 101.513376,17.5720739 C101.425801,17.5798337 101.336841,17.5828822 101.251483,17.5828822 C99.751067,17.5828822 98.8545312,16.7980323 98.8545312,15.4838522 L98.866448,10.3709654 C98.9617829,9.01133487 99.8732841,8.22842494 101.337949,8.27830947 C103.072268,8.34981062 103.991252,9.12496074 104.071344,10.5821432 L104.071344,15.3128591 Z M104.097395,0.668979215 L104.091021,7.08108083 C104.091021,7.12985681 104.06497,7.17530716 104.021737,7.19914088 C103.980443,7.223806 103.92751,7.2229746 103.886217,7.19914088 C103.534531,6.99322864 102.562337,6.51378291 101.112915,6.51378291 C97.8446467,6.51378291 96.1870947,8.28274365 96.1870947,11.7738291 L96.1870947,13.7592333 C96.1870947,16.3346605 97.1074642,19.4050531 101.499242,19.4050531 C103.037626,19.4050531 104.221829,18.5800185 104.443815,18.4153995 C104.467649,18.3971085 104.497025,18.3896259 104.525016,18.3896259 C104.544416,18.3896259 104.565201,18.3926744 104.5846,18.4023741 L106.81139,19.484037 L106.800582,2.15332102 L104.097395,0.668979215 Z"></path>
                    <path d="M7.90090531,15.2261432 C7.89868822,15.2588453 7.70164434,17.58097 5.24954273,17.58097 C2.81490069,17.58097 2.60178291,15.3042956 2.59402309,15.2067436 L2.59513164,10.6567206 C2.60067436,8.95177829 3.9431224,8.06078522 5.26589376,8.06078522 C6.75882679,8.06078522 7.82303002,9.11639723 7.91393072,10.6849885 L7.90090531,15.2261432 Z M7.95827252,0.990484988 L7.96242956,7.12545035 C7.96242956,7.17838337 7.93111316,7.22715935 7.88344573,7.24877598 C7.83383834,7.27039261 7.77730254,7.26290993 7.73739492,7.22937644 C7.28593995,6.84387991 6.33757968,6.39242494 5.15337644,6.38494226 L5.08935797,6.38494226 C1.62210624,6.38494226 0.00667898383,7.92221709 0.00667898383,11.2206928 C0.00667898383,11.6430485 0.00584757506,12.0673441 0.00363048499,12.4905312 C-0.00080369515,13.4366744 -0.00412933025,14.4144111 0.012221709,15.3866051 C0.0413210162,17.1888222 0.987464203,18.3896536 2.82681755,18.9555658 C4.35328406,19.4233718 5.87975058,19.3496536 7.25684065,18.742448 C7.54145958,18.6180139 8.03725635,18.4425866 8.18219861,18.3927021 C8.19744111,18.3874365 8.2126836,18.3852194 8.2279261,18.3852194 C8.25065127,18.3852194 8.27337644,18.390485 8.29388453,18.4024018 L10.3992887,19.5674827 L10.40594,17.7605543 L10.3452471,2.51362587 L7.95827252,0.990484988 Z"></path>
                    <path d="M89.1298199,17.9597875 L89.0910208,17.9597875 C87.0731917,17.9597875 86.1345312,17.0967852 86.044739,15.1634827 L86.0500046,10.7356767 C86.1278799,8.87581524 87.0654319,8.00782448 88.9967945,7.99701617 L89.0347621,7.99701617 C91.0384573,7.99701617 92.0117598,8.88579215 92.101552,10.7930439 L92.1070947,15.2219584 C92.0267252,17.0818199 91.0816905,17.9489792 89.1298199,17.9597875 M91.0340231,6.65872517 C90.3325912,6.50740878 89.6397506,6.4303649 88.9729607,6.4303649 C88.477164,6.4303649 87.9824758,6.47359815 87.5038614,6.55701617 C84.4423372,7.10048037 83.4507436,8.26112702 83.4238614,11.334291 L83.4238614,14.9880554 C83.5103279,17.5981247 84.4706051,18.7260693 87.0925912,19.2978014 C88.3180878,19.5630208 89.4981339,19.5976628 90.6216443,19.3995104 C93.647418,18.8646374 94.6769792,17.6599261 94.7041386,14.6244527 L94.7060785,14.1860231 C94.7116212,13.5244988 94.7179954,11.482836 94.70303,10.9740139 C94.6162864,8.36061894 93.6560092,7.23045727 91.0340231,6.65872517"></path>
                    <path d="M114.259427,17.9597875 L114.220628,17.9597875 C112.20363,17.9597875 111.264139,17.0967852 111.174069,15.1634827 L111.178503,10.7356767 C111.259704,8.87581524 112.196148,8.00782448 114.126402,7.99701617 L114.164092,7.99701617 C116.168065,7.99701617 117.143307,8.88579215 117.231159,10.7930439 L117.236425,15.2219584 C117.156333,17.0818199 116.211298,17.9489792 114.259427,17.9597875 M119.832637,10.9740139 C119.745894,8.35951039 118.785617,7.23045727 116.16363,6.65872517 C115.463307,6.50740878 114.769358,6.4303649 114.103677,6.4303649 C113.60788,6.4303649 113.112915,6.47359815 112.634577,6.55701617 C109.571945,7.10048037 108.580351,8.26112702 108.553192,11.334291 L108.5543,14.9880554 C108.638827,17.5970162 109.599104,18.7260693 112.222199,19.2978014 C113.450744,19.5652379 114.629681,19.5976628 115.751252,19.3995104 C118.775917,18.865746 119.805478,17.6599261 119.832637,14.6244527 L119.835686,14.1860231 C119.841229,13.667224 119.84982,11.5097182 119.832637,10.9740139"></path>
                    <path d="M57.0166559,6.44979215 C56.2545312,6.44979215 55.4123141,6.58642032 54.5127298,6.85690531 C53.7453395,7.08748268 53.5438614,7.18614319 53.3814596,7.26512702 C53.2961016,7.30614319 53.2212748,7.34300231 53.0871409,7.3895612 C53.044739,7.40147806 53.0037229,7.39704388 52.9690808,7.37542725 L50.9967021,6.10891455 L51.0019677,17.9986143 L53.6261709,19.3637875 L53.6217367,10.6653118 C53.614254,9.31981524 54.3860785,8.44933025 55.7955935,8.21764434 C56.012037,8.18106236 56.2179492,8.17662818 56.3725912,8.17662818 L56.4862171,8.17662818 C58.039843,8.19491917 58.8549007,9.0978291 58.9100508,10.8604157 L58.9081109,17.8905312 L61.6101894,19.4070208 L61.6046467,12.0986605 C61.6024296,8.50891455 59.9299122,6.44979215 57.0166559,6.44979215"></path>
                    <path d="M30.8782725,12.2502263 C30.2136998,12.0304573 29.5216905,11.8311963 28.9089423,11.6560462 C28.2529607,11.466485 27.574254,11.2716582 26.9074642,11.0518891 C25.8313441,10.693552 25.3604896,10.1392794 25.4685727,9.35664665 C25.5866328,8.49170439 26.2090808,8.00560739 27.370836,7.8711963 C29.4341155,7.62870208 30.9855242,8.52939492 32.1492194,10.6198337 C32.9135612,9.47886374 33.1591039,8.7990485 32.9958707,8.27941801 C32.84206,7.78999538 32.3268637,7.4155843 31.2183187,6.98796305 C30.1821062,6.58639261 29.2046467,6.39156582 28.2302356,6.39156582 C27.5493118,6.39156582 26.8672794,6.49216628 26.2049238,6.68921016 C24.2464018,7.26842494 23.2797506,8.39082679 23.2514827,10.1165543 C23.2234919,11.7793718 24.1621524,12.9549838 25.9635381,13.5147991 C26.3997506,13.6478245 26.8392887,13.7778014 27.2777182,13.9077783 L27.4237691,13.9510115 C28.3114365,14.2117968 29.2295889,14.4825589 30.1161478,14.7954457 C31.0015982,15.107224 31.4400277,15.6928129 31.349127,16.4452379 C31.2507436,17.2810808 30.6887113,17.7757691 29.6788268,17.9154457 C27.3414596,18.2399723 25.609358,17.3295797 24.3677875,15.1191409 C23.7084804,16.2504111 23.3695427,17.0189099 23.5721293,17.5895335 C23.7614134,18.1210808 24.4304203,18.463067 25.4480647,18.8441293 C27.2561016,19.518679 28.9990115,19.6148453 30.6640462,19.134291 C32.5139307,18.5983095 33.4980416,17.4997413 33.5878337,15.8693487 C33.6864942,14.1197875 32.7489423,12.8674088 30.8782725,12.2502263"></path>
                    <path d="M35.2703279,6.34808314 L35.2625681,12.4181986 C35.2636767,12.949746 35.2625681,13.5547344 35.260351,14.1860508 L35.260351,14.2486836 C35.2584111,15.5174134 35.256194,16.9529792 35.2692194,18.052933 L37.8368868,19.5067898 L37.8282956,7.57468822 L35.2703279,6.34808314 Z"></path>
                    <path d="M18.3777644,10.1911316 C18.4905589,10.1739492 18.5739769,10.0786143 18.5781339,9.95972286 C18.5856166,9.78318707 18.5856166,9.60554273 18.5781339,9.43344111 C18.5728684,9.30235566 18.5013672,9.22448037 18.3877413,9.22448037 C18.3758245,9.22448037 18.3650162,9.22448037 18.3378568,9.22669746 C18.1538383,9.246097 17.9676028,9.26577367 17.8063095,9.32951501 C17.1991039,9.56979215 16.8136074,10.0320554 16.6913903,10.6664203 C16.6035381,11.1245266 16.6858476,11.5768129 16.9305589,11.9786605 C17.2877875,12.5631409 17.8539769,12.9106697 18.6105589,13.0112702 C18.9614134,13.0567206 19.3834919,12.9766282 19.6456628,12.9203695 C20.105709,12.8164434 20.5147621,12.5925173 20.862291,12.2569053 C21.3927298,11.743649 21.679843,11.0821247 21.7413672,10.2335335 C21.7718522,9.80812933 21.7219677,9.37496536 21.5930993,8.94845266 C21.4534226,8.48508083 21.2303279,8.07381062 20.9326836,7.7273903 C20.2409515,6.91981524 19.2903741,6.45644342 18.1061709,6.34919169 C16.414254,6.2713164 15.2926836,6.82337182 14.9712055,6.98577367 C14.0400277,7.45357968 13.2823372,8.14836028 12.7172564,9.05016166 C12.3414596,9.65210162 12.0914827,10.3039261 11.9778568,10.9837413 C11.9193811,11.3376443 11.9149469,11.6981986 11.9149469,12.0673441 C11.9160554,12.4949654 11.9365635,12.8186605 11.9820139,13.1163048 C12.0363326,13.4660508 12.1336074,13.8188453 12.2278337,14.16 L12.1056166,14.2315012 L12.2375335,14.1957506 C12.3675104,14.6666051 12.5764711,15.132194 12.8741155,15.6171824 C13.4835381,16.6076674 14.2631224,17.4130254 15.3154088,18.0116397 C15.7873718,18.2801848 16.1814596,18.4716859 16.5569792,18.6157968 C17.0378106,18.7975982 17.5280647,18.9328406 18.0748545,19.0791686 C18.4254319,19.1700693 18.7807206,19.2382448 19.1282494,19.2803695 C19.3901432,19.3130716 19.6498199,19.3269284 19.9239076,19.3410624 L19.9757321,19.3454965 C20.0982263,19.3507621 20.4889885,19.3712702 20.7106975,19.3574134 C20.9609515,19.3421709 21.2184111,19.3269284 21.4761478,19.2978291 C21.4869561,19.2978291 21.498873,19.295612 21.5085727,19.2933949 L21.5085727,18.2250346 C21.3170716,18.2433256 21.0670947,18.2488684 21.0313441,18.2499769 C20.3470947,18.2499769 19.6833533,18.1460508 19.0567483,17.9401386 C18.2730069,17.6837875 17.555224,17.298291 16.9227991,16.7961201 C16.247418,16.2601386 15.7050624,15.6354734 15.3109746,14.9370901 C14.8453857,14.1156582 14.5909746,13.2764896 14.5294503,12.3727483 C14.488157,11.7749654 14.5250162,11.2240185 14.6408591,10.6913626 C14.7492194,10.1955658 14.9407206,9.74189376 15.2125912,9.34254042 C15.6867714,8.64332564 16.3546697,8.20378753 17.1968868,8.0369515 C17.6979492,7.93745958 18.1929145,7.97210162 18.647418,8.13339492 C19.1010901,8.29357968 19.434485,8.55214781 19.6672794,8.92240185 C19.9150393,9.31648961 20.0267252,9.76157044 20.0092656,10.2800924 C19.9962402,10.7218476 19.8546236,11.1018014 19.5882956,11.408037 C19.2623834,11.7838337 18.7740693,11.9190762 18.3248314,11.7500231 C17.9892194,11.6255889 17.7932841,11.3528868 17.772776,10.9815242 C17.7542079,10.6339954 17.9329607,10.2551501 18.3777644,10.1911316"></path>
                    <polygon points="35.2595196 3.58445266 37.8391039 4.77613857 37.8391039 1.59572286 35.2595196 0.277108545"></polygon>
                </g>
            </g>
        </g>
    </g>
</svg>