<?xml version="1.0" encoding="UTF-8"?>
<svg width="130px" height="24px" viewBox="0 0 130 24" version="1.1" xmlns="http://www.w3.org/2000/svg" xmlns:xlink="http://www.w3.org/1999/xlink">
    <!-- Generator: Sketch 43.2 (39069) - http://www.bohemiancoding.com/sketch -->
    <title>logo_experience_sony</title>
    <desc>Created with Sketch.</desc>
    <defs></defs>
    <g stroke="none" stroke-width="1" fill="none" fill-rule="evenodd">
        <g transform="translate(-62.000000, -865.000000)" fill="#221F20">
            <g transform="translate(29.000000, 777.000000)">
                <g transform="translate(33.000000, 88.000000)">
                    <path d="M116.463246,9.75841176 L120.516882,5.43087166 C120.75116,5.11317112 120.868647,4.89071123 120.868647,4.70022995 C120.868647,4.38252941 120.594743,4.25531016 119.735492,4.25531016 L118.712872,4.25531016 L118.712872,1.52391979 L129.782337,1.52391979 L129.782337,4.25531016 L128.32731,4.25531016 C126.647738,4.25531016 126.334904,4.50905348 123.992123,7.46359893 L117.579717,14.3876631 L117.579717,18.6130107 C117.579717,19.6940267 118.126829,20.0742941 119.688914,20.0742941 L122.110251,20.0742941 L122.110251,22.7104439 L106.606882,22.7104439 L106.606882,20.0742941 L109.028219,20.0742941 C110.58961,20.0742941 111.136722,19.6940267 111.136722,18.6130107 L111.136722,14.3876631 L103.584904,6.03429412 C102.336348,4.57370588 102.508754,4.25531016 99.0342086,4.25531016 L99.0342086,1.52391979 L113.055439,1.52391979 L113.055439,4.25531016 L112.056455,4.25531016 C111.041481,4.25531016 110.61116,4.44579144 110.61116,4.8274492 C110.61116,5.14514973 110.923995,5.39958824 111.119342,5.65263636 L114.940091,9.81680749 C115.392658,10.2888396 115.946027,10.350016 116.463246,9.75841176"></path>
                    <path d="M22.3926738,1.52266845 L25.7747594,1.52266845 L25.7747594,9.14609091 L22.6512834,9.14609091 C22.3745989,7.62224064 21.4214973,7.02924599 20.5504278,6.22978075 C18.9813904,4.78796257 15.5840107,3.58737433 12.7254011,3.58737433 C9.03743316,3.58737433 5.92438503,4.73165241 5.92438503,6.41400535 C5.92438503,11.0842727 27.0198396,7.36780214 27.0198396,16.1980695 C27.0198396,20.8043797 22.501123,23.3772674 14.3862032,23.3772674 C11.5769519,23.3772674 7.32518717,22.5048075 4.81764706,21.1735241 C4.03069519,20.7188717 3.69700535,21.6024545 3.55032086,22.7098877 L0.0820320856,22.7098877 L0.0820320856,14.8320267 L3.21871658,14.8320267 C3.91042781,16.8341658 4.86352941,17.2464118 5.74016043,18.0410107 C7.26122995,19.4383369 10.8810695,20.4553957 14.2012834,20.4227219 C19.2073262,20.3733636 20.9293048,19.279139 20.9293048,17.6906364 C20.9293048,16.1028289 19.2267914,15.7218663 13.7403743,14.8640053 L9.08331551,14.1020802 C3.82700535,13.3074813 0,12.1319198 0,7.93924599 C0,3.58737433 4.84128342,0.85528877 12.4952941,0.85528877 C15.7209626,0.85528877 18.4203743,1.28630481 21.0099465,2.75106417 C21.7287701,3.21614439 22.4017112,3.27245455 22.3926738,1.52266845"></path>
                    <path d="M88.3958289,14.2857487 L88.4625668,5.81280749 C88.4625668,4.7018984 87.8848663,4.32024064 86.2324064,4.32024064 L84.2900535,4.32024064 L84.2900535,1.68409091 L96.6442246,1.68409091 L96.6442246,4.32024064 L95.0334759,4.32024064 C93.3796257,4.32024064 92.8012299,4.7018984 92.8012299,5.81280749 L92.8012299,22.870615 L87.965508,22.8337701 L72.3078075,8.00542781 L72.3078075,18.7731818 C72.3078075,19.8535027 72.8862032,20.2657487 74.5386631,20.2657487 L76.6874866,20.2657487 L76.6874866,22.870615 L63.8591979,22.870615 L63.8591979,20.2657487 L65.984385,20.2657487 C67.6368449,20.2657487 68.2152406,19.8535027 68.2152406,18.7731818 L68.2152406,5.81280749 C68.2152406,4.7018984 67.6368449,4.32024064 65.984385,4.32024064 L63.8591979,4.32024064 L63.8591979,1.68409091 L74.9516043,1.68409091 L88.3958289,14.2857487 Z"></path>
                    <path d="M46.7927005,20.4533797 C41.3431283,20.4533797 38.210615,17.3083529 38.210615,11.8768556 C38.210615,6.57188235 41.479385,3.42685561 47.0645187,3.42685561 C52.4230214,3.42685561 55.5562299,6.63583957 55.5562299,12.0993155 C55.5562299,17.4355722 52.3778342,20.4533797 46.7927005,20.4533797 M47.0165508,0.695465241 C37.1713102,0.695465241 31.0084759,5.0473369 31.0084759,12.0353583 C31.0084759,18.8975508 37.0858021,23.2167487 46.7162299,23.2167487 C56.9459091,23.2167487 62.896016,18.9608128 62.896016,11.6863743 C62.896016,5.14327273 56.4745722,0.695465241 47.0165508,0.695465241"></path>
                </g>
            </g>
        </g>
    </g>
</svg>