<?xml version="1.0" encoding="UTF-8"?>
<svg width="64px" height="37px" viewBox="0 0 64 37" version="1.1" xmlns="http://www.w3.org/2000/svg" xmlns:xlink="http://www.w3.org/1999/xlink">
    <!-- Generator: Sketch 43.2 (39069) - http://www.bohemiancoding.com/sketch -->
    <title>logo_up</title>
    <desc>Created with Sketch.</desc>
    <defs></defs>
    <g stroke="none" stroke-width="1" fill="none" fill-rule="evenodd">
        <g transform="translate(-84.000000, -851.000000)" fill="#8F9EBC">
            <g transform="translate(29.000000, 777.000000)">
                <g transform="translate(55.000000, 74.800000)">
                    <path d="M32.397376,22.12704 C32.336576,25.6784 31.267136,28.95328 28.640576,31.53248 C26.664256,33.4736 24.217536,34.50528 21.548736,35.0672 C20.767296,35.23168 19.985216,35.41984 19.175616,35.3936 C18.928576,35.50496 18.668736,35.50816 18.405696,35.48704 C18.152256,35.49408 17.898176,35.50112 17.644736,35.5088 C16.691776,35.66368 15.738816,35.64768 14.785856,35.50688 C14.568256,35.50112 14.350656,35.496 14.133056,35.49024 C13.873216,35.48128 13.602496,35.5664 13.361216,35.39872 C7.001536,34.9104 1.912256,31.74688 0.479296,25.25984 C0.187456,23.9408 0.019776,22.60256 0.015936,21.25728 C-0.001984,14.33888 0.009536,7.42048 -6.4e-05,0.50272 C-0.000704,0.15072 0.042176,-0.00032 0.458176,-0.00032 C11.027136,0.01248 21.595456,0.00992 32.164416,0.01056 C32.199616,0.01056 32.234816,0.01824 32.272576,0.02272 C32.358976,0.19552 32.192576,0.2416 32.112576,0.31712 C27.483456,4.71968 22.851136,9.11776 18.227776,13.52608 C18.095296,13.65216 17.646656,13.7904 18.066496,14.0752 C18.350656,14.26784 18.473536,14.90464 19.060416,14.34144 C23.363776,10.20576 27.694656,6.09952 32.017856,1.98496 C32.110016,1.89792 32.209216,1.81856 32.305216,1.73536 C32.341056,1.71616 32.377536,1.69696 32.413376,1.67776 C32.417856,1.74176 32.422336,1.80512 32.426176,1.86912 C32.433216,1.94144 32.445376,2.01376 32.445376,2.08608 C32.440256,8.76704 32.511296,15.44864 32.397376,22.12704 Z M63.890944,11.083136 C64.023424,12.137216 64.022784,13.190656 63.954944,14.247296 C63.972864,14.437376 63.987584,14.627456 63.874944,14.799616 C63.867264,14.907136 63.858944,15.015296 63.850624,15.122816 C63.856384,15.162496 63.860224,15.201536 63.862144,15.239936 C63.865984,15.355776 63.846144,15.466496 63.764864,15.565696 C63.761664,15.601536 63.757824,15.637376 63.754624,15.673216 C63.751424,15.708416 63.747584,15.744256 63.744384,15.780096 C63.750784,15.826176 63.753344,15.871616 63.749504,15.915136 C63.742464,15.987456 63.716864,16.055936 63.660544,16.116096 C63.164544,18.738816 61.853824,20.864896 59.713024,22.454016 C57.736704,23.921536 55.462144,24.598016 53.037184,24.758656 C50.340864,24.937216 47.638784,24.859136 44.939264,24.827136 C44.475264,24.821376 44.591104,25.086336 44.590464,25.312256 C44.585984,27.867776 44.588544,30.423296 44.586624,32.978816 C44.585984,33.781376 44.577024,34.583936 44.571264,35.387136 C44.569984,35.550336 44.461184,35.511936 44.364544,35.497216 C43.983104,35.503616 43.601024,35.517056 43.219584,35.517056 C37.320064,35.518336 31.420544,35.518336 25.521664,35.517056 C25.303424,35.517056 25.085824,35.502976 24.867584,35.495296 L24.286464,35.495296 C24.276224,35.469056 24.266624,35.443456 24.257024,35.417856 C24.454784,35.348096 24.651904,35.278336 24.849664,35.209216 C27.830144,34.023296 30.166144,32.091776 31.721984,29.261696 C31.952384,28.842496 32.156544,28.414336 32.337664,27.978496 C32.880384,26.672256 33.215744,25.298816 33.437184,23.889536 C33.439104,23.850496 33.440384,23.810816 33.441664,23.771776 C33.471744,23.553536 33.501824,23.335936 33.531904,23.117696 C33.558144,22.896896 33.584384,22.676096 33.610624,22.455296 C33.620864,22.128256 33.631744,21.801216 33.641984,21.474816 C33.636864,17.721216 33.629824,13.968256 33.626624,10.215296 C33.623424,7.376256 33.625984,4.537216 33.746304,1.589376 C33.871104,1.750656 33.995904,1.911296 34.120704,2.072576 C36.425984,4.252416 38.733824,6.429696 41.036544,8.612096 C43.035904,10.507136 45.051904,12.384896 47.010304,14.320896 C47.576064,14.879616 47.721344,14.318976 48.009344,14.105856 C48.438784,13.787776 47.987584,13.645056 47.838464,13.502976 C43.245824,9.120896 38.644224,4.748416 34.043264,0.375296 C33.944064,0.280576 33.835904,0.194176 33.622784,0.009216 L34.141184,0.009216 C39.139584,0.009216 44.138624,-0.017024 49.136384,0.020096 C51.790464,0.039936 54.390144,0.457856 56.836224,1.548416 C60.977024,3.394176 63.323904,6.582016 63.890944,11.083136 Z"></path>
                </g>
            </g>
        </g>
    </g>
</svg>