<?xml version="1.0" encoding="UTF-8"?>
<svg width="112px" height="27px" viewBox="0 0 112 27" version="1.1" xmlns="http://www.w3.org/2000/svg" xmlns:xlink="http://www.w3.org/1999/xlink">
    <!-- Generator: Sketch 43.2 (39069) - http://www.bohemiancoding.com/sketch -->
    <title>logo_yahoo</title>
    <desc>Created with Sketch.</desc>
    <defs></defs>
    <g stroke="none" stroke-width="1" fill="none" fill-rule="evenodd">
        <g transform="translate(-54.000000, -866.000000)" fill="#8F9EBC">
            <g transform="translate(29.000000, 777.000000)">
                <g transform="translate(25.000000, 89.000000)">
                    <path d="M66.6206494,22.4671359 C61.7864873,22.4671359 58.9457906,18.9887886 58.9457906,13.1217863 C58.9457906,6.48637081 62.4459307,3.81527385 66.4219868,3.73354693 C66.4851059,3.73219607 66.5486735,3.73354693 66.6121289,3.73354693 C71.0470599,3.73354693 74.3040288,6.76656131 74.3040288,13.1045629 C74.3040288,19.4346844 71.0513201,22.4671359 66.6206494,22.4671359 M66.5993481,2.48490366 C59.3469277,2.48490366 55.542179,7.10202443 55.542179,13.087452 C55.542179,19.638664 59.6959327,23.6342774 66.5885854,23.6342774 C74.0405654,23.6342774 77.6799487,19.1311916 77.6799487,13.1561206 C77.6799487,6.49413824 73.3335864,2.48490366 66.5993481,2.48490366"></path>
                    <path d="M82.3079143,12.9736985 C82.3079143,4.91121385 87.2460044,2.52559827 91.6450595,2.52559827 C97.068595,2.52559827 101.063374,5.83385001 101.063374,13.130398 C101.063374,21.061962 96.2311175,23.6343337 91.65358,23.6343337 C86.7630254,23.6343337 82.3079143,20.7523903 82.3079143,12.9736985 M91.6365389,1.24487212 C84.4141646,1.24487212 78.8935399,5.36262564 78.8935399,13.0187271 C78.8935399,19.326672 82.5657722,24.8784741 91.6962947,24.8784741 C99.4263127,24.8784741 104.473488,20.6113382 104.473488,13.130398 C104.473488,6.07587877 99.7652276,1.24487212 91.6365389,1.24487212"></path>
                    <path d="M11.6917461,14.98301 C14.5420845,9.96175748 19.2472056,1.76936533 20.5392977,0.0167393846 C20.5385129,0.0173022422 20.5375039,0.0178650997 20.5367191,0.0183153858 L20.5382887,0.0167393846 C19.3067371,0.297267605 18.1960424,0.306611041 17.0931956,0.0167393846 L17.0931956,0.0167393846 L17.0931956,0.0167393846 L17.0931956,0.0167393846 L17.0931956,0.0167393846 C16.1212957,1.8343191 12.5371836,7.71573057 10.2559263,11.4818107 L3.41865706,0.0167393846 C2.0038022,0.319781908 1.41196236,0.339031638 2.24224224e-05,0.0167393846 C2.80215255,4.25652043 7.29257898,12.3320633 8.82010651,14.9831226 L8.82010651,14.9831226 L8.61494134,26.0360695 C8.61494134,26.0360695 9.60029469,25.8703642 10.2589534,25.8703642 C10.9888032,25.8703642 11.8969113,26.0360695 11.8969113,26.0360695 L11.6917461,14.98301 Z"></path>
                    <path d="M29.1953506,15.8792931 C26.7709261,15.9636092 24.3465017,15.9649601 21.9221894,15.8792931 L21.9200593,15.8801937 C23.4038631,12.1012805 24.812776,8.45598961 25.5564156,6.30722449 C26.6899812,9.47994013 27.9358831,12.6761832 29.2025257,15.8824452 L29.1953506,15.8792931 Z M35.5530042,23.3540419 C33.4974286,19.4999308 29.3720392,9.41712522 26.7505217,2.75559313 L26.7483916,2.75660628 L26.7507459,2.75503028 C25.8997029,3.05356994 25.2060653,3.03668421 24.3703816,2.75615599 L24.3666819,2.75401713 C21.6135447,9.69078658 18.4415568,17.5201356 15.5889762,23.3586573 L15.5889762,23.3586573 L15.588752,23.3612465 L15.6008601,23.3559556 C15.5972725,23.3568562 15.5935728,23.3575316 15.5898731,23.3585447 L15.6124076,23.3510024 L15.6008601,23.3559556 C16.9051724,23.0311868 18.1499532,23.1316006 18.9729682,23.3552802 C18.9709502,23.354267 18.9691564,23.3530287 18.9672505,23.3521282 L18.971847,23.3537042 C19.6991183,21.5085444 20.5274026,19.4177536 21.355799,17.3146926 L21.3600593,17.3173943 C24.1631984,17.2372434 26.9663375,17.2263239 29.7694767,17.3173943 L29.7700372,17.3170566 C30.5669301,19.3294976 31.3664016,21.3450906 32.1456929,23.360571 L32.1454687,23.3611339 C33.3946218,23.0336633 34.6377209,23.12282 35.5559191,23.3552802 L35.5530042,23.3540419 Z"></path>
                    <path d="M54.55557,2.76289903 C53.3955459,3.04185124 52.256599,3.03408381 51.1369353,2.76289903 C51.302637,5.96420782 51.3915419,9.16833091 51.4034258,12.3749306 C47.5776,12.4644249 43.7552496,12.4716295 39.9373838,12.3749306 L39.936599,12.3752683 C39.9484829,9.16855605 40.0373878,5.9643204 40.2032016,2.76289903 C39.0834258,3.03408381 37.9444789,3.04185124 36.7844549,2.76289903 C37.0822246,9.64011814 37.0563267,16.5043915 36.7844549,23.3587586 C37.8948132,23.090163 39.03163,23.0782304 40.1988292,23.3587586 L40.1922146,23.3550438 L40.2032016,23.3587586 C40.0346971,20.1629658 39.9472496,16.9697622 39.9363748,13.7791477 L39.9373838,13.7797105 C43.7595099,13.7261265 47.5815239,13.7236499 51.4037622,13.7752077 C51.3928873,16.967173 51.3054398,20.161615 51.1369353,23.3587586 L51.1481465,23.3549312 L51.1413077,23.3587586 C52.3085069,23.0782304 53.4454358,23.090163 54.55557,23.3587586 C54.2838102,16.5043915 54.2579123,9.64011814 54.55557,2.76289903"></path>
                    <path d="M110.567274,0.317113963 L110.565929,0.318915107 L110.566153,0.317339106 C110.566153,0.317339106 110.354037,0.28716994 110.210197,0.28716994 C109.389425,0.28716994 108.576051,0.770552033 108.576051,2.00624957 C108.08926,8.20488758 107.582289,14.4216496 106.74896,20.3369451 L106.745036,20.3404348 C106.746269,20.3402097 106.747391,20.3402097 106.748512,20.3399845 L106.748512,20.3404348 L106.752211,20.3395343 C107.256267,20.2524039 107.64709,20.3845629 108.026814,20.5381104 L108.024908,20.5348458 C108.971359,14.5270165 111.218534,5.52782434 111.794005,2.98055605 C111.876632,2.62257863 111.999955,2.19908458 111.999955,1.89818092 C111.999955,0.989278491 111.426165,0.461318076 110.567274,0.317113963"></path>
                    <path d="M106.643037,22.8274999 C105.567545,22.8274999 105.031089,23.6511857 105.031089,24.5370109 C105.031089,25.5814495 105.861839,26.1166144 106.889011,26.1166144 C107.631865,26.1166144 108.44266,25.6631764 108.44266,24.4331074 C108.44266,23.4456301 107.67245,22.8274999 106.643037,22.8274999"></path>
                </g>
            </g>
        </g>
    </g>
</svg>