<?xml version="1.0" encoding="UTF-8"?>
<svg width="96px" height="24px" viewBox="0 0 96 24" version="1.1" xmlns="http://www.w3.org/2000/svg" xmlns:xlink="http://www.w3.org/1999/xlink">
    <!-- Generator: Sketch 43.2 (39069) - http://www.bohemiancoding.com/sketch -->
    <title>logo_tnw</title>
    <desc>Created with Sketch.</desc>
    <defs></defs>
    <g stroke="none" stroke-width="1" fill="none" fill-rule="evenodd">
        <g transform="translate(-69.000000, -862.000000)" fill="#8F9EBC">
            <g transform="translate(29.000000, 777.000000)">
                <g transform="translate(40.000000, 85.000000)">
                    <path d="M20.3636252,0 L5.26027397e-05,0 L5.26027397e-05,8.72732055 L5.81817863,8.72732055 L5.81817863,23.2727671 L14.5454992,23.2727671 L14.5454992,8.72732055 L20.3636252,8.72732055 L20.3636252,0 Z M87.2727321,0 L87.2727321,7.56374795 C87.2727321,8.58187397 86.8363923,9.45455342 86.254606,10.1817863 L82.9090718,13.5273205 C82.1818389,14.2545534 81.3091595,14.5454466 80.2910334,14.5454466 L76.654606,14.5454466 C77.8181786,13.2364274 78.5454115,11.4908055 78.5454115,9.74544658 L78.5454115,0 L69.818091,0 L69.818091,7.56374795 C69.818091,8.58187397 69.3817512,9.45455342 68.7999649,10.1817863 L65.4544307,13.5273205 C64.7271978,14.2545534 63.8545184,14.5454466 62.8363923,14.5454466 L61.0907704,14.5454466 L61.0907704,0 L52.3637129,0 L52.3637129,23.2727671 L65.018091,23.2727671 C66.9091595,23.2727671 68.7999649,22.5455342 70.1089841,21.0908055 L74.1817512,17.0180384 L74.1817512,23.2727671 L82.4727321,23.2727671 C84.3635375,23.2727671 86.254606,22.5455342 87.5636252,21.0908055 L93.818091,14.8363397 C95.2728197,13.5273205 96.0000526,11.6362521 96.0000526,9.74544658 L96.0000526,0 L87.2727321,0 Z M49.4545184,23.2727671 L40.7271978,23.2727671 L40.7271978,15.7090192 C40.7271978,14.6908932 40.2908581,13.8182137 39.7090718,13.0909808 L36.3635375,9.74544658 C35.6363047,9.16366027 34.7636252,8.72732055 33.7454992,8.72732055 L32.0001403,8.72732055 L32.0001403,23.2727671 L23.2728197,23.2727671 L23.2728197,0 L35.9271978,0 C37.8182663,0 39.7090718,0.727232877 41.018091,2.18169863 L47.2728197,8.4364274 C48.7272855,9.74544658 49.4545184,11.6362521 49.4545184,13.5273205 L49.4545184,23.2727671 Z"></path>
                </g>
            </g>
        </g>
    </g>
</svg>