<?xml version="1.0" encoding="UTF-8"?>
<svg width="130px" height="43px" viewBox="0 0 130 43" version="1.1" xmlns="http://www.w3.org/2000/svg" xmlns:xlink="http://www.w3.org/1999/xlink">
    <!-- Generator: Sketch 43.2 (39069) - http://www.bohemiancoding.com/sketch -->
    <title>logo_experience_mydoc</title>
    <desc>Created with Sketch.</desc>
    <defs>
        <polygon id="path-1" points="10.4208839 0.136518448 10.4208839 35.9121413 0.211532359 35.9121413 0.211532359 0.136518448 10.4208839 0.136518448"></polygon>
    </defs>
    <g stroke="none" stroke-width="1" fill="none" fill-rule="evenodd">
        <g transform="translate(-70.000000, -857.000000)">
            <g transform="translate(29.000000, 777.000000)">
                <g transform="translate(41.000000, 80.000000)">
                    <g transform="translate(118.654514, 3.028106)">
                        <mask id="mask-2" fill="white">
                            <use xlink:href="#path-1"></use>
                        </mask>
                        <g></g>
                        <path d="M5.58116058,18.0240736 C5.58116058,23.5488687 3.55431644,28.597079 0.211532359,32.4730448 L3.64433021,35.9121413 C7.85912268,31.1521878 10.420935,24.8881741 10.420935,18.0240736 C10.420935,11.1602294 7.85912268,4.89647193 3.64433021,0.136518448 L0.211532359,3.57587118 C3.55431644,7.45158073 5.58116058,12.4992786 5.58116058,18.0240736" fill="#233E6D" mask="url(#mask-2)"></path>
                    </g>
                    <path d="M118.225491,21.0521799 C118.225491,24.9140531 116.86659,28.4566659 114.604739,31.2308499 L118.036514,34.6696902 C121.168584,31.0079313 123.06501,26.253871 123.06501,21.0521799 C123.06501,15.8515137 121.168584,11.0971973 118.036514,7.43492589 L114.604739,10.8745348 C116.86659,13.6476939 118.225491,17.1908191 118.225491,21.0521799" fill="#859CC5"></path>
                    <path d="M112.216049,21.0524361 C112.216049,23.2501064 111.510515,25.2814845 110.319367,26.9369757 L113.770577,30.3955456 C115.824016,27.8376183 117.054801,24.5899243 117.054801,21.0521799 C117.054801,17.5146917 115.824016,14.2669978 113.770577,11.7098392 L110.318344,15.1678966 C111.510515,16.823644 112.216049,18.8552783 112.216049,21.0524361" fill="#C8D0E1"></path>
                    <path d="M102.163276,26.2568176 C99.2945984,26.2568176 96.9690722,23.9266773 96.9690722,21.0525643 C96.9690722,18.1787074 99.2945984,15.8480546 102.163276,15.8480546 C103.57818,15.8480546 104.859853,16.4168815 105.796303,17.3362287 L109.231914,13.8932888 C107.416551,12.0932848 104.919692,10.9807415 102.163276,10.9807415 C96.61183,10.9807415 92.1113973,15.4901037 92.1113973,21.0525643 C92.1113973,26.6155373 96.61183,31.1246433 102.163276,31.1246433 C104.919692,31.1246433 107.416551,30.0120999 109.231914,28.2126084 L105.796303,24.7688998 C104.859853,25.6887595 103.57818,26.2568176 102.163276,26.2568176" fill="#233E6D"></path>
                    <path d="M18.9016386,11.0022134 C16.7065301,11.0022134 14.7298072,11.9215606 13.3212963,13.3925674 C11.9125297,11.9215606 9.93529539,11.0022134 7.74044259,11.0022134 C3.46581142,11.0022134 2.55720936e-05,14.4743634 2.55720936e-05,18.757476 C2.55720936e-05,18.9604088 0.0153688283,19.1589857 0.0302006426,19.3578189 L0.0302006426,31.1655885 L4.28846567,31.1655885 L4.28846567,26.3989731 L4.28846567,18.757476 C4.28846567,16.8472938 5.83353157,15.2991623 7.74044259,15.2991623 C9.57830896,15.2991623 11.0658376,16.7422402 11.1719618,18.5573616 C11.1696604,18.6247497 11.1614773,18.6900879 11.1614773,18.757476 C11.1614773,18.8251202 11.1696604,18.8907147 11.1719618,18.9578465 C11.1747748,19.0921101 11.1816792,19.2256051 11.1911409,19.3578189 L11.1911409,26.3989731 L11.1911409,31.1655885 L15.4494059,31.1655885 L15.4494059,26.3989731 L15.4494059,19.3578189 C15.4596348,19.2256051 15.4662835,19.0921101 15.4701193,18.9578465 C15.4724208,18.8907147 15.4803482,18.8251202 15.4803482,18.757476 C15.4803482,18.6900879 15.4724208,18.6247497 15.4701193,18.5573616 C15.5757321,16.7422402 17.0637722,15.2991623 18.9016386,15.2991623 C20.8075267,15.2991623 22.3533598,16.8472938 22.3533598,18.757476 L22.3533598,26.3989731 L22.3533598,31.1655885 L26.6108576,31.1655885 L26.6108576,19.3578189 C26.6264566,19.1589857 26.6412884,18.9604088 26.6412884,18.757476 C26.6412884,14.4743634 23.1762698,11.0022134 18.9016386,11.0022134" fill="#B4B4B4"></path>
                    <path d="M79.9422772,26.1987563 C77.1122136,26.1987563 74.8176297,23.9001321 74.8176297,21.0636846 C74.8176297,18.2280058 77.1122136,15.9286128 79.9422772,15.9286128 C82.7733637,15.9286128 85.067692,18.2280058 85.067692,21.0636846 C85.067692,23.9001321 82.7733637,26.1987563 79.9422772,26.1987563 M79.9422772,11.0026234 C74.3972244,11.0026234 69.9016504,15.5071172 69.9016504,21.0636846 C69.9016504,26.6197394 74.3972244,31.1247457 79.9422772,31.1247457 C85.4878415,31.1247457 89.9844384,26.6197394 89.9844384,21.0636846 C89.9844384,15.5071172 85.4878415,11.0026234 79.9422772,11.0026234" fill="#233E6D"></path>
                    <path d="M57.6118812,26.1987563 C54.7818176,26.1987563 52.4864665,23.9001321 52.4864665,21.0636846 C52.4864665,18.2280058 54.7818176,15.9286128 57.6118812,15.9286128 C60.4422005,15.9286128 62.7365288,18.2280058 62.7365288,21.0636846 C62.7365288,23.9001321 60.4422005,26.1987563 57.6118812,26.1987563 L57.6118812,26.1987563 Z M62.7365288,0.256151451 L62.7365288,12.4126478 C61.2364697,11.5181548 59.4845256,11.0026234 57.6118812,11.0026234 C52.0668284,11.0026234 47.5707429,15.5071172 47.5707429,21.0636846 C47.5707429,26.6197394 52.0668284,31.1247457 57.6118812,31.1247457 C63.1571897,31.1247457 67.6522523,26.6197394 67.6522523,21.0636846 L67.6522523,0.256151451 L62.7365288,0.256151451 Z" fill="#233E6D"></path>
                    <path d="M44.8403337,11.0027259 L40.5823244,11.0027259 L40.5823244,15.7685726 L40.5823244,23.4062263 L40.5823244,23.4141694 C40.5815573,24.2038651 40.3061458,24.923098 39.86068,25.5052487 C39.2300721,26.3285103 38.2481037,26.8688959 37.1306032,26.8688959 C35.6561163,26.8688959 34.4069195,25.9385308 33.9133781,24.6343287 C33.7678729,24.2525485 33.6791378,23.8420707 33.6791378,23.410326 L33.6791378,15.7685726 L33.6791378,11.0022134 L29.4213842,11.0022134 L29.4213842,22.8102393 C29.4060409,23.0088162 29.3912091,23.2071369 29.3912091,23.410326 C29.3912091,24.4698301 29.6047361,25.4796259 29.9890847,26.4005105 C30.5549951,27.7546772 31.4950252,28.9102669 32.676456,29.7463399 C33.9374159,30.6367333 35.4719972,31.1655885 37.1306032,31.1655885 C37.9911042,31.1655885 38.8152928,31.0190259 39.5885929,30.7592104 C39.9322818,30.6446764 40.262929,30.504007 40.5823244,30.3443768 L40.5823244,33.7265906 L40.5823244,33.7429892 C40.5777215,36.4828386 38.3590866,38.7033132 35.6236398,38.7033132 L35.6236398,42.9997497 C40.3396453,42.9997497 44.2245577,39.4596992 44.7920025,34.8880736 C44.7920025,34.8880736 44.8403337,34.2034315 44.8403337,33.1265039 L44.8403337,11.0027259 Z" fill="#B4B4B4"></path>
                </g>
            </g>
        </g>
    </g>
</svg>