<?xml version="1.0" encoding="UTF-8"?>
<svg width="64px" height="51px" viewBox="0 0 64 51" version="1.1" xmlns="http://www.w3.org/2000/svg" xmlns:xlink="http://www.w3.org/1999/xlink">
    <!-- Generator: Sketch 43.2 (39069) - http://www.bohemiancoding.com/sketch -->
    <title>logo_cnbc</title>
    <desc>Created with Sketch.</desc>
    <defs></defs>
    <g stroke="none" stroke-width="1" fill="none" fill-rule="evenodd">
        <g transform="translate(-89.000000, -846.000000)" fill="#8F9EBC">
            <g transform="translate(29.000000, 777.000000)">
                <g transform="translate(60.000000, 69.000000)">
                    <path d="M8.42732097,10.4826248 C5.870699,12.7970328 4.9401883,18.0411983 9.54900999,21.1068074 L27.9356348,33.7213809 L19.0205535,13.2967989 C17.1524108,8.47707846 12.0417233,7.42605421 8.42732097,10.4826248"></path>
                    <path d="M24.2547675,0.552216833 C21.2660314,0.613112696 16.7780884,4.1721883 18.7753267,9.60698431 L27.9959829,31.3529244 L31.2360628,8.48036519 C31.9858031,2.79705563 27.6848388,0.173512126 24.2547675,0.552216833"></path>
                    <path d="M32.6749215,7.60801141 L34.4184422,7.60801141 C34.4184422,7.60801141 35.3495007,7.60801141 35.4762225,8.04724679 C34.790117,8.60754351 32.9226134,8.67775178 33.1705792,11.6705963 L36.1015235,31.3498203 L45.259184,9.54681883 C47.1323481,4.67861912 43.2005934,0.6129301 39.712913,0.488673324 C39.5500371,0.476987161 39.3865221,0.467492154 39.2172553,0.467492154 C36.0869158,0.467400856 32.4996291,2.74245934 32.6749215,7.60801141"></path>
                    <path d="M44.8905221,13.4820428 L36.2288845,33.6615806 L54.6101227,20.9804508 C58.8472696,17.9750984 58.163903,13.1702596 55.7920685,10.7952297 C54.7977404,9.67737518 52.9720514,8.81387732 51.0380827,8.81387732 C48.7532553,8.81342083 46.3080171,10.0253124 44.8905221,13.4820428"></path>
                    <path d="M52.5520708,23.8516862 L35.2898739,35.9091583 L56.54463,35.9091583 C60.9053033,35.9091583 63.7076086,31.4130899 62.4618454,27.2871441 C61.6274716,24.693729 59.1589524,22.6579629 56.2937427,22.6550414 C55.0876942,22.6554979 53.8086984,23.0187732 52.5520708,23.8516862"></path>
                    <path d="M7.93202853,35.9091583 L28.8731755,35.9091583 L11.6065963,23.8516862 C7.61759772,21.2887646 3.13230243,22.788428 1.51303852,27.0415521 C0.140462197,31.9102083 3.56752068,35.9091583 7.93202853,35.9091583"></path>
                    <path d="M0.0675149786,44.6354351 C0.0675149786,46.688913 1.74621398,50.4267504 8.15607418,50.4267504 C14.0658031,50.4267504 15.9323024,47.7150128 15.9323024,46.4716234 L11.3570785,46.4716234 C11.3570785,46.4716234 11.1397889,48.1143509 8.5588816,48.1143509 C5.97633096,48.1143509 5.27790014,45.9587104 5.27790014,44.7122168 C5.27790014,43.4704708 5.97633096,41.4312354 8.5588816,41.4312354 C11.1397889,41.4312354 11.3570785,42.8614208 11.3570785,42.8614208 L15.9323024,42.8614208 C15.9323024,41.6165706 14.5628302,38.943087 8.15607418,38.943087 C1.74621398,38.943087 0.0675149786,42.9238688 0.0675149786,44.6354351"></path>
                    <path d="M48.0498031,44.6354351 C48.0498031,46.688913 49.7302368,50.4267504 56.1383623,50.4267504 C62.0475435,50.4267504 63.9147732,47.7150128 63.9147732,46.4716234 L59.3427447,46.4716234 C59.3427447,46.4716234 59.1244508,48.1143509 56.5429044,48.1143509 C53.9600799,48.1143509 53.2609187,45.9587104 53.2609187,44.7122168 C53.2609187,43.4704708 53.9600799,41.4312354 56.5429044,41.4312354 C59.1244508,41.4312354 59.3427447,42.8614208 59.3427447,42.8614208 L63.9147732,42.8614208 C63.9147732,41.6165706 62.5467618,38.943087 56.1383623,38.943087 C49.7303281,38.943087 48.0498031,42.9238688 48.0498031,44.6354351"></path>
                    <polygon points="28.4364051 39.1348131 28.4364051 46.0863452 23.111806 39.1348131 17.1220999 39.1348131 17.1220999 50.1454608 21.2284165 50.1454608 21.2284165 43.1140428 26.4598003 50.1454608 32.5429957 50.1454608 32.5429957 39.1348131"></polygon>
                    <path d="M44.9553438,44.2917889 C45.702893,44.2917889 47.2659173,43.424 47.2659173,41.7428359 C47.2659173,39.3489073 42.8081027,39.1348131 42.1242796,39.1348131 L33.9109158,39.1348131 L33.9109158,50.1454608 L42.1242796,50.1454608 C46.0745678,50.1454608 47.6614208,48.8975064 47.6614208,46.813535 C47.6614208,44.7295635 44.9553438,44.2917889 44.9553438,44.2917889 L44.9553438,44.2917889 Z M38.2048502,41.2763024 L41.5016262,41.2763024 L41.5016262,41.2809586 C42.0601883,41.2809586 42.5131184,41.6484337 42.5131184,42.1007247 C42.5131184,42.5547504 42.0601883,42.91903 41.5016262,42.91903 L41.5016262,42.9239601 L38.2048502,42.9239601 L38.2048502,41.2763024 Z M41.594933,47.5149786 L41.594933,47.529495 L38.1734437,47.529495 L38.1734437,45.5077889 L41.594933,45.5077889 L41.594933,45.5143623 C42.3255007,45.5143623 42.9159258,45.9633666 42.9159258,46.5162682 C42.9159258,47.0678003 42.3255007,47.5149786 41.594933,47.5149786 L41.594933,47.5149786 Z"></path>
                </g>
            </g>
        </g>
    </g>
</svg>