<?xml version="1.0" encoding="UTF-8"?>
<svg width="112px" height="22px" viewBox="0 0 112 22" version="1.1" xmlns="http://www.w3.org/2000/svg" xmlns:xlink="http://www.w3.org/1999/xlink">
    <!-- Generator: Sketch 43.2 (39069) - http://www.bohemiancoding.com/sketch -->
    <title>logo_verifone</title>
    <desc>Created with Sketch.</desc>
    <defs></defs>
    <g stroke="none" stroke-width="1" fill="none" fill-rule="evenodd">
        <g transform="translate(-62.000000, -864.000000)">
            <g transform="translate(29.000000, 777.000000)">
                <g transform="translate(33.000000, 87.000000)">
                    <path d="M45.8613214,4.36828158 L50.4084497,4.36828158 L51.1395783,0.672197365 L46.5915641,0.672197365 L45.8613214,4.36828158 Z M45.3902186,6.74555952 L49.9384543,6.74555952 L47.0493778,21.3394294 C46.8385221,21.4130796 46.1873503,21.6727467 45.2883346,21.6727467 C44.0750287,21.6727467 42.9620565,21.1983591 42.9620565,19.5159744 C42.9620565,19.1995677 42.9986019,18.8393269 43.0796661,18.4299117 C43.9833331,13.8758358 45.3902186,6.74555952 45.3902186,6.74555952 L45.3902186,6.74555952 Z M90.5496477,6.41224219 C87.5225848,6.41224219 86.3188029,8.19075048 85.754454,9.27347553 L85.7010756,9.27347553 L85.8756074,6.74867464 L81.3809715,6.74867464 C81.3515137,7.30361016 81.1570481,9.05430492 80.8688935,10.5635783 C80.8688935,10.5635783 79.8307839,15.8608317 79.6345464,16.8752467 C79.4848212,17.6497979 79.2112848,18.7952702 79.2112848,19.4601248 C79.2112848,20.8754997 79.9273523,21.6734142 81.5240521,21.6734142 C82.4197456,21.6734142 83.0649372,21.4275426 83.2999349,21.3396519 L84.8029458,13.7389932 C85.2197843,11.6405181 86.7323191,10.2669748 88.5314581,10.2669748 C89.9828624,10.2669748 90.6770027,11.3290066 90.6770027,12.1972337 C90.6770027,12.9528716 90.4878528,13.7903926 90.3416714,14.5309 L89.6949293,17.7855279 C89.6180733,18.1762523 89.4535085,18.9267726 89.4535085,19.5155294 C89.4535085,20.9542676 90.2621576,21.6734142 91.7979485,21.6734142 C92.6369413,21.6734142 93.1682886,21.4631439 93.5448165,21.3394294 L94.8936724,14.5262273 C95.1855923,12.9862479 95.2938994,12.1752054 95.2938994,11.1950566 C95.2938994,8.37409726 93.6495799,6.41224219 90.5496477,6.41224219 L90.5496477,6.41224219 Z M70.3480391,9.94077771 C67.8055898,9.94077771 66.3973754,12.5483517 66.3973754,14.8724501 C66.3973754,16.8327476 67.2800011,18.1451012 69.2860089,18.1451012 C71.5535929,18.1451012 73.3285898,16.2092796 73.3285898,12.9050324 C73.3285898,11.3933114 72.5261424,9.94077771 70.3480391,9.94077771 L70.3480391,9.94077771 Z M69.0073783,21.6736367 C64.1377649,21.6736367 61.8077216,18.7436483 61.8077216,15.0090702 C61.8077216,9.88492815 65.3147469,6.41224219 70.734091,6.41224219 C75.4362602,6.41224219 77.9333047,9.26858035 77.9333047,12.936851 C77.9333047,18.4341394 74.1879594,21.6736367 69.0073783,21.6736367 L69.0073783,21.6736367 Z M51.9765777,18.1595642 C51.8729218,18.6846837 51.8073617,19.0529348 51.8073617,19.5050715 C51.8073617,21.1781109 52.9218843,21.6734142 54.1030745,21.6734142 C55.0472736,21.6734142 55.6319993,21.4139696 55.8459558,21.3396519 L58.0329185,10.2769876 L61.5685156,10.2767651 L62.2666427,6.74555952 L58.7310456,6.74578203 L58.9029195,5.87621986 C59.2227467,4.24523453 59.9875414,3.52831301 61.3113692,3.52831301 C62.1955453,3.52831301 62.9096195,3.68584884 63.1583494,3.75104375 L63.8239178,0.392727027 C63.5406359,0.321079377 62.2336411,0 60.3000595,0 C57.2180678,0 55.1992137,1.87774696 54.6020847,4.90230134 L54.2370742,6.74555952 L51.9344952,6.74555952 L51.2359252,10.2767651 L53.5396116,10.2767651 C53.5396116,10.2767651 52.6315148,14.8506443 51.9765777,18.1595642 L51.9765777,18.1595642 Z M41.5073298,6.41268721 C39.2246847,6.41268721 37.9695179,8.00273102 37.4784812,9.27147295 L37.4257672,9.27147295 L37.6016279,6.74555952 L33.1052202,6.74555952 C33.065574,7.62135192 32.8828472,9.10125416 32.4248121,11.4289128 C31.9605753,13.7875 31.5080774,16.1396345 31.0414042,18.4294667 C30.9614474,18.8208587 30.925788,19.2037954 30.925788,19.5279898 C30.925788,20.7275317 31.5160509,21.6720792 33.2613685,21.6720792 C34.1258323,21.6720792 34.7267266,21.4466783 35.0151026,21.3394294 L36.3524412,14.5738441 C36.8343969,11.9854058 37.7097136,10.274095 40.2490621,10.274095 C41.4041169,10.274095 42.5018065,10.5215242 42.731267,10.5887217 L43.5009344,6.69616269 C43.3348191,6.63875557 42.6685862,6.41268721 41.5073298,6.41268721 L41.5073298,6.41268721 Z M107.472363,12.6607183 C107.715334,11.3227763 106.939686,9.94122273 105.186395,9.94122273 C103.04528,9.94122273 102.105068,11.4086645 101.685129,12.6607183 L107.472363,12.6607183 Z M109.501627,18.0912542 C109.501627,20.1209743 107.542795,21.6774194 104.07453,21.6774194 C99.2800011,21.6774194 96.9357826,18.6811235 96.9357826,15.0130753 C96.9357826,11.3717281 99.3446753,6.41602483 105.224491,6.41602483 C109.101178,6.41602483 112,8.34828631 112,12.77264 C112,13.8604827 111.758579,15.0431139 111.654923,15.5170565 L101.349797,15.5170565 C101.332964,16.5784207 102.224449,18.4185638 105.805894,18.4185638 C107.402594,18.4185638 109.210371,17.8522804 109.501627,17.7083175 L109.501627,18.0912542 Z M25.2984676,12.6607183 C25.5416603,11.3227763 24.7657913,9.94122273 23.0127217,9.94122273 C20.8713853,9.94122273 19.9313944,11.4086645 19.511455,12.6607183 L25.2984676,12.6607183 Z M27.3277316,18.0912542 C27.3277316,20.1209743 25.3689005,21.6774194 21.9006354,21.6774194 C17.1061061,21.6774194 14.7621091,18.6811235 14.7621091,15.0130753 C14.7621091,11.3717281 17.1707803,6.41602483 23.0508174,6.41602483 C26.927726,6.41602483 29.8263265,8.34828631 29.8263265,12.77264 C29.8263265,13.8604827 29.5849057,15.0431139 29.4810283,15.5170565 L19.1761237,15.5170565 C19.1590692,16.5784207 20.0505544,18.4185638 23.6324423,18.4185638 C25.2289207,18.4185638 27.0364761,17.8522804 27.3277316,17.7083175 L27.3277316,18.0912542 Z M0,1.77984334 L4.57525713,1.77984334 L4.57525713,16.2902726 C4.57525713,18.4724108 5.65744266,19.5860645 7.39500824,19.5860645 C7.57241933,19.5860645 7.6769612,19.5631461 7.71129168,19.5551359 C6.94981935,20.7117336 5.96220878,21.6602862 3.69506776,21.6602862 C1.29592049,21.6602862 0,19.9890269 0,17.4815816 L0,1.77984334 Z" fill="#8F9EBC"></path>
                    <path d="M5.41935484,14.6017919 L5.41935484,16.0997894 C5.41935484,17.5463657 6.18598168,18.0645161 7.02337408,18.0645161 C7.87877952,18.0645161 8.33661122,17.4730631 8.75691572,16.8010868 C9.46114021,15.6752911 18.0645161,1.80645161 18.0645161,1.80645161 L13.4604663,1.80645161 L5.41935484,14.6017919 Z" fill="#BFC9DB"></path>
                </g>
            </g>
        </g>
    </g>
</svg>