<?xml version="1.0" encoding="UTF-8"?>
<svg width="76px" height="33px" viewBox="0 0 76 33" version="1.1" xmlns="http://www.w3.org/2000/svg" xmlns:xlink="http://www.w3.org/1999/xlink">
    <!-- Generator: Sketch 43.2 (39069) - http://www.bohemiancoding.com/sketch -->
    <title>logo</title>
    <desc>Created with Sketch.</desc>
    <defs></defs>
    <g id="Assets" stroke="none" stroke-width="1" fill="none" fill-rule="evenodd" stroke-linecap="round">
        <g id="iPad-Pro-Portrait" transform="translate(-9.000000, -9.000000)" stroke="#6977FD" stroke-width="2">
            <g id="logo" transform="translate(10.000000, 10.000000)">
                <path d="M23.5113829,8.4591439 C20.9595537,13.3049732 21.2113341,19.2395829 24.2863829,23.8616073 C24.8330415,24.6842415 25.4674073,25.4660463 26.1925049,26.1911439 C26.9183585,26.9169976 27.7001634,27.5506073 28.5227976,28.098022 C33.144822,31.1730707 39.0794317,31.4248512 43.925261,28.873022" id="Stroke-1"></path>
                <path d="M29.8461951,2.1242561 C34.6920244,-0.427573171 40.6266341,-0.175792683 45.2486585,2.8992561 C46.0712927,3.44591463 46.8530976,4.08028049 47.5781951,4.80537805 C48.3040488,5.53123171 48.9376585,6.31303659 49.4850732,7.13567073 C52.5593659,11.7576951 52.8119024,17.6923049 50.2600732,22.5381341" id="Stroke-3"></path>
                <path d="M51.2308268,2.12289512 C56.9393634,-0.884104878 64.1623634,0.0043097561 68.964339,4.80552927 C74.869461,10.7114073 74.869461,20.2858707 68.964339,26.1917488 C63.7843146,31.3717732 55.781778,32.0053829 49.9084122,28.0978707 C49.085778,27.5512122 48.3039732,26.9168463 47.5781195,26.1917488 L45.4398756,24.0527488 L40.0935098,18.7063829" id="Stroke-5"></path>
                <path d="M33.6778707,12.2907439 L28.3315049,6.94437805 L26.1925049,4.80537805 C25.4674073,4.08028049 24.6856024,3.44667073 23.8629683,2.8992561 C17.9896024,-1.0082561 9.98706585,-0.374646341 4.80704146,4.80537805 C-1.09808049,10.7112561 -1.09808049,20.2857195 4.80704146,26.1915976 C9.60901707,30.9928171 16.8320171,31.8812317 22.5405537,28.8742317" id="Stroke-7"></path>
                <path d="M33.6778707,18.7064585 L29.4006268,22.9837024" id="Stroke-9"></path>
                <path d="M40.0935854,12.2907439 L44.3708293,8.0135" id="Stroke-11"></path>
                <polyline id="Stroke-13" points="40.0935854 12.2907439 39.0244634 13.3598659 36.8854634 15.4988659 34.7472195 17.6371098 33.6780976 18.7062317"></polyline>
            </g>
        </g>
    </g>
</svg>