<?xml version="1.0" encoding="UTF-8"?>
<svg width="60px" height="58px" viewBox="0 0 60 58" version="1.1" xmlns="http://www.w3.org/2000/svg" xmlns:xlink="http://www.w3.org/1999/xlink">
    <!-- Generator: Sketch 43.2 (39069) - http://www.bohemiancoding.com/sketch -->
    <title>logo_designdesign</title>
    <desc>Created with Sketch.</desc>
    <defs></defs>
    <g stroke="none" stroke-width="1" fill="none" fill-rule="evenodd">
        <g transform="translate(-84.000000, -833.000000)" fill="#8F9EBC">
            <g transform="translate(29.000000, 777.000000)">
                <g transform="translate(55.000000, 56.184211)">
                    <path d="M3.63339474,2.26736842 L1.15286842,2.26736842 L1.15286842,13.6744737 L3.63339474,13.6744737 C6.60260526,13.6744737 8.22734211,11.0518421 8.22734211,7.97131579 C8.22734211,4.89 6.60260526,2.26736842 3.63339474,2.26736842 M3.73839474,14.9028947 L0.576552632,14.9028947 C0.262342105,14.9028947 0.000236842105,14.5902632 0.000236842105,14.2160526 L0.000236842105,1.70526316 C0.000236842105,1.33026316 0.262342105,1.03894737 0.576552632,1.03894737 L3.73839474,1.03894737 C7.23181579,1.03894737 9.38076316,4.245 9.38076316,7.97131579 C9.38076316,11.6968421 7.23181579,14.9028947 3.73839474,14.9028947"></path>
                    <path d="M19.0222105,14.9028158 L12.0527368,14.9028158 C11.7377368,14.9028158 11.4756316,14.5901842 11.4756316,14.2159737 L11.4756316,1.70518421 C11.4756316,1.33097368 11.7377368,1.03886842 12.0527368,1.03886842 L18.7601053,1.03886842 C19.0569474,1.03886842 19.3016842,1.30965789 19.3016842,1.66334211 C19.3016842,2.01781579 19.0569474,2.28781579 18.7601053,2.28781579 L12.6116842,2.28781579 L12.6116842,7.05544737 L16.0877368,7.05544737 C16.3845789,7.05544737 16.6119474,7.32544737 16.6119474,7.67992105 C16.6119474,8.03360526 16.3845789,8.30439474 16.0877368,8.30439474 L12.6116842,8.30439474 L12.6116842,13.6538684 L19.0222105,13.6538684 C19.3190526,13.6538684 19.5464211,13.9246579 19.5464211,14.2783421 C19.5464211,14.6320263 19.3190526,14.9028158 19.0222105,14.9028158"></path>
                    <path d="M25.8520263,15.1734474 C24.4720263,15.1734474 22.2362368,14.5071316 21.1878158,13.0710789 C21.0828158,12.9250263 21.0307105,12.7797632 21.0307105,12.6131842 C21.0307105,12.4671316 21.0654474,12.3423947 21.1530789,12.2176579 C21.2580789,12.0929211 21.3804474,12.0092368 21.5201842,12.0092368 C21.6425526,12.0092368 21.7822895,12.0716053 21.8865,12.1758158 C23.0225526,13.3418684 24.4017632,13.9450263 25.8693947,13.9450263 C27.4065,13.9450263 29.0486053,13.2795 29.0486053,11.3847632 C29.0486053,9.8445 27.5288684,9.24055263 25.0483421,8.15818421 C23.4591316,7.47134211 21.7120263,6.63844737 21.7120263,4.30713158 C21.7120263,1.85107895 23.6162368,0.789236842 25.8867632,0.789236842 C27.3370263,0.789236842 28.9436053,1.41371053 29.8870263,2.26713158 C30.0441316,2.41318421 30.1143947,2.60028947 30.1143947,2.78818421 C30.1143947,2.89160526 30.0796579,3.01713158 30.0267632,3.12055263 C29.9217632,3.28713158 29.7646579,3.39134211 29.6075526,3.39134211 C29.5025526,3.39134211 29.3983421,3.3495 29.3107105,3.28713158 C28.2622895,2.49607895 27.2493947,2.01765789 25.8867632,2.01765789 C24.2801842,2.01765789 22.8472895,2.7045 22.8472895,4.30713158 C22.8472895,5.91055263 24.4372895,6.51371053 26.6209737,7.4295 C28.6815,8.28292105 30.2012368,9.1995 30.2012368,11.3223947 C30.2012368,13.9245 28.2101842,15.1734474 25.8520263,15.1734474"></path>
                    <path d="M33.6596842,15.0693947 C33.3454737,15.0693947 33.0833684,14.7567632 33.0833684,14.3825526 L33.0833684,1.53860526 C33.0833684,1.16439474 33.3454737,0.851763158 33.6596842,0.851763158 C33.9738947,0.851763158 34.2186316,1.16439474 34.2186316,1.53860526 L34.2186316,14.3825526 C34.2186316,14.7567632 33.9738947,15.0693947 33.6596842,15.0693947"></path>
                    <path d="M47.4941842,12.3840789 C46.3415526,14.2156579 44.6118158,15.1732895 42.7431316,15.1732895 C39.3712895,15.1732895 36.9262895,11.7801316 36.9262895,7.97092105 C36.9262895,4.16171053 39.3712895,0.789078947 42.7431316,0.789078947 C44.3323421,0.789078947 45.6602368,1.45539474 46.7252368,2.72565789 C46.8302368,2.85039474 46.8649737,2.99565789 46.8649737,3.16223684 C46.8649737,3.30828947 46.8302368,3.47486842 46.7433947,3.57907895 C46.6557632,3.70381579 46.5160263,3.74565789 46.3936579,3.74565789 C46.2712895,3.74565789 46.1315526,3.70381579 46.0265526,3.59960526 C45.2055,2.78802632 44.2099737,2.0175 42.7431316,2.0175 C39.9128684,2.0175 38.0615526,4.86907895 38.0615526,7.97092105 C38.0615526,11.0932895 39.9128684,13.9456579 42.7431316,13.9456579 C44.3149737,13.9456579 45.6776053,13.1546053 46.4812895,11.8219737 L46.4812895,8.74144737 L43.2665526,8.74144737 C42.9870789,8.74144737 42.7605,8.45013158 42.7605,8.11697368 C42.7605,7.78381579 42.9870789,7.51302632 43.2665526,7.51302632 L47.0576053,7.51302632 C47.3718158,7.51302632 47.6339211,7.84618421 47.6339211,8.22118421 L47.6339211,11.9261842 C47.6339211,12.1132895 47.5818158,12.2380263 47.4941842,12.3840789"></path>
                    <path d="M58.7430789,15.0693947 C58.5512368,15.0899211 58.4115,15.0070263 58.3065,14.8199211 L51.4412368,3.32913158 L51.4412368,14.4243947 C51.4412368,14.7780789 51.1791316,15.0693947 50.8822895,15.0693947 C50.5854474,15.0693947 50.3407105,14.7780789 50.3407105,14.4243947 L50.3407105,1.51807895 C50.3407105,1.18492105 50.5680789,0.851763158 50.8996579,0.851763158 C51.0922895,0.851763158 51.2493947,0.9765 51.3362368,1.12255263 C51.3362368,1.12255263 56.9265,10.6562368 58.1841316,12.5920263 L58.1841316,1.51807895 C58.1841316,1.16439474 58.4288684,0.851763158 58.7257105,0.851763158 C59.0225526,0.851763158 59.2846579,1.16439474 59.2846579,1.51807895 L59.2846579,14.4243947 C59.2846579,14.7780789 59.0399211,15.0488684 58.7430789,15.0693947"></path>
                    <path d="M5.46757895,24.3117632 L2.93494737,30.9733421 L7.98284211,30.9733421 L5.46757895,24.3117632 Z M10.6031053,36.3228158 C10.5336316,36.3646579 10.4633684,36.3851842 10.3938947,36.3851842 C10.1838947,36.3851842 9.99205263,36.2604474 9.90442105,36.0101842 L8.43678947,32.1591316 L2.48021053,32.1591316 L1.03073684,35.9896579 C0.943105263,36.2186053 0.751263158,36.3851842 0.541263158,36.3851842 C0.471789474,36.3851842 0.384157895,36.3646579 0.314684211,36.3228158 C0.122052632,36.2186053 -0.000315789474,35.9896579 -0.000315789474,35.7401842 C-0.000315789474,35.6565 -0.000315789474,35.5522895 0.0352105263,35.4693947 L4.96073684,22.5630789 C5.01363158,22.4178158 5.20547368,22.1675526 5.46757895,22.1675526 C5.72968421,22.1675526 5.90415789,22.4383421 5.95705263,22.5630789 L10.8825789,35.4693947 C10.9173158,35.5522895 10.9173158,35.6565 10.9173158,35.7401842 C10.9173158,35.9896579 10.7957368,36.2186053 10.6031053,36.3228158 L10.6031053,36.3228158 Z"></path>
                    <path d="M21.4160526,36.3851842 C21.2242105,36.4057105 21.0844737,36.3228158 20.9794737,36.1357105 L14.1142105,24.6449211 L14.1142105,35.7401842 C14.1142105,36.0938684 13.8521053,36.3851842 13.5552632,36.3851842 C13.2584211,36.3851842 13.0136842,36.0938684 13.0136842,35.7401842 L13.0136842,22.8338684 C13.0136842,22.5007105 13.2410526,22.1675526 13.5726316,22.1675526 C13.7652632,22.1675526 13.9223684,22.2922895 14.0092105,22.4383421 C14.0092105,22.4383421 19.5994737,31.9720263 20.8571053,33.9078158 L20.8571053,22.8338684 C20.8571053,22.4801842 21.1018421,22.1675526 21.3986842,22.1675526 C21.6955263,22.1675526 21.9576316,22.4801842 21.9576316,22.8338684 L21.9576316,35.7401842 C21.9576316,36.0938684 21.7128947,36.3646579 21.4160526,36.3851842"></path>
                    <path d="M29.0839737,23.5831579 L26.6034474,23.5831579 L26.6034474,34.9902632 L29.0839737,34.9902632 C32.0531842,34.9902632 33.6779211,32.3676316 33.6779211,29.2871053 C33.6779211,26.2057895 32.0531842,23.5831579 29.0839737,23.5831579 M29.1889737,36.2186842 L26.0271316,36.2186842 C25.7129211,36.2186842 25.4508158,35.9060526 25.4508158,35.5318421 L25.4508158,23.0210526 C25.4508158,22.6460526 25.7129211,22.3547368 26.0271316,22.3547368 L29.1889737,22.3547368 C32.6823947,22.3547368 34.8313421,25.5607895 34.8313421,29.2871053 C34.8313421,33.0126316 32.6823947,36.2186842 29.1889737,36.2186842"></path>
                    <path d="M3.63339474,44.8989474 L1.15286842,44.8989474 L1.15286842,56.3060526 L3.63339474,56.3060526 C6.60260526,56.3060526 8.22734211,53.6834211 8.22734211,50.6028947 C8.22734211,47.5215789 6.60260526,44.8989474 3.63339474,44.8989474 M3.73839474,57.5344737 L0.576552632,57.5344737 C0.262342105,57.5344737 0.000236842105,57.2218421 0.000236842105,56.8476316 L0.000236842105,44.3368421 C0.000236842105,43.9618421 0.262342105,43.6705263 0.576552632,43.6705263 L3.73839474,43.6705263 C7.23181579,43.6705263 9.38076316,46.8765789 9.38076316,50.6028947 C9.38076316,54.3284211 7.23181579,57.5344737 3.73839474,57.5344737"></path>
                    <path d="M19.0229211,57.5343947 L12.0534474,57.5343947 C11.7384474,57.5343947 11.4763421,57.2217632 11.4763421,56.8475526 L11.4763421,44.3367632 C11.4763421,43.9625526 11.7384474,43.6704474 12.0534474,43.6704474 L18.7608158,43.6704474 C19.0576579,43.6704474 19.3023947,43.9412368 19.3023947,44.2949211 C19.3023947,44.6493947 19.0576579,44.9193947 18.7608158,44.9193947 L12.6123947,44.9193947 L12.6123947,49.6870263 L16.0884474,49.6870263 C16.3852895,49.6870263 16.6126579,49.9570263 16.6126579,50.3115 C16.6126579,50.6651842 16.3852895,50.9359737 16.0884474,50.9359737 L12.6123947,50.9359737 L12.6123947,56.2854474 L19.0229211,56.2854474 C19.3197632,56.2854474 19.5471316,56.5562368 19.5471316,56.9099211 C19.5471316,57.2636053 19.3197632,57.5343947 19.0229211,57.5343947"></path>
                    <path d="M25.8523421,57.8050263 C24.4723421,57.8050263 22.2365526,57.1387105 21.1881316,55.7026579 C21.0831316,55.5566053 21.0310263,55.4113421 21.0310263,55.2447632 C21.0310263,55.0987105 21.0657632,54.9739737 21.1533947,54.8492368 C21.2583947,54.7245 21.3807632,54.6408158 21.5205,54.6408158 C21.6428684,54.6408158 21.7826053,54.7031842 21.8868158,54.8073947 C23.0228684,55.9734474 24.4020789,56.5766053 25.8697105,56.5766053 C27.4068158,56.5766053 29.0489211,55.9110789 29.0489211,54.0163421 C29.0489211,52.4760789 27.5291842,51.8721316 25.0486579,50.7897632 C23.4594474,50.1029211 21.7123421,49.2700263 21.7123421,46.9387105 C21.7123421,44.4826579 23.6165526,43.4208158 25.8870789,43.4208158 C27.3373421,43.4208158 28.9439211,44.0452895 29.8873421,44.8987105 C30.0444474,45.0447632 30.1147105,45.2318684 30.1147105,45.4197632 C30.1147105,45.5231842 30.0799737,45.6487105 30.0270789,45.7521316 C29.9220789,45.9187105 29.7649737,46.0229211 29.6078684,46.0229211 C29.5028684,46.0229211 29.3986579,45.9810789 29.3110263,45.9187105 C28.2626053,45.1276579 27.2497105,44.6492368 25.8870789,44.6492368 C24.2805,44.6492368 22.8476053,45.3360789 22.8476053,46.9387105 C22.8476053,48.5421316 24.4376053,49.1452895 26.6212895,50.0610789 C28.6818158,50.9145 30.2015526,51.8310789 30.2015526,53.9539737 C30.2015526,56.5560789 28.2105,57.8050263 25.8523421,57.8050263"></path>
                    <path d="M33.66,57.7009737 C33.3457895,57.7009737 33.0836842,57.3883421 33.0836842,57.0141316 L33.0836842,44.1701842 C33.0836842,43.7959737 33.3457895,43.4833421 33.66,43.4833421 C33.9742105,43.4833421 34.2189474,43.7959737 34.2189474,44.1701842 L34.2189474,57.0141316 C34.2189474,57.3883421 33.9742105,57.7009737 33.66,57.7009737"></path>
                    <path d="M47.4941842,55.0156579 C46.3415526,56.8472368 44.6118158,57.8048684 42.7431316,57.8048684 C39.3712895,57.8048684 36.9262895,54.4117105 36.9262895,50.6025 C36.9262895,46.7932895 39.3712895,43.4206579 42.7431316,43.4206579 C44.3323421,43.4206579 45.6602368,44.0869737 46.7252368,45.3572368 C46.8302368,45.4819737 46.8649737,45.6272368 46.8649737,45.7938158 C46.8649737,45.9398684 46.8302368,46.1064474 46.7433947,46.2106579 C46.6557632,46.3353947 46.5160263,46.3772368 46.3936579,46.3772368 C46.2712895,46.3772368 46.1315526,46.3353947 46.0265526,46.2311842 C45.2055,45.4196053 44.2099737,44.6490789 42.7431316,44.6490789 C39.9128684,44.6490789 38.0615526,47.5006579 38.0615526,50.6025 C38.0615526,53.7248684 39.9128684,56.5772368 42.7431316,56.5772368 C44.3149737,56.5772368 45.6776053,55.7861842 46.4812895,54.4535526 L46.4812895,51.3730263 L43.2665526,51.3730263 C42.9870789,51.3730263 42.7605,51.0817105 42.7605,50.7485526 C42.7605,50.4153947 42.9870789,50.1446053 43.2665526,50.1446053 L47.0576053,50.1446053 C47.3718158,50.1446053 47.6339211,50.4777632 47.6339211,50.8527632 L47.6339211,54.5577632 C47.6339211,54.7448684 47.5818158,54.8696053 47.4941842,55.0156579"></path>
                    <path d="M58.7430789,57.7009737 C58.5512368,57.7215 58.4115,57.6386053 58.3065,57.4515 L51.4412368,45.9607105 L51.4412368,57.0559737 C51.4412368,57.4096579 51.1791316,57.7009737 50.8822895,57.7009737 C50.5854474,57.7009737 50.3407105,57.4096579 50.3407105,57.0559737 L50.3407105,44.1496579 C50.3407105,43.8165 50.5680789,43.4833421 50.8996579,43.4833421 C51.0922895,43.4833421 51.2493947,43.6080789 51.3362368,43.7541316 C51.3362368,43.7541316 56.9265,53.2878158 58.1841316,55.2236053 L58.1841316,44.1496579 C58.1841316,43.7959737 58.4288684,43.4833421 58.7257105,43.4833421 C59.0225526,43.4833421 59.2846579,43.7959737 59.2846579,44.1496579 L59.2846579,57.0559737 C59.2846579,57.4096579 59.0399211,57.6804474 58.7430789,57.7009737"></path>
                </g>
            </g>
        </g>
    </g>
</svg>