<?xml version="1.0" encoding="UTF-8"?>
<svg width="112px" height="27px" viewBox="0 0 112 27" version="1.1" xmlns="http://www.w3.org/2000/svg" xmlns:xlink="http://www.w3.org/1999/xlink">
    <!-- Generator: Sketch 43.2 (39069) - http://www.bohemiancoding.com/sketch -->
    <title>logo_rockport</title>
    <desc>Created with Sketch.</desc>
    <defs></defs>
    <g stroke="none" stroke-width="1" fill="none" fill-rule="evenodd">
        <g transform="translate(-59.000000, -860.000000)">
            <g transform="translate(29.000000, 777.000000)">
                <g transform="translate(30.000000, 83.289157)">
                    <polygon fill="#8F9EBC" points="0 26.4680369 111.176471 26.4680369 111.176471 1.42108547e-14 0 1.42108547e-14"></polygon>
                    <path d="M16.3336605,12.2034291 C16.3336605,12.7685921 15.8813005,12.8816821 15.7679235,12.8816821 L15.3155634,12.8816821 L15.3155634,12.8822562 L14.9762934,12.8822562 L14.9762934,11.6376921 L15.4286534,11.6376921 C15.6548335,11.6376921 16.1074805,11.6376921 16.3336605,11.8641591 L16.3336605,12.2034291 Z M16.7857335,13.6735992 C17.0119135,13.5605092 17.1250035,13.5605092 17.2380936,13.5605092 C17.2380936,13.4474192 17.3511836,13.3343292 17.4645606,13.2209522 C17.8038306,12.8816821 17.8038306,12.4296091 17.8038306,12.3165191 C17.8038306,11.4120861 17.3511836,10.846062 16.5595535,10.619595 L15.2024734,10.619595 L15.2024734,10.619882 L15.2024734,10.6193079 L13.6192133,10.6193079 L13.6192133,15.8214483 L14.9762934,15.8214483 L14.9762934,13.8992052 L15.4286534,13.8992052 L16.5595535,15.8214483 L18.1428136,15.8214483 L16.7857335,13.6735992 Z" fill="#FFFFFF"></path>
                    <path d="M26.9638629,14.9174171 C26.5117899,14.9174171 26.1725198,14.5784341 26.0594298,14.4653441 L26.0594298,14.4653441 C25.8329628,14.0129841 25.7198728,13.334731 25.7198728,13.221641 C25.7198728,13.108264 25.7198728,12.203831 26.2856099,11.7508969 C26.3981258,11.6378069 26.6245928,11.525578 26.9638629,11.525578 C27.1900429,11.525578 27.3031329,11.525578 27.4162229,11.6378069 C28.0944759,11.8639869 28.2078529,12.656478 28.2078529,13.221641 C28.2078529,13.334731 28.2078529,14.9174171 26.9638629,14.9174171 M29.2262371,11.5252909 C28.547697,10.5074809 27.416797,10.3943909 26.9644369,10.3943909 C26.1725198,10.3943909 25.4942668,10.7327998 24.9285298,11.2988239 C24.3630797,12.0901669 24.3630797,12.881797 24.3633668,13.221067 C24.3633668,13.78623 24.4764568,14.35168 24.8160138,14.916843 C25.4942668,15.9346531 26.6248799,15.9346531 26.9644369,15.9346531 C27.3037069,15.9346531 28.32123,15.9346531 29.1131471,15.029933 C29.6788841,14.35168 29.6788841,13.560337 29.6788841,13.221067 C29.6788841,12.655904 29.5652201,12.0901669 29.2262371,11.5252909" fill="#FFFFFF"></path>
                    <path d="M39.619668,12.4301258 L39.619668,12.0908558 C39.393488,11.7512987 39.0539309,11.5256928 38.7146609,11.5256928 C38.0364079,11.5256928 37.5840478,12.0908558 37.5840478,13.2214688 C37.5840478,13.6744029 37.6971378,14.2392789 37.9233179,14.5788359 C38.0364079,14.692213 38.2623009,14.9175319 38.7146609,14.9175319 C39.1673079,14.9175319 39.506578,14.5788359 39.619668,14.2392789 C39.619668,14.0128118 39.619668,13.8997218 39.732758,13.7860578 L40.9767481,13.7860578 C40.9767481,14.0125248 40.9767481,14.5785489 40.524101,15.1437119 C40.071741,15.709736 39.393488,15.9350549 38.6015709,15.9350549 C38.3753909,15.9350549 37.4709578,15.9350549 36.9052208,15.2568019 C36.5659507,14.9175319 36.1133037,14.3523689 36.1133037,13.2211818 C36.1133037,12.3164617 36.4528607,11.7504376 36.5659507,11.4120287 C36.9052208,11.0727587 37.4709578,10.3945057 38.7143738,10.3945057 C39.958651,10.3945057 40.523814,11.0727587 40.749994,11.5251187 C40.863084,11.7504376 40.863084,11.9771917 40.863084,12.4295517 L39.619668,12.4295517 L39.619668,12.4301258 Z" fill="#FFFFFF"></path>
                    <polygon fill="#FFFFFF" points="49.8314086 10.6197385 49.8314086 12.6565067 51.6408487 10.6197385 53.2241088 10.6197385 51.0753987 12.9949157 53.3371988 15.8218788 51.6408487 15.8218788 49.8314086 13.4478498 49.8314086 15.8218788 48.3612385 15.8218788 48.3612385 10.6197385"></polygon>
                    <path d="M74.1176024,14.9174171 C73.6661035,14.9174171 73.3262594,14.5784341 73.2131694,14.4653441 L73.2131694,14.4653441 C72.9869894,14.0129841 72.9864153,13.334731 72.9864153,13.221641 C72.9864153,13.108264 72.9864153,12.203831 73.4393494,11.7508969 C73.5524394,11.6378069 73.7791935,11.525578 74.1176024,11.525578 C74.3443565,11.525578 74.4574465,11.525578 74.5705365,11.6378069 C75.2487895,11.8639869 75.3618795,12.656478 75.3618795,13.221641 C75.3618795,13.334731 75.3618795,14.9174171 74.1176024,14.9174171 M76.3799766,11.5252909 C75.7017236,10.5074809 74.5711106,10.3943909 74.1181765,10.3943909 C73.4399235,10.3943909 72.6482934,10.7327998 72.0822693,11.2988239 C71.5171063,12.0901669 71.5171063,12.881797 71.5171063,13.221067 C71.5171063,13.78623 71.6307704,14.35168 71.9691793,14.916843 C72.6482934,15.9346531 73.7797675,15.9346531 74.1181765,15.9346531 C74.5711106,15.9346531 75.5886336,15.9346531 76.2668866,15.029933 C76.8329107,14.35168 76.8329107,13.560337 76.8329107,13.221067 C76.8329107,12.655904 76.7192466,12.0901669 76.3799766,11.5252909" fill="#FFFFFF"></path>
                    <path d="M85.6000843,12.8816821 L85.1480113,12.8816821 L85.1480113,12.8822562 L84.8087413,12.8822562 L84.8087413,11.6376921 L85.2616754,11.6376921 C85.4869943,11.6376921 85.9399284,11.6376921 86.1661084,11.8641591 C86.1661084,11.9772491 86.2791984,12.0903391 86.2791984,12.2034291 C86.2791984,12.7685921 85.7137484,12.8816821 85.6000843,12.8816821 L85.6000843,12.8816821 Z M86.6181814,13.6735992 C86.8449355,13.5605092 86.9580255,13.5605092 87.0711155,13.5605092 C87.0711155,13.4474192 87.2972955,13.3340422 87.4103855,13.2209522 C87.6357045,12.8816821 87.6357045,12.4296091 87.6357045,12.3165191 C87.6357045,11.4120861 87.1839185,10.846062 86.3922884,10.619595 L85.0349213,10.619595 L85.0349213,10.6193079 L83.4516612,10.6193079 L83.4516612,15.8214483 L84.8093154,15.8214483 L84.8093154,13.8992052 L85.2622495,13.8992052 L86.3928625,15.8214483 L87.9755485,15.8214483 L86.6181814,13.6735992 Z" fill="#FFFFFF"></path>
                    <polygon fill="#FFFFFF" points="98.4217069 10.6197385 98.4217069 11.6378356 96.9521109 11.6378356 96.9521109 15.8218788 95.4813668 15.8218788 95.4813668 11.6378356 94.0109096 11.6378356 94.0109096 10.6197385"></polygon>
                    <path d="M62.8268855,14.9174171 C62.2617225,14.9174171 61.9224525,14.5784341 61.8093625,14.4653441 L61.8093625,14.4653441 C61.5828955,14.0129841 61.5826084,13.334731 61.5826084,13.221641 C61.5826084,13.108264 61.5826084,12.203831 62.0349685,11.7508969 C62.1480585,11.6378069 62.3745255,11.525578 62.7132215,11.525578 C62.9399755,11.525578 63.0530656,11.525578 63.1661556,11.6378069 C63.8444086,11.8639869 63.9577856,12.656478 63.9577856,13.221641 C63.9577856,13.334731 63.9577856,14.9174171 62.8268855,14.9174171 M64.9758827,11.5252909 C64.2973427,10.5074809 63.1661556,10.3943909 62.8268855,10.3943909 C62.3165454,10.3943909 61.8070663,10.536758 61.3572895,10.7887707 L61.3572895,10.6197098 L60.1132994,10.6197098 L60.1132994,13.1656701 C60.1132994,13.183466 60.1130124,13.2049933 60.1130124,13.221067 C60.1130124,13.2270946 60.1132994,13.2331223 60.1132994,13.2391499 L60.1132994,21.1370804 L61.3572895,21.1370804 L61.3572895,15.6358544 C61.9158508,15.9326439 62.4890507,15.9346531 62.7137955,15.9346531 C63.1667296,15.9346531 64.1842527,15.9346531 64.8625057,15.029933 C65.4288168,14.35168 65.4288168,13.560337 65.4288168,13.221067 C65.4288168,12.655904 65.3151527,12.0901669 64.9758827,11.5252909" fill="#FFFFFF"></path>
                </g>
            </g>
        </g>
    </g>
</svg>