<svg fill="none" height="24" width="120" xmlns="http://www.w3.org/2000/svg"><g fill="#000"><path clip-rule="evenodd" d="M21 6H10v1H7v1H5v1H4v1H3v2H2v4h1v1h1v1h3v1h7v-1h2v-1h2v-1h1v-1h1v-1h1v-2h1V7h-1zM5 11h1v1h1v2h2v1h4v-1h2v-2h1V8h4v3h-1v2h-1v1h-1v1h-2v1h-2v1H8v-1H5v-1H4v-2h1zm29-1V9h4V8h7v1h1v3h-1v2h-1v1h-1v1h-1v1h-2v1h-2v1h-7v-1h-3v-1h-1v-1h-1v-3h1v-1h1v-1h3v-1zm-6 4h1v-1h2v2h2v1h4v1h-5v-1h-3v-1h-1zm11 1v1h-2v-1zm0 0v-2h1v-3h4v1h-1v2h-1v1h-1v1zm18-3v-1h6v-1h6v1h1v3h-1v1h-1v1h-2v1h-2v1h-2v1h-7v-1h-3v-1h-1v-1h-1v-2h1v-1h1v-1zm-4 2h2v2h-2zm3 2v1h1v-1zm9-1v-1h2v-1h1v-1h-4v2h-1v1zm10-1h8v-1h11v2h-1v1h-1v1h-2v1h-3v1h-8v-1h-3v-1h-2v-2h1zm13 2v-1h1v1z" fill-rule="evenodd"/><path d="M118 16h1v-2h-2v1h-2v1h-3v1h-7v-1h-3v-1h-3v2h2v1h3v1h9v-1h3v-1h2z"/></g></svg>