<svg fill="none" height="24" width="120" xmlns="http://www.w3.org/2000/svg"><g fill="#000"><path clip-rule="evenodd" d="M16 5v1h3v1h1v1h1v2h1v3h-1v2h-1v2h-1v1h-2v1h-2v1H9v-1H7v-1H5v-1H4v-2H3v-2H2v-3h1V8h1V7h1V6h3V5zM7 8H6v1H5v1H4v2h1v2h1v2h2v1h2v1h4v-1h2v-1h2v-2h1v-2h1v-2h-1V9h-1V8h-1v3h-1v2h-2v1h-4v-1H8v-2H7zm33-1v1h3v1h2v1h1v3h-1v2h-1v2h-1v1h-2v1h-2v1h-6v-1h-2v-1h-2v-1h-1v-2h-1v-2h-1v-3h1V9h2V8h3V7zm-9 3h-1v1h-2v1h1v2h1v2h2v1h2v1h4v-1h2v-1h2v-2h1v-2h1v-1h-2v-1h-1v2h-1v2h-2v1h-4v-1h-2v-2h-1zm23 0V9h-3v1h-1v3h1v2h1v2h1v1h2v1h2v1h6v-1h2v-1h2v-1h1v-2h1v-2h1v-3h-1V9h-3v1h-3v1h-6v-1zm13 1h1v1h-1zm-14 1h3v2h2v1h4v-1h2v-2h3v2h-1v2h-2v1h-2v1h-4v-1h-2v-1h-2v-2h-1zm0 0h-1v-1h1zm23-2v2h2v1h4v1h4v-1h4v-1h2v-2h2v3h-1v2h-1v2h-1v1h-2v1h-2v1h-6v-1h-2v-1h-2v-1h-1v-2h-1v-2h-1v-3zm5 5h-3v1h2v1h2v1h4v-1h2v-1h2v-1h-3v1h-6z" fill-rule="evenodd"/><path d="M101 12h-1v-2h-2v3h1v2h1v2h1v1h2v1h2v1h6v-1h2v-1h2v-1h1v-2h1v-2h1v-3h-2v2h-1v2h-1v2h-2v1h-2v1h-4v-1h-2v-1h-2v-2h-1z"/></g></svg>