<svg fill="none" height="64" width="200" xmlns="http://www.w3.org/2000/svg"><g fill="#000"><path clip-rule="evenodd" d="M129.298 5.12V2.575h-5.12V.018h-23.049v2.556h-7.697v2.547H88.31v2.556h-5.113v2.556h-2.556v2.557H78.09v2.556h-2.557V17.9H72.98v5.12h-2.556v7.706h-2.556v17.936h2.556v5.087h2.556v2.554h2.554v2.556h5.121v2.557h5.113v2.556h23.023v-2.556h5.12v-2.557h5.121v-2.556h2.53v-2.554h-5.086v2.554h-7.677v2.556h-7.659v-2.556h-7.677v-2.554h-2.555v-2.557h-2.556v-2.53h-2.56V33.264h23.049v-2.54h10.241v-2.58h5.121v-2.557h5.12v-2.556h2.558v-2.556h2.555V7.687h-2.555V5.121h-2.582zm-10.241 12.798h-2.556v2.557h-2.557v2.556h-2.574v2.556h-2.546v2.575h-7.687v2.546H85.775v-5.113h2.556v-5.128h2.556v-5.121h2.555V12.79h2.556v-2.557h2.556V7.677h2.575V5.121h5.12V2.574h10.252v2.557h2.556v12.797z" fill-rule="evenodd"/><path d="M124.087 51.2h-2.556v2.557h2.556zm2.565-2.554h-2.556V51.2h2.556zm2.556-2.566h-2.556v2.556h2.556z"/><path clip-rule="evenodd" d="M139.757 0a1.018 1.018 0 0 0-1.02 1.03c0 .568.46 1.028 1.02 1.028.561 0 1.021-.46 1.021-1.028A1.031 1.031 0 0 0 139.757 0z" fill-rule="evenodd"/><path d="M142.34 2.06c.564 0 1.02-.462 1.02-1.03a1.018 1.018 0 0 0-.297-.727A1.015 1.015 0 0 0 142.34 0c-.564 0-1.02.46-1.02 1.03 0 .568.456 1.03 1.02 1.03zm2.556 0c.564 0 1.02-.462 1.02-1.03a1.034 1.034 0 0 0-.295-.726 1.029 1.029 0 0 0-.723-.304c-.564 0-1.02.46-1.02 1.03 0 .568.456 1.028 1.02 1.028zm2.566 0c.562 0 1.021-.462 1.021-1.03a1.037 1.037 0 0 0-.297-.727 1.02 1.02 0 0 0-1.744.727c0 .568.456 1.03 1.02 1.03z"/><path clip-rule="evenodd" d="M155.139 0a1.018 1.018 0 0 0-1.02 1.03c0 .568.46 1.028 1.02 1.028a1.027 1.027 0 0 0 .723-1.753 1.028 1.028 0 0 0-.723-.305zm-2.556 0a1.023 1.023 0 0 0-.945.637 1.02 1.02 0 0 0-.075.393c0 .568.46 1.028 1.02 1.028s1.02-.46 1.02-1.028a1.026 1.026 0 0 0-1.02-1.03z" fill-rule="evenodd"/><path d="M157.704 2.06c.564 0 1.02-.462 1.02-1.03a1.027 1.027 0 0 0-1.02-1.03c-.564 0-1.02.46-1.02 1.03 0 .568.456 1.03 1.02 1.03z"/><path clip-rule="evenodd" d="M139.757 2.582a1.018 1.018 0 0 0-1.02 1.03c0 .57.46 1.03 1.02 1.03a1.031 1.031 0 1 0 0-2.06z" fill-rule="evenodd"/><path d="M142.34 4.64c.564 0 1.02-.46 1.02-1.028a1.018 1.018 0 0 0-.297-.726 1.015 1.015 0 0 0-.723-.304c-.564 0-1.02.46-1.02 1.03 0 .569.456 1.03 1.02 1.03v-.001zm2.556 0c.564 0 1.02-.46 1.02-1.028a1.018 1.018 0 0 0-.296-.726 1.03 1.03 0 0 0-.724-.304c-.564 0-1.02.46-1.02 1.03 0 .569.456 1.03 1.02 1.03v-.001zm2.566 0c.562 0 1.021-.46 1.021-1.028a1.037 1.037 0 0 0-.297-.726 1.02 1.02 0 0 0-1.744.726c0 .569.456 1.03 1.02 1.03v-.001z"/><path clip-rule="evenodd" d="M155.139 2.582a1.018 1.018 0 0 0-1.02 1.03c0 .57.46 1.03 1.02 1.03s1.021-.46 1.021-1.03a1.031 1.031 0 0 0-1.021-1.03z" fill-rule="evenodd"/><path d="M157.704 4.64c.564 0 1.02-.46 1.02-1.028a1.027 1.027 0 0 0-1.02-1.03c-.564 0-1.02.46-1.02 1.03 0 .569.456 1.03 1.02 1.03v-.001z"/><path clip-rule="evenodd" d="M139.757 5.167a1.024 1.024 0 0 0-.944.635 1.018 1.018 0 0 0-.076.393c0 .57.46 1.03 1.02 1.03.561 0 1.021-.46 1.021-1.028a1.031 1.031 0 0 0-1.021-1.03z" fill-rule="evenodd"/><path d="M142.34 7.225c.564 0 1.02-.46 1.02-1.028a1.018 1.018 0 0 0-.297-.727 1.016 1.016 0 0 0-.723-.303c-.564 0-1.02.46-1.02 1.028 0 .57.456 1.03 1.02 1.03zm2.556 0c.564 0 1.02-.46 1.02-1.028a1.018 1.018 0 0 0-.296-.727 1.03 1.03 0 0 0-.724-.303c-.564 0-1.02.46-1.02 1.028 0 .57.456 1.03 1.02 1.03zm2.566 0c.562 0 1.021-.46 1.021-1.028a1.037 1.037 0 0 0-.297-.727 1.02 1.02 0 0 0-1.744.725c0 .57.456 1.03 1.02 1.03zm2.555-5.167c.564 0 1.02-.46 1.02-1.028a1.016 1.016 0 0 0-.296-.726 1.018 1.018 0 0 0-.722-.304c-.562 0-1.02.46-1.02 1.03 0 .568.454 1.028 1.018 1.028zm0 2.585c.564 0 1.02-.46 1.02-1.03a1.018 1.018 0 0 0-.297-.727 1.015 1.015 0 0 0-.723-.304c-.562 0-1.02.46-1.02 1.03 0 .569.456 1.03 1.02 1.03zm0 2.582c.564 0 1.02-.46 1.02-1.028a1.018 1.018 0 0 0-.297-.727 1.016 1.016 0 0 0-.723-.303c-.562 0-1.02.46-1.02 1.028 0 .57.456 1.03 1.02 1.03z"/><path clip-rule="evenodd" d="M139.757 7.741a1.024 1.024 0 0 0-.944.635 1.018 1.018 0 0 0-.076.393c0 .57.46 1.03 1.02 1.03a1.027 1.027 0 0 0 .722-1.754 1.027 1.027 0 0 0-.722-.304z" fill-rule="evenodd"/><path d="M142.34 9.81c.564 0 1.02-.46 1.02-1.03a1.018 1.018 0 0 0-.297-.728 1.015 1.015 0 0 0-.723-.303c-.564 0-1.02.46-1.02 1.03 0 .568.456 1.03 1.02 1.03zm2.556 0c.564 0 1.02-.46 1.02-1.03a1.018 1.018 0 0 0-.296-.728 1.03 1.03 0 0 0-.724-.303c-.564 0-1.02.46-1.02 1.03 0 .568.456 1.03 1.02 1.03zm2.566 0c.562 0 1.021-.46 1.021-1.03a1.037 1.037 0 0 0-.297-.728 1.02 1.02 0 0 0-1.744.727c0 .568.456 1.03 1.02 1.03zm2.555 0c.564 0 1.02-.46 1.02-1.03a1.018 1.018 0 0 0-.297-.728 1.015 1.015 0 0 0-.723-.303c-.562 0-1.02.46-1.02 1.03 0 .568.456 1.03 1.02 1.03z"/><path clip-rule="evenodd" d="M139.757 10.323a1.018 1.018 0 0 0-1.02 1.03c0 .569.46 1.029 1.02 1.029a1.031 1.031 0 1 0 0-2.058z" fill-rule="evenodd"/><path d="M142.34 12.382c.564 0 1.02-.46 1.02-1.029a1.018 1.018 0 0 0-.297-.726 1.015 1.015 0 0 0-.723-.304c-.564 0-1.02.46-1.02 1.03 0 .569.456 1.029 1.02 1.029zm2.556 0c.564 0 1.02-.46 1.02-1.029a1.018 1.018 0 0 0-.296-.726 1.03 1.03 0 0 0-.724-.304c-.564 0-1.02.46-1.02 1.03 0 .569.456 1.029 1.02 1.029zm2.566 0c.562 0 1.021-.46 1.021-1.029a1.037 1.037 0 0 0-.297-.726 1.02 1.02 0 0 0-1.744.726c0 .569.456 1.029 1.02 1.029zm2.555 0c.564 0 1.02-.46 1.02-1.029a1.037 1.037 0 0 0-.295-.727 1.03 1.03 0 0 0-.723-.305c-.562 0-1.02.46-1.02 1.03 0 .568.456 1.029 1.02 1.029z"/><path clip-rule="evenodd" d="M139.757 12.906a1.018 1.018 0 0 0-1.02 1.03c0 .57.46 1.03 1.02 1.03a1.031 1.031 0 1 0 0-2.06z" fill-rule="evenodd"/><path d="M142.34 14.966c.564 0 1.02-.46 1.02-1.03a1.018 1.018 0 0 0-.297-.727 1.015 1.015 0 0 0-.723-.303c-.564 0-1.02.46-1.02 1.03 0 .568.456 1.03 1.02 1.03zm2.556 0c.564 0 1.02-.46 1.02-1.03a1.018 1.018 0 0 0-.296-.727 1.03 1.03 0 0 0-.724-.303c-.564 0-1.02.46-1.02 1.03 0 .568.456 1.03 1.02 1.03zm2.566 0c.562 0 1.021-.46 1.021-1.03a1.037 1.037 0 0 0-.297-.727 1.02 1.02 0 0 0-1.744.727c0 .568.456 1.03 1.02 1.03zm2.555 0c.564 0 1.02-.46 1.02-1.03a1.018 1.018 0 0 0-.297-.727 1.015 1.015 0 0 0-.723-.303c-.562 0-1.02.46-1.02 1.03 0 .568.456 1.03 1.02 1.03z"/><path clip-rule="evenodd" d="M139.757 15.49a1.023 1.023 0 0 0-1.02 1.028c0 .57.46 1.03 1.02 1.03.561 0 1.021-.46 1.021-1.028a1.031 1.031 0 0 0-1.021-1.03z" fill-rule="evenodd"/><path d="M142.34 17.548c.564 0 1.02-.46 1.02-1.028a1.018 1.018 0 0 0-.297-.727 1.017 1.017 0 0 0-1.743.725c0 .57.456 1.03 1.02 1.03zm2.556 0c.564 0 1.02-.46 1.02-1.028a1.018 1.018 0 0 0-.296-.727 1.032 1.032 0 0 0-.724-.303c-.564 0-1.02.46-1.02 1.028 0 .57.456 1.03 1.02 1.03zm2.566 0c.562 0 1.021-.46 1.021-1.028a1.037 1.037 0 0 0-.297-.727 1.021 1.021 0 0 0-.724-.303c-.564 0-1.02.46-1.02 1.028 0 .57.456 1.03 1.02 1.03zm2.555 0c.564 0 1.02-.46 1.02-1.028a1.018 1.018 0 0 0-.297-.727 1.017 1.017 0 0 0-1.743.725c0 .57.456 1.03 1.02 1.03z"/><path clip-rule="evenodd" d="M139.757 18.062a1.016 1.016 0 0 0-.945.637 1.02 1.02 0 0 0-.075.393c0 .57.46 1.03 1.02 1.03a1.027 1.027 0 0 0 .722-1.754 1.027 1.027 0 0 0-.722-.304z" fill-rule="evenodd"/><path d="M142.34 20.133c.564 0 1.02-.46 1.02-1.03a1.017 1.017 0 0 0-.297-.727 1.016 1.016 0 0 0-.723-.304c-.564 0-1.02.46-1.02 1.03 0 .569.456 1.03 1.02 1.03zm2.556 0c.564 0 1.02-.46 1.02-1.03a1.017 1.017 0 0 0-.296-.727 1.03 1.03 0 0 0-.724-.304c-.564 0-1.02.46-1.02 1.03 0 .569.456 1.03 1.02 1.03zm2.566 0c.562 0 1.021-.46 1.021-1.03a1.036 1.036 0 0 0-.297-.727 1.02 1.02 0 0 0-.724-.304c-.564 0-1.02.46-1.02 1.03 0 .569.456 1.03 1.02 1.03zm2.555 0c.564 0 1.02-.46 1.02-1.03a1.017 1.017 0 0 0-.297-.727 1.016 1.016 0 0 0-.723-.304c-.562 0-1.02.46-1.02 1.03 0 .569.456 1.03 1.02 1.03z"/><path clip-rule="evenodd" d="M139.757 20.647a1.018 1.018 0 0 0-1.02 1.03c0 .568.46 1.028 1.02 1.028.561 0 1.021-.46 1.021-1.028a1.032 1.032 0 0 0-1.021-1.03z" fill-rule="evenodd"/><path d="M142.34 22.705c.564 0 1.02-.46 1.02-1.028a1.018 1.018 0 0 0-.297-.727 1.014 1.014 0 0 0-.723-.303c-.564 0-1.02.46-1.02 1.03 0 .568.456 1.028 1.02 1.028zm2.556 0c.564 0 1.02-.46 1.02-1.028a1.018 1.018 0 0 0-.296-.727 1.029 1.029 0 0 0-.724-.303c-.564 0-1.02.46-1.02 1.03 0 .568.456 1.028 1.02 1.028zm2.566 0c.562 0 1.021-.46 1.021-1.028a1.036 1.036 0 0 0-.297-.727 1.018 1.018 0 0 0-1.744.727c0 .568.456 1.028 1.02 1.028zm2.555 0c.564 0 1.02-.46 1.02-1.028a1.018 1.018 0 0 0-.297-.727 1.014 1.014 0 0 0-.723-.303c-.562 0-1.02.46-1.02 1.03 0 .568.456 1.028 1.02 1.028z"/><path clip-rule="evenodd" d="M139.757 23.229a1.018 1.018 0 0 0-1.02 1.03c0 .57.46 1.03 1.02 1.03a1.031 1.031 0 1 0 0-2.06z" fill-rule="evenodd"/><path d="M142.34 25.29c.564 0 1.02-.46 1.02-1.031a1.018 1.018 0 0 0-.297-.727 1.015 1.015 0 0 0-.723-.303c-.564 0-1.02.46-1.02 1.03 0 .568.456 1.03 1.02 1.03zm2.556 0c.564 0 1.02-.46 1.02-1.031a1.018 1.018 0 0 0-.296-.727 1.03 1.03 0 0 0-.724-.303c-.564 0-1.02.46-1.02 1.03 0 .568.456 1.03 1.02 1.03zm2.566 0c.562 0 1.021-.46 1.021-1.031a1.037 1.037 0 0 0-.297-.727 1.02 1.02 0 0 0-1.744.727c0 .568.456 1.03 1.02 1.03zm2.555 0c.564 0 1.02-.46 1.02-1.031a1.018 1.018 0 0 0-.297-.727 1.015 1.015 0 0 0-.723-.303c-.562 0-1.02.46-1.02 1.03 0 .568.456 1.03 1.02 1.03z"/><path clip-rule="evenodd" d="M139.757 25.813a1.025 1.025 0 0 0-.724.302 1.018 1.018 0 0 0-.296.727c0 .57.46 1.03 1.02 1.03.561 0 1.021-.46 1.021-1.029a1.027 1.027 0 0 0-1.021-1.03z" fill-rule="evenodd"/><path d="M142.34 27.872c.564 0 1.02-.46 1.02-1.029a1.018 1.018 0 0 0-.297-.726 1.015 1.015 0 0 0-.723-.304c-.564 0-1.02.46-1.02 1.028 0 .57.456 1.03 1.02 1.03zm2.556 0c.564 0 1.02-.46 1.02-1.029a1.018 1.018 0 0 0-.296-.726 1.03 1.03 0 0 0-.724-.304c-.564 0-1.02.46-1.02 1.028 0 .57.456 1.03 1.02 1.03zm2.566 0c.562 0 1.021-.46 1.021-1.029a1.037 1.037 0 0 0-.297-.726 1.02 1.02 0 0 0-1.744.724c0 .57.456 1.03 1.02 1.03zm2.555 0c.564 0 1.02-.46 1.02-1.029a1.018 1.018 0 0 0-.297-.726 1.015 1.015 0 0 0-.723-.304c-.562 0-1.02.46-1.02 1.028 0 .57.456 1.03 1.02 1.03z"/><path clip-rule="evenodd" d="M139.757 28.387a1.023 1.023 0 0 0-1.02 1.029c0 .57.46 1.03 1.02 1.03a1.027 1.027 0 0 0 .722-1.755 1.027 1.027 0 0 0-.722-.303z" fill-rule="evenodd"/><path d="M142.34 30.456c.564 0 1.02-.46 1.02-1.03a1.028 1.028 0 0 0-1.02-1.03c-.564 0-1.02.46-1.02 1.03 0 .568.456 1.03 1.02 1.03zm2.556 0c.564 0 1.02-.46 1.02-1.03a1.028 1.028 0 0 0-1.02-1.03c-.564 0-1.02.46-1.02 1.03 0 .568.456 1.03 1.02 1.03zm2.566 0c.562 0 1.021-.46 1.021-1.03a1.028 1.028 0 0 0-1.021-1.03c-.564 0-1.02.46-1.02 1.03 0 .568.456 1.03 1.02 1.03zm2.555 0c.564 0 1.02-.46 1.02-1.03a1.028 1.028 0 0 0-1.02-1.03c-.562 0-1.02.46-1.02 1.03 0 .568.456 1.03 1.02 1.03z"/><path clip-rule="evenodd" d="M139.757 30.97a1.018 1.018 0 0 0-1.02 1.03c0 .568.46 1.028 1.02 1.028.561 0 1.021-.46 1.021-1.028a1.032 1.032 0 0 0-1.021-1.03z" fill-rule="evenodd"/><path d="M142.34 33.028c.564 0 1.02-.46 1.02-1.028a1.017 1.017 0 0 0-.297-.727 1.016 1.016 0 0 0-.723-.303c-.564 0-1.02.46-1.02 1.03 0 .568.456 1.028 1.02 1.028zm2.556 0c.564 0 1.02-.46 1.02-1.028a1.017 1.017 0 0 0-.296-.727 1.03 1.03 0 0 0-.724-.303c-.564 0-1.02.46-1.02 1.03 0 .568.456 1.028 1.02 1.028zm2.566 0c.562 0 1.021-.46 1.021-1.028a1.036 1.036 0 0 0-.297-.727 1.02 1.02 0 0 0-.724-.303c-.564 0-1.02.46-1.02 1.03 0 .568.456 1.028 1.02 1.028zm2.555 0c.564 0 1.02-.46 1.02-1.028a1.017 1.017 0 0 0-.297-.727 1.016 1.016 0 0 0-.723-.303c-.562 0-1.02.46-1.02 1.03 0 .568.456 1.028 1.02 1.028z"/><path clip-rule="evenodd" d="M139.757 33.552a1.018 1.018 0 0 0-1.02 1.03c0 .57.46 1.03 1.02 1.03a1.031 1.031 0 1 0 0-2.06z" fill-rule="evenodd"/><path d="M142.34 35.612c.564 0 1.02-.46 1.02-1.03a1.018 1.018 0 0 0-.297-.726 1.014 1.014 0 0 0-.723-.304c-.564 0-1.02.46-1.02 1.03 0 .568.456 1.03 1.02 1.03zm2.556 0c.564 0 1.02-.46 1.02-1.03a1.018 1.018 0 0 0-.296-.726 1.029 1.029 0 0 0-.724-.304c-.564 0-1.02.46-1.02 1.03 0 .568.456 1.03 1.02 1.03zm2.566 0c.562 0 1.021-.46 1.021-1.03a1.037 1.037 0 0 0-.297-.726 1.018 1.018 0 0 0-1.744.726c0 .568.456 1.03 1.02 1.03zm2.555 0c.564 0 1.02-.46 1.02-1.03a1.018 1.018 0 0 0-.297-.726 1.014 1.014 0 0 0-.723-.304c-.562 0-1.02.46-1.02 1.03 0 .568.456 1.03 1.02 1.03z"/><path clip-rule="evenodd" d="M139.757 36.136a1.018 1.018 0 0 0-1.02 1.03c0 .569.46 1.029 1.02 1.029.561 0 1.021-.46 1.021-1.028a1.027 1.027 0 0 0-1.021-1.03z" fill-rule="evenodd"/><path d="M142.34 38.195c.564 0 1.02-.46 1.02-1.028a1.018 1.018 0 0 0-.297-.727 1.015 1.015 0 0 0-.723-.303c-.564 0-1.02.46-1.02 1.03 0 .568.456 1.028 1.02 1.028zm2.556 0c.564 0 1.02-.46 1.02-1.028a1.018 1.018 0 0 0-.296-.727 1.03 1.03 0 0 0-.724-.303c-.564 0-1.02.46-1.02 1.03 0 .568.456 1.028 1.02 1.028zm2.566 0c.562 0 1.021-.46 1.021-1.028a1.037 1.037 0 0 0-.297-.727 1.02 1.02 0 0 0-1.744.727c0 .568.456 1.028 1.02 1.028zm2.555 0c.564 0 1.02-.46 1.02-1.028a1.018 1.018 0 0 0-.297-.727 1.015 1.015 0 0 0-.723-.303c-.562 0-1.02.46-1.02 1.03 0 .568.456 1.028 1.02 1.028z"/><path clip-rule="evenodd" d="M139.757 38.71a1.025 1.025 0 0 0-.724.302 1.018 1.018 0 0 0-.296.727c0 .57.46 1.03 1.02 1.03a1.027 1.027 0 0 0 .722-1.754 1.027 1.027 0 0 0-.722-.304zm2.583 0a1.018 1.018 0 0 0-1.02 1.029c0 .57.46 1.03 1.02 1.03s1.02-.46 1.02-1.03a1.028 1.028 0 0 0-1.02-1.028zm2.556 0a1.018 1.018 0 0 0-1.02 1.029c0 .57.46 1.03 1.02 1.03s1.02-.46 1.02-1.03a1.028 1.028 0 0 0-1.02-1.028zm2.566 0a1.022 1.022 0 0 0-1.02 1.029c0 .57.46 1.03 1.02 1.03a1.027 1.027 0 0 0 .722-1.754 1.027 1.027 0 0 0-.722-.304zm2.555 0a1.026 1.026 0 0 0-.724.302 1.022 1.022 0 0 0-.296.727c0 .57.46 1.03 1.02 1.03s1.02-.46 1.02-1.03a1.028 1.028 0 0 0-1.02-1.028zm-10.262 2.583a1.02 1.02 0 0 0-1.02 1.03c0 .568.462 1.03 1.02 1.03a1.028 1.028 0 0 0 .725-1.755 1.033 1.033 0 0 0-.725-.305z" fill-rule="evenodd"/><path d="M142.34 43.353c.564 0 1.02-.462 1.02-1.03a1.018 1.018 0 0 0-.297-.726 1.017 1.017 0 0 0-1.743.726c0 .568.456 1.03 1.02 1.03zm2.556 0c.564 0 1.02-.462 1.02-1.03a1.018 1.018 0 0 0-.296-.726 1.032 1.032 0 0 0-.724-.304c-.564 0-1.02.46-1.02 1.03 0 .568.456 1.03 1.02 1.03zm2.566 0c.562 0 1.021-.462 1.021-1.03a1.037 1.037 0 0 0-.297-.726 1.021 1.021 0 0 0-.724-.304c-.564 0-1.02.46-1.02 1.03 0 .568.456 1.03 1.02 1.03zm2.555 0c.564 0 1.02-.462 1.02-1.03a1.018 1.018 0 0 0-.297-.726 1.017 1.017 0 0 0-1.743.726c0 .568.456 1.03 1.02 1.03z"/><path clip-rule="evenodd" d="M139.757 43.876a1.018 1.018 0 0 0-1.02 1.03c0 .57.46 1.03 1.02 1.03a1.032 1.032 0 1 0 0-2.06z" fill-rule="evenodd"/><path d="M142.34 45.936c.564 0 1.02-.46 1.02-1.03a1.018 1.018 0 0 0-.297-.727 1.014 1.014 0 0 0-.723-.303c-.564 0-1.02.46-1.02 1.03 0 .568.456 1.03 1.02 1.03zm2.556 0c.564 0 1.02-.46 1.02-1.03a1.018 1.018 0 0 0-.296-.727 1.029 1.029 0 0 0-.724-.303c-.564 0-1.02.46-1.02 1.03 0 .568.456 1.03 1.02 1.03zm2.566 0c.562 0 1.021-.46 1.021-1.03a1.036 1.036 0 0 0-.297-.727 1.018 1.018 0 0 0-1.744.727c0 .568.456 1.03 1.02 1.03zm2.555 0c.564 0 1.02-.46 1.02-1.03a1.018 1.018 0 0 0-.297-.727 1.014 1.014 0 0 0-.723-.303c-.562 0-1.02.46-1.02 1.03 0 .568.456 1.03 1.02 1.03z"/><path clip-rule="evenodd" d="M139.757 46.46a1.023 1.023 0 0 0-.944.635 1.018 1.018 0 0 0-.076.393c0 .57.46 1.03 1.02 1.03.561 0 1.021-.46 1.021-1.03a1.03 1.03 0 0 0-1.021-1.028z" fill-rule="evenodd"/><path d="M142.34 48.518c.564 0 1.02-.46 1.02-1.03a1.034 1.034 0 0 0-.297-.725 1.029 1.029 0 0 0-.723-.303c-.564 0-1.02.46-1.02 1.028 0 .57.456 1.03 1.02 1.03zm2.556 0c.564 0 1.02-.46 1.02-1.03a1.015 1.015 0 0 0-.297-.725 1.025 1.025 0 0 0-.723-.303c-.564 0-1.02.46-1.02 1.028 0 .57.456 1.03 1.02 1.03zm2.566 0a1.026 1.026 0 0 0 .944-1.422 1.02 1.02 0 0 0-1.964.392c0 .57.456 1.03 1.02 1.03zm2.555 0c.564 0 1.02-.46 1.02-1.03a1.034 1.034 0 0 0-.297-.725 1.029 1.029 0 0 0-.723-.303c-.562 0-1.02.46-1.02 1.028 0 .57.456 1.03 1.02 1.03z"/><path clip-rule="evenodd" d="M139.757 49.034a1.025 1.025 0 0 0-.724.302 1.018 1.018 0 0 0-.296.727c0 .57.46 1.03 1.02 1.03a1.027 1.027 0 0 0 .722-1.755 1.027 1.027 0 0 0-.722-.304z" fill-rule="evenodd"/><path d="M142.34 51.102c.564 0 1.02-.46 1.02-1.03a1.028 1.028 0 0 0-1.02-1.03c-.564 0-1.02.46-1.02 1.03 0 .568.456 1.03 1.02 1.03zm2.556 0c.564 0 1.02-.46 1.02-1.03a1.028 1.028 0 0 0-1.02-1.03c-.564 0-1.02.46-1.02 1.03 0 .568.456 1.03 1.02 1.03zm2.566 0c.562 0 1.021-.46 1.021-1.03a1.028 1.028 0 0 0-1.021-1.03c-.564 0-1.02.46-1.02 1.03 0 .568.456 1.03 1.02 1.03zm2.555 0c.564 0 1.02-.46 1.02-1.03a1.028 1.028 0 0 0-1.02-1.03c-.562 0-1.02.46-1.02 1.03 0 .568.456 1.03 1.02 1.03z"/><path clip-rule="evenodd" d="M139.757 51.616a1.02 1.02 0 0 0-1.02 1.03c0 .569.46 1.029 1.02 1.029.561 0 1.021-.46 1.021-1.028a1.031 1.031 0 0 0-1.021-1.03z" fill-rule="evenodd"/><path d="M142.34 53.675c.564 0 1.02-.46 1.02-1.028a1.018 1.018 0 0 0-.297-.727 1.017 1.017 0 0 0-1.743.727c0 .568.456 1.028 1.02 1.028zm2.556 0c.564 0 1.02-.46 1.02-1.028a1.018 1.018 0 0 0-.296-.727 1.032 1.032 0 0 0-.724-.304c-.564 0-1.02.46-1.02 1.03 0 .569.456 1.029 1.02 1.029zm2.566 0c.562 0 1.021-.46 1.021-1.028a1.037 1.037 0 0 0-.297-.727 1.021 1.021 0 0 0-.724-.304c-.564 0-1.02.46-1.02 1.03 0 .569.456 1.029 1.02 1.029zm2.555 0c.564 0 1.02-.46 1.02-1.028a1.018 1.018 0 0 0-.297-.727 1.017 1.017 0 0 0-1.743.727c0 .568.456 1.028 1.02 1.028z"/><path clip-rule="evenodd" d="M139.757 54.199a1.018 1.018 0 0 0-1.02 1.03c0 .57.46 1.03 1.02 1.03a1.032 1.032 0 1 0 0-2.06z" fill-rule="evenodd"/><path d="M142.34 56.259c.564 0 1.02-.46 1.02-1.03a1.017 1.017 0 0 0-.297-.727 1.016 1.016 0 0 0-.723-.303c-.564 0-1.02.46-1.02 1.03 0 .568.456 1.03 1.02 1.03zm2.556 0c.564 0 1.02-.46 1.02-1.03a1.017 1.017 0 0 0-.296-.727 1.03 1.03 0 0 0-.724-.303c-.564 0-1.02.46-1.02 1.03 0 .568.456 1.03 1.02 1.03zm2.566 0c.562 0 1.021-.46 1.021-1.03a1.036 1.036 0 0 0-.297-.727 1.02 1.02 0 0 0-.724-.303c-.564 0-1.02.46-1.02 1.03 0 .568.456 1.03 1.02 1.03zm2.555 0c.564 0 1.02-.46 1.02-1.03a1.017 1.017 0 0 0-.297-.727 1.016 1.016 0 0 0-.723-.303c-.562 0-1.02.46-1.02 1.03 0 .568.456 1.03 1.02 1.03z"/><path clip-rule="evenodd" d="M139.757 56.783a1.023 1.023 0 0 0-.944.635 1.018 1.018 0 0 0-.076.393c0 .57.46 1.03 1.02 1.03.561 0 1.021-.46 1.021-1.03a1.03 1.03 0 0 0-1.021-1.028z" fill-rule="evenodd"/><path d="M142.34 58.841c.564 0 1.02-.46 1.02-1.03a1.034 1.034 0 0 0-.297-.725 1.029 1.029 0 0 0-.723-.303c-.564 0-1.02.46-1.02 1.028 0 .57.456 1.03 1.02 1.03zm2.556 0c.564 0 1.02-.46 1.02-1.03a1.015 1.015 0 0 0-.297-.725 1.025 1.025 0 0 0-.723-.303c-.564 0-1.02.46-1.02 1.028 0 .57.456 1.03 1.02 1.03zm2.566 0a1.026 1.026 0 0 0 .944-1.422 1.02 1.02 0 0 0-1.964.392c0 .57.456 1.03 1.02 1.03zm2.555 0c.564 0 1.02-.46 1.02-1.03a1.034 1.034 0 0 0-.297-.725 1.029 1.029 0 0 0-.723-.303c-.562 0-1.02.46-1.02 1.028 0 .57.456 1.03 1.02 1.03z"/><path clip-rule="evenodd" d="M139.757 59.357a1.025 1.025 0 0 0-.724.302 1.018 1.018 0 0 0-.296.727c0 .57.46 1.03 1.02 1.03a1.027 1.027 0 0 0 .722-1.755 1.027 1.027 0 0 0-.722-.304zm2.583 0a1.018 1.018 0 0 0-1.02 1.029c0 .57.46 1.03 1.02 1.03s1.02-.46 1.02-1.03a1.028 1.028 0 0 0-1.02-1.029zm2.556 0a1.018 1.018 0 0 0-1.02 1.029c0 .57.46 1.03 1.02 1.03s1.02-.46 1.02-1.03a1.028 1.028 0 0 0-1.02-1.029zm2.566 0a1.022 1.022 0 0 0-1.02 1.029c0 .57.46 1.03 1.02 1.03a1.027 1.027 0 0 0 .722-1.755 1.027 1.027 0 0 0-.722-.304zm2.555 0a1.026 1.026 0 0 0-.724.302 1.022 1.022 0 0 0-.296.727c0 .57.46 1.03 1.02 1.03s1.02-.46 1.02-1.03a1.028 1.028 0 0 0-1.02-1.029zm-10.262 2.583a1.02 1.02 0 0 0-1.02 1.03c0 .568.462 1.028 1.02 1.028a1.03 1.03 0 1 0 0-2.058z" fill-rule="evenodd"/><path d="M142.34 63.998c.564 0 1.02-.46 1.02-1.028a1.018 1.018 0 0 0-.297-.727 1.017 1.017 0 0 0-1.743.727c0 .568.456 1.028 1.02 1.028zm2.556 0c.564 0 1.02-.46 1.02-1.028a1.018 1.018 0 0 0-.296-.727 1.032 1.032 0 0 0-.724-.303c-.564 0-1.02.46-1.02 1.03 0 .568.456 1.028 1.02 1.028zm2.566 0c.562 0 1.021-.46 1.021-1.028a1.037 1.037 0 0 0-.297-.727 1.021 1.021 0 0 0-.724-.303c-.564 0-1.02.46-1.02 1.03 0 .568.456 1.028 1.02 1.028zm2.555 0c.564 0 1.02-.46 1.02-1.028a1.018 1.018 0 0 0-.297-.727 1.017 1.017 0 0 0-1.743.727c0 .568.456 1.028 1.02 1.028z"/><path clip-rule="evenodd" d="M152.583 15.49a1.018 1.018 0 0 0-1.02 1.028c0 .57.46 1.03 1.02 1.03s1.02-.46 1.02-1.028a1.026 1.026 0 0 0-1.02-1.03zm0 2.574a1.016 1.016 0 0 0-.945.636 1.017 1.017 0 0 0-.075.392c0 .57.46 1.03 1.02 1.03s1.02-.46 1.02-1.03a1.028 1.028 0 0 0-1.02-1.028zm0 2.583a1.023 1.023 0 0 0-.945.636 1.02 1.02 0 0 0-.075.394c0 .568.46 1.028 1.02 1.028s1.02-.46 1.02-1.028a1.026 1.026 0 0 0-1.02-1.03zm0 2.582a1.023 1.023 0 0 0-.945.637 1.02 1.02 0 0 0-.075.393c0 .57.46 1.03 1.02 1.03s1.02-.46 1.02-1.03a1.026 1.026 0 0 0-1.02-1.03zm0 2.584a1.018 1.018 0 0 0-1.02 1.028c0 .57.46 1.03 1.02 1.03s1.02-.46 1.02-1.028a1.026 1.026 0 0 0-1.02-1.03zm0 2.575a1.018 1.018 0 0 0-1.02 1.028c0 .57.46 1.03 1.02 1.03s1.02-.46 1.02-1.03a1.028 1.028 0 0 0-1.02-1.029zm0 2.582a1.021 1.021 0 0 0-1.02 1.03c0 .568.46 1.028 1.02 1.028s1.02-.46 1.02-1.028a1.026 1.026 0 0 0-1.02-1.03zm0 2.582a1.023 1.023 0 0 0-.945.637 1.02 1.02 0 0 0-.075.393c0 .57.46 1.03 1.02 1.03s1.02-.46 1.02-1.03a1.026 1.026 0 0 0-1.02-1.03zm0 2.584a1.023 1.023 0 0 0-.945.637 1.02 1.02 0 0 0-.075.394c0 .568.46 1.028 1.02 1.028s1.02-.46 1.02-1.028a1.026 1.026 0 0 0-1.02-1.03zm0 2.575a1.018 1.018 0 0 0-1.02 1.028c0 .57.46 1.03 1.02 1.03s1.02-.46 1.02-1.03a1.028 1.028 0 0 0-1.02-1.028zm0 2.582a1.025 1.025 0 0 0-.725.303 1.02 1.02 0 0 0-.295.728c0 .567.46 1.03 1.02 1.03s1.02-.46 1.02-1.03a1.026 1.026 0 0 0-1.02-1.03zm0 2.583a1.023 1.023 0 0 0-.945.636 1.02 1.02 0 0 0-.075.394c0 .57.46 1.03 1.02 1.03s1.02-.46 1.02-1.03a1.026 1.026 0 0 0-1.02-1.03zm0 2.584a1.016 1.016 0 0 0-.945.635 1.017 1.017 0 0 0-.075.393c0 .57.46 1.03 1.02 1.03s1.02-.46 1.02-1.03a1.028 1.028 0 0 0-1.02-1.028zm0 2.574a1.018 1.018 0 0 0-1.02 1.028c0 .57.46 1.03 1.02 1.03s1.02-.46 1.02-1.03a1.028 1.028 0 0 0-1.02-1.028zm0 2.582a1.023 1.023 0 0 0-.945.637 1.02 1.02 0 0 0-.075.394c0 .568.46 1.028 1.02 1.028s1.02-.46 1.02-1.028a1.026 1.026 0 0 0-1.02-1.03zm0 2.583a1.021 1.021 0 0 0-1.02 1.03c0 .57.46 1.03 1.02 1.03s1.02-.46 1.02-1.03a1.026 1.026 0 0 0-1.02-1.03zm0 2.584a1.016 1.016 0 0 0-.945.635 1.017 1.017 0 0 0-.075.393c0 .57.46 1.03 1.02 1.03s1.02-.46 1.02-1.03a1.028 1.028 0 0 0-1.02-1.028zm0 2.574a1.016 1.016 0 0 0-.945.636 1.017 1.017 0 0 0-.075.392c0 .57.46 1.03 1.02 1.03s1.02-.46 1.02-1.03a1.028 1.028 0 0 0-1.02-1.028zm0 2.583a1.023 1.023 0 0 0-.945.636 1.02 1.02 0 0 0-.075.394c0 .568.46 1.028 1.02 1.028s1.02-.46 1.02-1.028a1.026 1.026 0 0 0-1.02-1.03zm2.556-56.773a1.02 1.02 0 0 0-1.02 1.028c0 .57.46 1.03 1.02 1.03a1.027 1.027 0 0 0 .723-1.754 1.028 1.028 0 0 0-.723-.304zm0 2.574a1.02 1.02 0 0 0-1.02 1.028c0 .57.46 1.03 1.02 1.03a1.027 1.027 0 0 0 .722-1.754 1.027 1.027 0 0 0-.722-.304z" fill-rule="evenodd"/><path d="M157.704 7.225c.564 0 1.02-.46 1.02-1.028a1.027 1.027 0 0 0-1.02-1.03c-.564 0-1.02.46-1.02 1.028 0 .57.456 1.03 1.02 1.03zm2.556-5.165c.562 0 1.02-.46 1.02-1.028a1.02 1.02 0 0 0-.296-.727A1.033 1.033 0 0 0 160.26 0c-.564 0-1.02.46-1.02 1.03 0 .568.456 1.03 1.02 1.03zm0 2.585c.562 0 1.02-.46 1.02-1.03a1.027 1.027 0 0 0-1.02-1.03c-.564 0-1.02.46-1.02 1.03 0 .568.456 1.03 1.02 1.03zm0 2.582c.562 0 1.02-.46 1.02-1.028a1.027 1.027 0 0 0-1.02-1.03c-.564 0-1.02.46-1.02 1.028 0 .57.456 1.03 1.02 1.03zm2.554-5.167c.564 0 1.02-.46 1.02-1.028a1.024 1.024 0 0 0-1.02-1.03c-.562 0-1.02.46-1.02 1.03 0 .568.458 1.028 1.02 1.028zm0 2.585c.564 0 1.02-.46 1.02-1.03a1.024 1.024 0 0 0-1.02-1.03c-.562 0-1.02.46-1.02 1.03 0 .568.458 1.03 1.02 1.03zm0 2.582c.564 0 1.02-.46 1.02-1.028a1.024 1.024 0 0 0-1.02-1.03c-.562 0-1.02.46-1.02 1.028 0 .57.458 1.03 1.02 1.03zm2.567-5.167c.564 0 1.02-.46 1.02-1.028a1.02 1.02 0 0 0-.297-.727 1.018 1.018 0 0 0-.723-.305c-.564 0-1.02.46-1.02 1.03 0 .568.456 1.03 1.02 1.03zm0 2.585c.564 0 1.02-.46 1.02-1.03a1.027 1.027 0 0 0-1.02-1.03c-.564 0-1.02.46-1.02 1.03 0 .568.456 1.03 1.02 1.03zm0 2.582c.564 0 1.02-.46 1.02-1.028a1.027 1.027 0 0 0-1.02-1.03c-.564 0-1.02.46-1.02 1.028 0 .57.456 1.03 1.02 1.03z"/><path clip-rule="evenodd" d="M167.937 2.582a1.023 1.023 0 0 0-.945.637 1.02 1.02 0 0 0-.075.393c0 .57.46 1.03 1.02 1.03s1.02-.46 1.02-1.03a1.026 1.026 0 0 0-1.02-1.03zm0 2.585a1.016 1.016 0 0 0-.945.635 1.017 1.017 0 0 0-.075.393c0 .57.46 1.03 1.02 1.03s1.02-.46 1.02-1.028a1.026 1.026 0 0 0-1.02-1.03z" fill-rule="evenodd"/><path d="M157.704 9.81c.564 0 1.02-.46 1.02-1.03a1.027 1.027 0 0 0-1.02-1.031c-.564 0-1.02.46-1.02 1.03 0 .568.456 1.03 1.02 1.03zm2.556 0c.562 0 1.02-.46 1.02-1.03a1.027 1.027 0 0 0-1.02-1.031c-.564 0-1.02.46-1.02 1.03 0 .568.456 1.03 1.02 1.03zm2.554 0c.564 0 1.02-.46 1.02-1.03a1.024 1.024 0 0 0-1.02-1.03 1.024 1.024 0 0 0-1.02 1.03c0 .567.458 1.03 1.02 1.03zm2.567 0c.564 0 1.02-.46 1.02-1.03a1.027 1.027 0 0 0-1.02-1.031c-.564 0-1.02.46-1.02 1.03 0 .568.456 1.03 1.02 1.03z"/><path clip-rule="evenodd" d="M167.937 7.741a1.017 1.017 0 0 0-.945.635 1.017 1.017 0 0 0-.075.393c0 .57.46 1.03 1.02 1.03s1.02-.46 1.02-1.03a1.028 1.028 0 0 0-1.02-1.028z" fill-rule="evenodd"/><path d="M157.704 12.382c.564 0 1.02-.46 1.02-1.029a1.027 1.027 0 0 0-1.02-1.03c-.564 0-1.02.46-1.02 1.03 0 .569.456 1.029 1.02 1.029zm2.556 0c.562 0 1.02-.46 1.02-1.029a1.027 1.027 0 0 0-1.02-1.03c-.564 0-1.02.46-1.02 1.03 0 .569.456 1.029 1.02 1.029zm2.554 0c.564 0 1.02-.46 1.02-1.029a1.024 1.024 0 0 0-1.02-1.03c-.562 0-1.02.46-1.02 1.03 0 .569.458 1.029 1.02 1.029zm2.567 0c.564 0 1.02-.46 1.02-1.029a1.027 1.027 0 0 0-1.02-1.03c-.564 0-1.02.46-1.02 1.03 0 .569.456 1.029 1.02 1.029z"/><path clip-rule="evenodd" d="M167.937 10.323a1.023 1.023 0 0 0-.945.637 1.02 1.02 0 0 0-.075.393c0 .569.46 1.029 1.02 1.029s1.02-.46 1.02-1.029a1.026 1.026 0 0 0-1.02-1.03z" fill-rule="evenodd"/><path d="M157.704 14.966c.564 0 1.02-.46 1.02-1.03a1.027 1.027 0 0 0-1.02-1.03c-.564 0-1.02.46-1.02 1.03 0 .568.456 1.03 1.02 1.03zm2.556 0c.562 0 1.02-.46 1.02-1.03a1.027 1.027 0 0 0-1.02-1.03c-.564 0-1.02.46-1.02 1.03 0 .568.456 1.03 1.02 1.03zm2.554 0c.564 0 1.02-.46 1.02-1.03a1.024 1.024 0 0 0-1.02-1.03c-.562 0-1.02.46-1.02 1.03 0 .568.458 1.03 1.02 1.03zm2.567 0c.564 0 1.02-.46 1.02-1.03a1.027 1.027 0 0 0-1.02-1.03c-.564 0-1.02.46-1.02 1.03 0 .568.456 1.03 1.02 1.03z"/><path clip-rule="evenodd" d="M167.937 12.906a1.023 1.023 0 0 0-.945.636 1.02 1.02 0 0 0-.075.394c0 .57.46 1.03 1.02 1.03s1.02-.46 1.02-1.03a1.026 1.026 0 0 0-1.02-1.03z" fill-rule="evenodd"/><path d="M157.704 17.548c.564 0 1.02-.46 1.02-1.028a1.028 1.028 0 0 0-1.02-1.03c-.564 0-1.02.46-1.02 1.028 0 .57.456 1.03 1.02 1.03zm2.556 0c.562 0 1.02-.46 1.02-1.028a1.028 1.028 0 0 0-1.02-1.03c-.564 0-1.02.46-1.02 1.028 0 .57.456 1.03 1.02 1.03zm2.554 0c.564 0 1.02-.46 1.02-1.028a1.025 1.025 0 0 0-1.02-1.03c-.562 0-1.02.46-1.02 1.028 0 .57.458 1.03 1.02 1.03zm2.567 0c.564 0 1.02-.46 1.02-1.028a1.028 1.028 0 0 0-1.02-1.03c-.564 0-1.02.46-1.02 1.028 0 .57.456 1.03 1.02 1.03z"/><path clip-rule="evenodd" d="M167.937 15.49a1.016 1.016 0 0 0-.945.635 1.017 1.017 0 0 0-.075.393c0 .57.46 1.03 1.02 1.03s1.02-.46 1.02-1.028a1.026 1.026 0 0 0-1.02-1.03zm2.564-5.169a1.014 1.014 0 0 0-.725.303 1.037 1.037 0 0 0-.295.727c0 .568.46 1.029 1.02 1.029s1.02-.46 1.02-1.029a1.026 1.026 0 0 0-1.02-1.03zm0 2.583a1.014 1.014 0 0 0-.725.302 1.038 1.038 0 0 0-.295.728c0 .57.46 1.03 1.02 1.03s1.02-.46 1.02-1.03a1.026 1.026 0 0 0-1.02-1.03zm0 2.584a1.02 1.02 0 0 0-1.02 1.028c0 .57.46 1.03 1.02 1.03s1.02-.46 1.02-1.028a1.026 1.026 0 0 0-1.02-1.03z" fill-rule="evenodd"/><path d="M160.26 20.133c.562 0 1.02-.46 1.02-1.03a1.028 1.028 0 0 0-1.02-1.03c-.564 0-1.02.46-1.02 1.03 0 .567.456 1.03 1.02 1.03zm2.554 0c.564 0 1.02-.46 1.02-1.03a1.023 1.023 0 0 0-1.02-1.03c-.562 0-1.02.46-1.02 1.03 0 .567.458 1.03 1.02 1.03zm2.567 0c.564 0 1.02-.46 1.02-1.03a1.028 1.028 0 0 0-1.02-1.03c-.564 0-1.02.46-1.02 1.03 0 .567.456 1.03 1.02 1.03z"/><path clip-rule="evenodd" d="M167.937 18.062a1.021 1.021 0 0 0-1.02 1.03c0 .57.46 1.03 1.02 1.03s1.02-.46 1.02-1.03a1.028 1.028 0 0 0-1.02-1.028zm2.564 0a1.012 1.012 0 0 0-.725.303 1.038 1.038 0 0 0-.295.727c0 .57.46 1.03 1.02 1.03s1.02-.46 1.02-1.03a1.028 1.028 0 0 0-1.02-1.028z" fill-rule="evenodd"/><path d="M160.26 22.705c.562 0 1.02-.46 1.02-1.028a1.027 1.027 0 0 0-1.02-1.03c-.564 0-1.02.46-1.02 1.03 0 .568.456 1.028 1.02 1.028zm2.554 0c.564 0 1.02-.46 1.02-1.028a1.024 1.024 0 0 0-1.02-1.03c-.562 0-1.02.46-1.02 1.03 0 .568.458 1.028 1.02 1.028zm2.567 0c.564 0 1.02-.46 1.02-1.028a1.027 1.027 0 0 0-1.02-1.03c-.564 0-1.02.46-1.02 1.03 0 .568.456 1.028 1.02 1.028z"/><path clip-rule="evenodd" d="M167.937 20.647a1.023 1.023 0 0 0-.945.636 1.02 1.02 0 0 0-.075.394c0 .568.46 1.028 1.02 1.028s1.02-.46 1.02-1.028a1.026 1.026 0 0 0-1.02-1.03zm2.564 0a1.014 1.014 0 0 0-.725.302 1.038 1.038 0 0 0-.295.728c0 .568.46 1.028 1.02 1.028s1.02-.46 1.02-1.028a1.026 1.026 0 0 0-1.02-1.03z" fill-rule="evenodd"/><path d="M160.26 25.29c.562 0 1.02-.46 1.02-1.031a1.018 1.018 0 0 0-.296-.727 1.03 1.03 0 0 0-.724-.303c-.564 0-1.02.46-1.02 1.03 0 .568.456 1.03 1.02 1.03zm2.554 0c.564 0 1.02-.46 1.02-1.031a1.024 1.024 0 0 0-1.02-1.03c-.562 0-1.02.46-1.02 1.03 0 .568.458 1.03 1.02 1.03zm2.567 0c.564 0 1.02-.46 1.02-1.031a1.027 1.027 0 0 0-1.02-1.03c-.564 0-1.02.46-1.02 1.03 0 .568.456 1.03 1.02 1.03z"/><path clip-rule="evenodd" d="M167.937 23.229a1.023 1.023 0 0 0-.945.637 1.02 1.02 0 0 0-.075.393c0 .57.46 1.03 1.02 1.03s1.02-.46 1.02-1.03a1.026 1.026 0 0 0-1.02-1.03zm2.564 0a1.014 1.014 0 0 0-.725.302 1.037 1.037 0 0 0-.295.728c0 .57.46 1.03 1.02 1.03s1.02-.46 1.02-1.03a1.026 1.026 0 0 0-1.02-1.03z" fill-rule="evenodd"/><path d="M173.058 22.705c.564 0 1.02-.46 1.02-1.028a1.027 1.027 0 0 0-1.02-1.03c-.564 0-1.021.46-1.021 1.03 0 .568.457 1.028 1.021 1.028zm0 2.584c.564 0 1.02-.46 1.02-1.03a1.027 1.027 0 0 0-1.02-1.03c-.564 0-1.021.46-1.021 1.03 0 .568.457 1.03 1.021 1.03zm-10.242 2.582c.562 0 1.02-.46 1.02-1.028a1.024 1.024 0 0 0-1.02-1.03c-.564 0-1.02.46-1.02 1.028 0 .57.456 1.03 1.02 1.03zm2.565 0c.564 0 1.02-.46 1.02-1.028a1.027 1.027 0 0 0-1.02-1.03c-.564 0-1.02.46-1.02 1.028 0 .57.456 1.03 1.02 1.03z"/><path clip-rule="evenodd" d="M167.937 25.813a1.018 1.018 0 0 0-1.02 1.028c0 .57.46 1.03 1.02 1.03s1.02-.46 1.02-1.028a1.026 1.026 0 0 0-1.02-1.03zm2.564 0a1.022 1.022 0 0 0-1.02 1.028c0 .57.46 1.03 1.02 1.03s1.02-.46 1.02-1.028a1.023 1.023 0 0 0-1.02-1.03z" fill-rule="evenodd"/><path d="M173.058 27.872c.564 0 1.02-.46 1.02-1.029a1.027 1.027 0 0 0-1.02-1.03c-.564 0-1.021.46-1.021 1.028 0 .57.457 1.03 1.021 1.03zm-10.242 2.584c.562 0 1.02-.46 1.02-1.03a1.025 1.025 0 0 0-1.02-1.03c-.564 0-1.02.46-1.02 1.03 0 .568.456 1.03 1.02 1.03zm2.565 0c.564 0 1.02-.46 1.02-1.03a1.028 1.028 0 0 0-1.02-1.03c-.564 0-1.02.46-1.02 1.03 0 .568.456 1.03 1.02 1.03z"/><path clip-rule="evenodd" d="M167.937 28.387a1.016 1.016 0 0 0-.945.636 1.017 1.017 0 0 0-.075.393c0 .57.46 1.03 1.02 1.03s1.02-.46 1.02-1.03a1.028 1.028 0 0 0-1.02-1.029zm2.564 0a1.02 1.02 0 0 0-1.02 1.029c0 .57.46 1.03 1.02 1.03s1.02-.46 1.02-1.03a1.028 1.028 0 0 0-1.02-1.029z" fill-rule="evenodd"/><path d="M173.058 30.456c.564 0 1.02-.46 1.02-1.03a1.028 1.028 0 0 0-1.02-1.03c-.564 0-1.021.46-1.021 1.03 0 .568.457 1.03 1.021 1.03zm-10.242 2.572c.562 0 1.02-.46 1.02-1.028a1.023 1.023 0 0 0-1.02-1.03c-.564 0-1.02.46-1.02 1.03 0 .568.456 1.028 1.02 1.028zm2.565 0c.564 0 1.02-.46 1.02-1.028a1.028 1.028 0 0 0-1.02-1.03c-.564 0-1.02.46-1.02 1.03 0 .568.456 1.028 1.02 1.028z"/><path clip-rule="evenodd" d="M167.937 30.97a1.023 1.023 0 0 0-.945.637 1.02 1.02 0 0 0-.075.393c0 .568.46 1.028 1.02 1.028s1.02-.46 1.02-1.028a1.026 1.026 0 0 0-1.02-1.03zm2.564 0a1.014 1.014 0 0 0-.725.302 1.038 1.038 0 0 0-.295.728c0 .568.46 1.028 1.02 1.028s1.02-.46 1.02-1.028a1.026 1.026 0 0 0-1.02-1.03z" fill-rule="evenodd"/><path d="M173.058 33.028c.564 0 1.02-.46 1.02-1.028a1.028 1.028 0 0 0-1.02-1.03c-.564 0-1.021.46-1.021 1.03 0 .568.457 1.028 1.021 1.028zm-10.242 2.584c.562 0 1.02-.46 1.02-1.03a1.024 1.024 0 0 0-1.02-1.03c-.564 0-1.02.46-1.02 1.03 0 .568.456 1.03 1.02 1.03zm2.565 0c.564 0 1.02-.46 1.02-1.03a1.027 1.027 0 0 0-1.02-1.03c-.564 0-1.02.46-1.02 1.03 0 .568.456 1.03 1.02 1.03z"/><path clip-rule="evenodd" d="M167.937 33.552a1.023 1.023 0 0 0-.945.637 1.02 1.02 0 0 0-.075.393c0 .57.46 1.03 1.02 1.03s1.02-.46 1.02-1.03a1.026 1.026 0 0 0-1.02-1.03zm2.564 0a1.014 1.014 0 0 0-.725.303 1.037 1.037 0 0 0-.295.727c0 .57.46 1.03 1.02 1.03s1.02-.46 1.02-1.03a1.026 1.026 0 0 0-1.02-1.03z" fill-rule="evenodd"/><path d="M173.058 35.612c.564 0 1.02-.46 1.02-1.03a1.027 1.027 0 0 0-1.02-1.03c-.564 0-1.021.46-1.021 1.03 0 .568.457 1.03 1.021 1.03zm2.564-2.582c.564 0 1.02-.462 1.02-1.03a1.017 1.017 0 0 0-.296-.727 1.03 1.03 0 0 0-.724-.303c-.564 0-1.02.46-1.02 1.03 0 .568.456 1.028 1.02 1.028zm0 2.58c.564 0 1.02-.46 1.02-1.028a1.018 1.018 0 0 0-.296-.726 1.029 1.029 0 0 0-.724-.304c-.564 0-1.02.46-1.02 1.03 0 .568.456 1.03 1.02 1.03zm-10.241 2.585c.564 0 1.02-.46 1.02-1.028a1.027 1.027 0 0 0-1.02-1.03c-.564 0-1.02.46-1.02 1.03 0 .568.456 1.028 1.02 1.028z"/><path clip-rule="evenodd" d="M167.937 36.136a1.023 1.023 0 0 0-.945.637 1.02 1.02 0 0 0-.075.394c0 .568.46 1.028 1.02 1.028s1.02-.46 1.02-1.028a1.026 1.026 0 0 0-1.02-1.03zm2.564 0a1.014 1.014 0 0 0-.725.303 1.038 1.038 0 0 0-.295.728c0 .568.46 1.028 1.02 1.028s1.02-.46 1.02-1.028a1.023 1.023 0 0 0-1.02-1.03z" fill-rule="evenodd"/><path d="M173.058 38.195c.564 0 1.02-.46 1.02-1.028a1.027 1.027 0 0 0-1.02-1.03c-.564 0-1.021.46-1.021 1.03 0 .568.457 1.028 1.021 1.028zm2.564 0c.564 0 1.02-.46 1.02-1.028a1.018 1.018 0 0 0-.296-.727 1.03 1.03 0 0 0-.724-.303c-.564 0-1.02.46-1.02 1.03 0 .568.456 1.028 1.02 1.028z"/><path clip-rule="evenodd" d="M165.381 38.71a1.026 1.026 0 0 0-.725.302 1.035 1.035 0 0 0-.295.727c0 .57.46 1.03 1.02 1.03s1.02-.46 1.02-1.03a1.026 1.026 0 0 0-1.02-1.028zm2.556 0a1.018 1.018 0 0 0-1.02 1.029c0 .57.46 1.03 1.02 1.03s1.02-.46 1.02-1.03a1.028 1.028 0 0 0-1.02-1.028zm2.564 0a1.022 1.022 0 0 0-1.02 1.029c0 .57.46 1.03 1.02 1.03s1.02-.46 1.02-1.03a1.028 1.028 0 0 0-1.02-1.028zm2.557 0a1.026 1.026 0 0 0-.725.302 1.035 1.035 0 0 0-.296.727c0 .57.461 1.03 1.021 1.03s1.02-.46 1.02-1.03a1.026 1.026 0 0 0-1.02-1.028zm2.564 0a1.018 1.018 0 0 0-1.02 1.029c0 .57.46 1.03 1.02 1.03s1.02-.46 1.02-1.03a1.028 1.028 0 0 0-1.02-1.028z" fill-rule="evenodd"/><path d="M165.381 43.353c.564 0 1.02-.462 1.02-1.03a1.028 1.028 0 0 0-1.02-1.03c-.564 0-1.02.46-1.02 1.03 0 .568.456 1.03 1.02 1.03z"/><path clip-rule="evenodd" d="M167.937 41.293a1.021 1.021 0 0 0-1.02 1.03c0 .568.46 1.03 1.02 1.03s1.02-.46 1.02-1.03a1.026 1.026 0 0 0-1.02-1.03zm2.564 0a1.012 1.012 0 0 0-.725.303 1.038 1.038 0 0 0-.295.727c0 .568.46 1.03 1.02 1.03s1.02-.46 1.02-1.03a1.026 1.026 0 0 0-1.02-1.03z" fill-rule="evenodd"/><path d="M173.058 43.353c.564 0 1.02-.462 1.02-1.03a1.028 1.028 0 0 0-1.02-1.03c-.564 0-1.021.46-1.021 1.03 0 .568.457 1.03 1.021 1.03zm2.564 0c.564 0 1.02-.462 1.02-1.03a1.018 1.018 0 0 0-.296-.726 1.032 1.032 0 0 0-.724-.304c-.564 0-1.02.46-1.02 1.03 0 .568.456 1.03 1.02 1.03z"/><path clip-rule="evenodd" d="M178.178 38.71a1.022 1.022 0 0 0-1.02 1.029c0 .57.46 1.03 1.02 1.03s1.02-.46 1.02-1.03a1.028 1.028 0 0 0-1.02-1.028z" fill-rule="evenodd"/><path d="M178.178 43.353c.564 0 1.02-.462 1.02-1.03a1.023 1.023 0 0 0-1.02-1.03c-.564 0-1.02.46-1.02 1.03 0 .568.456 1.03 1.02 1.03z"/><path clip-rule="evenodd" d="M167.937 43.876a1.023 1.023 0 0 0-.945.636 1.02 1.02 0 0 0-.075.394c0 .57.46 1.03 1.02 1.03s1.02-.46 1.02-1.03a1.026 1.026 0 0 0-1.02-1.03zm2.564 0a1.014 1.014 0 0 0-.725.302 1.038 1.038 0 0 0-.295.728c0 .57.46 1.03 1.02 1.03s1.02-.46 1.02-1.03a1.026 1.026 0 0 0-1.02-1.03z" fill-rule="evenodd"/><path d="M173.058 45.936c.564 0 1.02-.46 1.02-1.03a1.027 1.027 0 0 0-1.02-1.03c-.564 0-1.021.46-1.021 1.03 0 .568.457 1.03 1.021 1.03zm2.564 0c.564 0 1.02-.46 1.02-1.03a1.018 1.018 0 0 0-.296-.727 1.029 1.029 0 0 0-.724-.303c-.564 0-1.02.46-1.02 1.03 0 .568.456 1.03 1.02 1.03zm2.556 0c.564 0 1.02-.46 1.02-1.03a1.023 1.023 0 0 0-1.02-1.03c-.564 0-1.02.46-1.02 1.03 0 .568.456 1.03 1.02 1.03z"/><path clip-rule="evenodd" d="M167.937 46.46a1.016 1.016 0 0 0-.945.635 1.017 1.017 0 0 0-.075.393c0 .57.46 1.03 1.02 1.03s1.02-.46 1.02-1.03a1.028 1.028 0 0 0-1.02-1.028zm2.564 0a1.02 1.02 0 0 0-1.02 1.028c0 .57.46 1.03 1.02 1.03s1.02-.46 1.02-1.03a1.024 1.024 0 0 0-1.02-1.028z" fill-rule="evenodd"/><path d="M173.058 48.518c.564 0 1.02-.46 1.02-1.03a1.03 1.03 0 0 0-1.02-1.028c-.564 0-1.021.46-1.021 1.028 0 .57.457 1.03 1.021 1.03zm2.564 0c.564 0 1.02-.46 1.02-1.03a1.015 1.015 0 0 0-.297-.725 1.025 1.025 0 0 0-.723-.303c-.564 0-1.02.46-1.02 1.028 0 .57.456 1.03 1.02 1.03zm2.556 0c.564 0 1.02-.46 1.02-1.03a1.024 1.024 0 0 0-1.02-1.028c-.564 0-1.02.46-1.02 1.028 0 .57.456 1.03 1.02 1.03z"/><path clip-rule="evenodd" d="M167.937 49.034a1.018 1.018 0 0 0-1.02 1.028c0 .57.46 1.03 1.02 1.03s1.02-.46 1.02-1.03a1.028 1.028 0 0 0-1.02-1.028zm2.564 0a1.022 1.022 0 0 0-1.02 1.028c0 .57.46 1.03 1.02 1.03s1.02-.46 1.02-1.03a1.028 1.028 0 0 0-1.02-1.028z" fill-rule="evenodd"/><path d="M173.058 51.102c.564 0 1.02-.46 1.02-1.03a1.028 1.028 0 0 0-1.02-1.03c-.564 0-1.021.46-1.021 1.03 0 .568.457 1.03 1.021 1.03zm2.564 0c.564 0 1.02-.46 1.02-1.03a1.028 1.028 0 0 0-1.02-1.03c-.564 0-1.02.46-1.02 1.03 0 .568.456 1.03 1.02 1.03zm2.556 0c.564 0 1.02-.46 1.02-1.03a1.023 1.023 0 0 0-1.02-1.03c-.564 0-1.02.46-1.02 1.03 0 .568.456 1.03 1.02 1.03zm2.565-2.584c.564 0 1.02-.46 1.02-1.03a1.034 1.034 0 0 0-.297-.725 1.029 1.029 0 0 0-.723-.303c-.562 0-1.021.46-1.021 1.028 0 .57.459 1.03 1.021 1.03zm0 2.584c.564 0 1.02-.46 1.02-1.03a1.028 1.028 0 0 0-1.02-1.03c-.562 0-1.021.46-1.021 1.03 0 .568.459 1.03 1.021 1.03z"/><path clip-rule="evenodd" d="M170.501 51.616a1.016 1.016 0 0 0-.945.637 1.02 1.02 0 0 0-.075.394c0 .568.46 1.028 1.02 1.028s1.02-.46 1.02-1.028a1.026 1.026 0 0 0-1.02-1.03z" fill-rule="evenodd"/><path d="M173.058 53.675c.564 0 1.02-.46 1.02-1.028a1.028 1.028 0 0 0-1.02-1.03c-.564 0-1.021.46-1.021 1.03 0 .568.457 1.028 1.021 1.028zm2.564 0c.564 0 1.02-.46 1.02-1.028a1.018 1.018 0 0 0-.296-.727 1.032 1.032 0 0 0-.724-.304c-.564 0-1.02.46-1.02 1.03 0 .569.456 1.029 1.02 1.029zm2.556 0c.564 0 1.02-.46 1.02-1.028a1.023 1.023 0 0 0-1.02-1.03c-.564 0-1.02.46-1.02 1.03 0 .568.456 1.028 1.02 1.028zm2.565 0c.564 0 1.02-.46 1.02-1.028a1.018 1.018 0 0 0-.297-.727 1.017 1.017 0 0 0-.723-.304c-.562 0-1.021.46-1.021 1.03 0 .569.459 1.029 1.021 1.029z"/><path clip-rule="evenodd" d="M170.501 54.199a1.014 1.014 0 0 0-.725.302 1.038 1.038 0 0 0-.295.728c0 .57.46 1.03 1.02 1.03s1.02-.46 1.02-1.03a1.026 1.026 0 0 0-1.02-1.03z" fill-rule="evenodd"/><path d="M173.058 56.259c.564 0 1.02-.46 1.02-1.03a1.028 1.028 0 0 0-1.02-1.03c-.564 0-1.021.46-1.021 1.03 0 .568.457 1.03 1.021 1.03zm2.564 0c.564 0 1.02-.46 1.02-1.03a1.017 1.017 0 0 0-.296-.727 1.03 1.03 0 0 0-.724-.303c-.564 0-1.02.46-1.02 1.03 0 .568.456 1.03 1.02 1.03zm2.556 0c.564 0 1.02-.46 1.02-1.03a1.023 1.023 0 0 0-1.02-1.03c-.564 0-1.02.46-1.02 1.03 0 .568.456 1.03 1.02 1.03zm2.565 0c.564 0 1.02-.46 1.02-1.03a1.017 1.017 0 0 0-.297-.727 1.016 1.016 0 0 0-.723-.303c-.562 0-1.021.46-1.021 1.03 0 .568.459 1.03 1.021 1.03z"/><path clip-rule="evenodd" d="M170.501 56.783a1.02 1.02 0 0 0-1.02 1.028c0 .57.46 1.03 1.02 1.03s1.02-.46 1.02-1.03a1.024 1.024 0 0 0-1.02-1.028z" fill-rule="evenodd"/><path d="M173.058 58.841c.564 0 1.02-.46 1.02-1.03a1.03 1.03 0 0 0-1.02-1.028c-.564 0-1.021.46-1.021 1.028 0 .57.457 1.03 1.021 1.03zm2.564 0c.564 0 1.02-.46 1.02-1.03a1.015 1.015 0 0 0-.297-.725 1.025 1.025 0 0 0-.723-.303c-.564 0-1.02.46-1.02 1.028 0 .57.456 1.03 1.02 1.03zm2.556 0c.564 0 1.02-.46 1.02-1.03a1.024 1.024 0 0 0-1.02-1.028c-.564 0-1.02.46-1.02 1.028 0 .57.456 1.03 1.02 1.03zm2.565 0c.564 0 1.02-.46 1.02-1.03a1.034 1.034 0 0 0-.297-.725 1.029 1.029 0 0 0-.723-.303c-.562 0-1.021.46-1.021 1.028 0 .57.459 1.03 1.021 1.03z"/><path clip-rule="evenodd" d="M183.299 54.199a1.023 1.023 0 0 0-.945.636 1.003 1.003 0 0 0-.075.394c0 .57.46 1.03 1.02 1.03s1.02-.46 1.02-1.03a1.026 1.026 0 0 0-1.02-1.03zm0 2.584a1.016 1.016 0 0 0-.945.635 1.017 1.017 0 0 0-.075.393c0 .57.46 1.03 1.02 1.03s1.02-.46 1.02-1.03a1.026 1.026 0 0 0-1.02-1.028z" fill-rule="evenodd"/><path d="M190.984 58.841c.564 0 1.022-.46 1.022-1.03a1.025 1.025 0 0 0-1.02-1.028c-.564 0-1.02.46-1.02 1.028 0 .57.454 1.03 1.018 1.03zm2.558 0c.562 0 1.02-.46 1.02-1.03a1.015 1.015 0 0 0-.297-.725 1.025 1.025 0 0 0-.723-.303c-.564 0-1.02.46-1.02 1.028 0 .57.456 1.03 1.02 1.03zm2.555 0c.564 0 1.02-.46 1.02-1.03a1.034 1.034 0 0 0-.298-.725 1.014 1.014 0 0 0-.722-.303c-.563 0-1.021.46-1.021 1.028 0 .57.458 1.03 1.021 1.03z"/><path clip-rule="evenodd" d="M198.663 56.783a1.016 1.016 0 0 0-.945.635 1.017 1.017 0 0 0-.075.393c0 .57.46 1.03 1.02 1.03s1.02-.46 1.02-1.03a1.028 1.028 0 0 0-1.02-1.028z" fill-rule="evenodd"/><path d="M188.42 56.259c.564 0 1.02-.46 1.02-1.03a1.036 1.036 0 0 0-.297-.727 1.026 1.026 0 0 0-.723-.303c-.563 0-1.021.46-1.021 1.03 0 .568.458 1.03 1.021 1.03zm2.566 0c.564 0 1.02-.46 1.02-1.03a1.028 1.028 0 0 0-1.02-1.03c-.564 0-1.02.46-1.02 1.03 0 .568.456 1.03 1.02 1.03zm2.556 0c.562 0 1.02-.46 1.02-1.03a1.017 1.017 0 0 0-.296-.727 1.03 1.03 0 0 0-.724-.303c-.564 0-1.02.46-1.02 1.03 0 .568.456 1.03 1.02 1.03zm2.555 0c.564 0 1.02-.46 1.02-1.03a1.036 1.036 0 0 0-.297-.727 1.026 1.026 0 0 0-.723-.303c-.563 0-1.021.46-1.021 1.03 0 .568.458 1.03 1.021 1.03z"/><path clip-rule="evenodd" d="M198.663 54.199a1.023 1.023 0 0 0-.946.636 1.02 1.02 0 0 0-.074.394c0 .57.46 1.03 1.02 1.03s1.02-.46 1.02-1.03a1.032 1.032 0 0 0-1.02-1.03z" fill-rule="evenodd"/><path d="M188.42 53.675c.564 0 1.02-.46 1.02-1.028a1.037 1.037 0 0 0-.297-.727 1.028 1.028 0 0 0-.723-.304c-.563 0-1.021.46-1.021 1.03 0 .569.458 1.029 1.021 1.029zm2.566 0c.564 0 1.02-.46 1.02-1.028a1.028 1.028 0 0 0-1.02-1.03c-.564 0-1.02.46-1.02 1.03 0 .568.456 1.028 1.02 1.028zm2.556 0c.562 0 1.02-.46 1.02-1.028a1.018 1.018 0 0 0-.296-.727 1.032 1.032 0 0 0-.724-.304c-.564 0-1.02.46-1.02 1.03 0 .569.456 1.029 1.02 1.029zm2.555 0c.564 0 1.02-.46 1.02-1.028a1.037 1.037 0 0 0-.297-.727 1.028 1.028 0 0 0-.723-.304c-.563 0-1.021.46-1.021 1.03 0 .569.458 1.029 1.021 1.029z"/><path clip-rule="evenodd" d="M198.663 51.616a1.025 1.025 0 0 0-.946.637 1.02 1.02 0 0 0-.074.394c0 .568.46 1.028 1.02 1.028s1.02-.46 1.02-1.028a1.031 1.031 0 0 0-1.02-1.03z" fill-rule="evenodd"/><path d="M188.42 51.102c.564 0 1.02-.46 1.02-1.03a1.028 1.028 0 0 0-1.02-1.03c-.563 0-1.021.46-1.021 1.03 0 .568.458 1.03 1.021 1.03zm2.566 0c.564 0 1.02-.46 1.02-1.03a1.028 1.028 0 0 0-1.02-1.03c-.564 0-1.02.46-1.02 1.03 0 .568.456 1.03 1.02 1.03zm2.556 0c.562 0 1.02-.46 1.02-1.03a1.023 1.023 0 0 0-1.02-1.03c-.564 0-1.02.46-1.02 1.03 0 .568.456 1.03 1.02 1.03zm2.555 0c.564 0 1.02-.46 1.02-1.03a1.028 1.028 0 0 0-1.02-1.03c-.563 0-1.021.46-1.021 1.03 0 .568.458 1.03 1.021 1.03z"/><path clip-rule="evenodd" d="M198.663 49.034a1.018 1.018 0 0 0-1.02 1.028c0 .57.46 1.03 1.02 1.03s1.02-.46 1.02-1.03a1.028 1.028 0 0 0-1.02-1.028zm-12.798-2.574a1.02 1.02 0 0 0-1.02 1.028c0 .57.46 1.03 1.02 1.03s1.02-.46 1.02-1.03a1.028 1.028 0 0 0-1.02-1.028z" fill-rule="evenodd"/><path d="M188.42 48.518c.564 0 1.02-.46 1.02-1.03a1.034 1.034 0 0 0-.297-.725 1.029 1.029 0 0 0-.723-.303c-.563 0-1.021.46-1.021 1.028 0 .57.458 1.03 1.021 1.03zm2.566 0c.564 0 1.02-.46 1.02-1.03a1.025 1.025 0 0 0-1.02-1.028c-.564 0-1.02.46-1.02 1.028 0 .57.456 1.03 1.02 1.03zm2.556 0c.562 0 1.02-.46 1.02-1.03a1.015 1.015 0 0 0-.297-.725 1.025 1.025 0 0 0-.723-.303c-.564 0-1.02.46-1.02 1.028 0 .57.456 1.03 1.02 1.03zm2.555 0c.564 0 1.02-.46 1.02-1.03a1.034 1.034 0 0 0-.298-.725 1.014 1.014 0 0 0-.722-.303c-.563 0-1.021.46-1.021 1.028 0 .57.458 1.03 1.021 1.03z"/><path clip-rule="evenodd" d="M198.663 46.46a1.016 1.016 0 0 0-.945.635 1.017 1.017 0 0 0-.075.393c0 .57.46 1.03 1.02 1.03s1.02-.46 1.02-1.03a1.028 1.028 0 0 0-1.02-1.028zm-12.798-2.584a1.014 1.014 0 0 0-.725.302 1.022 1.022 0 0 0-.295.728c0 .57.46 1.03 1.02 1.03s1.02-.46 1.02-1.03a1.026 1.026 0 0 0-1.02-1.03z" fill-rule="evenodd"/><path d="M188.42 45.936c.564 0 1.02-.46 1.02-1.03a1.036 1.036 0 0 0-.297-.727 1.025 1.025 0 0 0-.723-.303c-.563 0-1.021.46-1.021 1.03 0 .568.458 1.03 1.021 1.03zm2.566 0c.564 0 1.02-.46 1.02-1.03a1.027 1.027 0 0 0-1.02-1.03c-.564 0-1.02.46-1.02 1.03 0 .568.456 1.03 1.02 1.03zm2.556 0c.562 0 1.02-.46 1.02-1.03a1.018 1.018 0 0 0-.296-.727 1.029 1.029 0 0 0-.724-.303c-.564 0-1.02.46-1.02 1.03 0 .568.456 1.03 1.02 1.03zm2.555 0c.564 0 1.02-.46 1.02-1.03a1.036 1.036 0 0 0-.297-.727 1.025 1.025 0 0 0-.723-.303c-.563 0-1.021.46-1.021 1.03 0 .568.458 1.03 1.021 1.03z"/><path clip-rule="evenodd" d="M198.663 43.876a1.023 1.023 0 0 0-.946.636 1.02 1.02 0 0 0-.074.394c0 .57.46 1.03 1.02 1.03s1.02-.46 1.02-1.03a1.032 1.032 0 0 0-1.02-1.03zm-12.798-2.583a1.012 1.012 0 0 0-.725.303 1.022 1.022 0 0 0-.295.727c0 .568.46 1.03 1.02 1.03s1.02-.46 1.02-1.03a1.026 1.026 0 0 0-1.02-1.03z" fill-rule="evenodd"/><path d="M188.42 43.353c.564 0 1.02-.462 1.02-1.03a1.037 1.037 0 0 0-.297-.726 1.028 1.028 0 0 0-.723-.304c-.563 0-1.021.46-1.021 1.03 0 .568.458 1.03 1.021 1.03zm2.566 0c.564 0 1.02-.462 1.02-1.03a1.028 1.028 0 0 0-1.02-1.03c-.564 0-1.02.46-1.02 1.03 0 .568.456 1.03 1.02 1.03zm2.556 0c.562 0 1.02-.462 1.02-1.03a1.018 1.018 0 0 0-.296-.726 1.032 1.032 0 0 0-.724-.304c-.564 0-1.02.46-1.02 1.03 0 .568.456 1.03 1.02 1.03zm2.555 0c.564 0 1.02-.462 1.02-1.03a1.037 1.037 0 0 0-.297-.726 1.028 1.028 0 0 0-.723-.304c-.563 0-1.021.46-1.021 1.03 0 .568.458 1.03 1.021 1.03z"/><path clip-rule="evenodd" d="M198.663 41.293a1.023 1.023 0 0 0-.946.637 1.02 1.02 0 0 0-.074.393c0 .568.46 1.03 1.02 1.03s1.02-.46 1.02-1.03a1.031 1.031 0 0 0-1.02-1.03zm-12.798-2.582a1.02 1.02 0 0 0-1.02 1.028c0 .57.46 1.03 1.02 1.03s1.02-.46 1.02-1.03a1.028 1.028 0 0 0-1.02-1.028zm2.555 0a1.025 1.025 0 0 0-.945.635 1.018 1.018 0 0 0-.076.393c0 .57.46 1.03 1.021 1.03a1.03 1.03 0 1 0 0-2.058zm2.566 0a1.016 1.016 0 0 0-.945.635 1.017 1.017 0 0 0-.075.393c0 .57.46 1.03 1.02 1.03s1.02-.46 1.02-1.03a1.028 1.028 0 0 0-1.02-1.028zm2.556 0a1.02 1.02 0 0 0-1.02 1.028c0 .57.46 1.03 1.02 1.03s1.02-.46 1.02-1.03a1.028 1.028 0 0 0-1.02-1.028zm2.555 0a1.025 1.025 0 0 0-.945.635 1.018 1.018 0 0 0-.076.393c0 .57.46 1.03 1.021 1.03a1.03 1.03 0 1 0 0-2.058zm2.566 0a1.016 1.016 0 0 0-.945.635 1.017 1.017 0 0 0-.075.393c0 .57.46 1.03 1.02 1.03s1.02-.46 1.02-1.03a1.028 1.028 0 0 0-1.02-1.028zm-12.798-2.575a1.014 1.014 0 0 0-.725.303 1.022 1.022 0 0 0-.295.728c0 .568.46 1.028 1.02 1.028s1.02-.46 1.02-1.028a1.026 1.026 0 0 0-1.02-1.03z" fill-rule="evenodd"/><path d="M188.42 38.195c.564 0 1.02-.46 1.02-1.028a1.037 1.037 0 0 0-.297-.727 1.026 1.026 0 0 0-.723-.303c-.563 0-1.021.46-1.021 1.03 0 .568.458 1.028 1.021 1.028zm2.566 0c.564 0 1.02-.46 1.02-1.028a1.027 1.027 0 0 0-1.02-1.03c-.564 0-1.02.46-1.02 1.03 0 .568.456 1.028 1.02 1.028zm2.556 0c.562 0 1.02-.46 1.02-1.028a1.018 1.018 0 0 0-.296-.727 1.03 1.03 0 0 0-.724-.303c-.564 0-1.02.46-1.02 1.03 0 .568.456 1.028 1.02 1.028zm2.555 0c.564 0 1.02-.46 1.02-1.028a1.037 1.037 0 0 0-.297-.727 1.026 1.026 0 0 0-.723-.303c-.563 0-1.021.46-1.021 1.03 0 .568.458 1.028 1.021 1.028z"/><path clip-rule="evenodd" d="M198.663 36.136a1.023 1.023 0 0 0-.946.637c-.05.125-.076.259-.074.394 0 .568.46 1.028 1.02 1.028s1.02-.46 1.02-1.028a1.031 1.031 0 0 0-1.02-1.03zm-12.798-2.584a1.014 1.014 0 0 0-.725.303 1.021 1.021 0 0 0-.295.727c0 .57.46 1.03 1.02 1.03s1.02-.46 1.02-1.03a1.026 1.026 0 0 0-1.02-1.03z" fill-rule="evenodd"/><path d="M188.42 35.612c.564 0 1.02-.46 1.02-1.03a1.037 1.037 0 0 0-.297-.726 1.025 1.025 0 0 0-.723-.304c-.563 0-1.021.46-1.021 1.03 0 .568.458 1.03 1.021 1.03zm2.566 0c.564 0 1.02-.46 1.02-1.03a1.027 1.027 0 0 0-1.02-1.03c-.564 0-1.02.46-1.02 1.03 0 .568.456 1.03 1.02 1.03zm2.556 0c.562 0 1.02-.46 1.02-1.03a1.018 1.018 0 0 0-.296-.726 1.029 1.029 0 0 0-.724-.304c-.564 0-1.02.46-1.02 1.03 0 .568.456 1.03 1.02 1.03zm2.555 0c.564 0 1.02-.46 1.02-1.03a1.037 1.037 0 0 0-.297-.726 1.025 1.025 0 0 0-.723-.304c-.563 0-1.021.46-1.021 1.03 0 .568.458 1.03 1.021 1.03z"/><path clip-rule="evenodd" d="M198.663 33.552a1.023 1.023 0 0 0-.946.637c-.05.125-.076.258-.074.393 0 .57.46 1.03 1.02 1.03s1.02-.46 1.02-1.03a1.031 1.031 0 0 0-1.02-1.03zm-12.798-2.582a1.014 1.014 0 0 0-.725.302 1.022 1.022 0 0 0-.295.728c0 .568.46 1.028 1.02 1.028s1.02-.46 1.02-1.028a1.026 1.026 0 0 0-1.02-1.03z" fill-rule="evenodd"/><path d="M188.42 33.028c.564 0 1.02-.46 1.02-1.028a1.036 1.036 0 0 0-.297-.727 1.026 1.026 0 0 0-.723-.303c-.563 0-1.021.46-1.021 1.03 0 .568.458 1.028 1.021 1.028zm2.566 0c.564 0 1.02-.46 1.02-1.028a1.028 1.028 0 0 0-1.02-1.03c-.564 0-1.02.46-1.02 1.03 0 .568.456 1.028 1.02 1.028zm2.556 0c.562 0 1.02-.46 1.02-1.028a1.017 1.017 0 0 0-.296-.727 1.03 1.03 0 0 0-.724-.303c-.564 0-1.02.46-1.02 1.03 0 .568.456 1.028 1.02 1.028zm2.555 0c.564 0 1.02-.46 1.02-1.028a1.036 1.036 0 0 0-.297-.727 1.026 1.026 0 0 0-.723-.303c-.563 0-1.021.46-1.021 1.03 0 .568.458 1.028 1.021 1.028z"/><path clip-rule="evenodd" d="M198.663 30.97a1.023 1.023 0 0 0-.946.637 1.02 1.02 0 0 0-.074.393c0 .568.46 1.028 1.02 1.028s1.02-.46 1.02-1.028a1.032 1.032 0 0 0-1.02-1.03zm-12.798-2.582a1.02 1.02 0 0 0-1.02 1.028c0 .57.46 1.03 1.02 1.03s1.02-.46 1.02-1.03a1.028 1.028 0 0 0-1.02-1.029z" fill-rule="evenodd"/><path d="M188.42 30.456c.564 0 1.02-.46 1.02-1.03a1.028 1.028 0 0 0-1.02-1.03c-.563 0-1.021.46-1.021 1.03 0 .568.458 1.03 1.021 1.03zm2.566 0c.564 0 1.02-.46 1.02-1.03a1.028 1.028 0 0 0-1.02-1.03c-.564 0-1.02.46-1.02 1.03 0 .568.456 1.03 1.02 1.03zm2.556 0c.562 0 1.02-.46 1.02-1.03a1.023 1.023 0 0 0-1.02-1.03c-.564 0-1.02.46-1.02 1.03 0 .568.456 1.03 1.02 1.03zm2.555 0c.564 0 1.02-.46 1.02-1.03a1.028 1.028 0 0 0-1.02-1.03c-.563 0-1.021.46-1.021 1.03 0 .568.458 1.03 1.021 1.03z"/><path clip-rule="evenodd" d="M198.663 28.387a1.016 1.016 0 0 0-.945.636 1.017 1.017 0 0 0-.075.393c0 .57.46 1.03 1.02 1.03s1.02-.46 1.02-1.03a1.028 1.028 0 0 0-1.02-1.029zm-12.798-2.574a1.022 1.022 0 0 0-1.02 1.028c0 .57.46 1.03 1.02 1.03s1.02-.46 1.02-1.028a1.026 1.026 0 0 0-1.02-1.03z" fill-rule="evenodd"/><path d="M188.42 27.872c.564 0 1.02-.46 1.02-1.029a1.037 1.037 0 0 0-.297-.726 1.026 1.026 0 0 0-.723-.304c-.563 0-1.021.46-1.021 1.028 0 .57.458 1.03 1.021 1.03zm2.566 0c.564 0 1.02-.46 1.02-1.029a1.027 1.027 0 0 0-1.02-1.03c-.564 0-1.02.46-1.02 1.028 0 .57.456 1.03 1.02 1.03zm2.556 0c.562 0 1.02-.46 1.02-1.029a1.018 1.018 0 0 0-.296-.726 1.03 1.03 0 0 0-.724-.304c-.564 0-1.02.46-1.02 1.028 0 .57.456 1.03 1.02 1.03zm2.555 0c.564 0 1.02-.46 1.02-1.029a1.037 1.037 0 0 0-.297-.726 1.026 1.026 0 0 0-.723-.304c-.563 0-1.021.46-1.021 1.028 0 .57.458 1.03 1.021 1.03z"/><path clip-rule="evenodd" d="M198.663 25.813a1.018 1.018 0 0 0-1.02 1.028c0 .57.46 1.03 1.02 1.03s1.02-.46 1.02-1.028a1.031 1.031 0 0 0-1.02-1.03zm-12.798-2.584a1.014 1.014 0 0 0-.725.302 1.021 1.021 0 0 0-.295.728c0 .57.46 1.03 1.02 1.03s1.02-.46 1.02-1.03a1.026 1.026 0 0 0-1.02-1.03z" fill-rule="evenodd"/><path d="M188.42 25.29c.564 0 1.02-.46 1.02-1.031a1.037 1.037 0 0 0-.297-.727 1.026 1.026 0 0 0-.723-.303c-.563 0-1.021.46-1.021 1.03 0 .568.458 1.03 1.021 1.03zm2.566 0c.564 0 1.02-.46 1.02-1.031a1.027 1.027 0 0 0-1.02-1.03c-.564 0-1.02.46-1.02 1.03 0 .568.456 1.03 1.02 1.03zm2.556 0c.562 0 1.02-.46 1.02-1.031a1.018 1.018 0 0 0-.296-.727 1.03 1.03 0 0 0-.724-.303c-.564 0-1.02.46-1.02 1.03 0 .568.456 1.03 1.02 1.03zm2.555 0c.564 0 1.02-.46 1.02-1.031a1.037 1.037 0 0 0-.297-.727 1.026 1.026 0 0 0-.723-.303c-.563 0-1.021.46-1.021 1.03 0 .568.458 1.03 1.021 1.03z"/><path clip-rule="evenodd" d="M198.663 23.229a1.023 1.023 0 0 0-.946.637c-.05.125-.076.258-.074.393 0 .57.46 1.03 1.02 1.03s1.02-.46 1.02-1.03a1.031 1.031 0 0 0-1.02-1.03zm-12.798-2.582a1.014 1.014 0 0 0-.725.302 1.022 1.022 0 0 0-.295.728c0 .568.46 1.028 1.02 1.028s1.02-.46 1.02-1.028a1.026 1.026 0 0 0-1.02-1.03z" fill-rule="evenodd"/><path d="M188.42 22.705c.564 0 1.02-.46 1.02-1.028a1.036 1.036 0 0 0-.297-.727 1.025 1.025 0 0 0-.723-.303c-.563 0-1.021.46-1.021 1.03 0 .568.458 1.028 1.021 1.028zm2.566 0c.564 0 1.02-.46 1.02-1.028a1.027 1.027 0 0 0-1.02-1.03c-.564 0-1.02.46-1.02 1.03 0 .568.456 1.028 1.02 1.028zm2.556 0c.562 0 1.02-.46 1.02-1.028a1.018 1.018 0 0 0-.296-.727 1.029 1.029 0 0 0-.724-.303c-.564 0-1.02.46-1.02 1.03 0 .568.456 1.028 1.02 1.028zm2.555 0c.564 0 1.02-.46 1.02-1.028a1.036 1.036 0 0 0-.297-.727 1.025 1.025 0 0 0-.723-.303c-.563 0-1.021.46-1.021 1.03 0 .568.458 1.028 1.021 1.028z"/><path clip-rule="evenodd" d="M198.663 20.647a1.023 1.023 0 0 0-.946.636 1.02 1.02 0 0 0-.074.394c0 .568.46 1.028 1.02 1.028s1.02-.46 1.02-1.028a1.032 1.032 0 0 0-1.02-1.03zm-12.8-2.583a1.018 1.018 0 0 0-1.02 1.028c0 .57.46 1.03 1.02 1.03s1.02-.46 1.02-1.03a1.028 1.028 0 0 0-1.02-1.028z" fill-rule="evenodd"/><path d="M188.42 20.133c.564 0 1.02-.46 1.02-1.03a1.036 1.036 0 0 0-.297-.727 1.026 1.026 0 0 0-.723-.304c-.563 0-1.021.46-1.021 1.03 0 .569.458 1.03 1.021 1.03zm2.566 0c.564 0 1.02-.46 1.02-1.03a1.028 1.028 0 0 0-1.02-1.03c-.564 0-1.02.46-1.02 1.03 0 .567.456 1.03 1.02 1.03zm2.556 0c.562 0 1.02-.46 1.02-1.03a1.017 1.017 0 0 0-.296-.727 1.03 1.03 0 0 0-.724-.304c-.564 0-1.02.46-1.02 1.03 0 .569.456 1.03 1.02 1.03zm2.555 0c.564 0 1.02-.46 1.02-1.03a1.036 1.036 0 0 0-.297-.727 1.026 1.026 0 0 0-.723-.304c-.563 0-1.021.46-1.021 1.03 0 .569.458 1.03 1.021 1.03z"/><path clip-rule="evenodd" d="M198.663 18.062a1.023 1.023 0 0 0-.946.637 1.02 1.02 0 0 0-.074.393c0 .57.46 1.03 1.02 1.03s1.02-.46 1.02-1.03a1.028 1.028 0 0 0-1.02-1.028zm-12.8-2.57a1.02 1.02 0 0 0-1.02 1.028c0 .57.46 1.03 1.02 1.03s1.02-.46 1.02-1.028a1.026 1.026 0 0 0-1.02-1.03z" fill-rule="evenodd"/><path d="M188.42 17.548c.564 0 1.02-.46 1.02-1.028a1.037 1.037 0 0 0-.297-.727 1.028 1.028 0 0 0-.723-.303c-.563 0-1.021.46-1.021 1.028 0 .57.458 1.03 1.021 1.03zm2.566 0c.564 0 1.02-.46 1.02-1.028a1.028 1.028 0 0 0-1.02-1.03c-.564 0-1.02.46-1.02 1.028 0 .57.456 1.03 1.02 1.03zm2.556 0c.562 0 1.02-.46 1.02-1.028a1.018 1.018 0 0 0-.296-.727 1.032 1.032 0 0 0-.724-.303c-.564 0-1.02.46-1.02 1.028 0 .57.456 1.03 1.02 1.03zm2.555 0c.564 0 1.02-.46 1.02-1.028a1.037 1.037 0 0 0-.297-.727 1.028 1.028 0 0 0-.723-.303c-.563 0-1.021.46-1.021 1.028 0 .57.458 1.03 1.021 1.03z"/><path clip-rule="evenodd" d="M198.663 15.49a1.016 1.016 0 0 0-.945.635 1.017 1.017 0 0 0-.075.393c0 .57.46 1.03 1.02 1.03s1.02-.46 1.02-1.028a1.031 1.031 0 0 0-1.02-1.03zm-12.8-2.584a1.014 1.014 0 0 0-.725.302 1.022 1.022 0 0 0-.295.728c0 .57.46 1.03 1.02 1.03s1.02-.46 1.02-1.03a1.026 1.026 0 0 0-1.02-1.03z" fill-rule="evenodd"/><path d="M188.42 14.966c.564 0 1.02-.46 1.02-1.03a1.037 1.037 0 0 0-.297-.727 1.026 1.026 0 0 0-.723-.303c-.563 0-1.021.46-1.021 1.03 0 .568.458 1.03 1.021 1.03zm2.566 0c.564 0 1.02-.46 1.02-1.03a1.027 1.027 0 0 0-1.02-1.03c-.564 0-1.02.46-1.02 1.03 0 .568.456 1.03 1.02 1.03zm2.556 0c.562 0 1.02-.46 1.02-1.03a1.018 1.018 0 0 0-.296-.727 1.03 1.03 0 0 0-.724-.303c-.564 0-1.02.46-1.02 1.03 0 .568.456 1.03 1.02 1.03zm2.555 0c.564 0 1.02-.46 1.02-1.03a1.037 1.037 0 0 0-.297-.727 1.026 1.026 0 0 0-.723-.303c-.563 0-1.021.46-1.021 1.03 0 .568.458 1.03 1.021 1.03z"/><path clip-rule="evenodd" d="M198.663 12.906a1.023 1.023 0 0 0-.946.636c-.05.125-.076.259-.074.394 0 .57.46 1.03 1.02 1.03s1.02-.46 1.02-1.03a1.031 1.031 0 0 0-1.02-1.03zm-12.8-2.583a1.014 1.014 0 0 0-.725.303 1.021 1.021 0 0 0-.295.727c0 .569.46 1.029 1.02 1.029s1.02-.46 1.02-1.029a1.026 1.026 0 0 0-1.02-1.03z" fill-rule="evenodd"/><path d="M188.42 12.382c.564 0 1.02-.46 1.02-1.029a1.037 1.037 0 0 0-.297-.726 1.026 1.026 0 0 0-.723-.304c-.563 0-1.021.46-1.021 1.03 0 .569.458 1.029 1.021 1.029zm2.566 0c.564 0 1.02-.46 1.02-1.029a1.027 1.027 0 0 0-1.02-1.03c-.564 0-1.02.46-1.02 1.03 0 .569.456 1.029 1.02 1.029zm2.556 0c.562 0 1.02-.46 1.02-1.029a1.018 1.018 0 0 0-.296-.726 1.03 1.03 0 0 0-.724-.304c-.564 0-1.02.46-1.02 1.03 0 .569.456 1.029 1.02 1.029zm2.555 0c.564 0 1.02-.46 1.02-1.029a1.037 1.037 0 0 0-.297-.726 1.026 1.026 0 0 0-.723-.304c-.563 0-1.021.46-1.021 1.03 0 .569.458 1.029 1.021 1.029z"/><path clip-rule="evenodd" d="M198.663 10.323a1.023 1.023 0 0 0-.946.637 1.02 1.02 0 0 0-.074.393c0 .569.46 1.029 1.02 1.029s1.02-.46 1.02-1.029a1.031 1.031 0 0 0-1.02-1.03zm-12.8-2.582a1.02 1.02 0 0 0-1.02 1.028c0 .57.46 1.03 1.02 1.03s1.02-.46 1.02-1.03a1.028 1.028 0 0 0-1.02-1.028z" fill-rule="evenodd"/><path d="M188.42 9.81c.564 0 1.02-.46 1.02-1.03a1.037 1.037 0 0 0-.297-.728 1.026 1.026 0 0 0-.723-.303c-.563 0-1.021.46-1.021 1.03 0 .568.458 1.03 1.021 1.03zm2.566 0c.564 0 1.02-.46 1.02-1.03a1.027 1.027 0 0 0-1.02-1.031c-.564 0-1.02.46-1.02 1.03 0 .568.456 1.03 1.02 1.03zm2.556 0c.562 0 1.02-.46 1.02-1.03a1.018 1.018 0 0 0-.296-.728 1.03 1.03 0 0 0-.724-.303c-.564 0-1.02.46-1.02 1.03 0 .568.456 1.03 1.02 1.03zm2.555 0c.564 0 1.02-.46 1.02-1.03a1.037 1.037 0 0 0-.297-.728 1.026 1.026 0 0 0-.723-.303c-.563 0-1.021.46-1.021 1.03 0 .568.458 1.03 1.021 1.03z"/><path clip-rule="evenodd" d="M198.663 7.74a1.017 1.017 0 0 0-.945.636 1.017 1.017 0 0 0-.075.393c0 .57.46 1.03 1.02 1.03s1.02-.46 1.02-1.03a1.028 1.028 0 0 0-1.02-1.028zm-12.8-2.573a1.02 1.02 0 0 0-1.02 1.028c0 .57.46 1.03 1.02 1.03s1.02-.46 1.02-1.028a1.026 1.026 0 0 0-1.02-1.03z" fill-rule="evenodd"/><path d="M188.42 7.225c.564 0 1.02-.46 1.02-1.028a1.037 1.037 0 0 0-.297-.727 1.026 1.026 0 0 0-.723-.303c-.563 0-1.021.46-1.021 1.028 0 .57.458 1.03 1.021 1.03zm2.566 0c.564 0 1.02-.46 1.02-1.028a1.027 1.027 0 0 0-1.02-1.03c-.564 0-1.02.46-1.02 1.028 0 .57.456 1.03 1.02 1.03zm2.556 0c.562 0 1.02-.46 1.02-1.028a1.018 1.018 0 0 0-.296-.727 1.03 1.03 0 0 0-.724-.303c-.564 0-1.02.46-1.02 1.028 0 .57.456 1.03 1.02 1.03zm2.555 0c.564 0 1.02-.46 1.02-1.028a1.037 1.037 0 0 0-.297-.727 1.026 1.026 0 0 0-.723-.303c-.563 0-1.021.46-1.021 1.028 0 .57.458 1.03 1.021 1.03z"/><path clip-rule="evenodd" d="M198.663 5.167a1.017 1.017 0 0 0-.945.635 1.017 1.017 0 0 0-.075.393c0 .57.46 1.03 1.02 1.03s1.02-.46 1.02-1.028a1.031 1.031 0 0 0-1.02-1.03zm-12.8-2.587a1.014 1.014 0 0 0-.725.303 1.022 1.022 0 0 0-.295.727c0 .57.46 1.03 1.02 1.03s1.02-.46 1.02-1.03a1.026 1.026 0 0 0-1.02-1.03z" fill-rule="evenodd"/><path d="M188.42 4.64c.564 0 1.02-.46 1.02-1.028a1.037 1.037 0 0 0-.297-.726 1.026 1.026 0 0 0-.723-.304c-.563 0-1.021.46-1.021 1.03 0 .569.458 1.03 1.021 1.03v-.001zm2.566 0c.564 0 1.02-.46 1.02-1.028a1.027 1.027 0 0 0-1.02-1.03c-.564 0-1.02.46-1.02 1.03 0 .569.456 1.03 1.02 1.03v-.001zm2.556 0c.562 0 1.02-.46 1.02-1.028a1.018 1.018 0 0 0-.296-.726 1.03 1.03 0 0 0-.724-.304c-.564 0-1.02.46-1.02 1.03 0 .569.456 1.03 1.02 1.03v-.001zm2.555 0c.564 0 1.02-.46 1.02-1.028a1.037 1.037 0 0 0-.297-.726 1.026 1.026 0 0 0-.723-.304c-.563 0-1.021.46-1.021 1.03 0 .569.458 1.03 1.021 1.03v-.001z"/><path clip-rule="evenodd" d="M198.663 2.582a1.023 1.023 0 0 0-.946.637 1.02 1.02 0 0 0-.074.393c0 .57.46 1.03 1.02 1.03s1.02-.46 1.02-1.03a1.031 1.031 0 0 0-1.02-1.03zM185.863 0a1.014 1.014 0 0 0-.725.302 1.022 1.022 0 0 0-.295.728c0 .568.46 1.028 1.02 1.028s1.02-.46 1.02-1.028a1.026 1.026 0 0 0-1.02-1.03z" fill-rule="evenodd"/><path d="M188.42 2.06c.564 0 1.02-.462 1.02-1.03a1.037 1.037 0 0 0-.297-.727A1.026 1.026 0 0 0 188.42 0c-.563 0-1.021.46-1.021 1.03 0 .568.458 1.03 1.021 1.03zm2.566 0c.564 0 1.02-.462 1.02-1.03a1.027 1.027 0 0 0-1.02-1.03c-.564 0-1.02.46-1.02 1.03 0 .568.456 1.03 1.02 1.03zm2.556 0c.562 0 1.02-.462 1.02-1.03a1.018 1.018 0 0 0-.296-.727 1.03 1.03 0 0 0-.724-.303c-.564 0-1.02.46-1.02 1.03 0 .568.456 1.03 1.02 1.03zm2.555 0c.564 0 1.02-.462 1.02-1.03a1.037 1.037 0 0 0-.297-.727 1.026 1.026 0 0 0-.723-.303c-.563 0-1.021.46-1.021 1.03 0 .568.458 1.03 1.021 1.03z"/><path clip-rule="evenodd" d="M198.663 2.068a1.023 1.023 0 0 0 .945-.636 1.02 1.02 0 0 0 .075-.394 1.028 1.028 0 0 0-1.02-1.028 1.03 1.03 0 0 0 0 2.058zm-25.605 57.287a1.02 1.02 0 0 0-1.021 1.03c0 .57.461 1.03 1.021 1.03a1.026 1.026 0 0 0 .721-1.754 1.028 1.028 0 0 0-.721-.306zm-2.557 0a1.014 1.014 0 0 0-.725.303 1.038 1.038 0 0 0-.295.728c0 .57.46 1.03 1.02 1.03s1.02-.46 1.02-1.03a1.028 1.028 0 0 0-1.02-1.03zm5.121 0a1.023 1.023 0 0 0-.945.637 1.002 1.002 0 0 0-.075.394c0 .57.46 1.03 1.02 1.03s1.02-.46 1.02-1.03a1.028 1.028 0 0 0-1.02-1.03zm2.556 0a1.014 1.014 0 0 0-.725.303 1.038 1.038 0 0 0-.295.728c0 .57.46 1.03 1.02 1.03s1.02-.46 1.02-1.03a1.028 1.028 0 0 0-1.02-1.03zm2.565 0a1.02 1.02 0 0 0-1.021 1.03c0 .57.461 1.03 1.021 1.03a1.03 1.03 0 1 0 0-2.06zm2.556 0a1.023 1.023 0 0 0-.945.637 1.002 1.002 0 0 0-.075.394c0 .57.46 1.03 1.02 1.03s1.02-.46 1.02-1.03a1.028 1.028 0 0 0-1.02-1.03z" fill-rule="evenodd"/><path d="M173.058 63.998c.564 0 1.02-.46 1.02-1.028a1.028 1.028 0 0 0-1.02-1.03c-.564 0-1.021.46-1.021 1.03 0 .568.457 1.028 1.021 1.028zm2.564 0c.564 0 1.02-.46 1.02-1.028a1.018 1.018 0 0 0-.296-.727 1.032 1.032 0 0 0-.724-.303c-.564 0-1.02.46-1.02 1.03 0 .568.456 1.028 1.02 1.028zm2.556 0c.564 0 1.02-.46 1.02-1.028a1.023 1.023 0 0 0-1.02-1.03c-.564 0-1.02.46-1.02 1.03 0 .568.456 1.028 1.02 1.028zm2.565 0c.564 0 1.02-.46 1.02-1.028a1.018 1.018 0 0 0-.297-.727 1.017 1.017 0 0 0-.723-.303c-.562 0-1.021.46-1.021 1.03 0 .568.459 1.028 1.021 1.028z"/><path clip-rule="evenodd" d="M183.299 61.94a1.025 1.025 0 0 0-.725.302c-.095.096-.17.21-.22.334a1.002 1.002 0 0 0-.075.394c0 .568.46 1.028 1.02 1.028s1.02-.46 1.02-1.028a1.026 1.026 0 0 0-1.02-1.03zm7.687-2.583a1.018 1.018 0 0 0-1.02 1.029c0 .57.46 1.03 1.02 1.03s1.02-.46 1.02-1.03a1.028 1.028 0 0 0-1.02-1.029z" fill-rule="evenodd"/><path d="M190.984 63.998c.564 0 1.022-.46 1.022-1.028a1.028 1.028 0 0 0-1.02-1.03c-.564 0-1.02.46-1.02 1.03 0 .568.454 1.028 1.018 1.028zm-2.564-5.157c.564 0 1.02-.46 1.02-1.03a1.034 1.034 0 0 0-.297-.725 1.029 1.029 0 0 0-.723-.303c-.563 0-1.021.46-1.021 1.028 0 .57.458 1.03 1.021 1.03z"/><path clip-rule="evenodd" d="M188.42 59.357a1.026 1.026 0 0 0-.725.302 1.035 1.035 0 0 0-.296.727c0 .57.46 1.03 1.021 1.03a1.03 1.03 0 1 0 0-2.058z" fill-rule="evenodd"/><path d="M188.42 63.998c.564 0 1.02-.46 1.02-1.028a1.037 1.037 0 0 0-.297-.727 1.028 1.028 0 0 0-.723-.303c-.563 0-1.021.46-1.021 1.03 0 .568.458 1.028 1.021 1.028z"/><path clip-rule="evenodd" d="M185.863 61.94a1.016 1.016 0 0 0-.945.636 1.02 1.02 0 0 0-.075.394c0 .568.46 1.028 1.02 1.028s1.02-.46 1.02-1.028a1.026 1.026 0 0 0-1.02-1.03zm7.679-2.583a1.022 1.022 0 0 0-1.02 1.029c0 .57.46 1.03 1.02 1.03s1.02-.46 1.02-1.03a1.028 1.028 0 0 0-1.02-1.029z" fill-rule="evenodd"/><path d="M193.542 63.998c.562 0 1.02-.46 1.02-1.028a1.018 1.018 0 0 0-.296-.727 1.032 1.032 0 0 0-.724-.303c-.564 0-1.02.46-1.02 1.03 0 .568.456 1.028 1.02 1.028z"/><path clip-rule="evenodd" d="M196.097 59.357a1.026 1.026 0 0 0-.725.302 1.02 1.02 0 0 0-.296.727c0 .57.46 1.03 1.021 1.03a1.03 1.03 0 1 0 0-2.058z" fill-rule="evenodd"/><path d="M196.097 63.998c.564 0 1.02-.46 1.02-1.028a1.037 1.037 0 0 0-.297-.727 1.028 1.028 0 0 0-.723-.303c-.563 0-1.021.46-1.021 1.03 0 .568.458 1.028 1.021 1.028z"/><path clip-rule="evenodd" d="M198.663 59.357a1.018 1.018 0 0 0-1.02 1.029c0 .57.46 1.03 1.02 1.03s1.02-.46 1.02-1.03a1.028 1.028 0 0 0-1.02-1.029zm0 2.583a1.025 1.025 0 0 0-.946.636 1.02 1.02 0 0 0-.074.394c0 .568.46 1.028 1.02 1.028s1.02-.46 1.02-1.028a1.031 1.031 0 0 0-1.02-1.03zM52.33 1.12A3.828 3.828 0 0 0 49.62 0H14.072a1.273 1.273 0 0 0-1.274 1.274v10.261c0 .703.57 1.273 1.274 1.273h34.79a1.284 1.284 0 0 0 .912-.38l2.88-2.88c.2-.2.535-.2.733 0l1.074 1.073c.2.2.2.532 0 .732l-2.88 2.88a1.284 1.284 0 0 0-.38.913v34.772a1.292 1.292 0 0 1-1.29 1.292H44.86a2.56 2.56 0 0 1-2.105-1.094L26.363 26.697a2.56 2.56 0 0 0-2.104-1.092H13.864a2.56 2.56 0 0 0-1.817.75L.75 37.653c-.48.48-.75 1.13-.75 1.798v10.693c0 .678.27 1.328.75 1.799L12.057 63.25c.48.478 1.129.75 1.797.75h28.443c.774 0 1.507-.354 1.986-.96l18.877-23.6a3.85 3.85 0 0 0 .84-2.39V14.386c0-1.02-.408-1.984-1.12-2.708zM30.729 49.926a1.27 1.27 0 0 1-1.276 1.274H15.138a1.273 1.273 0 0 0-.894.37l-2.88 2.88c-.2.2-.535.2-.733 0l-1.084-1.08a.52.52 0 0 1 0-.732l2.88-2.88c.237-.238.37-.56.37-.895v-9.197c0-.704.57-1.272 1.275-1.272h15.372c.704 0 1.274.568 1.274 1.272v10.251l.008.01h.002z" fill-rule="evenodd"/></g></svg>